<?xml version="1.0" encoding="utf-8"?>
<!-- Generator: Adobe Illustrator 24.0.0, SVG Export Plug-In . SVG Version: 6.00 Build 0)  -->
<svg version="1.1" id="Layer_1" xmlns="http://www.w3.org/2000/svg" xmlns:xlink="http://www.w3.org/1999/xlink" x="0px" y="0px"
	 viewBox="0 0 240 100" style="enable-background:new 0 0 240 100;" xml:space="preserve">
<style type="text/css">
	.st0{fill:#1C1C1A;}
	.st1{fill:none;stroke:#1C1C1A;stroke-width:0.69;stroke-miterlimit:10;}
</style>
<g>
	<path class="st0" d="M211.8,52.6v-4.4h-5.1v-8.9h-5.4v8.9H197v4.5h4.4v21.1c0,3.9,1.2,6.9,6.5,6.9c0.5,0,2.1-0.2,4-0.4v-4.2H210
		c-1.1,0-3.2,0-3.2-2.5V52.6H211.8z M170.3,61.6L170.3,61.6c0-4.9,3.9-9.6,8.9-9.6c6.5,0,8.6,4.6,8.9,9.6H170.3z M187.9,70.2
		L187.9,70.2c-0.2,2.4-3.2,6.3-8.3,6.3c-6.2,0-9.3-3.9-9.3-10.5h23.4c0-11.3-4.5-18.7-13.8-18.7c-10.6,0-15.3,7.9-15.3,17.8
		c0,9.2,5.3,16,14.3,16c5.2,0,7.2-1.2,8.7-2.2c4-2.7,5.5-7.2,5.7-8.7L187.9,70.2z M158.1,48.2h-5.4v36.1c0,3.6-0.8,3.9-4,3.9h-1.1
		v4.7c0.8,0.1,1.5,0.2,2.2,0.2c7.9,0,8.2-5.4,8.2-8.1L158.1,48.2L158.1,48.2z M122.3,64.2L122.3,64.2c0-4.3,1.6-12.2,9.3-12.2
		s9.3,7.9,9.3,12.2s-1.6,12.2-9.3,12.2S122.3,68.4,122.3,64.2L122.3,64.2z M116.7,64.2L116.7,64.2c0,8.3,4.7,16.9,14.8,16.9
		c10.2,0,14.9-8.7,14.9-16.9s-4.7-16.9-14.8-16.9S116.7,55.9,116.7,64.2L116.7,64.2z M104.3,61.6L104.3,61.6c0-4.7,3.2-8.6,8.2-8.6
		h2v-5.6c-0.4-0.1-0.9-0.2-1.4-0.2c-4,0-6.9,2.5-9,6.2H104v-5.3h-5.1v32h5.4V61.6z M68.4,61.6L68.4,61.6c0-4.9,3.9-9.6,8.9-9.6
		c6.5,0,8.6,4.6,8.9,9.6H68.4z M85.9,70.1L85.9,70.1c-0.2,2.4-3.2,6.3-8.3,6.3c-6.2,0-9.3-3.9-9.3-10.5h23.4
		c0-11.3-4.5-18.7-13.8-18.7c-10.6,0-15.3,7.9-15.3,17.8c0,9.2,5.3,16,14.3,16c5.1,0,7.2-1.2,8.7-2.2c3-2.1,5-5.2,5.7-8.7L85.9,70.1
		L85.9,70.1z M32.8,62.1L32.8,62.1l7-19.3H40l6.5,19.3H32.8z M48.6,67.3L48.6,67.3l4.4,12.8h6.5L43.5,36.2h-6.7L20.3,80.1h6.1
		l4.6-12.8H48.6z"/>
	<path class="st1" d="M214.3,29.7c-3,0-5.5,2.4-5.5,5.5c0,3.1,2.4,5.5,5.5,5.5c3,0,5.4-2.4,5.5-5.4
		C219.7,32.2,217.3,29.7,214.3,29.7L214.3,29.7L214.3,29.7z"/>
	<path class="st0" d="M212.9,34.9h1.6c0.3,0,0.5,0,0.8-0.1c0.2,0,0.4-0.2,0.4-0.4c0.1-0.1,0.1-0.3,0.1-0.5c0-0.3-0.1-0.5-0.3-0.7
		c-0.3-0.2-0.6-0.3-0.9-0.3h-1.8L212.9,34.9L212.9,34.9z M212.1,38L212.1,38v-5.6h2.5c0.4,0,0.8,0,1.1,0.1c0.3,0.1,0.5,0.3,0.6,0.5
		c0.2,0.3,0.2,0.5,0.2,0.9c0,0.4-0.1,0.7-0.4,1c-0.3,0.3-0.8,0.5-1.2,0.5c0.2,0.1,0.3,0.2,0.4,0.3c0.2,0.2,0.4,0.5,0.6,0.8l1,1.5
		h-0.9l-0.8-1.2c-0.2-0.4-0.4-0.6-0.5-0.8c-0.1-0.1-0.2-0.3-0.4-0.4c-0.1,0-0.2-0.1-0.4-0.1s-0.3,0-0.4,0h-0.9v2.5L212.1,38z"/>
	<path class="st0" d="M153.2,45.2c-2.8-17.5,19.3-26.8,33.5-34C168,17.7,141.5,32.8,153.2,45.2z"/>
	<path class="st0" d="M186.8,11.6c-8.7,5.3-28.3,14.1-28.7,21.4c5.8-6.1,32.1,3.5,40.5-29.6c-9.2,6.9-38.2-1.7-43.4,25.7
		C163.4,21.3,179.2,13.2,186.8,11.6L186.8,11.6z"/>
	<path class="st0" d="M178.5,96.5h8.3v-2.1h-5v-8.6h-3.4V96.5L178.5,96.5z M193.7,96.5h3.3v-7c0,0,0-2-1.7-2.5c0,0-1.9-0.5-6.4,0.7
		l0.2,1.9c0.9-0.4,1.8-0.8,2.8-1c0,0,1.3-0.3,1.7,0.5c0,0,0.4,0.9-1.3,1.3l-2.6,0.8c0,0-2.2,0.6-2.2,2.6c0,1.3,0.9,2.3,2.2,2.5
		c0.9,0.1,1.8,0.1,2.8,0l0-1.9c0,0-0.7,0.6-1.3,0.1c-0.9-0.7,0-1.5,0-1.5s0.1-0.4,2.5-1L193.7,96.5L193.7,96.5z M213.5,96.5
		L213.5,96.5v-8.2c0,0-1.9-3.4-6-0.6c0,0-2.8-2.9-5.7,0.6V87h-3.1v9.5h3.1v-6.2c0.5-0.6,1.7-1.6,2.5-0.3v6.6h3.4V90
		c0,0,1.5-1.3,2.4,0.4v6.1H213.5z"/>
</g>
</svg>
