<?xml version="1.0" encoding="utf-8"?>
<!-- Generator: Adobe Illustrator 24.0.0, SVG Export Plug-In . SVG Version: 6.00 Build 0)  -->
<svg version="1.1" id="Layer_1" xmlns="http://www.w3.org/2000/svg" xmlns:xlink="http://www.w3.org/1999/xlink" x="0px" y="0px"
	 viewBox="0 0 240 100" style="enable-background:new 0 0 240 100;" xml:space="preserve">
<style type="text/css">
	.st0{fill-rule:evenodd;clip-rule:evenodd;fill:#1C1C1A;}
	.st1{fill-rule:evenodd;clip-rule:evenodd;fill:#FFFFFF;}
	.st2{fill:#1C1C1A;}
</style>
<g>
	<path class="st0" d="M235.4,68.1c0,2.9-1.4,5.2-5.6,5.2H18.2c-4.2,0-4.8-2.3-4.8-5.2V34.3c0-2.9,0.6-5.2,4.8-5.2h211.6
		c4.3,0,5.6,2.3,5.6,5.2V68.1L235.4,68.1z"/>
	<path class="st1" d="M86.3,52.1h2.1c2.3,0,4.6-0.6,4.6-3.3c0-2.8-2.7-3.2-4.9-3.2h-1.8V52.1L86.3,52.1z M86.3,43.8h0.8
		c2.3,0,4.3-0.3,4.3-3.1c0-2.8-1.7-3-4.2-3h-0.8V43.8L86.3,43.8z M84.3,35.8h3c3.3,0,6.1,1.2,6.1,4.9c0,1.5-0.5,2.7-1.7,3.6
		c2.1,0.5,3.4,2.5,3.4,4.7c0,3.6-2.9,5-6.5,5h-4.2V35.8L84.3,35.8z"/>
	<polygon class="st1" points="104.2,35.8 113.7,35.8 113.7,37.7 106.2,37.7 106.2,43.1 113.4,43.1 113.4,45 106.2,45 106.2,52.1 
		113.7,52.1 113.7,54 104.2,54 104.2,35.8 	"/>
	<polygon class="st1" points="125.3,52.1 130.3,52.1 130.3,54 123.3,54 123.3,35.8 125.3,35.8 125.3,52.1 	"/>
	<polygon class="st1" points="140.6,52.1 145.6,52.1 145.6,54 138.6,54 138.6,35.8 140.6,35.8 140.6,52.1 	"/>
	<path class="st1" d="M160.4,39.7l-3.1,7.2h6.1L160.4,39.7L160.4,39.7z M156.5,48.8l-2.1,5.2h-2.3l8.4-19l8.1,19h-2.2l-2.1-5.2
		H156.5L156.5,48.8z"/>
	<polygon class="st1" points="177,35 191.1,49.9 191.1,35.8 193.1,35.8 193.1,54.8 179,40 179,54 177,54 177,35 	"/>
	<path class="st1" d="M204.3,44.9c0,4.1,3.3,7.5,7.4,7.5c4.1,0,7.4-3.4,7.4-7.5c0-4.1-3.2-7.6-7.4-7.6
		C207.6,37.4,204.3,40.8,204.3,44.9L204.3,44.9z M221.1,44.9c0,5.2-4.3,9.4-9.5,9.4c-5.2,0-9.4-4.1-9.4-9.4c0-5.2,4.3-9.4,9.4-9.4
		C216.8,35.5,221.1,39.7,221.1,44.9L221.1,44.9z"/>
	<polygon class="st1" points="85.4,66 87.7,66 87.7,66.8 84.5,66.8 84.5,58.4 85.4,58.4 85.4,66 	"/>
	<path class="st1" d="M91.7,60.3l-1.4,3.4h2.8L91.7,60.3L91.7,60.3z M89.9,64.5l-1,2.4h-1l3.9-8.8l3.7,8.8h-1l-1-2.4H89.9L89.9,64.5
		z"/>
	<polygon class="st1" points="97.5,58 100.6,65 103.6,58 105.3,66.8 104.4,66.8 103.3,61.2 103.3,61.2 100.6,67.2 97.9,61.2 
		97.8,61.2 96.8,66.8 95.8,66.8 97.5,58 	"/>
	<polygon class="st1" points="107.3,66.8 106.4,66.8 106.4,58.4 107.3,58.4 107.3,66.8 	"/>
	<polygon class="st1" points="109.1,58.1 115.6,65 115.6,58.4 116.6,58.4 116.6,67.2 110,60.4 110,66.8 109.1,66.8 109.1,58.1 	"/>
	<path class="st1" d="M121.4,60.3l-1.4,3.4h2.8L121.4,60.3L121.4,60.3z M119.6,64.5l-1,2.4h-1l3.9-8.8l3.8,8.8h-1l-1-2.4H119.6
		L119.6,64.5z"/>
	<polygon class="st1" points="127.4,66.8 126.5,66.8 126.5,59.4 124.5,59.4 124.5,58.4 129.5,58.4 129.5,59.4 127.4,59.4 
		127.4,66.8 	"/>
	<polygon class="st1" points="130.4,58.4 134.8,58.4 134.8,59.4 131.4,59.4 131.4,61.8 134.7,61.8 134.7,62.7 131.4,62.7 131.4,66 
		134.8,66 134.8,66.8 130.4,66.8 130.4,58.4 	"/>
	<path class="st1" d="M140.2,60.1c-0.4-0.6-0.8-1-1.5-1s-1.4,0.6-1.4,1.4c0,0.7,0.7,1,1.3,1.3l0.6,0.3c1.1,0.5,2,1,2,2.3
		c0,1.5-1.2,2.7-2.6,2.7c-1.4,0-2.4-0.9-2.6-2.2l0.9-0.3c0.1,0.8,0.8,1.6,1.7,1.6s1.7-0.7,1.7-1.6c0-1-0.8-1.4-1.5-1.7l-0.5-0.3
		c-1-0.4-1.8-0.9-1.8-2.1c0-1.3,1.1-2.1,2.3-2.1c1,0,1.7,0.5,2.2,1.3L140.2,60.1L140.2,60.1z"/>
	<path class="st1" d="M76.8,46.6L43,12.6l-33.9,34c-2.6,2.7-2.6,7,0,9.6l29.1,29.2c2.6,2.7,7,2.7,9.6,0l29.1-29.2
		C79.4,53.6,79.4,49.3,76.8,46.6L76.8,46.6z"/>
	<path class="st0" d="M74.3,46.6l-33.8-34l-33.9,34c-1.3,1.3-2,3-2,4.8c0,1.7,0.7,3.5,2,4.8l29.1,29.2c2.6,2.7,7,2.7,9.6,0
		l29.1-29.2C77,53.6,77,49.3,74.3,46.6L74.3,46.6z"/>
	<path class="st0" d="M44.2,40.7c0-9-6.8-10.5-11.3-10.5c-0.5,0-3.4,0.1-7.3,0.1L9.8,46.2c-1.1,1-1.8,2.3-2.3,3.7l27.2-0.1
		C36.5,49.8,44.2,49.7,44.2,40.7L44.2,40.7z"/>
	<path class="st0" d="M45.6,63.9c0-6.2-3.2-8.7-6.6-9.9c-1.8-0.6-21.6-1-32-1.1c0.1,2.3,0.9,4.7,2.7,6.4l15.1,15.2
		c4.1,0.1,7.4,0.2,8.6,0.2C37.7,74.7,45.6,74,45.6,63.9L45.6,63.9z"/>
	<path class="st0" d="M68.9,46.2L45.9,23.1c-3.6-3.6-9.5-3.6-13,0l-4.4,4.4h5.5c5.7,0,16.9,1.1,16.9,12.8c0,8.3-5.7,10-8.6,10.9v0.1
		c5.6,1.4,10.8,5,10.8,12.9c0,2.9-1.4,13.3-15.7,13.3h-9.5l5,5c3.5,3.6,9.4,3.6,13,0l23.1-23.1C72.5,55.7,72.5,49.8,68.9,46.2
		L68.9,46.2z"/>
	<path class="st1" d="M45.4,39.5c0-9-6.8-10.4-11.3-10.4c-0.4,0-3.4,0-7.3,0.1L10.9,45c-1.1,1.1-1.8,2.4-2.3,3.7l27.2-0.1
		C37.7,48.7,45.4,48.5,45.4,39.5L45.4,39.5z"/>
	<path class="st1" d="M46.8,62.7c0-6.2-3.2-8.7-6.5-9.9c-1.9-0.6-21.7-1-32-1.1c0.1,2.3,1,4.7,2.7,6.4l15.1,15.2
		c4.1,0.1,7.5,0.1,8.6,0.1C38.9,73.4,46.8,72.8,46.8,62.7L46.8,62.7z"/>
	<path class="st1" d="M70.1,45L47,21.9c-3.6-3.6-9.5-3.6-13,0l-4.4,4.5H35c5.7,0,17,1.1,17,12.7c0,8.4-5.7,10.1-8.6,10.9v0.2
		c5.6,1.4,10.8,5,10.8,12.9c0,2.9-1.3,13.3-15.7,13.3H29l5,5c3.5,3.6,9.4,3.6,13,0l23.1-23.1C73.7,54.5,73.7,48.6,70.1,45L70.1,45z"
		/>
	<path class="st2" d="M230.2,13c0.9,0,1.7,0.2,2.6,0.7c0.8,0.4,1.5,1.1,1.9,1.9c0.5,0.8,0.7,1.7,0.7,2.6c0,0.9-0.2,1.8-0.7,2.6
		c-0.5,0.8-1.1,1.5-1.9,1.9c-0.8,0.5-1.7,0.7-2.6,0.7c-0.9,0-1.8-0.2-2.6-0.7c-0.8-0.5-1.5-1.1-1.9-1.9c-0.5-0.8-0.7-1.7-0.7-2.6
		c0-0.9,0.2-1.8,0.7-2.6c0.5-0.8,1.1-1.5,1.9-1.9C228.5,13.2,229.3,13,230.2,13L230.2,13z M230.2,13.9c-0.7,0-1.4,0.2-2.1,0.6
		c-0.7,0.4-1.2,0.9-1.6,1.6c-0.4,0.7-0.6,1.4-0.6,2.2c0,0.8,0.2,1.5,0.6,2.2c0.4,0.7,0.9,1.2,1.6,1.6c0.7,0.4,1.4,0.6,2.2,0.6
		c0.7,0,1.5-0.2,2.2-0.6c0.7-0.4,1.2-0.9,1.6-1.6c0.4-0.7,0.6-1.4,0.6-2.2c0-0.8-0.2-1.5-0.6-2.2c-0.4-0.7-0.9-1.2-1.6-1.6
		C231.6,14.1,230.9,13.9,230.2,13.9L230.2,13.9z M227.9,21.1v-5.6h1.9c0.7,0,1.1,0.1,1.4,0.2c0.3,0.1,0.5,0.3,0.7,0.5
		c0.2,0.3,0.3,0.5,0.3,0.8c0,0.4-0.1,0.8-0.4,1.1c-0.3,0.3-0.7,0.5-1.2,0.5c0.2,0.1,0.4,0.2,0.5,0.3c0.2,0.2,0.5,0.6,0.8,1.1
		l0.7,1.1h-1.1l-0.5-0.9c-0.4-0.7-0.7-1.1-0.9-1.3c-0.2-0.1-0.4-0.2-0.7-0.2h-0.5v2.4H227.9L227.9,21.1z M228.8,17.9h1.1
		c0.5,0,0.9-0.1,1.1-0.2c0.2-0.2,0.3-0.4,0.3-0.6c0-0.2,0-0.3-0.1-0.4c-0.1-0.1-0.2-0.2-0.4-0.3c-0.2-0.1-0.5-0.1-0.9-0.1h-1V17.9
		L228.8,17.9z"/>
</g>
</svg>
