<?xml version="1.0" encoding="utf-8"?>
<!-- Generator: Adobe Illustrator 24.0.0, SVG Export Plug-In . SVG Version: 6.00 Build 0)  -->
<svg version="1.1" id="Layer_1" xmlns="http://www.w3.org/2000/svg" xmlns:xlink="http://www.w3.org/1999/xlink" x="0px" y="0px"
	 viewBox="0 0 240 100" style="enable-background:new 0 0 240 100;" xml:space="preserve">
<style type="text/css">
	.st0{enable-background:new    ;}
	.st1{fill:#1C1C1A;}
	.st2{fill:none;stroke:#1C1C1A;stroke-linecap:round;stroke-miterlimit:10;}
</style>
<g>
	<g class="st0">
		<path class="st1" d="M78.2,24.9h9c5.3,0,7.9,3.3,7.9,9.9c0,5-1.5,7.9-4.2,8.1c3.4,0.2,5.3,3.4,5.3,9c0,7.1-3,10.7-8.9,10.7h-9.1
			L78.2,24.9L78.2,24.9z M86.5,40.9c2.7,0,3.4-1.2,3.4-5.8c0-4.7-0.7-5.8-3.3-5.8h-3.2v11.7H86.5z M86.8,58c3.2,0,4-1.3,4-6.4
			s-0.8-6.5-4.1-6.5h-3.2V58L86.8,58L86.8,58z"/>
	</g>
	<g class="st0">
		<path class="st1" d="M120.4,24.9v37.6H115V45.7h-9v16.9h-5.4V24.9h5.4V41h9.1V24.9H120.4z"/>
	</g>
	<g class="st0">
		<path class="st1" d="M139.7,53.9h-8l-1.7,8.6h-5.7l8.8-37.6h5.4l8.8,37.6h-5.8L139.7,53.9z M138.8,49.7l-3.2-16.1l-3.2,16.1H138.8
			z"/>
	</g>
	<g class="st0">
		<path class="st1" d="M167.9,43v19.5h-2.8l-0.6-3.9h-0.1c-1.4,2.9-3.4,4.3-6,4.3c-6,0-9.5-7-9.5-19.2c0-13,3.9-19.4,11.9-19.4
			c2.3,0,4.2,0.5,5.8,1.4l-1,4.7c-1.3-1.1-2.7-1.6-4.5-1.6c-5.4,0-6.8,3-6.8,14.9c0,11.7,1.3,14.7,5.4,14.7c1.6,0,2.8-0.9,3.5-2.5
			v-8.7h-4.5V43H167.9z"/>
	</g>
	<g class="st0">
		<path class="st1" d="M170.1,24.9h6l5.5,28.7l5.5-28.7h5.8l-8.6,37.6h-5.6L170.1,24.9z"/>
	</g>
	<g class="st0">
		<path class="st1" d="M206.2,53.9h-8l-1.7,8.6h-5.7l8.8-37.6h5.4l8.8,37.6h-5.9L206.2,53.9z M205.3,49.7l-3.2-16.1L199,49.7H205.3z
			"/>
	</g>
	<g class="st0">
		<path class="st1" d="M217.5,24.9h9c7.4,0,11.1,6.3,11.1,18.9c0,12.5-3.7,18.8-11.1,18.8h-9V24.9z M226.6,58
			c4.5,0,5.6-2.9,5.6-14.3c0-11.5-1.2-14.5-5.6-14.5h-3.6V58H226.6z"/>
	</g>
	<g class="st0">
		<path class="st1" d="M83.1,76.9h-3.9l-0.8,2.3h-0.8l3.2-8.9h0.7l3.2,8.9h-0.9L83.1,76.9z M82.9,76.2l-1.7-5l-1.7,5H82.9z"/>
		<path class="st1" d="M85.7,78.9l0.2-0.7c0.5,0.2,1,0.4,1.7,0.4c1.1,0,1.5-0.3,1.5-1.2c0-0.9-0.3-1-1.6-1.4
			c-1.2-0.5-1.6-0.9-1.6-1.9c0-1.2,0.6-1.7,2-1.7c0.6,0,1.2,0.1,1.6,0.3l-0.2,0.6c-0.5-0.2-1-0.3-1.4-0.3c-0.9,0-1.3,0.3-1.3,1.1
			c0,0.8,0.3,0.9,1.4,1.3c1.2,0.5,1.7,0.9,1.7,2c0,1.2-0.7,1.8-2.1,1.8C86.9,79.3,86.3,79.2,85.7,78.9z"/>
	</g>
	<g class="st0">
		<path class="st1" d="M94.7,78.9c-0.3,0.2-0.8,0.4-1.3,0.4c-1,0-1.6-0.6-1.6-1.7v-4.4h-0.9v-0.6h0.9v-1.3l0.8-0.2v1.5h1.9v0.6h-1.9
			v4.3c0,0.9,0.2,1.2,0.9,1.2c0.3,0,0.7-0.1,1-0.4L94.7,78.9z"/>
	</g>
	<g class="st0">
		<path class="st1" d="M96.2,72.5h0.5l0.1,1.2l0,0c0.4-0.8,1-1.3,1.8-1.3c0.2,0,0.5,0.1,0.7,0.1l-0.2,0.8c-0.2-0.1-0.3-0.1-0.6-0.1
			c-0.6,0-1.2,0.4-1.6,1.1v4.9h-0.8L96.2,72.5L96.2,72.5z"/>
	</g>
	<g class="st0">
		<path class="st1" d="M100.2,75.9c0-2.3,0.9-3.4,2.8-3.4c1.9,0,2.8,1.2,2.8,3.4c0,2.3-0.9,3.4-2.8,3.4
			C101.1,79.3,100.2,78.1,100.2,75.9z M105,75.9c0-2.1-0.5-2.7-2-2.7c-1.6,0-2,0.7-2,2.7c0,2.1,0.5,2.7,2,2.7
			C104.5,78.6,105,77.9,105,75.9z"/>
	</g>
	<g class="st0">
		<path class="st1" d="M110.1,70.2h0.8l2.7,7.9l2.7-7.9h0.8l-3.2,8.9h-0.8L110.1,70.2z"/>
	</g>
	<g class="st0">
		<path class="st1" d="M117.3,77.4c0-1.3,0.7-2,2.1-2c0.7,0,1.4,0.1,2,0.3v-1c0-1.2-0.4-1.6-1.6-1.6c-0.6,0-1.3,0.2-1.9,0.5
			l-0.2-0.7c0.7-0.3,1.4-0.5,2.1-0.5c1.6,0,2.3,0.7,2.3,2.4v4.4h-0.5l-0.1-1l0,0c-0.6,0.8-1.4,1.1-2.3,1.1
			C117.9,79.3,117.3,78.7,117.3,77.4z M121.5,77.7v-1.4c-0.6-0.2-1.2-0.2-1.8-0.2c-1.2,0-1.6,0.3-1.6,1.3s0.3,1.3,1.4,1.3
			C120.2,78.6,120.9,78.3,121.5,77.7z"/>
		<path class="st1" d="M124,77.4c0-1.3,0.7-2,2.1-2c0.7,0,1.4,0.1,2,0.3v-1c0-1.2-0.4-1.6-1.6-1.6c-0.6,0-1.3,0.2-1.9,0.5l-0.2-0.7
			c0.7-0.3,1.4-0.5,2.1-0.5c1.6,0,2.3,0.7,2.3,2.4v4.4h-0.5l-0.1-1l0,0c-0.6,0.8-1.4,1.1-2.3,1.1C124.7,79.3,124,78.7,124,77.4z
			 M128.1,77.7v-1.4c-0.6-0.2-1.2-0.2-1.8-0.2c-1.2,0-1.6,0.3-1.6,1.3s0.3,1.3,1.4,1.3C126.9,78.6,127.6,78.3,128.1,77.7z"/>
	</g>
	<g class="st0">
		<path class="st1" d="M130.7,78.9l0.2-0.7c0.5,0.2,1,0.4,1.7,0.4c1.1,0,1.5-0.3,1.5-1.2c0-0.9-0.3-1-1.6-1.4
			c-1.2-0.5-1.6-0.9-1.6-1.9c0-1.2,0.6-1.7,2-1.7c0.6,0,1.2,0.1,1.6,0.3l-0.2,0.6c-0.5-0.2-1-0.3-1.4-0.3c-0.9,0-1.3,0.3-1.3,1.1
			c0,0.8,0.3,0.9,1.4,1.3c1.2,0.5,1.7,0.9,1.7,2c0,1.2-0.7,1.8-2.1,1.8C131.8,79.3,131.2,79.2,130.7,78.9z"/>
	</g>
	<g class="st0">
		<path class="st1" d="M139.5,78.9c-0.3,0.2-0.8,0.4-1.3,0.4c-1,0-1.6-0.6-1.6-1.7v-4.4h-0.9v-0.6h0.9v-1.3l0.8-0.2v1.5h1.9v0.6
			h-1.9v4.3c0,0.9,0.2,1.2,0.9,1.2c0.3,0,0.7-0.1,1-0.4L139.5,78.9z"/>
		<path class="st1" d="M140.8,76.9v-4.4h0.8v4.3c0,1.3,0.3,1.7,1.4,1.7c0.8,0,1.6-0.3,2.1-0.9v-5.2h0.8v6.6h-0.5l-0.1-1l0,0
			c-0.6,0.6-1.5,1.1-2.4,1.1C141.5,79.3,140.8,78.5,140.8,76.9z"/>
	</g>
	<g class="st0">
		<path class="st1" d="M151.1,70.2h2.7c1.7,0,2.7,0.9,2.7,2.5c0,1.4-0.8,2.3-2.3,2.5l2.5,3.9h-0.9l-2.5-3.9h-1.4v3.9h-0.8
			L151.1,70.2L151.1,70.2z M153.7,74.7c1.4,0,2-0.5,2-1.9c0-1.4-0.5-1.9-2-1.9h-1.9v3.8H153.7z"/>
	</g>
	<g class="st0">
		<path class="st1" d="M162.6,76.2h-4.2c0.1,1.8,0.6,2.4,2.3,2.4c0.6,0,1.2-0.1,1.6-0.3l0.2,0.7c-0.5,0.2-1.2,0.3-1.8,0.3
			c-2,0-3-1-3-3.4c0-2.3,0.9-3.4,2.6-3.4C162.2,72.4,162.9,73.7,162.6,76.2z M160.3,73.1c-1.3,0-1.8,0.6-1.9,2.5h3.5
			C162.1,73.8,161.6,73.1,160.3,73.1z"/>
	</g>
	<g class="st0">
		<path class="st1" d="M164,78.9l0.2-0.7c0.5,0.2,1,0.4,1.7,0.4c1.1,0,1.5-0.3,1.5-1.2c0-0.9-0.3-1-1.6-1.4
			c-1.2-0.5-1.6-0.9-1.6-1.9c0-1.2,0.6-1.7,2-1.7c0.6,0,1.2,0.1,1.6,0.3l-0.2,0.6c-0.5-0.2-1-0.3-1.4-0.3c-0.9,0-1.3,0.3-1.3,1.1
			c0,0.8,0.3,0.9,1.4,1.3c1.2,0.5,1.7,0.9,1.7,2c0,1.2-0.7,1.8-2.1,1.8C165.2,79.3,164.6,79.2,164,78.9z"/>
	</g>
	<g class="st0">
		<path class="st1" d="M174.3,76.2h-4.2c0.1,1.8,0.6,2.4,2.3,2.4c0.6,0,1.2-0.1,1.6-0.3l0.2,0.7c-0.5,0.2-1.2,0.3-1.8,0.3
			c-2,0-3-1-3-3.4c0-2.3,0.9-3.4,2.6-3.4C173.8,72.4,174.6,73.7,174.3,76.2z M172,73.1c-1.3,0-1.8,0.6-1.9,2.5h3.5
			C173.8,73.8,173.3,73.1,172,73.1z"/>
	</g>
	<g class="st0">
		<path class="st1" d="M175.8,77.4c0-1.3,0.7-2,2.1-2c0.7,0,1.4,0.1,2,0.3v-1c0-1.2-0.4-1.6-1.6-1.6c-0.6,0-1.3,0.2-1.9,0.5
			l-0.2-0.7c0.7-0.3,1.4-0.5,2.1-0.5c1.6,0,2.3,0.7,2.3,2.4v4.4h-0.5l-0.1-1l0,0c-0.6,0.8-1.4,1.1-2.3,1.1
			C176.4,79.3,175.8,78.7,175.8,77.4z M179.9,77.7v-1.4c-0.6-0.2-1.2-0.2-1.8-0.2c-1.2,0-1.6,0.3-1.6,1.3s0.3,1.3,1.4,1.3
			C178.7,78.6,179.3,78.3,179.9,77.7z"/>
	</g>
	<g class="st0">
		<path class="st1" d="M182.8,72.5h0.5l0.1,1.2l0,0c0.4-0.8,1-1.3,1.8-1.3c0.2,0,0.5,0.1,0.7,0.1l-0.2,0.8c-0.2-0.1-0.3-0.1-0.6-0.1
			c-0.6,0-1.2,0.4-1.6,1.1v4.9h-0.8L182.8,72.5L182.8,72.5z"/>
	</g>
	<g class="st0">
		<path class="st1" d="M186.8,75.9c0-2.3,1-3.4,2.9-3.4c0.6,0,1.2,0.1,1.6,0.3l-0.2,0.7c-0.3-0.2-0.9-0.3-1.4-0.3
			c-1.6,0-2.1,0.7-2.1,2.7c0,2.1,0.6,2.7,2.1,2.7c0.6,0,1.1-0.1,1.5-0.3l0.2,0.7c-0.5,0.2-1.2,0.3-1.7,0.3
			C187.7,79.3,186.8,78.1,186.8,75.9z"/>
		<path class="st1" d="M193.1,69.9h0.8v3.5l0,0c0.6-0.7,1.4-1.1,2.3-1.1c1.3,0,1.9,0.8,1.9,2.4v4.4h-0.8v-4.2c0-1.3-0.3-1.7-1.4-1.7
			c-0.8,0-1.5,0.3-2.1,0.9v5.2H193L193.1,69.9L193.1,69.9z"/>
	</g>
	<g class="st0">
		<path class="st1" d="M202.9,74.7c0-3.1,1.2-4.6,3.7-4.6c0.6,0,1.2,0.1,1.7,0.3l-0.2,0.7c-0.4-0.2-0.9-0.3-1.5-0.3
			c-2.2,0-3,1-3,3.9c0,3,0.8,3.9,3,3.9c0.7,0,1.3-0.1,1.7-0.4l0.2,0.7c-0.5,0.2-1.2,0.3-1.9,0.3C204.1,79.3,202.9,77.8,202.9,74.7z"
			/>
	</g>
	<g class="st0">
		<path class="st1" d="M214.8,76.2h-4.2c0.1,1.8,0.6,2.4,2.3,2.4c0.6,0,1.2-0.1,1.6-0.3l0.2,0.7c-0.5,0.2-1.2,0.3-1.8,0.3
			c-2,0-3-1-3-3.4c0-2.3,0.9-3.4,2.6-3.4C214.3,72.4,215.1,73.7,214.8,76.2z M212.5,73.1c-1.3,0-1.8,0.6-1.9,2.5h3.5
			C214.2,73.8,213.8,73.1,212.5,73.1z"/>
		<path class="st1" d="M216.7,72.5h0.5l0.1,1l0,0c0.6-0.7,1.5-1.1,2.4-1.1c1.3,0,1.9,0.8,1.9,2.3v4.4h-0.8v-4.3
			c0-1.3-0.3-1.7-1.3-1.7c-0.8,0-1.5,0.3-2.1,0.9v5.2h-0.8L216.7,72.5L216.7,72.5z"/>
	</g>
	<g class="st0">
		<path class="st1" d="M226.8,78.9c-0.3,0.2-0.8,0.4-1.3,0.4c-1,0-1.6-0.6-1.6-1.7v-4.4h-0.9v-0.6h0.9v-1.3l0.8-0.2v1.5h1.9v0.6h-2
			v4.3c0,0.9,0.2,1.2,0.9,1.2c0.3,0,0.7-0.1,1-0.4L226.8,78.9z"/>
	</g>
	<g class="st0">
		<path class="st1" d="M232.7,76.2h-4.2c0.1,1.8,0.6,2.4,2.3,2.4c0.6,0,1.2-0.1,1.6-0.3l0.2,0.7c-0.5,0.2-1.2,0.3-1.8,0.3
			c-2,0-3-1-3-3.4c0-2.3,0.9-3.4,2.6-3.4C232.2,72.4,233,73.7,232.7,76.2z M230.3,73.1c-1.3,0-1.8,0.6-1.9,2.5h3.5
			C232.2,73.8,231.7,73.1,230.3,73.1z"/>
		<path class="st1" d="M234.6,72.5h0.5l0.1,1.2l0,0c0.4-0.8,1-1.3,1.8-1.3c0.2,0,0.5,0.1,0.7,0.1l-0.2,0.8c-0.2-0.1-0.3-0.1-0.6-0.1
			c-0.6,0-1.2,0.4-1.6,1.1v4.9h-0.8L234.6,72.5L234.6,72.5z"/>
	</g>
	<path class="st1" d="M53.8,54.2c-0.8-2.8-2.3-5.4-4.4-7.5c-0.3-0.2-0.3-0.6-0.2-0.9c0.3-0.7,0.5-1.4,0.7-2.1c0.6-2.3,0.7-4.6,0.3-7
		c-0.3-2.1-1-4.1-2.1-6c-1.3-2.3-3.2-4.1-5.4-5.3c-1.4-0.8-3-1.3-4.6-1.4c-1.9-0.1-3.8-0.1-5.7-0.1l0,0h-4.9V24H17v18.6h-3.6v-0.7
		c0-5.8,0-11.6,0-17.4c0-0.4-0.1-0.5-0.5-0.5c-3.4,0-6.8,0-10.1,0c-0.1,0-0.3,0-0.4,0v22.9h37.4c2.1,0,4.1,0.6,5.8,1.9
		c3.4,2.5,5,6,5.2,10.2c0.1,2.4-0.5,4.7-1.6,6.8c-2.1,3.8-5.2,6-9.6,6c-6.1,0-12.2,0-18.2,0c-0.4,0-0.5-0.1-0.5-0.5
		c0-3.9,0-7.8,0-11.6v-0.7H17v17h0.6c7.4,0,14.7,0,22,0c0.8,0,1.6-0.1,2.3-0.2c2.4-0.4,4.7-1.5,6.7-3.1c3-2.5,4.9-6,5.6-9.8
		C54.7,59.8,54.6,56.9,53.8,54.2z M9.1,42.6H6.5c-0.2,0-0.3,0-0.5-0.1V28.1h3.6c0,0.2,0.1,0.3,0.1,0.5c0,4.5,0,8.9,0,13.3
		C9.7,42.6,9.7,42.6,9.1,42.6L9.1,42.6z M38,42.4c-0.2,0.1-0.5,0.2-0.8,0.2c-3.1,0-6.1,0-9.1,0c-0.1,0-0.2,0-0.3-0.1v-6.4h0.5
		c2.7,0,5.4,0.1,8,0c1.6-0.1,3.1,1.2,3.2,2.8C39.8,40.3,39.2,41.7,38,42.4L38,42.4z M46.4,42.4C46.3,43,46.1,43.5,46,44l-3.2-1.2
		c0.2-0.8,0.4-1.6,0.5-2.5c0.4-3-1-6.4-3.9-7.8c-0.8-0.3-1.6-0.6-2.4-0.6c-4.2-0.1-8.3,0-12.5,0h-0.2c0,0.2-0.1,0.4-0.1,0.6
		c0,3.1,0,6.3,0,9.4c0,0.4-0.1,0.6-0.5,0.5c-0.8-0.1-1.6,0-2.4,0c-0.2,0-0.4-0.1-0.4-0.3c0-4.6,0-9.2,0-13.8c0-0.1,0-0.2,0.1-0.3
		h0.6c5,0,10.1,0,15.1,0c2.8-0.1,5.6,1.2,7.4,3.4c1.4,1.6,2.4,3.6,2.7,5.7C46.9,39,46.9,40.7,46.4,42.4L46.4,42.4z"/>
	<path class="st1" d="M47.2,57.6c-0.3-1.9-1.3-3.7-2.7-5c-1.2-1.2-2.9-1.9-4.6-1.9c-2.5,0-5.1,0-7.7,0h-3.1v0.1H2.4v21l0,0v4.2H13
		c0.3,0,0.5-0.1,0.5-0.5c0-5.4,0-10.9,0-16.4c0-0.3-0.1-0.4-0.4-0.4c-0.9,0-1.9,0-2.8,0c-0.4,0-0.5,0.1-0.5,0.5c0,4,0,7.9,0,11.9
		v0.6H6.2H6.1v-0.3c0-0.1,0-0.3,0-0.4V54.9h33.8c0.8,0,1.6,0.3,2.1,0.8c1.8,1.5,2.2,4.1,0.9,6.1c-0.6,1-1.7,1.7-3,1.7H28.1
		c-0.1,0-0.2,0-0.2-0.1v-4.7h-3.6c0,0.1-0.1,0.1-0.1,0.2c0,2.8,0,5.6,0,8.5c0,0.3,0.2,0.3,0.5,0.3c5.1,0,10.2,0,15.3,0
		c0.5,0,0.9-0.1,1.4-0.1h0.2l0,0c1.9-0.5,3.6-1.8,4.5-3.6l0,0c0,0,0,0,0-0.1c0.2-0.3,0.4-0.8,0.6-1.2l0.1-0.1
		c0.1-0.2,0.2-0.5,0.2-0.7l0,0l0,0C47.4,60.7,47.5,59.1,47.2,57.6z"/>
	<line class="st2" x1="63.2" y1="17.9" x2="63.2" y2="82.1"/>
</g>
</svg>
