<?xml version="1.0" encoding="utf-8"?>
<!-- Generator: Adobe Illustrator 24.0.0, SVG Export Plug-In . SVG Version: 6.00 Build 0)  -->
<svg version="1.1" id="Layer_1" xmlns="http://www.w3.org/2000/svg" xmlns:xlink="http://www.w3.org/1999/xlink" x="0px" y="0px"
	 viewBox="0 0 240 100" style="enable-background:new 0 0 240 100;" xml:space="preserve">
<style type="text/css">
	.st0{fill:#1C1C1A;}
	.st1{fill:#FFFFFF;}
	.st2{fill:none;stroke:#FFFFFF;stroke-width:3;stroke-miterlimit:10;}
</style>
<g>
	<path class="st0" d="M80.3,11.1h-1.6c-7.7,0-13.9,5.8-13.9,13.1c-6.6,2.2-10.4,7.5-14.2,12.7c-7.8,11.1-15.3,13.3-15.3,13.3
		s6.6,1.6,15.3,13.2c3.9,5.1,7.6,10.4,14.2,12.7c0.1,7.2,6.3,13.1,14,13.1h1.6c2.4,4.4,7.1,7.2,12.4,7.1h13.7h27.2h13.7
		c5.3,0,10.1-2.7,12.4-7.2h1.6c7.7,0,13.9-5.8,13.9-13.1c6.6-2.2,10.3-7.6,14.2-12.7c8.7-11.6,15.3-13.3,15.3-13.3
		s-7.5-2.2-15.3-13.3c-3.7-5.2-7.6-10.4-14.2-12.7c-0.1-7.2-6.3-13.1-14-13.1h-1.6c-2.4-4.4-7.1-7.2-12.4-7.1h-13.7h-27.2H92.8
		C87.4,3.9,82.7,6.6,80.3,11.1z"/>
	<path class="st0" d="M81.6,13h-3c-6.6,0-11.9,5.1-11.9,11.3v1.2c-12.7,3.2-15,18.9-27,24.5l-0.2,0.1c-0.1,0,0.2,0.1,0.2,0.1
		c11.9,5.6,14.3,21.3,27,24.4v1.2c0,6.2,5.3,11.3,12.1,11.3h3c1.7,4.2,6.1,7.2,11.2,7.1h13.7h27.2h13.7c5.1,0,9.4-3,11.2-7.2h3
		c6.6,0,11.9-5.1,11.9-11.3v-1.2c12.7-3.2,15-18.9,27-24.5l0.2-0.1c0.1,0-0.2-0.1-0.2-0.1c-11.9-5.6-14.3-21.3-27-24.4v-1.2
		c0-6.2-5.3-11.3-12.1-11.3h-3c-1.7-4.2-6.1-7.2-11.2-7.1h-13.7h-27.2H92.8C87.7,5.8,83.3,8.7,81.6,13z"/>
	<path class="st1" d="M83.7,16.1v-0.7h0.4c0-0.1,0.1-0.2,0.1-0.4l0.7,0.4c-0.1,0.2-0.1,0.4-0.2,0.6l-0.4,0.2L83.7,16.1z"/>
	<path class="st1" d="M71,25.4l-0.7-0.1c0-0.5,0.1-0.9,0.2-1.4l0.7,0.1C71,24.5,71,24.9,71,25.4z M71.5,22.9l-0.7-0.2
		c0.1-0.4,0.4-0.9,0.5-1.2l0.7,0.4C71.7,22.2,71.6,22.5,71.5,22.9z M72.6,20.7L72,20.2c0.2-0.4,0.5-0.7,0.9-1.1l0.6,0.5
		C73.1,20.1,72.9,20.4,72.6,20.7z M74.2,18.8l-0.5-0.6c0.4-0.2,0.7-0.6,1-0.9l0.5,0.6C74.9,18.3,74.6,18.6,74.2,18.8z M76.3,17.4
		L76,16.7c0.4-0.2,0.7-0.4,1.2-0.6l0.2,0.7C77.1,17.1,76.7,17.2,76.3,17.4z M78.6,16.5l-0.2-0.7c0.4-0.1,0.9-0.2,1.4-0.2l0.1,0.7
		C79.5,16.3,79.1,16.3,78.6,16.5z M81.1,16.1v-0.7c0.2,0,0.4,0,0.6,0h0.7v0.7h-0.7C81.4,16.1,81.3,16.1,81.1,16.1z"/>
	<path class="st1" d="M70,27.9l-0.2-0.7c0.1,0,0.2-0.1,0.4-0.1v-0.4h0.7v0.6l-0.2,0.4C70.4,27.8,70.1,27.8,70,27.9z"/>
	<path class="st1" d="M47.3,49.5l-0.4-0.7c0.4-0.2,0.7-0.5,1.1-0.7l0.5,0.6C48.1,49,47.8,49.3,47.3,49.5z M49.5,48L49,47.4
		c0.4-0.2,0.6-0.5,1-0.9l0.5,0.6C50.2,47.4,49.9,47.7,49.5,48z M51.6,46.2L51,45.5c0.2-0.2,0.6-0.6,0.9-1l0.6,0.5
		C52.2,45.5,51.9,45.9,51.6,46.2z M53.4,44.2l-0.6-0.5c0.2-0.4,0.5-0.6,0.9-1l0.6,0.5C54,43.5,53.7,43.9,53.4,44.2z M55.1,42.2
		l-0.6-0.5c0.2-0.4,0.5-0.7,0.7-1l0.6,0.5C55.6,41.4,55.3,41.8,55.1,42.2z M56.7,39.9l-0.6-0.5c0.2-0.4,0.5-0.6,0.7-1l0.1-0.1
		l0.6,0.5l-0.1,0.1C57.2,39.3,57,39.7,56.7,39.9z M58.2,37.8l-0.6-0.5c0.2-0.4,0.5-0.7,0.7-1.1l0.6,0.5
		C58.8,37.1,58.6,37.5,58.2,37.8z M59.8,35.7l-0.6-0.5c0.2-0.4,0.6-0.7,0.9-1l0.6,0.5C60.4,35,60.1,35.3,59.8,35.7z M61.6,33.7
		l-0.6-0.5c0.2-0.4,0.6-0.6,0.9-1l0.6,0.6C62.2,33,61.8,33.4,61.6,33.7z M63.3,31.9l-0.5-0.6c0.4-0.4,0.6-0.6,1-0.9l0.5,0.6
		C64,31.2,63.7,31.5,63.3,31.9z M65.4,30.1l-0.5-0.6c0.4-0.2,0.7-0.5,1.1-0.7l0.4,0.7C66,29.6,65.7,29.9,65.4,30.1z M67.5,28.9
		l-0.4-0.7c0.4-0.2,0.9-0.4,1.2-0.5l0.2,0.7C68.4,28.5,68,28.6,67.5,28.9z"/>
	<path class="st1" d="M68.5,72.6c-0.4-0.1-0.9-0.4-1.2-0.5l0.4-0.7c0.4,0.2,0.7,0.4,1.2,0.5L68.5,72.6z M66,71.4
		c-0.4-0.2-0.7-0.5-1.1-0.7l0.5-0.6c0.4,0.2,0.7,0.5,1.1,0.7L66,71.4z M63.8,69.8c-0.4-0.2-0.6-0.6-1-0.9l0.5-0.6
		c0.4,0.2,0.6,0.6,1,0.9L63.8,69.8z M61.8,68c-0.2-0.2-0.6-0.6-0.9-1l0.6-0.5c0.2,0.4,0.6,0.6,0.9,1L61.8,68z M60.1,65.9
		c-0.2-0.4-0.6-0.7-0.9-1l0.6-0.5c0.2,0.4,0.5,0.7,0.9,1L60.1,65.9z M58.4,63.8c-0.2-0.4-0.5-0.7-0.7-1.1l0.6-0.5
		c0.2,0.4,0.5,0.7,0.7,1.1L58.4,63.8z M56.8,61.7l-0.1-0.1c-0.2-0.2-0.5-0.6-0.6-0.9l0.6-0.5c0.2,0.2,0.5,0.6,0.6,0.9l0.1,0.1
		L56.8,61.7z M55.2,59.6c-0.2-0.4-0.5-0.7-0.7-1l0.6-0.5c0.2,0.4,0.5,0.7,0.9,1.1L55.2,59.6z M53.6,57.5c-0.2-0.4-0.6-0.7-0.9-1
		l0.6-0.5c0.2,0.4,0.6,0.6,0.9,1L53.6,57.5z M51.9,55.5c-0.2-0.4-0.6-0.6-0.9-1l0.6-0.6c0.4,0.2,0.6,0.6,1,1L51.9,55.5z M50,53.6
		c-0.4-0.2-0.6-0.6-1-0.9l0.5-0.6c0.4,0.2,0.7,0.6,1,0.9L50,53.6z M48,52c-0.4-0.2-0.7-0.5-1.1-0.7l0.4-0.7c0.4,0.2,0.7,0.5,1.1,0.7
		L48,52z"/>
	<path class="st1" d="M70.1,73.5v-0.4c-0.1,0-0.2-0.1-0.4-0.1l0.2-0.7c0.2,0,0.4,0.1,0.6,0.1l0.2,0.4v0.6L70.1,73.5z"/>
	<path class="st1" d="M81.7,84.8c-0.2,0-0.4,0-0.6,0v-0.7c0.1,0,0.4,0,0.5,0l0,0h0.7v0.7H81.7z M79.8,84.7c-0.5-0.1-0.9-0.1-1.4-0.2
		l0.2-0.7c0.4,0.1,0.9,0.2,1.2,0.2L79.8,84.7z M77.2,83.9c-0.4-0.1-0.9-0.4-1.2-0.6l0.4-0.7c0.4,0.2,0.7,0.4,1.1,0.5L77.2,83.9z
		 M74.9,82.7c-0.4-0.2-0.7-0.5-1.1-0.9l0.5-0.6c0.2,0.2,0.6,0.5,1,0.7L74.9,82.7z M72.9,81c-0.2-0.4-0.6-0.7-0.9-1.1l0.6-0.5
		c0.2,0.4,0.5,0.6,0.7,1L72.9,81z M71.3,78.7c-0.2-0.4-0.4-0.9-0.5-1.2l0.7-0.2c0.1,0.4,0.2,0.7,0.5,1.1L71.3,78.7z M70.4,76.1
		c-0.1-0.4-0.1-0.9-0.1-1.2l0.7-0.1c0,0.4,0.1,0.9,0.1,1.2L70.4,76.1z"/>
	<path class="st1" d="M84.3,85.2c-0.1-0.1-0.1-0.2-0.1-0.4h-0.4v-0.7h0.6l0.4,0.2c0.1,0.2,0.1,0.4,0.2,0.6L84.3,85.2z"/>
	<path class="st1" d="M94.7,91.5L94.7,91.5v-0.7l0,0h1.4v0.7H94.7z M97.5,91.5v-0.7h1.4v0.7H97.5z M100.2,91.5v-0.7h1.4v0.7H100.2z
		 M102.9,91.4v-0.7h1.4v0.7H102.9z M105.7,91.4v-0.7h1.4v0.7H105.7z M108.4,91.4v-0.7h1.4v0.7H108.4z M111.2,91.4v-0.7h1.4v0.7
		H111.2z M113.9,91.4v-0.7h1.4v0.7H113.9z M116.6,91.4v-0.7h1.4v0.7H116.6z M119.4,91.4v-0.7h1.4v0.7H119.4z M122.1,91.4v-0.7h1.4
		v0.7H122.1z M124.8,91.4v-0.7h1.4v0.7H124.8z M127.6,91.4v-0.7h1.4v0.7H127.6z M130.3,91.4v-0.7h1.4v0.7H130.3z M133,91.4v-0.7h1.4
		v0.7H133z M135.8,91.4v-0.7h1.4v0.7H135.8z M138.5,91.4v-0.7h1.4v0.7H138.5z M141.2,91.4v-0.7h1.4v0.7H141.2z M144,91.4v-0.7h1.4
		v0.7H144z M93.4,91.4c-0.5,0-1-0.1-1.4-0.2l0.2-0.7c0.4,0.1,0.9,0.1,1.2,0.2L93.4,91.4z M146.7,91.3l-0.1-0.7
		c0.5,0,0.9-0.1,1.2-0.2l0.2,0.7C147.7,91.2,147.2,91.3,146.7,91.3z M90.5,90.8c-0.5-0.1-0.9-0.4-1.2-0.6l0.4-0.7
		c0.4,0.2,0.7,0.4,1.2,0.5L90.5,90.8z M149.4,90.7l-0.2-0.7c0.4-0.1,0.9-0.4,1.2-0.5l0.4,0.7C150.3,90.3,149.9,90.5,149.4,90.7z
		 M88,89.4c-0.4-0.2-0.7-0.5-1.1-0.9l0.5-0.6c0.4,0.2,0.6,0.5,1,0.7L88,89.4z M151.9,89.4l-0.5-0.6c0.4-0.2,0.7-0.5,1-0.7l0.5,0.6
		C152.8,88.8,152.4,89.2,151.9,89.4z M85.9,87.5c-0.4-0.4-0.6-0.7-0.9-1.1l0.6-0.5c0.2,0.4,0.5,0.7,0.7,1L85.9,87.5z M154,87.5
		l-0.6-0.5c0.2-0.4,0.6-0.6,0.7-1l0.6,0.5C154.7,86.8,154.4,87.2,154,87.5z"/>
	<path class="st1" d="M155.6,85.2l-0.7-0.4c0.1-0.2,0.1-0.4,0.2-0.6l0.4-0.2h0.6v0.7h-0.4C155.8,84.9,155.8,85.1,155.6,85.2z"/>
	<path class="st1" d="M157.5,84.8v-0.7h0.7c0.1,0,0.4,0,0.5,0v0.7c-0.1,0-0.4,0-0.6,0H157.5z M160.2,84.6l-0.1-0.7
		c0.4-0.1,0.9-0.1,1.2-0.2l0.2,0.7C161.1,84.4,160.6,84.6,160.2,84.6z M162.9,83.9l-0.2-0.7c0.4-0.1,0.7-0.4,1.1-0.5l0.4,0.7
		C163.6,83.6,163.2,83.7,162.9,83.9z M165.2,82.6l-0.5-0.6c0.4-0.2,0.6-0.5,1-0.7l0.5,0.6C166,82.1,165.6,82.3,165.2,82.6z
		 M167.2,80.8l-0.6-0.5c0.2-0.4,0.5-0.6,0.7-1l0.6,0.5C167.7,80.1,167.5,80.5,167.2,80.8z M168.7,78.6l-0.7-0.4
		c0.2-0.4,0.4-0.7,0.5-1.1l0.7,0.2C169.1,77.7,168.9,78.2,168.7,78.6z M169.6,76.1l-0.7-0.1c0.1-0.4,0.1-0.9,0.1-1.2l0.7,0.1
		C169.8,75.1,169.7,75.6,169.6,76.1z"/>
	<path class="st1" d="M169.1,73.4v-0.6l0.2-0.4c0.2,0,0.4-0.1,0.6-0.1l0.2,0.7c-0.1,0-0.2,0.1-0.4,0.1v0.4L169.1,73.4z"/>
	<path class="st1" d="M171.4,72.5l-0.2-0.7c0.4-0.1,0.7-0.4,1.2-0.5l0.4,0.7C172.3,72.1,171.9,72.3,171.4,72.5z M173.9,71.3
		l-0.4-0.7c0.4-0.2,0.7-0.5,1.1-0.7l0.5,0.6C174.7,70.8,174.3,71,173.9,71.3z M176.2,69.7l-0.5-0.6c0.4-0.2,0.6-0.5,1-0.9l0.5,0.6
		C176.8,69.2,176.5,69.4,176.2,69.7z M178.1,67.9l-0.6-0.6c0.2-0.2,0.6-0.6,0.9-1l0.6,0.5C178.8,67.2,178.4,67.5,178.1,67.9z
		 M179.9,65.8l-0.6-0.5c0.2-0.4,0.5-0.6,0.9-1l0.6,0.5C180.5,65.2,180.1,65.5,179.9,65.8z M181.5,63.7l-0.6-0.5
		c0.2-0.4,0.5-0.7,0.7-1.1l0.6,0.5C182.1,63.1,181.9,63.4,181.5,63.7z M183.1,61.6l-0.6-0.5l0.7-1.1l0.6,0.5L183.1,61.6z
		 M184.7,59.5l-0.6-0.5c0.2-0.4,0.5-0.7,0.7-1.1l0.6,0.5C185.2,58.7,185,59.1,184.7,59.5z M186.3,57.3l-0.6-0.5
		c0.2-0.4,0.6-0.7,0.9-1l0.6,0.5C186.8,56.6,186.6,57,186.3,57.3z M188.1,55.4l-0.6-0.5c0.4-0.4,0.6-0.6,1-1l0.6,0.6
		C188.6,54.7,188.3,55,188.1,55.4z M190,53.5l-0.5-0.6c0.4-0.2,0.7-0.6,1-0.9l0.5,0.6C190.6,53,190.2,53.2,190,53.5z M191.9,51.9
		l-0.5-0.6c0.4-0.2,0.7-0.5,1.1-0.7l0.4,0.7C192.7,51.4,192.3,51.6,191.9,51.9z"/>
	<path class="st1" d="M194.2,50.5l-0.2-0.5h-0.1v-0.1v-0.1h0.1l0.2-0.5c0.1,0,0.2,0.1,0.4,0.1c0.1,0,0.5,0.1,0.5,0.4l0,0l0,0
		c0,0.2-0.2,0.4-0.5,0.4C194.4,50.5,194.3,50.5,194.2,50.5z M194.2,49.9h0.2l0,0H194.2L194.2,49.9L194.2,49.9z"/>
	<path class="st1" d="M192.7,49.4c-0.4-0.2-0.7-0.5-1.1-0.7l0.5-0.6c0.4,0.2,0.7,0.5,1.1,0.7L192.7,49.4z M190.5,47.8
		c-0.4-0.2-0.7-0.6-1-0.9l0.5-0.6c0.4,0.2,0.6,0.6,1,0.9L190.5,47.8z M188.3,46c-0.4-0.2-0.6-0.6-1-1l0.6-0.5c0.2,0.4,0.6,0.6,0.9,1
		L188.3,46z M186.6,44c-0.2-0.4-0.6-0.6-0.9-1l0.6-0.5c0.2,0.4,0.6,0.7,0.9,1L186.6,44z M184.9,42.1c-0.2-0.4-0.5-0.7-0.9-1.1
		l0.6-0.5c0.2,0.4,0.5,0.7,0.7,1L184.9,42.1z M183.2,39.8c-0.2-0.2-0.5-0.6-0.6-0.9l-0.1-0.1l0.6-0.5l0.1,0.1
		c0.2,0.2,0.5,0.6,0.6,0.9L183.2,39.8z M181.6,37.7c-0.2-0.4-0.5-0.7-0.7-1.1l0.6-0.5c0.2,0.4,0.5,0.7,0.7,1.1L181.6,37.7z
		 M180.1,35.6c-0.2-0.4-0.5-0.7-0.9-1l0.6-0.5c0.2,0.4,0.6,0.7,0.9,1L180.1,35.6z M178.4,33.6c-0.2-0.4-0.6-0.6-0.9-1l0.6-0.6
		c0.2,0.4,0.6,0.6,0.9,1L178.4,33.6z M176.5,31.7c-0.4-0.2-0.6-0.6-1-0.9l0.5-0.6c0.4,0.2,0.6,0.6,1,0.9L176.5,31.7z M174.5,30
		c-0.4-0.2-0.7-0.5-1.1-0.7l0.4-0.7c0.4,0.2,0.7,0.5,1.1,0.7L174.5,30z M172.3,28.8c-0.4-0.2-0.7-0.4-1.2-0.5l0.2-0.7
		c0.4,0.1,0.9,0.4,1.2,0.5L172.3,28.8z"/>
	<path class="st1" d="M169.9,27.8c-0.2,0-0.4-0.1-0.6-0.1l-0.2-0.4v-0.6h0.7V27c0.1,0,0.2,0.1,0.4,0.1L169.9,27.8z"/>
	<path class="st1" d="M168.9,25.3c0-0.4-0.1-0.9-0.1-1.2l0.7-0.1c0.1,0.5,0.1,0.9,0.2,1.4H168.9z M168.5,22.8
		c-0.1-0.4-0.2-0.7-0.5-1.1l0.7-0.4c0.2,0.4,0.4,0.9,0.5,1.2L168.5,22.8z M167.3,20.7c-0.2-0.4-0.5-0.6-0.7-1l0.6-0.5
		c0.2,0.4,0.6,0.7,0.9,1.1L167.3,20.7z M165.6,18.7c-0.2-0.2-0.6-0.5-1-0.7l0.5-0.6c0.4,0.2,0.7,0.5,1.1,0.9L165.6,18.7z
		 M163.6,17.3c-0.4-0.2-0.7-0.4-1.1-0.5l0.2-0.7c0.4,0.1,0.9,0.4,1.2,0.6L163.6,17.3z M161.2,16.3c-0.4-0.1-0.9-0.2-1.2-0.2l0.1-0.7
		c0.5,0.1,0.9,0.1,1.4,0.2L161.2,16.3z M158.8,16c-0.1,0-0.4,0-0.5,0h-0.7v-0.7h0.7c0.2,0,0.4,0,0.6,0L158.8,16z"/>
	<path class="st1" d="M155.5,16l-0.4-0.2c-0.1-0.2-0.1-0.4-0.2-0.6l0.7-0.4c0.1,0.1,0.1,0.2,0.1,0.4h0.4v0.7L155.5,16z"/>
	<path class="st1" d="M85.7,14.1L85,13.6c0.2-0.4,0.5-0.7,0.9-1.1l0.6,0.5C86.2,13.3,85.9,13.7,85.7,14.1z M154.2,14
		c-0.2-0.4-0.5-0.7-0.7-1l0.6-0.5c0.4,0.4,0.6,0.7,0.9,1.1L154.2,14z M87.4,12.1l-0.5-0.6c0.4-0.2,0.7-0.6,1.1-0.9l0.5,0.6
		C88,11.6,87.8,11.9,87.4,12.1z M152.4,12.1c-0.4-0.2-0.6-0.5-1-0.7l0.5-0.6c0.4,0.2,0.7,0.5,1.1,0.9L152.4,12.1z M89.5,10.6
		l-0.4-0.7c0.4-0.2,0.9-0.4,1.2-0.6l0.2,0.7C90.4,10.2,90,10.5,89.5,10.6z M150.3,10.6c-0.4-0.2-0.7-0.4-1.2-0.5l0.2-0.7
		c0.5,0.1,0.9,0.4,1.2,0.6L150.3,10.6z M92,9.7L91.9,9c0.5-0.1,0.9-0.2,1.4-0.2l0.1,0.7C92.9,9.5,92.5,9.6,92,9.7z M147.8,9.6
		c-0.4-0.1-0.9-0.1-1.2-0.2l0.1-0.7c0.5,0,1,0.1,1.4,0.2L147.8,9.6z M94.6,9.4V8.6H96v0.7H94.6z M97.4,9.4V8.6h1.4v0.7H97.4z
		 M100.1,9.4V8.6h1.4v0.7H100.1z M102.8,9.4V8.6h1.4v0.7H102.8z M105.6,9.4V8.6h1.4v0.7H105.6z M108.3,9.4V8.6h1.4v0.7H108.3z
		 M111,9.4V8.6h1.4v0.7H111z M113.8,9.4V8.6h1.4v0.7H113.8z M116.5,9.4V8.6h1.4v0.7H116.5z M119.2,9.4V8.6h1.4v0.7H119.2z M122,9.4
		V8.6h1.4v0.7H122z M124.7,9.4V8.6h1.4v0.7H124.7z M127.4,9.4V8.6h1.4v0.7H127.4z M130.2,9.4V8.6h1.4v0.7H130.2z M132.9,9.4V8.6h1.4
		v0.7H132.9z M135.6,9.4V8.6h1.4v0.7H135.6z M138.4,9.4V8.6h1.4v0.7H138.4z M141.1,9.4V8.6h1.4v0.7H141.1z M143.8,9.4V8.6h1.4l0,0
		v0.7H143.8z"/>
	<path class="st1" d="M91,71.1c0.4-0.2,1-0.5,1.7-0.6c0.5-0.1,1.1-0.1,1.7-0.1h0.4c0.4,0,0.9,0.1,1.2,0.4c0.4,0.2,0.6,0.6,0.7,1
		c0,0.5-0.2,0.9-0.9,1.2c-0.2,0.1-0.6,0.2-0.9,0.4l-1,0.1h-1.4c-0.4,0-0.7-0.1-1.4-0.2c-0.5,0.5-0.6,1.1-0.6,1.9
		c0,0.2,0.1,0.6,0.2,0.9c0.2,0.5,0.7,0.9,1.4,1.1c0.4,0.1,0.7,0.1,1,0.1c1.7,0,3.2-0.7,4.5-2.1c0-3.1,0.2-5.5,0.7-6.8H84.2v-1H99
		l0.5-1c0.2-0.4,0.4-0.6,0.6-0.9c0.1-0.2,0.4-0.4,0.6-0.5c0.2-0.1,0.5-0.2,0.7-0.2c0.1,0,0.2,0.1,0.4,0.2c0.4,0.2,0.6,0.7,0.6,1.4
		l0.1,1h1.1v1h-1.1c-0.5,2.9-1.5,4.8-2.9,6.1c0,0.6,0,1.2,0.1,1.9s0.2,1,0.4,1.4l0.5,1.2c0.2,0.4,0.5,0.7,0.7,1l-2.7,1.4
		c-0.1-0.1-0.2-0.5-0.4-0.9l-0.2-1.1L98,77.9v-1.5c-1.5,1.7-3.5,2.6-5.7,2.6c-1.1,0-2.1-0.4-2.9-1c-0.5-0.4-0.7-0.7-1-1.2
		c-0.2-0.4-0.2-0.9-0.2-1.5c0-1.1,0.4-2,1-2.6l-1-0.1l-1.2-0.1c-0.2,0-0.6,0-0.9,0.1c-0.2,0.1-0.6,0.4-0.9,0.6l-0.5-0.5
		c0.2-0.6,0.6-1,1.4-1.4c0.6-0.4,1.5-0.5,2.4-0.5h0.5C89.6,70.9,90.5,70.9,91,71.1z M95.7,72.3c0.1,0,0.2-0.1,0.2-0.2l-0.1-0.2
		l-0.2-0.1l-0.4-0.1h-0.4c-0.7,0-1.5,0.1-2,0.5l0.5,0.1l0.5,0.1c0.2,0,0.4,0,0.5,0H95C95.5,72.3,95.7,72.3,95.7,72.3z M100.1,68.2
		l-0.4,2.2c-0.1,0.5-0.1,1.2-0.1,2.4c0.2-0.2,0.5-0.5,0.7-0.9l0.6-1.1c0.1-0.4,0.2-0.7,0.4-1.2c0.1-0.5,0.1-1,0.1-1.5h-1.4V68.2z
		 M101,65.8l-0.1,0.2l-0.2,0.5l-0.1,0.6h1v-0.4v-0.2v-0.2c0-0.4-0.1-0.5-0.2-0.5H101z"/>
	<path class="st1" d="M102.7,61.7l1.2,1.4l1.2,1c0.6,0.5,1.2,0.7,1.6,0.7c0.1,0,0.2,0,0.4,0c-1.2-2.2-2.6-3.9-4.1-4.7l3.1-0.9
		c0.7,0.6,1.6,1.5,2.4,2.7l0.5,0.9l0.7,0.7l0.9,0.7l1,0.6l-1,0.7h-2.4c-0.1,0-0.2-0.1-0.2-0.1l-0.4-0.5l-0.9,0.6h-2.2
		c-0.5,0-1-0.2-1.6-0.7c-0.4-0.2-1.1-0.9-2.1-1.9l-0.5-0.5l-0.6-0.5l-1.1-0.7l-1-0.5c-0.2-0.1-0.6-0.2-1-0.2l3.1-1.4
		C100.7,59.8,101.7,60.6,102.7,61.7z M105.8,67.2l0.2-0.7l2.6-0.5l-0.4,1.4h2.1v1H108c-0.1,0.5-0.2,1.2-0.4,2.2l-0.1,2.7
		c0,1,0,2.1,0.2,3.4c0.1,1,0.4,2,0.7,2.9l-2.6,1.6c-0.2-0.7-0.5-1.7-0.6-3c0-0.5,0-1.2-0.1-2.4c-0.1-1-0.1-1.9-0.1-2.4V72l0.1-1.2
		l0.1-1.2l0.1-1.2h-2.4v-1h2.7V67.2z"/>
	<path class="st1" d="M112.1,67.2l-1,1h-0.7v-1H112.1z M115.3,71.8c0.9,0.1,1.9,0.5,3,1.4c0.5,0.4,0.9,0.7,1.4,1.1
		c1-0.6,1.6-1.5,1.9-2.5c0.1-0.5,0.1-0.9,0.1-1.1c0-0.9-0.4-1.7-1.2-2.4c-0.9-0.6-2-1-3.2-1c-0.6,0-1.2,0.1-1.7,0.2
		c-0.1,0-0.4,0.1-0.5,0.2c-0.7,0.4-1.4,0.9-1.9,1.5l-1-0.6c1.4-1.9,3.7-2.9,6.8-2.9c1.5,0,2.7,0.4,3.9,1.2c1.1,0.9,1.6,1.9,1.6,3.1
		c0,0.7-0.1,1.5-0.5,2.1c-0.5,1-1.2,1.9-2.2,2.5c-0.2,0.1-0.5,0.4-0.9,0.5c1.7,1.5,3,3.5,3.6,6.1l-3.1,1.5c0-2.7-0.7-5.1-2.4-7
		l-0.4,0.1h-0.6H117h-1.2c-1.4,0-2.5-0.2-3.4-0.6c-0.9-0.4-1.4-1-1.4-1.7c0-0.4,0.1-0.6,0.2-0.7c0.2-0.5,0.7-0.9,1.6-1.1
		c0.2-0.1,0.6-0.1,1.1-0.1C114.4,71.6,114.9,71.6,115.3,71.8z M116.7,75c0.5-0.1,0.9-0.1,1.1-0.2c-0.6-0.6-1.2-1.2-2-1.6l-1.1-0.5
		c-0.2-0.1-0.6-0.1-1-0.1c-0.4,0-0.6,0-0.7,0.1l-0.6,0.2c-0.2,0.2-0.5,0.5-0.5,0.9c0,0.1,0.1,0.2,0.2,0.5c0.1,0.1,0.4,0.2,0.7,0.4
		l1.1,0.2l1.4,0.1C115.4,75,116.7,75,116.7,75z M125.8,67.2v1h-1.2l-0.5-1H125.8z"/>
	<path class="st1" d="M127.9,67.2l0.2-0.7l2.6-0.5l-0.4,1.4h2.1v1h-2.4c-0.1,0.5-0.2,1.2-0.4,2.2l-0.1,2.7c0,1,0,2.1,0.2,3.4
		c0.1,1,0.4,2,0.7,2.9l-2.6,1.6c-0.2-0.7-0.5-1.7-0.6-3c0-0.5,0-1.2-0.1-2.4c-0.1-1-0.1-1.9-0.1-2.4V72l0.1-1.2l0.1-1.2l0.1-1.2
		h-2.4v-1h2.7V67.2z"/>
	<path class="st1" d="M135.3,74.9l-0.6-0.5c-0.1-0.1-0.2-0.4-0.5-0.6c0-0.1-0.1-0.4-0.1-0.6c0-0.7,0.6-1.4,1.7-2
		c0.7-0.4,1.7-0.6,3-0.7c0.2,0,0.6,0,1.2,0l1.6-0.1c1.1,0,1.9-0.2,2.2-0.6c0.2-0.1,0.4-0.2,0.4-0.5v-0.2c0,0-0.1-0.1-0.1-0.2
		l-0.2-0.2l-0.4-0.2h-10.9v-1h16.7v1h-2.2c0.1,0.1,0.1,0.2,0.1,0.4v0.6c0,0.6-0.5,1.1-1.5,1.6c-0.6,0.2-1.5,0.5-2.4,0.5
		c-0.7,0-1.6,0.1-2.4,0.1c-0.4,0-0.6,0-0.9,0.1c-1.2,0.1-2.1,0.4-2.6,0.9c-0.2,0.2-0.4,0.4-0.4,0.6c0,0.4,0.2,0.7,0.6,0.9l0.7,0.2
		l0.9,0.1h0.6l2.1-0.4l0.7-0.1c1.4,0,2.5,0.4,3.4,1.2c0.9,0.9,1.4,1.9,1.4,3c0,0.9-0.2,1.7-0.9,2.5c-0.6,0.6-1.2,1.1-2.2,1.5
		c-0.6,0.2-1.2,0.4-1.9,0.4l-1-1c0.9,0,1.6-0.2,2.2-0.9c0.6-0.6,1-1.4,1-2.2c0-0.6-0.1-1.1-0.5-1.6s-0.7-0.9-1.4-1
		c-0.5-0.1-0.9-0.2-1.2-0.2h-0.7h-0.5c-0.1,0-0.2,0.1-0.4,0.1l-1.7,0.2l-0.9,0.1c-0.1,0.1-0.4,0.2-0.7,0.6c-0.2,0.2-0.4,0.5-0.6,0.7
		l-0.4,1l-0.1,1c0,1.2,0.5,2.4,1.4,3.2c0.7,0.7,1.9,1.4,3.1,1.9c1,0.4,2,0.5,2.9,0.4h1.2l0.5-0.1l0.4-0.1l-0.2,1.2l-0.4,0.1
		c-0.2,0-0.4,0-0.5,0h-0.2h-0.5H142c-2.5,0-4.5-0.6-6.2-1.7c-1.7-1.1-2.6-2.5-2.6-4.1c0-1.4,0.6-2.6,1.7-3.6
		c0.4-0.4,0.7-0.6,1.2-0.9C135.8,75.1,135.5,75,135.3,74.9z"/>
	<path class="st1" d="M151,67.2l0.2-0.7l2.6-0.5l-0.4,1.4h2.1v1h-2.4c-0.1,0.5-0.2,1.2-0.4,2.2l-0.1,2.7c0,1,0,2.1,0.2,3.4
		c0.1,1,0.4,2,0.7,2.9l-2.6,1.6c-0.2-0.7-0.5-1.7-0.6-3c0-0.5,0-1.2-0.1-2.4c-0.1-1-0.1-1.9-0.1-2.4V72l0.1-1.2l0.1-1.2l0.1-1.2
		h-2.4v-1h2.7V67.2z"/>
	<path class="st1" d="M104.6,20.6c0.5,0.1,0.9,0.4,1.1,0.6c0.2,0.2,0.4,0.5,0.4,0.7v0.4l-0.1,0.2c0,0.1-0.2,0.4-0.4,0.5l-1.4-0.6
		c0.1,0,0.1-0.1,0.2-0.1c0,0,0.1-0.1,0.1-0.2l0.1-0.2v-0.2c0-0.4-0.4-0.6-1-0.7c-0.7-0.2-1.6-0.2-2.7-0.2c-1.1,0-2.1,0.1-2.9,0.5
		c-0.7,0.4-1.1,0.7-1.1,1.1c0,0.2,0.1,0.5,0.2,0.7s0.4,0.4,0.6,0.4H99v0.5h-1.1c-0.1,0.7-0.2,1.6-0.2,2.7c0,1.4,0.1,2.2,0.5,2.9
		l-1.2,0.7c-0.1-0.4-0.2-0.9-0.4-1.5c0-0.2,0-0.5,0-0.7c0-0.9-0.1-1.4-0.1-1.5v-0.6v-0.6v-0.6l0.1-0.6h-1.1v-0.5h1
		c-0.4,0-0.6-0.2-0.7-0.6v-0.4c0-0.6,0.5-1.1,1.6-1.5s2.5-0.6,3.9-0.6h0.2C102.6,20.1,103.7,20.2,104.6,20.6z"/>
	<path class="st1" d="M103.7,24.5c0.4-0.1,0.5-0.2,0.5-0.5v-0.1c0,0,0-0.1-0.1-0.1l-0.1-0.1h-0.1h-5v-0.5h7.8v0.5h-1.1l0.1,0.1V24
		c0,0.4-0.1,0.6-0.5,0.7c-0.4,0.2-0.9,0.4-1.5,0.4c-0.9,0-1.5,0.2-2.1,0.6c-0.6,0.4-0.9,0.9-0.9,1.5c0,0.6,0.2,1,0.9,1.4
		c0.1,0,0.2,0.1,0.4,0.1c0.2,0.1,0.5,0.1,0.9,0.1h0.4v-0.4v-0.2c0-0.4,0.1-0.7,0.2-1c0.2-0.4,0.5-0.6,0.7-0.7s0.4-0.1,0.6-0.1
		s0.5,0.1,0.7,0.2c0.2,0.2,0.2,0.5,0.2,0.7c0,0.5-0.1,0.9-0.5,1.2c-0.4,0.4-0.9,0.6-1.4,0.7c0.1,0.2,0.4,0.5,0.6,0.6
		c0.2,0.1,0.6,0.2,1,0.4l-0.7,1.1c-0.1-0.1-0.2-0.2-0.5-0.4c-0.1-0.1-0.2-0.2-0.5-0.5l-0.4-0.5c-0.1-0.2-0.2-0.4-0.2-0.6l-0.2,0.1
		h-0.2c-0.1,0-0.1,0-0.2,0h-0.2c-0.9,0-1.6-0.2-2.1-0.7c-0.4-0.2-0.5-0.5-0.7-0.7c-0.1-0.2-0.2-0.6-0.2-0.9c0-0.5,0.2-1,0.6-1.5
		c0.4-0.4,0.9-0.6,1.4-0.9c0.4-0.1,0.7-0.1,1.2-0.2c0.1,0,0.2,0,0.4,0C103.3,24.7,103.6,24.7,103.7,24.5z M104.3,28.5l0.5-0.4
		c0.2-0.2,0.4-0.5,0.4-0.7v-0.2l-0.1-0.1l-0.1-0.1h-0.1c-0.4,0-0.6,0.2-0.7,0.6c-0.1,0.2-0.2,0.5-0.1,0.9v0.2v0.2
		C104.1,28.8,104.2,28.6,104.3,28.5z"/>
	<path class="st1" d="M114,23.2v0.5h-7.2v-0.5H114z M111.9,25c0.5,0.2,0.9,0.6,1.2,1l0.9-0.4v0.6c-0.9,0.2-1.6,0.7-2.2,1.4l-0.5-0.2
		l0.7-0.6l0.1-0.1c0-0.2-0.1-0.4-0.2-0.5c-0.1-0.4-0.5-0.6-0.9-0.7c-0.2-0.1-0.4-0.1-0.6-0.1c-0.5,0-0.9,0.1-1.2,0.5
		c-0.4,0.4-0.5,0.9-0.5,1.4c0,0.2,0,0.6,0.1,0.7c0.2,0.5,0.6,0.9,1.1,1.1c0.2,0.1,0.5,0.1,0.9,0.1h0.4l0.2-0.1l-0.2,0.5H111l0,0
		h-0.1l0,0h-0.1h-0.2c-0.9,0-1.6-0.2-2.2-0.7c-0.6-0.5-0.9-1.1-0.9-1.7c0-0.7,0.2-1.2,0.9-1.7c0.5-0.5,1.2-0.7,2.1-0.7
		c0.2,0,0.4,0,0.5,0C111.2,24.7,111.5,24.8,111.9,25z"/>
	<path class="st1" d="M119,25c0.5,0.2,0.9,0.6,1.1,1l0.2-0.1l0.2-0.1l0.2-0.1l0.1-0.1l0.1-1.2c0-0.4,0.1-0.6,0.1-0.7h-7.5V23h7.8
		l0.2-0.5c0.1-0.1,0.1-0.2,0.2-0.4c0.1-0.1,0.1-0.2,0.4-0.2c0.1,0,0.2-0.1,0.4-0.1s0.1,0,0.2,0.1c0.1,0,0.1,0.1,0.2,0.2l0.1,0.4V23
		h0.5v0.5h-0.5c-0.2,0.9-0.6,1.6-1.4,2c0,1.6,0.2,2.9,0.9,3.6l-1.2,0.7c-0.1-0.2-0.2-0.7-0.4-1.4c-0.1-0.6-0.1-1.5-0.1-2.4
		c-0.7,0.2-1.6,0.6-2.2,1.4l-0.5-0.2l0.6-0.5c0.1-0.1,0.2-0.2,0.2-0.2c0-0.4-0.2-0.7-0.6-1c-0.4-0.2-0.7-0.4-1.1-0.4
		c-0.5,0-1,0.1-1.2,0.5c-0.4,0.4-0.5,0.9-0.5,1.4c0,0.2,0,0.6,0.1,0.7c0.2,0.5,0.6,0.9,1.1,1.1c0.2,0.1,0.5,0.1,0.9,0.1h0.4h0.2
		l-0.2,0.5h-0.1l0,0h-0.1l0,0H118h-0.2c-0.9,0-1.6-0.2-2.2-0.7c-0.6-0.5-0.9-1.1-0.9-1.7c0-0.7,0.2-1.2,0.9-1.7
		c0.5-0.5,1.2-0.7,2.1-0.7c0.2,0,0.4,0,0.5,0C118.2,24.7,118.6,24.8,119,25z M122.1,23.7l-0.1,0.7v0.7c0.5-0.4,0.7-0.7,0.9-1.4h-0.7
		V23.7z M122.2,23.2h0.7v-0.2v-0.2v-0.1h-0.1C122.6,22.5,122.3,22.7,122.2,23.2z"/>
	<path class="st1" d="M125.6,22.8c0.2-0.2,0.4-0.5,0.4-0.9c0-0.6-0.4-1.1-1.2-1.4c-0.2-0.1-0.5-0.1-0.7-0.1c-0.5,0-0.9,0.1-1.1,0.4
		c-0.4,0.2-0.5,0.5-0.5,0.7v0.2l0.1,0.2l0.1,0.1l0.2,0.1l-1.2,0.7c-0.1,0-0.1-0.1-0.2-0.1l-0.1-0.2l-0.1-0.4v-0.4c0-0.5,0.4-1,1-1.4
		c0.6-0.4,1.4-0.6,2.2-0.6c0.5,0,0.9,0,1.4,0.1c0.7,0.1,1.2,0.5,1.6,1c0.1,0.2,0.2,0.5,0.2,0.7s-0.1,0.5-0.4,0.9l-0.1,0.1
		c-0.1,0.1-0.4,0.2-0.6,0.2h1v0.5h-1.2l-0.1,0.9v1.2c0,0.7,0,1.5,0.1,2.2c0.1,0.6,0.2,1,0.4,1.2l-1.4,0.7c0-0.1-0.1-0.2-0.1-0.4
		l-0.1-0.6l-0.1-0.9v-1.1c0,0,0-0.7,0-2.1c0-0.2,0-0.5,0-0.5c0-0.2,0-0.4,0.1-0.5h-1.2v-0.5h1C124.9,23.2,125.3,23,125.6,22.8z"/>
	<path class="st1" d="M134.4,24h0.2c0.2,0,0.5,0,0.7,0.1c0.2,0.1,0.5,0.2,0.6,0.5l-1,0.6c0-0.2-0.1-0.4-0.4-0.6
		c-0.2-0.1-0.5-0.2-0.7-0.2c-0.4,0-0.9,0.1-1.4,0.5c-0.4,0.4-0.6,0.7-0.6,1.1c0,0.2,0.1,0.5,0.4,0.7c0.1,0.1,0.2,0.1,0.5,0.2
		c0.1,0,0.4,0.1,0.6,0.1c0.7,0,1.4-0.2,2.1-0.9c0.2-0.2,0.5-0.5,0.6-0.6c0-1,0.1-1.7,0.2-2.2h-6v-0.5h6.1l0,0v-0.1l0,0v-0.1l1.1-0.2
		l-0.1,0.2l-0.1,0.4h4.4v0.5h-4.4c0,0.2-0.1,0.5-0.1,0.7v0.9c0.6-0.6,1.1-0.9,1.7-0.9s1.1,0.1,1.5,0.5c0.5,0.4,0.6,0.7,0.6,1.2
		c0,0.4,0,0.6-0.1,1c-0.4,1-1,1.6-2.1,2.1l-0.7-1c0.2,0,0.5-0.1,0.7-0.2c0.7-0.4,1.1-1,1.1-1.9c0-0.1,0-0.2-0.1-0.4
		c-0.1-0.2-0.2-0.5-0.6-0.6c-0.1-0.1-0.4-0.1-0.5-0.1c-0.2,0-0.6,0.1-0.9,0.2s-0.6,0.4-0.9,0.7c0,1.4,0.1,2.4,0.5,2.7l-1.1,0.4
		c-0.2-0.4-0.4-1.2-0.4-2.5c-0.5,0.6-1.1,1.1-1.7,1.5c-0.6,0.4-1.2,0.5-1.9,0.5c-0.5,0-1-0.1-1.2-0.5c-0.4-0.4-0.5-0.6-0.5-1.1
		c0-0.2,0.1-0.6,0.4-0.9c0.4-0.5,0.9-1,1.5-1.4C133.2,24.3,133.8,24,134.4,24z"/>
	<path class="st1" d="M142.6,23l0.1-0.4l1.1-0.2l-0.1,0.6h0.9v0.5h-1c0,0.2-0.1,0.5-0.1,1v1.2c0,0.4,0,0.9,0.1,1.5
		c0.1,0.5,0.2,0.9,0.4,1.2l-1.1,0.7c-0.1-0.2-0.2-0.7-0.2-1.4c0-0.2,0-0.6,0-1c0-0.5,0-0.7,0-1v-0.7v-0.5v-0.5l0.1-0.5h-1v-0.5h0.9
		V23z"/>
	<circle class="st2" cx="148.4" cy="25.2" r="0.7"/>
	<circle class="st2" cx="91.4" cy="25.2" r="0.7"/>
	<path class="st1" d="M92.1,36.8h1.1c0,0-0.2,0.6-0.2,1.6h-0.6C92.4,38.5,92.4,37.5,92.1,36.8z"/>
	<path class="st1" d="M115.6,57.1c0-0.1-0.1-0.1-0.2-0.2c-0.2-0.1-0.5-0.2-0.7-0.4c-1-0.4-1.6-1.5-1.7-2.6c-0.1-1.1,0-2.2,0-3.2
		c0-0.7,0-1.5,0.1-2.2c0.1-0.7,0.4-1.5,1-1.9c-0.4,0-0.7-0.4-0.9-0.7c-0.1-0.4-0.1-0.7-0.1-1.2c0-1.6,0-3.1,0-4.7
		c0-0.5,0-1.1,0.1-1.6c0.1-0.5,0.5-1,1-1.2c0.4-0.1,0.7-0.1,1-0.4c0.2-0.1,0.5-0.6,0.2-0.9c-0.1-0.1-0.4-0.1-0.5-0.1
		c-2.7-0.1-5.6-0.1-8.3-0.1c-0.4,0-0.7,0-0.9,0.4c-0.1,0.2,0.1,0.6,0.4,0.7c0.2,0.1,0.6,0.1,0.9,0.2c0.7,0.2,1,1.1,1.1,1.9
		c0.4,1.7,0.4,3.7,0,5.5c-0.7-1.9-2.5-3.4-4.5-3.7c-2-0.5-4.1,0.1-5.7,1.4c-0.2-1-0.4-2-0.1-3c0.2-1,0.9-1.9,1.9-2.2
		c0.2-0.1,0.5-0.1,0.6-0.2c0.1-0.1,0.2-0.5,0.1-0.6c-0.1-0.1-0.2-0.1-0.4-0.1c-2.6-0.1-5.2-0.1-7.8-0.1c-0.4,0-2.2,0.1-1.6,0.7
		c0.4,0.5,1.2,0.5,1.7,0.9c0.6,0.5,0.7,1.4,0.7,2.1c0,1.6,0.1,3.4,0.1,5c0,0.5,0,1-0.1,1.4c-0.1,0.5-0.5,0.9-1,0.9
		c0.6,0.1,0.9,0.9,1,1.5c0.2,2,0.1,4.1-0.1,6.2c-0.1,0.9-0.4,1.7-1.1,2c-0.2,0.1-0.6,0.1-0.9,0.1c-0.2,0.1-0.5,0.4-0.4,0.6
		c0.1,0.2,0.5,0.4,0.7,0.4c2.9,0.1,5.7,0.1,8.6-0.1c0.4,0,0.7-0.2,0.6-0.5c0-0.1-0.1-0.1-0.2-0.2c-0.6-0.4-1.5-0.6-2-1.2
		c-0.4-0.5-0.4-1.2-0.5-1.9c0-1.5,0-3.1,0-4.6c0-1.6,0-3.4,0.9-4.8c0.7-1.2,2.1-2,3.6-2c1.4,0,2.9,0.7,3.6,2
		c0.2,0.4,0.5,0.9,0.4,1.4c0,0.5-0.4,1-0.9,1c-0.5,0-0.9-0.2-1.4-0.4c-1-0.1-1.6,1.1-1.5,2.1c0.2,1,1,1.6,1.7,2.4
		c0.5,0.5,1,0.9,1.5,1.4c0.1,0.1,0.4,0.4,0.6,0.2c-0.4-0.2-0.1-0.9,0-1.2c0.5-0.9,1.2-1.7,2-2.5c-0.1,1.5,0.1,3,0,4.5
		c-0.1,1.5-0.7,3.1-2.2,3.6c-0.2,0.1-0.7,0.4-0.6,0.6c0.1,0.1,0.4,0.2,0.5,0.2c3,0,6,0,8.8,0c0.2,0,0.5,0,0.6-0.2
		C115.6,57.5,115.6,57.2,115.6,57.1z M96,55.7h-0.2h-0.6h-0.2c0,0,0.1-0.5,0.2-1.4V39.2c0-0.4-0.1-0.9-0.2-1.2h0.2l0,0h0.6l0,0H96
		c0,0-0.1,0.5-0.2,1.4v15.2C95.7,54.9,95.9,55.4,96,55.7z M111.2,55.7h-0.2h-0.6H110c0,0,0.1-0.5,0.2-1.4V39.2
		c0-0.4-0.1-0.9-0.2-1.2h0.2l0,0h0.6l0,0h0.2c0,0-0.1,0.5-0.2,1.4v15.2C111,54.9,111,55.4,111.2,55.7z"/>
	<path class="st1" d="M138,60.7c-1,0.5-2.2,0.5-3-0.2c-0.2-0.2-0.4-0.5-0.5-0.9c-1.5-3.4-2.9-6.8-3.7-10.4c-0.2-0.7-0.4-1.6,0-2.4
		c-0.6-0.1-0.9-0.9-1-1.4c-0.5-1.7-1-3.4-1.5-5.1c-0.2-0.7-0.4-1.5-0.2-2.2c0.1-0.7,0.7-1.5,1.6-1.4c-0.1-0.2-0.2-0.6-0.2-0.9
		c-2.7,0-5.6,0-8.3,0c-0.4,0-0.6,0-1,0.1c-0.2,0.1-0.5,0.5-0.2,0.9c0.7-0.1,1.4,0.5,1.5,1.1c0.1,0.6,0,1.4-0.2,2.1
		c-0.5,1.7-1,3.5-1.5,5.1c-0.2,0.7-0.5,1.5-1.2,1.7c0.5,0.2,0.5,1.1,0.2,1.6c-0.6,1.9-1.1,3.9-1.7,5.7c-0.2,1-0.7,2.1-1.7,2.5
		c-0.2,0.1-0.6,0.1-0.9,0.2c-0.2,0.1-0.4,0.2-0.1,0.5c0.4,0.4,1,0.5,1.4,0.5c2,0,3.9,0,5.8,0c0.1,0,0.2,0,0.4,0
		c0.2-0.1,0.1-0.6-0.1-0.9c-0.2-0.1-0.6-0.1-1-0.2c-0.6-0.2-1.1-0.9-1.1-1.6c0-0.7,0.2-1.4,0.7-1.9c1-1.2,2.7-1.7,4.4-1.4
		c1.5,0.4,2.9,1.7,3.1,3.4c0.1,0.5,0.1,1.1-0.2,1.6c-0.2,0.5-1,0.6-1.4,0.4c-0.2-0.2-0.4-0.5-0.7-0.7c-0.6-0.5-1.7,0-2.1,0.7
		c-0.5,1-0.2,2.4,0.5,3.1c0.2,0.2,0.5,0.5,0.6,0.7c0.1,0.2,0,0.5,0,0.7c0.1,0.4,0.5,0.7,1,0.6c-0.4-0.4,0.1-1,0.6-1.4
		c1-0.6,2-1.2,3-1.9c0.5,1.7,2,3.2,3.7,3.6c1.7,0.5,3.7-0.1,5.1-1.4C137.9,61.2,138.1,60.8,138,60.7z M124.8,49.8
		c-0.4-0.1-0.7-0.1-1.2-0.1h-0.2c-0.5,0-1,0.1-1.5,0.2c-0.5,0.1-0.9,0.2-1.2,0.4c0.4-1.7,0.7-3.4,1.2-4.8s1-3.2,1.4-4.8
		c0.1,0,0.2,0,0.2,0.1c0.2,0.9,0.4,1.6,0.6,2.5c0.2,0.9,0.4,1.6,0.6,2.5c0.2,0.7,0.5,1.6,0.7,2.4c0.2,0.7,0.5,1.6,0.6,2.4
		C125.8,50,125.3,49.9,124.8,49.8z M130.9,58.8c-0.2-0.5-0.4-1-0.7-1.4c-0.4-0.4-0.9-0.6-1.4-0.5c0.2-0.1,0.6-0.4,0.7-0.7
		c0.1-0.2,0-0.5-0.1-0.7c-1.5-5.1-3-10.2-4.4-15.2c-0.1-0.5-0.2-1-0.6-1.5c-0.1-0.2-0.4-0.4-0.5-0.5c-0.1-0.1-0.2-0.1-0.4-0.1
		s-0.2,0-0.4-0.1c0.1,0,0.4,0,0.6,0c0.2,0,0.4,0,0.6,0c0.4,0,0.7,0,1.2,0c0.1,2.1,0.7,4.2,1.5,6.2c0.7,2.2,1.4,4.5,2,6.7
		c0.9,3,1.7,6,2.6,8.9C131.4,59.7,131.2,59.2,130.9,58.8z"/>
	<path class="st1" d="M155.4,60.7c-1,0.5-2.2,0.5-3-0.2c-0.2-0.2-0.4-0.5-0.5-0.9c-1.5-3.4-2.9-6.8-3.7-10.4c-0.2-0.7-0.4-1.6,0-2.4
		c-0.6-0.1-0.9-0.9-1-1.4c-0.5-1.7-1-3.4-1.5-5.1c-0.2-0.7-0.4-1.5-0.2-2.2c0.1-0.7,0.7-1.5,1.6-1.4c-0.1-0.2-0.2-0.6-0.2-0.9
		c-2.7,0-5.6,0-8.3,0c-0.4,0-0.6,0-1,0.1c-0.2,0.1-0.5,0.5-0.2,0.9c0.7-0.1,1.4,0.5,1.5,1.1c0.1,0.6,0,1.4-0.2,2.1
		c-0.5,1.7-1,3.5-1.5,5.1c-0.2,0.7-0.5,1.5-1.2,1.7c0.5,0.2,0.5,1.1,0.2,1.6c-0.6,1.9-1.1,3.9-1.7,5.7c-0.2,1-0.7,2.1-1.7,2.5
		c-0.2,0.1-0.6,0.1-0.9,0.2c-0.2,0.1-0.4,0.2-0.1,0.5c0.4,0.4,1,0.5,1.4,0.5c2,0,3.9,0,5.8,0c0.1,0,0.2,0,0.4,0
		c0.2-0.1,0.1-0.6-0.1-0.9c-0.2-0.1-0.6-0.1-1-0.2c-0.6-0.2-1.1-0.9-1.1-1.6c0-0.7,0.2-1.4,0.7-1.9c1-1.2,2.7-1.7,4.4-1.4
		c1.5,0.4,2.9,1.7,3.1,3.4c0.1,0.5,0.1,1.1-0.2,1.6c-0.2,0.5-1,0.6-1.4,0.4c-0.2-0.2-0.4-0.5-0.7-0.7c-0.6-0.5-1.7,0-2.1,0.7
		c-0.5,1-0.2,2.4,0.5,3.1c0.2,0.2,0.5,0.5,0.6,0.7s0,0.5,0,0.7c0.1,0.4,0.5,0.7,1,0.6c-0.4-0.4,0.1-1,0.6-1.4c1-0.6,2-1.2,3-1.9
		c0.5,1.7,2,3.2,3.7,3.6c1.7,0.5,3.7-0.1,5.1-1.4C155.4,61.2,155.5,60.8,155.4,60.7z M142.3,49.8c-0.4-0.1-0.7-0.1-1.2-0.1h-0.2
		c-0.5,0-1,0.1-1.5,0.2c-0.5,0.1-0.9,0.2-1.2,0.4c0.4-1.7,0.7-3.4,1.2-4.8s1-3.2,1.4-4.8c0.1,0,0.2,0,0.2,0.1
		c0.2,0.9,0.4,1.6,0.6,2.5c0.2,0.9,0.4,1.6,0.6,2.5c0.2,0.7,0.5,1.6,0.7,2.4c0.2,0.7,0.5,1.6,0.6,2.4
		C143.2,50,142.8,49.9,142.3,49.8z M148.3,58.8c-0.2-0.5-0.4-1-0.7-1.4c-0.4-0.4-0.9-0.6-1.4-0.5c0.2-0.1,0.6-0.4,0.7-0.7
		c0.1-0.2,0-0.5-0.1-0.7c-1.5-5.1-3-10.2-4.4-15.2c-0.1-0.5-0.2-1-0.6-1.5c-0.1-0.2-0.4-0.4-0.5-0.5c-0.1-0.1-0.2-0.1-0.4-0.1
		s-0.2,0-0.4-0.1c0.1,0,0.4,0,0.6,0c0.2,0,0.4,0,0.6,0c0.4,0,0.7,0,1.2,0c0.1,2.1,0.7,4.2,1.5,6.2c0.7,2.2,1.4,4.5,2,6.7
		c0.9,3,1.7,6,2.6,8.9C148.8,59.7,148.6,59.2,148.3,58.8z"/>
	<path class="st1" d="M173.8,41.4c-0.2-1.1-0.5-2.4-0.6-3.6c-0.1-0.7,0-1.6,0.6-2c-1,0-1.9,0-2.9-0.1c-3.9-0.1-7.7-0.1-11.6-0.1
		c-1.9,0-3.9,0-5.7,0.1c-0.5,0-1,0-1.5,0c-0.2,0-0.9-0.1-0.7,0.4c0.1,0.4,0.2,0.6,0.2,1s-0.1,0.7-0.1,1.1c-0.2,1.1-0.5,2.2-0.7,3.2
		c0,0.2-0.1,0.6,0.1,0.7c0.2,0.2,0.6,0.1,0.9-0.1c0.2-0.2,0.2-0.6,0.2-0.9c0.4-2.1,2.1-3.9,4.2-4.5c1.1-0.2,2.5-0.1,3.2,0.7
		c0.5,0.6,0.6,1.5,0.6,2.2c0.1,1.7,0,3.5-0.1,5.1c0,0.4,0,0.9-0.2,1.1c-0.1,0.4-0.5,0.6-1,0.6c0.5,0.1,1,0.5,1.1,1.1
		c0.1,0.5,0.1,1.1,0.1,1.6c0,1.4,0,2.6-0.1,4c0,0.9-0.1,2-0.7,2.6c-0.4,0.4-1,0.5-1.5,0.7c-0.1,0-0.4,0.1-0.4,0.2
		c-0.1,0.2,0,0.5,0.2,0.6c0.2,0.1,0.5,0.1,0.7,0.1c2.7,0,5.5,0,8.3,0c0.2,0,0.5,0,0.6-0.1c0.2-0.1,0.4-0.4,0.2-0.6s-0.4-0.2-0.6-0.2
		c-0.9-0.1-1.5-0.9-1.7-1.7c-0.2-0.9-0.2-1.7-0.2-2.6c0-1.1,0-2.4,0-3.5c0-0.9,0.1-2,1-2.2c-0.4,0-0.7-0.4-0.9-0.7
		c-0.1-0.4-0.1-0.7-0.1-1.2c0-1,0-2-0.1-2.9c-0.1-1.1-0.4-2.4,0.1-3.5c0.5-1.1,1.7-1.7,2.9-1.7c1.2,0,2.4,0.5,3.2,1.4
		c0.9,0.9,1.4,2,1.7,3.1c0.1,0.4,0.2,0.7,0.4,1c0.2,0.2,0.5,0.5,0.9,0.5C174,42.3,173.9,41.8,173.8,41.4z M163,55.7h-0.2h-0.6h-0.2
		c0,0,0.1-0.5,0.2-1.4V39.2c0-0.4-0.1-0.9-0.2-1.2h0.2l0,0h0.6l0,0h0.2c0,0-0.1,0.5-0.2,1.4v15.2C162.7,54.9,162.9,55.4,163,55.7z"
		/>
	<g>
		<path class="st1" d="M87.8,50.3c-0.1,0.1-0.2,0.2-0.2,0.5c-0.9,2.2-2.6,4.2-4.7,5.3c-2.2,1-5,1-7-0.1c-0.2-0.1-0.6-0.4-0.9-0.6
			c-0.4-0.2-0.6-0.6-0.9-0.9l0,0c-3.1-3.7-2.6-8.6-2.5-9.2l0,0c0.1-1.6,0.6-3.2,1.5-4.7c1.4-2.4,4.1-4.1,6.8-3.9
			c1.9,0.1,3.6,1.2,4.8,2.7s1.9,3.2,2.4,5.1c0.1,0.4,0.1,0.6,0.4,0.9c0.2,0.2,0.6,0.4,0.9,0.1c0.2-0.2,0.2-0.5,0.1-0.9
			c-0.2-1.6-0.5-3.1-1-4.7c-0.2-0.7-0.5-1.5-0.4-2.4c0-0.7,0.5-1.6,1.2-1.9c-3.9,0.5-7.8-0.5-11.6,0.1c-2,0.4-3.9,1.1-5.5,2.4
			c-2,1.5-3.6,3.5-4.1,5.8c-0.1,0.5-0.1,1-0.4,1.5c-0.1,0.2-0.2,0.5-0.4,0.6s-0.1,0.1-0.2,0.2c-0.1,0.1-0.2,0.1-0.2,0.1
			c0.2,0.1,0.4,0.2,0.5,0.4c0.1,0.1,0.2,0.4,0.4,0.6c0.2,0.4,0.2,0.9,0.4,1.4c0.5,2.2,1.9,4.4,3.6,5.8c1.7,1.5,4,2.5,6.2,2.7
			c2.4,0.4,5,0,7.1-1.2c2.1-1.2,3.7-3.2,4.4-5.6c0-0.1,0-0.1,0-0.2c0-0.1,0-0.1,0-0.2C88.2,50.1,87.9,50.1,87.8,50.3z M69.3,49.6
			c-0.2-0.9-0.4-1.7-0.6-2.5l-0.1-0.4c0.1,0,0.2-0.2,0.2-0.4c0.2-0.5,0.1-1,0.2-1.5c0.1-0.4,0.2-0.7,0.4-1.1c0.1-0.4,0.2-0.7,0.4-1
			c0-0.1,0.1-0.2,0.2-0.5c-0.1,0.6-1.5,6.1,0.9,10.1C70.1,51.8,69.6,50.8,69.3,49.6z"/>
		<path class="st1" d="M75.4,45.4L75.4,45.4c-0.2-0.2-0.4-0.5-0.2-0.7c0-0.2,0.1-0.4,0.1-0.6c0-0.1-0.1-0.2-0.1-0.4
			c-0.2-0.6-0.2-1.4,0.2-1.9c0.4-0.5,1.1-0.7,1.7-0.6c0.1,0,0.1,0,0.1,0.1c0,0.1,0,0.1,0,0.2c-0.1,0.4,0.1,0.7,0.4,0.9
			c0.4,0.1,0.7,0,1-0.2c0.2-0.2,0.4-0.6,0.4-1c0.1-0.9-0.2-1.9-0.9-2.5s-1.6-0.9-2.6-0.7c-0.7,0.1-1.4,0.6-1.9,1.1
			c2-2.6,5.3-2.9,5.7-2.9c-0.7,0.1-1.5,0.2-2.1,0.5c1.2,0.5,2.2,1.4,2.7,2.6c0.5,1.2,0.5,2.6-0.2,3.7c-0.6,1.1-2,1.9-3.2,1.7
			c-0.4,0-0.9,0-1,0.4C75.6,45.3,75.6,45.5,75.4,45.4z"/>
	</g>
</g>
</svg>
