<?xml version="1.0" encoding="utf-8"?>
<!-- Generator: Adobe Illustrator 24.0.0, SVG Export Plug-In . SVG Version: 6.00 Build 0)  -->
<svg version="1.1" id="Layer_1" xmlns="http://www.w3.org/2000/svg" xmlns:xlink="http://www.w3.org/1999/xlink" x="0px" y="0px"
	 viewBox="0 0 240 100" style="enable-background:new 0 0 240 100;" xml:space="preserve">
<style type="text/css">
	.st0{fill:none;}
	.st1{fill:#1C1C1A;}
</style>
<g>
	<rect x="13.4" y="4.8" class="st0" width="213.2" height="90.4"/>
	<path class="st1" d="M204.4,57.7c-0.1,0.1-0.1,0.2-0.1,0.3c-0.1,0.1-0.1,0.3-0.1,0.4l-2,3.7l-1.1,2.3c-0.8,1.1-1.8,2-2.9,2.7
		c-0.8,0.6-1.8,0.9-2.8,0.9c-1.1,0.1-2.2-0.4-2.8-1.3c-0.6-0.8-1-2.1-1-3.7c0-1.4,0.3-2.8,0.8-4.1c0.6-1.6,1.4-3.1,2.3-4.4
		c0.9-1.4,2-2.6,3.3-3.5c1-0.8,2.2-1.2,3.5-1.2c1.7,0,2.8,1,3.1,2.9c0.2,0.8,0.3,1.6,0.3,2.5C204.7,56,204.6,56.9,204.4,57.7
		 M216.1,65.2c0.1-0.5-0.1-0.9-0.5-1.2c-0.5-0.2-1.1-0.2-1.6,0l-4.7,2.8c-0.9,0.6-2,1.1-3,1.5c-0.6,0.3-1.2,0.3-1.8,0.1
		c0.2-0.6,0.5-1.1,0.8-1.6c0.6-1.1,1.5-2.7,2.8-4.9c2.5-4.3,4.4-7.6,5.7-10c1.3-2.4,2-3.7,2.1-4.2c0.1-0.3,0-0.7-0.3-0.9
		c-0.3-0.3-0.7-0.4-1.1-0.5c-0.8-0.2-1.5-0.1-2.3,0.2c-0.7,0.3-1.4,0.8-1.9,1.4c-0.4,0.4-0.7,0.9-1,1.4c-0.4,0.7-0.9,1.6-1.6,2.8
		c0.1-4.9-1.7-7.3-5.5-7.3c-1.7,0.1-3.4,0.6-4.8,1.4c-1.9,1.2-3.6,2.6-5.1,4.3c-2.4,2.5-4.3,5.3-5.7,8.5c-1.1,2.6-1.5,5.4-1.2,8.2
		c0.3,2.1,0.9,3.6,1.8,4.6c1,1.1,2.5,1.6,3.9,1.5c1.2,0,2.5-0.3,3.5-0.9c1.4-0.7,2.7-1.6,3.8-2.6c-0.2,0.8-0.2,1.6,0.1,2.4
		c0.3,0.6,0.8,0.9,1.4,0.9c1.8,0.2,3.6,0,5.3-0.5c2.2-0.6,4.2-1.5,6.1-2.7c1.3-0.7,2.5-1.6,3.6-2.6
		C215.8,66.4,216.2,65.8,216.1,65.2"/>
	<rect x="13.4" y="4.8" class="st0" width="213.2" height="90.4"/>
	<path class="st1" d="M187.6,62.5c-0.1-0.2-0.2-0.3-0.3-0.5c-0.2-0.1-0.3-0.2-0.5-0.3c-0.3-0.1-0.5-0.2-0.8-0.2s-0.6,0.1-0.8,0.3
		c-2.1,1.8-3.7,3.2-4.9,4.3c-0.8,0.7-1.6,1.3-2.5,1.9c-0.9,0.6-1.8,1-2.8,1.4c-0.7,0.2-1.1,0.2-1.4-0.2c-0.7-0.9,0.4-3.9,3.1-9.1
		l2.9-5.2c0.6-1.1,1.1-2.1,1.4-2.8c0.3-0.4,0.4-0.9,0.4-1.4c-0.1-0.3-0.2-0.6-0.4-0.9c-0.2-0.3-0.4-0.5-0.7-0.7l-2.8-0.7
		c-0.2-0.1-0.5-0.2-1-0.5s-1-0.5-1.5-0.7c-0.4-0.2-0.7-0.3-1.1-0.4l-0.4,0.3c-0.5-0.2-0.8-0.4-1.1-0.5c-0.2-0.1-0.3-0.2-0.5-0.3
		l0.4-1.7c0.2-0.7,0.2-1.4-0.1-2.1c-0.2-0.7-0.5-1.3-0.9-1.8c-0.4-0.5-1-0.7-1.6-0.5c-0.3,0.1-0.6,0.2-0.9,0.4
		c-0.3,0.3-0.5,0.5-0.6,0.8c-0.1,0.6-0.2,1.1-0.3,1.4c-0.1,0.2-0.1,0.4-0.2,0.6l-0.4,2.4c-0.2,1-0.4,2-0.7,2.9
		c-0.4,1.1-0.8,2.5-1.3,3.9c-0.3,0.8-0.6,1.5-1,2.3c-0.4,0.8-0.8,1.5-1.3,2.3c-1.4,1.7-2.8,3.3-3.9,4.6c-1.1,1.3-2.2,2.4-3.1,3.2
		l-0.6,0.6c-0.1,1.4,0.6,2.2,2.1,2.2c0.6-0.2,1.2-0.6,1.7-1c1-0.9,1.8-1.8,2.7-2.8c0.9-1,1.6-1.9,2.3-2.7s1.1-1.6,1.5-2.3
		c0.9-1.7,1.7-3.4,2.5-4.9c0.8-1.5,1.4-2.8,1.9-4c0.5,0.2,1.1,0.4,1.9,0.7c0.8,0.3,1.5,0.6,2.4,0.9l-0.9,2.3l-2.9,5.4
		c-0.8,1.6-1.5,3.4-2.2,5.1c-0.4,1.1-0.6,2.3-0.5,3.5c0.3,1.7,0.8,3.1,1.6,3.9c1,0.9,2.2,1.4,3.5,1.3c1.1-0.1,2.2-0.4,3.1-0.9
		c1.6-0.8,3.1-1.7,4.6-2.7l2.5-2c1.1-1,2.2-2.2,3.1-3.4C187.5,63.8,187.7,63.1,187.6,62.5"/>
	<rect x="13.4" y="4.8" class="st0" width="213.2" height="90.4"/>
	<path class="st1" d="M151.8,57.7c-0.4,1.3-0.9,2.6-1.6,3.8c-0.7,1.2-1.5,2.3-2.5,3.3c-1-0.9-1.7-2.1-2.3-3.3c-0.5-1.3-0.9-2.6-1-4
		c-2.4,2-3.4,4.4-3.1,7.3c0.1,0.5,0.2,1,0.4,1.5c0.2,0.5,0.5,1,0.8,1.5c-3,0.4-4.5-1.2-4.5-4.7c0.1-1.5,0.4-3,1-4.4
		c0.8-1.7,1.8-3.3,3-4.7c1-1.2,2.2-2.3,3.5-3.2c1-0.7,2.2-1,3.3-1.1c0.8-0.1,1.6,0.2,2.2,0.7c0.6,0.6,1,1.3,1.1,2.1
		C152.5,54.3,152.4,56.1,151.8,57.7 M160.8,65.2c0.1-0.5-0.2-0.9-0.5-1.2c-0.5-0.2-1-0.2-1.5,0c-0.8,0.4-1.4,0.8-2,1.1
		c-0.5,0.3-1,0.6-1.4,1c-0.5,0.3-1,0.5-1.5,0.7c-0.5,0.2-1,0.3-1.5,0.3c-0.2,0-0.4-0.1-0.6-0.1c-0.2-0.1-0.5-0.1-0.7-0.2
		c1.8-2.3,3.4-4.8,4.5-7.5c0.9-2.3,1.4-4.8,1.4-7.3c0-2-0.4-3.6-1.2-4.8c-0.9-1.2-2.3-2.1-3.7-2.3c-2.1-0.4-4.2-0.2-6.2,0.6
		c-2.4,1-4.6,2.5-6.4,4.4c-2.5,2.5-4.7,5.3-6.3,8.4c-1.3,2.5-2.1,5.3-2.1,8.2c-0.1,1.3,0.3,2.5,0.9,3.6c0.6,1.1,1.5,1.9,2.6,2.5
		c1,0.6,2.2,0.9,3.3,0.9c1.3,0.1,2.6,0,3.8-0.3c0.9-0.3,1.8-0.6,2.7-1c0.9-0.4,1.8-0.9,2.6-1.4c0.4,0.1,0.7,0.2,1.1,0.3
		c0.4,0.1,0.8,0.1,1.2,0.1c1.2,0.1,2.5,0.1,3.6-0.2c1.1-0.2,2.2-0.6,3.1-1.2c1.3-0.7,2.5-1.6,3.6-2.6
		C160.4,66.4,160.8,65.8,160.8,65.2"/>
	<rect x="13.4" y="4.8" class="st0" width="213.2" height="90.4"/>
	<path class="st1" d="M134,65.2c0-0.6-0.2-1-0.5-1.2c-0.5-0.2-1-0.2-1.5,0c-2.2,1.4-4.6,2.7-7,3.6c-1.8,0.7-3.7,1.1-5.6,1
		c-1.8-0.1-3.2-0.7-4.2-1.5c-0.9-0.9-1.4-2.3-1.4-4c0-1.5,0.4-3,0.9-4.3c0.7-1.6,1.6-3.2,2.8-4.7c0.9-1.2,2-2.3,3.2-3.2
		c0.9-0.7,1.9-1.1,3-1.1c2.4,0,3.3,1.3,2.8,4c-0.2,0.9-0.6,1.7-1.2,2.5c-0.7,0.9-1.5,1.7-2.4,2.4c1-0.2,2-0.5,2.9-1
		c1-0.5,1.8-1.2,2.7-2c0.8-0.7,1.3-1.6,1.7-2.6c0.5-1.3,0.6-2.7,0.2-4c-0.3-1.2-1-2.4-2.1-3.1c-1.1-0.8-2.4-1.3-3.8-1.3
		c-1.7,0.1-3.5,0.5-5,1.4c-1.9,1.1-3.6,2.6-5,4.3c-2.3,2.5-4.2,5.4-5.6,8.5c-1.1,2.6-1.5,5.3-1.3,8.1c0.3,2.3,1.1,3.9,2.6,5
		c1.5,1.1,3.5,1.5,6.3,1.4c4.5-0.2,8.9-1.4,12.8-3.6c0.6-0.4,1.3-0.8,2-1.2c0.7-0.5,1.4-1,2.2-1.5C133.7,66.5,134,65.9,134,65.2"/>
	<rect x="13.4" y="4.8" class="st0" width="213.2" height="90.4"/>
	<path class="st1" d="M101.9,53.9c-0.5,1.2-1.2,2.3-2.2,3.1c-1.1,1-2.4,1.8-3.7,2.5c-0.6,0.3-1.3,0.5-2,0.7c-0.6,0.2-1.3,0.2-2,0.2
		c-0.5-0.1-1-0.2-1.4-0.3c-0.3-0.1-0.6-0.4-0.6-0.7c-0.1-0.4,0.2-1.1,0.7-2c0.7-1.2,1.5-2.4,2.3-3.4c0.8-1.2,1.9-2.3,3.1-3.1
		c0.9-0.6,2-1,3-1c2.5,0,3.4,1.3,2.8,4L101.9,53.9z M109.5,65.2c0.1-0.5-0.2-0.9-0.5-1.2c-0.5-0.2-1-0.2-1.5,0
		c-0.3,0.1-0.6,0.3-0.9,0.5c-0.4,0.2-0.8,0.5-1.1,0.8c-1.8,1.1-3.7,2.1-5.7,2.8c-1.5,0.5-3.1,0.7-4.8,0.7c-4.1-0.4-5.9-2.6-5.5-6.6
		c0.5,0.5,1.1,0.9,1.8,1c0.8,0.2,1.7,0.3,2.6,0.2c2-0.2,4-0.8,5.6-1.8c1.8-1.1,3.3-2.6,4.5-4.3c0.5-0.8,0.9-1.6,1.3-2.4
		c0.4-0.8,0.6-1.7,0.8-2.6c0.2-1.1,0.2-2.2-0.2-3.3c-0.6-2-2.2-3.6-4.2-4.1c-1.3-0.3-2.8-0.2-4.1,0.3c-1.6,0.6-3.1,1.5-4.5,2.7
		c-1.2,1-2.4,2.1-3.5,3.3c-1.1,1.2-2.1,2.5-2.9,3.8c-1.3,2-2.4,4.1-3.1,6.4c-0.6,1.8-0.7,3.8-0.5,5.7c0.3,2.3,1.2,3.9,2.7,5
		s3.6,1.5,6.3,1.4c2.6-0.2,5.1-0.6,7.5-1.4c2.6-0.9,5.1-2.1,7.4-3.5c0.7-0.5,1.4-1,2-1.6C109.4,66.4,109.6,65.8,109.5,65.2"/>
	<rect x="13.4" y="4.8" class="st0" width="213.2" height="90.4"/>
	<path class="st1" d="M91.4,30.6c0.1-2.7-0.4-5.3-1.3-7.9c-0.9-2.3-2.3-4.4-4-6.1c-1.6-1.7-3.6-3-5.8-4c-2.4-1-5-1.7-7.5-2.1
		l4.2-4.5C77,5.9,77,5.7,76.7,5.5c-0.3-0.2-0.7-0.4-1.1-0.5c-0.4-0.1-0.7-0.2-1.1-0.2c-1.5,0.1-3,0.6-4.3,1.4
		c-1.9,1.2-3.7,2.7-5.2,4.4c-0.9,0.1-1.8,0.2-2.8,0.4c-1,0.2-2.1,0.4-3.3,0.6c-7.6,1.5-14.8,4.5-21.4,8.6c-6.4,4.1-12,9.3-16.5,15.4
		c-1.5,2-2.8,4.2-3.9,6.5c-0.9,1.8-1.4,3.9-1.5,5.9c-0.2,2.6,0.2,5.2,1.1,7.5c0.9,2.2,2.5,4,4.4,5.3c1.6,1.1,3.4,2,5.3,2.5
		c2.1,0.6,4.2,0.9,6.3,0.8c2.6,0,5.2-0.4,7.6-1.1c2.6-0.8,5.1-2,7.4-3.4c4.1-2.5,7.1-5.3,9-8.4c1.9-3,2.8-6.6,2.5-10.1
		c-0.1-0.7-0.2-1.4-0.3-2.3c-0.1-0.8-0.3-1.7-0.5-2.7c-0.2-0.2-0.3-0.3-0.5-0.4c-0.2-0.1-0.4-0.1-0.5-0.1c-0.1,0.2-0.1,0.4-0.1,0.6
		c0,0.2-0.1,0.3-0.1,0.5c-0.4,2.2-1.2,4.2-2.5,6c-1.4,2.2-3.2,4.2-5.3,5.8c-2.6,2.3-5.6,4.2-8.8,5.5c-3,1.3-6.2,2-9.4,2.2
		c-2.9,0.1-5.2-0.3-6.9-1.1c-1.6-0.8-2.9-2.3-3.3-4c-0.3-2.7,0.7-5.6,2.9-8.8s5.6-6.7,10.4-10.5c3.8-3.1,7.9-5.9,12.2-8.3
		c3.8-2.2,7.7-3.8,11.9-5.2c-1.1,1.4-2.3,3.1-3.5,5s-2.6,4-4,6.3c-2.9,4.9-5.6,9.2-7.9,13.2c-2.4,4-4.4,7.4-6.1,10.5
		c0.5,0.2,1,0.3,1.6,0.3c0.6-0.1,1.2-0.2,1.7-0.4c1.6-0.7,3.1-1.6,4.4-2.8c1.5-1.4,2.9-2.9,4.1-4.7c1-1.4,2.3-3.3,3.9-5.8
		c1.6-2.5,3.5-5.5,5.7-9c4.3-6.8,7.5-11.6,9.7-14.6c0.4-0.1,0.9-0.1,1.3-0.1s0.7,0,1,0c2,0.1,3.8,0.3,5.7,0.8
		c1.6,0.4,3.1,1.1,4.5,2.1c1.5,1,2.7,2.4,3.4,4c0.8,1.7,1.1,3.6,1,5.5c-0.2,2.8-0.9,5.5-2.2,8c-1.7,3.2-3.8,6.3-6.4,8.9
		c-2.2,2.4-4.5,4.7-7,6.9c-2.4,2.1-4.9,4-7.5,5.6c-4.4,2.8-9.1,5.2-14.1,7c-4,1.5-8.3,2.3-12.5,2.3c-4.2,0-8.3-0.9-12.1-2.6
		c-2-0.8-3.9-2-5.6-3.3c-1.6-1.2-3-2.7-4.1-4.4c0,1.1,0.2,2.1,0.5,3.1c0.4,1.1,1,2.2,1.6,3.2c4.6,6.8,12.8,10.2,24.5,10.2
		c4.2,0,8.3-0.6,12.3-1.7c4.3-1.3,8.4-3,12.3-5.3c3.8-2.2,7.4-4.8,10.7-7.6c3.3-2.9,6.3-6.1,9-9.5c2.2-2.8,4-6,5.3-9.4
		C90.9,37.1,91.5,33.9,91.4,30.6"/>
	<rect x="13.4" y="4.8" class="st0" width="213.2" height="90.4"/>
	<path class="st1" d="M213,85.2l-0.7,3.3h-0.4c0.1-0.8-0.2-1.5-0.6-2.1c-0.3-0.4-0.8-0.7-1.4-0.7c-0.4,0-0.8,0.1-1,0.4
		c-0.3,0.2-0.4,0.6-0.4,0.9c0,0.3,0.1,0.5,0.2,0.7c0.2,0.3,0.4,0.6,0.7,0.9c0.7,0.7,1.3,1.4,1.8,2.3c0.3,0.5,0.4,0.9,0.4,1.4
		c0,0.8-0.4,1.5-0.9,2c-0.6,0.6-1.5,0.9-2.4,0.8c-0.6,0-1.2-0.2-1.8-0.4c-0.2-0.1-0.4-0.1-0.6-0.1c-0.3,0-0.6,0.2-0.8,0.5h-0.4
		l0.7-3.5h0.4c0.1,1.1,0.3,1.8,0.7,2.3c0.4,0.5,1,0.7,1.7,0.7c0.5,0.1,0.9-0.2,1.3-0.5c0.3-0.3,0.5-0.7,0.5-1.1
		c0-0.3-0.1-0.6-0.2-0.8c-0.4-0.6-0.8-1.2-1.3-1.8c-0.5-0.5-0.9-1.1-1.2-1.7c-0.2-0.4-0.3-0.7-0.3-1.1c0-0.7,0.3-1.3,0.8-1.7
		c0.5-0.5,1.2-0.8,2-0.7c0.2,0,0.4,0,0.6,0.1c0.3,0.1,0.5,0.2,0.7,0.3c0.3,0.1,0.5,0.2,0.7,0.2c0.3,0,0.6-0.2,0.8-0.5L213,85.2z
		 M197.8,90.3c0.9-0.1,1.8-0.3,2.6-0.6c0.8-0.3,1.5-0.8,2-1.4c0.4-0.4,0.6-1,0.7-1.5c0-0.3-0.1-0.5-0.3-0.7
		c-0.2-0.2-0.5-0.3-0.8-0.3c-0.9,0.1-1.7,0.5-2.4,1.2C198.8,87.9,198.2,89.1,197.8,90.3 M197.8,90.8c-0.1,0.3-0.1,0.6-0.1,0.9
		c0,0.6,0.3,1.2,0.7,1.6c0.5,0.5,1,0.7,1.6,0.7c0.5,0,1-0.1,1.5-0.3c0.8-0.4,1.5-0.9,2.2-1.4l0.2,0.3c-1.7,1.7-3.3,2.5-4.8,2.5
		c-0.9,0.1-1.8-0.3-2.4-1c-0.5-0.6-0.8-1.4-0.8-2.2c0.1-1.2,0.4-2.3,1-3.3c0.6-1.1,1.4-2,2.5-2.6c0.9-0.6,2-0.9,3.1-0.9
		c0.6-0.1,1.2,0.1,1.7,0.5c0.4,0.3,0.6,0.7,0.6,1.1c0,0.6-0.3,1.2-0.7,1.7c-0.8,0.8-1.7,1.4-2.8,1.7
		C200.1,90.5,198.9,90.7,197.8,90.8 M195.1,82.5l-0.9,2.9h1.5l-0.2,0.7h-1.5l-2,6.3c-0.2,0.5-0.3,0.9-0.4,1.4c0,0.1,0,0.2,0.1,0.3
		c0.1,0.1,0.1,0.1,0.2,0.1c0.3-0.1,0.5-0.2,0.6-0.4c0.4-0.4,0.7-0.9,1-1.3l0.4,0.3c-0.5,0.8-1,1.4-1.7,2c-0.4,0.3-0.7,0.4-1.1,0.4
		c-0.3,0-0.5-0.1-0.7-0.3c-0.2-0.2-0.3-0.5-0.3-0.8c0.1-0.6,0.2-1.2,0.4-1.8l1.9-6.2h-1.6l0.1-0.4c0.7-0.2,1.4-0.5,2-1
		c0.7-0.6,1.3-1.4,1.8-2.2h0.4V82.5z M185.1,85.9c-0.6,0.1-1.1,0.3-1.6,0.6c-0.9,0.7-1.6,1.6-2.1,2.7c-0.6,1-0.9,2.1-0.9,3.2
		c0,0.4,0.1,0.8,0.4,1.1c0.3,0.3,0.6,0.4,0.9,0.4c0.9,0,1.8-0.6,2.9-1.7c1.2-1.3,1.8-2.9,1.8-4.6c0.1-0.5-0.1-0.9-0.4-1.3
		C185.9,86,185.5,85.9,185.1,85.9 M189.1,85.4l-2.1,7.3l-0.3,0.9c0,0.1-0.1,0.2-0.1,0.3c0,0.1,0,0.2,0.1,0.3s0.1,0.1,0.2,0.1
		c0.1,0,0.2-0.1,0.3-0.2c0.3-0.4,0.6-0.8,0.8-1.3l0.4,0.3c-0.3,0.6-0.8,1.1-1.3,1.6c-0.4,0.3-0.8,0.5-1.2,0.5
		c-0.2,0-0.5-0.1-0.6-0.3c-0.2-0.2-0.2-0.4-0.2-0.7c0-0.5,0.1-0.9,0.3-1.4l0.3-0.8c-0.8,1-1.7,1.9-2.8,2.6c-0.6,0.3-1.2,0.5-1.8,0.5
		c-0.6,0-1.1-0.2-1.5-0.6c-0.5-0.5-0.7-1.1-0.6-1.7c0.1-1.2,0.4-2.5,1.1-3.5c0.7-1.2,1.6-2.2,2.8-3c0.7-0.5,1.6-0.8,2.5-0.9
		c0.4,0,0.8,0.1,1.2,0.3c0.4,0.3,0.6,0.6,0.7,1l0.4-1.1L189.1,85.4z M172.1,85.2l-1.4,4.9c0.9-1.4,2.1-2.7,3.3-3.9
		c0.6-0.6,1.4-0.9,2.2-0.9c0.4,0,0.7,0.2,0.9,0.4c0.3,0.3,0.4,0.7,0.4,1c-0.1,0.6-0.2,1.1-0.4,1.7l-1.5,4.5
		c-0.1,0.3-0.2,0.6-0.3,0.9c0,0.1,0,0.2,0.1,0.3c0.1,0.1,0.1,0.1,0.2,0.1c0.1,0,0.2-0.1,0.3-0.2c0.4-0.4,0.8-0.9,1.1-1.3l0.3,0.2
		c-0.5,0.8-1.1,1.4-1.8,2c-0.3,0.3-0.7,0.4-1,0.4c-0.2,0-0.5-0.1-0.6-0.3c-0.2-0.2-0.3-0.4-0.2-0.6c0.1-0.6,0.2-1.2,0.4-1.7l1.4-4.3
		c0.2-0.4,0.3-0.8,0.3-1.2c0-0.2-0.1-0.3-0.2-0.4c-0.1-0.1-0.3-0.2-0.4-0.2c-0.3,0-0.6,0.1-0.8,0.3c-0.7,0.4-1.3,1-1.8,1.6
		c-0.7,0.9-1.4,1.8-2,2.8c-0.4,0.6-0.7,1.3-0.9,2l-0.5,1.7h-1.6l2-6.7c0.2-0.5,0.3-0.9,0.4-1.4c0-0.2-0.1-0.3-0.2-0.4
		c-0.1-0.1-0.3-0.2-0.5-0.2c-0.2,0-0.3,0-0.5,0.1l-0.4,0.1l-0.1-0.4L172.1,85.2z M166.6,85.2l-2.3,7.6c-0.1,0.3-0.2,0.6-0.3,0.9
		c0,0.1,0.1,0.2,0.1,0.3c0.1,0.1,0.2,0.1,0.2,0.1c0.2,0,0.3-0.1,0.4-0.2c0.4-0.4,0.8-0.9,1.1-1.4l0.4,0.3c-0.4,0.7-1,1.3-1.6,1.8
		c-0.4,0.3-0.8,0.5-1.3,0.5c-0.3,0-0.5-0.1-0.7-0.3s-0.3-0.4-0.3-0.7c0.1-0.5,0.2-0.9,0.3-1.3l1.5-4.8c0.2-0.5,0.3-1,0.4-1.5
		c0-0.2-0.1-0.3-0.2-0.4c-0.1-0.1-0.3-0.2-0.5-0.2c-0.3,0-0.7,0.1-1,0.1v-0.4L166.6,85.2z M166.1,80.9c0.6,0,1.1,0.5,1.1,1.1
		c0,0.6-0.5,1.1-1.1,1.1c-0.3,0-0.6-0.1-0.8-0.3c-0.4-0.4-0.4-1.1,0-1.5l0,0C165.6,81,165.9,80.9,166.1,80.9 M150.2,85.2l-1.4,4.8
		c0.5-0.9,1-1.7,1.6-2.6c0.6-0.8,1.3-1.4,2.1-2c0.4-0.2,0.8-0.4,1.2-0.4c0.4,0,0.7,0.1,0.9,0.4c0.3,0.3,0.4,0.6,0.4,0.9
		c0,0.5-0.1,0.9-0.3,1.3l-0.9,2.7c1.2-2.2,2.4-3.7,3.5-4.6c0.5-0.5,1.1-0.7,1.8-0.7c0.3,0,0.6,0.1,0.9,0.4c0.3,0.3,0.4,0.7,0.4,1.1
		c0,0.5-0.1,0.9-0.2,1.3l-1.3,4.1c-0.2,0.5-0.3,1-0.5,1.5c0,0.1,0.1,0.2,0.1,0.3c0.1,0.1,0.1,0.1,0.2,0.1c0.2-0.1,0.3-0.1,0.4-0.2
		c0.4-0.4,0.8-0.8,1-1.2l0.4,0.2c-0.3,0.4-0.6,0.8-0.9,1.1c-0.3,0.4-0.7,0.7-1.1,1c-0.3,0.2-0.6,0.3-0.9,0.3c-0.2,0-0.5-0.1-0.6-0.3
		c-0.2-0.2-0.3-0.4-0.3-0.6c0.1-0.7,0.3-1.4,0.5-2.1l1.1-3.4c0.3-0.8,0.4-1.2,0.4-1.3c0.1-0.2,0.1-0.3,0.1-0.4s-0.1-0.3-0.1-0.4
		c-0.1-0.1-0.2-0.2-0.3-0.2c-0.4,0.1-0.8,0.2-1,0.5c-1.2,1.1-2.2,2.4-3,3.8c-0.7,1.3-1.3,2.7-1.7,4.2h-1.6l1.9-6.3
		c0.2-0.5,0.3-0.9,0.3-1.4c0-0.2-0.1-0.3-0.1-0.4c-0.1-0.1-0.2-0.2-0.3-0.2c-0.3,0-0.6,0.1-0.8,0.3c-0.7,0.5-1.2,1.1-1.7,1.8
		c-0.6,0.8-1.2,1.7-1.6,2.6c-0.2,0.4-0.6,1.6-1.3,3.8h-1.6l2-6.9l0.3-0.9c0.1-0.1,0.1-0.2,0.1-0.3c0-0.2-0.1-0.3-0.2-0.4
		c-0.2-0.1-0.4-0.2-0.6-0.2c-0.3,0-0.5,0.1-0.8,0.1l-0.1-0.4L150.2,85.2z M141.3,85.9c-0.6,0.1-1.1,0.3-1.6,0.6
		c-0.9,0.7-1.6,1.6-2.1,2.7c-0.6,1-0.9,2.1-0.9,3.2c0,0.4,0.1,0.8,0.4,1.1c0.3,0.3,0.6,0.4,0.9,0.4c0.9,0,1.8-0.6,2.9-1.7
		c1.2-1.2,1.8-2.9,1.8-4.6c0.1-0.5-0.1-0.9-0.4-1.3C142.1,86,141.8,85.9,141.3,85.9 M145.3,85.4l-2.1,7.3l-0.3,1
		c-0.1,0.1-0.1,0.2-0.1,0.3c0,0.1,0,0.2,0.1,0.3c0.1,0.1,0.1,0.1,0.2,0.1c0.1,0,0.2-0.1,0.3-0.2c0.3-0.4,0.6-0.8,0.8-1.3l0.4,0.3
		c-0.3,0.6-0.8,1.1-1.3,1.6c-0.4,0.3-0.8,0.5-1.2,0.5c-0.2,0-0.5-0.1-0.6-0.3c-0.2-0.2-0.3-0.4-0.2-0.7c0-0.5,0.1-0.9,0.3-1.4
		l0.3-0.8c-0.8,1-1.7,1.9-2.8,2.6c-0.6,0.3-1.2,0.5-1.8,0.5c-0.6,0-1.1-0.2-1.5-0.6c-0.4-0.5-0.7-1.1-0.6-1.7
		c0.1-1.2,0.4-2.5,1.1-3.5c0.7-1.2,1.6-2.2,2.8-3c0.7-0.5,1.6-0.8,2.5-0.9c0.4,0,0.8,0.1,1.2,0.3c0.4,0.3,0.6,0.6,0.7,1l0.4-1.1
		L145.3,85.4z M132.3,94.9h-10.7l0.2-0.4c0.4,0,0.8-0.1,1.1-0.2c0.3-0.1,0.5-0.3,0.7-0.5c0.3-0.6,0.6-1.1,0.7-1.8l2.6-8.8
		c0.2-0.5,0.3-1.1,0.3-1.6c0-0.3-0.1-0.5-0.3-0.6c-0.4-0.2-0.7-0.3-1.1-0.2c-0.1,0-0.2,0-0.3,0l0.1-0.4h5.9l-0.1,0.4
		c-0.5-0.1-1,0.1-1.4,0.2c-0.3,0.2-0.5,0.4-0.7,0.6c-0.3,0.6-0.5,1.2-0.6,1.8l-2.6,8.9c-0.2,0.4-0.3,0.8-0.3,1.2
		c0,0.2,0.1,0.4,0.3,0.5c0.3,0.1,0.6,0.2,0.8,0.2h1.4c0.8,0.1,1.7-0.1,2.5-0.4c0.5-0.2,0.9-0.5,1.2-0.9c0.4-0.5,0.8-1,1.1-1.6
		l0.3-0.5h0.4L132.3,94.9z"/>
	<rect x="13.4" y="4.8" class="st0" width="213.2" height="90.4"/>
	<path class="st1" d="M220.6,39.7c0.2-0.1,0.4-0.1,0.6-0.1c0.7,0,1,0.3,1,0.7c0,0.4-0.5,0.7-1,0.7h-0.5V39.7z M220.6,41.7h0.5
		c0.6,0,0.8,0.2,0.9,0.7c0.1,0.4,0.2,0.8,0.4,1.1h1.1c-0.2-0.4-0.3-0.7-0.3-1.1c-0.1-0.5-0.4-0.9-0.8-1.1v-0.1
		c0.5-0.1,0.9-0.5,0.9-1c0-0.4-0.2-0.7-0.5-1c-0.5-0.3-1-0.4-1.5-0.3c-0.6,0-1.1,0.1-1.7,0.2v4.5h1L220.6,41.7z"/>
	<rect x="13.4" y="4.8" class="st0" width="213.2" height="90.4"/>
	<path class="st1" d="M221.4,36.7c-2.5,0-4.5,2-4.5,4.5c0,2.5,2,4.5,4.5,4.5c2.5,0,4.5-2,4.5-4.5l0,0
		C225.8,38.7,223.8,36.7,221.4,36.7 M221.4,46.4c-2.9,0-5.2-2.4-5.2-5.2s2.4-5.2,5.2-5.2c2.9,0,5.2,2.4,5.2,5.2l0,0
		C226.6,44,224.2,46.4,221.4,46.4L221.4,46.4"/>
</g>
</svg>
