<?xml version="1.0" encoding="utf-8"?>
<!-- Generator: Adobe Illustrator 24.0.0, SVG Export Plug-In . SVG Version: 6.00 Build 0)  -->
<svg version="1.1" id="Layer_1" xmlns="http://www.w3.org/2000/svg" xmlns:xlink="http://www.w3.org/1999/xlink" x="0px" y="0px"
	 viewBox="0 0 240 100" style="enable-background:new 0 0 240 100;" xml:space="preserve">
<style type="text/css">
	.st0{fill:#1C1C1A;}
	.st1{font-family:'ArialMT';}
	.st2{font-size:10.6691px;}
	.st3{fill:#E64326;}
</style>
<g id="_2312978381104">
	<polygon class="st0" points="55.2,27 55.2,35 39.1,35 39.1,43 51.1,43 51.1,51.1 39.1,51.1 39.1,59.1 55.2,59.1 55.2,67.1 
		31.1,67.1 31.1,27 	"/>
	<path class="st0" d="M58.7,27.1h13.1c4.4,0,8,1.7,10.5,4.1s3.9,4.7,3.9,9v1c0,2.8-0.9,5.4-2.5,7.6c-1.4,1.9-2.5,2.8-4.7,3.7
		l9.3,14.5h-10L66.7,49.4v17.7h-8V27.1z M77.8,40.4L77.8,40.4c0-1.4-0.6-2.9-1.6-3.9c-1-1-3-1.6-5-1.6h-4.5V46h3.1l0,0h2.7
		C75.4,46.1,77.8,43.5,77.8,40.4z"/>
	<path class="st0" d="M108.2,26.2l18.3,40.8h-8.7l-2.7-6.1h-13.7l-2.7,6.1H90L108.2,26.2z M112,53.9L112,53.9l-3.6-8.5l-3.7,8.5H112
		z"/>
	<path class="st0" d="M159.4,32.7c7.9,7.9,7.9,20.7,0,28.7c-3.7,3.7-8.7,5.8-13.9,5.9l14-27.1h-11.4l4.3-12.2
		C155,29.1,157.4,30.7,159.4,32.7z M139,66.5c-3.1-0.9-6-2.7-8.4-5.1c-7.9-7.9-7.9-20.7,0-28.7l0,0c2.1-2.2,4.7-3.9,7.6-4.9
		L131,51.3h11.8L139,66.5L139,66.5z"/>
	<polygon class="st0" points="192.9,49.1 192.9,27 200.9,27 200.9,67.9 176.8,44.9 176.8,67.1 168.8,67.1 168.8,26.2 	"/>
	<path class="st0" d="M143.6,15.9l-10.5,33.7H144c0,0,0.7,0,0.4,1L137.2,80l19.7-38.4h-10.1c0,0-0.9,0.1-0.5-1.4l8.7-24.4
		L143.6,15.9L143.6,15.9z"/>
	<path class="st0" d="M200.9,22.5V23h1.5v4h0.6v-4h1.5v-0.5H200.9z M205.2,27h0.6v-2.6c0-0.1,0-0.3,0-0.5c0-0.2,0-0.4,0-0.5v-0.1
		l1.3,3.8h0.6l1.3-3.8c0,0.3,0,0.4,0,0.7s0,0.3,0,0.4V27h0.6v-4.5h-0.8l-1.3,3.8l-1.3-3.8h-0.8L205.2,27L205.2,27z"/>
	<text transform="matrix(1 0 0 1 30.5356 80.731)" class="st0 st1 st2">E</text>
	<text transform="matrix(1 0 0 1 35.7837 80.731)" class="st0 st1 st2">X</text>
	<text transform="matrix(1 0 0 1 41.5664 80.731)" class="st0 st1 st2">CEL</text>
	<text transform="matrix(1 0 0 1 58.0385 80.731)" class="st3 st1 st2"> </text>
	<text transform="matrix(1 0 0 1 59.8637 80.731)" class="st0 st1 st2">THE SPEED</text>
</g>
</svg>
