<?xml version="1.0" encoding="utf-8"?>
<!-- Generator: Adobe Illustrator 24.0.0, SVG Export Plug-In . SVG Version: 6.00 Build 0)  -->
<svg version="1.1" id="Layer_1" xmlns="http://www.w3.org/2000/svg" xmlns:xlink="http://www.w3.org/1999/xlink" x="0px" y="0px"
	 viewBox="0 0 240 100" style="enable-background:new 0 0 240 100;" xml:space="preserve">
<style type="text/css">
	.st0{fill:#1C1C1A;}
	.st1{font-family:'ArialMT';}
	.st2{font-size:12.6157px;}
	.st3{fill:#E64326;}
</style>
<g id="_2312978381104">
	<polygon class="st0" points="43.4,22.7 43.4,32.2 24.3,32.2 24.3,41.7 38.6,41.7 38.6,51.2 24.3,51.2 24.3,60.7 43.4,60.7 
		43.4,70.2 14.9,70.2 14.9,22.7 	"/>
	<path class="st0" d="M47.5,22.8h15.5c5.2,0,9.5,2,12.4,4.8s4.6,5.5,4.6,10.7v1.2c0,3.3-1.1,6.4-3,9c-1.7,2.3-3,3.3-5.6,4.4l11,17.2
		H70.6L57,49.2v20.9h-9.5L47.5,22.8z M70.1,38.6L70.1,38.6c0-1.7-0.7-3.4-1.9-4.6c-1.2-1.2-3.6-1.9-5.9-1.9H57v13.1h3.7v0h3.2
		C67.3,45.3,70.1,42.2,70.1,38.6z"/>
	<path class="st0" d="M106.1,21.8l21.6,48.3h-10.3l-3.2-7.2H98l-3.2,7.2H84.5L106.1,21.8z M110.5,54.5L110.5,54.5l-4.3-10l-4.4,10
		H110.5z"/>
	<path class="st0" d="M166.6,29.5c9.4,9.3,9.4,24.5,0,33.9c-4.4,4.4-10.3,6.9-16.4,7l16.5-32.1h-13.5l5.1-14.4
		C161.4,25.2,164.2,27.1,166.6,29.5z M142.5,69.5c-3.7-1.1-7.1-3.2-9.9-6c-9.4-9.4-9.4-24.5,0-33.9c0,0,0,0,0,0
		c2.5-2.6,5.6-4.6,9-5.8l-8.6,27.7l13.9,0L142.5,69.5L142.5,69.5z"/>
	<polygon class="st0" points="206.2,48.9 206.2,22.7 215.7,22.7 215.7,71.1 187.2,43.9 187.2,70.2 177.7,70.2 177.7,21.8 	"/>
	<path class="st0" d="M147.9,9.6l-12.4,39.9l12.9,0c0,0,0.8,0,0.5,1.2l-8.5,34.7l23.3-45.4h-12c0,0-1.1,0.1-0.6-1.6l10.3-28.9
		L147.9,9.6L147.9,9.6z"/>
	<path class="st0" d="M215.7,17.4V18h1.8v4.7h0.7V18h1.8v-0.6H215.7z M220.7,22.7h0.7v-3.1c0-0.1,0-0.3,0-0.6c0-0.2,0-0.5,0-0.6
		v-0.1l1.5,4.5h0.7l1.5-4.5c0,0.3,0,0.5,0,0.8s0,0.4,0,0.5v3.1h0.7v-5.3h-1l-1.5,4.5l-1.5-4.5h-1L220.7,22.7L220.7,22.7z"/>
	<text transform="matrix(1 0 0 1 14.2246 86.2725)" class="st0 st1 st2">E</text>
	<text transform="matrix(1 0 0 1 20.4302 86.2725)" class="st0 st1 st2">X</text>
	<text transform="matrix(1 0 0 1 27.2676 86.2725)" class="st0 st1 st2">CEL</text>
	<text transform="matrix(1 0 0 1 46.7451 86.2725)" class="st3 st1 st2"> </text>
	<text transform="matrix(1 0 0 1 48.9033 86.2725)" class="st0 st1 st2">THE SPEED</text>
</g>
</svg>
