<?xml version="1.0" encoding="utf-8"?>
<!-- Generator: Adobe Illustrator 24.0.0, SVG Export Plug-In . SVG Version: 6.00 Build 0)  -->
<svg version="1.1" id="Layer_1" xmlns="http://www.w3.org/2000/svg" xmlns:xlink="http://www.w3.org/1999/xlink" x="0px" y="0px"
	 viewBox="0 0 240 100" style="enable-background:new 0 0 240 100;" xml:space="preserve">
<style type="text/css">
	.st0{fill:#FFFFFF;}
</style>
<g>
	<rect x="54.5" y="64.7" width="155.5" height="0.9"/>
	<path d="M214.9,37.2v-2.4h-18.9v2.4h8.2v22.4l2.4,0V37.2H214.9z M186.1,37.2h8.2v-2.4h-18.9v2.4h8.2v22.4l2.4,0V37.2z M171.4,59.6
		h2.4V47.1c0-3.5-1.2-6.5-3.7-9c-2.5-2.5-5.5-3.7-9-3.7c-3.5,0-6.5,1.2-9,3.7c-2.5,2.5-3.7,5.5-3.8,9c0,3.5,1.2,6.5,3.7,9
		c2.5,2.5,5.5,3.7,9,3.7c3.5,0,6.5-1.2,9-3.7c0.8-0.8,1.2-1.2,1.3-1.4V59.6z M171.4,47.1c0,2.9-1,5.3-3,7.3c-2,2-4.5,3-7.3,3
		s-5.3-1-7.3-3c-2-2-3-4.5-3-7.3c0-2.9,1-5.3,3-7.3c2-2,4.5-3,7.3-3s5.3,1,7.3,3C170.4,41.8,171.4,44.2,171.4,47.1 M144.2,59.6h2.3
		l0-25.8L134.3,55l-12.4-21.3v25.8h2.3V43.1l10,16.8l10-16.9V59.6z M109.7,56.1c2.5-2.5,3.7-5.5,3.7-9c0-3.5-1.2-6.5-3.7-9
		c-2.5-2.5-5.5-3.7-9-3.7c-3.5,0-6.5,1.2-9,3.7c-2.5,2.5-3.7,5.5-3.8,9c0,3.5,1.2,6.5,3.7,9c2.5,2.5,5.5,3.7,9,3.7
		C104.2,59.9,107.2,58.6,109.7,56.1 M111,47.1c0,2.9-1,5.3-3,7.3c-2,2-4.5,3-7.3,3c-2.9,0-5.3-1-7.3-3c-2-2-3-4.5-3-7.3
		c0-2.9,1-5.3,3-7.3c2-2,4.5-3,7.3-3c2.9,0,5.3,1,7.3,3C110,41.8,111,44.2,111,47.1 M88.4,37.1c0.7,0,1.5,0.1,2.1,0.3v-2.6
		c-0.7-0.1-1.4-0.2-2.2-0.2c-3.1,0-5.8,1.2-8,3.7c-2.2,2.5-3.3,5.5-3.4,9v12.4h2.4V47.2c0-2.8,0.9-5.2,2.7-7.2
		C83.9,38.1,86,37.1,88.4,37.1 M72,56.1c2.2-2.5,3.3-5.5,3.4-9V34.7H73v12.4c0,2.8-0.9,5.2-2.7,7.2c-1.8,2-3.9,2.9-6.3,2.9
		c-2.5,0-4.5-1-6.3-3c-1.8-2-2.6-4.4-2.7-7.2V34.7h-2.4V47c0,3.5,1.2,6.5,3.4,9c2.2,2.5,4.9,3.8,8,3.8C67.1,59.8,69.8,58.5,72,56.1"
		/>
	<path d="M24.3,32.9l-5.5,21.6c-0.1,0.3-0.1,0.5-0.1,0.8v0c0,1.4,1,2.7,2.4,3.1l20.1,5.1c1.7,0.4,3.5-0.6,3.9-2.3l5.5-21.6
		c0-0.2,0.1-0.3,0.1-0.5v-0.7c-0.1-1.3-1.1-2.4-2.4-2.8l-20.1-5.1c-0.3-0.1-0.5-0.1-0.8-0.1C26,30.5,24.7,31.4,24.3,32.9"/>
	<path class="st0" d="M45.9,53.2H31.2v-2.5h14.7V53.2z M46,37.4v-2.5H26.5v25.3H46v-2.5H29.1V37.4H46z"/>
	<path d="M73.2,68.3h0.9v2.5c0,0.2,0.1,0.5,0.2,0.7c0.1,0.2,0.3,0.4,0.5,0.5c0.2,0.2,0.4,0.3,0.6,0.4c0.2,0.1,0.5,0.1,0.7,0.1h1.3
		V73h-1.9c-0.2,0-0.4,0-0.6-0.1c-0.2-0.1-0.4-0.1-0.6-0.2c-0.2-0.1-0.3-0.2-0.5-0.4c-0.1-0.1-0.3-0.3-0.4-0.5
		c-0.1-0.2-0.2-0.4-0.2-0.6c-0.1-0.2-0.1-0.4-0.1-0.6V68.3z M90.2,68.3h1l2.8,4.7h-1l-1-1.6h-3L88.1,73h-0.6L90.2,68.3z M89.3,70.9
		h2.5l-1.3-2.1L89.3,70.9z M111.3,73h-0.5v-3.8l-2.3,3.8h-1l-2.3-3.8V73h-0.5v-4.7h1l2.3,3.8l2.3-3.8h1V73z M122.1,68.3h0.9V73h-0.9
		V68.3z M134.5,68.8V73H134v-4.7h1.4l4.6,4.2v-4.2h0.5V73h-1.4L134.5,68.8z M153.8,68.3h1l2.8,4.7h-1l-1-1.6h-3l-0.9,1.6h-0.6
		L153.8,68.3z M152.8,70.9h2.5l-1.3-2.1L152.8,70.9z M167.8,68.3h6.5v0.4h-2.8V73h-0.9v-4.2h-2.8V68.3z M187.1,73
		c-0.2,0-0.4,0-0.6-0.1c-0.2-0.1-0.4-0.1-0.6-0.2c-0.2-0.1-0.3-0.2-0.5-0.4c-0.1-0.1-0.3-0.3-0.4-0.5c-0.1-0.2-0.2-0.4-0.2-0.6
		c-0.1-0.2-0.1-0.4-0.1-0.6s0-0.4,0.1-0.6c0.1-0.2,0.1-0.4,0.2-0.6c0.1-0.2,0.2-0.3,0.4-0.5c0.1-0.1,0.3-0.3,0.5-0.4
		c0.2-0.1,0.4-0.2,0.6-0.2c0.2-0.1,0.4-0.1,0.6-0.1h4.2v0.4h-3.6c-0.2,0-0.5,0-0.7,0.1c-0.2,0.1-0.4,0.2-0.6,0.4
		c-0.2,0.2-0.3,0.3-0.4,0.5c-0.1,0.2-0.2,0.4-0.2,0.7h5.5v0.4h-5.5c0,0.2,0.1,0.5,0.2,0.7c0.1,0.2,0.2,0.4,0.4,0.5
		c0.2,0.2,0.4,0.3,0.6,0.4c0.2,0.1,0.5,0.1,0.7,0.1h3.6V73H187.1z"/>
	<path d="M218.6,29.8c0.4,0,0.7-0.2,0.7-0.5v0c0-0.3-0.3-0.5-0.7-0.5h-0.9v1.1H218.6z M217.3,28.3h1.3c0.4,0,0.7,0.1,0.9,0.3
		c0.1,0.1,0.2,0.3,0.2,0.6v0c0,0.5-0.3,0.8-0.8,0.9l0.9,1.2h-0.5l-0.9-1.1h-0.8v1.1h-0.4V28.3z M221.1,29.9L221.1,29.9
		c0-1.5-1.1-2.7-2.6-2.7c-1.5,0-2.7,1.2-2.7,2.7v0c0,1.5,1.1,2.6,2.6,2.6C219.9,32.6,221.1,31.4,221.1,29.9 M215.5,29.9L215.5,29.9
		c0-1.6,1.3-2.9,2.9-2.9c1.6,0,2.9,1.3,2.9,2.9v0c0,1.6-1.3,2.9-2.9,2.9C216.8,32.8,215.5,31.5,215.5,29.9"/>
</g>
</svg>
