<?xml version="1.0" encoding="utf-8"?>
<!-- Generator: Adobe Illustrator 24.0.0, SVG Export Plug-In . SVG Version: 6.00 Build 0)  -->
<svg version="1.1" id="Layer_1" xmlns="http://www.w3.org/2000/svg" xmlns:xlink="http://www.w3.org/1999/xlink" x="0px" y="0px"
	 viewBox="0 0 240 100" style="enable-background:new 0 0 240 100;" xml:space="preserve">
<style type="text/css">
	.st0{fill:#1C1C1A;}
</style>
<g>
	<path class="st0" d="M131.9,75.5h-3.1c0.2-0.2,0.4-0.5,0.6-0.7c0.1-0.2,0.2-0.5,0.2-0.8v-2.5c0-0.7-0.1-1.2-0.3-1.5
		c-0.3-0.3-0.7-0.5-1.2-0.5c-0.6,0-1,0.1-1.2,0.4c-0.2,0.3-0.3,0.8-0.3,1.5v2.6c0,0.3,0.1,0.5,0.2,0.8c0.2,0.3,0.3,0.5,0.6,0.7h-3.1
		c0.2-0.2,0.4-0.5,0.6-0.7c0.1-0.2,0.2-0.5,0.2-0.8v-2.5c0-0.7-0.1-1.2-0.3-1.5c-0.2-0.3-0.6-0.5-1.2-0.5s-1,0.1-1.2,0.5
		c-0.2,0.3-0.3,0.8-0.3,1.5v2.6c0,0.2,0,0.4,0.1,0.6c0.1,0.2,0.1,0.3,0.2,0.4c0,0,0.1,0.2,0.4,0.4h-3.1c0.2-0.2,0.5-0.5,0.6-0.7
		c0.1-0.2,0.2-0.5,0.2-0.8v-4.4c0-0.2,0-0.4-0.1-0.6c-0.1-0.1-0.1-0.3-0.2-0.4c-0.2-0.2-0.3-0.3-0.5-0.5h1.3l1.1-0.2l0,0.9
		c0.5-0.6,1.2-0.9,2-0.9c0.9,0,1.8,0.4,2.3,1.1c0.8-0.8,1.6-1.2,2.4-1.1c0.4,0,0.7,0.1,1.1,0.2c0.3,0.1,0.6,0.3,0.8,0.6
		c0.5,0.5,0.8,1.2,0.8,2v3.3c0,0.2,0.1,0.5,0.1,0.7C131.4,75.1,131.6,75.3,131.9,75.5 M135.1,75.5h-2.7c0.2-0.2,0.3-0.5,0.5-0.7
		c0.1-0.2,0.1-0.5,0.1-0.8v-4.4c0-0.3,0-0.5-0.1-0.8c-0.1-0.3-0.3-0.5-0.5-0.8h0.6c0.2,0,0.3,0,0.5,0c0.2,0,0.3,0,0.5-0.1
		c0.2,0,0.4-0.1,0.6-0.1v6.2c0,0.1,0,0.2,0,0.3c0,0.1,0,0.2,0.1,0.3c0,0.1,0.1,0.2,0.1,0.3C134.9,75.2,135,75.4,135.1,75.5
		 M142.4,73.4l-1.1,1.9c-0.2,0.2-0.5,0.3-0.8,0.4c-0.3,0.1-0.6,0.2-1,0.2c-1.1,0-2.2-0.3-3-1.1c-0.8-0.7-1.2-1.7-1.2-2.8
		c0-2.2,1.7-4,3.9-4c0,0,0.1,0,0.1,0c0.6,0,1.3,0.1,1.9,0.2v2c-0.3-0.2-0.7-0.5-1.1-0.6c-0.3-0.1-0.5-0.2-0.8-0.2
		c-0.6,0-1.1,0.2-1.5,0.6c-0.4,0.5-0.6,1.1-0.5,1.7c0,0.7,0.2,1.4,0.7,1.9c0.5,0.5,1.1,0.8,1.8,0.7c0.2,0,0.3,0,0.5,0
		c0.2,0,0.3-0.1,0.5-0.1c0.2-0.1,0.4-0.1,0.5-0.2C141.5,73.8,141.9,73.6,142.4,73.4 M150,74.2l-0.8,1.3c-0.8,0-1.3-0.1-1.7-0.4
		s-0.5-0.8-0.5-1.4v-1.9l-1,0.3c-0.2,0.1-0.4,0.1-0.6,0.2c-0.7,0.2-1,0.6-1,1c0,0.3,0.1,0.6,0.4,0.8c0.3,0.2,0.7,0.3,1,0.3
		c0.2,0,0.3,0,0.5-0.1c0.2,0,0.5-0.1,0.9-0.2l-1.1,1.5l-0.5,0.1h-0.4c-0.7,0-1.3-0.2-1.9-0.6c-0.5-0.5-0.7-1.1-0.7-1.7
		c0-0.5,0.2-1,0.5-1.4c0.2-0.2,0.5-0.4,0.8-0.5c0.1,0,0.3-0.1,0.8-0.2l1-0.3c0.2-0.1,0.3-0.1,0.5-0.1c0.2-0.1,0.4-0.1,0.6-0.2
		c0.2-0.1,0.3-0.3,0.3-0.5c0-0.2-0.2-0.5-0.3-0.6c-0.3-0.2-0.7-0.3-1-0.2c-0.3,0-0.6,0.1-0.9,0.2c-0.5,0.2-0.9,0.4-1.4,0.6l1.3-2.1
		l1.3-0.1c0.6,0,1.3,0.2,1.8,0.5c0.3,0.2,0.6,0.6,0.7,0.9c0.1,0.5,0.2,1,0.2,1.5v1.7c0,0.5,0,0.9,0.2,1.3c0.1,0.1,0.2,0.2,0.3,0.2
		C149.4,74.2,149.7,74.2,150,74.2"/>
	<path class="st0" d="M106.9,62.7l-2.2,3.3c-2.1,0-3.6-0.4-4.5-1.1s-1.3-2-1.3-3.7v-4.9c-0.9,0.2-1.8,0.5-2.6,0.7
		c-0.5,0.1-1,0.3-1.5,0.5c-1.8,0.6-2.7,1.5-2.7,2.7c0,0.8,0.3,1.5,1,2c0.7,0.5,1.6,0.8,2.8,0.8c0.4,0,0.9-0.1,1.3-0.2
		c0.6-0.1,1.4-0.3,2.5-0.6l-3,4.1l-1.4,0.4h-1.2c-1.8,0.1-3.6-0.6-5-1.7c-1.2-1.2-1.9-2.8-1.9-4.5c0-1.3,0.5-2.7,1.4-3.7
		c0.4-0.4,1-0.8,2-1.3c0.1-0.1,0.8-0.3,2-0.6s2.1-0.6,2.7-0.7s1-0.2,1.2-0.3c0.6-0.2,1.1-0.4,1.7-0.6c0.4-0.2,0.7-0.7,0.7-1.2
		c0-0.5-0.3-1-0.9-1.5c-0.6-0.4-1.6-0.6-2.8-0.6c-0.8,0-1.6,0.2-2.3,0.5c-1.3,0.5-2.5,1-3.7,1.6l3.4-5.5l3.5-0.3
		c2,0,3.6,0.5,4.9,1.5c0.9,0.6,1.6,1.5,1.9,2.5c0.3,1.3,0.5,2.6,0.4,3.9v4.5c0,1.8,0.1,3,0.4,3.5c0.2,0.3,0.5,0.5,0.9,0.6
		C105.3,62.6,106.1,62.6,106.9,62.7 M113.6,66.1h-7.2c0.5-0.6,0.9-1.2,1.2-1.9c0.2-0.6,0.3-1.3,0.3-2V42.2c0.1-1.5-0.5-2.9-1.6-3.9
		h1.2c0.5,0,1.1,0,1.6-0.1c0.5-0.1,1-0.2,1.5-0.2c0.5-0.1,0.9-0.2,1.4-0.3v24.5c0,0.3,0,0.6,0.1,0.9l0.2,1c0.1,0.2,0.2,0.5,0.3,0.7
		C112.9,65.2,113.2,65.7,113.6,66.1 M133.5,62.7l-2.2,3.3c-2.1,0-3.6-0.4-4.5-1.1s-1.3-2-1.3-3.7v-4.9c-0.9,0.2-1.8,0.5-2.6,0.7
		c-0.5,0.1-1,0.3-1.5,0.5c-1.8,0.6-2.7,1.5-2.7,2.7c0,0.8,0.3,1.5,1,2c0.7,0.5,1.6,0.8,2.8,0.8c0.4,0,0.9-0.1,1.3-0.2
		c0.6-0.1,1.4-0.3,2.5-0.6l-3,4.1l-1.4,0.4h-1.2c-1.8,0.1-3.6-0.6-5-1.7c-1.2-1.2-1.9-2.8-1.9-4.5c0-1.3,0.5-2.7,1.4-3.7
		c0.4-0.4,1-0.8,2-1.3c0.1-0.1,0.8-0.3,2-0.6s2.1-0.6,2.7-0.7c0.6-0.1,1-0.2,1.2-0.3c0.6-0.2,1.1-0.4,1.7-0.6
		c0.4-0.2,0.7-0.7,0.7-1.2c0-0.5-0.3-1-0.9-1.5c-0.6-0.4-1.6-0.6-2.8-0.6c-0.8,0-1.6,0.2-2.3,0.5c-1.3,0.5-2.5,1-3.7,1.6l3.4-5.5
		l3.5-0.3c2,0,3.6,0.5,4.9,1.5c0.9,0.6,1.6,1.5,1.9,2.5c0.3,1.3,0.5,2.6,0.4,3.9v4.5c0,1.8,0.1,3,0.4,3.5c0.2,0.3,0.5,0.5,0.9,0.6
		C131.9,62.6,132.7,62.7,133.5,62.7 M153.4,66.1l-5.9-0.1c-0.3-0.1-0.5-0.2-0.7-0.4c-0.3-0.2-0.5-0.5-0.7-0.9l-0.8-1.2l-3.1-4.6
		l-3.1,3.9c-0.5,0.6-0.8,1.2-0.8,1.6c0.1,0.2,0.2,0.4,0.3,0.6c0.1,0.1,0.4,0.5,0.8,1h-7.6l8.3-10.1l-3.7-5.3
		c-0.4-0.6-0.9-1.2-1.4-1.7c-0.8-0.8-1.6-1.5-2.4-2.2l5.9,0.1c0.4,0.2,0.8,0.5,1,0.9c0.1,0.1,0.3,0.4,0.8,1l2.6,3.9l1.7-2
		c0.8-1,1.3-1.7,1.3-2c-0.1-0.3-0.2-0.6-0.4-0.8c-0.4-0.4-0.8-0.7-1-1h7.9l-7.2,8.8l5,7.3c0.2,0.2,0.3,0.5,0.5,0.7
		c0.2,0.2,0.5,0.5,0.7,0.7L153.4,66.1z M173.2,46.7L165,68.3c-1.6,4.4-4.5,6.6-8.6,6.6c-0.3,0-0.6,0-1-0.1c-0.4-0.1-0.8-0.1-1.2-0.2
		c-0.4-0.1-0.9-0.2-1.4-0.4c-0.6-0.2-1.2-0.4-1.7-0.7l4.3-3.3c0.7,0.5,1.5,0.7,2.3,0.7c1.6,0,3-1.7,4.1-5.2
		c-0.2-0.2-0.3-0.4-0.5-0.7c-0.2-0.2-0.3-0.5-0.5-0.7l-1.1-2.5l-4.6-11c-0.2-0.4-0.4-0.8-0.6-1.2c-0.2-0.5-0.4-0.9-0.7-1.3
		c-0.1-0.2-0.2-0.3-0.4-0.4c-0.3-0.2-0.5-0.4-0.8-0.5l0.3-0.8h5.2l0.7,1l0.4,1.1l4.8,11.6l3.5-9.4c0.2-0.6,0.3-1.3,0.4-1.9
		c0-0.3-0.2-0.6-0.3-0.8c-0.4-0.5-0.8-1-1.3-1.5L173.2,46.7z M85.9,65.7c-3.8,0.9-7,1.3-9.6,1.3c-3.7,0-6.9-0.8-9.6-2.3
		c-4.3-2.6-6.8-7.3-6.8-12.4c0-4.3,1.6-8,5-11c3-2.7,6.7-4.1,11.1-4.1c1.9,0,4.3,0.3,7.3,0.9v5.8c-1.2-0.8-2.6-1.5-4-2
		c-1.2-0.4-2.3-0.6-3.6-0.6c-3,0-5.5,1-7.3,2.9c-1.8,2-2.8,4.5-2.8,7.8c0,3.4,0.9,6.1,2.8,8.1c1.9,2,4.5,3,8,3
		c0.8,0,1.6-0.1,2.4-0.2c0.8-0.1,1.7-0.3,2.5-0.6v-7.5c-0.1-0.5-0.3-1-0.6-1.5c-0.5-0.7-1.1-1.3-1.7-1.8h7L85.9,65.7z"/>
	<path class="st0" d="M174.3,42.6v0.5h0.9v2.5h0.6v-2.5h0.9v-0.5H174.3z M179.1,42.6l-0.6,2.3l-0.6-2.3h-0.9v3h0.6v-2.4l0.6,2.4h0.6
		l0.6-2.4v2.4h0.6v-3L179.1,42.6L179.1,42.6z"/>
	<path class="st0" d="M87.8,81.9c0.3,0,0.6,0,0.9,0c0.5,0.1,1,0.2,1.5,0.3c0.5,0.1,0.9,0.2,1.3,0.4c0.2,0.1,0.5,0.2,0.7,0.3
		c0.2,0.1,0.3,0.2,0.5,0.4c0.1,0.1,0.1,0.2,0.1,0.3c0,0.3-0.1,0.6-0.2,0.9c-0.1,0.5-0.5,1.1-1.2,1.9c-0.6,0.7-1.3,1.4-2.1,2
		c-0.7,0.6-0.8,0.9-0.3,1l1.8,0.4c0.7,0.2,1.4,0.4,2,0.7c0.7,0.3,1,0.5,1,0.6c0,0.1,0,0.2-0.1,0.2c-0.1,0.1-0.3,0.1-0.5,0.1
		c-0.2,0-0.5,0-0.7,0c-0.2,0-0.5-0.1-0.7-0.2c-0.4-0.2-0.8-0.3-1.2-0.4c-0.5-0.1-0.9-0.2-1.4-0.3c-0.3-0.1-0.7-0.1-1.1-0.2
		c-0.3-0.1-0.7-0.1-1.1,0.1c-0.3,0.1-0.5,0.1-0.8,0.1c-0.2-0.1-0.3-0.1-0.3-0.2s-0.1-0.2-0.2-0.2c-0.1,0-0.1-0.1,0-0.3
		c0.6-0.7,1.3-1.3,2-1.9c0.9-0.7,1.7-1.5,2.4-2.4c0.3-0.4,0.6-0.9,0.9-1.3c0.2-0.4,0-0.7-0.6-0.9s-1-0.3-1.3-0.4
		c-0.3-0.1-0.6-0.1-1-0.1c-0.3,0-0.6,0-1,0.1c-0.2,0.1-0.3,0.1-0.5,0.1c-0.1,0-0.2-0.1-0.3-0.1s-0.2-0.1-0.3-0.1
		c-0.1,0-0.1-0.1-0.1-0.3c0-0.1,0.1-0.3,0.1-0.4c0.1-0.1,0.2-0.2,0.3-0.2l0.5-0.1C87.3,82,87.5,81.9,87.8,81.9 M96,86.2
		c0.2-0.1,0.3-0.1,0.5,0c0.2,0,0.3,0.1,0.5,0.2c0.1,0.1,0.3,0.3,0.3,0.5c0.1,0.3,0.1,0.4-0.1,0.5c-0.2,0.1-0.4,0.1-0.5-0.1
		c-0.1-0.1-0.3-0.2-0.5-0.1c-0.2,0.1-0.3,0.2-0.5,0.3c-0.2,0.1-0.4,0.3-0.6,0.4c-0.3,0.2-0.5,0.5-0.8,0.8c-0.2,0.2-0.3,0.4-0.4,0.6
		c0,0.1,0,0.1,0.2,0c0.2-0.1,0.4-0.3,0.7-0.5c0.4-0.3,0.8-0.5,1.2-0.7c0.5-0.2,0.8-0.3,0.9-0.3c0.1,0.1,0.3,0.1,0.3,0.3
		c0.1,0.1,0.1,0.2,0.2,0.3c0,0.1,0,0.2-0.1,0.2c-0.1,0.1-0.1,0.2-0.2,0.4c-0.1,0.2-0.1,0.4,0,0.6c0.1,0.2,0.1,0.3,0.3,0.4
		c0.1,0.1,0.3,0.1,0.4,0.1c0.3-0.1,0.5-0.2,0.7-0.4c0.3-0.2,0.2-0.2,0,0.2c-0.2,0.3-0.4,0.5-0.6,0.7c-0.1,0.1-0.2,0.1-0.4,0.1
		c-0.1,0-0.2-0.1-0.4-0.1c-0.3-0.1-0.6-0.4-0.8-0.7c-0.1-0.1-0.1-0.3-0.2-0.4c-0.1-0.1-0.1-0.2-0.2-0.3c-0.1-0.1-0.2-0.1-0.3-0.1
		c-0.3,0.1-0.5,0.3-0.8,0.5c-0.3,0.2-0.6,0.4-1,0.6c-0.3,0.1-0.5,0.3-0.8,0.3c-0.2,0.1-0.3,0.1-0.5,0.1c-0.1,0-0.2-0.1-0.2-0.2
		c-0.1-0.1-0.1-0.3-0.2-0.4c0-0.2,0-0.3,0.1-0.5c0.2-0.3,0.4-0.7,0.6-1c0.3-0.4,0.7-0.8,1.1-1.2c0.3-0.3,0.7-0.6,1.1-0.8
		C95.5,86.4,95.7,86.3,96,86.2 M99.2,87.6c0.2-0.9,0.5-1.4,0.7-1.4c0.2,0,0.4,0.1,0.5,0.3c0.1,0.2,0.1,0.5,0,0.7
		c-0.1,0.3-0.2,0.4-0.1,0.4c0.2,0,0.3-0.1,0.4-0.2c0.2-0.1,0.3-0.2,0.5-0.3c0.1-0.1,0.3-0.1,0.4-0.1c0.2,0,0.4,0,0.6,0.1
		c0.3,0.1,0.6,0.2,0.8,0.4c0.3,0.2,0.7,0.2,1,0c0.4-0.1,0.4-0.1-0.1,0.1c-0.5,0.2-1,0.3-1.6,0.3c-0.4,0-0.9,0-1.2,0.2
		c-0.3,0.1-0.5,0.3-0.8,0.5c-0.2,0.2-0.4,0.5-0.6,0.9c-0.2,0.4-0.3,0.7-0.4,1c-0.1,0.3-0.2,0.5-0.2,0.7c-0.1,0.2-0.2,0.3-0.4,0.3
		c-0.2,0-0.4-0.1-0.4-0.2c-0.1-0.2-0.1-0.3-0.1-0.3c0.1-0.3,0.2-0.6,0.3-0.9C98.8,89.3,99,88.5,99.2,87.6 M106.5,86.2
		c0.2-0.1,0.3-0.1,0.5,0c0.2,0,0.3,0.1,0.5,0.2c0.1,0.1,0.3,0.3,0.3,0.5c0.1,0.3,0.1,0.4-0.1,0.5c-0.2,0.1-0.4,0.1-0.5-0.1
		c-0.1-0.1-0.3-0.2-0.5-0.1c-0.2,0.1-0.3,0.2-0.5,0.3c-0.2,0.1-0.4,0.3-0.6,0.4c-0.3,0.2-0.5,0.5-0.8,0.8c-0.2,0.2-0.3,0.4-0.4,0.6
		c0,0.1,0,0.1,0.2,0l0.7-0.5c0.4-0.3,0.8-0.5,1.2-0.7c0.5-0.2,0.8-0.3,0.9-0.3c0.1,0.1,0.3,0.1,0.3,0.3c0.1,0.1,0.1,0.2,0.2,0.3
		c0,0.1,0,0.2-0.1,0.2c-0.1,0.1-0.1,0.2-0.2,0.4c-0.1,0.2-0.1,0.4,0,0.6c0.1,0.2,0.1,0.3,0.3,0.4c0.1,0.1,0.3,0.1,0.4,0.1
		c0.3-0.1,0.5-0.2,0.7-0.4c0.3-0.2,0.3-0.2,0,0.2c-0.2,0.3-0.4,0.5-0.7,0.7c-0.1,0.1-0.2,0.1-0.4,0.1c-0.1,0-0.2-0.1-0.4-0.1
		c-0.2-0.1-0.3-0.2-0.4-0.3c-0.1-0.1-0.2-0.3-0.3-0.5c-0.1-0.1-0.1-0.3-0.2-0.4c-0.1-0.1-0.1-0.2-0.2-0.3c-0.1-0.1-0.2-0.1-0.3-0.1
		c-0.3,0.1-0.5,0.3-0.8,0.5c-0.3,0.2-0.6,0.5-1,0.6c-0.3,0.1-0.5,0.3-0.8,0.3c-0.2,0.1-0.3,0.1-0.5,0.1c-0.1,0-0.2-0.1-0.2-0.2
		c-0.1-0.1-0.1-0.3-0.2-0.4c0-0.2,0-0.3,0.1-0.5c0.2-0.3,0.4-0.7,0.6-1c0.3-0.4,0.7-0.8,1.1-1.2c0.3-0.3,0.7-0.6,1.1-0.8
		C106,86.4,106.2,86.3,106.5,86.2 M117.8,80.5c0.1-0.1,0.2-0.1,0.3,0c0.2,0.1,0.3,0.2,0.3,0.5c0.1,0.3,0.1,0.4,0,0.4
		c-0.1,0.1-0.1,0.2-0.1,0.3l-0.3,0.8c-0.1,0.4-0.4,1.2-0.9,2.3c-0.4,1.1-0.7,1.8-0.8,2.2s-0.1,0.5,0,0.4s0.3-0.1,0.5-0.1
		s0.4-0.1,0.7-0.1s0.7-0.2,1.2-0.3c0.3-0.1,0.6-0.2,0.8-0.3c0.1-0.2,0.2-0.3,0.3-0.5c0.1-0.3,0.3-0.9,0.6-2c0.3-1,0.5-1.6,0.5-1.7
		c0-0.1,0.1-0.1,0.2-0.1c0.1,0,0.2,0.1,0.3,0.2c0.1,0.1,0.2,0.2,0.2,0.3c0,0.1,0,0.2,0.1,0.3c0,0.3-0.1,0.7-0.2,1
		c-0.2,0.6-0.3,1-0.3,1.3c-0.1,0.3-0.1,0.5,0,0.6s0.2,0,0.5-0.1c0.3-0.1,0.4,0.1,0.5,0.3c0,0.3-0.2,0.6-0.5,0.6
		c-0.3,0.1-0.6,0.2-0.7,0.2c-0.1,0.1-0.2,0.2-0.3,0.5s-0.3,0.8-0.6,1.7s-0.5,1.4-0.6,1.7c-0.1,0.3-0.3,0.7-0.5,1
		c-0.2,0.3-0.3,0.2-0.2-0.3c0.1-0.6,0.2-0.9,0.2-1c0.1-0.2,0.1-0.5,0.1-0.7c0.1-0.3,0.1-0.6,0.2-1c0.1-0.3,0.1-0.7,0.2-0.9
		c0-0.2-0.3-0.3-0.9-0.1c-0.6,0.2-1.3,0.4-1.9,0.6c-0.6,0.2-1,0.4-1.1,0.7c-0.1,0.3-0.4,0.9-0.7,2s-0.6,1.7-0.7,2
		c-0.1,0.2-0.2,0.5-0.4,0.6c-0.1,0.1-0.2,0.1-0.3,0c0,0,0,0,0,0c-0.1-0.1-0.2-0.2-0.3-0.3c-0.1-0.1,0.1-0.6,0.4-1.7s0.6-1.8,0.7-2.2
		c0.1-0.3,0.1-0.5-0.1-0.6c-0.2-0.1-0.3-0.2-0.3-0.3c0-0.1,0-0.3,0-0.4c0.1-0.2,0.2-0.3,0.4-0.4c0.2-0.1,0.3-0.2,0.5-0.3
		c0.2-0.2,0.3-0.3,0.3-0.5c0.1-0.3,0.2-0.5,0.3-0.8c0.1-0.3,0.3-0.9,0.6-1.7c0.3-0.8,0.6-1.7,0.9-2.4s0.5-1.2,0.6-1.2
		C117.7,80.6,117.8,80.6,117.8,80.5 M125,86.2c0.2-0.1,0.3-0.1,0.5,0c0.2,0,0.3,0.1,0.5,0.2c0.1,0.1,0.3,0.3,0.3,0.5
		c0.1,0.3,0.1,0.4-0.1,0.5s-0.4,0.1-0.5-0.1c-0.1-0.1-0.3-0.2-0.5-0.1c-0.2,0.1-0.3,0.2-0.5,0.3c-0.2,0.1-0.4,0.3-0.6,0.4
		c-0.3,0.2-0.5,0.5-0.8,0.8c-0.2,0.2-0.3,0.4-0.4,0.6c0,0.1,0,0.1,0.2,0c0.2-0.1,0.4-0.3,0.7-0.5c0.4-0.3,0.8-0.5,1.2-0.7
		c0.5-0.2,0.8-0.3,0.9-0.3s0.3,0.1,0.3,0.3c0.1,0.1,0.1,0.2,0.2,0.3c0,0.1,0,0.2-0.1,0.2c-0.1,0.1-0.1,0.2-0.2,0.4
		c-0.1,0.2-0.1,0.4,0,0.6c0.1,0.2,0.1,0.3,0.3,0.4c0.1,0.1,0.3,0.1,0.4,0.1c0.3-0.1,0.5-0.2,0.7-0.4c0.3-0.2,0.3-0.2,0,0.2
		c-0.2,0.3-0.4,0.5-0.7,0.7c-0.1,0.1-0.2,0.1-0.4,0.1c-0.1,0-0.2-0.1-0.4-0.1c-0.2-0.1-0.3-0.2-0.4-0.3c-0.1-0.1-0.2-0.3-0.3-0.5
		c-0.1-0.1-0.1-0.3-0.2-0.4c-0.1-0.1-0.1-0.2-0.2-0.3c-0.1-0.1-0.2-0.1-0.3-0.1c-0.3,0.1-0.5,0.3-0.8,0.5c-0.3,0.2-0.6,0.5-1,0.6
		c-0.3,0.1-0.5,0.3-0.8,0.3c-0.2,0.1-0.3,0.1-0.5,0.1c-0.1,0-0.1-0.1-0.2-0.2c-0.1-0.1-0.1-0.3-0.1-0.4c0-0.2,0-0.3,0.1-0.5
		c0.2-0.3,0.4-0.7,0.6-1c0.3-0.4,0.7-0.8,1.1-1.2c0.3-0.3,0.7-0.6,1.1-0.8C124.4,86.4,124.7,86.3,125,86.2 M129.7,83.9
		c0.1-0.1,0.2-0.2,0.4-0.1c0.1,0,0.3,0.1,0.4,0.2s0.2,0.2,0.2,0.3c0.1,0.1,0.1,0.3,0,0.4c-0.1,0.2-0.2,0.4-0.2,0.6
		c-0.1,0.2-0.2,0.6-0.3,1s-0.1,0.7,0,0.7c0.2,0.1,0.4,0.1,0.6,0.2c0.5,0.1,0.9,0.1,1.4,0.1c0.6,0,0.6,0-0.1,0.1
		c-0.7,0.1-1.3,0.2-1.6,0.3s-0.6,0.2-0.7,0.2c-0.1,0-0.3,0.4-0.6,1.1s-0.4,1.2-0.5,1.4c-0.1,0.2-0.1,0.3-0.3,0.5
		c-0.1,0.1-0.2,0.2-0.4,0.2c-0.1,0-0.3,0-0.4,0c-0.1-0.1-0.1-0.3,0-0.7s0.3-0.8,0.5-1.4c0.1-0.3,0.3-0.6,0.3-1
		c0-0.1-0.1-0.2-0.3-0.1c-0.2,0-0.3,0.1-0.5,0.1c-0.2,0-0.2-0.1-0.2-0.3c0-0.2,0.2-0.4,0.4-0.5c0.2-0.1,0.4-0.2,0.6-0.2
		c0.2,0,0.3-0.3,0.5-0.8c0.1-0.3,0.2-0.7,0.3-1c0-0.2,0.1-0.4,0.1-0.7C129.5,84.3,129.6,84.1,129.7,83.9"/>
	<path class="st0" d="M139.4,80.1c0.1-0.1,0.3-0.1,0.4,0c0.1,0.1,0.2,0.2,0.3,0.3s0.1,0.3,0.2,0.4c0.1,0.1,0,0.5-0.3,1.1
		c-0.3,0.6-0.6,1.3-0.9,2.1c-0.3,0.8-0.6,1.4-0.8,1.9c-0.2,0.5-0.2,0.8-0.2,0.9c0.1,0.1,0.3,0,0.8-0.3c0.5-0.3,0.9-0.6,1.2-0.9
		c0.4-0.3,0.9-0.7,1.5-1.3c0.6-0.6,1.1-0.9,1.3-1.1c0.2-0.1,0.3-0.2,0.5-0.3c0.3,0,0.6,0.1,0.8,0.4c0.1,0.1,0.1,0.3,0,0.4
		c-0.1,0.2-0.2,0.3-0.3,0.4c-0.2,0.2-0.3,0.3-0.6,0.4c-0.3,0.2-0.6,0.3-0.8,0.6c-0.2,0.2-0.4,0.3-0.6,0.5s-0.5,0.3-0.6,0.5
		c-0.4,0.4-0.9,0.7-1.3,1c-0.6,0.4-0.5,0.8,0.1,1.2c0.7,0.4,1.1,0.7,1.3,0.8c0.2,0.1,0.4,0.2,0.6,0.3c0.2,0,0.3,0.1,0.5,0.1
		c0.1,0.1,0.2,0.1,0.3,0.2c0.1,0.1,0.1,0.2-0.1,0.3c-0.1,0.1-0.2,0.1-0.4,0.1s-0.4,0-0.7,0c-0.3,0-0.5-0.1-0.8-0.2
		c-0.2-0.1-0.5-0.2-0.7-0.3c-0.2-0.1-0.5-0.3-0.7-0.4c-0.2-0.1-0.3-0.2-0.5-0.3c-0.2-0.1-0.5-0.3-0.7-0.5c-0.3-0.2-0.5-0.3-0.7-0.3
		c-0.1,0.1-0.2,0.3-0.4,0.9c-0.2,0.8-0.5,1.6-0.9,2.4c-0.4,1-0.8,1.6-0.9,1.6c-0.2,0.1-0.3,0-0.4-0.1c-0.1-0.2-0.1-0.4-0.1-0.6
		c0.1-0.3,0.1-0.7,0.3-1c0.1-0.4,0.3-0.8,0.4-1.2c0.1-0.4,0.3-1.1,0.7-2.1c0.2-0.5,0.4-1.1,0.6-1.6c0.1-0.2,0.2-0.4,0.3-0.6
		c0.2-0.4,0.3-0.9,0.4-1.3c0.1-0.4,0.3-0.9,0.4-1.3c0.1-0.2,0.3-0.6,0.4-1c0.1-0.3,0.2-0.5,0.3-0.8c0-0.2,0.1-0.3,0.2-0.5
		c0.1-0.2,0.2-0.3,0.3-0.5C139.2,80.4,139.4,80.3,139.4,80.1 M145.3,86.2c0.5,0,0.7,0.1,0.8,0.2c0.1,0.2,0.2,0.5,0.1,0.7
		c0,0.3-0.2,0.6-0.4,0.7c-0.3,0.2-0.7,0.4-1,0.6c-0.1,0.1-0.2,0.1-0.3,0.1c-0.1,0-0.2,0-0.2,0l-0.2,0c0,0-0.1,0-0.1,0
		c-0.1,0.2-0.2,0.4-0.2,0.6c0,0.2,0.1,0.4,0.2,0.5c0.1,0.2,0.3,0.2,0.4,0.3c0.2,0,0.3,0,0.5,0c0.3-0.1,0.6-0.2,1-0.3
		c0.3-0.1,0.7-0.3,1-0.6c0.2-0.2,0.4-0.3,0.5-0.5c0.2-0.2,0.2-0.2,0.1,0l-0.5,0.6c-0.2,0.2-0.4,0.5-0.7,0.7
		c-0.3,0.2-0.5,0.4-0.6,0.5c-0.2,0.1-0.4,0.2-0.7,0.3c-0.3,0.1-0.5,0.1-0.8,0.1c-0.2,0-0.4-0.1-0.6-0.2c-0.1-0.1-0.3-0.2-0.4-0.3
		c-0.1-0.1-0.2-0.3-0.3-0.4c-0.1-0.2-0.1-0.5-0.1-0.7c0-0.3,0.1-0.6,0.2-0.9c0.1-0.3,0.3-0.6,0.5-0.8c0.2-0.2,0.5-0.5,0.7-0.7
		C144.6,86.4,144.9,86.3,145.3,86.2 M145.3,87.1c-0.1-0.1-0.2,0-0.3,0.1c-0.2,0.1-0.3,0.1-0.4,0.3c-0.1,0.1-0.1,0.2-0.1,0.3
		s0.2,0,0.3-0.1c0.2-0.1,0.3-0.2,0.4-0.3C145.3,87.3,145.3,87.2,145.3,87.1"/>
	<rect x="60" y="87.3" class="st0" width="22.9" height="0.6"/>
	<rect x="150.4" y="87.3" class="st0" width="22.9" height="0.6"/>
	<path class="st0" d="M152.7,22.9c-1.6,0-4,9.4-16.8,9.4c-1.5,0-3.1-0.1-4.6-0.2l-1.1,0.2c-1.9,0.2-3.9,0.8-5.6,1.7
		c-0.7,0.4-2,1.3-2.1,2.2c0,1.7,2.7,2.7,3.9,3.1c0.9,0.1,1.9,0.2,2.8,0.2c13.2-0.1,20.7-9.8,22.4-9.8c0.8,0,0.4,2.3-0.7,4.5
		C153.4,30,154.2,22.9,152.7,22.9L152.7,22.9z M127,19.6c-2,0-3.2-0.5-3.9-1.3l-0.2,0.2c-1,0.8-4.8,4-4.8,5.4c0.1,1.2,2,2.1,3.6,2.2
		h0.6c11.4-0.1,23.3-7.8,23.2-16.2C142.3,14.9,133.3,19.6,127,19.6"/>
	<path class="st0" d="M149.4,31.3c-0.9,0.7-1.8,1.4-2.7,2.1c-3.8,4.5-9.9,8.2-17.3,8c-1,0-1.9,0-3-0.3c7.9,4.1,17.5,2,23.1-4.9
		c1.3-1.8,1.9-3.2,2.2-5c0-0.2,0.2-1.2,0-1.3C151.2,29.9,149.8,31.1,149.4,31.3 M120.6,28c-0.7,0-1.4,0-2,0c-1-0.1-1.8-0.1-1.7,0.1
		c0.5,2.8,1.7,5.5,3.6,7.7c1.1,1.5,2.7,2.5,4.4,3c-2.1-0.8-2.7-2.2-2.7-2.8c0.2-1.5,3.2-3.6,8-4.2c9-1.2,20.5-3.4,21.7-14.8
		c-1.1-2.5-2.8-4.7-4.9-6.5C143.6,23.6,132.9,27.5,120.6,28 M116.6,23L116.6,23c-0.1,1.9,1.1,2.7,3.7,2.9c-1.1-0.2-2.5-1.2-2.5-2.1
		c-0.1-2.8,14.5-14.4,26.8-15c-8.7-5.3-20.1-2.4-25.4,6.3C117.7,17.5,116.8,20.2,116.6,23"/>
</g>
</svg>
