<?xml version="1.0" encoding="utf-8"?>
<!-- Generator: Adobe Illustrator 24.0.0, SVG Export Plug-In . SVG Version: 6.00 Build 0)  -->
<svg version="1.1" id="Layer_1" xmlns="http://www.w3.org/2000/svg" xmlns:xlink="http://www.w3.org/1999/xlink" x="0px" y="0px"
	 viewBox="0 0 240 100" style="enable-background:new 0 0 240 100;" xml:space="preserve">
<style type="text/css">
	.st0{fill:none;stroke:#1C1C1A;stroke-width:2.0002;stroke-miterlimit:10;}
	.st1{fill:#1C1C1A;}
	.st2{fill:none;stroke:#1C1C1A;stroke-width:0.4997;stroke-miterlimit:10;}
</style>
<g>
	<path class="st0" d="M28.2,18.1l2.7,2c0.5,0.4,1,0.8,1.6,1.2c2.6,2.2,5,4.7,7,7.4c0.2,0.3,0.5,0.6,0.7,1v0c3,4.3,5.4,9.2,7.1,14.8
		c1.3,4.1,2.3,8.5,3,12.9c-13.3,6.6-31.4,6.6-44.7,0c0.7-4.4,1.6-8.8,3-12.9c1.7-5.6,4.1-10.5,7.1-14.8l0,0c0.2-0.3,0.5-0.7,0.7-1
		c2.1-2.8,4.4-5.2,7-7.4c1-0.9,2.1-1.7,3.3-2.5L28.2,18.1L28.2,18.1z"/>
	<path class="st1" d="M26.7,57.9c2.1-2.3,2.5-5.7,1.1-8.5c-1.5-4.3-8.1-9.4-4.3-14.8c3.5-4.8,10.2-6,15.1-2.6
		c-1.3-0.3-2.3-0.4-3.1-0.4c2.7,1.5,4.3,4.3,4.4,7.3c-0.8-1.1-1.4-1.8-1.9-1.9c1.7,2.4,1.8,5.6,0.4,8.1c-2.2-8.7-6.4-5.1-5.4-2.3
		c0.2,0.8,3,7.2,2,9.9c-1.5,3.8-4.8,6.4-8.7,7.1c-0.4,1-1.1,1.7-2.4,1.7c-0.5-0.1-1.1,0.1-1.3,0.6h-7c0.1-1,1.1-1.6,2.1-1.3
		c-1.3-1.6,0.2-4.4,1.8-5.3c1.4-0.5,3-0.1,3.9,1.1c-1.7-3.1-5.5-2.4-6.6,0.7c-1.1-1.7-3.2-2.3-5-1.5c0.6-1.2,1.6-1.6,3.2-1.6
		c0.5,0,2.5-0.6,2.5-2c-1,0.7-2.3,0.7-3.3,0c-0.3-0.9-0.1-1.9,0.5-2.6c0.5-1.3,1.9-2.1,3.3-1.8c0.6-0.9,1.7-1.5,2.8-1.4
		c-0.2,1-0.7,1.8-1.5,2.4c1.2,1.8,3.1,2.6,3.8,2.9c2.7,1,3.9,2.7,3.7,5.2C26.7,57.1,26.7,57.5,26.7,57.9L26.7,57.9z"/>
	<path class="st1" d="M91.4,25.3v10.8c0,0.1,0.1,0.2,0.1,0.2c0,0.5-0.1,1-0.1,1.6h0v11.6h4.1V25.3L91.4,25.3L91.4,25.3z"/>
	<path class="st1" d="M124.1,33.9c-0.3,0.6-0.8,1.2-1.3,1.6c-0.6,0.4-1.2,0.8-2,1c-0.8,0.2-1.6,0.4-2.5,0.4h-2.3V26.8h3.6
		c0.7,0,1.4,0.1,2.1,0.4c0.6,0.2,1.2,0.6,1.6,1c0.5,0.4,0.8,1,1.1,1.6c0.3,0.6,0.4,1.3,0.4,2C124.6,32.6,124.5,33.3,124.1,33.9
		L124.1,33.9z M128.5,29.1c-0.4-0.8-0.9-1.4-1.7-2c-0.7-0.5-1.6-1-2.7-1.3c-1.1-0.3-2.4-0.5-3.8-0.5h-8.4v24.3h4.1V38.2h2.8
		c1.2,0,1.2,0,1.7-0.1c1.3-0.1,2-0.2,3.3-0.5c0.6-0.2,1.2-0.4,1.8-0.7c0.7-0.4,1.4-0.9,1.9-1.4c0.5-0.5,0.9-1.1,1.2-1.8
		c0.3-0.7,0.4-1.4,0.4-2.1C129,30.7,128.8,29.9,128.5,29.1L128.5,29.1z"/>
	<path class="st1" d="M141.6,48.6c0.6,0,1.2-0.1,1.8-0.2c0.6-0.2,1.1-0.4,1.6-0.7c0.5-0.3,0.8-0.7,1.1-1.2c0.3-0.5,0.4-1,0.4-1.6
		c0-0.8-0.2-1.4-0.6-2c-0.4-0.6-0.9-1.1-1.5-1.6c-0.6-0.5-1.3-1-2.1-1.4c-0.8-0.4-1.6-0.9-2.4-1.3c-0.8-0.4-1.6-0.9-2.4-1.4
		c-0.8-0.5-1.5-1-2.1-1.6c-0.6-0.6-1.1-1.2-1.5-1.9c-0.4-0.7-0.6-1.5-0.6-2.5c0-0.9,0.2-1.8,0.5-2.6c0.3-0.8,0.9-1.5,1.5-2.1
		s1.5-1,2.5-1.4c1-0.3,2.1-0.5,3.4-0.5c2.3,0,4.1,0.5,5.4,1.5c1.3,1,2.3,2.4,2.9,4.2l-2.1,1c-0.3-0.8-0.6-1.4-0.9-2.1
		c-0.4-0.6-0.8-1.1-1.4-1.6c-0.5-0.4-1.1-0.8-1.8-1c-0.7-0.2-1.5-0.4-2.3-0.4c-0.8,0-1.4,0.1-2,0.3c-0.6,0.2-1.1,0.5-1.4,0.8
		c-0.4,0.3-0.7,0.7-0.9,1.2c-0.2,0.4-0.3,0.9-0.3,1.3c0,0.6,0.2,1.2,0.6,1.7c0.4,0.5,0.9,1,1.5,1.5c0.6,0.5,1.4,0.9,2.2,1.4
		c0.8,0.4,1.7,0.9,2.5,1.3c0.9,0.5,1.7,0.9,2.5,1.4c0.8,0.5,1.6,1,2.2,1.6c0.6,0.6,1.2,1.2,1.6,1.9c0.4,0.7,0.6,1.5,0.6,2.3
		c0,1-0.2,1.9-0.5,2.7c-0.4,0.8-0.9,1.6-1.7,2.2c-0.7,0.6-1.6,1.1-2.7,1.5c-1.1,0.4-2.3,0.5-3.8,0.5c-1.1,0-2.2-0.1-3.1-0.4
		c-0.9-0.3-1.7-0.6-2.4-1.1c-0.7-0.5-1.3-1.1-1.8-1.8c-0.5-0.7-0.9-1.5-1.2-2.4l2.2-0.9c0.3,0.8,0.6,1.5,1,2.1
		c0.4,0.6,0.9,1.1,1.5,1.6c0.6,0.4,1.2,0.8,1.9,1C140.1,48.5,140.8,48.6,141.6,48.6z"/>
	<polygon class="st1" points="158.7,37.9 158.7,49.6 154.7,49.6 154.7,25.3 158.7,25.3 158.7,36.4 170.9,36.4 170.9,25.3 175,25.3 
		175,49.6 170.9,49.6 170.9,37.9 	"/>
	<polygon class="st1" points="181.1,49.6 185.2,49.6 185.2,25.3 181.1,25.3 	"/>
	<polygon class="st1" points="210.6,25.3 210.6,26.9 201.9,26.9 201.9,49.6 197.8,49.6 197.8,26.9 189,26.9 189,25.3 	"/>
	<path class="st1" d="M215.5,39.9h8.9l-4.4-9.6L215.5,39.9z M221.6,24.7L233,49.6h-4.2l-3.7-8.1h-10.4l-3.8,8.1h-2l11.7-24.9H221.6z
		"/>
	<path class="st1" d="M234.4,27.9v-1.1c-0.3-2-2-3.6-4.1-3.6c-2.3,0-4.2,1.9-4.2,4.2c0,2.3,1.9,4.1,4.2,4.1
		C232.4,31.4,234.1,29.9,234.4,27.9L234.4,27.9z M233.8,27.3c0,1.9-1.6,3.4-3.4,3.4c-1.9,0-3.5-1.5-3.5-3.4c0-1.9,1.6-3.5,3.5-3.5
		C232.2,23.9,233.8,25.4,233.8,27.3z"/>
	<path class="st1" d="M229.5,27.1h0.5c0.2,0,0.3,0,0.5-0.1c0.2-0.1,0.3-0.1,0.4-0.2c0.1-0.1,0.2-0.2,0.3-0.3
		c0.1-0.1,0.1-0.3,0.1-0.4c0-0.1,0-0.3-0.1-0.4c-0.1-0.1-0.1-0.2-0.2-0.3c-0.1-0.1-0.2-0.2-0.3-0.2c-0.1-0.1-0.3-0.1-0.4-0.1h-0.7
		V27.1L229.5,27.1z M228.7,24.7h1.7c0.3,0,0.5,0,0.8,0.1c0.2,0.1,0.4,0.2,0.5,0.3c0.1,0.1,0.2,0.2,0.3,0.4c0.1,0.2,0.1,0.3,0.1,0.5
		c0,0.2,0,0.3-0.1,0.4c-0.1,0.1-0.1,0.3-0.2,0.4c-0.1,0.1-0.2,0.2-0.4,0.3c-0.2,0.1-0.3,0.1-0.5,0.2l1.7,2.3h-0.9l-1.7-2.2h-0.5v2.2
		h-0.8L228.7,24.7L228.7,24.7z"/>
	<path class="st1" d="M211.3,44.4c-8.9,20.5-23.8,34-41.2,34c-15.9,0-30.1-11.4-39-29c-1.7-0.1-3.4-0.5-5-1.1
		c9,20.6,24.8,34.3,42.7,34.3c18,0,33.9-13.9,42.9-34.8c0.1-0.5,0.3-1.1,0.4-1.5C211.9,45.6,211.4,45.1,211.3,44.4z"/>
	<path class="st1" d="M112.7,37.2c0,0,7.9-1.4,13.5,11.3l5.7,2.4C125.1,35.9,118.3,37,118.3,37S112.7,37.2,112.7,37.2z"/>
	<polygon class="st1" points="181.1,30.3 185.2,30.3 185.2,25.3 181.1,25.3 	"/>
	<polygon class="st1" points="67.3,38.6 118.3,38.6 118.3,37 67.3,37 	"/>
	<polygon class="st1" points="101.6,49.6 105.7,49.6 105.7,25.3 101.6,25.3 	"/>
	<path class="st1" d="M79.3,37.1c0-0.2-0.1-0.3-0.1-0.5c0-0.2,0-0.3,0.1-0.5V25.3h-4.1v24.3h4.1V37.9h0
		C79.3,37.7,79.3,37.3,79.3,37.1L79.3,37.1z"/>
	<line class="st2" x1="59.3" y1="17.4" x2="59.3" y2="63"/>
</g>
</svg>
