<?xml version="1.0" encoding="utf-8"?>
<!-- Generator: Adobe Illustrator 24.0.0, SVG Export Plug-In . SVG Version: 6.00 Build 0)  -->
<svg version="1.1" id="Layer_1" xmlns="http://www.w3.org/2000/svg" xmlns:xlink="http://www.w3.org/1999/xlink" x="0px" y="0px"
	 viewBox="0 0 240 100" style="enable-background:new 0 0 240 100;" xml:space="preserve">
<style type="text/css">
	.st0{fill:#1C1C1A;}
	.st1{fill-rule:evenodd;clip-rule:evenodd;fill:#FFFFFF;}
	.st2{fill:#FFFFFF;}
</style>
<g>
	<circle class="st0" cx="120" cy="50" r="48.4"/>
	<g>
		<path class="st1" d="M103.3,26.3c13.9,0,23.9,16.5,15.3,29c-3.6,5.3-9,8.1-15.6,8.1v-8.8l3.6-1.2c9.4-4.1,6.4-17.8-3.4-17.8
			L103.3,26.3L103.3,26.3z"/>
		<polygon class="st2" points="103.1,73.5 105,73.5 105,70.2 107.5,70.2 107.5,68.7 105,68.7 105,67.1 108.3,67.1 108.3,65.6 
			103.1,65.6 		"/>
		<path class="st2" d="M109.4,70.5c0,2.1,1,3.2,3,3.2c2,0,3-1,3-3.2v-4.9h-1.9v4.5c0,0.7,0,1.1-0.1,1.3c-0.1,0.5-0.4,0.8-1.1,0.8
			c-0.7,0-0.9-0.2-1-0.8c-0.1-0.2-0.1-0.5-0.1-1.3v-4.5h-1.9v4.9H109.4z"/>
		<polygon class="st2" points="118.1,73.5 119.9,73.5 119.9,67.2 121.9,67.2 121.9,65.6 116.2,65.6 116.2,67.2 118.1,67.2 		"/>
		<path class="st2" d="M122.7,70.5c0,2.1,1,3.2,3,3.2c2,0,3-1,3-3.2v-4.9h-1.9v4.5c0,0.7,0,1.1-0.1,1.3c-0.1,0.5-0.4,0.8-1.1,0.8
			c-0.7,0-0.9-0.2-1-0.8c-0.1-0.2-0.1-0.5-0.1-1.3v-4.5h-1.9v4.9H122.7z"/>
		<path class="st2" d="M130.1,73.5h1.8v-3h1c1.1,0,1.3,0.2,1.3,1c0,0.1,0,1.4,0.1,2h1.9v-0.1c-0.1-0.7-0.1-1.1-0.1-2.3
			c0-0.8-0.2-1.4-1.1-1.6l0,0c0.8-0.2,1.1-0.8,1.1-1.8c0-1.4-0.8-2.1-2.8-2.1h-3v7.9H130.1z M131.8,69.1v-2h1.2c0.8,0,1,0.3,1,1
			s-0.3,1-1.1,1H131.8L131.8,69.1z"/>
		<polygon class="st2" points="137.3,73.5 142.7,73.5 142.7,71.9 139.1,71.9 139.1,70.1 141.5,70.1 141.5,68.5 139.1,68.5 
			139.1,67.1 142.7,67.1 142.7,65.6 137.3,65.6 		"/>
		<g>
			<rect x="146.4" y="67.1" class="st2" width="1.5" height="2.4"/>
			<path class="st2" d="M144,71.9v1.5c2.4,0.2,3.5-0.7,3.9-2.5h-1.5C146.2,72,144.8,71.9,144,71.9z"/>
			<rect x="144" y="65.6" class="st2" width="2.4" height="1.5"/>
			<path class="st2" d="M151.7,56.6c-3,0-5.3,2.4-5.3,5.3h1.5c0-2.1,1.6-3.7,3.7-3.7s3.7,1.6,3.7,3.7c0,2.1-1.6,3.7-3.7,3.7v1.5
				c3,0,5.3-2.4,5.3-5.3C156.9,58.9,154.6,56.6,151.7,56.6z"/>
			<rect x="146.4" y="63.1" class="st2" width="1.5" height="2.4"/>
			<rect x="147.9" y="65.6" class="st2" width="2.4" height="1.5"/>
		</g>
		<g>
			<rect x="90.9" y="29.5" class="st1" width="9.4" height="3.2"/>
			<path class="st1" d="M90.9,35.8v25.6c0,3.3-4.5,2.4-7.8,2.4v9.4h5.8c2.8-0.1,5.2-0.9,7.8-3.4c2-2,3.6-4.5,3.6-7.6V35.8H90.9z"/>
		</g>
		<polygon class="st2" points="150.6,62.8 150.8,62.8 150.8,61.1 151.3,61.1 151.3,60.8 150.1,60.8 150.1,61.1 150.6,61.1 		"/>
		<polygon class="st2" points="151.6,62.8 151.8,62.8 151.8,61.2 151.8,61.2 152.3,62.8 152.4,62.8 152.9,61.2 152.9,61.2 
			152.9,62.8 153.2,62.8 153.2,60.8 152.8,60.8 152.3,62.3 152,60.8 151.6,60.8 		"/>
	</g>
</g>
</svg>
