<?xml version="1.0" encoding="utf-8"?>
<!-- Generator: Adobe Illustrator 24.0.0, SVG Export Plug-In . SVG Version: 6.00 Build 0)  -->
<svg version="1.1" id="Layer_1" xmlns="http://www.w3.org/2000/svg" xmlns:xlink="http://www.w3.org/1999/xlink" x="0px" y="0px"
	 viewBox="0 0 240 100" style="enable-background:new 0 0 240 100;" xml:space="preserve">
<style type="text/css">
	.st0{fill:#1C1C1A;}
	.st1{font-family:'Gotham-Black';}
	.st2{font-size:15.2666px;}
	.st3{letter-spacing:-1;}
</style>
<g>
	<polygon class="st0" points="143.5,71.3 96.8,71.3 96.8,9 143.5,9 143.5,29.8 140.9,29.8 140.9,11.6 99.4,11.6 99.4,68.6 
		140.9,68.6 140.9,60.5 143.5,60.5 	"/>
	<path class="st0" d="M140.8,58.2V43c0-5.8-3.3-9.7-9-9.7c-5.6,0-9.8,4.2-9.8,10.1v9h-2.7V16.4h2.7v20.4c1.9-3.3,5.1-6,10.2-6
		c7.2,0,11.4,4.9,11.4,11.7v15.7L140.8,58.2z"/>
	<path class="st0" d="M110.8,58.2V16.4h2.9v39.1h22.9v2.7H110.8z"/>
	<text transform="matrix(1 0 0 1 59.5293 94.0632)" class="st0 st1 st2">LAMIN</text>
	<text transform="matrix(1 0 0 1 111.1904 94.0632)" class="st0 st1 st2 st3">A</text>
	<text transform="matrix(1 0 0 1 121.8789 94.0632)" class="st0 st1 st2">TE HUB</text>
</g>
</svg>
