<?xml version="1.0" encoding="utf-8"?>
<!-- Generator: Adobe Illustrator 24.0.0, SVG Export Plug-In . SVG Version: 6.00 Build 0)  -->
<svg version="1.1" id="Layer_1" xmlns="http://www.w3.org/2000/svg" xmlns:xlink="http://www.w3.org/1999/xlink" x="0px" y="0px"
	 viewBox="0 0 240 100" style="enable-background:new 0 0 240 100;" xml:space="preserve">
<style type="text/css">
	.st0{fill:#1C1C1A;}
</style>
<g>
	<g>
		<g>
			<path class="st0" d="M180.8,15c0.7,0,1,0.3,1,1v1.7c0,0.7-0.3,1-1,1h-11.4v18.5h8.8c0.7,0,1,0.3,1,1V40c0,0.7-0.3,1-1,1h-8.8
				v18.5h11.4c0.7,0,1,0.3,1,1v1.7c0,0.7-0.3,1-1,1h-14.5c-0.7,0-1-0.3-1-1V16c0-0.7,0.3-1,1-1H180.8z"/>
		</g>
		<g>
			<path class="st0" d="M153.5,40.6l8.2,21.3c0.2,0.6-0.1,1.1-0.7,1.2h-2.5c-0.5,0-0.9-0.2-1.1-0.7L149.1,41h-2.9v21.2
				c0,0.7-0.3,1-1,1h-2.1c-0.7,0-1-0.3-1-1V16c0-0.7,0.3-1,1-1h6.4c8.8,0,10.4,4,10.4,10.7v4.5C160,35.9,158.9,39.6,153.5,40.6z
				 M149.6,37.2c5.3,0,6.2-2.5,6.2-7v-4.5c0-4.4-0.9-7-6.2-7h-3.3v18.5H149.6z"/>
		</g>
		<g>
			<path class="st0" d="M136.9,24.2V54c0,6-1.5,9.5-9.2,9.5c-7.8,0-9.2-3.5-9.2-9.5V24.2c0-6,1.5-9.5,9.2-9.5
				C135.4,14.7,136.9,18.2,136.9,24.2z M122.5,24.2V54c0,3.7,0.8,5.8,5.1,5.8c4.3,0,5.1-2.1,5.1-5.8V24.2c0-3.7-0.8-5.8-5.1-5.8
				C123.3,18.4,122.5,20.6,122.5,24.2z"/>
		</g>
		<g>
			<path class="st0" d="M99.4,53.1c-0.7,0-1-0.4-1.1-1.1l-4.6-28.8h-0.3l0.4,9.4v29.5c0,0.7-0.3,1-1,1h-2.1c-0.7,0-1-0.3-1-1V16
				c0-0.7,0.3-1,1-1h4.1c0.7,0,1,0.3,1.1,1l3.7,21.6l1.7,11.3h0.3l1.7-11.3l3.7-21.6c0.1-0.7,0.5-1,1.1-1h4.1c0.7,0,1,0.3,1,1v46.1
				c0,0.7-0.3,1-1,1h-2.1c-0.7,0-1-0.3-1-1V32.7l0.4-9.4h-0.3L104.5,52c-0.1,0.7-0.4,1.1-1.1,1.1H99.4z"/>
		</g>
		<g>
			<path class="st0" d="M62.3,59.4h11.4c0.7,0,1,0.3,1,1v1.7c0,0.7-0.3,1-1,1H59.2c-0.7,0-1-0.3-1-1V16c0-0.7,0.3-1,1-1h2.1
				c0.7,0,1,0.3,1,1V59.4z"/>
		</g>
	</g>
	<g>
		<path class="st0" d="M91.8,84.2h3c0.2,0,0.3,0.1,0.3,0.3v0.5c0,0.2-0.1,0.3-0.3,0.3H91c-0.2,0-0.3-0.1-0.3-0.3V72.8
			c0-0.2,0.1-0.3,0.3-0.3h0.6c0.2,0,0.3,0.1,0.3,0.3V84.2z"/>
		<path class="st0" d="M105,84.9l-0.4-2.6h-2.6l-0.4,2.6c0,0.1-0.1,0.3-0.3,0.3h-0.6c-0.2,0-0.2-0.1-0.2-0.3l1.9-12.1
			c0-0.2,0.1-0.3,0.3-0.3h1.2c0.2,0,0.3,0.1,0.3,0.3l1.9,12.1c0,0.2-0.1,0.3-0.2,0.3h-0.6C105.1,85.2,105,85.1,105,84.9z
			 M102.2,81.4h2.3l-0.7-4.8l-0.4-3h-0.1l-0.4,3L102.2,81.4z"/>
		<path class="st0" d="M114.8,82.6c-0.2,0-0.3-0.1-0.3-0.3l-1.2-7.6h-0.1l0.1,2.5v7.8c0,0.2-0.1,0.3-0.3,0.3h-0.6
			c-0.2,0-0.3-0.1-0.3-0.3V72.8c0-0.2,0.1-0.3,0.3-0.3h1.1c0.2,0,0.3,0.1,0.3,0.3l1,5.7l0.5,3h0.1l0.5-3l1-5.7
			c0-0.2,0.1-0.3,0.3-0.3h1.1c0.2,0,0.3,0.1,0.3,0.3v12.1c0,0.2-0.1,0.3-0.3,0.3h-0.6c-0.2,0-0.3-0.1-0.3-0.3v-7.8l0.1-2.5h-0.1
			l-1.2,7.6c0,0.2-0.1,0.3-0.3,0.3H114.8z"/>
		<path class="st0" d="M126.1,84.9c0,0.2-0.1,0.3-0.3,0.3h-0.6c-0.2,0-0.3-0.1-0.3-0.3V72.8c0-0.2,0.1-0.3,0.3-0.3h0.6
			c0.2,0,0.3,0.1,0.3,0.3V84.9z"/>
		<path class="st0" d="M136.4,72.8c0-0.2,0.1-0.3,0.3-0.3h0.6c0.2,0,0.3,0.1,0.3,0.3v12.1c0,0.2-0.1,0.3-0.3,0.3h-0.8
			c-0.2,0-0.2-0.1-0.3-0.3l-1.9-7.5l-0.5-2.4h-0.1l0.1,2.5v7.4c0,0.2-0.1,0.3-0.3,0.3h-0.6c-0.2,0-0.3-0.1-0.3-0.3V72.8
			c0-0.2,0.1-0.3,0.3-0.3h0.8c0.2,0,0.2,0.1,0.3,0.3l1.9,7.5l0.5,2.4h0.1l-0.1-2.5V72.8z"/>
		<path class="st0" d="M148.1,84.9l-0.4-2.6h-2.6l-0.4,2.6c0,0.1-0.1,0.3-0.3,0.3h-0.6c-0.2,0-0.2-0.1-0.2-0.3l1.9-12.1
			c0-0.2,0.1-0.3,0.3-0.3h1.2c0.2,0,0.3,0.1,0.3,0.3l1.9,12.1c0,0.2-0.1,0.3-0.2,0.3h-0.6C148.2,85.2,148.1,85.1,148.1,84.9z
			 M145.3,81.4h2.3l-0.7-4.8l-0.4-3h-0.1l-0.4,3L145.3,81.4z"/>
		<path class="st0" d="M157.2,73.5v11.4c0,0.2-0.1,0.3-0.3,0.3h-0.6c-0.2,0-0.3-0.1-0.3-0.3V73.5H154c-0.2,0-0.3-0.1-0.3-0.3v-0.5
			c0-0.2,0.1-0.3,0.3-0.3h5.3c0.2,0,0.3,0.1,0.3,0.3v0.5c0,0.2-0.1,0.3-0.3,0.3H157.2z"/>
		<path class="st0" d="M169.5,72.6c0.2,0,0.3,0.1,0.3,0.3v0.5c0,0.2-0.1,0.3-0.3,0.3h-3v4.9h2.3c0.2,0,0.3,0.1,0.3,0.3v0.5
			c0,0.2-0.1,0.3-0.3,0.3h-2.3v4.9h3c0.2,0,0.3,0.1,0.3,0.3v0.5c0,0.2-0.1,0.3-0.3,0.3h-3.8c-0.2,0-0.3-0.1-0.3-0.3V72.8
			c0-0.2,0.1-0.3,0.3-0.3H169.5z"/>
		<path class="st0" d="M177.9,77.6l1.7,2c0.6,0.7,1.1,1.4,1.1,3.3c0,1.6-0.4,2.5-2.4,2.5c-2,0-2.4-0.9-2.4-2.5V81
			c0-0.2,0.1-0.3,0.3-0.3h0.6c0.2,0,0.3,0.1,0.3,0.3v1.8c0,1,0.2,1.5,1.3,1.5c1.1,0,1.3-0.6,1.3-1.5c0-1.2-0.1-1.7-1-2.6l-1.7-2
			c-0.6-0.7-1.1-1.4-1.1-3.3c0-1.6,0.4-2.5,2.4-2.5c2,0,2.4,0.9,2.4,2.5v1.8c0,0.2-0.1,0.3-0.3,0.3h-0.6c-0.2,0-0.3-0.1-0.3-0.3V75
			c0-1-0.2-1.5-1.3-1.5c-1.1,0-1.3,0.6-1.3,1.5C177,76.2,177.1,76.6,177.9,77.6z"/>
	</g>
	<g>
		<path class="st0" d="M86.2,37.1c0.7,0,1,0.3,1,1v1.7c0,0.7-0.3,1-1,1H74.8v18.5h8.8c0.7,0,1,0.3,1,1V62c0,0.7-0.3,1-1,1h-8.8v18.5
			h11.4c0.7,0,1,0.3,1,1v1.7c0,0.7-0.3,1-1,1H71.7c-0.7,0-1-0.3-1-1V38.1c0-0.7,0.3-1,1-1H86.2z"/>
	</g>
</g>
</svg>
