<?xml version="1.0" encoding="utf-8"?>
<!-- Generator: Adobe Illustrator 24.0.0, SVG Export Plug-In . SVG Version: 6.00 Build 0)  -->
<svg version="1.1" id="Layer_1" xmlns="http://www.w3.org/2000/svg" xmlns:xlink="http://www.w3.org/1999/xlink" x="0px" y="0px"
	 viewBox="0 0 240 100" style="enable-background:new 0 0 240 100;" xml:space="preserve">
<style type="text/css">
	.st0{fill:#1C1C1A;}
	.st1{fill:#FFFFFF;}
</style>
<g>
	<path class="st0" d="M120,98.7c26.9,0,48.7-21.8,48.7-48.7S146.9,1.3,120,1.3S71.3,23.1,71.3,50S93.1,98.7,120,98.7z"/>
	<g>
		<path class="st1" d="M160.4,52.6c-2.2,4.1-5.7,5-10.8,5.1c-12.4,0.2-9.9-12.6-9.5-17.5c0.4-3-1.2-3.6-1.8-3.6
			c-1.9,0-4,1.4-5.4,2.9c-0.2-2.5-2.2-2.6-4-2.6h-1.3c1.4,1.7,0.4,9.6,0.1,12.1c0,1.6,1.4,2.7,2.5,2.7c0.4,0,0.8,0,1.2-0.1
			c0.2-0.1,0.3-0.1,0.3-0.1c-1.3-1.3,0-5.9,0.3-7.3c0.5-2.2,3.2-3.8,3.8-3.6c0.6,0.3-0.1,0.4,0.1,7.1c0.4,12.6,9.4,14.2,13.8,14.4
			c10,0.3,14.4-4.1,13.7-7.6C163.1,54.2,161,51.2,160.4,52.6L160.4,52.6z M126,39.8L126,39.8c0-2.5-1.8-2.8-3.6-2.8
			c-0.6,0-1.2,0.1-1.5,0.1c0.5,0.6,0.5,2,0.5,2.7c0,4-0.2,7.1-0.2,9.6c0,1.6,0.4,2.7,2.5,2.7c1.2,0,1.3,0,1.4-0.2
			c-0.2-0.2-0.5-0.1-0.5-1.6C124.5,48.7,124.8,45.8,126,39.8L126,39.8z M123.6,31L123.6,31c-1.7,0-3,1.3-3,2.8c0,1.5,1.4,2.8,3,2.8
			c1.7,0,3.1-1.3,3.1-2.8S125.3,31,123.6,31z M114.1,29.1L114.1,29.1c0.6,1.1,1.1,2.4,1.1,3.7c0,10.8-3.2,16.4-4.3,16.4
			c-1.7,0-1-12-3.8-12c-1.3,0-3.8,0.8-3.8,0.9c3.1,4.1,1.9,14,7.3,14s9.2-17,9.2-20.8c-0.2-2.4-1.6-2.8-2.8-2.8
			c-0.6,0-1.3,0.1-1.9,0.3L114.1,29.1L114.1,29.1z M103.8,44.8L103.8,44.8c0-0.2-0.1-0.3-0.1-0.3c-0.2,0-0.4,0.1-0.4,0.3v0.1
			c0,1.2-1.9,4.1-5.3,4.1c-0.3,0-2.2,0.1-2.7-1.5c5.7,0,7.2-4.1,7.2-5.8c0-3.7-2-5-5.5-5c-4.1,0-6.9,3.6-6.9,8.2
			c0,3.9,2.2,6.2,5.9,6.2C100.2,51.2,103.5,49.9,103.8,44.8L103.8,44.8z M94.5,45L94.5,45c0-0.2-0.1-0.4-0.1-0.9
			c0-3.3,1-4.7,2.4-4.7c1,0,1.5,1,1.5,2.2C98.2,43.9,96.1,44.6,94.5,45L94.5,45z M78.5,51.6L78.5,51.6c-0.6,2.2-0.8,3.8-0.4,4.8
			c0.3,1.1,1.3,1.9,2.7,2.7c1.2,0.5,2.6,0.8,4,0.6c1.3-0.2,4-0.9,8-2.2c1.9-0.5,3.1-1.1,3.7-1.5c0.5-0.4,0.6-1.1,0.4-1.8
			c-0.2-0.6-0.8-1.1-1.4-1.2c-0.6-0.1-1.7-0.1-3.2,0.3l-5.1,1.1c-2.9,0.6-4.5,0.9-5,0.4c-0.2-0.2,0.2-2.3,1.4-6.1
			c0,0,2.7-9.9,6.2-16.2c0.4-0.6,0.6-1.5,0.5-2.3c0-0.9-0.3-1.6-0.9-2.2c-0.5-0.5-1.1-0.9-1.6-0.9c-0.5,0-0.8,0.2-1,0.6l-0.5,1.5
			c-0.3,0.9-0.6,1.6-1,2.3c-0.4,1.1-0.8,2-1.2,3C84.2,35,80.7,42.9,78.5,51.6L78.5,51.6z"/>
		<path class="st1" d="M149.5,68.3c0,0.4,0.2,0.8,0.4,1c0.3,0.2,0.9,0.3,1.3,0.3s0.9-0.1,1.2-0.3c0.3-0.2,0.4-0.5,0.4-1
			c0-0.3-0.1-0.6-0.3-0.9c-0.2-0.1-0.4-0.2-0.6-0.3l-0.6-0.2c-0.2,0-0.3-0.1-0.5-0.2c-0.1-0.1-0.2-0.2-0.2-0.3
			c0-0.1,0.1-0.3,0.2-0.3c0.1-0.1,0.3-0.1,0.5-0.1s0.3,0,0.5,0.1c0.2,0.1,0.3,0.3,0.3,0.5h0.9c0-0.4-0.1-0.8-0.4-1
			c-0.3-0.2-0.8-0.3-1.1-0.3c-0.4,0-0.9,0.1-1.2,0.3c-0.3,0.2-0.4,0.5-0.4,1c0,0.3,0.1,0.6,0.4,0.9c0.3,0.2,0.6,0.2,1,0.3l0.4,0.1
			c0.2,0,0.4,0.1,0.5,0.2c0.1,0.1,0.2,0.2,0.2,0.3c0,0.2-0.1,0.4-0.3,0.4c-0.2,0.1-0.3,0.1-0.5,0.1c-0.3,0-0.5-0.1-0.8-0.2
			c-0.1-0.1-0.1-0.2-0.2-0.4H149.5z M149,65.4h-3v4.1h3.1v-0.8h-2.3v-1.1h1.9V67h-1.9v-0.9h2.2L149,65.4L149,65.4z M142.1,65.4
			L142.1,65.4v0.8h1.2v3.3h0.9v-3.3h1.2v-0.8H142.1z M138.4,69.6h0.9l0.3-0.9h1.5l0.3,0.9h1l-1.4-4.1h-1L138.4,69.6z M140.4,66.4
			L140.4,66.4l0.5,1.6h-1.1L140.4,66.4z M134.5,69.6h0.9v-2.9l1.7,2.9h0.9v-4.1h-0.9v2.8l-1.6-2.8h-1L134.5,69.6L134.5,69.6z
			 M133.8,65.4h-0.9v4.1h0.9V65.4L133.8,65.4z M130.2,68.6L130.2,68.6l-0.8-3.2h-1.3v4.1h0.9v-3.4l0.8,3.4h0.9l0.8-3.4v3.4h0.9v-4.1
			h-1.2L130.2,68.6z M123.9,69.6h0.9l0.3-0.9h1.5l0.3,0.9h1l-1.4-4.1h-1L123.9,69.6L123.9,69.6z M125.8,66.4L125.8,66.4l0.5,1.6
			h-1.1L125.8,66.4z M120.6,69.6h2.9v-0.8h-2v-3.3h-0.9L120.6,69.6L120.6,69.6z M118.3,65.4h-3v4.1h3.1v-0.8h-2.3v-1.1h1.9V67h-1.9
			v-0.9h2.2V65.4L118.3,65.4z M113,68.5L113,68.5l-0.9-3.1h-1l1.4,4.1h0.9l1.4-4.1H114L113,68.5L113,68.5z M110.7,65.4h-0.9v4.1h0.9
			V65.4L110.7,65.4z M106.1,65.4L106.1,65.4v0.8h1.2v3.3h0.9v-3.3h1.2v-0.8H106.1z M102.4,69.6h0.9l0.3-0.9h1.5l0.3,0.9h1l-1.4-4.1
			h-1L102.4,69.6z M104.4,66.4L104.4,66.4l0.5,1.6h-1.1L104.4,66.4z M100.6,65.4h-1.9v4.1h0.9v-1.6h0.9c0.2,0,0.3,0,0.4,0.1
			c0.1,0.1,0.1,0.3,0.1,0.5V69c0,0.1,0,0.2,0.1,0.3c0,0.1,0.1,0.1,0.1,0.2h1v-0.1c-0.1-0.1-0.1-0.1-0.2-0.2v-0.6
			c0-0.2,0-0.4-0.1-0.6c-0.1-0.1-0.2-0.2-0.4-0.3c0.2,0,0.4-0.2,0.4-0.4c0.1-0.2,0.2-0.3,0.2-0.5c0-0.1,0-0.3-0.1-0.4
			c-0.1-0.1-0.1-0.2-0.2-0.3s-0.2-0.2-0.4-0.3C101,65.5,100.9,65.4,100.6,65.4L100.6,65.4z M100.5,66.2L100.5,66.2
			c0.1,0,0.3,0,0.4,0.1c0.2,0.1,0.2,0.2,0.2,0.5c0,0.2-0.1,0.4-0.2,0.4s-0.2,0.1-0.4,0.1h-1v-1.1L100.5,66.2z M97.9,67.5L97.9,67.5
			c0-0.8-0.2-1.3-0.6-1.7c-0.8-0.6-1.8-0.6-2.7,0c-0.9,1-0.9,2.4,0,3.3c0.3,0.3,0.8,0.4,1.3,0.4c0.5,0,1-0.1,1.3-0.4
			C97.8,68.9,97.9,68.2,97.9,67.5L97.9,67.5z M96,69L96,69c-0.3,0-0.6-0.1-0.9-0.3c-0.2-0.2-0.3-0.5-0.3-1.1c0-0.3,0.1-0.8,0.3-1.1
			c0.2-0.2,0.5-0.3,0.9-0.3s0.6,0.1,0.9,0.4s0.3,0.6,0.3,1.1c0,0.3-0.1,0.8-0.3,1.1C96.6,68.9,96.3,69,96,69z M89.9,67.6L89.9,67.6
			c0,0.5,0.2,1.2,0.5,1.6c0.3,0.4,0.9,0.6,1.4,0.5c0.4,0,0.9-0.1,1.2-0.4c0.3-0.3,0.5-0.6,0.5-1.1h-0.9c0,0.2-0.1,0.3-0.2,0.4
			c-0.2,0.2-0.4,0.3-0.6,0.3c-0.3,0-0.5-0.1-0.6-0.3c-0.4-0.6-0.4-1.4,0-2c0.1-0.2,0.4-0.3,0.6-0.3c0.2,0,0.5,0.1,0.6,0.3
			c0.1,0.1,0.2,0.3,0.2,0.4h0.9c0-0.3-0.1-0.5-0.3-0.8c-0.3-0.4-0.9-0.6-1.5-0.6c-0.4,0-1,0.2-1.3,0.5
			C90.1,66.3,89.9,66.8,89.9,67.6L89.9,67.6z M89.3,65.4h-3v4.1h3.1v-0.8h-2.3v-1.1h1.9V67h-1.9v-0.9h2.2V65.4L89.3,65.4z
			 M83.9,65.4h-1.8v4.1h1.8c0.5,0,1.1-0.2,1.4-0.8c0.2-0.4,0.3-0.9,0.3-1.4c0-0.2,0-0.4-0.1-0.6c-0.1-0.2-0.1-0.4-0.3-0.6
			c-0.2-0.2-0.4-0.4-0.6-0.5C84.4,65.5,84.2,65.4,83.9,65.4L83.9,65.4z M83.8,66.2L83.8,66.2c0.3,0,0.6,0.1,0.9,0.3
			c0.1,0.3,0.2,0.6,0.2,1s0,0.5-0.1,0.9c-0.1,0.3-0.4,0.6-0.9,0.5H83v-2.7H83.8L83.8,66.2z"/>
		<g>
			<path class="st1" d="M142.7,37.4v-2.7h1.2c0.2,0,0.4,0,0.5,0.1c0.1,0,0.2,0.1,0.3,0.2c0.1,0.1,0.1,0.2,0.1,0.4s-0.1,0.3-0.2,0.4
				c-0.1,0.1-0.3,0.2-0.5,0.2c0.1,0.1,0.2,0.1,0.2,0.1c0.1,0.1,0.2,0.2,0.3,0.3l0.4,0.8h-0.4l-0.3-0.5c-0.1-0.1-0.1-0.2-0.2-0.3
				c-0.1-0.1-0.1-0.2-0.2-0.2c-0.1,0-0.1-0.1-0.2-0.1h-0.5v1.2L142.7,37.4L142.7,37.4z M143.1,35.9h0.8c0.1,0,0.3,0,0.4-0.1
				c0.1,0,0.2-0.1,0.2-0.2s0.1-0.1,0.1-0.2s0-0.2-0.1-0.3c-0.1-0.1-0.3-0.1-0.4-0.1h-0.9v1H143.1z"/>
			<path class="st1" d="M143.7,38.5c-1.3,0-2.4-1.1-2.4-2.4c0-1.3,1.1-2.4,2.4-2.4c1.3,0,2.4,1.1,2.4,2.4
				C146.1,37.4,145.1,38.5,143.7,38.5L143.7,38.5z M143.7,34.1c-1.2,0-2,1-2,2c0,1.2,1,2,2,2c1.2,0,2-1,2-2l0,0
				C145.9,35,144.9,34.1,143.7,34.1L143.7,34.1z"/>
		</g>
	</g>
</g>
</svg>
