<?xml version="1.0" encoding="utf-8"?>
<!-- Generator: Adobe Illustrator 24.0.0, SVG Export Plug-In . SVG Version: 6.00 Build 0)  -->
<svg version="1.1" id="Layer_1" xmlns="http://www.w3.org/2000/svg" xmlns:xlink="http://www.w3.org/1999/xlink" x="0px" y="0px"
	 viewBox="0 0 240 100" style="enable-background:new 0 0 240 100;" xml:space="preserve">
<style type="text/css">
	.st0{clip-path:url(#SVGID_2_);}
	.st1{fill:#1C1C1A;}
	.st2{font-family:'ArialMT';}
	.st3{font-size:9.7125px;}
	.st4{letter-spacing:1;}
	.st5{clip-path:url(#SVGID_4_);fill:none;stroke:#1C1C1A;stroke-width:0.439;}
	.st6{clip-path:url(#SVGID_6_);}
	.st7{font-family:'Aila';}
	.st8{font-size:44.337px;}
	.st9{clip-path:url(#SVGID_8_);fill:#1C1C1A;}
	.st10{font-size:35.9974px;}
	.st11{clip-path:url(#SVGID_10_);fill:#1C1C1A;}
	.st12{clip-path:url(#SVGID_12_);fill:#B1B1B2;}
	.st13{clip-path:url(#SVGID_14_);fill:#B1B1B2;}
	.st14{clip-path:url(#SVGID_16_);fill:#B1B1B2;}
	.st15{clip-path:url(#SVGID_18_);fill:#B1B1B2;}
	.st16{clip-path:url(#SVGID_20_);fill:#B1B1B2;}
	.st17{clip-path:url(#SVGID_22_);fill:#B1B1B2;}
	.st18{clip-path:url(#SVGID_24_);fill:#B1B1B2;}
	.st19{clip-path:url(#SVGID_26_);fill:#B1B1B2;}
	.st20{clip-path:url(#SVGID_28_);fill:#B1B1B2;}
	.st21{clip-path:url(#SVGID_30_);fill:#B1B1B2;}
	.st22{fill:none;stroke:#1C1C1A;stroke-width:0.439;}
</style>
<g>
	<g>
		<g>
			<defs>
				<rect id="SVGID_1_" x="52.7" y="3.3" width="134.7" height="93.6"/>
			</defs>
			<clipPath id="SVGID_2_">
				<use xlink:href="#SVGID_1_"  style="overflow:visible;"/>
			</clipPath>
			<g class="st0">
				<text transform="matrix(1 0 0 1 58.5718 93.8262)" class="st1 st2 st3">Y</text>
				<text transform="matrix(1 0 0 1 64.8457 93.8262)" class="st1 st2 st3 st4">ou</text>
				<text transform="matrix(1 0 0 1 78.9946 93.8262)" class="st1 st2 st3 st4">r</text>
				<text transform="matrix(1 0 0 1 83.9336 93.8262)" class="st1 st2 st3 st4"> </text>
				<text transform="matrix(1 0 0 1 87.8042 93.8262)" class="st1 st2 st3 st4">san</text>
				<text transform="matrix(1 0 0 1 106.8921 93.8262)" class="st1 st2 st3 st4">c</text>
				<text transform="matrix(1 0 0 1 113.0322 93.8262)" class="st1 st2 st3 st4">tu</text>
				<text transform="matrix(1 0 0 1 125.1787 93.8262)" class="st1 st2 st3 st4">a</text>
				<text transform="matrix(1 0 0 1 131.5859 93.8262)" class="st1 st2 st3 st4">r</text>
				<text transform="matrix(1 0 0 1 136.792 93.8262)" class="st1 st2 st3 st4">y </text>
				<text transform="matrix(1 0 0 1 146.8027 93.8262)" class="st1 st2 st3 st4">a</text>
				<text transform="matrix(1 0 0 1 153.21 93.8262)" class="st1 st2 st3 st4">w</text>
				<text transform="matrix(1 0 0 1 162.0195 93.8262)" class="st1 st2 st3 st4">ai</text>
				<text transform="matrix(1 0 0 1 172.5645 93.8262)" class="st1 st2 st3 st4">t</text>
				<text transform="matrix(1 0 0 1 177.5039 93.8262)" class="st1 st2 st3">s</text>
			</g>
		</g>
		<g>
			<defs>
				<rect id="SVGID_3_" x="52.7" y="3.3" width="134.7" height="93.6"/>
			</defs>
			<clipPath id="SVGID_4_">
				<use xlink:href="#SVGID_3_"  style="overflow:visible;"/>
			</clipPath>
			<polyline class="st5" points="179,66.4 187.1,66.4 187.1,3.4 126.3,3.4 126.3,26 			"/>
		</g>
		<g>
			<defs>
				<rect id="SVGID_5_" x="52.7" y="3.3" width="134.7" height="93.6"/>
			</defs>
			<clipPath id="SVGID_6_">
				<use xlink:href="#SVGID_5_"  style="overflow:visible;"/>
			</clipPath>
			<g class="st6">
				<text transform="matrix(1 0 0 1 52.6616 51.7959)" class="st1 st7 st8">Mai</text>
				<text transform="matrix(1 0 0 1 100.4482 51.7959)" class="st1 st7 st8">t</text>
				<text transform="matrix(1 0 0 1 111.3936 51.7959)" class="st1 st7 st8">ri</text>
			</g>
		</g>
		<g>
			<defs>
				<rect id="SVGID_7_" x="52.7" y="3.3" width="134.7" height="93.6"/>
			</defs>
			<clipPath id="SVGID_8_">
				<use xlink:href="#SVGID_7_"  style="overflow:visible;"/>
			</clipPath>
			<path class="st9" d="M56.7,66.7l-0.5-0.4c-0.3-0.1-0.4-0.3-0.7-0.5c-0.1-0.1-0.4-0.4-0.5-0.7l-0.3-0.4l-0.4,0.5
				c-0.1,0.3-0.4,0.4-0.5,0.7c-0.1,0.1-0.4,0.4-0.7,0.5l-0.5,0.4l0.5,0.4c0.3,0.1,0.4,0.4,0.7,0.5c0.1,0.1,0.4,0.4,0.5,0.5l0.4,0.5
				l0.4-0.5c0.1-0.3,0.4-0.4,0.5-0.5c0.1-0.1,0.4-0.4,0.7-0.5L56.7,66.7z"/>
		</g>
	</g>
	<text transform="matrix(1 0 0 1 132.5391 76.5566)" class="st1 st7 st10">nest</text>
	<g>
		<g>
			<defs>
				<rect id="SVGID_9_" x="52.7" y="3.3" width="134.7" height="93.6"/>
			</defs>
			<clipPath id="SVGID_10_">
				<use xlink:href="#SVGID_9_"  style="overflow:visible;"/>
			</clipPath>
			<path class="st11" d="M155.1,26.6l-1.2,0.5c-1.1,0.4-2,1.1-2.8,1.6l-19.9-14.8c2.7,4.8,2.9,4.9,6.5,8.3l-2.4-1.5
				c1.3,2.4,2.4,3.3,3.1,4l9.7,5.6c-1.5,0.8-3.1,1.5-4.8,1.7c5.1,0.3,6.8,2.8,14.3,2.4c-0.5,0.3-2.1,0.4-4.7,0.3
				c2.5,0.5,5.1,0.9,7.6,0.9c3.3,0,6.7-0.5,9.9-1.5c0.5-0.8,1.1-1.7,1.6-2.7c0-0.3,0.1-0.4,0.3-0.5c-0.5,0.1-1.2,0.3-2,0.5
				c1.2-0.7,2.1-1.1,2.9-1.2c0.3,0,0.4-0.1,0.7-0.1c0.3,0,0.5,0,0.8,0c-0.3-0.5-0.8-0.9-1.6-1.2c-0.1-1.6-1.1-2.8-2.7-3.7
				c-2-0.8-4.3-0.7-6.8,0.3l-0.5,0.3C159.9,25.3,157.4,25.8,155.1,26.6 M168.7,29.3c-0.4,0-0.7-0.3-0.7-0.7c0-0.4,0.3-0.7,0.7-0.7
				c0.4,0,0.7,0.3,0.7,0.7C169.4,29,169.1,29.3,168.7,29.3"/>
		</g>
		<g>
			<defs>
				<rect id="SVGID_11_" x="52.7" y="3.3" width="134.7" height="93.6"/>
			</defs>
			<clipPath id="SVGID_12_">
				<use xlink:href="#SVGID_11_"  style="overflow:visible;"/>
			</clipPath>
			<path class="st12" d="M175.2,45l-0.1,0.1c-4.5,4.4-10.5,6.7-16.4,6.7c-6,0-11.9-2.3-16.6-6.7l0.9-1.5c8,3.6,13.7,0.7,19.1-2
				c4-2,7.9-3.9,12.4-3.3l-0.3,1.7c-4-0.5-7.6,1.2-11.3,3.2c-4.7,2.3-9.5,4.8-15.8,3.6c3.5,2,7.5,3.1,11.5,3.1
				c5.5,0,10.9-2,15.2-6.1l0,0l0,0L175.2,45z"/>
		</g>
		<g>
			<defs>
				<rect id="SVGID_13_" x="52.7" y="3.3" width="134.7" height="93.6"/>
			</defs>
			<clipPath id="SVGID_14_">
				<use xlink:href="#SVGID_13_"  style="overflow:visible;"/>
			</clipPath>
			<path class="st13" d="M163.6,47.7c-5.3,0.8-10.4-0.5-14.5-3.3c-4.1-2.8-7.3-7.1-8.5-12.3l1.7-0.5c1.3,3.3,3.6,6.1,6.5,8
				c2.8,1.9,6.3,3.1,9.9,3.1s7.1-1.1,9.9-3.1c2.8-1.9,5.2-4.7,6.5-8l1.6,0.7c-1.5,3.7-4,6.7-7.2,8.8c-3.2,2.1-6.9,3.3-10.9,3.3
				c-3.9,0-7.5-1.2-10.7-3.2c0.7,0.5,1.3,1.2,2.1,1.6c3.7,2.5,8.5,3.7,13.3,3.1L163.6,47.7z"/>
		</g>
		<g>
			<defs>
				<rect id="SVGID_15_" x="52.7" y="3.3" width="134.7" height="93.6"/>
			</defs>
			<clipPath id="SVGID_16_">
				<use xlink:href="#SVGID_15_"  style="overflow:visible;"/>
			</clipPath>
			<path class="st14" d="M138.8,39.4c2.5,1.3,6,0.8,10.3,0.1c6.5-1.1,14.8-2.4,25.1,2l-0.7,1.6c-9.7-4.3-17.8-2.9-24-1.9
				c-4.5,0.7-8.4,1.3-11.5-0.3L138.8,39.4z"/>
		</g>
		<g>
			<defs>
				<rect id="SVGID_17_" x="52.7" y="3.3" width="134.7" height="93.6"/>
			</defs>
			<clipPath id="SVGID_18_">
				<use xlink:href="#SVGID_17_"  style="overflow:visible;"/>
			</clipPath>
			<path class="st15" d="M174.6,35.8c-4.5,1.9-9.3,2.9-14,2.9c-4.8,0-9.6-0.9-14-2.9l0.7-1.6c4.3,1.9,8.8,2.8,13.3,2.8
				c4.5,0,9.1-0.9,13.3-2.8L174.6,35.8z"/>
		</g>
		<g>
			<defs>
				<rect id="SVGID_19_" x="52.7" y="3.3" width="134.7" height="93.6"/>
			</defs>
			<clipPath id="SVGID_20_">
				<use xlink:href="#SVGID_19_"  style="overflow:visible;"/>
			</clipPath>
			<path class="st16" d="M164.3,44.1c0.9-0.3,2,0,2.8,0.7c0.8,0.7,1.2,1.6,1.2,2.7c-1.1-0.4-2,0.1-2.9-0.4c-0.8-0.4-1.3-1.3-1.3-2.3
				c0.9,0,2.1,0.7,2.8,1.3C166.2,45,165.1,44.4,164.3,44.1"/>
		</g>
		<g>
			<defs>
				<rect id="SVGID_21_" x="52.7" y="3.3" width="134.7" height="93.6"/>
			</defs>
			<clipPath id="SVGID_22_">
				<use xlink:href="#SVGID_21_"  style="overflow:visible;"/>
			</clipPath>
			<path class="st17" d="M142,39.6c-0.9,0.3-2,0-2.8-0.7c-0.8-0.7-1.2-1.6-1.2-2.7c1.1,0.4,2-0.1,2.9,0.4c0.8,0.4,1.3,1.3,1.3,2.3
				c-0.9,0-2.1-0.7-2.8-1.3C140.3,38.6,141.3,39.3,142,39.6"/>
		</g>
		<g>
			<defs>
				<rect id="SVGID_23_" x="52.7" y="3.3" width="134.7" height="93.6"/>
			</defs>
			<clipPath id="SVGID_24_">
				<use xlink:href="#SVGID_23_"  style="overflow:visible;"/>
			</clipPath>
			<path class="st18" d="M141.9,42.9c-0.3,0.9-0.9,1.7-2,2.1c-0.9,0.4-2,0.3-2.9-0.3c0.8-0.7,0.9-1.9,1.7-2.3c0.8-0.5,1.9-0.4,2.7,0
				c-0.4,0.8-1.7,1.6-2.5,1.7C140.1,44,141.2,43.4,141.9,42.9"/>
		</g>
		<g>
			<defs>
				<rect id="SVGID_25_" x="52.7" y="3.3" width="134.7" height="93.6"/>
			</defs>
			<clipPath id="SVGID_26_">
				<use xlink:href="#SVGID_25_"  style="overflow:visible;"/>
			</clipPath>
			<path class="st19" d="M175.1,37.8c0.9,0.3,2,0,2.8-0.7c0.8-0.7,1.2-1.6,1.2-2.7c-1.1,0.4-2-0.1-2.9,0.4c-0.8,0.4-1.3,1.3-1.3,2.3
				c0.9,0,2.1-0.7,2.8-1.3C176.8,37,175.8,37.6,175.1,37.8"/>
		</g>
		<g>
			<defs>
				<rect id="SVGID_27_" x="52.7" y="3.3" width="134.7" height="93.6"/>
			</defs>
			<clipPath id="SVGID_28_">
				<use xlink:href="#SVGID_27_"  style="overflow:visible;"/>
			</clipPath>
			<path class="st20" d="M174.2,42c0.7,0.7,1.7,1.1,2.8,0.9s1.9-0.8,2.4-1.7c-1.1-0.3-1.7-1.1-2.7-1.1c-0.9,0-1.7,0.5-2.3,1.3
				c0.8,0.5,2.3,0.5,3.1,0.3C176.2,42,175,42.1,174.2,42"/>
		</g>
		<g>
			<defs>
				<rect id="SVGID_29_" x="52.7" y="3.3" width="134.7" height="93.6"/>
			</defs>
			<clipPath id="SVGID_30_">
				<use xlink:href="#SVGID_29_"  style="overflow:visible;"/>
			</clipPath>
			<path class="st21" d="M140.3,34.2c-0.9,0.3-2,0-2.7-0.5c-0.8-0.7-1.2-1.6-1.2-2.5c0.9,0.4,2-0.1,2.8,0.4c0.8,0.4,1.2,1.3,1.3,2.3
				c-0.8,0-2.1-0.7-2.7-1.3C138.5,33.3,139.5,34,140.3,34.2"/>
		</g>
	</g>
	<line class="st22" x1="129.1" y1="66.7" x2="55.1" y2="66.7"/>
</g>
</svg>
