<?xml version="1.0" encoding="utf-8"?>
<!-- Generator: Adobe Illustrator 24.0.0, SVG Export Plug-In . SVG Version: 6.00 Build 0)  -->
<svg version="1.1" id="Layer_1" xmlns="http://www.w3.org/2000/svg" xmlns:xlink="http://www.w3.org/1999/xlink" x="0px" y="0px"
	 viewBox="0 0 240 100" style="enable-background:new 0 0 240 100;" xml:space="preserve">
<style type="text/css">
	.st0{fill:#1C1C1A;}
	.st1{fill:#FFFFFF;}
	.st2{fill:#FFFEF6;}
</style>
<g>
	<circle class="st0" cx="117.1" cy="50" r="39.1"/>
	<circle class="st1" cx="117.1" cy="50" r="36.2"/>
	<circle class="st0" cx="117.1" cy="50" r="34.2"/>
	<g>
		
			<image style="overflow:visible;opacity:0.5;" width="62" height="63" xlink:href="7D6C03C0.png"  transform="matrix(1 0 0 1 148.4 43.4)">
		</image>
		<g>
			<path class="st1" d="M171.2,71.3l-1,4.8c0,0,2.6-0.4,2.8-0.5c2.5-0.9,4.4-3.1,6.7-4.3c0.5-0.3,5.6-2.5,5.9-1.5l-1.4-5.1
				c0.5-1,1.1-2,1.6-3c0.5-1,1.4-2,1.5-3.1c-2.4,0.1-5,1.8-6.9,3c-0.9,0.6-1.9,1.2-2.8,1.8c-0.8,0.6-2.2,1.3-2.8,2.2L171.2,71.3z"/>
		</g>
	</g>
	<g>
		
			<image style="overflow:visible;opacity:0.5;" width="101" height="70" xlink:href="7D6C03C1.png"  transform="matrix(1 0 0 1 97.4 35.4)">
		</image>
		<g>
			<path class="st1" d="M119.1,50.3c2.2,0.9,11,7.5,13.2,8.2c3.8,1.2,7.7,1.8,11.6,1.9c3.6,0.1,7.2-0.2,10.8-0.3
				c3.9-0.2,7.9,0,11.8,0.5c2.8,0.4,5.7,1.2,8,3c0.4,0.3,0.8,0.6,1.1,1l-2,10.3c0-0.2-1.2-0.9-1.3-0.9c-1.8-1-3.7-1.6-5.7-2.2
				c-3.7-1.1-7.6-1.8-11.5-2.2c-3.9-0.3-7.8,0-11.8-0.3c-3.3-0.2-6.6-0.5-9.9-1.4c-2.1-0.6-4.5-1.2-6.1-2.9
				C125.8,63.1,118.9,50.7,119.1,50.3z"/>
		</g>
	</g>
	<path class="st0" d="M171.9,61.2c-1.3,0-2.5-0.2-3.7-0.7c-0.9,0.3-1.9,0.5-2.9,0.5h-5.7c-0.7,0-1.4-0.1-2.1-0.3
		c-0.9,0.3-1.8,0.4-2.7,0.4c-1.3,0-2.5-0.2-3.7-0.7c-1.2,0.5-2.4,0.7-3.7,0.7c-1.4,0-2.9-0.3-4.2-0.9c-0.1,0.1-0.2,0.1-0.4,0.2
		c-1.4,0.6-2.9,0.9-4.4,0.9c-1.4,0-2.8-0.3-4-0.8c-1.3,0.6-2.8,0.8-4.2,0.8c-1.3,0-2.5-0.2-3.7-0.7c-0.9,0.3-1.9,0.5-2.9,0.5h-5.6
		c-0.7,0-1.3-0.1-2-0.3c-1,0.3-2.1,0.5-3.2,0.5c-1.2,0-2.4-0.2-3.6-0.6c-0.9,0.3-1.8,0.4-2.8,0.4h-5.6c-0.5,0-1,0-1.5-0.1
		c-0.6,0.1-1.1,0.1-1.7,0.1h-5.7c-0.5,0-0.9,0-1.4-0.1c-0.5,0.1-1.1,0.1-1.6,0.1h-5.6c-0.6,0-1.2-0.1-1.8-0.2
		c-0.6,0.1-1.3,0.2-1.9,0.2h-5.8c-1.1,0-2.1-0.2-3.1-0.7c-1,0.5-2.1,0.8-3.2,0.8c-1.1,0-2.2-0.3-3.2-0.8c-0.2,0.1-0.5,0.2-0.7,0.3
		c-0.9,0.3-1.9,0.5-2.9,0.5h-2.1c-1.2,0-2.4-0.3-3.4-0.9c-1.7-1-2.7-2.8-2.7-4.8c0-1.8,0.8-3.5,2.2-4.6l2.4-8.3
		c-0.2-0.7-0.3-1.4-0.3-2.1c0-1.9,0.9-3.7,2.4-4.8c1.1-0.7,2.4-1.1,3.7-1.1h3.8c1.6,0,3.2,0.5,4.4,1.6c0.8,0.7,1.4,1.6,1.7,2.6
		l0.8-1c0.9-1.1,2-2,3.2-2.5c1.1-0.5,2.4-0.7,3.6-0.7h3.7c0.5,0,1.1,0.1,1.6,0.2c0.4-0.4,0.8-0.7,1.2-1c1.2-0.8,2.7-1.2,4.1-1.2
		c1.3,0,2.6,0.3,3.8,1c0.1,0,0.3-0.1,0.4-0.1c1.4-0.4,2.9-0.6,4.4-0.6c1.3,0,2.7,0.3,3.9,0.8c0.2-0.1,0.4-0.1,0.5-0.2
		c1.4-0.4,2.9-0.6,4.4-0.6c2.1,0,3.9,0.5,5.2,1.6c1.2,0.9,2,2.2,2.3,3.6c1.1,0.1,2.1,0.4,3.1,0.8c0.2-0.1,0.4-0.1,0.6-0.2
		c1.4-0.4,2.9-0.7,4.4-0.7c1.2,0,2.3,0.2,3.4,0.7c1.2-0.5,2.5-0.7,3.8-0.7c1.4,0,2.7,0.3,3.9,0.9c1.4-0.6,2.8-0.9,4.3-0.9
		c1.9,0,3.8,0.6,5.3,1.8c0.2-0.1,0.3-0.2,0.5-0.3c1.7-1,3.9-1.5,6.8-1.5c2.7,0,5.1,0.6,6.9,1.7c0.7-0.4,1.5-0.8,2.2-1
		c1.4-0.4,2.9-0.7,4.4-0.7c1.2,0,2.3,0.2,3.4,0.7c1.2-0.5,2.5-0.7,3.8-0.7c2.2,0,4.4,0.8,6,2.4c1.6,1.6,2.5,3.7,2.4,5.9
		c0,1-0.2,2.1-0.5,3l-0.5,1.5v0c0.3,0.8,0.5,1.6,0.5,2.4c0,1.6-0.5,3.2-1.4,4.4c-0.9,1.2-2.1,2.1-3.4,2.7
		C174.9,60.9,173.4,61.2,171.9,61.2z"/>
	<path class="st1" d="M179.3,50.8l0.6-2.1c0.3-0.9,0.4-1.8,0.4-2.7c0-1.9-0.7-3.7-2-5.1c-1.4-1.3-3.2-2-5.1-2
		c-1.3,0-2.7,0.3-3.9,0.8c-1-0.6-2.2-0.8-3.3-0.8c-1.4,0-2.7,0.2-4.1,0.6c-0.9,0.3-1.8,0.7-2.6,1.3c-0.1-0.1-0.3-0.2-0.5-0.3
		c-1.7-1.1-3.9-1.6-6.5-1.6c-2.6,0-4.6,0.4-6.1,1.3c-0.4,0.2-0.8,0.5-1.2,0.9c-0.1-0.1-0.1-0.1-0.2-0.2c-1.4-1.3-3.2-2-5.1-2
		c-1.5,0-3,0.4-4.4,1.1c-1.2-0.7-2.5-1.1-3.9-1.1c-1.3,0-2.7,0.3-3.9,0.8c-1-0.6-2.2-0.8-3.3-0.8c-1.4,0-2.7,0.2-4,0.6
		c-0.4,0.1-0.7,0.2-1.1,0.4c-1.1-0.7-2.4-1-3.8-1h-0.3c-0.1-1.5-0.9-2.9-2.1-3.9c-1.1-0.9-2.6-1.4-4.4-1.4c-1.4,0-2.7,0.2-4,0.6
		c-0.3,0.1-0.7,0.2-1,0.4c-1.2-0.6-2.5-1-3.8-0.9c-1.4,0-2.7,0.2-4,0.6c-0.3,0.1-0.6,0.2-0.9,0.3c-1-0.8-2.3-1.2-3.6-1.2
		c-1.2,0-2.4,0.4-3.4,1c-0.6,0.4-1.1,0.9-1.5,1.4c-0.6-0.2-1.3-0.4-2-0.3h-3.7c-1.1,0-2.1,0.2-3.1,0.6c-1.1,0.5-2,1.2-2.7,2.2
		l-2.2,2.8l-0.4-1.4c-0.3-1.1-0.9-2.1-1.7-2.9c-1-0.9-2.3-1.3-3.6-1.3H63c-1.1,0-2.1,0.3-3,0.9c-1.2,0.9-1.9,2.2-1.9,3.7
		c0,0.6,0.1,1.2,0.3,1.8l0.1,0.2l-2.6,9.1c-1.3,0.9-2,2.3-2,3.8c0,1.5,0.8,2.9,2.1,3.7c0.8,0.5,1.8,0.7,2.8,0.7h2.1
		c0.8,0,1.6-0.1,2.4-0.4c0.4-0.2,0.8-0.4,1.2-0.7c0.9,0.7,2,1.1,3.2,1.1c1.1,0,2.2-0.3,3.2-1c0.1,0.1,0.2,0.2,0.3,0.2
		c0.8,0.5,1.8,0.7,2.8,0.7h5.8c0.6,0,1.3-0.1,1.9-0.2c0.6,0.2,1.2,0.3,1.8,0.3h5.6c0.5,0,1.1,0,1.6-0.1c0.5,0.1,0.9,0.1,1.4,0.1h5.7
		c0.6,0,1.1-0.1,1.7-0.2c0.5,0.1,1,0.2,1.5,0.2h5.6c0.9,0,1.7-0.1,2.5-0.4l0.2-0.1c1.1,0.5,2.3,0.8,3.6,0.7c1.1,0,2.2-0.2,3.2-0.5
		c0.6,0.2,1.3,0.3,2,0.3h5.6c0.9,0,1.7-0.1,2.6-0.4c0.1,0,0.2-0.1,0.3-0.2c1.2,0.5,2.4,0.8,3.7,0.8c1.3,0,2.6-0.2,3.8-0.8
		c0.1-0.1,0.3-0.1,0.4-0.2c1.2,0.7,2.6,1,4,1c1.3,0,2.6-0.2,3.8-0.8c0.3-0.1,0.6-0.3,0.9-0.5l0.1,0.1c1.2,0.7,2.7,1,4.1,1
		c1.3,0,2.5-0.3,3.7-0.8c1.2,0.5,2.4,0.8,3.7,0.8c0.9,0,1.8-0.1,2.7-0.4c0.7,0.3,1.4,0.4,2.1,0.4h5.7c0.9,0,1.7-0.1,2.6-0.4
		c0.1,0,0.2-0.1,0.4-0.2c1.2,0.6,2.4,0.8,3.7,0.8c1.3,0,2.6-0.2,3.8-0.8c1.2-0.5,2.2-1.3,2.9-2.3c0.8-1.1,1.2-2.4,1.2-3.7
		c0-0.7-0.1-1.3-0.4-1.9C179.4,51.1,179.3,51,179.3,50.8z"/>
	<path class="st0" d="M67.5,58.4c-1.1,0-2.1-0.4-2.8-1.2c-0.1-0.1-0.2-0.3-0.4-0.5c-0.4,0.6-0.9,1.1-1.6,1.4c-0.6,0.2-1.3,0.3-2,0.3
		h-2.1c-0.7,0-1.5-0.2-2.1-0.5c-0.9-0.5-1.5-1.5-1.5-2.6c0-0.4,0.1-0.8,0.2-1.2c0.2-0.6,0.7-1.2,1.3-1.6c0.1-0.1,0.2-0.2,0.3-0.2
		l2.8-9.9l-0.2-0.6c-0.2-0.5-0.2-1-0.2-1.5c0-1.1,0.5-2.1,1.4-2.7c0.7-0.4,1.5-0.7,2.3-0.6h3.8c1,0,2,0.3,2.8,1
		c0.6,0.6,1.1,1.4,1.3,2.3l1.1,3.7l3.7-4.6c0.6-0.8,1.4-1.4,2.2-1.8c0.8-0.3,1.7-0.5,2.6-0.5h3.7c0.7,0,1.4,0.1,2,0.5
		c1,0.5,1.6,1.5,1.6,2.6c0,0.4-0.1,0.8-0.2,1.2c-0.2,0.6-0.5,1.1-1,1.4c-0.2,0.2-0.4,0.3-0.7,0.5l0,0l-2.9,10.3l0.1,0.2
		c0.2,0.5,0.4,1,0.4,1.5c0,0.3,0,0.6-0.1,0.9l0,0.1l0,0.1c-0.3,0.9-1,1.7-1.9,2c-0.6,0.2-1.3,0.4-2,0.3h-5.8c-0.7,0-1.5-0.2-2.1-0.5
		c-0.4-0.2-0.7-0.5-0.9-0.8c-0.2,0.2-0.4,0.4-0.6,0.5C69.3,58.2,68.4,58.4,67.5,58.4z"/>
	<path class="st0" d="M90.9,44.7c-1.3,0-2.5-0.5-3.3-1.4c-0.9-0.9-1.4-2-1.4-3.3V40c0-0.8,0.2-1.7,0.6-2.4c0.4-0.8,1-1.4,1.7-1.9
		c0.8-0.5,1.8-0.8,2.8-0.8c1.3,0,2.5,0.5,3.4,1.3c0.9,0.9,1.4,2.1,1.4,3.3c0,1.8-0.9,3.4-2.4,4.4C92.8,44.4,91.8,44.7,90.9,44.7z"/>
	<path class="st0" d="M83.3,58.4c-0.8,0-1.7-0.2-2.4-0.7c-1-0.7-1.5-2.1-1.1-3.3v-0.1l0-0.1c0.3-0.8,0.8-1.4,1.6-1.8l1.9-6.2
		c-0.1-0.1-0.1-0.2-0.2-0.3c-0.5-0.7-0.6-1.6-0.4-2.5c0.5-1.9,2.6-2.5,3.2-2.7c1.2-0.4,2.4-0.5,3.7-0.5c1.6,0,2.8,0.4,3.7,1.1
		c1,0.8,1.6,2.1,1.6,3.4c0,0.6-0.1,1.3-0.3,1.9l-2.1,6.7c0,0.1,0.1,0.1,0.1,0.2c0.5,0.7,0.6,1.6,0.3,2.4l0,0.1l0,0.1
		c-0.3,0.9-1,1.6-1.9,1.9c-0.7,0.2-1.4,0.4-2.1,0.3L83.3,58.4z"/>
	<path class="st0" d="M91.9,58.4c-0.8,0-1.7-0.2-2.4-0.7c-1-0.7-1.5-2.1-1.1-3.3l0-0.1c0.3-0.8,0.8-1.4,1.6-1.9l3.5-11.4
		c0-0.1-0.1-0.1-0.1-0.2c-0.5-0.7-0.7-1.7-0.4-2.6c0.5-1.9,2.6-2.5,3.3-2.7c1.2-0.4,2.4-0.5,3.7-0.5c1.6,0,2.8,0.4,3.7,1.1
		c1,0.8,1.6,2.1,1.6,3.4c0,0.6-0.1,1.2-0.3,1.8l-3.7,12c0.1,0.1,0.1,0.1,0.1,0.2c0.5,0.7,0.6,1.6,0.3,2.4l0,0.1l0,0.1
		c-0.3,0.9-1,1.6-1.9,1.9c-0.7,0.2-1.4,0.4-2.1,0.3L91.9,58.4z"/>
	<path class="st0" d="M112.7,58.7c-1.3,0-2.5-0.3-3.6-0.9c-0.2,0.1-0.4,0.3-0.7,0.4c-0.7,0.2-1.4,0.4-2.1,0.3h-5.6
		c-0.8,0-1.7-0.2-2.4-0.7c-1-0.7-1.5-2.1-1.1-3.3l0-0.1c0.3-0.8,0.8-1.4,1.6-1.9l3.5-11.4l-0.1-0.2c-0.5-0.7-0.7-1.7-0.4-2.6
		c0.5-1.9,2.6-2.5,3.3-2.7c1.2-0.4,2.4-0.5,3.7-0.5c1.6,0,2.8,0.4,3.7,1.1c1,0.8,1.6,2.1,1.6,3.4c0,0.3,0,0.6-0.1,0.9
		c0.5-0.1,1-0.2,1.6-0.2c1.5,0,2.9,0.5,4,1.4c1.1,0.9,1.7,2.3,1.7,3.7c0.1,1.9-1,3.7-2.8,4.5c0,0.2,0.1,0.5,0.1,0.7v0.1
		c0.3,0.3,0.5,0.6,0.7,0.9c0.2,0.4,0.3,0.9,0.3,1.4c0,1-0.3,2-0.9,2.8c-0.6,0.9-1.4,1.6-2.4,2C115,58.5,113.9,58.7,112.7,58.7z"/>
	<path class="st0" d="M138.5,58.7c-1.4,0-2.8-0.4-4-1.2c-0.3,0.2-0.6,0.4-0.9,0.5c-1,0.5-2.2,0.7-3.3,0.7c-1.3,0-2.6-0.3-3.7-1
		c-0.2,0.2-0.5,0.3-0.8,0.4c-0.7,0.2-1.4,0.4-2.1,0.3h-5.6c-0.9,0-1.7-0.2-2.4-0.7c-1-0.7-1.4-1.9-1.2-3.1l0-0.1l0-0.1
		c0.3-0.8,0.8-1.4,1.6-1.9l1.9-6.2c-0.1-0.1-0.1-0.2-0.2-0.3c-0.5-0.7-0.6-1.6-0.3-2.5c0.5-1.9,2.6-2.5,3.2-2.7
		c1.2-0.4,2.4-0.5,3.7-0.5c1.2,0,2.3,0.3,3.2,1c0.1-0.1,0.3-0.2,0.4-0.2c1.1-0.5,2.3-0.8,3.5-0.8c1.4,0,2.8,0.4,3.8,1.3
		c0.2-0.1,0.4-0.3,0.6-0.4c1.2-0.6,2.5-1,3.8-1c1.6,0,3.1,0.6,4.2,1.6c1.1,1.1,1.7,2.6,1.7,4.2c0,0.8-0.1,1.5-0.4,2.3l-0.8,2.7
		c0.2,0.2,0.3,0.5,0.5,0.7c0.2,0.4,0.3,0.9,0.3,1.4c0,1-0.3,2.1-0.9,2.9c-0.6,0.8-1.5,1.5-2.4,1.9C140.8,58.5,139.6,58.7,138.5,58.7
		z"/>
	<path class="st0" d="M154.8,58.5c-1.2,0-2.3-0.2-3.3-0.7c-0.1-0.1-0.2-0.1-0.4-0.2c-0.1,0.1-0.3,0.2-0.4,0.2
		c-1,0.5-2.1,0.7-3.3,0.7c-1.2,0-2.4-0.3-3.4-0.8c-1-0.5-1.8-1.3-2.3-2.3c-0.5-0.9-0.7-1.9-0.7-2.9c0-0.4,0-0.8,0.1-1.3l0-0.1
		c0.4-1.7,1.4-3.2,2.8-4.1c0.2-0.1,0.3-0.2,0.5-0.3c-0.1-0.3-0.1-0.7-0.1-1c0-1,0.3-2.9,2.6-4.2c1.3-0.8,3.1-1.1,5.5-1.1
		s4.3,0.5,5.9,1.4c1.9,1.1,2.9,3.1,2.9,5.3c0,0.9-0.1,1.7-0.4,2.5l-0.4,1.2c0.2,0.2,0.4,0.4,0.5,0.7c0.2,0.5,0.3,1,0.4,1.5
		c0,1.1-0.4,2.1-1,2.9c-0.6,0.8-1.4,1.4-2.3,1.9C156.9,58.3,155.9,58.5,154.8,58.5z"/>
	<path class="st0" d="M171.9,58.7c-1.3,0-2.6-0.3-3.8-1c-0.2,0.2-0.5,0.3-0.8,0.5c-0.7,0.2-1.4,0.4-2.1,0.3h-5.7
		c-0.9,0-1.7-0.2-2.4-0.7c-1-0.7-1.4-1.9-1.2-3.1l0-0.1l0-0.1c0.3-0.8,0.8-1.4,1.6-1.9l1.9-6.2c-0.1-0.1-0.1-0.2-0.2-0.3
		c-0.5-0.7-0.6-1.6-0.4-2.5c0.5-1.9,2.6-2.5,3.2-2.7c1.2-0.4,2.4-0.5,3.7-0.5c1.2,0,2.3,0.3,3.3,1c0.1-0.1,0.3-0.1,0.4-0.2
		c1.1-0.5,2.3-0.8,3.6-0.8c1.6,0,3.1,0.5,4.2,1.6c1.1,1.1,1.7,2.6,1.7,4.2c0,0.8-0.1,1.5-0.4,2.3l-0.8,2.7c0.2,0.2,0.3,0.5,0.5,0.7
		c0.2,0.4,0.3,0.9,0.3,1.4c0,1.1-0.3,2.1-1,2.9c-0.6,0.8-1.5,1.5-2.4,1.9C174.2,58.5,173.1,58.7,171.9,58.7z"/>
	<path class="st1" d="M176.3,47.6c0.2-0.5,0.2-1,0.2-1.5c0-0.9-0.3-1.7-0.9-2.4c-0.7-0.6-1.5-1-2.4-0.9c-0.9,0-1.7,0.2-2.5,0.6
		c-0.9,0.5-1.6,1.2-2.2,2c0.1-0.7-0.1-1.4-0.6-1.9c-0.5-0.5-1.2-0.7-2-0.7c-1,0-2,0.1-2.9,0.4c-0.9,0.3-1.5,0.6-1.6,1
		c-0.1,0.1,0,0.3,0,0.4c0.1,0.1,0.2,0.2,0.3,0.3c0.1,0.1,0.3,0.2,0.4,0.4c0.1,0.1,0.1,0.3,0.1,0.4c0,0.1,0,0.2,0,0.3l-2.2,7.2
		c-0.1,0.3-0.2,0.6-0.4,0.9c-0.2,0.2-0.4,0.4-0.6,0.5c-0.2,0.1-0.4,0.3-0.5,0.5c-0.1,0.2,0,0.4,0.2,0.6c0.3,0.2,0.6,0.2,0.9,0.2h5.7
		c0.4,0,0.8,0,1.1-0.1c0.2-0.1,0.4-0.2,0.5-0.5c0-0.1,0-0.2,0-0.3c-0.1-0.1-0.2-0.2-0.2-0.3c-0.1-0.1-0.2-0.2-0.3-0.4
		c-0.1-0.1-0.1-0.3-0.1-0.5c0-0.2,0-0.4,0.1-0.5l1.5-5.1c0.1-0.5,0.4-0.9,0.7-1.3c0.3-0.3,0.6-0.5,1-0.5c0.2,0,0.4,0.1,0.5,0.2
		c0.1,0.1,0.2,0.3,0.2,0.5c0,0.2-0.1,0.4-0.1,0.5l-1.3,3.6c-0.3,0.7-0.4,1.3-0.4,2.1c0,0.8,0.4,1.5,1,2c0.6,0.5,1.5,0.8,2.6,0.8
		c0.8,0,1.6-0.1,2.3-0.4c0.6-0.2,1.1-0.6,1.4-1.1c0.3-0.4,0.5-0.9,0.5-1.4c0-0.1,0-0.3-0.1-0.4c0-0.1-0.1-0.2-0.2-0.2
		s-0.1,0.1-0.3,0.3c-0.1,0.2-0.3,0.3-0.5,0.3c-0.1,0-0.2,0-0.2-0.1c-0.1-0.1-0.1-0.2-0.1-0.3c0-0.1,0-0.2,0.1-0.3L176.3,47.6z"/>
	<path class="st1" d="M96.1,28.5l0.3-0.2l0.3,0.3l0,0c0-0.3,0.1-0.6,0.3-0.9c0.2-0.2,0.6-0.3,0.9-0.1c0-0.4,0.1-0.7,0.3-1
		c0.4-0.4,0.9-0.3,1.3,0.3l1.1,1.3l-0.3,0.3l-1.1-1.3c-0.3-0.4-0.6-0.4-0.9-0.2c-0.2,0.2-0.3,0.5-0.2,0.8l1.3,1.5l-0.3,0.3L98,28.2
		c-0.3-0.4-0.6-0.4-0.9-0.2c-0.2,0.2-0.3,0.5-0.2,0.8l1.3,1.5l-0.3,0.3L96.1,28.5z"/>
	<path class="st1" d="M99.3,24.8c-0.1-0.1-0.1-0.3,0.1-0.4c0.1-0.1,0.3-0.1,0.4,0.1c0.1,0.1,0.1,0.3-0.1,0.4
		C99.6,25,99.4,25,99.3,24.8z M99.9,25.5l0.4-0.3l1.5,2.2l-0.4,0.3L99.9,25.5z"/>
	<path class="st1" d="M102.2,26.5l-1.8-2.9l0.4-0.2l1.8,2.9c0.1,0.1,0.2,0.1,0.2,0.1c0,0,0.1,0,0.1-0.1l0.2,0.3
		c-0.1,0.1-0.1,0.1-0.2,0.2C102.7,26.9,102.4,26.8,102.2,26.5z"/>
	<path class="st1" d="M101.8,22.7l0.4-0.2l1.2,2.4h0l0.4-1.8l0.4-0.2l-0.3,1.4l1.7,1l-0.4,0.2l-1.3-0.8l-0.2,0.8l0.3,0.6l-0.4,0.2
		L101.8,22.7z"/>
	<path class="st1" d="M106.8,23.8l-0.5-1.4l-0.4,0.1l-0.1-0.3l0.4-0.2l-0.2-0.7l0.4-0.1l0.3,0.7l0.7-0.3l0.1,0.4l-0.7,0.3l0.5,1.4
		c0.1,0.3,0.3,0.5,0.6,0.3c0.1,0,0.2-0.1,0.3-0.2l0.2,0.3c-0.1,0.1-0.3,0.2-0.4,0.3C107.3,24.6,107,24.3,106.8,23.8z"/>
	<path class="st1" d="M107.6,20.2l0.4-0.1l0.3,1l0.1,0.5c0.1-0.3,0.4-0.6,0.7-0.7c0.5-0.2,0.9,0.1,1.1,0.8l0.5,1.6l-0.4,0.1
		l-0.4-1.6c-0.1-0.5-0.3-0.7-0.7-0.6c-0.3,0.1-0.4,0.3-0.6,0.6l0.5,1.9l-0.4,0.1L107.6,20.2z"/>
	<path class="st1" d="M111.1,22c-0.2-0.9,0.3-1.5,1-1.6c0.7-0.1,1.1,0.3,1.3,1.1c0,0.1,0,0.2,0,0.3l-1.8,0.3c0.1,0.6,0.5,0.9,1,0.8
		c0.2,0,0.5-0.2,0.6-0.3l0.2,0.3c-0.2,0.2-0.5,0.4-0.8,0.4C111.9,23.3,111.3,22.8,111.1,22z M112.9,21.4c-0.1-0.5-0.4-0.8-0.8-0.7
		c-0.4,0.1-0.7,0.4-0.6,1L112.9,21.4z"/>
	<path class="st1" d="M115,23.9l0.1-0.4c0.1,0,0.1,0,0.2,0c0.3,0,0.5-0.3,0.6-0.6l0.1-0.2l-1.2-2.7l0.5,0l0.6,1.5
		c0.1,0.2,0.2,0.5,0.3,0.7h0c0.1-0.2,0.1-0.5,0.2-0.8l0.4-1.5h0.4l-0.9,3c-0.2,0.5-0.4,1-1,1C115.2,23.9,115.1,23.9,115,23.9z"/>
	<path class="st1" d="M117.6,21.4c0.1-0.9,0.7-1.4,1.3-1.3c0.7,0,1,0.6,1,1.3c0,0.1,0,0.2,0,0.3l-1.8-0.1c0,0.6,0.3,1,0.8,1
		c0.2,0,0.5,0,0.7-0.2l0.1,0.3c-0.3,0.2-0.6,0.2-0.9,0.2C118.1,22.8,117.6,22.2,117.6,21.4z M119.5,21.2c0-0.5-0.2-0.8-0.6-0.9
		c-0.4,0-0.7,0.3-0.8,0.8L119.5,21.2z"/>
	<path class="st1" d="M120.3,22.2c0.1-0.6,0.6-0.8,1.8-0.7c0.1-0.3,0-0.7-0.4-0.8c-0.3,0-0.6,0-0.8,0.2l-0.1-0.3
		c0.3-0.2,0.7-0.2,1.1-0.2c0.7,0.1,0.9,0.6,0.8,1.2l-0.3,1.6l-0.4-0.1v-0.3h0c-0.3,0.2-0.6,0.3-0.9,0.2
		C120.5,23,120.2,22.7,120.3,22.2C120.3,22.2,120.3,22.2,120.3,22.2z M121.9,22.5l0.1-0.7c-0.9,0-1.2,0.1-1.3,0.5
		c0,0.2,0.1,0.4,0.3,0.5c0,0,0.1,0,0.1,0C121.4,22.7,121.7,22.6,121.9,22.5L121.9,22.5z"/>
	<path class="st1" d="M123.6,20.7l0.4,0.1l-0.1,0.5h0c0.2-0.3,0.5-0.4,0.9-0.4c0.1,0,0.2,0.1,0.3,0.1l-0.2,0.4
		c-0.1,0-0.2-0.1-0.2-0.1c-0.2-0.1-0.5,0-0.8,0.4l-0.4,1.7l-0.4-0.1L123.6,20.7z"/>
	<path class="st1" d="M125.7,21.2l0.4,0.1l-0.1,0.4h0c0.3-0.2,0.7-0.2,1-0.1c0.5,0.2,0.7,0.6,0.4,1.3l-0.5,1.6l-0.4-0.1l0.5-1.6
		c0.2-0.5,0.1-0.7-0.3-0.8c-0.3-0.1-0.5,0-0.8,0.2l-0.6,1.9l-0.4-0.1L125.7,21.2z"/>
	<path class="st1" d="M130,22.5c0.2-0.5,0.6-0.7,1.1-0.5c0.1,0.1,0.3,0.2,0.4,0.3l-0.2,0.3c-0.1-0.1-0.2-0.1-0.2-0.2
		c-0.2-0.1-0.4,0-0.6,0.3l-1.4,2.8l-0.4-0.2L130,22.5z M129.5,22.7l0.4,0.1l0.9,0.4l-0.2,0.3l-1.3-0.6L129.5,22.7z"/>
	<path class="st1" d="M130.4,24.6c0.5-0.8,1.2-0.9,1.8-0.6c0.6,0.3,0.8,1.1,0.4,1.9c-0.5,0.8-1.2,0.9-1.8,0.6
		C130.2,26.2,130,25.4,130.4,24.6z M132.2,25.7c0.3-0.5,0.3-1.1-0.1-1.3c-0.4-0.2-0.9,0-1.2,0.5c-0.3,0.5-0.2,1.1,0.2,1.3
		C131.4,26.4,131.9,26.2,132.2,25.7L132.2,25.7z"/>
	<path class="st1" d="M134,25.2l0.3,0.2l-0.3,0.4l0,0c0.3-0.2,0.7-0.2,0.9,0c0.1,0.1,0.2,0.1,0.2,0.2l-0.3,0.3
		c-0.1-0.1-0.1-0.1-0.2-0.2c-0.2-0.1-0.5-0.2-0.9,0.1l-1,1.4l-0.4-0.3L134,25.2z"/>
	<path class="st1" d="M135.4,28.6l1-1.1l-0.3-0.3l0.2-0.3l0.3,0.3l0.5-0.5l0.3,0.3l-0.5,0.6l0.5,0.5l-0.2,0.3l-0.5-0.5l-1,1.1
		c-0.2,0.2-0.3,0.5,0,0.7c0.1,0.1,0.2,0.1,0.3,0.1l-0.2,0.3c-0.2-0.1-0.3-0.1-0.4-0.3C134.9,29.4,135,29.1,135.4,28.6z"/>
	<path class="st1" d="M136.4,29.7c0.4-0.4,1-0.2,1.9,0.5c0.2-0.2,0.4-0.6,0.1-0.9c-0.2-0.2-0.5-0.3-0.8-0.4l0.1-0.3
		c0.4,0.1,0.7,0.3,1,0.5c0.5,0.5,0.3,1-0.1,1.4l-1.2,1.1l-0.3-0.3l0.2-0.3l0,0c-0.3,0-0.7-0.1-0.9-0.4
		C136.1,30.6,136.1,30.1,136.4,29.7C136.4,29.8,136.4,29.7,136.4,29.7z M137.5,30.9l0.5-0.5c-0.7-0.6-1.1-0.6-1.3-0.4
		c-0.2,0.1-0.2,0.4,0,0.6c0,0,0,0,0.1,0.1C137,30.8,137.2,30.9,137.5,30.9z"/>
	<path class="st1" d="M137.9,31.9l0.4,0c0,0.3,0.1,0.6,0.3,0.8c0.2,0.3,0.5,0.3,0.7,0.1s0.1-0.5,0-0.8c-0.1-0.4-0.3-0.8,0.1-1.1
		s0.8-0.2,1.2,0.2c0.2,0.2,0.3,0.5,0.3,0.8h-0.4c0-0.2-0.1-0.4-0.2-0.6c-0.2-0.3-0.5-0.3-0.6-0.1s-0.1,0.5,0,0.8
		c0.1,0.4,0.3,0.8-0.1,1.1c-0.3,0.3-0.8,0.2-1.2-0.3C138,32.6,137.9,32.3,137.9,31.9z"/>
	<path class="st1" d="M139.9,33.6l1.2-0.9l-0.2-0.3l0.3-0.2l0.3,0.3l0.7-0.4l0.2,0.3l-0.6,0.4l0.4,0.6l-0.3,0.2l-0.4-0.6l-1.2,0.9
		c-0.3,0.2-0.4,0.4-0.2,0.6c0.1,0.1,0.1,0.2,0.2,0.2l-0.2,0.3c-0.1-0.1-0.3-0.2-0.4-0.4C139.3,34.3,139.5,33.9,139.9,33.6z"/>
	<path class="st1" d="M141.2,34.6c0.8-0.4,1.5-0.2,1.8,0.3c0.4,0.6,0.1,1.2-0.5,1.6c-0.1,0-0.2,0.1-0.2,0.1l-0.9-1.6
		c-0.5,0.3-0.6,0.8-0.4,1.2c0.1,0.2,0.3,0.4,0.5,0.5l-0.2,0.3c-0.3-0.1-0.5-0.4-0.7-0.6C140.3,35.8,140.5,35,141.2,34.6z
		 M142.4,36.1c0.5-0.3,0.6-0.6,0.4-1c-0.2-0.4-0.6-0.5-1.1-0.2L142.4,36.1z"/>
	<path class="st1" d="M136.7,72.8l-0.3,0.2l-0.3-0.3h0c0,0.3-0.1,0.6-0.4,0.9c-0.3,0.2-0.6,0.2-0.9,0c0,0.4-0.1,0.7-0.4,0.9
		c-0.4,0.3-0.9,0.2-1.3-0.3l-1-1.4l0.4-0.3l1,1.3c0.3,0.4,0.6,0.5,0.8,0.3c0.2-0.2,0.3-0.5,0.3-0.7l-1.2-1.6l0.4-0.3l1,1.3
		c0.3,0.4,0.6,0.5,0.8,0.3c0.2-0.2,0.3-0.5,0.3-0.7l-1.2-1.6l0.4-0.3L136.7,72.8z"/>
	<path class="st1" d="M132.8,75.6l-0.4,0.2l-1.4-2.3l0.4-0.2L132.8,75.6z M133.3,76.3c0.1,0.1,0,0.3-0.1,0.4c0,0,0,0,0,0
		c-0.1,0.1-0.3,0.1-0.4-0.1c0,0,0,0,0,0c-0.1-0.1,0-0.3,0.1-0.4C133,76.1,133.2,76.2,133.3,76.3z"/>
	<path class="st1" d="M130.5,74.4l1.6,3l-0.4,0.2l-1.6-3c-0.1-0.1-0.1-0.1-0.2-0.1c0,0-0.1,0-0.1,0.1l-0.2-0.3
		c0.1-0.1,0.1-0.1,0.2-0.2C130.1,74,130.3,74.1,130.5,74.4z"/>
	<path class="st1" d="M130.6,78.2l-0.4,0.2l-1.1-2.4h0l-0.5,1.8l-0.5,0.2l0.4-1.4l-1.6-1.1l0.5-0.2l1.2,0.9l0.2-0.7l-0.3-0.6
		l0.4-0.2L130.6,78.2z"/>
	<path class="st1" d="M125.7,76.8l0.4,1.4l0.4-0.1l0.1,0.3l-0.4,0.1l0.2,0.7l-0.4,0.1l-0.2-0.7l-0.7,0.2l-0.1-0.4l0.7-0.2l-0.4-1.4
		c-0.1-0.3-0.3-0.5-0.6-0.4c-0.1,0-0.2,0.1-0.3,0.2l-0.2-0.3c0.1-0.1,0.3-0.2,0.4-0.2C125.3,76,125.6,76.3,125.7,76.8z"/>
	<path class="st1" d="M124.7,80.4l-0.4,0.1l-0.2-1.1l-0.1-0.5c-0.2,0.3-0.4,0.5-0.8,0.6c-0.6,0.1-0.9-0.2-1-0.9l-0.4-1.7l0.4-0.1
		l0.3,1.6c0.1,0.5,0.3,0.7,0.6,0.6c0.3-0.1,0.4-0.2,0.6-0.6l-0.4-1.9l0.4-0.1L124.7,80.4z"/>
	<path class="st1" d="M121.3,78.4c0.1,0.9-0.4,1.5-1.1,1.5c-0.7,0.1-1.1-0.4-1.2-1.1c0-0.1,0-0.2,0-0.3l1.8-0.2
		c-0.1-0.6-0.5-0.9-1-0.8c-0.2,0-0.5,0.1-0.6,0.3l-0.2-0.3c0.2-0.2,0.5-0.3,0.9-0.4C120.6,77.1,121.2,77.5,121.3,78.4z M119.4,78.8
		c0.1,0.5,0.3,0.8,0.8,0.8c0.4-0.1,0.7-0.5,0.7-0.9L119.4,78.8z"/>
	<path class="st1" d="M117.5,76.3l-0.1,0.4c-0.1,0-0.1,0-0.2,0c-0.3,0-0.5,0.2-0.6,0.6l-0.1,0.2l1,2.7h-0.5l-0.5-1.5
		c-0.1-0.2-0.2-0.5-0.2-0.8h0c-0.1,0.2-0.2,0.5-0.2,0.8l-0.5,1.5h-0.4l1.1-2.9c0.2-0.5,0.5-0.9,1-0.9
		C117.3,76.2,117.4,76.2,117.5,76.3z"/>
	<path class="st1" d="M114.8,78.6c-0.1,0.9-0.8,1.3-1.4,1.2c-0.7-0.1-1-0.6-0.9-1.4c0-0.1,0-0.2,0.1-0.3l1.8,0.2
		c0.1-0.5-0.2-1-0.7-1c0,0,0,0,0,0c-0.2,0-0.5,0-0.7,0.1l-0.1-0.3c0.3-0.1,0.6-0.2,0.9-0.2C114.4,77.2,114.9,77.8,114.8,78.6z
		 M112.9,78.6c-0.1,0.5,0.1,0.9,0.6,0.9c0.4,0,0.8-0.2,0.9-0.7L112.9,78.6z"/>
	<path class="st1" d="M112.2,77.6c-0.1,0.6-0.7,0.8-1.8,0.6c-0.1,0.3,0,0.7,0.4,0.8c0.3,0,0.6,0,0.8-0.1l0.1,0.3
		c-0.4,0.1-0.7,0.2-1.1,0.1c-0.6-0.1-0.8-0.6-0.7-1.3l0.4-1.6l0.4,0.1l0,0.3h0c0.3-0.2,0.6-0.2,1-0.2
		C112,76.8,112.3,77.1,112.2,77.6C112.2,77.6,112.2,77.6,112.2,77.6z M110.6,77.2l-0.2,0.7c0.9,0.1,1.3-0.1,1.3-0.4
		c0.1-0.2-0.1-0.5-0.3-0.5c0,0-0.1,0-0.1,0C111.1,77,110.8,77.1,110.6,77.2L110.6,77.2z"/>
	<path class="st1" d="M108.7,78.9l-0.4-0.1l0.1-0.5l0,0c-0.2,0.3-0.6,0.4-0.9,0.3c-0.1,0-0.2-0.1-0.3-0.1l0.2-0.4
		c0.1,0.1,0.2,0.1,0.2,0.1c0.2,0.1,0.5,0,0.8-0.4l0.5-1.7l0.4,0.1L108.7,78.9z"/>
	<path class="st1" d="M106.7,78.2l-0.4-0.1l0.1-0.4l0,0c-0.3,0.2-0.7,0.2-1,0.1c-0.5-0.2-0.6-0.7-0.4-1.3l0.6-1.6l0.4,0.2l-0.6,1.5
		c-0.2,0.5-0.1,0.7,0.2,0.9c0.3,0.1,0.5,0,0.8-0.1l0.7-1.8l0.4,0.2L106.7,78.2z"/>
	<path class="st1" d="M102.5,76.7c-0.3,0.5-0.7,0.7-1.1,0.4c-0.1-0.1-0.3-0.2-0.3-0.3l0.3-0.3c0.1,0.1,0.1,0.2,0.2,0.2
		c0.2,0.1,0.4,0,0.6-0.3l1.5-2.7L104,74L102.5,76.7z M103,76.5l-0.4-0.2l-0.9-0.5l0.2-0.3l1.2,0.7L103,76.5z"/>
	<path class="st1" d="M102.2,74.5c-0.5,0.7-1.3,0.9-1.8,0.5c-0.6-0.4-0.7-1.1-0.2-1.9c0.5-0.7,1.3-0.8,1.8-0.5
		C102.5,73,102.7,73.8,102.2,74.5z M100.5,73.4c-0.3,0.5-0.3,1,0.1,1.3c0.4,0.3,0.9,0.1,1.2-0.4c0.3-0.5,0.3-1-0.1-1.3
		C101.4,72.7,100.9,72.9,100.5,73.4L100.5,73.4z"/>
	<path class="st1" d="M98.7,73.7l-0.3-0.2l0.3-0.4l0,0c-0.3,0.2-0.7,0.1-0.9,0c-0.1-0.1-0.1-0.1-0.2-0.2l0.3-0.3
		c0,0.1,0.1,0.1,0.2,0.2c0.2,0.1,0.5,0.2,0.9-0.1l1.1-1.3l0.4,0.3L98.7,73.7z"/>
	<path class="st1" d="M97.5,70.2l-1.1,1.1l0.3,0.3l-0.2,0.2l-0.3-0.3L95.6,72l-0.3-0.3l0.5-0.5l-0.5-0.5l0.3-0.3l0.5,0.5l1.1-1.1
		c0.2-0.2,0.3-0.4,0.1-0.7c-0.1-0.1-0.2-0.1-0.3-0.2l0.2-0.3c0.2,0.1,0.3,0.2,0.4,0.3C98,69.5,97.9,69.9,97.5,70.2z"/>
	<path class="st1" d="M96.6,69.1c-0.4,0.4-1,0.2-1.8-0.6c-0.3,0.2-0.4,0.5-0.2,0.9c0.2,0.2,0.5,0.4,0.7,0.4l-0.1,0.3
		c-0.4-0.1-0.7-0.3-1-0.6c-0.4-0.5-0.3-1,0.2-1.4l1.3-1.1l0.2,0.3l-0.2,0.2l0,0c0.3,0,0.6,0.2,0.9,0.4
		C96.9,68.3,96.9,68.7,96.6,69.1C96.6,69.1,96.6,69.1,96.6,69.1z M95.5,67.8l-0.6,0.5c0.7,0.6,1,0.7,1.3,0.5
		c0.2-0.1,0.2-0.4,0.1-0.6c0,0,0,0-0.1-0.1C96.1,67.9,95.8,67.8,95.5,67.8L95.5,67.8z"/>
	<path class="st1" d="M95.2,66.8h-0.4c0-0.3,0-0.6-0.2-0.8c-0.2-0.3-0.5-0.3-0.7-0.2c-0.2,0.1-0.1,0.5-0.1,0.8
		c0.1,0.4,0.2,0.8-0.2,1.1c-0.4,0.3-0.8,0.2-1.2-0.3c-0.2-0.3-0.3-0.6-0.2-0.9h0.4c0,0.2,0,0.5,0.2,0.6c0.2,0.3,0.4,0.3,0.6,0.2
		c0.2-0.1,0.1-0.4,0-0.8c-0.1-0.4-0.2-0.9,0.2-1.1c0.4-0.3,0.9-0.2,1.2,0.3C95.1,66.1,95.2,66.5,95.2,66.8z"/>
	<path class="st1" d="M93.3,65L92,65.8l0.2,0.3l-0.3,0.2L91.7,66L91,66.3L90.8,66l0.6-0.4L91.1,65l0.3-0.2l0.4,0.6l1.3-0.8
		c0.3-0.2,0.4-0.4,0.2-0.6c-0.1-0.1-0.1-0.2-0.2-0.2l0.2-0.3c0.1,0.1,0.3,0.2,0.3,0.4C93.9,64.4,93.7,64.7,93.3,65z"/>
	<path class="st1" d="M92,63.9c-0.8,0.4-1.5,0.1-1.8-0.4c-0.3-0.6,0-1.2,0.6-1.5c0.1,0,0.2-0.1,0.2-0.1l0.8,1.6
		c0.5-0.3,0.7-0.8,0.4-1.2c-0.1-0.2-0.3-0.4-0.5-0.5l0.2-0.3c0.3,0.2,0.5,0.4,0.7,0.7C93,62.8,92.8,63.5,92,63.9z M91,62.4
		c-0.5,0.2-0.6,0.6-0.4,1c0.2,0.4,0.6,0.5,1.1,0.3L91,62.4z"/>
	<path class="st1" d="M158.6,52.7c-0.1-0.1-0.1-0.2-0.2-0.2s-0.1,0.1-0.3,0.3c-0.1,0.2-0.3,0.3-0.5,0.3c-0.2,0-0.3-0.1-0.3-0.4
		c0-0.1,0-0.2,0-0.2l1-3.4c0.2-0.6,0.3-1.2,0.3-1.9c0-1.4-0.6-2.5-1.7-3.2c-1.1-0.7-2.7-1.1-4.5-1.1c-1.9,0-3.3,0.3-4.2,0.8
		c-0.9,0.5-1.4,1.2-1.4,2.1c0,0.5,0.3,1,0.7,1.3c0.6,0.4,1.2,0.6,1.9,0.5c0.9,0,1.5-0.2,2-0.7c0.4-0.4,0.7-1,0.7-1.6
		c0-0.3-0.1-0.6-0.1-0.8c0.4,0,0.8,0.1,1.1,0.3c0.3,0.2,0.4,0.6,0.4,0.9c0,0.5-0.1,1.1-0.3,1.6l-0.6,1.6c-1.3-0.4-2.7-0.6-4-0.6
		c-1.1,0-2.2,0.3-3.2,0.9c-0.9,0.6-1.5,1.5-1.7,2.6c0,0.3-0.1,0.5-0.1,0.8c0,0.6,0.1,1.2,0.4,1.7c0.3,0.6,0.8,1,1.3,1.3
		c0.7,0.4,1.4,0.5,2.2,0.5c0.8,0,1.5-0.2,2.2-0.5c0.7-0.3,1.3-0.8,1.8-1.4c0.2,0.6,0.7,1.1,1.3,1.4c0.7,0.3,1.4,0.5,2.2,0.5
		c0.7,0,1.3-0.1,2-0.4c0.6-0.3,1.1-0.7,1.4-1.1c0.3-0.4,0.5-0.9,0.5-1.4C158.7,52.9,158.7,52.8,158.6,52.7z M151.4,51.9
		c-0.1,0.3-0.3,0.6-0.6,0.8c-0.2,0.2-0.4,0.2-0.7,0.3c-0.2,0-0.4-0.1-0.5-0.2c-0.1-0.2-0.2-0.4-0.2-0.6c0-0.4,0.2-0.8,0.4-1.1
		c0.3-0.3,0.7-0.5,1.1-0.5c0.3,0,0.6,0,0.9,0.1L151.4,51.9z"/>
	<path class="st1" d="M139.7,42.8c-0.9,0-1.8,0.2-2.7,0.7c-0.8,0.4-1.6,1.2-2.3,2.3c0-0.8-0.4-1.6-1-2.2c-0.6-0.6-1.5-0.9-2.3-0.8
		c-0.8,0-1.7,0.2-2.4,0.5c-0.9,0.5-1.6,1.1-2.1,2c0.1-0.7-0.2-1.4-0.7-1.8c-0.5-0.5-1.2-0.7-1.9-0.7c-1,0-2,0.1-2.9,0.4
		c-0.9,0.3-1.5,0.6-1.6,1c-0.1,0.1,0,0.3,0,0.4c0.1,0.1,0.2,0.2,0.3,0.3c0.1,0.1,0.3,0.2,0.4,0.4c0.1,0.1,0.1,0.3,0.1,0.4
		c0,0.1,0,0.2,0,0.3l-2.2,7.2c-0.1,0.3-0.2,0.6-0.4,0.9c-0.2,0.2-0.4,0.4-0.6,0.5c-0.2,0.1-0.4,0.3-0.5,0.5c-0.1,0.2,0,0.4,0.2,0.6
		c0.3,0.2,0.6,0.2,0.9,0.2h5.6c0.4,0,0.8,0,1.2-0.1c0.2-0.1,0.4-0.2,0.5-0.5c0-0.1,0-0.2,0-0.3c-0.1-0.1-0.2-0.2-0.2-0.3
		c-0.1-0.1-0.3-0.2-0.4-0.4c-0.1-0.1-0.1-0.3-0.1-0.5c0-0.2,0-0.4,0.1-0.5l1.6-5.3c0.1-0.4,0.4-0.8,0.7-1.1c0.2-0.2,0.5-0.3,0.9-0.4
		c0.2,0,0.4,0.1,0.5,0.2c0.1,0.1,0.2,0.3,0.2,0.5c0,0.2-0.1,0.4-0.1,0.5l-1.4,3.6c-0.3,0.7-0.4,1.3-0.4,2.1c0,0.8,0.4,1.5,1,2
		c0.6,0.5,1.5,0.8,2.6,0.8c0.8,0,1.6-0.1,2.3-0.4c0.6-0.2,1.1-0.6,1.4-1.1c0.3-0.4,0.5-0.9,0.5-1.4c0-0.1,0-0.3-0.1-0.4
		c-0.1-0.1-0.1-0.2-0.2-0.2s-0.1,0.1-0.3,0.3c-0.1,0.2-0.3,0.3-0.5,0.3c-0.1,0-0.2,0-0.2-0.1c-0.1-0.1-0.1-0.2-0.1-0.3
		c0-0.1,0-0.2,0-0.3l1.4-4.4c0.2-0.4,0.4-0.8,0.8-1.2c0.2-0.2,0.5-0.4,0.9-0.4c0.2,0,0.4,0.1,0.5,0.2c0.1,0.1,0.2,0.3,0.2,0.5
		c0,0.2-0.1,0.4-0.1,0.5l-1.4,3.6c-0.3,0.7-0.4,1.3-0.4,2.1c0,0.8,0.4,1.5,1,2c0.6,0.5,1.5,0.8,2.6,0.8c0.8,0,1.6-0.1,2.3-0.4
		c0.6-0.2,1.1-0.6,1.4-1.1c0.3-0.4,0.5-0.9,0.5-1.4c0-0.1,0-0.3-0.1-0.4c0-0.1-0.1-0.2-0.2-0.2s-0.1,0.1-0.3,0.3
		c-0.1,0.2-0.3,0.3-0.5,0.3c-0.1,0-0.2,0-0.2-0.1c-0.1-0.1-0.1-0.2-0.1-0.3c0-0.1,0-0.2,0-0.3l1.5-4.9c0.2-0.5,0.2-1,0.2-1.5
		c0-0.9-0.3-1.7-0.9-2.4C141.5,43.1,140.6,42.8,139.7,42.8z"/>
	<path class="st1" d="M116.7,52.8c0-0.1-0.1-0.2-0.2-0.2s-0.1,0.1-0.3,0.3c-0.1,0.2-0.3,0.3-0.5,0.3c-0.2,0-0.3-0.1-0.3-0.3
		c0-0.1,0-0.2,0.1-0.3l0.2-0.8c0.1-0.3,0.2-0.7,0.2-1c0-0.7-0.3-1.3-0.8-1.7c-0.5-0.4-1.4-0.7-2.5-0.8c0.2-0.2,0.4-0.5,0.5-0.9
		c0.1-0.3,0.2-0.7,0.4-1c0.1-0.2,0.3-0.2,0.4-0.2c0,0.5,0.2,0.9,0.5,1.2c0.4,0.4,1,0.6,1.6,0.5c0.7,0,1.4-0.2,1.9-0.7
		c0.5-0.5,0.8-1.2,0.7-1.9c0-0.7-0.3-1.4-0.9-1.9c-0.6-0.5-1.4-0.8-2.3-0.8c-1,0-1.9,0.3-2.6,1c-0.7,0.8-1.3,1.8-1.6,2.8
		c-0.1,0.3-0.3,0.6-0.5,0.9c-0.2,0.2-0.5,0.3-0.8,0.3h-0.8l2.2-7c0.1-0.4,0.2-0.7,0.2-1.1c0-0.6-0.2-1.1-0.7-1.5
		c-0.4-0.4-1.1-0.5-2.1-0.5c-1,0-2,0.1-2.9,0.4c-0.9,0.3-1.5,0.6-1.6,1c-0.1,0.1,0,0.3,0,0.4c0.1,0.1,0.2,0.2,0.4,0.3
		c0.1,0.1,0.3,0.2,0.4,0.3c0.1,0.1,0.1,0.3,0.1,0.4c0,0.1,0,0.3-0.1,0.4l-3.8,12.4c-0.1,0.3-0.2,0.6-0.4,0.9
		c-0.2,0.2-0.4,0.4-0.6,0.5c-0.2,0.1-0.4,0.3-0.5,0.5c-0.1,0.2,0,0.4,0.2,0.6c0.3,0.2,0.6,0.2,0.9,0.2h5.6c0.4,0,0.8,0,1.1-0.1
		c0.2-0.1,0.4-0.3,0.5-0.5c0-0.1,0-0.2,0-0.3c-0.1-0.1-0.2-0.2-0.2-0.3c-0.1-0.1-0.2-0.2-0.3-0.4c-0.1-0.2-0.1-0.3-0.1-0.5
		c0-0.2,0-0.3,0.1-0.5l1.1-3.6h0.5c0.2,0,0.5,0,0.7,0.1c0.1,0.1,0.2,0.3,0.2,0.5c0,0.2-0.1,0.4-0.1,0.6l-0.5,1.2
		c-0.1,0.3-0.2,0.7-0.2,1.1c0,0.8,0.4,1.6,1.1,2.1c0.8,0.5,1.7,0.8,2.6,0.8c0.8,0,1.5-0.1,2.2-0.4c0.6-0.2,1-0.6,1.4-1.1
		c0.3-0.4,0.4-0.9,0.4-1.4C116.8,53.1,116.8,52.9,116.7,52.8z"/>
	<path class="st1" d="M98.9,54.7c-0.1-0.1-0.3-0.2-0.3-0.4c-0.1-0.2-0.1-0.3-0.1-0.5c0-0.2,0-0.3,0.1-0.5l3.9-12.6
		c0.1-0.3,0.2-0.7,0.2-1.1c0-0.6-0.2-1.1-0.7-1.5c-0.5-0.4-1.2-0.5-2.1-0.5c-1,0-2,0.1-2.9,0.4c-0.9,0.3-1.5,0.6-1.6,1
		c-0.1,0.1,0,0.3,0,0.4c0.1,0.1,0.2,0.2,0.4,0.3c0.1,0.1,0.3,0.2,0.4,0.3c0.1,0.1,0.1,0.3,0.1,0.4c0,0.1,0,0.3-0.1,0.4l-3.8,12.4
		c-0.1,0.3-0.2,0.6-0.4,0.9c-0.2,0.2-0.4,0.4-0.6,0.5c-0.2,0.1-0.4,0.3-0.5,0.5c-0.1,0.2,0,0.4,0.2,0.6c0.3,0.2,0.6,0.2,0.9,0.2h5.7
		c0.4,0,0.8,0,1.1-0.1c0.2-0.1,0.4-0.2,0.5-0.5c0-0.1,0-0.2,0-0.3C99.1,54.9,99,54.8,98.9,54.7z"/>
	<path class="st1" d="M90.3,54.7c-0.1-0.1-0.3-0.2-0.3-0.4c-0.1-0.2-0.1-0.3-0.1-0.5c0-0.2,0-0.3,0.1-0.5l2.3-7.4
		c0.1-0.4,0.2-0.7,0.2-1.1c0-0.6-0.2-1.1-0.7-1.5c-0.4-0.4-1.1-0.5-2.1-0.5c-1,0-2,0.1-2.9,0.4c-0.9,0.3-1.5,0.6-1.6,1
		c-0.1,0.1,0,0.3,0,0.4c0.1,0.1,0.2,0.2,0.3,0.3c0.1,0.1,0.3,0.2,0.4,0.3c0.1,0.1,0.1,0.3,0.1,0.4c0,0.1,0,0.3-0.1,0.4l-2.2,7.2
		c-0.1,0.6-0.5,1.1-1,1.3c-0.2,0.1-0.4,0.3-0.5,0.5c-0.1,0.2,0,0.4,0.2,0.6c0.3,0.2,0.6,0.2,0.9,0.2H89c0.4,0,0.8,0,1.1-0.1
		c0.2-0.1,0.4-0.2,0.5-0.5c0-0.1,0-0.2,0-0.3C90.5,54.9,90.4,54.8,90.3,54.7z"/>
	<path class="st1" d="M80.9,54.5c-0.1-0.1-0.2-0.3-0.2-0.4c-0.1-0.1-0.1-0.3-0.1-0.5c0-0.2,0-0.4,0.1-0.6l3-10.7
		c0.1-0.3,0.2-0.6,0.4-0.8c0.2-0.2,0.4-0.4,0.6-0.5c0.1-0.1,0.3-0.2,0.4-0.3c0.1-0.1,0.2-0.2,0.2-0.3c0-0.1,0.1-0.2,0.1-0.3
		c0-0.2-0.1-0.4-0.3-0.5c-0.3-0.1-0.5-0.2-0.8-0.2h-3.7c-0.6,0-1.1,0.1-1.6,0.3c-0.5,0.2-0.9,0.6-1.3,1.1L71,49.1l-2.5-8.2
		c-0.1-0.4-0.3-0.8-0.6-1.1c-0.3-0.2-0.7-0.4-1.1-0.3H63c-0.3,0-0.6,0-0.9,0.2c-0.2,0.2-0.3,0.4-0.3,0.6c0,0.2,0,0.5,0.1,0.7
		l0.4,1.3l-3,10.7c-0.1,0.3-0.2,0.6-0.4,0.9c-0.2,0.2-0.4,0.4-0.6,0.5c-0.1,0.1-0.2,0.1-0.3,0.2c-0.2,0.2-0.4,0.4-0.4,0.7
		c0,0.2,0.1,0.4,0.3,0.5c0.2,0.1,0.5,0.2,0.8,0.2h2.1c0.4,0,0.7,0,1-0.1c0.2-0.1,0.4-0.3,0.4-0.5c0-0.1,0-0.2,0-0.2
		c0-0.2-0.1-0.4-0.2-0.5c-0.1-0.1-0.2-0.3-0.3-0.4c-0.1-0.2-0.1-0.3-0.1-0.5c0-0.2,0-0.4,0.1-0.6l1.8-6.4l2.3,7.7
		c0.1,0.5,0.3,0.9,0.6,1.3c0.2,0.3,0.6,0.4,0.9,0.4c0.4,0,0.8-0.1,1.1-0.4c0.5-0.4,0.9-0.8,1.3-1.3l6.4-8L74.4,53
		c-0.1,0.3-0.2,0.6-0.4,0.8c-0.2,0.2-0.4,0.4-0.6,0.5c0,0-0.1,0.1-0.2,0.1c-0.1,0.1-0.2,0.1-0.2,0.2c-0.1,0.1-0.2,0.2-0.2,0.3
		c0,0.1-0.1,0.2-0.1,0.3c0,0.2,0.1,0.4,0.3,0.5c0.2,0.1,0.5,0.2,0.8,0.2h5.8c0.3,0,0.7,0,1-0.1c0.2-0.1,0.4-0.3,0.5-0.5
		c0-0.1,0-0.2,0-0.2c0-0.1,0-0.2-0.1-0.3C81,54.7,80.9,54.6,80.9,54.5z"/>
	<path class="st2" d="M90.9,42.2c0.5,0,0.9-0.1,1.3-0.4c0.4-0.2,0.7-0.6,0.9-1c0.2-0.4,0.3-0.8,0.3-1.3c0-0.6-0.2-1.1-0.6-1.5
		c-0.4-0.4-1-0.6-1.6-0.6c-0.5,0-1,0.1-1.4,0.4c-0.4,0.3-0.7,0.6-0.9,1c-0.2,0.4-0.3,0.8-0.3,1.2c0,0.6,0.2,1.2,0.7,1.6
		C89.7,42,90.3,42.2,90.9,42.2z"/>
</g>
</svg>
