<?xml version="1.0" encoding="utf-8"?>
<!-- Generator: Adobe Illustrator 24.0.0, SVG Export Plug-In . SVG Version: 6.00 Build 0)  -->
<svg version="1.1" id="Layer_1" xmlns="http://www.w3.org/2000/svg" xmlns:xlink="http://www.w3.org/1999/xlink" x="0px" y="0px"
	 viewBox="0 0 240 100" style="enable-background:new 0 0 240 100;" xml:space="preserve">
<style type="text/css">
	.st0{fill:#1C1C1A;}
	.st1{fill:none;stroke:#1C1C1A;stroke-width:1.95;stroke-miterlimit:2.61;}
	.st2{fill:#FFFFFF;}
</style>
<polygon class="st0" points="115.8,37 115.5,37.1 115.1,37.2 114.8,37.3 114.5,37.4 114.1,37.6 113.8,37.7 113.4,37.8 113.1,37.9 
	112.7,38 112.4,38.2 110.7,38.8 109.9,37.3 109.7,37 109.6,36.7 109.4,36.4 109.2,36.1 109.1,35.8 108.9,35.5 108.7,35.2 
	108.6,34.9 108.4,34.6 108.2,34.4 108,34.1 107.9,33.8 107.7,33.5 107.5,33.2 107.3,33 107.1,32.7 106.9,32.4 106.7,32.2 
	106.5,31.9 106.3,31.6 106.1,31.4 105.9,31.1 105.7,30.9 105.5,30.6 105.3,30.4 105.1,30.1 104.9,29.9 104.7,29.6 104.5,29.4 
	104.2,29.2 103,27.9 104,26.6 104.1,26.5 104.2,26.4 104.3,26.2 104.4,26.1 104.5,25.9 104.6,25.8 104.7,25.6 104.8,25.5 
	104.9,25.3 105,25.2 105.1,25 105.2,24.9 105.2,24.7 105.3,24.5 105.4,24.4 105.5,24.2 105.5,24.1 105.6,23.9 105.7,23.7 
	105.8,23.6 105.8,23.4 105.9,23.3 105.9,23.1 106,23 106.1,22.8 106.1,22.6 106.2,22.5 106.2,22.3 106.3,22.2 106.3,22 106.7,20.7 
	108.6,20.7 106.3,18.3 106.9,17.2 107,17.1 107,17 107.1,16.9 107.1,16.8 107.2,16.7 107.2,16.6 107.3,16.5 107.3,16.4 107.3,16.3 
	107.4,16.2 107.4,16.1 107.5,16 107.5,15.9 107.5,15.8 107.6,15.7 107.6,15.6 107.7,15.5 107.7,15.4 107.7,15.3 107.7,15.2 
	107.8,15.1 107.8,15 107.8,14.9 107.8,14.8 107.9,14.7 107.9,14.6 107.9,14.5 107.9,14.4 107.9,14.3 107.9,14.2 108.1,12.8 
	109.5,12.6 109.6,12.6 109.7,12.6 109.8,12.6 109.9,12.6 110,12.6 110.2,12.5 110.3,12.5 110.4,12.5 110.5,12.5 110.7,12.4 
	110.8,12.4 110.9,12.4 111.1,12.4 111.2,12.3 111.3,12.3 111.4,12.3 111.6,12.2 111.7,12.2 111.8,12.2 112,12.1 112.1,12.1 
	112.2,12.1 112.4,12 112.5,12 112.6,11.9 112.8,11.9 112.9,11.9 113,11.8 113.2,11.8 113.3,11.7 114.2,11.5 116.1,12.9 116.2,10.4 
	117.2,9.9 117.4,9.8 117.6,9.7 117.8,9.6 117.9,9.6 118.1,9.5 118.3,9.4 118.5,9.3 118.6,9.2 118.8,9.2 119,9.1 119.1,9 119.3,8.9 
	119.5,8.8 119.6,8.7 119.8,8.6 120,8.5 120.2,8.4 120.3,8.3 120.5,8.2 120.7,8.1 120.8,8 121,7.9 121.2,7.8 121.3,7.7 121.5,7.6 
	121.7,7.5 121.8,7.4 122,7.3 122.2,7.2 122.3,7.1 123.3,6.5 124.3,7.1 124.5,7.2 124.6,7.3 124.8,7.4 125,7.5 125.2,7.6 125.3,7.7 
	125.5,7.8 125.7,7.9 125.9,8 126,8.1 126.2,8.2 126.4,8.2 126.6,8.3 126.7,8.4 126.9,8.5 127.1,8.6 127.3,8.7 127.5,8.8 127.6,8.9 
	127.8,9 128,9.1 128.2,9.2 128.4,9.2 128.5,9.3 128.7,9.4 128.9,9.5 129.1,9.6 129.3,9.7 129.5,9.8 129.7,9.8 130.8,10.3 
	130.9,12.8 132.7,11.4 133.6,11.8 133.8,11.8 133.9,11.8 134,11.9 134.1,11.9 134.2,12 134.3,12 134.4,12 134.5,12.1 134.7,12.1 
	134.8,12.2 134.9,12.2 135,12.2 135.1,12.2 135.2,12.3 135.4,12.3 135.5,12.4 135.6,12.4 135.7,12.4 135.8,12.4 136,12.5 
	136.1,12.5 136.2,12.5 136.3,12.5 136.5,12.6 136.6,12.6 136.7,12.6 136.8,12.6 137,12.6 137.1,12.6 137.2,12.7 138.5,12.8 
	138.7,14 138.8,14.2 138.8,14.3 138.8,14.4 138.9,14.5 138.9,14.6 138.9,14.7 138.9,14.8 139,14.9 139,15.1 139,15.2 139.1,15.3 
	139.1,15.4 139.2,15.5 139.2,15.6 139.2,15.7 139.3,15.8 139.3,15.9 139.3,16.1 139.4,16.2 139.4,16.3 139.5,16.4 139.5,16.5 
	139.6,16.6 139.6,16.7 139.7,16.8 139.7,16.9 139.8,17 139.8,17.2 139.9,17.3 139.9,17.4 140.5,18.6 138.4,20.5 140.1,20.5 
	140.5,21.7 140.6,21.9 140.6,22.1 140.7,22.3 140.8,22.5 140.8,22.7 140.9,22.8 141,23 141.1,23.2 141.1,23.4 141.2,23.5 
	141.3,23.7 141.4,23.9 141.5,24 141.5,24.2 141.6,24.3 141.7,24.5 141.8,24.7 141.9,24.8 142,25 142.1,25.1 142.2,25.3 142.2,25.4 
	142.3,25.6 142.4,25.7 142.5,25.9 142.6,26 142.7,26.2 142.8,26.3 142.9,26.5 143,26.6 144,27.9 142.8,29.1 142.5,29.3 142.3,29.5 
	142.1,29.8 141.9,30 141.7,30.3 141.5,30.5 141.3,30.8 141.1,31 140.9,31.3 140.7,31.5 140.5,31.8 140.3,32 140.2,32.3 140,32.6 
	139.9,32.8 139.7,33.1 139.5,33.4 139.4,33.7 139.2,33.9 139.1,34.2 138.9,34.5 138.8,34.8 138.6,35.1 138.5,35.3 138.4,35.6 
	138.2,35.9 138.1,36.2 138,36.5 137.9,36.8 137.8,37.1 137.1,39 135.3,38.3 135,38.2 134.6,38 134.3,37.9 134,37.8 133.6,37.7 
	133.3,37.6 132.9,37.5 132.6,37.4 132.3,37.3 131.9,37.2 131.6,37.1 131.3,37 130.9,36.9 130.6,36.9 130.3,36.8 129.9,36.7 
	129.6,36.6 129.2,36.6 128.9,36.5 128.6,36.4 128.2,36.4 127.9,36.3 127.6,36.2 127.2,36.2 126.9,36.1 126.6,36.1 126.6,40.6 
	126.6,40.9 126.5,41.3 126.4,41.6 126.2,41.9 126,42.1 125.8,42.3 125.6,42.5 125.3,42.7 125.1,42.8 124.9,42.9 124.7,42.9 
	124.4,43 124.2,43 124,43.1 123.8,43.1 123.5,43.1 123.3,43.1 123.1,43.1 122.8,43 122.6,43 122.4,42.9 122.1,42.8 121.9,42.7 
	121.7,42.6 121.4,42.4 121.2,42.2 121,42 120.8,41.7 120.7,41.4 120.5,41.1 120.5,40.7 120.5,40.4 120.5,36.1 120.4,36.1 
	120.1,36.1 119.8,36.2 119.5,36.2 119.3,36.3 118.9,36.3 118.6,36.4 118.4,36.4 118,36.5 117.7,36.6 117.4,36.6 117.1,36.7 
	116.8,36.8 116.5,36.9 116.1,37 "/>
<polygon class="st1" points="115.8,37 115.5,37.1 115.1,37.2 114.8,37.3 114.5,37.4 114.1,37.6 113.8,37.7 113.4,37.8 113.1,37.9 
	112.7,38 112.4,38.2 110.7,38.8 109.9,37.3 109.7,37 109.6,36.7 109.4,36.4 109.2,36.1 109.1,35.8 108.9,35.5 108.7,35.2 
	108.6,34.9 108.4,34.6 108.2,34.4 108,34.1 107.9,33.8 107.7,33.5 107.5,33.2 107.3,33 107.1,32.7 106.9,32.4 106.7,32.2 
	106.5,31.9 106.3,31.6 106.1,31.4 105.9,31.1 105.7,30.9 105.5,30.6 105.3,30.4 105.1,30.1 104.9,29.9 104.7,29.6 104.5,29.4 
	104.2,29.2 103,27.9 104,26.6 104.1,26.5 104.2,26.4 104.3,26.2 104.4,26.1 104.5,25.9 104.6,25.8 104.7,25.6 104.8,25.5 
	104.9,25.3 105,25.2 105.1,25 105.2,24.9 105.2,24.7 105.3,24.5 105.4,24.4 105.5,24.2 105.5,24.1 105.6,23.9 105.7,23.7 
	105.8,23.6 105.8,23.4 105.9,23.3 105.9,23.1 106,23 106.1,22.8 106.1,22.6 106.2,22.5 106.2,22.3 106.3,22.2 106.3,22 106.7,20.7 
	108.6,20.7 106.3,18.3 106.9,17.2 107,17.1 107,17 107.1,16.9 107.1,16.8 107.2,16.7 107.2,16.6 107.3,16.5 107.3,16.4 107.3,16.3 
	107.4,16.2 107.4,16.1 107.5,16 107.5,15.9 107.5,15.8 107.6,15.7 107.6,15.6 107.7,15.5 107.7,15.4 107.7,15.3 107.7,15.2 
	107.8,15.1 107.8,15 107.8,14.9 107.8,14.8 107.9,14.7 107.9,14.6 107.9,14.5 107.9,14.4 107.9,14.3 107.9,14.2 108.1,12.8 
	109.5,12.6 109.6,12.6 109.7,12.6 109.8,12.6 109.9,12.6 110,12.6 110.2,12.5 110.3,12.5 110.4,12.5 110.5,12.5 110.7,12.4 
	110.8,12.4 110.9,12.4 111.1,12.4 111.2,12.3 111.3,12.3 111.4,12.3 111.6,12.2 111.7,12.2 111.8,12.2 112,12.1 112.1,12.1 
	112.2,12.1 112.4,12 112.5,12 112.6,11.9 112.8,11.9 112.9,11.9 113,11.8 113.2,11.8 113.3,11.7 114.2,11.5 116.1,12.9 116.2,10.4 
	117.2,9.9 117.4,9.8 117.6,9.7 117.8,9.6 117.9,9.6 118.1,9.5 118.3,9.4 118.5,9.3 118.6,9.2 118.8,9.2 119,9.1 119.1,9 119.3,8.9 
	119.5,8.8 119.6,8.7 119.8,8.6 120,8.5 120.2,8.4 120.3,8.3 120.5,8.2 120.7,8.1 120.8,8 121,7.9 121.2,7.8 121.3,7.7 121.5,7.6 
	121.7,7.5 121.8,7.4 122,7.3 122.2,7.2 122.3,7.1 123.3,6.5 124.3,7.1 124.5,7.2 124.6,7.3 124.8,7.4 125,7.5 125.2,7.6 125.3,7.7 
	125.5,7.8 125.7,7.9 125.9,8 126,8.1 126.2,8.2 126.4,8.2 126.6,8.3 126.7,8.4 126.9,8.5 127.1,8.6 127.3,8.7 127.5,8.8 127.6,8.9 
	127.8,9 128,9.1 128.2,9.2 128.4,9.2 128.5,9.3 128.7,9.4 128.9,9.5 129.1,9.6 129.3,9.7 129.5,9.8 129.7,9.8 130.8,10.3 
	130.9,12.8 132.7,11.4 133.6,11.8 133.8,11.8 133.9,11.8 134,11.9 134.1,11.9 134.2,12 134.3,12 134.4,12 134.5,12.1 134.7,12.1 
	134.8,12.2 134.9,12.2 135,12.2 135.1,12.2 135.2,12.3 135.4,12.3 135.5,12.4 135.6,12.4 135.7,12.4 135.8,12.4 136,12.5 
	136.1,12.5 136.2,12.5 136.3,12.5 136.5,12.6 136.6,12.6 136.7,12.6 136.8,12.6 137,12.6 137.1,12.6 137.2,12.7 138.5,12.8 
	138.7,14 138.8,14.2 138.8,14.3 138.8,14.4 138.9,14.5 138.9,14.6 138.9,14.7 138.9,14.8 139,14.9 139,15.1 139,15.2 139.1,15.3 
	139.1,15.4 139.2,15.5 139.2,15.6 139.2,15.7 139.3,15.8 139.3,15.9 139.3,16.1 139.4,16.2 139.4,16.3 139.5,16.4 139.5,16.5 
	139.6,16.6 139.6,16.7 139.7,16.8 139.7,16.9 139.8,17 139.8,17.2 139.9,17.3 139.9,17.4 140.5,18.6 138.4,20.5 140.1,20.5 
	140.5,21.7 140.6,21.9 140.6,22.1 140.7,22.3 140.8,22.5 140.8,22.7 140.9,22.8 141,23 141.1,23.2 141.1,23.4 141.2,23.5 
	141.3,23.7 141.4,23.9 141.5,24 141.5,24.2 141.6,24.3 141.7,24.5 141.8,24.7 141.9,24.8 142,25 142.1,25.1 142.2,25.3 142.2,25.4 
	142.3,25.6 142.4,25.7 142.5,25.9 142.6,26 142.7,26.2 142.8,26.3 142.9,26.5 143,26.6 144,27.9 142.8,29.1 142.5,29.3 142.3,29.5 
	142.1,29.8 141.9,30 141.7,30.3 141.5,30.5 141.3,30.8 141.1,31 140.9,31.3 140.7,31.5 140.5,31.8 140.3,32 140.2,32.3 140,32.6 
	139.9,32.8 139.7,33.1 139.5,33.4 139.4,33.7 139.2,33.9 139.1,34.2 138.9,34.5 138.8,34.8 138.6,35.1 138.5,35.3 138.4,35.6 
	138.2,35.9 138.1,36.2 138,36.5 137.9,36.8 137.8,37.1 137.1,39 135.3,38.3 135,38.2 134.6,38 134.3,37.9 134,37.8 133.6,37.7 
	133.3,37.6 132.9,37.5 132.6,37.4 132.3,37.3 131.9,37.2 131.6,37.1 131.3,37 130.9,36.9 130.6,36.9 130.3,36.8 129.9,36.7 
	129.6,36.6 129.2,36.6 128.9,36.5 128.6,36.4 128.2,36.4 127.9,36.3 127.6,36.2 127.2,36.2 126.9,36.1 126.6,36.1 126.6,40.6 
	126.6,40.9 126.5,41.3 126.4,41.6 126.2,41.9 126,42.1 125.8,42.3 125.6,42.5 125.3,42.7 125.1,42.8 124.9,42.9 124.7,42.9 
	124.4,43 124.2,43 124,43.1 123.8,43.1 123.5,43.1 123.3,43.1 123.1,43.1 122.8,43 122.6,43 122.4,42.9 122.1,42.8 121.9,42.7 
	121.7,42.6 121.4,42.4 121.2,42.2 121,42 120.8,41.7 120.7,41.4 120.5,41.1 120.5,40.7 120.5,40.4 120.5,36.1 120.4,36.1 
	120.1,36.1 119.8,36.2 119.5,36.2 119.3,36.3 118.9,36.3 118.6,36.4 118.4,36.4 118,36.5 117.7,36.6 117.4,36.6 117.1,36.7 
	116.8,36.8 116.5,36.9 116.1,37 "/>
<polygon class="st2" points="123.5,24.8 119.5,9.8 119.5,9.8 119.7,9.7 119.9,9.6 120.1,9.5 120.2,9.4 120.4,9.3 120.6,9.2 
	120.7,9.1 120.9,9 121.1,8.9 121.3,8.8 121.4,8.7 121.6,8.6 121.8,8.5 122,8.4 122.1,8.3 122.3,8.2 122.5,8.1 122.6,8 122.8,7.9 
	123.3,7.5 123.5,7.6 "/>
<polygon class="st2" points="123.5,24.8 117,13.3 117,11 117.6,10.7 117.8,10.6 118,10.6 118.1,10.5 118.3,10.4 118.5,10.3 
	118.7,10.2 118.8,10.1 119,10 119.2,10 119.4,9.9 119.5,9.8 "/>
<polygon class="st2" points="123.5,24.8 112,13.1 112.1,13 112.2,13 112.3,13 112.5,12.9 112.6,12.9 112.7,12.9 112.9,12.8 
	113,12.8 113.2,12.7 113.3,12.7 113.4,12.6 113.6,12.6 114,12.4 116.9,14.7 117,13.3 "/>
<polygon class="st2" points="123.5,24.8 108.4,15.9 108.4,15.9 108.5,15.8 108.5,15.7 108.6,15.6 108.6,15.5 108.6,15.4 108.7,15.3 
	108.7,15.1 108.7,15 108.7,14.9 108.7,14.8 108.8,14.7 108.8,14.5 108.8,14.4 108.8,14.3 108.9,13.6 109.6,13.5 109.7,13.5 
	109.8,13.5 109.9,13.5 110.1,13.5 110.2,13.4 110.3,13.4 110.5,13.4 110.6,13.4 110.7,13.3 110.9,13.3 111,13.3 111.1,13.3 
	111.2,13.2 111.4,13.2 111.5,13.2 111.7,13.1 111.8,13.1 111.9,13.1 112,13.1 "/>
<polygon class="st2" points="123.5,24.8 110.4,21.2 107.4,18.2 107.7,17.6 107.8,17.5 107.8,17.4 107.9,17.3 107.9,17.2 108,17.1 
	108,17 108.1,16.9 108.1,16.8 108.2,16.7 108.2,16.6 108.2,16.5 108.3,16.4 108.3,16.3 108.4,16.1 108.4,16 108.4,15.9 "/>
<polygon class="st2" points="123.5,24.8 106.2,24.8 106.3,24.6 106.3,24.5 106.4,24.3 106.5,24.1 106.6,24 106.6,23.8 106.7,23.6 
	106.8,23.5 106.8,23.3 106.9,23.1 107,22.9 107,22.8 107.1,22.6 107.1,22.4 107.2,22.3 107.3,21.6 110.7,21.5 110.4,21.2 "/>
<polygon class="st2" points="123.5,24.8 105.9,29.6 105.8,29.5 105.5,29.3 105.3,29 105.1,28.8 104.9,28.5 104.2,27.8 104.7,27.2 
	104.8,27 104.9,26.9 105,26.7 105.1,26.6 105.2,26.4 105.3,26.3 105.4,26.1 105.5,26 105.6,25.8 105.7,25.6 105.8,25.5 105.9,25.3 
	106,25.1 106.1,25 106.2,24.8 106.2,24.8 "/>
<polygon class="st2" points="123.5,24.8 108.7,33.5 108.6,33.3 108.4,33 108.2,32.7 108,32.5 107.8,32.2 107.6,31.9 107.4,31.6 
	107.2,31.4 107,31.1 106.8,30.8 106.6,30.6 106.4,30.3 106.2,30 106,29.8 105.9,29.6 "/>
<polygon class="st2" points="123.5,24.8 111,37.5 110.7,36.8 110.5,36.5 110.3,36.2 110.2,35.9 110,35.6 109.8,35.3 109.7,35 
	109.5,34.7 109.3,34.4 109.1,34.1 109,33.9 108.8,33.6 108.7,33.5 "/>
<polygon class="st2" points="123.5,24.8 117.3,35.8 117.2,35.8 116.9,35.8 116.6,35.9 116.2,36 115.9,36.1 115.6,36.2 115.2,36.3 
	114.9,36.4 114.6,36.5 114.2,36.6 113.9,36.7 113.5,36.8 113.1,36.9 112.8,37.1 112.4,37.2 112.1,37.3 111.1,37.6 111,37.5 "/>
<polygon class="st2" points="123.5,24.8 120.8,35.1 120.6,35.1 120.3,35.2 120,35.2 119.7,35.3 119.4,35.3 119.1,35.4 118.8,35.4 
	118.5,35.5 118.2,35.5 117.9,35.6 117.5,35.7 117.3,35.8 "/>
<polygon class="st2" points="123.5,24.8 123.5,42.2 123.4,42.2 123.2,42.2 123,42.1 122.8,42.1 122.6,42 122.5,42 122.3,41.9 
	122.1,41.8 122,41.7 121.8,41.6 121.7,41.4 121.6,41.3 121.5,41.1 121.4,40.8 121.4,40.6 121.3,40.4 121.4,35.1 121.2,35.1 
	120.9,35.1 120.8,35.1 "/>
<polygon class="st2" points="123.5,24.8 126.2,35.1 126,35.1 125.8,35.1 125.8,40.6 125.7,40.8 125.7,41 125.6,41.2 125.5,41.4 
	125.4,41.5 125.2,41.6 125.1,41.8 124.9,41.9 124.8,41.9 124.6,42 124.4,42.1 124.2,42.1 124.1,42.1 123.9,42.2 123.7,42.2 
	123.5,42.2 123.5,42.2 "/>
<polygon class="st2" points="123.5,24.8 129.7,35.7 129.4,35.7 129.1,35.6 128.7,35.5 128.4,35.5 128.1,35.4 127.7,35.4 127.4,35.3 
	127,35.3 126.7,35.2 126.4,35.2 126.2,35.1 "/>
<polygon class="st2" points="123.5,24.8 136,37.6 135.6,37.4 135.3,37.3 134.9,37.2 134.6,37.1 134.2,36.9 133.9,36.8 133.5,36.7 
	133.2,36.6 132.9,36.5 132.5,36.4 132.2,36.3 131.8,36.2 131.5,36.2 131.1,36.1 130.8,36 130.4,35.9 130.1,35.8 129.8,35.8 
	129.7,35.7 "/>
<polygon class="st2" points="123.5,24.8 138.4,33.6 138.3,33.8 138.1,34.1 138,34.4 137.8,34.7 137.7,35 137.6,35.3 137.4,35.6 
	137.3,35.9 137.2,36.2 137.1,36.5 137,36.8 136.6,37.8 136,37.6 "/>
<polygon class="st2" points="123.5,24.8 141.1,29.6 141,29.7 140.8,29.9 140.6,30.2 140.4,30.4 140.2,30.7 140,31 139.8,31.3 
	139.6,31.5 139.4,31.8 139.3,32.1 139.1,32.3 138.9,32.6 138.8,32.9 138.6,33.2 138.4,33.5 138.4,33.6 "/>
<polygon class="st2" points="123.5,24.8 140.9,24.8 140.9,24.9 141,25.1 141.1,25.3 141.2,25.4 141.3,25.6 141.4,25.8 141.5,25.9 
	141.6,26.1 141.7,26.2 141.8,26.4 141.9,26.5 142,26.7 142.1,26.8 142.2,27 142.3,27.1 142.8,27.8 142.1,28.4 141.9,28.7 
	141.7,28.9 141.5,29.2 141.2,29.4 141.1,29.6 "/>
<polygon class="st2" points="123.5,24.8 136.3,21.3 136.2,21.4 139.4,21.4 139.7,22.1 139.7,22.2 139.8,22.4 139.9,22.6 139.9,22.8 
	140,23 140.1,23.2 140.2,23.4 140.3,23.5 140.3,23.7 140.4,23.9 140.5,24.1 140.6,24.3 140.7,24.4 140.8,24.6 140.8,24.8 
	140.9,24.8 "/>
<polygon class="st2" points="123.5,24.8 138.4,16 138.4,16 138.4,16.1 138.5,16.3 138.5,16.4 138.6,16.5 138.6,16.6 138.7,16.7 
	138.7,16.8 138.7,17 138.8,17.1 138.9,17.2 138.9,17.3 139,17.4 139,17.5 139.1,17.7 139.1,17.8 139.4,18.4 136.3,21.3 "/>
<polygon class="st2" points="123.5,24.8 134.9,13.1 135,13.1 135.1,13.2 135.3,13.2 135.4,13.3 135.5,13.3 135.7,13.3 135.8,13.3 
	135.9,13.4 136,13.4 136.2,13.4 136.3,13.4 136.4,13.5 136.6,13.5 136.7,13.5 136.9,13.5 137,13.6 137.1,13.6 137.8,13.6 
	137.9,14.3 137.9,14.4 137.9,14.5 138,14.6 138,14.7 138,14.8 138.1,15 138.1,15.1 138.1,15.2 138.2,15.3 138.2,15.4 138.2,15.6 
	138.3,15.7 138.3,15.8 138.4,15.9 138.4,16 "/>
<polygon class="st2" points="123.5,24.8 130,13.3 130,14.6 132.9,12.4 133.3,12.6 133.4,12.6 133.6,12.7 133.7,12.7 133.8,12.8 
	133.9,12.8 134,12.9 134.2,12.9 134.3,12.9 134.4,13 134.5,13 134.6,13.1 134.8,13.1 134.9,13.1 134.9,13.1 "/>
<polygon class="st2" points="123.5,24.8 127.4,9.8 127.4,9.8 127.6,9.9 127.8,10 128,10.1 128.2,10.2 128.4,10.2 128.6,10.3 
	128.8,10.4 129,10.5 129.1,10.6 129.3,10.7 129.9,10.9 130,13.3 "/>
<polygon class="st2" points="123.5,24.8 123.5,7.6 123.9,7.9 124,8 124.2,8.1 124.4,8.2 124.6,8.3 124.7,8.4 124.9,8.5 125.1,8.6 
	125.3,8.7 125.4,8.8 125.6,8.9 125.8,8.9 126,9 126.2,9.2 126.3,9.2 126.5,9.3 126.7,9.4 126.9,9.5 127.1,9.6 127.3,9.7 127.4,9.8 
	"/>
<path class="st2" d="M122.1,34.3c-3.2,0.2-6.6,1-10.6,2.5c-1.7-3.3-3.7-6.4-6.4-9c1.3-1.6,2.2-3.5,2.8-5.5l4.4-0.2l-4-4.1
	c0.6-1.1,1.1-2.3,1.3-3.8c1.4-0.1,2.9-0.6,4.4-1l3.7,2.8l0.1-4.6c2-0.9,3.8-1.9,5.7-3.1c1.9,1.1,3.9,2.2,5.9,3l0.1,4.6l3.6-2.8
	c1.4,0.6,2.8,0.9,4.2,1.1c0.3,1.4,0.8,2.7,1.4,3.9l-3.5,3.3l0.3,0.6l3.6-0.1c0.7,2,1.7,3.9,2.9,5.6c-2.7,2.6-4.5,5.7-5.7,9.2
	c-3.8-1.5-7.5-2.2-11.1-2.6l0,6.3c0,1.2-3,1.3-3-0.1L122.1,34.3L122.1,34.3z"/>
<path class="st0" d="M150.8,53.9c0.1-2.4,1.9-4.7,4.3-4.3c0.7,0.1-0.1,3.2-1.4,3.5C152.8,53.7,151.8,54.1,150.8,53.9L150.8,53.9z
	 M150.5,58.4c5.9-1.2,8.7-4.6,8.9-8c0.2-2.3-0.5-4.9-2.6-5.2c-0.7-0.1-4.9-0.9-7.8,3.4c-1,1.4-1.8,3.4-2.3,6.2
	c-0.9,5.2,0.4,12.1,12.6,5.6c1.2-1.5,1.1-3.9-1.1-3.5C153.8,59.7,151.1,60.3,150.5,58.4L150.5,58.4z M135.4,61.7
	c0.7-3.9,1.4-7.9,2.1-11.8c-0.9-0.1-1.7-0.2-2.3-0.7c-0.3-1.2-0.1-2.5,0.5-3.8c3.4,0.7,4.2-4.8,5.1-11.3c2.1-2.3,3.6-1.9,4.7,0.3
	l-1.6,9.5l5.2,0.1c1.1,3.4-1,5.4-6.3,5.7c-0.5,4.2-1.2,8.3-2.5,12.2C138.6,63.1,137,63.6,135.4,61.7L135.4,61.7z M132.2,50.2
	c1.6-0.2,1.1-5.3-1.4-4.8c-7.6,1.4-12.9,6.1-11.6,11.6c1.9,8.2,11.3,9.1,14.3,3.6l-0.3-3.9c-4.6,2.5-8.4,2.5-8.9-0.5
	C123.7,52.9,128.9,50.6,132.2,50.2L132.2,50.2z M108.2,55.7c-0.8,3,1.7,4.5,3.6,2.7c0.2-0.2,1.1-2.7,1.4-3.5
	c0.1-0.4,0.2-2.2,0.1-3.2c-0.3-2.2-2.1-1.1-2.9-0.5C109.1,52.2,108.6,54,108.2,55.7L108.2,55.7z M103.6,54.3
	c0.8-5.5,7.1-11.6,12.9-6.7c4.4,3.9,2.2,11.6-2.9,15.4C108.4,66.7,102.4,62.4,103.6,54.3L103.6,54.3z M80.7,62.9
	c2.7-8.2,5-16.6,5.9-26.1c1.3-1.3,2.9-1.2,4.6-0.6l5.5,15.4c3.5-12.8,7.3-16.1,11.5-19.5c4.4-3.6,9.5-0.4,5.4,2.7
	c-11.3,8.5-11.8,17.7-14,27.1c-1.9,3.6-3.6,4.7-4.8,0.3c-1.1-5.4-2.2-10.8-4.7-14.5c-0.7,5.2-2.2,10.4-4.9,15.6
	C82.5,65,80.5,64.9,80.7,62.9L80.7,62.9z"/>
<path class="st0" d="M131.1,66.3l-3.5,4.7l-3.6-4.7h-1.4v7.8h1.4v-4.8c0-0.3,0-0.5,0-0.8c0.1,0.3,0.3,0.6,0.5,0.8l2.9,3.9h0.3
	l2.9-3.9c0.2-0.3,0.3-0.5,0.4-0.8c0,0.4-0.1,0.7-0.1,0.8v4.8h1.6v-7.8L131.1,66.3L131.1,66.3z"/>
<path class="st0" d="M118.1,66.3h-1.7l-3.5,6.4h-5.1v-6.4h-1.8v7.8c0-0.1,7.8,0,7.8,0l0.9-1.7h4.9l0.9,1.7h2L118.1,66.3L118.1,66.3z
	 M115.4,71l1.7-3.2l1.6,3.2H115.4z"/>
<polygon class="st0" points="102.3,71.1 79.9,71.1 79.9,70.1 102.3,70.1 "/>
<polygon class="st0" points="157.7,71.1 135.3,71.1 135.3,70.1 157.7,70.1 "/>
<path class="st0" d="M131.6,24.2c0-0.6,0.5-1.3,1.2-1.2c0.2,0,0,0.9-0.4,0.9C132.2,24.2,131.9,24.2,131.6,24.2z M131.5,25.4
	c1.6-0.3,2.3-1.2,2.4-2.1c0.1-0.6-0.1-1.3-0.7-1.4c-0.8-0.1-1.7,0.2-2.1,0.9c-0.3,0.5-0.5,1.1-0.6,1.7c-0.2,1.4,0.1,3.2,3.4,1.5
	c0.3-0.4,0.3-1-0.3-0.9C132.4,25.8,131.7,25.9,131.5,25.4L131.5,25.4z M127.5,26.3l0.6-3.2c-0.2,0-0.4-0.1-0.6-0.2
	c-0.1-0.3,0-0.7,0.1-1c0.9,0.2,1.1-1.3,1.4-3c0.6-0.6,1-0.5,1.3,0.1c-0.1,0.8-0.3,1.7-0.4,2.5l1.4,0c0.3,0.9-0.3,1.4-1.7,1.5
	c-0.1,1.1-0.3,2.2-0.7,3.3C128.3,26.7,127.9,26.8,127.5,26.3L127.5,26.3z M126.6,23.2c0.4-0.1,0.3-1.4-0.4-1.3
	c-2,0.4-3.5,1.6-3.1,3.1c0.5,2.2,3,2.5,3.8,1l-0.1-1c-1.2,0.7-2.3,0.7-2.4-0.1C124.3,23.9,125.7,23.3,126.6,23.2L126.6,23.2z
	 M120.2,24.7c-0.2,0.8,0.4,1.2,1,0.7c0.1-0.3,0.3-0.6,0.4-0.9c0.1-0.3,0.1-0.6,0-0.9c-0.1-0.6-0.6-0.3-0.8-0.1
	C120.4,23.7,120.3,24.2,120.2,24.7L120.2,24.7z M118.9,24.3c0.2-1.5,1.9-3.1,3.5-1.8c1.2,1,0.6,3.1-0.8,4.1
	C120.2,27.7,118.6,26.5,118.9,24.3z M112.8,26.6c0.7-2.2,1.3-4.5,1.6-7c0.3-0.3,0.8-0.3,1.2-0.2c0.5,1.4,1,2.7,1.5,4.1
	c0.9-3.4,2-4.3,3.1-5.2c1.2-1,2.6-0.1,1.5,0.7c-3,2.3-3.1,4.7-3.8,7.3c-0.5,1-1,1.3-1.3,0.1c-0.3-1.5-0.6-2.9-1.3-3.9
	c-0.2,1.5-0.6,2.9-1.3,4.2C113.3,27.2,112.7,27.2,112.8,26.6L112.8,26.6z"/>
<path class="st0" d="M119.3,29.7h2v-0.4h-1.5v-1.7h-0.5V29.7L119.3,29.7z M121.4,29.7h0.5l0.2-0.5h1.3l0.2,0.5h0.5l-1.2-2.1h-0.5
	L121.4,29.7L121.4,29.7z M122.4,28.8l0.5-0.8l0.4,0.8H122.4z M124.3,29.7h0.4v-1.3c0-0.1,0-0.1,0-0.2c0,0.1,0.1,0.1,0.1,0.2l0.8,1
	h0.1l0.8-1c0.1-0.1,0.1-0.1,0.1-0.2c0,0.1,0,0.2,0,0.2v1.3h0.4v-2.1h-0.4l-0.9,1.3l-1-1.3h-0.4L124.3,29.7L124.3,29.7z"/>
<path class="st0" d="M102.5,75.5c-0.7-0.8-1.5-0.7-2.2,0c-2.4,2.5-3.6,5.8-5.2,8.9c-0.3,0.6-0.9,0.8-0.8,0c0.2-2.2,0.3-4.3,0.5-6.4
	c-1.1,2.7-3.4,6.8-6.6,7.3C87.2,85.3,86,85,86,83.7c0-0.5,0.1-0.9,0.4-1.3c0.4-0.5,1.1-0.4,1.1,0.4c0,0.7-1.4,2.3,0.7,1.9
	c3.1-0.6,5.5-4.7,6.6-7.3c0.2-0.3,0.3-0.9,0.6-1.4c0.1-0.3,0.3-0.5,0.6-0.6c0.8-0.3,0.2,1,0.1,1.4c-0.2,1.8-0.3,3.7-0.4,5.5
	c1-2,3.3-7.1,5.2-8.2C101.7,73.8,102.6,74,102.5,75.5L102.5,75.5z"/>
<path class="st0" d="M100.4,81.1c-0.5-1.5-2.6,0-3.3,1.7c-0.3,0.7-0.6,2.1,0.6,1.8c0.5-0.1,1-0.5,1.5-1c-0.2,1.1,0.6,0.9,1.3,0.5
	c1-0.6,1.6-1.8,2.2-2.8c0.6,0.7,1.4,0.5,2.3-0.1c-0.9,1.1-2.1,1.9-3.2,2.8c-0.3,0.3,0,0.9,0.2,0.5c0.2-0.4,0.8-1,1.2-0.5
	c0.2,0.2,0.2,0.6-0.1,1c-0.7,0.6-1.5,1.2-2.2,1.9c-0.9,0.9-1.8,1.8-2.6,2.8c-0.5,0.6-1,1.4-1.3,2.2c-0.6,2,1.2,1.6,2.4,0.6
	c1.4-1.2,2.6-2.6,3.5-4.2c0.8-1.4,1-2.1,1.2-3.8c0.6-0.6,1.1-1.2,1.7-1.8c-1,2.4,0.8,2.4,2.1,0.8c-0.1,2.6,2.2,0,2.7-0.7
	c0.4-0.6,0.7-1.2,1.2-1.7c0.1-0.2,0.4-0.2,0.6-0.1c0.2,0.2,0.1,0.4,0,0.6c0,0,0,0,0,0c-0.5,0.6-0.8,1.2-1.2,1.9
	c-0.4,1,0.6,1.3,1.3,0.7c0.6-0.4,1.1-1,1.6-1.6v-0.6c-0.5,0.5-0.9,1.1-1.4,1.6s-0.7,0.3-0.5-0.2c0.2-0.5,0.5-1,0.8-1.4
	c0.2-0.4,0.6-1.1-0.1-1.2l-0.5-0.1c-0.3-0.3-0.2-0.5,0.2-0.8c-0.2-0.6-1.3,0.2-1,0.9c-0.6,0.9-1.2,2-1.9,2.7
	c-0.6,0.6-1.2,0.6-0.5-0.6c0.3-0.6,0.7-1.1,1-1.7c0.2-0.4,0.5-0.7-0.2-0.7c-0.3,0-0.6,0.2-0.8,0.6c-0.2-1.9-2.8,0.7-3.3,1.2
	l-1.7,1.9c-0.1-0.5-0.5-0.7-1-0.8c0.8-0.4,3-1.6,2.4-2.8c-1.2,0.4-2.4,0.8-1.9-0.4c-0.3-0.4-0.7,0-0.8,0.3c-0.3,1-1,1.8-1.7,2.7
	c-0.7,1-1.2,0.6-0.6-0.3l0.9-1.5c0.2-0.3,0.4-1.1-0.3-0.8C100.8,80.8,100.6,81,100.4,81.1L100.4,81.1z M99.9,81.1
	c0.3,0.2,0,1-0.6,1.9c-0.6,0.8-1.3,1.3-1.6,1.1c-0.3-0.2,0-1,0.6-1.9C98.9,81.4,99.6,80.9,99.9,81.1z M108.7,81.1
	c0.3,0.2,0,1.1-0.6,1.9s-1.3,1.4-1.7,1.2c-0.3-0.2,0-1.1,0.6-1.9C107.6,81.4,108.4,80.9,108.7,81.1z M103,85.6c-0.8,2-1.7,3.9-3,5.6
	c-2.2,3-3.8,2.2-1.6-0.9C99.8,88.4,101.4,87,103,85.6z"/>
<path class="st0" d="M120.6,77.8l0.7,0.1c-0.4,2-0.9,4-1.3,5.9c-0.1,0.5-0.8,0.3-0.9-0.1l-0.8-3.5l-0.8,3.8
	c-0.1,0.4-0.9,0.4-0.8-0.1l1.3-5c0.1-0.2,0.1-0.4,0.1-0.6c0.6,0.2,0.8,0.2,0.9,0.7c0.1,1,0.6,3.4,0.6,3.4S120.6,77.8,120.6,77.8z"/>
<path class="st0" d="M123.7,78l1.2,0.2l-0.2,6l-0.8,0.1c0-0.4-0.1-0.8-0.1-1.3c-0.1-0.5-0.1-0.7-0.4-0.6c-0.4,0.1-0.8,0.2-1.1,0.3
	l-0.7,1.8l-0.9-0.1L123.7,78z M123.8,79.5c-0.3,0.5-0.5,1.1-0.8,1.6c-0.3,0.6-0.1,0.5,0.6,0.6c0.4,0,0.3,0,0.3-0.4
	C123.9,80.6,123.8,80,123.8,79.5L123.8,79.5z"/>
<path class="st0" d="M129.8,81.1c0.4,0.3,0,0.6-0.4,0.4c-1.9-1.3-1.4-4.1,0.2-5.3c1.3-1,3.5-0.4,5.1-0.3c0.4,0,0.8-0.1,1-0.4
	c0.1-0.1,0.2,0,0.1,0.2c-0.7,1.3-1.5,2.6-2.2,3.8l1.9,0.1c1-1.5,2.5-4.5,4.5-4.9c0.5-0.1,1,0.2,1.4,1c-0.4-0.3-0.8-0.6-1.3-0.5
	c-1.3,0.2-2.8,3.2-3.4,4.3l1.5,0.1l-0.1,0.4c-0.5,0-1.1,0-1.6,0l-1.2,2.3c-0.3,0.7-0.8,2.5,0.6,1.4c0.8-0.7,1.2-1.5,1.9-2.2
	c0.6-0.6,1.9-1.6,2.6-0.5c0.3-0.1,0.4-0.3,0.6-0.4c0.5-0.2,0.6,0.3,0.3,0.7c-0.4,0.6-0.6,1.2-0.9,1.9c-0.4,0.9,0,0.8,0.5,0.3
	c0.7-0.8,1.4-1.6,1.9-2.5c-0.2,0-0.4,0-0.6,0c0.1-0.1,0.1-0.2,0.2-0.3l0.6,0l1.5-2.5c0.3-0.5,0.5-0.8,1.1-0.6c0.2,0.1,0,0.2-0.1,0.4
	c-0.6,0.8-1,1.8-1.5,2.6c0.3,0,0.6,0,0.9,0c0,0.1,0,0.2,0.1,0.4l-1.2,0l-0.8,2c-0.4,1,0,1.3,0.8,0.3l1.2-1.5c0.4-0.5,0.8-1,1.5-1.2
	c1.1-0.3,2,0.3,0.6,1.7c-0.3,0.4-0.8,0.7-1.3,0.8c-0.9,0.2-0.5,1.3,0.3,0.9c0.7-0.3,1.4-1.2,2-2c0.4-0.4,0.8-0.7,1.1-1.1
	c0.4-0.4,1.4-0.7,1.1,0.1c-0.2,0.6-0.8,1.4-1,1.8c-0.3,0.7-0.6,1.6,0.3,0.8c0.4-0.4,0.8-0.9,1.2-1.4c0.6-0.8,1.3-1.7,1.9-1.8
	c0.4,0,0.6,0,0.2,0.6c-1.9,3.6-3.7,7.3-5.3,11.1c-0.1,0.3,0.1,0.4,0.3,0.2c1.6-3.2,3-6.2,4.7-9.2l0.5-0.8c0.2-0.4,0.5-0.1,0.2,0.3
	c-1.7,2.6-3.1,5.5-4.6,8.6c-0.3,0.5-0.5,1-0.8,1.5c-0.8,1.3-1.7,0.2-1.1-0.9c0.1-0.3,0.3-0.7,0.5-1l4.2-8.9
	c-0.8,0.9-1.5,2.1-2.5,2.4c-2,0.7-0.3-2.2,0-2.7c-1,0.8-2.1,2.8-3.5,2.9c-1,0-1.1-0.7-1.1-1.6c-1.1,2-3.6,2.6-2.3-0.6
	c-0.5,0.6-3.1,3.9-3.1,1.3c-1,0.8-2.7,1.6-2.2-0.6c-1.3,2.3-4,1.9-2.7-1c0.2-0.5,0.5-1,0.8-1.5c0.3-0.5,0.3-0.7-0.1-0.7
	s-0.8,0-1.2,0c-0.4,0-0.5,0.3-0.6,0.6c-0.9,1.6-1.8,3.1-3.5,4c-1.4,0.7-2.8,0.3-2.8-1.4c0-1.3,1.2-1.6,1.4-0.7c0.1,0.5,0,0.6-0.3,1
	c-0.5,0.6,0,1.4,0.8,1.1c0.2-0.1,0.5-0.2,0.7-0.4c1.3-1.1,2.1-2.6,2.8-4.1l-1.2,0l0.2-0.4l1.2,0c0.8-1.3,1.5-2.3,2.6-3.4
	c-1.9-0.1-4.8-0.7-5.8,1.4C128.5,78.9,128.7,80.3,129.8,81.1L129.8,81.1z M140.2,81c-0.3-0.2-1,0.3-1.7,1.1
	c-0.6,0.8-0.9,1.7-0.6,1.9s1-0.3,1.7-1.1C140.2,82.1,140.5,81.3,140.2,81L140.2,81z M146.5,82.6c1.7-1.6,1-2.9-0.4-0.2
	C145.9,82.8,146.1,83,146.5,82.6z"/>
<path class="st0" d="M137.3,7.1c0.3,0,0.6,0.1,0.8,0.2c0.3,0.1,0.5,0.3,0.6,0.6c0.1,0.3,0.2,0.5,0.2,0.8c0,0.3-0.1,0.6-0.2,0.8
	c-0.1,0.3-0.3,0.5-0.6,0.6c-0.5,0.3-1.1,0.3-1.6,0c-0.3-0.1-0.5-0.3-0.6-0.6c-0.1-0.3-0.2-0.5-0.2-0.8c0-0.3,0.1-0.6,0.2-0.8
	c0.1-0.3,0.3-0.5,0.6-0.6C136.7,7.1,137,7.1,137.3,7.1L137.3,7.1z M137.3,7.3c-0.2,0-0.5,0.1-0.7,0.2s-0.4,0.3-0.5,0.5
	c-0.1,0.2-0.2,0.4-0.2,0.7c0,0.2,0.1,0.5,0.2,0.7c0.1,0.2,0.3,0.4,0.5,0.5c0.4,0.2,0.9,0.2,1.3,0c0.2-0.1,0.4-0.3,0.5-0.5
	c0.1-0.2,0.2-0.4,0.2-0.7c0-0.2-0.1-0.5-0.2-0.7c-0.1-0.2-0.3-0.4-0.5-0.5C137.8,7.4,137.5,7.3,137.3,7.3L137.3,7.3z M137.8,8.9
	c-0.1,0.2-0.3,0.4-0.5,0.4c-0.1,0-0.3-0.1-0.4-0.2c-0.1-0.1-0.2-0.3-0.1-0.5c0-0.2,0-0.4,0.2-0.5c0.1-0.1,0.2-0.2,0.4-0.2
	c0.1,0,0.2,0,0.3,0.1c0.1,0.1,0.1,0.1,0.2,0.2l0.3-0.1c0-0.1-0.1-0.3-0.3-0.4c-0.1-0.1-0.3-0.1-0.5-0.1s-0.3,0-0.5,0.1
	c-0.1,0.1-0.2,0.2-0.3,0.3c-0.1,0.2-0.1,0.3-0.1,0.5c0,0.3,0.1,0.5,0.2,0.7c0.3,0.3,0.8,0.3,1.1,0.1c0.1-0.1,0.2-0.3,0.3-0.4
	L137.8,8.9z"/>
</svg>
