<?xml version="1.0" encoding="utf-8"?>
<!-- Generator: Adobe Illustrator 24.0.0, SVG Export Plug-In . SVG Version: 6.00 Build 0)  -->
<svg version="1.1" id="Layer_1" xmlns="http://www.w3.org/2000/svg" xmlns:xlink="http://www.w3.org/1999/xlink" x="0px" y="0px"
	 viewBox="0 0 240 100" style="enable-background:new 0 0 240 100;" xml:space="preserve">
<style type="text/css">
	.st0{fill:#1C1C1A;}
	.st1{font-family:'AGAvantGardeCyrBook';}
	.st2{font-size:9.2436px;}
	.st3{clip-path:url(#SVGID_2_);fill:#1C1C1A;}
	.st4{clip-path:url(#SVGID_4_);fill:#1C1C1A;}
	.st5{clip-path:url(#SVGID_6_);fill:#1C1C1A;}
	.st6{clip-path:url(#SVGID_8_);fill:#1C1C1A;}
</style>
<g>
	<path class="st0" d="M18.5,59.1V29.6h12.6c2.8,0,5.1,0.9,6.8,2.8c1.7,1.8,2.6,4.1,2.6,6.8c0,2.7-0.9,5-2.6,6.8
		c-1.7,1.8-4,2.7-6.8,2.7l-8.9,0v10.4H18.5z M22.2,45.4l8.7,0c1.9,0,3.4-0.6,4.4-1.8s1.6-2.7,1.6-4.5c0-1.8-0.5-3.2-1.6-4.4
		c-1.1-1.1-2.5-1.7-4.5-1.7h-8.7V45.4z"/>
	<path class="st0" d="M52.4,33.7c2.9-3,6.4-4.4,10.6-4.4c4.1,0,7.6,1.5,10.5,4.4c2.9,2.9,4.4,6.5,4.4,10.7c0,4.2-1.5,7.7-4.4,10.7
		c-2.9,3-6.4,4.4-10.6,4.4c-4.2,0-7.7-1.5-10.6-4.4c-2.9-3-4.3-6.5-4.3-10.7C48,40.2,49.5,36.6,52.4,33.7 M55,52.6
		c2.1,2.3,4.8,3.4,8,3.4c3.2,0,5.8-1.1,8-3.4c2.1-2.3,3.2-5,3.2-8.2c0-3.2-1.1-6-3.2-8.2c-2.1-2.3-4.8-3.4-8-3.4
		c-3.2,0-5.8,1.1-8,3.4c-2.2,2.3-3.2,5-3.2,8.2C51.7,47.6,52.8,50.3,55,52.6"/>
	<path class="st0" d="M86.1,59.1V29.6h12.6c2.8,0,5.1,0.9,6.8,2.8c1.7,1.8,2.6,4.1,2.6,6.8c0,2.7-0.9,5-2.6,6.8
		c-1.7,1.8-4,2.7-6.8,2.7l-8.9,0v10.4H86.1z M89.8,45.4l8.7,0c1.9,0,3.4-0.6,4.4-1.8c1.1-1.2,1.6-2.7,1.6-4.5c0-1.8-0.5-3.2-1.6-4.4
		c-1.1-1.1-2.5-1.7-4.5-1.7h-8.7V45.4z"/>
	<path class="st0" d="M132.8,59.1V48.7l-8.9,0c-2.8,0-5.1-0.9-6.8-2.7c-1.7-1.8-2.6-4.1-2.6-6.8c0-2.7,0.9-4.9,2.6-6.8
		c1.7-1.8,4-2.8,6.8-2.8h12.6v29.6H132.8z M132.8,32.9h-8.7c-1.9,0-3.4,0.6-4.5,1.7c-1.1,1.1-1.6,2.6-1.6,4.4c0,1.8,0.5,3.3,1.6,4.5
		c1.1,1.2,2.6,1.8,4.4,1.8l8.7,0V32.9z"/>
	<rect x="146.7" y="29.6" class="st0" width="3.6" height="29.6"/>
	<polygon class="st0" points="163.7,29.6 180.8,53.6 180.8,29.6 184.4,29.6 184.4,59.1 180.7,59.1 163.5,35.1 163.5,59.1 
		159.9,59.1 159.9,29.6 	"/>
	<path class="st0" d="M196.6,31.3c2.2-1.4,4.8-2.2,8-2.2c4,0,7.5,1.1,10.4,3.4v3.9c-3.3-2.6-6.8-3.8-10.5-3.8
		c-2.1,0-3.9,0.4-5.4,1.3c-1.5,0.8-2.2,2-2.2,3.6c0,0.6,0.1,1.1,0.4,1.5c0.3,0.5,0.6,0.8,1.1,1.1c0.4,0.3,1,0.6,1.8,0.9
		c0.8,0.3,1.5,0.5,2.2,0.7c0.6,0.2,1.5,0.4,2.6,0.6c1.7,0.4,3.2,0.8,4.4,1.2c1.2,0.4,2.4,1,3.4,1.7c1,0.7,1.8,1.5,2.3,2.5
		c0.5,1,0.8,2.1,0.8,3.4c0,2.6-1.1,4.7-3.2,6.1c-2.2,1.4-4.8,2.2-7.9,2.2c-2.2,0-4.2-0.3-5.9-0.8c-1.7-0.6-3.5-1.4-5.4-2.5v-3.9
		c3.6,2.5,7.4,3.8,11.4,3.8c2.2,0,4-0.4,5.3-1.2c1.4-0.8,2.1-2,2.1-3.5c0-1.4-0.6-2.4-1.8-3.2c-1.2-0.8-3-1.5-5.5-2
		c-1.2-0.3-2.1-0.5-2.7-0.7c-0.6-0.2-1.4-0.4-2.4-0.7c-1-0.3-1.7-0.6-2.3-0.9c-0.5-0.3-1.1-0.6-1.8-1.1c-0.7-0.4-1.2-0.9-1.5-1.4
		c-0.3-0.5-0.6-1.1-0.8-1.7c-0.2-0.7-0.4-1.4-0.4-2.2C193.3,34.8,194.4,32.8,196.6,31.3"/>
	<text transform="matrix(1 0 0 1 114.9829 73.7168)" class="st0 st1 st2">POP-UP YOUR LIVING</text>
	<rect x="18.5" y="62.7" class="st0" width="197.5" height="0.8"/>
	<path class="st0" d="M212,24.3v0.5h1.6v4.4h0.6v-4.4h1.6v-0.5H212z M221,24.3l-1.8,2.7l-1.8-2.7h-0.6v4.9h0.5v-3.9l1.8,2.6h0
		l1.8-2.6v3.9h0.5v-4.9H221z"/>
	<g>
		<defs>
			<path id="SVGID_1_" d="M43,70.3c0,2.2,1.8,4.1,4.1,4.1c2.2,0,4.1-1.8,4.1-4.1c0-2.2-1.8-4.1-4.1-4.1C44.8,66.3,43,68.1,43,70.3"
				/>
		</defs>
		<clipPath id="SVGID_2_">
			<use xlink:href="#SVGID_1_"  style="overflow:visible;"/>
		</clipPath>
		<path class="st3" d="M43.3,76.4c0-0.1,0-0.3,0-0.4c-0.1-1.5-0.1-3-0.2-4.5c0-0.4,0-0.7-0.1-1.1c0-0.8,0.2-1.6,0.7-2.3
			c0.1-0.1,0.1-0.1,0.2-0.2c0.8-0.1,1.5-0.2,2.3-0.3c1.5-0.2,2.5,1.6,1.9,2.7c-0.2,0.3-0.4,0.6-0.6,0.9c-1.3,1.7-2.6,3.3-3.9,5
			C43.5,76.3,43.4,76.4,43.3,76.4C43.3,76.5,43.3,76.4,43.3,76.4"/>
		<path class="st3" d="M45.6,74.1c0.2-0.2,0.3-0.4,0.5-0.7c0.7-0.9,1.3-1.7,2-2.6c0.3-0.4,0.5-1,0.4-1.5c-0.1-0.8-0.5-1.4-1.2-1.8
			c-0.4-0.2-0.8-0.2-1.2-0.1c-0.6,0.1-1.2,0.2-1.8,0.2c-0.1,0-0.1,0-0.2,0c0.8-1,2.8-1.8,4.6-1c2,0.9,2.9,3.4,2,5.4
			C49.6,74.2,47.2,74.8,45.6,74.1"/>
	</g>
	<g>
		<defs>
			<path id="SVGID_3_" d="M53.6,70.3c0,2.2,1.8,4.1,4.1,4.1c2.2,0,4.1-1.8,4.1-4.1c0-2.2-1.8-4.1-4.1-4.1
				C55.4,66.3,53.6,68.1,53.6,70.3"/>
		</defs>
		<clipPath id="SVGID_4_">
			<use xlink:href="#SVGID_3_"  style="overflow:visible;"/>
		</clipPath>
		<path class="st4" d="M53.9,76.4c0-0.1,0-0.3,0-0.4c-0.1-1.5-0.1-3-0.2-4.5c0-0.4,0-0.7-0.1-1.1c0-0.8,0.2-1.6,0.7-2.3
			c0.1-0.1,0.1-0.1,0.2-0.2c0.8-0.1,1.5-0.2,2.3-0.3c1.5-0.2,2.5,1.6,1.9,2.7c-0.2,0.3-0.4,0.6-0.6,0.9c-1.3,1.7-2.6,3.3-3.9,5
			C54.1,76.3,54,76.4,53.9,76.4C53.9,76.5,53.9,76.4,53.9,76.4"/>
		<path class="st4" d="M56.2,74.1c0.2-0.2,0.3-0.4,0.5-0.7c0.7-0.9,1.3-1.7,2-2.6c0.3-0.4,0.5-1,0.4-1.5c-0.1-0.8-0.5-1.4-1.2-1.8
			c-0.4-0.2-0.8-0.2-1.2-0.1c-0.6,0.1-1.2,0.2-1.8,0.2c-0.1,0-0.1,0-0.2,0c0.8-1,2.8-1.8,4.6-1c2,0.9,2.9,3.4,2,5.4
			C60.2,74.2,57.8,74.8,56.2,74.1"/>
	</g>
	<g>
		<defs>
			<path id="SVGID_5_" d="M64.2,70.3c0,2.2,1.8,4.1,4.1,4.1c2.2,0,4.1-1.8,4.1-4.1c0-2.2-1.8-4.1-4.1-4.1
				C66,66.3,64.2,68.1,64.2,70.3"/>
		</defs>
		<clipPath id="SVGID_6_">
			<use xlink:href="#SVGID_5_"  style="overflow:visible;"/>
		</clipPath>
		<path class="st5" d="M64.5,76.4c0-0.1,0-0.3,0-0.4c-0.1-1.5-0.1-3-0.2-4.5c0-0.4,0-0.7-0.1-1.1c0-0.8,0.2-1.6,0.7-2.3
			c0.1-0.1,0.1-0.1,0.2-0.2c0.8-0.1,1.5-0.2,2.3-0.3c1.5-0.2,2.5,1.6,1.9,2.7c-0.2,0.3-0.4,0.6-0.6,0.9c-1.3,1.7-2.6,3.3-3.9,5
			C64.7,76.3,64.6,76.4,64.5,76.4C64.5,76.5,64.5,76.4,64.5,76.4"/>
		<path class="st5" d="M66.8,74.1c0.2-0.2,0.3-0.4,0.5-0.7c0.7-0.9,1.3-1.7,2-2.6c0.3-0.4,0.5-1,0.4-1.5c-0.1-0.8-0.5-1.4-1.2-1.8
			c-0.4-0.2-0.8-0.2-1.2-0.1c-0.6,0.1-1.2,0.2-1.8,0.2c-0.1,0-0.1,0-0.2,0c0.8-1,2.8-1.8,4.6-1c2,0.9,2.9,3.4,2,5.4
			C70.8,74.2,68.4,74.8,66.8,74.1"/>
	</g>
	<g>
		<defs>
			<path id="SVGID_7_" d="M74.8,70.3c0,2.2,1.8,4.1,4.1,4.1c2.2,0,4.1-1.8,4.1-4.1c0-2.2-1.8-4.1-4.1-4.1
				C76.6,66.3,74.8,68.1,74.8,70.3"/>
		</defs>
		<clipPath id="SVGID_8_">
			<use xlink:href="#SVGID_7_"  style="overflow:visible;"/>
		</clipPath>
		<path class="st6" d="M75.1,76.4c0-0.1,0-0.3,0-0.4c-0.1-1.5-0.1-3-0.2-4.5c0-0.4,0-0.7-0.1-1.1c0-0.8,0.2-1.6,0.7-2.3
			c0.1-0.1,0.1-0.1,0.2-0.2c0.8-0.1,1.5-0.2,2.3-0.3c1.5-0.2,2.5,1.6,1.9,2.7c-0.2,0.3-0.4,0.6-0.6,0.9c-1.3,1.7-2.6,3.3-3.9,5
			C75.3,76.3,75.2,76.4,75.1,76.4C75.1,76.5,75.1,76.4,75.1,76.4"/>
		<path class="st6" d="M77.4,74.1c0.2-0.2,0.3-0.4,0.5-0.7c0.7-0.9,1.3-1.7,2-2.6c0.3-0.4,0.5-1,0.4-1.5c-0.1-0.8-0.5-1.4-1.2-1.8
			c-0.4-0.2-0.8-0.2-1.2-0.1c-0.6,0.1-1.2,0.2-1.8,0.2c-0.1,0-0.1,0-0.2,0c0.8-1,2.8-1.8,4.6-1c2,0.9,2.9,3.4,2,5.4
			C81.4,74.2,79,74.8,77.4,74.1"/>
	</g>
</g>
</svg>
