<?xml version="1.0" encoding="utf-8"?>
<!-- Generator: Adobe Illustrator 24.0.0, SVG Export Plug-In . SVG Version: 6.00 Build 0)  -->
<svg version="1.1" id="Layer_1" xmlns="http://www.w3.org/2000/svg" xmlns:xlink="http://www.w3.org/1999/xlink" x="0px" y="0px"
	 viewBox="0 0 240 100" style="enable-background:new 0 0 240 100;" xml:space="preserve">
<style type="text/css">
	.st0{fill-rule:evenodd;clip-rule:evenodd;fill:#1C1C1A;}
</style>
<g>
	<path class="st0" d="M144.7,88.6v-1.2c0.3,0.2,0.6,0.4,1,0.5c0.2,0.1,0.5,0.1,0.7,0.1c0.2,0,0.4,0,0.5-0.1s0.2-0.2,0.2-0.3
		c0-0.1,0-0.2-0.1-0.3c-0.2-0.1-0.3-0.2-0.5-0.3c-0.5-0.2-1.1-0.4-1.5-0.9c-0.3-0.3-0.4-0.6-0.4-1.1c0-0.4,0.2-0.9,0.5-1.1
		c0.4-0.3,0.9-0.4,1.4-0.4c0.3,0,0.6,0,0.9,0.1c0.3,0.1,0.6,0.2,0.9,0.3v1.1c-0.3-0.2-0.6-0.3-1-0.4c-0.2-0.1-0.5-0.1-0.7-0.1
		s-0.4,0-0.5,0.1s-0.2,0.2-0.2,0.3s0.1,0.2,0.2,0.3c0.2,0.1,0.3,0.2,0.5,0.3l0.2,0.1c0.3,0.1,0.7,0.3,1.1,0.4
		c0.2,0.1,0.4,0.3,0.5,0.5c0.1,0.2,0.2,0.5,0.2,0.7c0,0.4-0.2,0.9-0.5,1.2c-0.4,0.3-1,0.4-1.5,0.4C145.9,89.2,145.2,89,144.7,88.6
		 M138.6,89.1v-5.2h3.5v0.9H140V86h2v1h-2v1.3h2.2v1h-3.6V89.1z M133.2,89.1v-4.3h-1.7v-1h4.8v1h-1.7v4.3H133.2z M124.5,89.1
		l2.2-5.2h1.5l2,5.2h-1.4l-0.4-1h-2.2l-0.4,1H124.5z M126.6,87.1h1.5l-0.7-1.9L126.6,87.1z M118.4,85.9v3.3H117v-5.2h1.2l2.9,3.1
		v-3.2h1.3v5.3h-1L118.4,85.9z M113,89.1v-5.2h1.3v5.2H113z M104.5,89.1v-5.2h1.2l1.6,2l1.6-2h1.2v5.2h-1.4v-3.3l-1.5,1.9l-1.5-1.9
		v3.3H104.5z M96.6,89.1l2.2-5.2h1.5l2,5.2H101l-0.4-1h-2.2l-0.3,1H96.6z M98.7,87.1h1.5l-0.7-1.9L98.7,87.1z M91.4,89.1v-5.2h1.3
		v4.3h2.2v1h-3.6V89.1z"/>
	<path class="st0" d="M142.7,79.8l8.1-16.7h1.7l8.3,16.7h-2.2l-2.2-4.5h-9.2l-2.1,4.5H142.7z M148.1,73.4h7.3l-3.7-7.3L148.1,73.4z
		 M134.7,79.8h-1.3l-8-16.7h2.2l6.4,13.3l6.5-13.3h2.2L134.7,79.8z M119.3,79.8V63.1h2v16.8h-2V79.8z M98.8,79.8V63.1h9.6
		c1.6,0,3,0.4,3.8,1.2c1,0.9,1.4,1.9,1.4,3.5c0.1,2.3-1.6,4.4-4,4.7l4.1,7.3h-2.2l-4.3-7.2h-6.5v7.2C100.6,79.8,98.8,79.8,98.8,79.8
		z M100.9,70.6h7.3c1.1,0,1.8-0.2,2.3-0.6c0.5-0.4,0.9-1.2,0.9-2c0.1-0.7-0.2-1.5-0.9-2c-0.5-0.5-1.3-0.7-2.2-0.7h-7.5v5.4H100.9z
		 M79,79.8V63.1h9.6c1.6,0,3,0.4,3.8,1.2c1,0.7,1.4,1.9,1.4,3.4c0,1.4-0.4,2.6-1.3,3.6c-0.9,0.9-2,1.3-3.6,1.3H81v7.2H79z M81,70.6
		h7.4c1.1,0,1.8-0.2,2.3-0.6c0.5-0.4,0.9-1.2,0.9-2c0.1-0.7-0.2-1.5-0.9-2c-0.5-0.5-1.3-0.7-2.2-0.7H81C81,65.2,81,70.6,81,70.6z"/>
	<path class="st0" d="M120.2,57.7l-5.9-12.1l2-4.1l0.6,1.2l1.5,3.2l1.7,3.6L131.7,26l2,4.1C129.4,39.1,124.8,48.5,120.2,57.7
		 M127.9,1.1l23.5,48.3h-23.1l1.7-3.7h15.5L127.8,9.4l-8.8,18.1l0,0l-0.3,0.6l-0.3,0.6l-0.3,0.6l-0.3,0.6l-0.3,0.7l-0.3,0.6
		l-0.3,0.6l-0.3,0.6l-0.3,0.6l-0.3,0.7l-0.3,0.6l-0.3,0.6l-0.3,0.6l-0.3,0.6l-0.3,0.6l-0.3,0.6l-0.3,0.6l-0.3,0.6l-0.3,0.6l-0.5,1.2
		l-0.3,0.6l-0.3,0.6l-0.3,0.6l-0.2,0.3l-4.9,10.1h-4.1l6.2-12.6l2-4.1l-3.4-6.9l-2.5-5.2L94.8,44.8h7.7l-1.7,3.7H88.4l16-32.7
		l5.3,10.9v0.9l0.1,0.2l0.1,0.2l0.1,0.2l0.1,0.2l0.1,0.2l0.1,0.2l0.1,0.2l0.1,0.2l0.1,0.2l0.1,0.2l0.1,0.2l0.1,0.2l0.1,0.2l0.1,0.2
		l0.1,0.2l0.1,0.2l0.1,0.2l0.1,0.2l0.1,0.2l0.6,0.9l0.1,0.2l2-4.1l1.6-3.4l11.6-23L127.9,1.1z"/>
	<path class="st0" d="M158.6,65.3v-2.5h0.5l0.5,1.7c0.1,0.2,0.1,0.3,0.1,0.4c0-0.1,0.1-0.2,0.1-0.4l0.6-1.7h0.4v2.5h-0.1v-2l-0.7,2
		h-0.3l-0.7-2.1v2.1H158.6z M157.1,65.3v-2.1h-0.9v-0.3h1.9v0.3h-0.9v2.1H157.1z"/>
	<path class="st0" d="M98.6,98c0.1-0.1,0.1-0.2,0.2-0.3v-0.1l0.1-0.1l0,0c0,0,0,0,0.1-0.1l0.2-0.6c0-0.1,0.1-0.1,0.1-0.2
		c0-0.1,0.1-0.1,0.1-0.3c0,0,0,0-0.1,0.1v0.1h-0.1c0,0.1-0.1,0.1-0.1,0.1l0,0c0,0-0.1,0-0.1,0.1l-0.1,0.1v0.1c0,0.1-0.1,0.1-0.1,0.2
		c0,0.1-0.1,0.1-0.1,0.1l0,0v0.1c0,0.1,0,0.1-0.1,0.2c0,0,0,0.1-0.1,0.1v0.1v0.1C98.6,97.7,98.6,97.9,98.6,98L98.6,98z M100.8,95.1
		h0.1h0.1l0,0h0.1c0,0,0.1,0,0.1,0.1c0.1,0,0.2-0.1,0.3-0.1h0.1l0,0c0,0,0,0,0-0.1s0-0.1,0.1-0.1c0.1-0.1,0.1-0.1,0.1-0.2l0.1-0.1
		l0.1-0.2c0-0.1,0.1-0.1,0.1-0.2v-0.1V94c0-0.1,0-0.1-0.1-0.1l-0.1,0.1l0,0h-0.1c0,0,0,0-0.1,0s0,0-0.1,0h-0.1h-0.1
		c0,0-0.1,0-0.1,0.1l0,0l0,0h-0.1c0,0.1-0.1,0.1-0.1,0.1l-0.1,0.1h-0.1c0,0,0,0-0.1,0.1l-0.1,0.1h-0.1l-0.1,0.1l0.2,0.2l0,0l0,0v0.1
		l0,0c-0.1,0-0.1,0.1-0.1,0.2v0.1l0,0c0,0,0,0,0.1,0S100.5,95.2,100.8,95.1C100.6,95.1,100.6,95.1,100.8,95.1L100.8,95.1z M105,92.2
		V92l0,0c0-0.1,0.1-0.2,0.1-0.2c0.1,0,0.1,0,0.2-0.1c0.1,0,0.1,0.1,0.2,0.1c0.1,0.1,0.1,0.1,0.1,0.2l0,0v0.1c0,0.1,0,0.1-0.1,0.1
		c-0.1,0-0.1,0.1-0.2,0.1s-0.1,0-0.1-0.1C105.1,92.3,105,92.3,105,92.2L105,92.2z M110.9,92.2V92l0,0c0-0.1,0.1-0.2,0.1-0.2
		c0.1,0,0.1,0,0.2-0.1c0.1,0,0.1,0.1,0.1,0.1c0.1,0.1,0.1,0.1,0.1,0.2l0,0v0.1c0,0.1,0,0.1-0.1,0.1c-0.1,0-0.1,0.1-0.2,0.1
		s-0.1,0-0.1-0.1C110.9,92.3,110.9,92.3,110.9,92.2L110.9,92.2z M117.7,96.2h-0.1h-0.1l0,0c-0.1,0.1-0.1,0.1-0.2,0.1
		c-0.1,0-0.2,0.1-0.2,0.1l-0.1,0.1l0,0c0,0-0.1,0-0.1,0.1c0,0-0.1,0-0.1,0.1h-0.1c-0.1,0.1-0.1,0.2-0.1,0.2h-0.1l0,0
		c0,0.1-0.1,0.1-0.1,0.1s0,0-0.1,0.1c-0.1,0.1-0.1,0.1-0.1,0.1c-0.1,0-0.1,0.1-0.1,0.1s0,0.1-0.1,0.1s-0.1,0.1,0,0.1v0.1
		c0,0.1,0,0.1,0,0.1c0,0.1,0,0.1,0,0.1s0,0.1,0.1,0.1h0.1l0.3-0.1l0.1-0.1l0.1-0.1l0.1-0.1l0.1-0.1l0.1-0.1l0.2-0.2l0.1-0.1
		c0,0,0-0.1,0.1-0.1v-0.1l0,0l0.1-0.1l0.1-0.2C117.6,96.6,117.6,96.5,117.7,96.2L117.7,96.2L117.7,96.2L117.7,96.2z M117.6,94.9
		L117.6,94.9c0.1-0.1,0.1-0.1,0.1-0.1s0.1,0,0.1-0.1c0.1-0.1,0.1-0.2,0.2-0.2l0,0c0-0.1,0.1-0.1,0.1-0.1s0.1,0,0.1-0.1v-0.1l0,0
		h-0.1c0,0,0,0-0.1,0h-0.1c-0.1,0-0.1,0.1-0.2,0.1l-0.1,0.1h-0.1c0,0-0.1,0-0.1,0.1s0,0.1-0.1,0.1l0,0c0,0,0,0-0.1,0
		c0,0-0.1,0-0.1,0.1l-0.1,0.1c-0.1,0.1-0.1,0.1-0.2,0.1c0,0-0.1,0-0.1,0.1c-0.1,0-0.1,0.1-0.1,0.1l-0.1,0.1c0,0-0.1,0-0.1,0.1l0,0
		l-0.1,0.1c0,0,0,0.1-0.1,0.1l0,0c0.1,0,0.1,0,0.2-0.1c0.1-0.1,0.1-0.1,0.1-0.1s0,0,0.1,0h0.2l0.1-0.1c0,0,0.1,0,0.1-0.1
		C117,95,117,95,117.1,95L117.6,94.9L117.6,94.9L117.6,94.9z M116.1,98.5L116.1,98.5c-0.1,0.1-0.1,0.1-0.1,0.1
		c-0.1,0-0.2-0.1-0.2-0.1c-0.1-0.1-0.1-0.2-0.1-0.3c0-0.1,0-0.3,0.1-0.4c0-0.1,0.1-0.1,0.1-0.2c0,0,0-0.1,0.1-0.2
		c0.1-0.1,0.1-0.2,0.2-0.3s0.1-0.1,0.1-0.2l0,0c0-0.1,0.1-0.1,0.1-0.1s0.1-0.1,0.2-0.2c0.1-0.1,0.2-0.2,0.3-0.3v-0.1L117,96l0.3-0.1
		c0.1-0.1,0.1-0.1,0.2-0.1l0,0h0.1c0.1,0,0.2-0.1,0.3-0.1c0.1,0,0.2-0.1,0.2-0.1l0.1-0.1c0-0.1,0.1-0.1,0.1-0.2c0-0.1,0-0.1,0-0.1
		v-0.1c0,0,0-0.1,0.1-0.1c0-0.1,0-0.1,0.1-0.1l0,0v-0.1c0-0.1,0-0.1,0.1-0.1l0,0v-0.1l0.1-0.1l0,0l0,0l0,0c-0.1,0.1-0.2,0.1-0.3,0.1
		l-0.1,0.1c-0.1,0-0.1,0.1-0.1,0.1l0,0l0,0l0,0c0,0-0.1,0-0.1,0.1h-0.1c0,0,0,0,0,0.1s-0.1,0.1-0.1,0.1s-0.1,0-0.1,0.1l0,0l0,0
		c-0.1,0-0.1,0-0.1,0.1c0,0.1,0,0.1-0.1,0.1h-0.1h-0.1c0,0.1-0.1,0.1-0.1,0.1l-0.1,0.1h-0.1c0,0-0.1,0-0.1,0.1c-0.1,0-0.1,0.1-0.2,0
		s-0.1-0.1-0.2-0.1c-0.1,0-0.1-0.2-0.2-0.4l0,0h-0.1c0,0,0,0-0.1,0s-0.1,0-0.1-0.1l0,0H116c0,0-0.1,0-0.1,0.1l-0.2,0.1v0.1h-0.1l0,0
		c0,0.1-0.1,0.1-0.2,0.1h-0.1c0,0,0,0-0.1,0h-0.1H115h-0.1c0,0-0.1,0-0.1-0.1l-0.1-0.1c0-0.1-0.1-0.1-0.1-0.2c0,0,0,0,0-0.1
		c0,0,0,0,0-0.1v-0.1l0,0c0,0,0,0,0-0.1c0-0.1,0-0.1,0-0.1v-0.1c0,0,0,0,0-0.1s0,0,0-0.1c0-0.1,0,0,0-0.1V94v-0.1v-0.1
		c0-0.1,0-0.1-0.1-0.1c0,0-0.1,0-0.1,0.1l0,0c-0.1,0-0.1,0.1-0.2,0.1h-0.1c0,0-0.1,0-0.1,0.1l0,0c0,0,0,0-0.1,0.1
		c-0.1,0.1-0.1,0.1-0.2,0.1c-0.1,0.1-0.2,0.2-0.3,0.3c-0.1,0.1-0.1,0.1-0.2,0.1c0,0-0.1,0-0.1,0.1c0,0,0,0-0.1,0.1l-0.1,0.1
		c0,0-0.1,0-0.1-0.1l-0.1,0.1c0,0.1-0.1,0.1-0.1,0.1s0,0,0,0.1l0,0l0,0c0,0-0.1,0-0.1,0.1l-0.1,0.1c0,0.1-0.1,0.1-0.1,0.1s0,0-0.1,0
		h-0.1c-0.1,0-0.1-0.1-0.1-0.1c0-0.1-0.1-0.1-0.1-0.1c0-0.3,0.1-0.5,0.2-0.5l0,0l0,0c0,0,0-0.1,0.1-0.1l0.1-0.1c0,0,0-0.1,0.1-0.1
		h0.1c0,0,0,0,0-0.1c0,0,0,0,0-0.1c0-0.1,0,0,0-0.1s0-0.1,0.1-0.1l0.1-0.1l0,0c0,0.1-0.1,0.1-0.1,0.1l-0.1,0.1h-0.1
		c-0.1,0.1-0.1,0.1-0.2,0.1l-0.1,0.1l0,0c0,0-0.1,0-0.1,0.1l0,0h-0.1l0,0c0,0.1,0,0.1-0.1,0.1s-0.1,0.1-0.1,0.1
		c0,0.1-0.1,0.1-0.1,0.1c-0.1,0.1-0.1,0.1-0.2,0.1l-0.1,0.1L111,95l0,0h-0.1c-0.1,0-0.1,0-0.1,0.1h-0.1h-0.1c0,0-0.1,0-0.1,0.1
		s0,0-0.1,0h-0.1h-0.1c-0.1,0-0.1,0-0.2-0.1s-0.1-0.1-0.1-0.2l0,0v-0.1v-0.1v-0.1v-0.1l0,0c0-0.1,0-0.1,0-0.1v-0.1v-0.1v-0.1V94
		v-0.1v-0.1v-0.1v-0.1c0-0.1,0-0.1,0-0.1v-0.1v-0.1l0,0c0,0-0.1,0-0.1,0.1h-0.1c0,0,0,0-0.1,0s0,0,0,0s-0.1,0-0.1,0.1l0,0h-0.1l0,0
		c0,0-0.1,0-0.1,0.1c0,0.1-0.1,0.1-0.1,0.1h-0.1c0,0-0.1,0-0.1,0.1l-0.1,0.1c0,0-0.1,0-0.1,0.1l0,0v0.1c0,0,0,0.1-0.1,0.1
		c0,0.1,0,0.1-0.1,0.1c-0.1,0-0.1,0.1-0.1,0.1c-0.1,0.1-0.1,0.1-0.2,0.2s-0.1,0.1-0.2,0.1l-0.1,0.1l0,0l0,0c0,0,0,0,0,0.1l0,0
		c0,0,0,0-0.1,0l0,0l0,0h-0.1l0,0l0,0c0,0,0,0.1-0.1,0.1s-0.2,0.1-0.3,0.1h-0.1l-0.1,0.1c0,0,0,0-0.1,0l-0.1,0.1h-0.1l-0.1-0.1
		c-0.1,0-0.1-0.1-0.2-0.2c0-0.1-0.1-0.1-0.1-0.2c0,0,0-0.1-0.1-0.1c0-0.1,0-0.2,0-0.3v-0.1c0,0,0-0.1,0.1-0.1c0-0.1,0.1-0.1,0.1-0.2
		c0.1-0.1,0.1-0.2,0.2-0.3l0.1-0.1l0.1-0.1v-0.1v-0.1v-0.1c0-0.1,0-0.1-0.1-0.1c0,0,0,0-0.1,0s-0.1,0.1-0.1,0.1s-0.1,0-0.1,0.1
		c0,0-0.1,0-0.1,0.1c-0.1,0-0.1,0.1-0.1,0.1h-0.1c0,0.1-0.1,0.1-0.1,0.1h-0.2c0,0,0,0,0,0.1l-0.1,0.1l-0.1,0.1h-0.1h-0.1l-0.1,0.1
		l-0.1,0.1l0,0l0,0c0,0.1,0,0.1-0.1,0.1l-0.1,0.1c0,0.1-0.1,0.1-0.1,0.1c-0.1,0.1-0.1,0.1-0.2,0.1l-0.1,0.1l-0.2,0.1l0,0h-0.1
		c-0.1,0-0.1,0-0.1,0.1h-0.1h-0.1c0,0-0.1,0-0.1,0.1c0,0,0,0-0.1,0h-0.1h-0.1c-0.1,0-0.1,0-0.2-0.1c-0.1,0-0.1-0.1-0.1-0.2l0,0v-0.1
		v-0.1c0-0.1,0-0.1,0-0.1v-0.1l0,0c0-0.1,0-0.1,0-0.1V94v-0.1v-0.1c0,0,0-0.1,0.1-0.1v-0.1v-0.1v-0.1v-0.1c0-0.1,0-0.1,0.1-0.1v-0.1
		c0,0,0-0.1-0.1-0.1c0,0-0.1,0-0.1,0.1h-0.1c0,0,0,0-0.1,0l0,0c0,0-0.1,0-0.1,0.1h0.1h-0.1l0,0c0,0-0.1,0-0.1,0.1s-0.1,0.1-0.1,0.1
		l-0.1,0.1c0,0,0,0-0.1,0.1c0,0,0,0.1-0.1,0.1c0,0,0,0.1-0.1,0.1c0,0-0.1,0-0.1,0.1s0,0-0.1,0.1c0,0,0,0.1-0.1,0.1h-0.1
		c-0.1,0.1-0.1,0.1-0.1,0.1l0,0l0,0l-0.1,0.1h-0.1h0.9c-0.2,0.2-0.3,0.3-0.3,0.3h-0.1c0,0,0,0,0,0.1c0,0,0,0.1-0.1,0.1l-0.1,0.1H102
		c-0.1,0-0.1,0-0.1,0.1l0,0h-0.1l0,0c-0.1,0-0.1,0-0.1,0.1l-0.1,0.1l0,0h-0.1h-0.1l0,0h-0.1l-0.1,0.1l0,0h-0.1H101c0,0,0,0-0.1,0.1
		l0,0l0,0h-0.1h-0.1c-0.1,0-0.1,0-0.1-0.1c-0.1,0-0.1-0.1-0.1-0.1v-0.1c0,0-0.1,0-0.1-0.1l0,0c0,0,0,0,0,0.1c0,0,0,0,0,0.1
		s0,0.1,0,0.1c0,0.1-0.1,0.2-0.1,0.3l-0.1,0.1l0,0c0,0.1,0,0.1-0.1,0.1c0,0.1,0,0.1-0.1,0.2l0,0v0.1c0,0.1-0.1,0.1-0.1,0.2v0.1
		c0,0-0.1,0.1-0.1,0.2s-0.1,0.2-0.1,0.3v0.1v0.1v0.1l0,0l0,0l0,0c0,0.1,0,0.1-0.1,0.2c0,0,0,0,0,0.1l-0.1,0.1c0,0.1-0.1,0.1-0.2,0.1
		L99,97.9c-0.1,0-0.3-0.1-0.3-0.2c0-0.1-0.1-0.1-0.1-0.1c-0.1-0.1-0.1-0.2-0.1-0.3l-0.1-0.1c0-0.1,0-0.2,0.1-0.3l0.1-0.1v-0.1v-0.1
		c0-0.1,0.1-0.1,0.1-0.1c0-0.1,0.1-0.2,0.1-0.2l0.1-0.1c0,0,0-0.1,0.1-0.1c0-0.1,0.1-0.1,0.1-0.2l0.1-0.1v-0.1c0-0.1,0-0.1,0.1-0.1
		c0,0,0.1,0,0.1-0.1v-0.1l0.1-0.1l0.1-0.1c0-0.1,0.1-0.1,0.1-0.1l0.1-0.1v-0.1l0.1-0.3c0-0.1,0.1-0.2,0.1-0.2v-0.1l0.1-0.1V94
		c0-0.1,0.1-0.3,0.1-0.4v-0.1v-0.1l0,0l0,0l0,0c-0.1,0-0.1,0-0.1,0v0.1c0,0,0,0.1-0.1,0.1l0,0h-0.1l-0.1,0.1l-0.1,0.1l0,0h-0.1
		l-0.1,0.1l0,0c0,0.1-0.1,0.1-0.1,0.1l0,0v0.1c0,0,0,0-0.1,0l0,0c0,0,0,0.1-0.1,0.1c-0.1,0.1-0.1,0.1-0.1,0.1H99v0.1
		c-0.1,0-0.1,0.1-0.1,0.1l0,0l0,0c-0.1,0.1-0.1,0.1-0.2,0.1h-0.1v0.1c0,0,0,0-0.1,0.1c-0.1,0-0.1,0.1-0.1,0.1L98.3,95
		c-0.1,0-0.1,0.1-0.2,0.1h-0.5c-0.1,0-0.1,0-0.2,0.1c-0.1,0.1-0.1,0.1-0.2,0.1s-0.2,0-0.3-0.1c-0.1,0-0.1-0.1-0.1-0.1L96.7,95
		c0,0,0-0.1-0.1-0.1c0,0,0,0,0-0.1c0-0.1,0.1-0.1,0.1-0.1c0-0.1,0.1-0.1,0.2-0.1H97h0.1c0,0,0.1,0,0.1,0.1l0,0h0.1c0,0,0,0,0.1,0
		c0.1,0,0.2,0,0.2-0.1l0,0l0,0c0,0,0,0,0-0.1l0.1-0.1l0.1-0.2l0,0v-0.1V94c0,0,0,0,0.1-0.1c0,0,0.1,0,0.1-0.1l0,0v-0.1v-0.1v-0.1
		l0,0v-0.1v-0.1v-0.1c0-0.1,0-0.1,0-0.1s-0.1,0-0.2,0.1c-0.1,0.1-0.1,0.1-0.2,0.2c0,0.1-0.1,0.1-0.1,0.1c-0.1,0-0.1,0.1-0.1,0.1
		s0,0.1-0.1,0.1L97,93.9l-0.3,0.2l-0.1,0.1l-0.2,0.2l-0.1,0.1l-0.1,0.1L96,94.7v0.1l0,0l0,0c0,0.1-0.1,0.1-0.2,0.1h-0.1
		c0,0,0,0-0.1,0l0,0.9h-0.1h-0.1c0,0-0.1,0-0.1-0.1l-0.1-0.1c0-0.1-0.1-0.1-0.1-0.2c0,0,0,0,0-0.1c0,0,0,0,0-0.1s0-0.1,0-0.1l0,0
		c0,0,0,0,0-0.1s0-0.1,0-0.1v-0.1c0,0,0,0,0-0.1c0-0.1,0,0,0-0.1s0,0,0-0.1v-0.2v-0.1v-0.1c0-0.1,0-0.1-0.1-0.1c0,0-0.1,0-0.1,0.1
		l0,0c-0.1,0-0.1,0.1-0.2,0.1h-0.1c0,0-0.1,0-0.1,0.1l0,0c0,0-0.1,0-0.1,0.1c-0.1,0.1-0.1,0.1-0.2,0.1c-0.1,0.1-0.2,0.2-0.3,0.3
		c-0.1,0.1-0.1,0.1-0.2,0.1c0,0-0.1,0-0.1,0.1c0,0,0,0-0.1,0.1l-0.1,0.1c0,0-0.1,0-0.1-0.1l-0.1,0.1L93,95.3c-0.1,0,0,0,0,0.1l0,0
		l0,0c0,0,0,0-0.1,0.1l-0.1,0.1c0,0.1-0.1,0.1-0.1,0.1s0,0-0.1,0h-0.1c0,0-0.1,0-0.1-0.1s-0.1-0.1-0.1-0.1c0-0.3,0.1-0.5,0.2-0.5
		l0,0l0,0c0,0,0-0.1,0.1-0.1l0.1-0.1c0,0,0-0.1,0.1-0.1h0.1c0,0,0,0,0-0.1c0,0,0,0,0-0.1s0,0,0-0.1s0-0.1,0.1-0.1l0.1-0.1l0,0
		c0,0.1-0.1,0.1-0.1,0.1l-0.1,0.1l0,0c-0.1,0.1-0.1,0.1-0.2,0.1l-0.1,0.1l0,0c0,0-0.1,0-0.1,0.1l0,0h-0.1l0,0c0,0.1,0,0.1-0.1,0.1
		s-0.1,0.1-0.1,0.1c0,0.1-0.1,0.1-0.1,0.1c-0.1,0.1-0.1,0.1-0.2,0.1l-0.1,0.1l-0.2,0.1l0,0h-0.1c-0.1,0-0.1,0-0.1,0.1h-0.1h-0.1
		c0,0-0.1,0-0.1,0.1c0,0,0,0-0.1,0h-0.1h-0.1c-0.1,0-0.1,0-0.2-0.1c-0.1,0-0.1-0.1-0.1-0.2l0,0v-0.1V95v-0.1v-0.1l0,0
		c0-0.1,0-0.1,0-0.1v-0.1v-0.1v-0.1v-0.1v-0.1v-0.1V94v-0.1c0-0.1,0-0.1,0.1-0.1v-0.1c0,0,0-0.1-0.1-0.1c0,0-0.1,0-0.1,0.1h-0.1
		c0,0,0,0-0.1,0l0,0c0,0-0.1,0-0.1,0.1l0,0H90l0,0c0,0-0.1,0-0.1,0.1S89.7,94,89.7,94h-0.1c0,0-0.1,0-0.1,0.1s-0.1,0.1-0.1,0.1
		s-0.1,0-0.1,0.1c-0.1,0-0.1,0-0.1-0.1V94l0,0l0.1-0.1l0,0c0,0,0.1,0,0.1-0.1l0,0c0-0.1,0.1-0.1,0.1-0.1l0.1-0.1c0,0,0,0,0.1,0
		l0.1-0.1c0.1-0.1,0.1-0.1,0.1-0.1h0.1l0.1-0.1c0.1,0,0.1-0.1,0.1-0.1h0.1c0.1,0,0.1-0.1,0.1-0.1l0.1-0.1c0.1,0,0.2,0.1,0.3,0.1
		c0.1,0.1,0.1,0.1,0.1,0.2l-0.1,0.3c-0.1,0.3-0.1,0.4-0.2,0.4v0.1l-0.1,0.1v0.1c0,0,0,0-0.1,0.1c-0.1,0,0,0,0,0v0.1
		c0,0,0,0.1-0.1,0.1l0,0h0.1h0.1l0.1-0.1h0.1c0.1,0,0.1-0.1,0.2-0.1l0.5-0.4c0.1-0.1,0.1-0.1,0.2-0.1l0,0c0-0.1,0.1-0.1,0.2-0.2
		c0.1-0.1,0.2-0.1,0.2-0.1c0.1-0.1,0.1-0.1,0.2-0.1l0,0c0.1,0,0.1-0.1,0.2-0.2c0-0.1,0.1-0.1,0.1-0.1c0.1,0,0.3,0.1,0.3,0.2
		c0.1,0.1,0.1,0.2,0.1,0.3v0.1c0,0.1,0,0.1,0,0.2l-0.1,0.1l0,0H93l0.1-0.1c0,0,0.1,0,0.1-0.1s0.1-0.1,0.1-0.1c0.1,0,0.1,0,0.1-0.1
		l0,0v-0.1c0.1,0,0.1-0.1,0.1-0.1l0.1-0.1c0.1,0,0.1,0,0.1-0.1h0.1h0.1c0,0,0,0,0.1,0l0.1-0.1h0.1c0.1,0,0.3,0.1,0.3,0.2
		c0.1,0.1,0.1,0.2,0.1,0.3v0.1v0.1l0,0v0.2v0.1c0,0.1,0,0.2-0.1,0.3l0,0l0,0l0.1,0.2c0,0.1,0,0.1,0.1,0.1h0.1c0.1,0,0.1-0.1,0.1-0.1
		c0.1,0,0.1-0.1,0.1-0.1c0-0.1,0-0.1,0.1-0.1l0,0l0,0l0,0c0-0.1,0-0.1,0.1-0.1c0-0.1,0.1-0.1,0.1-0.1l0.2-0.1l0,0l0,0h0.1l0,0l0,0
		l0,0l0,0h0.1l0,0l0.1-0.1l0,0l0,0L96,94l0.2-0.1c0.1-0.1,0.1-0.1,0.2-0.2c0.1-0.1,0.1-0.1,0.2-0.2l0.1-0.1c0,0,0-0.1,0.1-0.1
		c0-0.1,0.1-0.1,0.1-0.2c0-0.1,0.1-0.2,0.1-0.2c0.1-0.1,0.1-0.1,0.2-0.1s0.1,0,0.2,0.1c0.1,0.1,0.2,0.2,0.2,0.4
		c0.1,0.1,0.1,0.3,0.1,0.4c0,0.1,0,0.1,0,0.1v0.1V94v0.2l-0.1,0.1v0.1c0,0,0,0.1-0.1,0.1c0,0,0,0,0,0.1c0.1,0,0.2-0.1,0.2-0.1
		l0.1-0.1c0.1,0,0.1-0.1,0.1-0.1l0.1-0.1l0.1-0.1l0.1-0.1c0,0,0.1,0,0.1-0.1c0.1,0,0.1-0.1,0.2-0.1v-0.1c0-0.1,0.1-0.1,0.1-0.1l0,0
		l0,0h0.1l0,0c0,0,0,0,0.1,0v-0.1c0,0,0,0,0.1-0.1l0.1-0.1c0.1-0.1,0.2-0.2,0.3-0.4c0,0,0-0.1,0.1-0.1c0,0,0.1,0,0.1-0.1h0.1
		c0,0,0.1,0,0.1,0.1c0.1,0.1,0.1,0.2,0.1,0.3l-0.1,0.5l0,0l0,0l0,0l0,0c0,0,0,0,0.1-0.1c0-0.1,0.1-0.1,0.1-0.1
		c0.1,0,0.1-0.1,0.1-0.1l0.1-0.1c0.1,0,0.1-0.1,0.2-0.1c0.1-0.1,0.1-0.1,0.2-0.1l0,0v-0.1c0.1,0,0.1-0.1,0.2-0.1l0.1-0.1
		c0.1,0,0.2-0.1,0.3-0.1h0.1h0.1l0,0l0,0c0.1,0,0.2,0.1,0.3,0.1s0.1,0.2,0.1,0.3l0,0c0,0,0,0,0,0.1v0.1l0,0l-0.1,0.3
		c0,0.1,0,0.2-0.1,0.2c-0.1,0.1-0.1,0.2-0.2,0.2c-0.1,0.1-0.1,0.1-0.1,0.2l0,0c0,0,0.1,0,0.1-0.1l0.2-0.1l0,0c0.1,0,0.1-0.1,0.1-0.1
		l0.1-0.1l0.1-0.1v-0.1c0,0,0,0,0.1,0c0,0,0,0,0.1,0l0,0l0.1-0.1l0,0l0,0l0,0l0,0l0,0l0,0l0,0c0-0.1,0.1-0.1,0.1-0.1l0.1-0.1
		c0,0,0,0,0.1,0l0.1-0.1c0.1-0.1,0.1-0.1,0.1-0.1h0.1l0.1-0.1c0.1,0,0.1-0.1,0.1-0.1h0.1c0.1,0,0.1-0.1,0.1-0.1l0.1-0.1
		c0.1,0,0.2,0.1,0.3,0.1c0.1,0.1,0.1,0.1,0.1,0.2l-0.1,0.3c-0.1,0.3-0.1,0.4-0.2,0.4v0.1l-0.1,0.1v0.1c0,0,0,0-0.1,0.1
		c-0.1,0,0,0,0,0v0.2c0,0,0,0.1-0.1,0.1l0,0h0.1h0.1l0.1-0.1h0.1c0.1,0,0.1-0.1,0.2-0.1l0.5-0.4c0.1-0.1,0.1-0.1,0.2-0.1l0,0
		l0.1-0.1c0.1-0.1,0.1-0.1,0.2-0.1c0,0,0.1,0,0.1-0.1s0.1-0.1,0.1-0.1c0.1,0,0.1-0.1,0.1-0.1c0.1-0.1,0.1-0.1,0.2-0.1l0.1-0.1h0.1
		v-0.1c0.1-0.1,0.2-0.1,0.3-0.2l0,0c0,0,0.1,0,0.1-0.1c0.1-0.1,0.2-0.2,0.4-0.1c0.2,0,0.3,0.1,0.3,0.3v0.1c0,0.1,0.1,0.2,0.1,0.2
		c0,0.1,0.1,0.1,0.1,0.2c0,0.1,0,0.2-0.1,0.2c-0.1,0.1-0.2,0.2-0.3,0.3l0,0c0,0.1-0.1,0.1-0.1,0.1c-0.1,0-0.1,0-0.1,0.1V94l0,0
		c0,0,0,0.1-0.1,0.1v0.1v0.1c0,0,0,0.1-0.1,0.1c0,0,0,0,0,0.1s0.1,0.1,0.2,0.1h0.1h0.1c0,0,0,0,0.1,0c0,0,0.1,0,0.1-0.1
		c0.1,0,0.1,0,0.1-0.1c0-0.1,0.1-0.1,0.1-0.1c0.1,0,0.1-0.1,0.1-0.1l0.1-0.1c0.1,0,0.1-0.1,0.1-0.1l0.1-0.1c0.1-0.1,0.2-0.1,0.2-0.2
		l0.1-0.1l0.1-0.1c0-0.1,0.1-0.1,0.1-0.1l0.1-0.1l0,0c0,0,0.1,0,0.1-0.1l0,0c0-0.1,0.1-0.1,0.1-0.1l0.1-0.1c0,0,0,0,0.1,0l0.1-0.1
		l0.1-0.1h0.1c0-0.1,0.1-0.1,0.1-0.1c0.1,0,0.1-0.1,0.1-0.1h0.1c0.1,0,0.1-0.1,0.1-0.1l0.1-0.1c0.1,0,0.2,0.1,0.3,0.1
		c0.1,0.1,0.1,0.1,0.1,0.2l-0.1,0.3c-0.1,0.3-0.1,0.4-0.2,0.4v0.1l-0.1,0.1v0.1c0,0,0,0-0.1,0.1c-0.1,0.1,0,0,0,0V94
		c0,0,0,0.1-0.1,0.1l0,0h0.1h0.1l0.1-0.1h0.1c0.1,0,0.1-0.1,0.2-0.1l0.5-0.4c0.1-0.1,0.1-0.1,0.2-0.1l0,0c0-0.1,0.1-0.1,0.2-0.2
		c0.1-0.1,0.2-0.1,0.2-0.1c0.1-0.1,0.1-0.1,0.2-0.1l0,0c0.1,0,0.2-0.1,0.2-0.2s0.1-0.1,0.1-0.1c0.1,0,0.3,0.1,0.3,0.2
		c0.1,0.1,0.1,0.2,0.1,0.3v0.1c0,0.1,0,0.1,0,0.2c0,0,0,0.1-0.1,0.1l0,0h0.1l0.1-0.1c0,0,0.1,0,0.1-0.1s0.1-0.1,0.1-0.1
		c0.1,0,0.1,0,0.1-0.1h0.1v-0.1c0.1,0,0.1-0.1,0.1-0.1l0.1-0.1c0.1,0,0.1,0,0.1-0.1h0.1h0.1c0,0,0,0,0.1,0l0.1-0.1h0.1
		c0.1,0,0.3,0.1,0.3,0.2c0.1,0.1,0.1,0.2,0.1,0.3v0.1v0.1l0,0v0.2v0.1c0,0.1,0,0.2-0.1,0.3l0,0l0,0l0.1,0.2c0,0.1,0.1,0.1,0.1,0.1
		h0.1c0.1,0,0.1-0.1,0.1-0.1c0.1,0,0.1-0.1,0.1-0.1c0-0.1,0.1-0.1,0.1-0.1l0,0l0,0l0,0c0-0.1,0-0.1,0.1-0.1c0-0.1,0.1-0.1,0.1-0.1
		l0.2-0.1l0.1-0.1h0.1l0,0l0.1-0.1c0,0,0.1,0,0.1,0.1v0.1v0.1l0.1-0.1c0.2-0.2,0.3-0.3,0.4-0.4c0.1-0.1,0.1-0.1,0.2-0.1l0.2-0.1
		l0.1-0.1c0,0,0,0,0.1,0s0.1-0.1,0.1-0.1h0.1c0.1,0,0.2-0.1,0.3-0.1h0.1h0.1c0.1,0,0.1-0.1,0.2-0.1h0.1h0.1h0.1
		c0.1,0,0.1,0.1,0.1,0.1s0,0.1,0.1,0.1c0.1,0,0,0,0.1-0.1h0.1h0.1c0.1,0,0.1,0,0.1,0.1l0,0l0,0c0,0.1,0,0.2,0,0.3
		c0,0.1,0,0.2-0.1,0.3c0,0.1-0.1,0.1-0.1,0.2c0,0.2-0.1,0.3-0.2,0.5c0,0-0.1,0.1-0.1,0.3l0,0l0,0v0.1c0,0.1-0.1,0.1-0.1,0.2
		s0,0.1-0.1,0.1c0,0,0.1,0,0.1,0.1c0.1,0,0.1,0.1,0.1,0.1l0.1,0.1c0,0.1,0,0.1-0.1,0.2c-0.1,0.1-0.2,0.1-0.3,0.1
		c-0.1,0-0.1,0-0.1-0.1l0,0l0,0h-0.1c0,0,0,0-0.1,0c-0.1,0,0,0,0,0l0,0l0,0c0,0-0.1,0-0.1,0.1c0,0,0,0.1-0.1,0.1
		c0,0.1-0.1,0.1-0.1,0.1c-0.1,0-0.1,0.1-0.1,0.1c0,0.1,0,0.1-0.1,0.2l0,0c-0.1,0.1-0.2,0.3-0.3,0.4c-0.1,0-0.1,0-0.1,0s0,0,0,0.1
		s0,0.1-0.1,0.1c-0.1,0-0.1,0.1-0.1,0.1l0,0l0,0c0,0.1-0.1,0.1-0.2,0.3c-0.1,0.1-0.1,0.1-0.1,0.1s-0.1,0.1-0.3,0.2l-0.1,0.1
		l-0.1,0.1L116.1,98.5z M129.5,93.8L129.5,93.8c-0.1,0.1-0.1,0.1-0.2,0.1c-0.1,0-0.1,0.1-0.2,0.1c-0.1,0.1-0.1,0.1-0.2,0.2
		c0,0.1-0.1,0.1-0.1,0.2l0,0l0.1-0.1c0.1,0,0.1-0.1,0.1-0.1c0.1-0.1,0.1-0.1,0.2-0.1l0,0l0.1-0.1l0.1-0.1l0,0
		C129.4,93.8,129.5,93.8,129.5,93.8c0,0,0.1,0,0.1-0.1s0-0.1-0.1-0.1h-0.1h-0.1C129.6,93.7,129.6,93.8,129.5,93.8L129.5,93.8z
		 M128.6,94.1L128.6,94.1c0.1-0.1,0.2-0.1,0.2-0.2s0.1-0.1,0.1-0.2l0.1-0.1c0.1-0.1,0.2-0.1,0.3-0.2l0.1-0.1l0,0h0.1
		c0.1,0,0.1,0,0.1,0s0.1,0,0.2,0h0.2h0.1h0.1c0,0,0.1,0,0.2,0.1c0.1,0,0.1,0.1,0.1,0.1c0,0.1-0.1,0.2-0.1,0.3
		c-0.1,0.1-0.1,0.1-0.2,0.1l-0.1,0.1c0,0-0.1,0-0.1,0.1c0,0,0,0-0.1,0l0,0l0,0c0,0-0.1,0.1-0.1,0.2h-0.1l-0.1,0.1l-0.1,0.1
		c-0.1,0.1-0.2,0.2-0.2,0.2h-0.1v0.1c0,0,0,0.1-0.1,0.1L129,95h-0.1l-0.1,0.1c-0.1,0-0.1,0-0.1,0v0.1c0,0.1,0,0.1,0,0.1
		c0,0.1,0.1,0.1,0.2,0.1h0.2c0.1,0,0.1,0,0.1-0.1c0.1,0,0.1,0,0.1,0h0.1l0,0c0-0.1,0.1-0.1,0.1-0.1l0.1-0.1l0,0c0,0,0-0.1,0.1-0.1
		l0,0c0,0,0,0,0.1,0h0.1l0,0c0-0.1,0.1-0.1,0.1-0.1c0.1,0,0.1,0,0.1-0.1l0.1-0.1c0,0,0.1,0,0.1-0.1l0.1-0.1c0,0,0.1,0,0.1-0.1l0,0
		l0,0l0,0l0,0l0,0l0,0l0,0c0,0,0-0.1,0.1-0.1l0.2-0.1c0-0.1,0-0.1,0.1-0.1h0.1c0,0,0,0,0.1,0c0,0,0.1,0,0.1,0.1v0.1v0.1v0.1
		l-0.1,0.1c0,0,0,0.1-0.1,0.1l0,0l-0.1,0.1c0,0-0.1,0-0.1,0.1l-0.1,0.2l-0.1,0.1c0,0,0,0-0.1,0l0,0l0,0c0,0-0.1,0-0.1,0.1v0.1
		c-0.1,0-0.1,0.1-0.2,0.1l0,0h-0.1c0,0-0.1,0-0.1,0.1s-0.1,0.1-0.1,0.1s-0.1,0-0.1,0.1l0,0c0,0-0.1,0-0.1,0.1l-0.3,0.1
		c0,0,0,0-0.1,0h-0.1c0,0,0,0-0.1,0l0,0H129c-0.1,0-0.1,0-0.2,0h-0.1h-0.1c-0.1,0-0.1-0.1-0.2-0.2h-0.1c-0.1-0.1-0.1-0.2-0.1-0.3
		c0,0-0.1,0-0.1-0.1l-0.1-0.1c0-0.1,0-0.2,0.1-0.3c0.1-0.1,0.1-0.1,0.1-0.1l0.1-0.2v-0.1l0.1-0.2C128.5,94.2,128.6,94.2,128.6,94.1
		L128.6,94.1z M132.7,94.7c0-0.1,0.1-0.1,0.1-0.1l0.1-0.1c0.1-0.1,0.2-0.1,0.2-0.2c0.1-0.1,0.1-0.2,0.1-0.2l0,0l0,0l0,0h-0.1H133
		h-0.1h-0.1h-0.1h-0.1c-0.1,0-0.1,0.1-0.2,0.1c-0.1,0-0.2,0.1-0.3,0.1c-0.1,0.1-0.1,0.1-0.2,0.1c-0.1,0.1-0.1,0.1-0.2,0.2
		c-0.1,0-0.1,0.1-0.1,0.1l-0.1,0.1v0.1c0,0-0.1,0-0.1,0.1s-0.1,0.1-0.1,0.1c0,0.1,0,0.1-0.1,0.1l-0.1,0.1c0,0.1,0,0.2,0.1,0.2
		s0.1,0,0.1-0.1c0-0.1,0.1,0,0.1-0.1h0.1h0.1l0,0l0,0c0,0,0.1,0,0.1-0.1c0,0,0.1,0,0.1-0.1L132,95l0.1-0.1c0,0,0.1,0,0.1-0.1
		C132.6,94.7,132.6,94.7,132.7,94.7L132.7,94.7z M135.9,92L135.9,92L135.9,92L135.9,92h0.1l0,0c0.1,0,0.1,0,0.2,0
		c0.1,0,0.1-0.1,0.1-0.1h0.1l0,0h0.1c0,0,0.1,0,0.1-0.1c0-0.1,0.1-0.1,0.1-0.2s0.1-0.1,0.1-0.2c0,0,0,0,0-0.1c0-0.1,0-0.1,0-0.1
		c0.1,0,0.1,0,0.1-0.1C137,91,137,91,137.1,91c0.1,0,0.1,0.1,0.1,0.2v0.2c0,0,0,0,0,0.1v0.1v0.1l0,0c0,0,0,0,0.1,0h0.1l0,0h0.1h0.1
		c0.1,0,0.1,0,0.1-0.1h0.1h0.1l0,0h0.1c0.1,0,0.1-0.1,0.2-0.1h0.1l0,0c0.1,0,0.1,0,0.1,0.1v0.1c0,0.1-0.1,0.1-0.1,0.1l-0.2,0.3
		c0,0.1-0.1,0.1-0.2,0.1c0,0-0.1,0-0.1-0.1l0,0h-0.1h-0.1c0,0-0.1,0-0.2,0.1h-0.1h-0.1H137c-0.1,0.1-0.1,0.1-0.2,0.2l0,0l-0.2,0.3
		c-0.1,0-0.1,0.1-0.1,0.1l0,0c0,0-0.1,0-0.1,0.1s-0.1,0.1-0.1,0.1l-0.1,0.1l-0.1,0.1c0,0.1-0.1,0.1-0.1,0.1v0.1c0,0,0,0,0,0.1l0,0
		l-0.1,0.1v0.1c0,0.1-0.1,0.2-0.1,0.2s0,0,0,0.1l0,0c0,0.1,0,0.2-0.1,0.2v0.1v0.2c0,0.1,0,0.1,0,0.1l0,0c0,0.1,0.1,0.2,0.1,0.3
		c0.1,0.1,0.1,0.3,0.1,0.4v0.1v0.1c0,0.1,0,0.1-0.1,0.1l-0.1,0.1c-0.1,0-0.3-0.1-0.3-0.3c-0.1-0.1-0.1-0.3-0.1-0.4v-0.2v-0.1v-0.4
		v-0.1l0.1-0.4v-0.1c0,0,0-0.1,0.1-0.1l0,0c0,0,0,0-0.1,0.1l-0.1,0.1v0.1l0,0c-0.1,0.1-0.1,0.1-0.1,0.2c-0.1,0-0.1,0.1-0.1,0.1
		c0,0.1-0.1,0.1-0.1,0.1l0,0c0,0.1-0.1,0.1-0.1,0.1l0,0c0,0.1-0.1,0.1-0.1,0.1c0,0.1-0.1,0.1-0.1,0.1l0,0c0,0-0.1,0-0.1,0.1
		c0,0.1-0.1,0.1-0.1,0.1v0.1c-0.1,0-0.1,0.1-0.1,0.1l-0.1,0.1c-0.1,0-0.1,0.1-0.1,0.1h-0.1l0,0l-0.1,0.1c0,0-0.1,0-0.1,0.1
		c0,0,0,0-0.1,0s-0.1,0-0.1,0c-0.1,0-0.1,0-0.1,0s0,0,0-0.1c0-0.1,0-0.1,0-0.1v-0.1V95l0,0l0,0l0,0l0,0c0,0,0,0,0-0.1l0,0v-0.2l0,0
		c0,0,0,0-0.1,0c0,0-0.1,0.1-0.1,0l-0.1,0.1l-0.1,0.1l0,0c0,0,0,0-0.1,0.1c0,0-0.1,0-0.1,0.1l0,0h-0.1c0,0,0,0.1-0.1,0.1
		c0,0.1-0.1,0.1-0.1,0.1l-0.3,0.3c-0.1,0-0.1,0.1-0.1,0.1l0,0c-0.1,0.1-0.3,0.2-0.5,0.2c-0.1,0-0.2,0-0.3-0.1
		c-0.1,0-0.1-0.1-0.2-0.1v-0.2c0-0.1,0-0.1,0-0.2v-0.1l0,0v-0.1c0,0,0-0.1,0.1-0.1v-0.1c0-0.1,0.1-0.1,0.1-0.1
		c0-0.1,0.1-0.1,0.1-0.1v-0.1c0,0,0-0.1,0.1-0.1l0.1-0.1c0-0.1,0.1-0.1,0.1-0.1l0.1-0.1c0.1-0.1,0.2-0.2,0.3-0.2l0.1-0.1
		c0.1-0.1,0.1-0.1,0.2-0.1s0.1-0.1,0.2-0.1c0.1,0,0.1-0.1,0.1-0.1l0,0c0.1,0,0.1-0.1,0.2-0.1l0,0h0.1l0,0h0.1c0,0,0,0,0.1,0
		c0.2,0,0.3,0.1,0.3,0.4c0,0.1,0,0.1,0,0.1l0.1-0.1c0.1-0.1,0.2-0.2,0.3-0.1c0.1,0,0.2,0.1,0.2,0.2c0,0.2-0.1,0.4-0.3,0.5v0.1
		l-0.1,0.2l0,0v0.1V95v-0.2v0.1V95c0.1,0,0.1-0.1,0.2-0.1l0.1-0.1l0,0l0.1-0.1l0.1-0.1c0,0,0.1,0,0.1-0.1s0.1-0.1,0.1-0.1
		c0.1,0,0.1-0.1,0.1-0.1c0.1-0.1,0.1-0.1,0.1-0.1l0,0l0,0c0,0,0-0.1,0.1-0.1C135,94,135,94,135.1,94l0.1-0.1l0,0
		c0-0.1,0-0.1,0.1-0.1l0,0l0,0l0,0l0,0l0,0c0-0.1,0-0.1,0.1-0.2c0.1-0.1,0.2-0.2,0.3-0.3c0.1-0.1,0.2-0.2,0.3-0.3
		c0-0.1,0.1-0.1,0.1-0.2c0.1-0.1,0.1-0.1,0.1-0.3l0,0l-0.2,0.1c0,0,0,0-0.1,0l-0.1,0.1c0,0,0,0-0.1,0h-0.1h-0.2
		c-0.1,0-0.3,0-0.4,0.1l-0.2,0.1l0,0h-0.1h-0.1c-0.1,0-0.1,0.1-0.2,0.1h-0.1l-0.4,0.1c-0.1,0.1-0.2,0.1-0.2,0.2l0,0
		c0,0-0.1,0-0.1-0.1s-0.1-0.1-0.1-0.2c0-0.3,0.2-0.4,0.7-0.5l0.2-0.1l0,0h0.1l0,0h0.1c0.1-0.1,0.2-0.1,0.3-0.1l0.2-0.1h0.1h0.1
		c0.1,0,0.1-0.1,0.2-0.1s0.1,0,0.1,0h0.1h0.1C135.7,91.9,135.8,91.9,135.9,92L135.9,92z M138.9,92.2V92l0,0c0-0.1,0-0.2,0.1-0.2
		s0.1,0,0.2-0.1c0.1,0,0.1,0.1,0.2,0.1c0.1,0.1,0.1,0.1,0.1,0.2l0,0v0.1c0,0.1,0,0.1-0.1,0.1s-0.1,0.1-0.2,0.1c-0.1,0-0.1,0-0.1-0.1
		C139,92.3,138.9,92.3,138.9,92.2L138.9,92.2z M140.7,95.5L140.7,95.5L140.7,95.5L140.7,95.5l0.1,0.1h0.1c0.1,0,0.1,0,0.2-0.1
		l0.1-0.1c0,0,0.1,0,0.1-0.1c0-0.1,0-0.1,0-0.1h0.1l0,0c0-0.1,0-0.1,0.1-0.1s0.1-0.1,0.1-0.1l0.1-0.1l0.1-0.1v-0.1c0,0,0,0,0-0.1
		l0.1-0.1c0-0.1,0-0.1,0-0.2s0-0.1-0.1-0.1c-0.1-0.1-0.1-0.1-0.1-0.2s0-0.1,0.1-0.2s0.1-0.1,0.1-0.1l0,0l0,0h-0.1
		c0,0-0.1,0.1-0.3,0.1h-0.1c0,0,0,0-0.1,0.1c0,0,0,0.1-0.1,0.1h-0.1c0,0,0,0-0.1,0.1l-0.1,0.1l-0.1,0.1c0,0.1,0,0.1-0.1,0.1
		l-0.1,0.1l-0.1,0.1l-0.1,0.2c0,0.1,0,0.1-0.1,0.2c0,0,0,0-0.1,0.1c0,0-0.1,0-0.1,0.1s0,0,0,0s0,0,0,0.1v0.1v0.1H140.7z M142,95.4
		l-0.2,0.2l0,0c0,0-0.1,0-0.1,0.1c-0.1,0.1-0.1,0.1-0.1,0.1l0,0c-0.1,0-0.1,0.1-0.1,0.1s-0.1,0-0.1,0.1h-0.1h-0.1c0,0-0.1,0-0.2,0
		h-0.1h-0.1h-0.1h-0.1c0,0-0.1,0-0.1-0.1l-0.1-0.1c0,0-0.1,0-0.1-0.1l-0.1-0.1c-0.1-0.1-0.1-0.1-0.1-0.2c0-0.1-0.1-0.1-0.1-0.2l0,0
		v-0.1V95v-0.1v-0.1l0.1-0.3c0,0,0,0,0-0.1l-0.1,0.1c0,0-0.1,0-0.1,0.1s0,0.1-0.1,0.1h-0.1v0.1c0,0.1-0.1,0.1-0.1,0.1
		c-0.1,0-0.1,0-0.1-0.1l0,0v0.1c0,0.1,0,0.1-0.1,0.1l-0.1,0.1c0,0.1-0.1,0.1-0.1,0.1c-0.1,0.1-0.1,0.1-0.2,0.1l-0.1,0.1l-0.2,0.1
		l0,0h-0.1c-0.1,0-0.1,0-0.1,0.1h-0.1h-0.1c0,0-0.1,0-0.1,0.1c0,0,0,0-0.1,0h0.3h-0.1c-0.1,0-0.1,0-0.2-0.1
		c-0.1-0.1-0.1-0.1-0.1-0.2l0,0v-0.1v-0.1v-0.1V95l0,0c0-0.1,0-0.1,0-0.1v-0.1v-0.1v-0.1v-0.1v-0.1v-0.1v-0.1v-0.1
		c0-0.1,0-0.1,0.1-0.1v-0.1v-0.1l0,0c0,0-0.1,0-0.1,0.1h-0.1c0,0,0,0-0.1,0l0,0c0,0-0.1,0-0.1,0.1l0,0h-0.1l0,0c0,0-0.1,0-0.1,0.1
		c0,0.1-0.1,0.1-0.1,0.1h-0.1c0,0-0.1,0-0.1,0.1s-0.1,0.1-0.1,0.1s-0.1,0-0.1,0.1c-0.1,0-0.1,0-0.1-0.1v-0.2l0,0l0.1-0.1l0,0
		c0,0,0.1,0,0.1-0.1l0,0c0-0.1,0.1-0.1,0.1-0.1l0.1-0.1c0,0,0,0,0.1,0l0.1-0.1l0.1-0.1h0.1c0-0.1,0.1-0.1,0.1-0.1
		c0.1,0,0.1-0.1,0.1-0.1h0.1c0.1,0,0.1-0.1,0.1-0.1l0.1-0.1c0.1,0,0.2,0.1,0.3,0.1c0.1,0.1,0.1,0.1,0.1,0.2l-0.1,0.3
		c-0.1,0.3-0.1,0.4-0.2,0.4v0.1l-0.1,0.1v0.1c0,0,0,0-0.1,0.1l0,0v0.2c0,0,0,0.1-0.1,0.1l0,0h0.1h0.1l0.1-0.1h0.1
		c0.1,0,0.1-0.1,0.2-0.1l0.5-0.4c0.1-0.1,0.1-0.1,0.2-0.1l0,0l0,0c0-0.1,0.1-0.1,0.1-0.1s0.1,0,0.1-0.1c0.1-0.1,0.1-0.1,0.2-0.2
		c0.1,0,0.1-0.1,0.1-0.1c0.1,0,0.1-0.1,0.1-0.1c0.1,0,0.1-0.1,0.1-0.1c0.1-0.1,0.2-0.1,0.3-0.2s0.2-0.1,0.3-0.1h0.1h0.1
		c0,0,0.1,0,0.1-0.1h0.1h0.1c0.1,0,0.1,0,0.2,0.1h0.1c0.1,0,0.1,0.1,0.2,0.1c0.1,0,0.1,0.1,0.1,0.2l-0.1,0.1c0,0,0,0,0.1,0.1
		c0,0,0.1,0.1,0.1,0.2l0.1,0.1v0.3l0,0l-0.1,0.1v0.1v0.1c0,0,0,0.1-0.1,0.1l0,0l0,0v0.1c0,0,0,0.1-0.1,0.1V95c0,0,0,0.1-0.1,0.1
		c0,0,0,0-0.1,0.1C142.1,95.4,142,95.4,142,95.4L142,95.4z M148.3,93.8l0.1-0.1c0,0,0-0.1,0.1-0.1c0.1-0.1,0.1-0.1,0.1-0.2
		s0.1-0.2,0.1-0.2c0.1-0.1,0.1-0.1,0.2-0.1s0.1,0,0.2,0.1c0.1,0.1,0.2,0.2,0.2,0.4c0.1,0.1,0.1,0.3,0.1,0.4s0,0.1,0,0.1v0.1
		c0,0.1,0,0.1,0,0.1v0.2l-0.1,0.1v0.1c0,0,0,0.1-0.1,0.1c0,0,0,0,0,0.1c0.1,0,0.2-0.1,0.2-0.1l0.1-0.1c0.1,0,0.1-0.1,0.1-0.1
		l0.1-0.1l0.1-0.1c0,0,0,0,0.1-0.1c0,0,0.1,0,0.1-0.1c0.1,0,0.1-0.1,0.2-0.1V94c0-0.1,0.1-0.1,0.1-0.1h0.1c0,0,0,0,0.1,0.1
		c0,0.1,0,0.1,0,0.1c0,0.1,0,0.1-0.1,0.1l-0.1,0.1l-0.1,0.1c0,0-0.1,0.1-0.1,0.2l-0.1,0.1v0.1h-0.1l0,0l-0.1,0.1
		c-0.1,0.1-0.1,0.1-0.1,0.1h-0.1v0.1c-0.1,0-0.1,0.1-0.1,0.1l0,0l0,0c-0.1,0.1-0.1,0.1-0.2,0.1h-0.1v0.1c0,0,0,0-0.1,0.1
		c-0.1,0-0.1,0.1-0.1,0.1l-0.1,0.1c-0.1,0-0.1,0.1-0.2,0.1h-0.1c-0.1,0-0.1,0-0.2,0.1c-0.1,0.1-0.1,0.1-0.2,0.1
		c-0.1,0-0.2,0-0.3-0.1c-0.1,0-0.1-0.1-0.1-0.1c0-0.1-0.1-0.1-0.1-0.1s0-0.1-0.1-0.1c0,0,0,0,0-0.1l0.1-0.1c0-0.1,0.1-0.1,0.2-0.1
		h0.1h0.1c0,0,0.1,0,0.1,0.1l0,0h0.1c0,0,0,0,0.1,0s0.2,0,0.2-0.1l0,0l0,0c0,0,0,0,0-0.1l0.1-0.1l-0.2-0.3l0,0v-0.1v-0.1
		c0,0,0,0,0.1-0.1c0,0,0.1,0,0.1-0.1l0,0v-0.1v-0.1v-0.1l0,0V94v-0.1v-0.1c0-0.1,0-0.1,0-0.1s-0.1,0-0.2,0.1
		c-0.1,0.1-0.1,0.1-0.2,0.2c0,0.1-0.1,0.1-0.1,0.1c-0.1,0-0.1,0.1-0.1,0.1s0,0.1-0.1,0.1l-0.3,0.2l-0.3,0.2l-0.1,0.1l-0.2,0.2
		l-0.1,0.1c0,0-0.1,0-0.1,0.1l-0.2,0.1v0.1h-0.1l0,0c0,0.1-0.1,0.1-0.2,0.1h-0.1c0,0,0,0-0.1,0h-0.1H146h-0.1c0,0-0.1,0-0.1-0.1
		l-0.1-0.1c0-0.1-0.1-0.1-0.1-0.2c0,0,0,0,0-0.1c0,0,0,0,0-0.1s0-0.1,0-0.1l0,0c0,0,0,0,0-0.1v-0.1v-0.1c0,0,0,0,0-0.1
		c0,0,0,0,0-0.1s0,0,0-0.1V94v-0.1v-0.1c0-0.1,0-0.1-0.1-0.1c0,0-0.1,0-0.1,0.1l0,0c-0.1,0-0.1,0.1-0.2,0.1h-0.1c0,0-0.1,0-0.1,0.1
		l0,0c0,0-0.1,0-0.1,0.1c-0.1,0.1-0.1,0.1-0.1,0.1c-0.1,0.1-0.2,0.2-0.3,0.3c-0.1,0.1-0.1,0.1-0.2,0.1c0,0-0.1,0-0.1,0.1
		c0,0,0,0-0.1,0.1l-0.1,0.1c0,0-0.1,0-0.1-0.1l-0.1,0.1l-0.1,0.1c-0.1,0,0,0,0,0.1l0,0l0,0c0,0,0,0-0.1,0.1l-0.1,0.1
		c0,0.1-0.1,0.1-0.1,0.1s0,0-0.1,0h-0.1c0,0-0.1,0-0.1-0.1c0-0.1-0.1-0.1-0.1-0.1c0-0.3,0.1-0.5,0.2-0.5l0,0l0,0c0,0,0-0.1,0.1-0.1
		l0.1-0.1c0,0,0-0.1,0.1-0.1h0.1c0,0,0,0,0-0.1c0,0,0,0,0-0.1c0,0,0,0,0-0.1c0-0.1,0-0.1,0.1-0.1c0,0,0-0.1,0.1-0.1l0,0
		c0,0.1-0.1,0.1-0.1,0.1l-0.1,0.1h-0.1c-0.1,0.1-0.1,0.1-0.2,0.1l-0.1,0.1l0,0c0,0-0.1,0-0.1,0.1l0,0c-0.1,0-0.1-0.1-0.1-0.1
		l0.1-0.2c0-0.1,0.1-0.1,0.2-0.2c0.1-0.1,0.2-0.1,0.2-0.1c0.1-0.1,0.1-0.1,0.2-0.1l0,0c0.1,0,0.2-0.1,0.2-0.2s0.1-0.1,0.1-0.1
		c0.1,0,0.3,0.1,0.3,0.2c0.1,0.1,0.1,0.2,0.1,0.3V94c0,0.1,0,0.1,0,0.2l-0.1,0.1l0,0h0.1l0.1-0.1c0,0,0.1,0,0.1-0.1
		c0-0.1,0.1-0.1,0.1-0.1s0.1,0,0.1-0.1l0,0v-0.1c0.1,0,0.1-0.1,0.1-0.1l0.1-0.1c0,0,0.1,0,0.1-0.1h0.1h0.1c0,0,0,0,0.1,0
		c0,0,0.1,0,0.1-0.1h0.1c0.1,0,0.3,0.1,0.3,0.2c0.1,0.1,0.1,0.2,0.1,0.3V94v0.1l0,0v0.2v0.1c0,0.1,0,0.2-0.1,0.3l0,0l0,0l0.1,0.2
		c0,0.1,0,0.1,0.1,0.1h0.1c0.1,0,0.1-0.1,0.1-0.1c0.1,0,0.1-0.1,0.1-0.1c0-0.1,0-0.1,0.1-0.1l0,0l0,0l0,0c0-0.1,0-0.1,0.1-0.1
		c0-0.1,0.1-0.1,0.1-0.1l0.2-0.1l0,0l0,0h0.1l0,0l0,0l0,0l0,0h0.1l0,0l0.1-0.1l0,0l0,0l0.1-0.1l0.2-0.1c0.1-0.1,0.1-0.1,0.2-0.2
		C148.2,94,148.2,93.9,148.3,93.8L148.3,93.8z M122.1,94.6L122.1,94.6c0-0.1,0.1-0.2,0.1-0.2c0-0.1,0.1-0.1,0.2-0.2l0,0v-0.1
		c0,0,0-0.1,0.1-0.1c0.1,0,0.1-0.1,0.1-0.1c0-0.1,0.1-0.1,0.1-0.1c0.1,0,0.1-0.1,0.1-0.1l0.1-0.1c0.1-0.1,0.1-0.1,0.3-0.1h0.1
		c0-0.1,0.1-0.1,0.1-0.1h0.1l0,0h0.1h0.1c0.1,0,0.1,0,0.2,0.1l0.1-0.1c0,0,0,0,0.1,0l0.1,0.1l0.1,0.1c0,0.1,0,0.1,0,0.1
		c0,0.1,0,0.1-0.1,0.2c-0.1,0.1-0.1,0.1-0.2,0.1c0,0-0.1,0-0.1-0.1c-0.1,0-0.1,0-0.2-0.1c-0.1,0-0.1,0-0.2,0.1l0,0l0,0h-0.1l0,0V94
		l-0.1,0.1c0,0-0.1,0-0.1,0.1l-0.1,0.1l-0.1,0.1c0,0-0.1,0-0.1,0.1l0,0c-0.1,0.1-0.1,0.1-0.1,0.2l-0.1,0.2l-0.1,0.1l-0.1,0.1l0,0
		l0,0c0,0,0,0,0,0.1s0,0,0,0.1v0.1v0.1c0,0.1,0.1,0.1,0.2,0.1h0.1h0.2c0.1,0,0.1,0,0.1,0h0.1c0,0,0.1,0,0.1-0.1l0,0l0,0
		c0-0.1,0.1-0.1,0.2-0.1c0-0.1,0.1-0.1,0.2-0.1c0.1,0,0.2-0.1,0.3-0.1h0.1c0,0,0.1,0,0.1-0.1l0.1-0.1c0,0,0.1,0,0.1-0.1
		c0,0,0,0,0.1,0c0-0.1,0.1-0.1,0.2-0.1l0,0l0.1-0.1h0.1c0,0,0.1,0,0.1-0.1s0.1-0.1,0.1-0.1c0.1,0,0.1-0.1,0.2-0.1h0.1
		c0,0,0.1,0,0.1-0.1l0.1-0.1c0.1,0,0.1-0.1,0.1-0.1c0.1-0.1,0.1-0.1,0.2-0.1l0.1-0.1h0.1v-0.1c0.1-0.1,0.2-0.1,0.3-0.2l0,0
		c0,0,0.1,0,0.1-0.1c0.1-0.1,0.2-0.2,0.4-0.1c0.2,0,0.3,0.1,0.3,0.3v0.1c0,0.1,0.1,0.2,0.1,0.2c0,0.1,0.1,0.1,0.1,0.2
		c0,0.1,0,0.2-0.1,0.2c-0.1,0.1-0.2,0.2-0.3,0.3l0,0c0,0.1-0.1,0.1-0.1,0.1c-0.1,0-0.1,0-0.1,0.1V95l0,0c0,0,0,0.1-0.1,0.1v0.1v0.1
		c0,0,0,0.1-0.1,0.1c0,0,0,0,0,0.1s0.1,0.1,0.2,0.1h0.1h0.1c0,0,0,0,0.1,0c0.1,0,0.1,0,0.1-0.1c0.1,0,0.1,0,0.1-0.1
		c0-0.1,0.1-0.1,0.1-0.1c0.1,0,0.1-0.1,0.1-0.1l0.1-0.1c0.1,0,0.1-0.1,0.1-0.1l0.1-0.1c0.1-0.1,0.2-0.1,0.2-0.2l0.1-0.1l0.1-0.1
		c0-0.1,0.1-0.1,0.1-0.1s0.1,0,0.1,0.1v0.1l0,0v0.1l0,0c0,0,0,0,0,0.1v0.1c0,0,0,0.1-0.1,0.1c0,0.1,0,0.1-0.1,0.1s-0.1,0.1-0.1,0.1
		c-0.1,0.1-0.1,0.1-0.2,0.2c-0.1,0.1-0.1,0.1-0.2,0.1l-0.1,0.1l0,0l0,0c0,0,0,0,0,0.1l0,0c0,0,0,0-0.1,0h-0.1l0,0h-0.1l0,0l0,0
		c0,0,0,0.1-0.1,0.1s-0.2,0.1-0.3,0.1h-0.1l-0.1,0.1c0,0,0,0-0.1,0h-0.1h-0.5l-0.1-0.1c-0.1-0.1-0.2-0.1-0.2-0.2s-0.1-0.1-0.1-0.2
		c0,0,0-0.1-0.1-0.1c0-0.1,0-0.2,0-0.3V95c0,0,0-0.1,0.1-0.1c0-0.1,0.1-0.1,0.1-0.2c0.1-0.1,0.1-0.2,0.2-0.3l0.1-0.1l0.1-0.1
		c0,0,0,0,0-0.1c0-0.1,0-0.1,0-0.1v-0.1c0-0.1,0-0.1-0.1-0.1c0,0,0,0-0.1,0c-0.1,0-0.1,0.1-0.1,0.1s-0.1,0-0.1,0.1s-0.1,0-0.1,0.1
		c-0.1,0-0.1,0.1-0.1,0.1h-0.1c0,0.1,0,0.1-0.1,0.1h-0.1c0,0,0,0,0,0.1l-0.1,0.1l-0.1,0.1H125h-0.1c0,0-0.1,0-0.1,0.1l0,0l0,0l0,0
		h-0.1l0,0c-0.1,0.1-0.1,0.1-0.2,0.2l-0.1,0.1l0,0l-0.1-0.1c0,0,0,0,0,0.1c-0.1,0.1-0.1,0.1-0.2,0.2c0,0-0.1,0-0.1,0.1l-0.1,0.1
		h-0.1l0,0c0,0,0,0-0.1,0.1c-0.1,0.1-0.1,0.1-0.1,0.1l-0.1,0.1h-0.1c0,0.1-0.1,0.1-0.1,0.1s-0.1,0-0.1,0.1l-0.1,0.1
		c0,0-0.1,0-0.1-0.1l0,0c0,0,0,0,0,0.1s0,0.1-0.1,0.1s-0.1,0-0.1,0l0,0c-0.1,0-0.1,0-0.1,0s-0.1,0-0.1-0.1h-0.1h-0.1l-0.2-0.1
		l-0.1-0.1l0,0c-0.1,0-0.1-0.1-0.2-0.3v-0.1l0,0c0-0.1,0-0.1,0-0.1c0-0.1,0.1-0.1,0.1-0.2C122,94.7,122,94.6,122.1,94.6L122.1,94.6z
		 M91.4,92.2V92l0,0c0-0.1,0.1-0.2,0.1-0.2c0.1,0,0.1,0,0.2-0.1c0.1,0,0.1,0.1,0.2,0.1C92,91.9,92,91.9,92,92l0,0v0.1
		c0,0.1,0,0.1-0.1,0.1s-0.1,0.1-0.2,0.1s-0.1,0-0.1-0.1C91.5,92.3,91.4,92.3,91.4,92.2L91.4,92.2z"/>
</g>
</svg>
