<?xml version="1.0" encoding="utf-8"?>
<!-- Generator: Adobe Illustrator 24.0.0, SVG Export Plug-In . SVG Version: 6.00 Build 0)  -->
<svg version="1.1" id="Layer_1" xmlns="http://www.w3.org/2000/svg" xmlns:xlink="http://www.w3.org/1999/xlink" x="0px" y="0px"
	 viewBox="0 0 240 100" style="enable-background:new 0 0 240 100;" xml:space="preserve">
<style type="text/css">
	.st0{clip-path:url(#SVGID_2_);}
	.st1{fill:#1C1C1A;}
	.st2{fill:none;stroke:#FFFFFF;stroke-width:0.47;stroke-miterlimit:10;}
	.st3{clip-path:url(#SVGID_4_);}
	.st4{fill:#1C1C1A;stroke:#FFFFFF;stroke-width:0.47;stroke-miterlimit:10;}
	.st5{clip-path:url(#SVGID_6_);}
	.st6{clip-path:url(#SVGID_8_);}
	.st7{clip-path:url(#SVGID_10_);}
	.st8{clip-path:url(#SVGID_12_);}
	.st9{fill:none;stroke:#FFFFFF;stroke-width:0.42;stroke-miterlimit:10;}
	.st10{clip-path:url(#SVGID_14_);}
	.st11{clip-path:url(#SVGID_16_);}
	.st12{clip-path:url(#SVGID_18_);}
	.st13{clip-path:url(#SVGID_20_);}
	.st14{clip-path:url(#SVGID_22_);}
	.st15{clip-path:url(#SVGID_24_);}
	.st16{clip-path:url(#SVGID_26_);}
	.st17{clip-path:url(#SVGID_28_);}
	.st18{fill:none;stroke:#1C1C1A;stroke-width:0.73;stroke-miterlimit:2.61;}
</style>
<title>Riolam -01</title>
<g>
	<g>
		<defs>
			<path id="SVGID_1_" d="M46.7,21.1c-3.5,1.6-6.8,3.7-9.8,6.2l0,0l-0.2,0.2c-4.1,4.1-7.1,9.2-8.5,14.9c-1.1,4.3-1.4,8.7-0.9,13.1
				c4.4-12.6,13.3-22.8,26.3-27.1l-1.8-9.1C50.9,19.3,47.4,20.8,46.7,21.1"/>
		</defs>
		<use xlink:href="#SVGID_1_"  style="overflow:visible;fill:#1C1C1A;"/>
		<clipPath id="SVGID_2_">
			<use xlink:href="#SVGID_1_"  style="overflow:visible;"/>
		</clipPath>
		<g class="st0">
			<rect x="26.9" y="19.2" class="st1" width="26.7" height="36.2"/>
		</g>
	</g>
	<path class="st2" d="M46.7,21.1c-3.5,1.6-6.8,3.7-9.8,6.2l0,0l-0.2,0.2c-4.1,4.1-7.1,9.2-8.5,14.9c-1.1,4.3-1.4,8.7-0.9,13.1
		c4.4-12.6,13.3-22.8,26.3-27l-1.8-9.1C50.9,19.3,47.4,20.8,46.7,21.1z"/>
	<g>
		<defs>
			<path id="SVGID_3_" d="M52,28.7c-10.1,3.8-17.6,11.1-22.2,20.6c0.2-0.2,0.4-0.4,0.7-0.6c10-11.4,23.2-15.2,37.8-11.9l1.8-9.3
				c-0.5-0.2-1.1-0.3-1.6-0.4c-1.3-0.2-2.7-0.3-4-0.3H64C59.9,26.8,55.9,27.4,52,28.7"/>
		</defs>
		<use xlink:href="#SVGID_3_"  style="overflow:visible;fill:#1C1C1A;"/>
		<clipPath id="SVGID_4_">
			<use xlink:href="#SVGID_3_"  style="overflow:visible;"/>
		</clipPath>
		<g class="st3">
			<rect x="29.8" y="26.8" class="st1" width="40.2" height="22.5"/>
		</g>
	</g>
	<path class="st2" d="M52,28.7c-10.1,3.8-17.6,11.1-22.2,20.6c0.2-0.2,0.4-0.4,0.7-0.6c10-11.4,23.2-15.2,37.8-11.9l1.8-9.3
		c-0.5-0.2-1.1-0.3-1.6-0.4c-1.3-0.2-2.7-0.3-4-0.3H64C59.9,26.8,55.9,27.4,52,28.7z"/>
	<path class="st4" d="M31.5,47.5c1.7-1.1,3.5-2.1,5.4-2.9c10.6-4.9,23.9-3.1,34,2.1c1.8,0.9,3.6,2,5.2,3.3l6.3-7.6
		c-0.5-0.4-1-0.7-1.5-1c-1.3-0.7-2.6-1.4-4-2c-4.2-1.8-8.6-3-13.1-3.6c-2.2-0.3-4.4-0.4-6.7-0.3C47.3,35.7,38.5,39.8,31.5,47.5z"/>
	<g>
		<defs>
			<path id="SVGID_5_" d="M29.7,21.6c-0.9,1-1.6,2-2.4,3.1c-2.2,3.4-3.8,7.2-4.7,11.2c-1.5,8.8,1.2,17.4,5.7,24.8
				C27.2,56,27,51,27.7,46.2c1-7.5,4.3-14.1,9.7-19.3l-6.6-6.3C30.4,20.8,30,21.2,29.7,21.6"/>
		</defs>
		<use xlink:href="#SVGID_5_"  style="overflow:visible;fill:#1C1C1A;"/>
		<clipPath id="SVGID_6_">
			<use xlink:href="#SVGID_5_"  style="overflow:visible;"/>
		</clipPath>
		<g class="st5">
			<polygon class="st1" points="9,56.7 22.8,15.6 49.6,24.6 35.7,65.7 			"/>
		</g>
	</g>
	<path class="st4" d="M29.7,21.6c-0.9,1-1.6,2-2.4,3.1c-2.2,3.4-3.8,7.2-4.7,11.2c-1.5,8.8,1.2,17.4,5.7,24.8
		C27.2,56,27,51,27.7,46.2c1-7.5,4.3-14.1,9.7-19.3l-6.6-6.3C30.4,20.8,30,21.2,29.7,21.6z"/>
	<g>
		<defs>
			<path id="SVGID_7_" d="M4.4,69.4c0.8,0.7,1.7,1.4,2.6,2c2.4,1.7,4.9,3.3,7.5,4.6c7.6,3.8,16,5.8,24.4,4.3
				c5.4-0.9,9.8-3.5,14.1-6.7l-0.6,0.1c-1.2,0.2-2.4,0.4-3.6,0.6c-3.7,0.4-7.3,0.5-11,0.3c-9.2-0.6-18.7-3.4-25.1-10.4L4.4,69.4z"/>
		</defs>
		<use xlink:href="#SVGID_7_"  style="overflow:visible;fill:#1C1C1A;"/>
		<clipPath id="SVGID_8_">
			<use xlink:href="#SVGID_7_"  style="overflow:visible;"/>
		</clipPath>
		<g class="st6">
			<rect x="4.4" y="64.2" class="st1" width="48.6" height="17.6"/>
		</g>
	</g>
	<path class="st2" d="M4.4,69.4c0.8,0.7,1.7,1.4,2.6,2c2.4,1.7,4.9,3.3,7.5,4.6c7.6,3.8,16,5.8,24.4,4.3c5.4-0.9,9.8-3.5,14.1-6.7
		l-0.6,0.1c-1.2,0.2-2.4,0.4-3.6,0.6c-3.7,0.4-7.3,0.5-11,0.3c-9.2-0.6-18.7-3.4-25.1-10.4L4.4,69.4z"/>
	<g>
		<defs>
			<path id="SVGID_9_" d="M13.2,34.6C13.1,35.7,13,36.9,13,38c-0.1,3.5,0.2,7,1,10.4H14l0,0.2c2.8,11.9,13.8,20.2,24.7,24.6
				c-1.5-1.3-2.9-2.8-4.2-4.3c-2.4-2.7-4.6-5.7-6.4-8.8c-4.4-7.4-7-16-5.5-24.8l-9.2-1.9C13.3,33.8,13.3,34.4,13.2,34.6"/>
		</defs>
		<use xlink:href="#SVGID_9_"  style="overflow:visible;fill:#1C1C1A;"/>
		<clipPath id="SVGID_10_">
			<use xlink:href="#SVGID_9_"  style="overflow:visible;"/>
		</clipPath>
		<g class="st7">
			<rect x="12.9" y="33.4" class="st1" width="25.8" height="39.7"/>
		</g>
	</g>
	<g>
		<defs>
			<path id="SVGID_11_" d="M13.2,34.6C13.1,35.7,13,36.9,13,38c-0.1,3.5,0.2,7,1,10.4H14l0,0.2c2.8,11.9,13.8,20.2,24.7,24.6
				c-1.5-1.3-2.9-2.8-4.2-4.3c-2.4-2.7-4.6-5.7-6.4-8.8c-4.4-7.4-7-16-5.5-24.8l-9.2-1.9C13.3,33.8,13.3,34.4,13.2,34.6"/>
		</defs>
		<clipPath id="SVGID_12_">
			<use xlink:href="#SVGID_11_"  style="overflow:visible;"/>
		</clipPath>
		<g class="st8">
			<polygon class="st9" points="11.1,76.5 5.9,32.6 41,30 46.1,72.2 			"/>
		</g>
	</g>
	<path class="st2" d="M13.2,34.6C13.1,35.7,13,36.9,13,38c-0.1,3.5,0.2,7,1,10.4H14l0,0.2c2.8,11.9,13.8,20.2,24.7,24.6
		c-1.5-1.3-2.9-2.8-4.2-4.3c-2.4-2.7-4.6-5.7-6.4-8.8c-4.4-7.4-7-16-5.5-24.8l-9.2-1.9C13.3,33.8,13.3,34.4,13.2,34.6z"/>
	<g>
		<defs>
			<path id="SVGID_13_" d="M4.7,49.7c0,0.9,1.5,4.3,1.8,5c1.7,3.5,3.8,6.7,6.4,9.6l0,0l0.1,0.1c0.2,0.2,0.4,0.4,0.6,0.7
				c0.5,0.5,1,1.1,1.6,1.6c7.9,7.1,19.8,8.9,30.2,8.7l0.4,0c-0.4-0.3-0.4-1.1-1-1.3c-0.2-0.1-0.7,0.1-1.2,0.3
				c-0.5,0.2-1.2,0.4-1.6,0.2C30.3,70.2,17,61.5,14.1,48.7L4.7,49.7z"/>
		</defs>
		<use xlink:href="#SVGID_13_"  style="overflow:visible;fill:#1C1C1A;"/>
		<clipPath id="SVGID_14_">
			<use xlink:href="#SVGID_13_"  style="overflow:visible;"/>
		</clipPath>
		<g class="st10">
			<rect x="4.7" y="48.7" class="st1" width="41.2" height="26.8"/>
		</g>
	</g>
	<path class="st2" d="M4.7,49.7c0,0.9,1.5,4.3,1.8,5c1.7,3.5,3.8,6.7,6.4,9.6l0,0l0.1,0.1c0.2,0.2,0.4,0.4,0.6,0.7
		c0.5,0.5,1.1,1.1,1.6,1.6c7.9,7.1,19.8,8.9,30.2,8.7l0.4,0c-0.4-0.3-0.4-1.1-1-1.3c-0.2-0.1-0.7,0.1-1.2,0.3
		c-0.5,0.2-1.2,0.4-1.6,0.2C30.3,70.2,17,61.5,14,48.7L4.7,49.7z"/>
	<g>
		<defs>
			<path id="SVGID_15_" d="M44.4,43.3c-2.3,0-4.6,0.3-6.8,0.8c7.6-1.3,15.4,1.1,21,6.3c7.8,6.9,9.5,16.8,8.9,26.6L78.1,77l0,0
				c0-3.9-0.6-7.9-1.8-11.6C72.4,52.8,62.8,46,50.1,43.8c-1.8-0.3-3.5-0.4-5.3-0.4H44.4"/>
		</defs>
		<use xlink:href="#SVGID_15_"  style="overflow:visible;fill:#1C1C1A;"/>
		<clipPath id="SVGID_16_">
			<use xlink:href="#SVGID_15_"  style="overflow:visible;"/>
		</clipPath>
		<g class="st11">
			<rect x="37.6" y="43.3" class="st1" width="40.5" height="33.8"/>
		</g>
	</g>
	<g>
		<defs>
			<path id="SVGID_17_" d="M44.4,43.3c-2.3,0-4.6,0.3-6.8,0.8c7.6-1.3,15.4,1.1,21,6.3c7.8,6.9,9.5,16.8,8.9,26.6L78.1,77l0,0
				c0-3.9-0.6-7.9-1.8-11.6C72.4,52.8,62.8,46,50.1,43.8c-1.8-0.3-3.5-0.4-5.3-0.4H44.4"/>
		</defs>
		<clipPath id="SVGID_18_">
			<use xlink:href="#SVGID_17_"  style="overflow:visible;"/>
		</clipPath>
		<g class="st12">
			<polygon class="st9" points="77.3,38.5 83,77.7 38.5,81.8 33.9,43.9 			"/>
		</g>
	</g>
	<path class="st2" d="M37.6,44.2c7.6-1.3,15.4,1.1,21,6.3c7.8,6.9,9.5,16.8,8.9,26.6L78.1,77l0,0c0-3.9-0.6-7.9-1.8-11.6
		C72.4,52.8,62.8,46,50.1,43.8c-1.9-0.3-3.8-0.5-5.7-0.4C42.1,43.3,39.9,43.6,37.6,44.2z"/>
	<g>
		<defs>
			<path id="SVGID_19_" d="M50.8,41.6c-0.5,0-1,0-1.6,0c-4.3,0.2-8.7,1.1-12.6,3c3.8-1.1,8.6-1.2,12.1-0.7
				c14.3,2,24.5,9.8,28.2,23.8l9.9-4.2c-0.2-0.6-0.5-1.2-0.8-1.8c-0.8-1.6-1.7-3.1-2.7-4.6c-3.3-4.7-7.7-8.4-12.8-10.9
				c-6.1-3-12.8-4.6-19.5-4.6L50.8,41.6"/>
		</defs>
		<use xlink:href="#SVGID_19_"  style="overflow:visible;fill:#1C1C1A;"/>
		<clipPath id="SVGID_20_">
			<use xlink:href="#SVGID_19_"  style="overflow:visible;"/>
		</clipPath>
		<g class="st13">
			<rect x="36.6" y="41.6" class="st1" width="50.2" height="26.2"/>
		</g>
	</g>
	<path class="st2" d="M36.6,44.7c3.8-1.1,8.6-1.2,12.1-0.7c14.3,2,24.5,9.8,28.2,23.8l9.9-4.2c-0.2-0.6-0.5-1.2-0.8-1.8
		c-0.8-1.6-1.7-3.1-2.7-4.6c-3.3-4.7-7.7-8.4-12.8-10.9c-6.1-3-12.9-4.6-19.7-4.6c-0.5,0-1,0-1.6,0C44.9,41.9,40.5,42.8,36.6,44.7"
		/>
	<g>
		<defs>
			<path id="SVGID_21_" d="M29,61.2c0,8.5,6.8,15.3,15.3,15.5h0.4c8.5-0.1,15.4-7.1,15.2-15.7c-0.1-8.5-7.1-15.4-15.7-15.2
				C35.8,45.8,29,52.7,29,61.2"/>
		</defs>
		<clipPath id="SVGID_22_">
			<use xlink:href="#SVGID_21_"  style="overflow:visible;"/>
		</clipPath>
		<g class="st14">
			<g>
				<defs>
					<rect id="SVGID_23_" x="29" y="45.6" width="31.2" height="31.2"/>
				</defs>
				<clipPath id="SVGID_24_">
					<use xlink:href="#SVGID_23_"  style="overflow:visible;"/>
				</clipPath>
				<g class="st15">
					
						<image style="overflow:visible;enable-background:new    ;" width="115" height="114" xlink:href="70D19599.png"  transform="matrix(0.2727 0 0 0.2727 28.9632 45.7454)">
					</image>
				</g>
			</g>
		</g>
	</g>
	<g>
		<defs>
			<path id="SVGID_25_" d="M33.3,61.2c0,6.2,5,11.1,11.1,11.1s11.1-5,11.1-11.1S50.6,50,44.5,50l0,0C38.3,50,33.3,55,33.3,61.2"/>
		</defs>
		<clipPath id="SVGID_26_">
			<use xlink:href="#SVGID_25_"  style="overflow:visible;"/>
		</clipPath>
		<g class="st16">
			<g>
				<defs>
					<rect id="SVGID_27_" x="33.3" y="49.9" width="22.6" height="22.6"/>
				</defs>
				<clipPath id="SVGID_28_">
					<use xlink:href="#SVGID_27_"  style="overflow:visible;"/>
				</clipPath>
				<g class="st17">
					
						<image style="overflow:visible;enable-background:new    ;" width="83" height="84" xlink:href="70D1959B.png"  transform="matrix(0.2694 0 0 0.2694 33.3922 49.9072)">
					</image>
				</g>
			</g>
		</g>
	</g>
	<path class="st1" d="M220.4,46.4l-6.1,10.8c-0.7,1.2-2,2-3.3,2c-1.5,0-2.8-1-3.8-2.9l-4.7-8.3v11.3h-3.7c-0.5,0-1-0.3-1.3-0.8
		c-0.4-0.6-0.6-1.2-0.5-1.9V36.5h3.7c1.4,0,2.5,0.7,3.2,2.2l7.2,13.1l7.2-13.1c0.3-0.6,0.7-1.1,1.2-1.6c0.4-0.4,0.9-0.7,1.5-0.6h2.5
		c1.3,0,2.1,0.5,2.4,1.6c0.1,0.7,0.2,1.5,0.2,2.2v18.8h-3.8c-0.5,0-1-0.3-1.2-0.7c-0.4-0.5-0.5-1.1-0.5-1.7L220.4,46.4L220.4,46.4z
		 M185.4,38.9l10.4,20.3h-6.1l-1.7-3.4h-11.5l2.6-4.8h6.5l-4.5-8.7l-8.6,16.8h-3.2c-0.5,0-1-0.2-1.4-0.5c-0.4-0.4-0.6-0.9-0.6-1.4
		c0-0.6,0.2-1.3,0.6-1.8l10-18.9h3.9c0.8,0,1.6,0.3,2.3,0.8C184.7,37.7,185.2,38.2,185.4,38.9 M154.4,36.5v15.9
		c0,0.9,0.5,1.4,1.4,1.4h7.4c1.8,0,2.8,0.9,2.8,2.6v2.7h-12.3c-1.4,0-2.7-0.5-3.6-1.5c-1-1-1.5-2.4-1.5-4.3V36.5L154.4,36.5
		L154.4,36.5z M135.4,41.7c-1,0-2.1,0.2-3,0.6c-1,0.5-1.8,1.3-2.1,2.4c-0.3,1-0.4,2.1-0.4,3.1c0,2.1,0.5,3.7,1.3,4.7
		c0.9,1,2.3,1.5,4.2,1.5c2.1,0,3.6-0.7,4.5-2c0.7-1,1-2.4,1-4.3c0-1.9-0.4-3.3-1.1-4.3C139,42.3,137.5,41.7,135.4,41.7 M135.5,36.4
		c2,0,4,0.4,5.9,1.2c2,0.9,3.5,2.6,4.3,4.6c0.7,1.9,1,3.9,1,5.9c0.1,2.1-0.4,4.2-1.2,6.1c-0.9,1.9-2.5,3.5-4.5,4.2
		c-1.7,0.6-3.4,0.9-5.2,0.9c-2.3,0.1-4.6-0.4-6.6-1.4c-1.9-1-3.3-2.6-4.1-4.9c-0.5-1.6-0.8-3.3-0.8-5c0-4.3,1.1-7.4,3.2-9.2
		C129.3,37.1,132,36.4,135.5,36.4 M116.4,36.5h3.1c1.6,0,2.4,1.1,2.4,3.4v19.2h-3.7c-1.2,0-1.9-0.8-1.9-2.4V36.5L116.4,36.5z
		 M94.1,59.1c-0.6,0-1.1-0.3-1.4-0.8c-0.3-0.6-0.5-1.3-0.5-2V36.5h13.7c2.1,0,4.2,0.9,5.6,2.5c3.1,3.4,3.1,8.5,0,11.9
		c-0.7,0.8-1.6,1.4-2.6,1.9l4,6.4h-6.7l-6.2-10.4h4.2c0.9,0,1.8-0.4,2.5-1c1.4-1.3,1.4-3.5,0.1-4.8c0,0,0,0-0.1-0.1
		c-0.7-0.7-1.6-1-2.5-1h-6.3v17.3L94.1,59.1L94.1,59.1z"/>
	<path class="st1" d="M151.3,69.1v-5.5h1.3v4.5h4.2v1L151.3,69.1L151.3,69.1z M160.7,66.9h2.5l-1.2-2.2L160.7,66.9z M158.2,69.1
		l3.2-5.5h1.3l3.2,5.5h-1.5l-0.7-1.2h-3.6l-0.7,1.2H158.2z M168.4,69.1v-5.5h1.1l2.6,3.3l2.6-3.3h1.1v5.5h-1.2v-3.4
		c0-0.1,0-0.1,0-0.2c0-0.1,0-0.2,0-0.3c-0.1,0.1-0.1,0.3-0.2,0.3c-0.1,0.1-0.1,0.2-0.1,0.2l-2.1,2.7h-0.3l-2.1-2.8
		c-0.1-0.1-0.1-0.2-0.2-0.3c-0.1-0.1-0.1-0.2-0.1-0.3c0,0.1,0,0.2,0,0.3c0,0.1,0,0.2,0,0.3v3.4L168.4,69.1L168.4,69.1z M179.2,63.7
		h1.3v5.5h-1.3V63.7z M185.4,69.1v-4.5h3.7v4.5h1.3V65c0-0.4-0.1-0.7-0.3-1c-0.3-0.2-0.7-0.3-1.1-0.3h-3.6c-0.4,0-0.8,0.1-1.1,0.3
		c-0.2,0.3-0.3,0.7-0.3,1v4.2L185.4,69.1z M195.8,66.9h2.5l-1.2-2.2L195.8,66.9z M193.3,69.1l3.2-5.5h1.3l3.2,5.5h-1.5l-0.7-1.2
		h-3.6l-0.7,1.2L193.3,69.1z M205.3,64.6v4.5H204v-4.5h-2.6v-1h6.5v1L205.3,64.6z M210.3,69.1v-5.5h5.8v0.9h-4.5v1.2h2.6v0.9h-2.6
		v1.4h4.5v1L210.3,69.1L210.3,69.1z M224.1,64.6h-3.7v1.2h3.5c0.4,0,0.8,0.1,1.1,0.3c0.2,0.3,0.3,0.7,0.3,1v0.8c0,0.4-0.1,0.7-0.3,1
		c-0.3,0.2-0.7,0.3-1.1,0.3h-3.5c-0.4,0-0.8-0.1-1.1-0.3c-0.2-0.3-0.3-0.7-0.3-1v-0.1l1.2-0.2v0.6h3.9v-1.3h-3.5
		c-0.4,0-0.8-0.1-1.1-0.3c-0.2-0.3-0.3-0.7-0.3-1V65c0-0.4,0.1-0.7,0.3-1c0.3-0.2,0.7-0.3,1.1-0.3h3.2c0.4,0,0.8,0.1,1.1,0.3
		c0.2,0.3,0.3,0.6,0.3,0.9V65l-1.2,0.3L224.1,64.6L224.1,64.6z"/>
	<path class="st18" d="M232.3,30.5c1.8,0,3.3,1.5,3.3,3.3c0,1.8-1.5,3.3-3.3,3.3c-1.8,0-3.3-1.5-3.3-3.3
		C229,31.9,230.5,30.5,232.3,30.5L232.3,30.5z"/>
	<path class="st1" d="M231.8,33.4h0.5c0.2,0,0.4,0,0.6,0c0.1,0,0.2-0.1,0.2-0.1c0.1-0.1,0.1-0.2,0.1-0.3c0-0.1,0-0.2-0.1-0.3
		c-0.1-0.1-0.2-0.1-0.3-0.1c-0.1,0-0.2,0-0.5,0h-0.6L231.8,33.4z M231.1,35.5v-3.6h1.5c0.3,0,0.6,0,0.8,0.1c0.2,0.1,0.3,0.2,0.4,0.3
		c0.1,0.2,0.2,0.4,0.2,0.6c0,0.2-0.1,0.5-0.2,0.7c-0.2,0.2-0.4,0.3-0.7,0.3c0.1,0.1,0.3,0.2,0.4,0.3c0.2,0.2,0.3,0.4,0.4,0.6
		l0.4,0.7h-0.9l-0.5-0.8c-0.1-0.2-0.2-0.4-0.4-0.5c-0.1-0.1-0.1-0.1-0.2-0.1c-0.1,0-0.3,0-0.4,0h-0.1v1.5L231.1,35.5z"/>
</g>
</svg>
