<?xml version="1.0" encoding="utf-8"?>
<!-- Generator: Adobe Illustrator 24.0.0, SVG Export Plug-In . SVG Version: 6.00 Build 0)  -->
<svg version="1.1" id="Layer_1" xmlns="http://www.w3.org/2000/svg" xmlns:xlink="http://www.w3.org/1999/xlink" x="0px" y="0px"
	 viewBox="0 0 240 100" style="enable-background:new 0 0 240 100;" xml:space="preserve">
<style type="text/css">
	.st0{fill:#1C1C1A;}
	.st1{fill:none;stroke:#1C1C1A;stroke-width:0.73;stroke-miterlimit:2.61;}
	.st2{clip-path:url(#SVGID_2_);fill:#231F20;}
	.st3{clip-path:url(#SVGID_2_);fill:none;stroke:#FFFFFF;stroke-width:0.172;stroke-miterlimit:10;}
	.st4{clip-path:url(#SVGID_4_);fill:#FFFFFF;stroke:#1C1C1A;stroke-miterlimit:10;}
	.st5{clip-path:url(#SVGID_6_);fill:#1C1C1A;}
</style>
<title>Riolam -01</title>
<g>
	<g>
		<path class="st0" d="M208.4,47l-5.4,9.5c-0.6,1.1-1.8,1.8-2.9,1.8c-1.3,0-2.5-0.9-3.4-2.6l-4.1-7.3v10h-3.3
			c-0.4,0-0.9-0.3-1.1-0.7c-0.4-0.5-0.5-1.1-0.4-1.7V38.2h3.3c1.2,0,2.2,0.6,2.8,1.9l6.4,11.6l6.4-11.6c0.3-0.5,0.6-1,1.1-1.4
			c0.4-0.4,0.8-0.6,1.3-0.5h2.2c1.1,0,1.9,0.4,2.1,1.4c0.1,0.6,0.2,1.3,0.2,1.9v16.6h-3.4c-0.4,0-0.9-0.3-1.1-0.6
			c-0.4-0.4-0.4-1-0.4-1.5L208.4,47L208.4,47z M177.5,40.3l9.2,17.9h-5.4l-1.5-3h-10.1L172,51h5.7l-4-7.7l-7.6,14.8h-2.8
			c-0.4,0-0.9-0.2-1.2-0.4c-0.4-0.4-0.5-0.8-0.5-1.2c0-0.5,0.2-1.1,0.5-1.6l8.8-16.7h3.4c0.7,0,1.4,0.3,2,0.7
			C176.9,39.3,177.4,39.7,177.5,40.3 M150.2,38.2v14c0,0.8,0.4,1.2,1.2,1.2h6.5c1.6,0,2.5,0.8,2.5,2.3v2.4h-10.9
			c-1.2,0-2.4-0.4-3.2-1.3c-0.9-0.9-1.3-2.1-1.3-3.8V38.2H150.2L150.2,38.2z M133.4,42.8c-0.9,0-1.9,0.2-2.6,0.5
			c-0.9,0.4-1.6,1.1-1.9,2.1c-0.3,0.9-0.4,1.9-0.4,2.7c0,1.9,0.4,3.3,1.1,4.1c0.8,0.9,2,1.3,3.7,1.3c1.9,0,3.2-0.6,4-1.8
			c0.6-0.9,0.9-2.1,0.9-3.8c0-1.7-0.4-2.9-1-3.8C136.6,43.3,135.3,42.8,133.4,42.8 M133.5,38.1c1.8,0,3.5,0.4,5.2,1.1
			c1.8,0.8,3.1,2.3,3.8,4.1c0.6,1.7,0.9,3.4,0.9,5.2c0.1,1.9-0.4,3.7-1.1,5.4c-0.8,1.7-2.2,3.1-4,3.7c-1.5,0.5-3,0.8-4.6,0.8
			c-2,0.1-4.1-0.4-5.8-1.2c-1.7-0.9-2.9-2.3-3.6-4.3c-0.4-1.4-0.7-2.9-0.7-4.4c0-3.8,1-6.5,2.8-8.1C128,38.7,130.4,38.1,133.5,38.1
			 M116.7,38.2h2.7c1.4,0,2.1,1,2.1,3v16.9h-3.3c-1.1,0-1.7-0.7-1.7-2.1L116.7,38.2L116.7,38.2z M97,58.2c-0.5,0-1-0.3-1.2-0.7
			c-0.3-0.5-0.4-1.1-0.4-1.8V38.2h12.1c1.9,0,3.7,0.8,4.9,2.2c2.7,3,2.7,7.5,0,10.5c-0.6,0.7-1.4,1.2-2.3,1.7l3.5,5.6h-5.9l-5.5-9.2
			h3.7c0.8,0,1.6-0.4,2.2-0.9c1.2-1.1,1.2-3.1,0.1-4.2c0,0,0,0-0.1-0.1c-0.6-0.6-1.4-0.9-2.2-0.9h-5.6v15.3L97,58.2L97,58.2z"/>
		<path class="st0" d="M147.5,67v-4.9h1.1v4h3.7V67H147.5L147.5,67z M155.8,65h2.2l-1.1-1.9L155.8,65z M153.5,67l2.8-4.9h1.1
			l2.8,4.9H159l-0.6-1.1h-3.2l-0.6,1.1H153.5z M162.5,67v-4.9h1l2.3,2.9l2.3-2.9h1V67H168v-3c0-0.1,0-0.1,0-0.2s0-0.2,0-0.3
			c-0.1,0.1-0.1,0.3-0.2,0.3c-0.1,0.1-0.1,0.2-0.1,0.2l-1.9,2.4h-0.3l-1.9-2.5c-0.1-0.1-0.1-0.2-0.2-0.3c-0.1-0.1-0.1-0.2-0.1-0.3
			c0,0.1,0,0.2,0,0.3c0,0.1,0,0.2,0,0.3v3L162.5,67L162.5,67z M172.1,62.2h1.1v4.9h-1.1V62.2z M177.5,67v-4h3.3v4h1.1v-3.6
			c0-0.4-0.1-0.6-0.3-0.9c-0.3-0.2-0.6-0.3-1-0.3h-3.2c-0.4,0-0.7,0.1-1,0.3c-0.2,0.3-0.3,0.6-0.3,0.9v3.7L177.5,67z M186.7,65h2.2
			l-1.1-1.9L186.7,65z M184.5,67l2.8-4.9h1.1l2.8,4.9H190l-0.6-1.1h-3.2l-0.6,1.1H184.5z M195.1,63v4H194v-4h-2.3v-0.9h5.7V63H195.1
			z M199.5,67v-4.9h5.1v0.8h-4V64h2.3v0.8h-2.3V66h4v0.9L199.5,67L199.5,67z M211.7,63h-3.3v1.1h3.1c0.4,0,0.7,0.1,1,0.3
			c0.2,0.3,0.3,0.6,0.3,0.9v0.7c0,0.4-0.1,0.6-0.3,0.9c-0.3,0.2-0.6,0.3-1,0.3h-3.1c-0.4,0-0.7-0.1-1-0.3c-0.2-0.3-0.3-0.6-0.3-0.9
			v-0.1l1.1-0.2v0.5h3.4V65h-3.1c-0.4,0-0.7-0.1-1-0.3c-0.2-0.3-0.3-0.6-0.3-0.9v-0.5c0-0.4,0.1-0.6,0.3-0.9c0.3-0.2,0.6-0.3,1-0.3
			h2.8c0.4,0,0.7,0.1,1,0.3c0.2,0.3,0.3,0.5,0.3,0.8v0.1l-1.1,0.3L211.7,63L211.7,63z"/>
		<path class="st1" d="M218.9,32.9c1.6,0,2.9,1.3,2.9,2.9c0,1.6-1.3,2.9-2.9,2.9c-1.6,0-2.9-1.3-2.9-2.9
			C216,34.2,217.4,32.9,218.9,32.9L218.9,32.9z"/>
		<path class="st0" d="M218.5,35.5h0.4c0.2,0,0.4,0,0.5,0c0.1,0,0.2-0.1,0.2-0.1c0.1-0.1,0.1-0.2,0.1-0.3s0-0.2-0.1-0.3
			c-0.1-0.1-0.2-0.1-0.3-0.1s-0.2,0-0.4,0h-0.5L218.5,35.5z M217.9,37.3v-3.2h1.3c0.3,0,0.5,0,0.7,0.1s0.3,0.2,0.4,0.3
			c0.1,0.2,0.2,0.4,0.2,0.5s-0.1,0.4-0.2,0.6c-0.2,0.2-0.4,0.3-0.6,0.3c0.1,0.1,0.3,0.2,0.4,0.3c0.2,0.2,0.3,0.4,0.4,0.5l0.4,0.6
			h-0.8l-0.4-0.7c-0.1-0.2-0.2-0.4-0.4-0.4c-0.1-0.1-0.1-0.1-0.2-0.1s-0.3,0-0.4,0h-0.1v1.3L217.9,37.3z"/>
	</g>
	<g>
		<g>
			<defs>
				<rect id="SVGID_1_" x="18.1" y="23.2" width="71.8" height="53.6"/>
			</defs>
			<clipPath id="SVGID_2_">
				<use xlink:href="#SVGID_1_"  style="overflow:visible;"/>
			</clipPath>
			<path class="st2" d="M55,25c-3,1.4-5.9,3.2-8.5,5.4l0,0l-0.1,0.1c-3.6,3.6-6.1,7.9-7.3,12.9c-0.9,3.7-1.2,7.5-0.8,11.3
				C42,43.8,49.8,35,61,31.3l-1.6-7.9C58.6,23.4,55.6,24.7,55,25"/>
			<path class="st3" d="M55,25c-3,1.4-5.9,3.2-8.5,5.4l0,0l-0.1,0.1c-3.6,3.6-6.1,7.9-7.3,12.9c-0.9,3.7-1.2,7.5-0.8,11.3
				C42,43.8,49.8,35,61,31.3l-1.6-7.9C58.6,23.4,55.6,24.7,55,25z"/>
			<path class="st2" d="M59.6,31.6c-8.7,3.3-15.2,9.6-19.2,17.8c0.2-0.2,0.5-0.5,0.6-0.6c8.6-9.8,20.1-13.2,32.7-10.3l1.5-8.1
				c-0.3-0.1-1.2-0.3-1.4-0.3c-1.1-0.2-2.3-0.2-3.5-0.3c-0.1,0-0.2,0-0.4,0C66.5,29.9,62.9,30.5,59.6,31.6"/>
			<path class="st3" d="M59.6,31.6c-8.7,3.3-15.2,9.6-19.2,17.8c0.2-0.2,0.5-0.5,0.6-0.6c8.6-9.8,20.1-13.2,32.7-10.3l1.5-8.1
				c-0.3-0.1-1.2-0.3-1.4-0.3c-1.1-0.2-2.3-0.2-3.5-0.3c-0.1,0-0.2,0-0.4,0C66.5,29.9,62.9,30.5,59.6,31.6z"/>
			<path class="st2" d="M41.9,47.8c1.5-1,3.1-1.9,4.6-2.5c9.2-4.3,20.6-2.6,29.4,1.8c1.6,0.8,3.1,1.7,4.5,2.8l5.5-6.6
				c-0.2-0.2-1.1-0.8-1.3-0.9c-1.1-0.6-2.3-1.2-3.4-1.7c-3.6-1.5-7.5-2.6-11.3-3.1c-2-0.3-3.9-0.3-5.8-0.3
				C55.5,37.7,48,41.2,41.9,47.8"/>
			<path class="st3" d="M41.9,47.8c1.5-1,3.1-1.9,4.6-2.5c9.2-4.3,20.6-2.6,29.4,1.8c1.6,0.8,3.1,1.7,4.5,2.8l5.5-6.6
				c-0.2-0.2-1.1-0.8-1.3-0.9c-1.1-0.6-2.3-1.2-3.4-1.7c-3.6-1.5-7.5-2.6-11.3-3.1c-2-0.3-3.9-0.3-5.8-0.3
				C55.5,37.7,48,41.2,41.9,47.8z"/>
			<path class="st2" d="M40.3,25.4c-0.7,0.8-1.4,1.8-2,2.7c-1.9,2.9-3.3,6.3-4.1,9.7c-1.3,7.6,1.1,15,4.9,21.4
				c-0.9-4.1-1.1-8.5-0.5-12.6c0.9-6.5,3.7-12.2,8.4-16.7l-5.7-5.5C41,24.6,40.4,25.3,40.3,25.4"/>
			<path class="st3" d="M40.3,25.4c-0.7,0.8-1.4,1.8-2,2.7c-1.9,2.9-3.3,6.3-4.1,9.7c-1.3,7.6,1.1,15,4.9,21.4
				c-0.9-4.1-1.1-8.5-0.5-12.6c0.9-6.5,3.7-12.2,8.4-16.7l-5.7-5.5C41,24.6,40.4,25.3,40.3,25.4z"/>
			<path class="st2" d="M18.4,66.8c0.7,0.6,1.5,1.2,2.2,1.7c2.1,1.5,4.2,2.8,6.5,4c6.5,3.3,13.8,5,21.1,3.7c4.7-0.8,8.5-3,12.2-5.8
				c-0.2,0-0.4,0.1-0.5,0.1c-1,0.2-2.1,0.4-3.1,0.5c-3.1,0.4-6.4,0.5-9.5,0.3c-8-0.5-16.2-2.9-21.7-9L18.4,66.8z"/>
			<path class="st3" d="M18.4,66.8c0.7,0.6,1.5,1.2,2.2,1.7c2.1,1.5,4.2,2.8,6.5,4c6.5,3.3,13.8,5,21.1,3.7c4.7-0.8,8.5-3,12.2-5.8
				c-0.2,0-0.4,0.1-0.5,0.1c-1,0.2-2.1,0.4-3.1,0.5c-3.1,0.4-6.4,0.5-9.5,0.3c-8-0.5-16.2-2.9-21.7-9L18.4,66.8z"/>
			<path class="st2" d="M26.1,36.7c-0.1,1-0.2,1.9-0.2,2.9c-0.1,3,0.2,6,0.8,9l0.1,0l0,0.2C29.3,59,38.7,66.2,48.1,70
				c-1.3-1.1-2.5-2.4-3.6-3.7c-2.1-2.4-4-4.9-5.6-7.6c-3.8-6.4-6.1-13.8-4.7-21.4l-8-1.6C26.2,35.9,26.1,36.5,26.1,36.7"/>
			<path class="st3" d="M26.1,36.7c-0.1,1-0.2,1.9-0.2,2.9c-0.1,3,0.2,6,0.8,9l0.1,0l0,0.2C29.3,59,38.7,66.2,48.1,70
				c-1.3-1.1-2.5-2.4-3.6-3.7c-2.1-2.4-4-4.9-5.6-7.6c-3.8-6.4-6.1-13.8-4.7-21.4l-8-1.6C26.2,35.9,26.1,36.5,26.1,36.7z"/>
			<path class="st2" d="M18.7,49.7c0,0.8,1.3,3.7,1.5,4.3c1.4,3,3.3,5.9,5.5,8.3l0,0l0.1,0.1c0.2,0.2,0.3,0.4,0.5,0.6
				c0.4,0.5,0.9,0.9,1.4,1.3c6.9,6.1,17.1,7.7,26.1,7.5c0.1,0,0.2,0,0.4,0c-0.3-0.3-0.3-1-0.8-1.1c-0.2-0.1-0.6,0.1-1.1,0.3
				c-0.5,0.2-1,0.3-1.4,0.2C40.8,67.5,29.4,60,26.8,48.9L18.7,49.7z"/>
			<path class="st3" d="M18.7,49.7c0,0.8,1.3,3.7,1.5,4.3c1.4,3,3.3,5.9,5.5,8.3l0,0l0.1,0.1c0.2,0.2,0.3,0.4,0.5,0.6
				c0.4,0.5,0.9,0.9,1.4,1.3c6.9,6.1,17.1,7.7,26.1,7.5c0.1,0,0.2,0,0.4,0c-0.3-0.3-0.3-1-0.8-1.1c-0.2-0.1-0.6,0.1-1.1,0.3
				c-0.5,0.2-1,0.3-1.4,0.2C40.8,67.5,29.4,60,26.8,48.9L18.7,49.7z"/>
			<path class="st2" d="M47.2,45c2.8-0.4,5.7-0.4,8.6,0.3c3.6,0.9,6.8,2.7,9.6,5.2c6.7,6,8.2,14.5,7.7,23l9.1-0.1h0
				c0-3.4-0.5-6.8-1.6-10.1C77.3,52.5,69,46.5,58,44.6c-1.4-0.2-3.1-0.4-4.9-0.4C51.1,44.3,49,44.5,47.2,45"/>
			<path class="st3" d="M47.2,45c2.8-0.4,5.7-0.4,8.6,0.3c3.6,0.9,6.8,2.7,9.6,5.2c6.7,6,8.2,14.5,7.7,23l9.1-0.1h0
				c0-3.4-0.5-6.8-1.6-10.1C77.3,52.5,69,46.5,58,44.6c-1.4-0.2-3.1-0.4-4.9-0.4C51.1,44.3,49,44.5,47.2,45z"/>
			<path class="st2" d="M46.3,45.4c3.3-0.9,7.5-1,10.5-0.6c12.3,1.7,21.2,8.5,24.4,20.6l8.6-3.6c-0.2-0.5-0.5-1.1-0.7-1.6
				c-0.7-1.4-1.5-2.7-2.4-4c-2.8-4-6.6-7.3-11.1-9.5c-5.3-2.6-11.2-4-17.1-4c-0.5,0-0.9,0-1.4,0C53.5,43,49.7,43.8,46.3,45.4"/>
			<path class="st3" d="M46.3,45.4c3.3-0.9,7.5-1,10.5-0.6c12.3,1.7,21.2,8.5,24.4,20.6l8.6-3.6c-0.2-0.5-0.5-1.1-0.7-1.6
				c-0.7-1.4-1.5-2.7-2.4-4c-2.8-4-6.6-7.3-11.1-9.5c-5.3-2.6-11.2-4-17.1-4c-0.5,0-0.9,0-1.4,0C53.5,43,49.7,43.8,46.3,45.4"/>
		</g>
		<g>
			<defs>
				<rect id="SVGID_3_" x="39.7" y="46.2" width="27" height="27"/>
			</defs>
			<clipPath id="SVGID_4_">
				<use xlink:href="#SVGID_3_"  style="overflow:visible;"/>
			</clipPath>
			<path class="st4" d="M39.7,59.6c0,7.3,5.9,13.3,13.2,13.4h0.4c7.3-0.1,13.2-6.1,13.2-13.4c0-7.4-6-13.4-13.4-13.4
				C45.7,46.3,39.7,52.3,39.7,59.6"/>
		</g>
		<g>
			<defs>
				<rect id="SVGID_5_" x="43.4" y="49.9" width="19.5" height="19.5"/>
			</defs>
			<clipPath id="SVGID_6_">
				<use xlink:href="#SVGID_5_"  style="overflow:visible;"/>
			</clipPath>
			<path class="st5" d="M43.5,59.6c0,5.3,4.3,9.6,9.6,9.6c5.3,0,9.6-4.3,9.6-9.6c0-5.3-4.3-9.6-9.6-9.6C47.8,50,43.5,54.3,43.5,59.6
				"/>
		</g>
	</g>
</g>
</svg>
