<?xml version="1.0" encoding="utf-8"?>
<!-- Generator: Adobe Illustrator 24.0.0, SVG Export Plug-In . SVG Version: 6.00 Build 0)  -->
<svg version="1.1" id="Layer_1" xmlns="http://www.w3.org/2000/svg" xmlns:xlink="http://www.w3.org/1999/xlink" x="0px" y="0px"
	 viewBox="0 0 240 100" style="enable-background:new 0 0 240 100;" xml:space="preserve">
<style type="text/css">
	.st0{fill-rule:evenodd;clip-rule:evenodd;fill:#1C1C1A;}
	.st1{fill:#1C1C1A;}
</style>
<g>
	<path class="st0" d="M118.2,60.6h5.7c13.2,0.8,24.2,4,33.2,9.1c-23.5-6-48.3-6.5-74.2-0.7C90.7,64.1,101.4,60.6,118.2,60.6z"/>
	<path class="st0" d="M104.6,42.8h1.6c-1.1,16.8,21.1,19.6,23.2,7.6C133,32.4,100,41,105.3,16.1c2.4,23.4,31.6,11.2,28.5,34.4
		c-0.7,4.8-8.2,13.3-21.2,10.3c-3-0.9-3.1-1.6-5.3-1.6h-2.1L104.6,42.8L104.6,42.8z"/>
	<path class="st0" d="M137.6,19.1H136c1.1-16.8-21.1-19.6-23.2-7.6c-3.6,17.9,29.4,9.3,24.1,34.3c-2.4-23.4-31.6-11.2-28.5-34.4
		c0.7-4.8,8.2-13.3,21.2-10.3c3,0.9,3.1,1.6,5.3,1.6h2.1L137.6,19.1z"/>
	<path class="st1" d="M87.8,72.5c0.1-0.1,0.2-0.3,0.2-0.4s0.2-0.3,0.4-0.3c0,0,0.2,0,0.4,0c0.1,0.1,0.1,0.2,0.1,0.3
		c0.1,1,0.3,2,0.4,3c0,0.1,0,0.2,0,0.3c0,0.1,0,0.2-0.1,0.2c-0.1,0.1-0.3,0.1-0.4,0.1c-0.2,0-0.3,0-0.5,0c-0.2-0.2-0.3-0.5-0.4-0.9
		c-0.4-1.1-0.9-1.5-1.3-1.4c-0.2,0.1-0.4,0.3-0.4,0.7c0,0.4,0.4,1.4,1.2,2.7c0.4,0.8,0.9,1.4,1.2,2.1c0.2,0.4,0.4,1,0.7,1.4
		c0.3,0.9,0.4,1.8,0.4,2.6c0,1.2-0.2,2.1-0.8,2.6c-0.5,0.5-1.1,0.9-1.6,0.9c-0.4,0-0.8-0.1-1.1-0.3C86.1,86,86,86,85.9,86
		c-0.1,0-0.1,0-0.2,0.1c-0.1,0.2-0.3,0.3-0.7,0.3c-0.1,0-0.2,0-0.2-0.1c-0.1-0.1-0.1-0.2-0.1-0.3c-0.1-0.9-0.2-1.9-0.4-2.7
		c0-0.3-0.1-0.5-0.1-0.5c0-0.1,0.1-0.2,0.4-0.2c0.3,0,0.7,0,0.7,0.1c0.1,0.2,0.2,0.4,0.3,0.8c0.4,1.3,1,2,1.4,2
		c0.2,0,0.3-0.1,0.4-0.2c0.1-0.1,0.1-0.3,0.1-0.5c0-0.4-0.1-0.9-0.3-1.3s-0.5-1-0.9-1.5c-0.5-1.1-1.2-2.2-1.8-3.3
		C84.2,77.6,84,76.7,84,76c0-0.9,0.2-1.8,0.7-2.5c0.4-0.7,1-1.1,1.5-1.3C86.7,72.1,87.3,72.1,87.8,72.5L87.8,72.5z M94.1,77.3
		c0.4,0,0.9-0.1,1.3-0.1v-4.9c0-0.1,0-0.2,0-0.3c0-0.1-0.1-0.1-0.2-0.1c-0.1-0.1-0.2-0.2-0.2-0.5c0-0.2,0-0.4,0-0.7
		c0-0.1,0.1-0.1,0.2-0.1c1.2-0.2,2.3-0.4,3.5-0.7c0.1,0,0.2,0,0.3,0.1c0,0.2,0.1,0.4,0,0.7c0,0.1,0,0.3,0,0.4
		c-0.1,0.1-0.2,0.2-0.3,0.3c-0.2,0.1-0.3,0.4-0.3,0.7v12.1c0,0.3,0.1,0.5,0.3,0.8c0.2,0.1,0.3,0.2,0.3,0.4V86c0,0.1,0,0.2,0,0.2
		s-0.1,0.1-0.3,0.1h-3.5c-0.1,0-0.2,0-0.2-0.1c0-0.2-0.1-0.4,0-0.8c0-0.2,0.1-0.3,0.2-0.4s0.2-0.3,0.2-0.4v-6.2l-1.3,0.1v5.9
		c0,0.2,0.1,0.3,0.2,0.4s0.2,0.3,0.2,0.5c0,0.2,0,0.4,0,0.5s-0.1,0.1-0.2,0.1h-3.6c-0.1,0-0.2,0-0.2-0.1c0-0.2,0-0.4,0-0.7
		c0-0.1,0-0.2,0-0.3c0.1-0.1,0.1-0.1,0.2-0.2c0.2-0.1,0.3-0.3,0.3-0.5v-11c0-0.2-0.1-0.3-0.3-0.4c-0.2-0.1-0.3-0.3-0.3-0.7
		c0-0.2,0-0.4,0.1-0.7c0.1-0.1,0.2-0.1,0.3-0.1c1.1-0.2,2.2-0.4,3.4-0.7c0.1,0,0.2,0,0.3,0c0.1,0.1,0.1,0.2,0.1,0.4
		c0,0.1,0,0.3,0,0.4s-0.1,0.2-0.2,0.3c-0.2,0.1-0.2,0.3-0.2,0.5L94.1,77.3L94.1,77.3z M103.6,82.6c-0.7,0-1.3,0-2.1,0.1
		c0,0.3-0.1,0.7-0.1,1v0.1c0,0.2-0.1,0.3-0.1,0.5s0.1,0.4,0.3,0.7c0.1,0.1,0.2,0.1,0.2,0.2s0,0.3,0,0.4c0,0.2,0,0.3,0,0.5
		c0,0.1-0.1,0.1-0.2,0.1h-2.2c-0.1,0-0.2-0.1-0.2-0.4c0-0.3,0.1-0.7,0.3-0.9c0.1-0.2,0.2-0.4,0.3-0.7c0.2-2,0.4-4.1,0.8-6
		c0.2-2,0.5-4.1,0.8-6.2c0-0.1,0-0.3,0-0.4c0-0.2-0.1-0.4-0.3-0.5c-0.1-0.1-0.1-0.2-0.1-0.5c0-0.2,0-0.4,0-0.7
		c0-0.1,0.1-0.2,0.2-0.2c1.1-0.1,2.1-0.2,3.2-0.4c0.2,0,0.3,0.1,0.4,0.3c0.1,0.4,0.2,1,0.2,1.5c0,0.3,0.1,0.7,0.1,0.9
		c0.2,2,0.4,3.8,0.7,5.8c0.2,2,0.4,3.8,0.7,5.8c0,0.4,0.2,0.9,0.4,1.3c0,0.1,0.1,0.1,0.1,0.2s0,0.3,0,0.4c0,0.2,0,0.4-0.1,0.7
		c0,0.1-0.1,0.1-0.2,0.1H103c-0.1,0-0.1-0.1-0.1-0.4c0-0.2,0-0.4,0-0.7c0-0.1,0.1-0.2,0.2-0.3c0.2-0.1,0.3-0.3,0.3-0.5
		C103.8,84,103.7,83.5,103.6,82.6L103.6,82.6z M102.6,73.2c-0.1,1.3-0.3,2.7-0.4,4.1c-0.1,1.3-0.3,2.7-0.4,4.1c0.7,0,1.2,0,1.9-0.1
		c-0.1-1.3-0.3-2.6-0.4-4.1C102.9,76,102.7,74.7,102.6,73.2L102.6,73.2z M111.4,84.9h0.4c0.2,0,0.4-0.1,0.5-0.3
		c0.2-0.5,0.3-1.2,0.4-1.8c0.1-0.3,0.1-0.5,0.2-0.7s0.3-0.1,0.4-0.1c0.1,0,0.3,0,0.4,0.1s0.1,0.2,0.1,0.3s0,0.3,0,0.4
		c-0.1,0.9-0.2,1.8-0.3,2.6c0,0.2,0,0.3-0.1,0.5c-0.1,0.1-0.2,0.1-0.3,0.1h-5.4c-0.2,0-0.3-0.2-0.3-0.5c0-0.2,0-0.3,0-0.5
		c0-0.1,0.1-0.1,0.2-0.2c0.3-0.1,0.4-0.5,0.4-1.1V70.9c0-0.2-0.1-0.4-0.3-0.5c-0.1,0-0.2-0.1-0.3-0.3c0-0.2-0.1-0.3,0-0.5
		c0-0.2,0-0.4,0-0.5s0.1-0.1,0.2-0.1c1.2-0.1,2.5-0.2,3.8-0.2c0.1,0,0.2,0,0.3,0.1c0.1,0.2,0.1,0.4,0.1,0.8c0,0.1,0,0.3,0,0.4
		c-0.1,0.1-0.1,0.2-0.2,0.2c-0.2,0.1-0.4,0.4-0.4,0.8L111.4,84.9L111.4,84.9z M114.4,69.3v-0.5c0-0.2,0.1-0.3,0.2-0.3
		c1.3,0,2.6-0.1,4-0.1c0.1,0,0.2,0,0.3,0.1c0.1,0.1,0.1,0.3,0.1,0.4c0,0.2,0,0.4,0,0.8c0,0.1-0.1,0.1-0.2,0.2
		c-0.3,0.1-0.5,0.3-0.5,0.9V84c0,0.2,0.1,0.5,0.3,0.7c0.1,0.1,0.2,0.1,0.3,0.2c0,0.1,0.1,0.2,0,0.4v0.4c0,0.1,0,0.2,0,0.4
		c-0.1,0-0.1,0-0.2,0h-4.1c-0.1,0-0.2-0.1-0.2-0.2l0,0c0-0.3,0-0.7,0-1c0-0.1,0.1-0.2,0.3-0.2c0.2-0.1,0.4-0.3,0.4-0.7V70.9
		c0-0.2,0-0.4-0.1-0.7c-0.1-0.2-0.2-0.3-0.3-0.3c-0.1,0-0.2-0.1-0.2-0.2C114.4,69.5,114.4,69.4,114.4,69.3L114.4,69.3z M125.2,85.1
		c-0.4,0.9-1.1,1.3-1.9,1.3c-1.1,0-2.1-0.9-2.7-2.6c-0.3-1-0.7-2-0.8-3c-0.2-1.1-0.2-2.3-0.2-3.4c0-1.2,0.1-2.5,0.3-3.7
		c0.2-1,0.4-2,0.9-3c0.8-1.8,1.8-2.5,2.9-2.5c0.5,0,1,0.2,1.4,0.7c0.1,0.1,0.2,0.1,0.3,0.2c0.1,0,0.2-0.1,0.2-0.3
		c0.1-0.2,0.2-0.3,0.3-0.3h0.1c0.1,0,0.2,0,0.2,0c0.2,0,0.3,0.2,0.3,0.5c0.2,1.2,0.3,2.3,0.5,3.5c0,0.2,0.1,0.4,0.1,0.8
		c0,0.2-0.1,0.3-0.4,0.3c-0.2,0-0.4,0-0.5-0.2c-0.2-0.3-0.3-0.8-0.4-1.2c-0.2-0.7-0.4-1.3-0.9-1.9c-0.2-0.3-0.5-0.5-0.8-0.5
		c-0.8,0-1.1,0.8-1.1,2.4V84c0,0.9,0.2,1.3,0.7,1.3c0.4,0,0.7-0.4,0.7-1.3v-5.7c0-0.3-0.1-0.7-0.3-0.8s-0.3-0.3-0.3-0.8
		c0-0.2,0-0.4,0.1-0.7c0.1-0.1,0.2-0.1,0.3-0.1c1.1,0,2.3,0.1,3.5,0.1c0.1,0,0.2,0,0.3,0.1c0.1,0.2,0.1,0.3,0.1,0.5s0,0.4,0,0.7
		c0,0.1-0.1,0.2-0.2,0.2c-0.2,0.1-0.3,0.3-0.3,0.5v7.5c0,0.3,0,0.5-0.1,0.9c0,0.1-0.1,0.1-0.3,0.1c-0.1,0-0.2,0-0.3,0
		c-0.1-0.1-0.2-0.2-0.3-0.3C126.1,85.7,125.7,85.3,125.2,85.1L125.2,85.1z M132.3,78.5v5.4c0,0.2,0,0.3,0,0.5c0,0.1,0.1,0.2,0.2,0.2
		c0.1,0.1,0.2,0.3,0.2,0.7c0,0.2,0,0.5-0.1,0.8c-0.1,0.1-0.2,0.1-0.3,0.1h-3.4c-0.2,0-0.3-0.2-0.3-0.5c0-0.2,0-0.4,0-0.7
		c0-0.1,0.1-0.2,0.1-0.2c0.3-0.1,0.4-0.4,0.4-0.9V71c0-0.4-0.1-0.8-0.3-0.9c-0.1,0-0.2-0.1-0.2-0.2s-0.1-0.3,0-0.5
		c0-0.5,0.1-0.9,0.3-0.8c1.5,0.1,3.1,0.2,4.5,0.3c0.9,0.1,1.8,0.7,2.4,1.5c0.8,1,1.1,2.1,1.1,3.6c0,2.1-0.9,3.4-2.5,4
		c1.5,0.5,2.3,1.8,2.3,3.8v2.5c0,0.2,0,0.3,0.2,0.4c0.1,0.1,0.2,0.3,0.2,0.5c0,0.2,0,0.4,0,0.8c0,0.1-0.1,0.1-0.3,0.1h-2.2
		c-0.2,0-0.4-0.2-0.7-0.5c-0.2-0.4-0.2-1-0.2-1.4V80c0-0.9-0.3-1.3-1-1.3L132.3,78.5L132.3,78.5z M132.3,70.2v7.1h0.5
		c0.5,0,0.8-0.7,0.8-2.1v-3.4c0-0.7-0.1-1-0.2-1.3c-0.2-0.2-0.4-0.4-0.8-0.4L132.3,70.2L132.3,70.2z M141.5,82.7l-2.1-0.1
		c0,0.3-0.1,0.7-0.1,0.9c0,0,0,0,0,0.1c0,0.2-0.1,0.3-0.1,0.5c0,0.2,0.1,0.4,0.3,0.7c0.1,0.1,0.2,0.2,0.2,0.3c0,0.1,0,0.3,0,0.4
		c0,0.2,0,0.3,0,0.4c0,0-0.1,0.1-0.2,0.1h-2.2c-0.1,0-0.2-0.1-0.2-0.4c0-0.3,0.1-0.7,0.3-0.9c0.2-0.2,0.2-0.4,0.3-0.7
		c0.2-2,0.4-4.1,0.8-6c0.2-2,0.5-4,0.8-5.9c0-0.1,0-0.3,0-0.4c0-0.2-0.1-0.4-0.3-0.7c-0.1-0.1-0.2-0.3-0.1-0.5c0-0.2,0-0.4,0-0.7
		c0-0.1,0.1-0.1,0.2-0.1c1.1,0.1,2.1,0.3,3.2,0.4c0.2,0,0.3,0.2,0.4,0.4c0.1,0.4,0.2,1,0.2,1.4c0,0.3,0.1,0.5,0.1,0.9
		c0.2,1.9,0.4,3.6,0.7,5.5c0.2,1.8,0.4,3.6,0.7,5.4c0,0.4,0.2,0.9,0.4,1.2c0,0,0.1,0.1,0.1,0.2s0,0.2,0,0.3c0,0.2,0,0.4,0,0.7
		c0,0.1-0.1,0.1-0.2,0.1h-3.6c-0.1,0-0.1-0.1-0.1-0.3c0-0.2,0-0.4,0-0.7c0-0.1,0.1-0.2,0.2-0.2c0.2-0.1,0.3-0.3,0.3-0.5
		C141.6,83.8,141.6,83.3,141.5,82.7L141.5,82.7z M140.5,73.7c-0.1,1.3-0.3,2.5-0.4,3.8c-0.1,1.3-0.3,2.6-0.4,4l1.9,0.1
		c-0.1-1.3-0.3-2.6-0.4-4C140.8,76.3,140.6,75,140.5,73.7L140.5,73.7z M151.7,72c1,0.2,2,0.5,3,0.8c0.1,0,0.3,0.1,0.3,0.2
		c0.1,0.1,0.1,0.3,0.1,0.4s0,0.3-0.1,0.4s-0.2,0.1-0.3,0.1s-0.2,0.1-0.2,0.1c0,0.1-0.1,0.2,0,0.3v9.9c0,0.1,0,0.2,0,0.3
		c0.1,0.1,0.1,0.2,0.2,0.2c0.2,0.1,0.3,0.2,0.3,0.4c0,0.2,0,0.4,0,0.8c0,0-0.1,0.1-0.3,0.1h-3.6c-0.1,0-0.2-0.1-0.2-0.4
		c0-0.2,0-0.3,0-0.5c0-0.1,0.1-0.2,0.3-0.3c0.2-0.1,0.3-0.2,0.3-0.4v-7.4c-0.2,1-0.4,2-0.8,3c-0.2,1-0.4,2-0.8,3h-0.9
		c-0.2-1-0.4-2.1-0.8-3.1c-0.3-1-0.4-2.1-0.8-3.2v7.7c0,0.2,0.1,0.4,0.3,0.5s0.3,0.4,0.3,0.8c0,0.4-0.1,0.5-0.3,0.5h-1.8
		c-0.2,0-0.3-0.2-0.3-0.5c0-0.2,0.1-0.4,0.2-0.7c0.1-0.1,0.1-0.2,0.2-0.3c0-0.1,0.1-0.2,0-0.3v-11c0-0.2,0-0.4-0.1-0.8
		c0-0.2-0.1-0.3-0.3-0.4c-0.1-0.1-0.2-0.2-0.2-0.3c0-0.1,0-0.2,0-0.4s0-0.3,0-0.5c0-0.1,0.1-0.1,0.2-0.1c1,0.2,2,0.4,3.1,0.7
		c0.2,1,0.4,2,0.7,3c0.2,1,0.4,2,0.7,2.9c0.2-0.9,0.4-1.8,0.7-2.6C151.2,73.8,151.5,72.9,151.7,72L151.7,72z"/>
	<path class="st1" d="M84.7,98.7h1c0.1,0,0.2,0,0.2,0c0.1,0,0.1,0,0.2-0.1l0.1-0.1c0,0,0.1-0.1,0.1-0.2c0-0.1,0.1-0.2,0.1-0.3
		c0-0.1,0.1-0.3,0.1-0.5H87L86.9,99h-3.4v-0.2c0.1,0,0.2-0.1,0.3-0.1c0.1,0,0.1-0.1,0.1-0.2c0-0.1,0-0.2,0-0.4v-3.3
		c0-0.1,0-0.2,0-0.3c0-0.1,0-0.1-0.1-0.2L83.7,94c-0.1,0-0.1-0.1-0.2-0.1v-0.2H85v0.2c-0.1,0-0.1,0-0.2,0.1l-0.1,0.1
		c0,0-0.1,0.1-0.1,0.2s0,0.2,0,0.4L84.7,98.7L84.7,98.7z M94.3,99.1v-0.2c0.1,0,0.2,0,0.2-0.1c0.1,0,0.1-0.1,0.1-0.1
		c0-0.1,0-0.1,0-0.2c0-0.1,0-0.2,0-0.2s0-0.2-0.1-0.3l-0.1-0.4h-1.8l-0.1,0.3c0,0.1-0.1,0.2-0.1,0.4c0,0.1,0,0.2,0,0.2
		c0,0.1,0,0.2,0.1,0.3c0.1,0.1,0.2,0.1,0.3,0.1v0.2h-1.5v-0.2c0.1,0,0.3-0.1,0.3-0.2c0.1-0.2,0.2-0.3,0.3-0.7l1.5-4.2h0.5l1.3,4.2
		c0,0.1,0.1,0.3,0.1,0.4c0,0.1,0.1,0.2,0.2,0.2c0.1,0.1,0.2,0.1,0.2,0.1V99L94.3,99.1z M92.9,97.1h1.5l-0.8-2.4L92.9,97.1L92.9,97.1
		z M106.2,94.1c-0.1,0-0.1,0-0.2,0.1l-0.1,0.1c0,0.1-0.1,0.1-0.1,0.2s0,0.2,0,0.3v3.3c0,0.1,0,0.2,0,0.3c0,0.1,0,0.1,0,0.2l0.1,0.1
		c0.1,0,0.1,0.1,0.2,0.1v0.2h-1.5V99c0.1,0,0.2-0.1,0.3-0.1c0.1,0,0.1-0.1,0.1-0.2s0-0.3,0-0.4v-1.4c0-0.3,0-0.8,0-1.1
		c0-0.3,0-0.7,0-0.8h-0.1l-1.4,3.7H103l-1.4-3.7l0,0c0,0.1,0,0.4,0,0.9c0,0.4,0,0.8,0,1.2v1.2c0,0.1,0,0.2,0,0.3c0,0.1,0,0.1,0,0.2
		s0.1,0.1,0.1,0.1c0.1,0,0.1,0.1,0.2,0.1v0.2h-1.4V99c0.1,0,0.2-0.1,0.3-0.1c0.1,0,0.1-0.1,0.1-0.2s0-0.2,0-0.4v-3.3
		c0-0.1,0-0.2,0-0.3c0-0.1,0-0.1-0.1-0.2l-0.1-0.1c-0.1,0-0.1-0.1-0.2-0.1v-0.2h1.3l1.3,3.6l1.4-3.6h1.3L106.2,94.1L106.2,94.1z
		 M112.5,98.1c0,0.1,0,0.2,0,0.3c0,0.1,0,0.1,0,0.2s0.1,0.1,0.1,0.1c0.1,0,0.1,0.1,0.2,0.1v0.2h-1.5v-0.2c0.1,0,0.2-0.1,0.3-0.1
		c0,0,0.1-0.1,0.1-0.2s0-0.2,0-0.4v-3.3c0-0.1,0-0.2,0-0.3c0-0.1,0-0.1-0.1-0.2l-0.1-0.1c-0.1,0-0.1-0.1-0.2-0.1v-0.2h1.5V94
		c-0.1,0-0.1,0-0.2,0.1l-0.1,0.1c0,0-0.1,0.1-0.1,0.2c0,0.1,0,0.2,0,0.3L112.5,98.1L112.5,98.1z M121.2,97c0.1,0.1,0.1,0.2,0.2,0.4
		c0.1,0.1,0.1,0.2,0.2,0.3l0,0c0-0.1,0-0.4,0-0.9c0-0.4,0-0.9,0-1.2v-0.8c0-0.1,0-0.2,0-0.3c0-0.1,0-0.1,0-0.2l-0.1-0.1
		c-0.1,0-0.1-0.1-0.2-0.1v-0.2h1.3v0.2c-0.1,0-0.1,0-0.2,0.1l-0.1,0.1c0,0-0.1,0.1-0.1,0.2s0,0.2,0,0.4v4.2h-0.4l-2.1-3.5
		c-0.1-0.2-0.2-0.3-0.2-0.4c0-0.1-0.1-0.2-0.1-0.3h-0.1c0,0.2,0,0.5,0,1.1c0,0.5,0,1,0,1.5v0.7c0,0.1,0,0.2,0,0.3c0,0.1,0,0.1,0,0.2
		l0.1,0.1c0.1,0,0.1,0.1,0.2,0.1v0.2h-1.3V99c0.1,0,0.2-0.1,0.3-0.1c0.1,0,0.1-0.1,0.1-0.2s0-0.2,0-0.4v-3.3c0-0.1,0-0.2,0-0.3
		c0-0.1,0-0.1-0.1-0.2l-0.1-0.1c-0.1,0-0.1-0.1-0.2-0.1v-0.2h1.2L121.2,97L121.2,97z M129.9,99.1v-0.2c0.1,0,0.2,0,0.2-0.1
		c0.1,0,0.1-0.1,0.1-0.1c0-0.1,0-0.1,0-0.2c0-0.1,0-0.2,0-0.2s0-0.2-0.1-0.3l-0.1-0.4h-1.8l-0.1,0.3c0,0.1-0.1,0.2-0.1,0.4
		c0,0.1,0,0.2,0,0.2c0,0.1,0,0.2,0.1,0.3c0.1,0.1,0.2,0.1,0.3,0.1v0.2H127v-0.2c0.1,0,0.3-0.1,0.3-0.2c0.1-0.2,0.2-0.3,0.3-0.7
		l1.5-4.2h0.5L131,98c0,0.1,0.1,0.3,0.1,0.4c0,0.1,0.1,0.2,0.2,0.2c0.1,0.1,0.2,0.1,0.2,0.1V99L129.9,99.1z M128.5,97.1h1.5
		l-0.8-2.4L128.5,97.1L128.5,97.1z M135.8,94h4.1v1.3h-0.3c0-0.2-0.1-0.3-0.1-0.5c0-0.1-0.1-0.2-0.2-0.3c0-0.1-0.1-0.1-0.2-0.1
		c-0.1,0-0.2,0-0.3,0h-0.4v3.8c0,0.1,0,0.2,0,0.3c0,0.1,0,0.1,0.1,0.2l0.1,0.1c0.1,0,0.2,0.1,0.2,0.1v0.2h-1.8V99c0.1,0,0.1,0,0.2,0
		c0,0,0.1,0,0.1-0.1l0.1-0.1c0-0.1,0-0.1,0-0.2s0-0.2,0-0.3v-3.8h-0.4c-0.1,0-0.2,0-0.3,0s-0.1,0.1-0.2,0.1
		c-0.1,0.1-0.1,0.2-0.2,0.3c-0.1,0.1-0.1,0.3-0.1,0.4h-0.3L135.8,94L135.8,94z M148.3,94v1.1H148c0-0.1-0.1-0.2-0.1-0.3
		c0-0.1-0.1-0.1-0.1-0.2s-0.1-0.1-0.1-0.1s-0.1-0.1-0.2-0.1c-0.1,0-0.1,0-0.2,0H146v2h0.8c0.1,0,0.2,0,0.2,0c0.1,0,0.1-0.1,0.1-0.1
		c0-0.1,0.1-0.2,0.1-0.3h0.3v1.4h-0.3c0-0.1-0.1-0.2-0.1-0.3c0-0.1-0.1-0.1-0.1-0.1c-0.1,0-0.2,0-0.2,0H146v2.2h1.2
		c0.1,0,0.2,0,0.3,0s0.1,0,0.2-0.1c0.1-0.1,0.1-0.1,0.1-0.2s0.1-0.2,0.1-0.2c0-0.1,0.1-0.2,0.1-0.3h0.3l-0.1,1.3h-3.5v-0.2
		c0.1,0,0.2-0.1,0.3-0.1s0.1-0.1,0.1-0.2c0-0.1,0-0.2,0-0.4v-3.3c0-0.1,0-0.2,0-0.3c0-0.1,0-0.1-0.1-0.2l-0.1-0.1
		c-0.1,0-0.1-0.1-0.2-0.1v-0.2L148.3,94z M153.8,97.9c0,0.2,0.1,0.3,0.2,0.5c0.1,0.1,0.2,0.2,0.3,0.3c0.1,0.1,0.3,0.1,0.5,0.1
		s0.4-0.1,0.7-0.2c0.1-0.2,0.2-0.4,0.2-0.7c0-0.1,0-0.3-0.1-0.4c-0.1-0.1-0.2-0.2-0.3-0.3c-0.2-0.1-0.4-0.3-0.7-0.4
		c-0.2-0.1-0.4-0.2-0.7-0.4c-0.1-0.1-0.3-0.2-0.3-0.4c-0.1-0.1-0.1-0.3-0.1-0.5c0-0.2,0.1-0.5,0.2-0.8c0.1-0.2,0.3-0.3,0.5-0.4
		c0.2-0.1,0.5-0.2,0.9-0.2c0.2,0,0.3,0,0.5,0c0.2,0,0.4,0.1,0.7,0.1v1h-0.3c0-0.2-0.1-0.3-0.2-0.5c-0.1-0.1-0.2-0.2-0.3-0.2
		s-0.3-0.1-0.4-0.1c-0.1,0-0.3,0-0.4,0.1c-0.1,0.1-0.2,0.1-0.3,0.2c-0.1,0.1-0.1,0.3-0.1,0.4s0,0.3,0.1,0.4s0.2,0.2,0.3,0.3
		c0.2,0.1,0.3,0.2,0.7,0.3c0.2,0.1,0.5,0.2,0.8,0.4c0.2,0.1,0.3,0.2,0.4,0.4c0.1,0.2,0.1,0.4,0.1,0.7c0,0.2,0,0.4-0.1,0.7
		c-0.1,0.2-0.2,0.3-0.3,0.4s-0.3,0.2-0.5,0.2S155.2,99,155,99c-0.4,0-0.9-0.1-1.3-0.2v-1L153.8,97.9z"/>
	<polygon class="st0" points="82.9,90.7 156.8,90.7 156.8,92 82.9,92 	"/>
	<polygon class="st0" points="82.9,88 156.8,88 156.8,90.7 82.9,90.7 	"/>
</g>
</svg>
