<?xml version="1.0" encoding="utf-8"?>
<!-- Generator: Adobe Illustrator 24.0.0, SVG Export Plug-In . SVG Version: 6.00 Build 0)  -->
<svg version="1.1" id="Layer_1" xmlns="http://www.w3.org/2000/svg" xmlns:xlink="http://www.w3.org/1999/xlink" x="0px" y="0px"
	 viewBox="0 0 240 100" style="enable-background:new 0 0 240 100;" xml:space="preserve">
<style type="text/css">
	.st0{fill:#5E5E5F;}
	.st1{fill:#1C1C1A;}
	.st2{fill:#FEFEFE;}
</style>
<path class="st0" d="M150.7,70.6c0-1.8-0.2-2.5-1-2.8c0.3,0.4,0.4,1.1,0.4,2.3c0,2-0.3,2.5-1.3,2.7l1.2,2.6c0.1,0.3,0.2,0.4,0.2,0.5
	c0,0.1,0,0.2-0.1,0.2c-0.1,0.1-0.2,0.1-0.4,0.1c-0.4,0-0.9,0-1.5,0c-0.5,0-1.1,0-1.5,0c-0.1,0-0.1,0-0.1,0c0.2,0.3,0.3,0.4,0.7,0.5
	c0.4,0,1,0,1.5,0c0.5,0,1.1,0,1.5,0c0.2,0,0.3-0.1,0.4-0.1c0.1-0.1,0.1-0.1,0.1-0.2c0-0.1,0-0.2-0.2-0.5l-1.2-2.6
	C150.4,73,150.7,72.6,150.7,70.6L150.7,70.6z M140.3,76.2c0-0.3,0-0.6,0-0.8c0-0.3,0-0.5,0-0.8c0-0.3-0.1-0.4-0.3-0.4h-0.3
	c0,0.2,0,0.5,0,0.7c0,0.3,0,0.6,0,0.8c0,0.3-0.2,0.4-0.5,0.5c-0.4,0-2.9,0.1-3.6,0.1c-0.7,0-2.7,0-3.5,0c0,0.3,0.2,0.4,0.4,0.4
	c0.6,0.1,2.9,0.1,3.7,0.1c0.7,0,3.2,0,3.6-0.1C140.1,76.7,140.3,76.6,140.3,76.2L140.3,76.2z M136,73.8v-0.3c0-0.2,0-0.2,0.2-0.2
	h3.6c0.2,0,0.3,0,0.3-0.3c0-0.3,0-0.6,0-0.8c0-0.3,0-0.6,0-0.8c0-0.2-0.1-0.3-0.3-0.3h-0.3c0,0.2,0,0.4,0,0.6c0,0.3,0,0.6,0,0.8
	c0,0.2-0.1,0.3-0.3,0.3h-3.6c-0.1,0-0.2,0.1-0.2,0.2v0.5c0,0.2,0,0.2,0.2,0.2L136,73.8L136,73.8z M140.3,69.8c0-0.3,0-0.5,0-0.8
	s0-0.6,0-0.8c0-0.3-0.2-0.4-0.5-0.5c0,0-0.1,0-0.2,0c0,0,0,0,0,0.1c0,0.3,0,0.6,0,0.8s0,0.5,0,0.8c0,0.3-0.1,0.4-0.3,0.4h-3.8
	c-0.1,0-0.2,0.1-0.2,0.2v0.5c0,0.2,0,0.2,0.2,0.2h0.5v-0.3c0-0.2,0-0.2,0.2-0.2h3.8C140.2,70.1,140.3,70,140.3,69.8L140.3,69.8z
	 M130.7,75.6c0.1-0.6,0.3-1.9,0.3-3.5c0-0.2-0.1-0.3-0.3-0.3c-0.1,0-0.2,0-0.4,0c0,1.5-0.1,2.7-0.3,3.3c-0.2,0.8-0.5,1-1.5,1.1
	c-0.7,0.1-2,0.1-2.9,0.1c-0.8,0-2.1-0.1-2.9-0.1c-0.3,0-0.5-0.1-0.6-0.1c0.2,0.4,0.5,0.5,1.3,0.5c0.7,0.1,2,0.1,2.9,0.1
	c0.8,0,2.1-0.1,2.9-0.1C130.2,76.6,130.5,76.4,130.7,75.6L130.7,75.6z M130.9,70.6c0-0.4-0.1-1.5-0.2-1.9c-0.1-0.6-0.3-0.9-0.8-1
	c0.1,0.2,0.2,0.3,0.2,0.6c0.1,0.4,0.2,1.5,0.2,1.9c0,0.3,0,0.3-0.2,0.3c-0.3,0-1.3,0-1.7,0c-0.4,0-1,0-1.4,0c0,0.1,0,0.2,0,0.2
	c0,0.2,0,0.2,0.3,0.2c0.3,0,1.3,0,1.7,0c0.5,0,1.4,0,1.7,0C130.9,71,130.9,70.9,130.9,70.6L130.9,70.6z M120.5,76.2
	c0-1.1,0-2.5,0-4.1c0-1.6,0-3,0-4.1c0-0.3-0.1-0.4-0.4-0.5c-0.1,0-0.2,0-0.3,0c0,0,0,0,0,0.1c0,1.1,0,2.5,0,4.1c0,1.5,0,3,0,4.1
	c0,0.3-0.1,0.4-0.3,0.5c-0.2,0-0.9,0.1-1.4,0.1c-0.5,0-0.8,0-1,0c-0.2,0-0.3,0-0.4-0.1c0.2,0.4,0.4,0.4,1,0.5c0.2,0,0.5,0,1,0
	c0.5,0,1.2,0,1.4-0.1C120.4,76.7,120.5,76.6,120.5,76.2L120.5,76.2z M116.4,70.2l-1.2-1.9c-0.2-0.4-0.4-0.5-0.7-0.6
	c0,0.1,0.1,0.1,0.1,0.2l1.8,2.9V70.2L116.4,70.2z M110.1,72.9c0-1.4,0-3.7-0.1-4.8c0-0.3-0.2-0.4-0.4-0.5c-0.1,0-0.1,0-0.2,0
	c0,0,0,0,0,0.1c0,1.1,0.1,3.4,0.1,4.8c0,3.3-0.5,4-4.6,4c-1.6,0-2.6-0.1-3.3-0.4c0.6,0.7,1.8,0.9,3.9,0.9
	C109.6,76.9,110.1,76.1,110.1,72.9L110.1,72.9z M104.9,74v-5.9c0-0.3-0.1-0.4-0.4-0.5c-0.1,0-0.1,0-0.2,0c0,0,0,0,0,0.1v6
	C104.3,74,104.4,74,104.9,74C104.9,74,104.9,74,104.9,74L104.9,74z M99.6,76.2c0-1.1,0-2.5,0-4.1c0-1.5,0-3,0-4.1
	c0-0.3-0.2-0.4-0.4-0.5c-0.1,0-0.1,0-0.2,0c0,0,0,0,0,0.1c0,1.1,0,2.5,0,4.1c0,1.6,0,3,0,4.1c0,0.3-0.2,0.4-0.4,0.5
	c-0.3,0-0.9,0.1-1.6,0.1c-0.5,0-1,0-1.4,0c0,0.3,0.1,0.4,0.4,0.4c0.3,0,0.9,0.1,1.6,0.1c0.7,0,1.3,0,1.6-0.1
	C99.5,76.7,99.6,76.6,99.6,76.2L99.6,76.2z M94.5,70.4v-2.3c0-0.3-0.1-0.4-0.4-0.5c-0.1,0-0.1,0-0.2,0c0,0,0,0,0,0.1v2.7H94.5z
	 M90.5,76.3c0,0.3,0.2,0.4,0.4,0.4c0.3,0,0.9,0.1,1.6,0.1s1.3,0,1.6-0.1c0.3,0,0.4-0.2,0.4-0.5v-2.8h0.5V73h-1.2v2.8
	c0,0.3-0.1,0.4-0.4,0.5c-0.3,0-0.9,0.1-1.6,0.1C91.4,76.3,90.9,76.3,90.5,76.3z M111.4,76.3c0,0.3,0.1,0.4,0.4,0.4
	c0.2,0,0.8,0.1,1.4,0.1c0.5,0,1.1,0,1.4-0.1c0.3,0,0.3-0.2,0.3-0.5v-2.4l-0.6-1v3c0,0.3-0.1,0.4-0.3,0.5c-0.2,0-0.9,0.1-1.4,0.1
	C112.2,76.3,111.7,76.3,111.4,76.3L111.4,76.3z M125.8,74.2C125.8,74.2,125.8,74.2,125.8,74.2c0-0.3,0-0.7,0-1.1c0,0,0-0.1,0-0.1
	c0-0.2,0-0.5,0-0.7c0-0.2,0-0.5,0-0.6c0-0.1,0-0.1,0-0.2c0-0.5,0-1,0-1.4c0-0.2,0.1-0.2,0.2-0.2c0.1,0,0.2,0,0.3,0
	c0-0.1,0-0.2,0-0.2c0-0.1-0.1-0.2-0.2-0.2c-0.1,0-0.2,0-0.3,0c-0.1,0-0.3,0-0.3,0c-0.1,0-0.2,0.1-0.2,0.2c0,0.5,0,1.3,0,2.1
	c0,0.7,0,1.6,0,2.2c0,0.2,0.1,0.2,0.2,0.2C125.5,74.1,125.7,74.2,125.8,74.2L125.8,74.2z M126.4,73.2
	C126.4,73.2,126.4,73.2,126.4,73.2c-0.1,0.1-0.1,0.1-0.1,0.2c0,0.1,0,0.1,0,0.1C126.4,73.5,126.4,73.3,126.4,73.2L126.4,73.2z
	 M141.6,76.3c0,0.3,0.2,0.4,0.4,0.4c0.3,0,0.8,0.1,1.5,0.1c0.7,0,1.3,0,1.5-0.1c0.3,0,0.4-0.2,0.4-0.5v-2.3l0,0l-0.2-0.4h-0.5v2.3
	c0,0.3-0.1,0.4-0.4,0.5c-0.3,0-0.9,0.1-1.5,0.1C142.3,76.3,141.9,76.3,141.6,76.3L141.6,76.3z M145.4,71.2v-1c0-0.2,0-0.3,0.1-0.3
	h0.6c0-0.1,0-0.1,0-0.2c0-0.2-0.1-0.3-0.3-0.3h-0.9c-0.1,0-0.1,0.1-0.1,0.3v1.2c0,0.2,0,0.3,0.1,0.3H145.4L145.4,71.2z"/>
<path class="st0" d="M158.4,58.3c0-2.1,0-4.1-0.1-5.6c0-0.5-0.2-0.6-0.6-0.6c0,0,0,0-0.1,0c0,0.1,0,0.1,0,0.2
	c0.1,1.5,0.1,3.5,0.1,5.6c0,2.1,0,4.1-0.1,5.6c0,0.5-0.2,0.6-0.6,0.6c-0.4,0-1.3,0.1-2.2,0.1c-0.8,0-1.7,0-2.1-0.1
	c0.1,0.3,0.2,0.4,0.5,0.4c0.4,0,1.3,0.1,2.2,0.1c0.9,0,1.8,0,2.2-0.1c0.4,0,0.6-0.2,0.6-0.6C158.4,62.4,158.4,60.5,158.4,58.3
	L158.4,58.3z M151.4,56v-3.3c0-0.5-0.2-0.6-0.5-0.6c0,0-0.1,0-0.1,0c0,0.1,0,0.1,0,0.2V56H151.4L151.4,56z M144.2,60.8
	c0-0.8,0-2.4,0-3.1c0-0.4-0.2-0.5-0.5-0.5c0,0-0.1,0-0.1,0c0,0,0,0.1,0,0.1c0,0.7,0,2.2,0,3.1c0,3-0.5,3.6-2.5,3.8
	c-0.7,0.1-2.7,0.1-3.6,0.1c-0.9,0-2.8-0.1-3.5-0.1c-0.5-0.1-1-0.1-1.3-0.3c0.4,0.5,1,0.6,1.9,0.7c0.7,0.1,2.6,0.1,3.5,0.1
	c0.9,0,2.9-0.1,3.6-0.1C143.8,64.4,144.2,63.8,144.2,60.8L144.2,60.8z M144.2,55.8c0-2.1-0.3-3-1.3-3.5c0.5,0.5,0.6,1.5,0.6,3
	c0,0.5-0.1,0.5-0.5,0.6c-0.4,0-1.6,0-2.2,0c-0.5,0-1.6,0-2.1,0V56c0,0.3,0,0.3,0.4,0.4c0.4,0,1.7,0,2.4,0s1.8,0,2.2,0
	C144.1,56.3,144.2,56.2,144.2,55.8L144.2,55.8z M131,63.8c0-0.4-0.1-1-0.3-1.6l-3.2-13.8c-0.1-0.5-0.3-0.7-0.7-0.7
	c0.1,0.1,0.1,0.2,0.1,0.3l3.2,13.8c0.2,0.6,0.3,1.2,0.3,1.6c0,0.4-0.2,0.7-0.7,0.7c-0.5,0.1-1.8,0.1-3,0.1c-1.1,0-2.2,0-2.7-0.1
	c-0.1,0-0.2,0-0.3,0c0.1,0.4,0.4,0.4,0.9,0.5c0.5,0.1,1.6,0.1,2.7,0.1s2.5-0.1,3-0.1C130.8,64.5,131,64.2,131,63.8L131,63.8z
	 M111.9,63.9c0.1-1.5,0.1-3.4,0.1-5.6c0-2.1,0-4.1-0.1-5.6c0-0.5-0.2-0.6-0.6-0.6c0,0,0,0-0.1,0c0,0.1,0,0.1,0,0.2
	c0.1,1.5,0.1,3.5,0.1,5.6c0,2.1,0,4.1-0.1,5.6c0,0.5-0.2,0.6-0.5,0.6c-0.3,0-1.4,0.1-2.1,0.1c-0.7,0-1.6,0-2-0.1
	c0,0.3,0.2,0.4,0.5,0.4c0.3,0,1.4,0.1,2.2,0.1c0.8,0,1.8,0,2.1-0.1C111.8,64.5,111.9,64.3,111.9,63.9L111.9,63.9z M103.7,54.9
	l-1.1-1.9c-0.2-0.4-0.4-0.6-0.8-0.8c0.1,0.1,0.1,0.2,0.2,0.3l1.5,2.7L103.7,54.9L103.7,54.9z M94.6,60.8c0-0.8,0-2.4,0-3.1
	c0-0.4-0.2-0.5-0.5-0.5c0,0-0.1,0-0.1,0c0,0,0,0.1,0,0.1c0,0.7,0,2.2,0,3.1c0,3-0.5,3.6-2.5,3.8c-0.7,0.1-2.7,0.1-3.6,0.1
	c-0.9,0-2.8-0.1-3.5-0.1c-0.5-0.1-1-0.1-1.3-0.3c0.4,0.5,1,0.6,1.9,0.7c0.7,0.1,2.6,0.1,3.5,0.1c0.9,0,2.9-0.1,3.6-0.1
	C94.2,64.4,94.6,63.8,94.6,60.8L94.6,60.8z M94.6,55.8c0-2.1-0.3-3-1.3-3.5c0.5,0.5,0.6,1.5,0.6,3c0,0.5-0.1,0.5-0.5,0.6
	c-0.4,0-1.6,0-2.2,0c-0.5,0-1.6,0-2.1,0V56c0,0.3,0,0.3,0.4,0.4c0.4,0,1.7,0,2.4,0s1.8,0,2.2,0C94.5,56.3,94.6,56.2,94.6,55.8
	L94.6,55.8z M87.8,61.2C87.8,61.2,87.8,61.2,87.8,61.2l0-0.8c0-0.3,0-0.3-0.4-0.4c-0.1,0-0.1,0-0.2,0l0,0.7
	C87.2,61.1,87.3,61.2,87.8,61.2L87.8,61.2z M87.4,56.7c0.1,0,0.2,0,0.4,0c0-0.4,0-1,0-1.3c0-0.4,0.1-0.5,0.7-0.5c0,0,0.1,0,0.1,0
	c0-0.4-0.2-0.4-0.7-0.4c-0.6,0-0.7,0.1-0.7,0.5c0,0.4,0,1.1,0,1.4C87.2,56.7,87.2,56.7,87.4,56.7L87.4,56.7z M82.9,59.2
	c0.3,0,4.3,0,5.7,0c0-0.1,0-0.1,0-0.2c0-0.3-0.1-0.3-0.2-0.3c-0.5,0-5.1,0-5.9,0C82.5,59.1,82.6,59.2,82.9,59.2L82.9,59.2z
	 M96.4,64.1c0.1,0.3,0.2,0.4,0.5,0.4c0.3,0,1.4,0.1,2.1,0.1c0.8,0,1.8,0,2.2-0.1c0.3,0,0.5-0.2,0.5-0.6v-4.4l-0.6-1.2v5.1
	c0,0.5-0.1,0.6-0.5,0.6c-0.3,0-1.4,0.1-2.2,0.1C97.7,64.2,96.8,64.1,96.4,64.1L96.4,64.1z M103,61.4c0.2,0.4,0.3,0.4,0.6,0.4h1.1
	c0.3,0,0.4,0,0.6-0.5l0.8-1.5v-1.6l-1.4,2.6c-0.2,0.4-0.3,0.5-0.6,0.5L103,61.4L103,61.4z M113.2,64.1c0.1,0.3,0.3,0.4,0.7,0.4
	c0.5,0.1,1.8,0.1,3,0.1s2.2,0,2.7-0.1c0.8-0.1,0.9-0.2,1.1-1.1l0.2-1.4h2l-0.1-0.4h-2.6l-0.2,1.4c-0.2,0.9-0.3,1.1-1.1,1.1
	c-0.5,0.1-1.6,0.1-2.7,0.1C115.1,64.2,113.7,64.1,113.2,64.1C113.2,64.1,113.2,64.1,113.2,64.1L113.2,64.1z M120.6,57.6h0.7l0.5-3.6
	l-0.3-2h-0.1L120.6,57.6L120.6,57.6z M137.4,61.2C137.4,61.2,137.4,61.2,137.4,61.2l0-0.8c0-0.3,0-0.3-0.4-0.4c-0.1,0-0.1,0-0.2,0
	l0,0.7C136.8,61.1,136.9,61.2,137.4,61.2L137.4,61.2z M137,56.7c0.1,0,0.2,0,0.4,0c0-0.4,0-1,0-1.3c0-0.4,0.1-0.5,0.7-0.5
	c0,0,0.1,0,0.1,0c0-0.4-0.2-0.4-0.7-0.4c-0.6,0-0.7,0.1-0.7,0.5c0,0.4,0,1.1,0,1.4C136.8,56.7,136.8,56.7,137,56.7L137,56.7z
	 M132.5,59.2c0.3,0,4.3,0,5.7,0c0-0.1,0-0.1,0-0.2c0-0.3-0.1-0.3-0.2-0.3c-0.5,0-5.1,0-5.9,0C132.1,59.1,132.2,59.2,132.5,59.2
	L132.5,59.2z M145.9,64.1c0.1,0.3,0.2,0.4,0.5,0.4c0.4,0,1.3,0.1,2.2,0.1c0.9,0,1.8,0,2.2-0.1c0.4,0,0.5-0.2,0.5-0.6V60h1v-0.4h-1.6
	v3.9c0,0.5-0.2,0.6-0.5,0.6c-0.4,0-1.3,0.1-2.2,0.1C147.2,64.2,146.3,64.1,145.9,64.1L145.9,64.1z"/>
<path class="st1" d="M94.8,67.5v2.7h-1.2v-2.7c0-0.3-0.1-0.4-0.4-0.5c-0.3,0-0.9-0.1-1.6-0.1c-0.7,0-1.3,0-1.6,0.1
	c-0.3,0-0.4,0.2-0.4,0.5c0,1.1,0,2.5,0,4.1c0,1.6,0,3,0,4.1c0,0.3,0.2,0.4,0.4,0.5c0.3,0,0.9,0.1,1.6,0.1s1.3,0,1.6-0.1
	c0.3,0,0.4-0.2,0.4-0.5v-2.8h1.2v2.8c0,0.3,0.1,0.4,0.4,0.5c0.3,0,0.9,0.1,1.6,0.1c0.7,0,1.3,0,1.6-0.1c0.3,0,0.4-0.2,0.4-0.5
	c0-1.1,0-2.5,0-4.1c0-1.5,0-3,0-4.1c0-0.3-0.2-0.4-0.4-0.5c-0.3,0-0.9-0.1-1.6-0.1s-1.3,0-1.6,0.1C94.9,67,94.8,67.1,94.8,67.5z
	 M105.3,67.5v6c0,0.3-0.1,0.3-0.6,0.3c-0.5,0-0.6,0-0.6-0.3v-6c0-0.3-0.1-0.4-0.4-0.5c-0.3,0-0.9-0.1-1.6-0.1c-0.7,0-1.3,0-1.6,0.1
	c-0.3,0-0.4,0.2-0.4,0.5c0,1.1-0.1,3.4-0.1,4.8c0,3.3,0.6,4,4.6,4c4,0,4.6-0.7,4.6-4c0-1.4,0-3.7-0.1-4.8c0-0.3-0.2-0.4-0.4-0.5
	c-0.3,0-0.9-0.1-1.6-0.1s-1.3,0-1.6,0.1C105.4,67,105.3,67.1,105.3,67.5z M116.2,67.5v3.1l-1.8-2.9c-0.3-0.5-0.4-0.6-1.1-0.7
	c-0.2,0-0.6,0-0.9,0c-0.4,0-1.1,0-1.4,0.1c-0.3,0-0.4,0.2-0.4,0.5c0,1.1,0,2.5,0,4.1c0,1.6,0,3,0,4.1c0,0.3,0.1,0.4,0.4,0.5
	c0.2,0,0.8,0.1,1.4,0.1c0.5,0,1.1,0,1.4-0.1c0.3,0,0.3-0.2,0.3-0.5v-3l1.7,2.8c0.3,0.5,0.4,0.6,1.1,0.6c0.2,0,0.5,0,1,0
	c0.5,0,1.2,0,1.4-0.1c0.2,0,0.3-0.2,0.3-0.5c0-1.1,0-2.5,0-4.1c0-1.6,0-3,0-4.1c0-0.3-0.1-0.4-0.4-0.5c-0.2,0-0.8-0.1-1.4-0.1
	c-0.5,0-1.1,0-1.4,0.1C116.3,67,116.2,67.1,116.2,67.5L116.2,67.5z M129.8,71.2c-0.3,0-1.7,0-2,0c-0.3,0-1.8,0-2,0
	c-0.2,0-0.3,0.1-0.3,0.3c0,0.2,0,0.5,0,0.6c0,0.1,0,0.4,0,0.7c0,0.2,0.1,0.3,0.7,0.3c0,0.2,0,0.5,0,0.7c0,0.1-0.1,0.2-0.2,0.2
	c-0.1,0-0.3,0-0.4,0c-0.1,0-0.3,0-0.3,0c-0.1,0-0.2-0.1-0.2-0.2c0-0.6,0-1.5,0-2.2c0-0.8,0-1.5,0-2.1c0-0.2,0.1-0.2,0.2-0.2
	c0.1,0,0.2,0,0.3,0c0.1,0,0.3,0,0.3,0c0.2,0,0.2,0.1,0.2,0.2c0,0.2,0,0.5,0,0.6c0,0.2,0,0.2,0.3,0.2c0.3,0,1.3,0,1.7,0
	c0.5,0,1.4,0,1.7,0c0.2,0,0.2-0.1,0.2-0.3c0-0.4-0.1-1.5-0.2-1.9c-0.2-0.8-0.5-1-1.5-1.1c-0.7-0.1-2.1-0.1-2.9-0.1
	c-0.8,0-2.2,0.1-2.9,0.1c-0.9,0.1-1.3,0.3-1.5,1.1c-0.2,0.6-0.3,1.9-0.3,3.4c0,1.5,0.1,2.8,0.3,3.4c0.2,0.8,0.5,1,1.5,1.1
	c0.7,0.1,2,0.1,2.9,0.1c0.9,0,2.1-0.1,2.9-0.1c1-0.1,1.3-0.3,1.5-1.1c0.1-0.6,0.3-1.9,0.3-3.5C130.1,71.3,130,71.2,129.8,71.2
	L129.8,71.2z M139.2,73.6h-3.8c-0.1,0-0.2,0-0.2-0.2v-0.5c0-0.2,0-0.2,0.2-0.2h3.6c0.2,0,0.3,0,0.3-0.3c0-0.3,0-0.6,0-0.8
	c0-0.3,0-0.6,0-0.8c0-0.2-0.1-0.3-0.3-0.3h-3.6c-0.1,0-0.2,0-0.2-0.2v-0.5c0-0.2,0-0.2,0.2-0.2h3.8c0.2,0,0.3-0.1,0.3-0.4
	c0-0.3,0-0.5,0-0.8c0-0.3,0-0.6,0-0.8c0-0.3-0.2-0.4-0.5-0.5c-0.4,0-2.9-0.1-3.6-0.1c-0.7,0-3,0-3.7,0.1c-0.3,0-0.4,0.2-0.4,0.5
	c0,1.1,0,2.5,0,4.1c0,1.5,0,3,0,4.1c0,0.3,0.2,0.4,0.4,0.5c0.6,0.1,2.9,0.1,3.7,0.1c0.7,0,3.2,0,3.6-0.1c0.3,0,0.4-0.2,0.5-0.5
	c0-0.3,0-0.6,0-0.8s0-0.5,0-0.8C139.5,73.6,139.4,73.6,139.2,73.6L139.2,73.6z M149.8,75.2l-1.2-2.6c1-0.2,1.3-0.7,1.3-2.7
	c0-2.2-0.3-2.8-1.8-2.9c-0.7-0.1-1.9-0.1-2.9-0.1c-1.5,0-3.4,0-4,0.1c-0.3,0-0.4,0.2-0.4,0.5c0,1.1,0,2.5,0,4.1c0,1.6,0,3,0,4.1
	c0,0.3,0.2,0.4,0.4,0.5c0.3,0,0.8,0.1,1.5,0.1c0.7,0,1.3,0,1.5-0.1c0.3,0,0.4-0.2,0.4-0.5v-2.3h0.5l0.8,2.1c0.2,0.5,0.3,0.6,0.8,0.6
	c0.4,0,1,0,1.5,0c0.5,0,1.1,0,1.5,0c0.2,0,0.3-0.1,0.4-0.1c0.1-0.1,0.1-0.1,0.1-0.2C150,75.7,150,75.5,149.8,75.2L149.8,75.2z
	 M145.6,71h-0.9c-0.1,0-0.1-0.1-0.1-0.3v-1.2c0-0.2,0-0.3,0.1-0.3h0.9c0.2,0,0.2,0.1,0.3,0.3c0,0.2,0.1,0.4,0.1,0.6
	c0,0.2,0,0.4-0.1,0.6C145.9,70.9,145.8,71,145.6,71L145.6,71z"/>
<path class="st1" d="M87,60.5l0-0.7c0-0.3,0-0.3-0.4-0.4c-0.4,0-1.7,0-2.4,0s-1.8,0-2.2,0c-0.4,0-0.5,0.1-0.5,0.6
	c0,3.2,0.6,3.7,2.6,3.9c0.7,0.1,2.6,0.1,3.5,0.1c0.9,0,2.9-0.1,3.6-0.1c2-0.2,2.5-0.8,2.5-3.8c0-0.8,0-2.4,0-3.1
	c0-0.4-0.2-0.5-0.5-0.5c-0.3,0-5.6,0-6.1,0c-0.2,0-0.2,0-0.2-0.3c0-0.3,0-1.1,0-1.4c0-0.4,0.1-0.5,0.7-0.5c0.5,0,0.7,0.1,0.7,0.5
	l0,0.6c0,0.3,0,0.3,0.4,0.4c0.4,0,1.7,0,2.4,0s1.8,0,2.2,0c0.4,0,0.5-0.1,0.5-0.6c0-2.9-0.6-3.6-2.6-3.8c-0.7-0.1-2.6-0.1-3.5-0.1
	c-0.9,0-2.9,0.1-3.6,0.1c-2,0.2-2.5,0.8-2.5,3.8c0,0.8,0,2.2,0,2.9c0,0.4,0.2,0.5,0.5,0.5c0.3,0,5.6,0,6.1,0c0.2,0,0.2,0,0.2,0.3
	c0,0.5,0,1.2,0,1.6c0,0.4-0.1,0.5-0.7,0.5C87.1,61,87,60.9,87,60.5L87,60.5z M104.9,52.3l-1.5,2.7l-1.5-2.7
	c-0.3-0.6-0.5-0.8-1.6-0.9c-0.3,0-1.1-0.1-1.9-0.1s-1.9,0-2.2,0.1c-0.4,0-0.6,0.2-0.6,0.6c-0.1,1.5-0.1,3.5-0.1,5.6
	c0,2.1,0,4.1,0.1,5.6c0,0.5,0.2,0.6,0.5,0.6c0.3,0,1.4,0.1,2.1,0.1c0.8,0,1.8,0,2.2-0.1c0.3,0,0.5-0.2,0.5-0.6v-5.1l1.4,2.6
	c0.2,0.4,0.3,0.5,0.6,0.5h1.1c0.3,0,0.4,0,0.6-0.5l1.4-2.6v5.1c0,0.5,0.1,0.6,0.5,0.6c0.3,0,1.4,0.1,2.2,0.1c0.8,0,1.8,0,2.1-0.1
	c0.3,0,0.5-0.2,0.5-0.6c0.1-1.5,0.1-3.4,0.1-5.6c0-2.1,0-4.1-0.1-5.6c0-0.5-0.2-0.6-0.6-0.6c-0.3,0-1.4-0.1-2.2-0.1
	c-0.8,0-1.6,0-1.9,0.1C105.4,51.5,105.2,51.7,104.9,52.3L104.9,52.3z M129.9,61.6l-3.2-13.8c-0.1-0.6-0.4-0.7-1-0.8
	c-0.6,0-3-0.1-4.4-0.1c-1.5,0-3.9,0.1-4.4,0.1c-0.6,0-0.9,0.2-1,0.8l-3.2,13.8c-0.2,0.6-0.3,1.2-0.3,1.6c0,0.4,0.2,0.7,0.7,0.7
	c0.5,0.1,1.8,0.1,3,0.1c1.1,0,2.2,0,2.7-0.1c0.8-0.1,0.9-0.2,1.1-1.1l0.2-1.4h2.6l0.2,1.4c0.2,0.9,0.3,1.1,1.1,1.1
	c0.5,0.1,1.6,0.1,2.7,0.1s2.5-0.1,3-0.1c0.5-0.1,0.7-0.3,0.7-0.7C130.2,62.8,130.1,62.2,129.9,61.6L129.9,61.6z M121.2,51.8h0.1
	l0.8,5.6h-1.7L121.2,51.8L121.2,51.8z M136.6,60.5l0-0.7c0-0.3,0-0.3-0.4-0.4c-0.4,0-1.7,0-2.4,0s-1.8,0-2.2,0s-0.5,0.1-0.5,0.6
	c0,3.2,0.6,3.7,2.6,3.9c0.7,0.1,2.6,0.1,3.5,0.1c0.9,0,2.9-0.1,3.6-0.1c2-0.2,2.5-0.8,2.5-3.8c0-0.8,0-2.4,0-3.1
	c0-0.4-0.2-0.5-0.5-0.5c-0.3,0-5.6,0-6.1,0c-0.2,0-0.2,0-0.2-0.3c0-0.3,0-1.1,0-1.4c0-0.4,0.1-0.5,0.7-0.5c0.5,0,0.7,0.1,0.7,0.5
	l0,0.6c0,0.3,0,0.3,0.4,0.4c0.4,0,1.7,0,2.4,0s1.8,0,2.2,0c0.4,0,0.5-0.1,0.5-0.6c0-2.9-0.6-3.6-2.6-3.8c-0.7-0.1-2.6-0.1-3.5-0.1
	s-2.9,0.1-3.6,0.1c-2,0.2-2.5,0.8-2.5,3.8c0,0.8,0,2.2,0,2.9c0,0.4,0.2,0.5,0.5,0.5c0.3,0,5.6,0,6.1,0c0.2,0,0.2,0,0.2,0.3
	c0,0.5,0,1.2,0,1.6c0,0.4-0.1,0.5-0.7,0.5C136.7,61,136.6,60.9,136.6,60.5L136.6,60.5z M152.1,52.1v3.7h-1.6v-3.7
	c0-0.5-0.2-0.6-0.5-0.6c-0.4,0-1.3-0.1-2.2-0.1c-0.9,0-1.8,0-2.2,0.1c-0.4,0-0.6,0.2-0.6,0.6c-0.1,1.5-0.1,3.5-0.1,5.6
	c0,2.1,0,4.1,0.1,5.6c0,0.5,0.2,0.6,0.6,0.6c0.4,0,1.3,0.1,2.2,0.1c0.9,0,1.8,0,2.2-0.1c0.4,0,0.5-0.2,0.5-0.6v-3.9h1.6v3.9
	c0,0.5,0.2,0.6,0.5,0.6c0.4,0,1.3,0.1,2.2,0.1c0.9,0,1.8,0,2.2-0.1c0.4,0,0.6-0.2,0.6-0.6c0.1-1.5,0.1-3.4,0.1-5.6
	c0-2.1,0-4.1-0.1-5.6c0-0.5-0.2-0.6-0.6-0.6c-0.4,0-1.3-0.1-2.2-0.1c-0.9,0-1.8,0-2.2,0.1C152.3,51.5,152.1,51.6,152.1,52.1z"/>
<path d="M131.2,15c4.7-2.4,9.4-1.7,12.5,1.8c2.1,2.3,2.7,5,1.9,8c-0.2,0.9,0,1.4,0.5,2c2.4,2.9,3.6,6.1,2.5,9.9
	c-1.2,4-4.8,6.4-9.2,6.3c-0.8,0-1.7-0.1-2.8-0.1c-0.1,1.4-0.1,2.9-0.2,4.4c0,0.4,0.1,0.8,0,1.2c-0.1,1.1-1,1.9-2.1,1.7
	c-9.2-1.9-18.4-1.9-27.7-2.2c-2.3-0.1-2.9-0.7-2.6-3c0.3-2.1,0.4-4.2,0.7-6.3c-1.5-0.2-2.7-0.2-3.9-0.5c-5.8-1.4-9.1-6.6-7.8-12.6
	c1.3-6.2,5.8-10.2,12.2-10.6c0.7-0.1,1.1-0.3,1.5-1c2.3-4.6,6.1-6.8,11.1-7.1C124,6.5,128.6,9.1,131.2,15L131.2,15z M105.6,16.8
	c-0.1,0-0.3,0-0.5,0c-6.7,0.3-11.6,7.1-9.7,13.6c1.2,4.1,5.5,6.8,9.4,5.9c-1.6-1.8-2.2-3.9-1.7-6.3c0.7,2.1,2,3.8,3.9,5
	c6,4.1,18.2,3.8,22.4-3.4c-0.4,1-0.7,2-1.3,2.8c-0.5,0.7-0.3,1.1,0.2,1.6c1.9,2,4.2,2.7,6.9,2.6c2.7-0.1,4.8-1.4,6.3-3.7
	c-0.6,1.2-1.1,2.4-2,3.3c-0.9,0.9-2.1,1.5-3.1,2.2c3.6,1.6,8.3-0.1,10-3.9c1.1-2.4,0.8-4.7-0.3-7c-1.2-2.3-3.1-3.6-5.7-4
	c0-0.1,0.1-0.2,0.1-0.4c1.1-0.1,2.3-0.1,3.4-0.1c1.1-3.1,0.1-6.3-2.8-7.9c-2.7-1.6-5.5-1.5-8.3-0.1c-0.8,0.4-1.3,0.9-1.4,1.8
	c-0.1,0.5-0.3,0.9-0.5,1.4c-0.2-2.9-1.2-5.4-3.4-7.3c-3.2-2.8-6.9-4-11.1-3.4c-5.6,0.8-9.4,4.6-9,10.5c0,0.2,0,0.4-0.1,0.6
	c-0.1,0-0.3,0.1-0.4,0.1C106.4,19.5,106,18.2,105.6,16.8L105.6,16.8z M105.9,45.9c9.7,0.2,19.2,0.4,28.7,2.2c0.1-1,0.1-1.8,0.1-2.7
	c0-1.1,0.5-2.5-0.1-3.1c-0.6-0.7-2-0.9-3.1-1.1c-2.5-0.5-5-0.9-7.8-1.3c1.6-0.3,2.9-0.5,4.3-0.7c-0.8-0.8-1.5-1.5-2.2-2.2
	c-6.3,3.6-12.7,4-19.2,0.9c-0.1,1.2-0.1,2.4-0.2,3.4c3.7,0.6,7.2,1.2,10.8,1.7c0,0.2,0,0.4-0.1,0.6c-2.9-0.1-5.8-0.3-8.8-0.4
	C105.9,43.1,105.9,43.2,105.9,45.9L105.9,45.9z"/>
<path class="st2" d="M105.6,16.8c0.4,1.4,0.8,2.7,1.2,4c0.1,0,0.3-0.1,0.4-0.1c0-0.2,0.1-0.4,0.1-0.6c-0.4-5.9,3.4-9.6,9-10.5
	c4.2-0.6,7.9,0.6,11.1,3.4c2.2,1.9,3.2,4.4,3.4,7.3c0.2-0.5,0.5-0.9,0.5-1.4c0.1-0.9,0.7-1.4,1.4-1.8c2.8-1.4,5.6-1.5,8.3,0.1
	c2.9,1.6,4,4.8,2.8,7.9c-1.2,0.1-2.3,0.1-3.4,0.1c0,0.1-0.1,0.2-0.1,0.4c2.5,0.4,4.5,1.7,5.7,4c1.1,2.3,1.4,4.6,0.3,7
	c-1.6,3.7-6.4,5.5-10,3.9c1-0.7,2.2-1.3,3.1-2.2c0.9-0.9,1.4-2.1,2-3.3c-1.5,2.3-3.6,3.6-6.3,3.7c-2.7,0.1-5-0.6-6.9-2.6
	c-0.5-0.5-0.6-0.9-0.2-1.6c0.6-0.8,0.9-1.9,1.3-2.8c-4.2,7.2-16.4,7.5-22.4,3.4c-1.8-1.3-3.2-2.9-3.9-5c-0.5,2.4,0.1,4.5,1.7,6.3
	c-3.9,0.9-8.2-1.9-9.4-5.9c-1.9-6.5,3-13.2,9.7-13.6C105.3,16.8,105.5,16.8,105.6,16.8L105.6,16.8z"/>
<path class="st1" d="M95.9,80.5c-0.3-0.2-0.8-0.6-1-0.8c-0.4-0.2-0.5-0.3-0.8,0c-0.2,0.2-0.6,0.6-1.1,1.1c-0.4,0.5-0.7,1-0.9,1.3
	c-0.2,0.4-0.1,0.5,0.2,0.8c0.2,0.2,0.7,0.6,0.9,0.8c0.3,0.2,0.8,0.6,1,0.8c0.4,0.3,0.5,0.3,0.8,0c0.1-0.1,0.5-0.5,0.8-0.8
	c0.1-0.1,0.1-0.1,0-0.2c-0.2-0.2-0.5-0.4-0.6-0.5c-0.1-0.1-0.5-0.4-0.6-0.5c-0.1-0.1-0.1-0.1-0.2,0c-0.1,0.1-0.3,0.4-0.4,0.5
	c0,0-0.1,0.1-0.1,0c0,0-0.1-0.1-0.1-0.1c0,0-0.1-0.1-0.1-0.1c0-0.1-0.1-0.1,0-0.1c0.1-0.2,0.4-0.5,0.6-0.7c0.2-0.3,0.4-0.5,0.6-0.7
	c0.1-0.1,0.1,0,0.1,0c0,0,0.1,0.1,0.1,0.1c0,0,0.1,0.1,0.1,0.1c0.1,0.1,0.1,0.1,0,0.1c-0.1,0.1-0.3,0.4-0.3,0.4c0,0.1,0,0.1,0,0.1
	c0.1,0.1,0.5,0.4,0.6,0.5c0.1,0.1,0.4,0.3,0.6,0.5c0.1,0.1,0.1,0,0.2-0.1c0.3-0.4,0.5-0.8,0.6-0.9c0.2-0.3,0.1-0.5-0.2-0.8
	C96.6,81.1,96.2,80.7,95.9,80.5L95.9,80.5z M99.8,83.6l-0.6,1l-0.4-0.3l0.6-1c0.1-0.1,0.1-0.2,0-0.3c-0.1-0.1-0.3-0.2-0.6-0.4
	c-0.3-0.2-0.5-0.3-0.6-0.4c-0.1-0.1-0.2,0-0.3,0.1c-0.3,0.4-0.6,0.9-1,1.5c-0.4,0.6-0.7,1.1-0.9,1.6c-0.1,0.1-0.1,0.2,0.1,0.3
	c0.1,0.1,0.3,0.2,0.6,0.4c0.3,0.2,0.5,0.3,0.6,0.4c0.1,0.1,0.2,0,0.3-0.1l0.7-1.1l0.4,0.3l-0.7,1.1c-0.1,0.1-0.1,0.2,0,0.3
	c0.1,0.1,0.3,0.2,0.6,0.4c0.3,0.2,0.5,0.3,0.6,0.4c0.1,0.1,0.2,0,0.3-0.1c0.3-0.4,0.6-0.9,1-1.5c0.4-0.6,0.7-1.1,0.9-1.6
	c0.1-0.1,0.1-0.2-0.1-0.3c-0.1-0.1-0.3-0.2-0.6-0.4c-0.3-0.2-0.5-0.3-0.6-0.4C100,83.5,99.9,83.5,99.8,83.6L99.8,83.6z M104.3,89.7
	l0.7-3.3c0-0.1,0-0.2-0.2-0.3c-0.1-0.1-0.6-0.3-1-0.5c-0.3-0.2-0.8-0.4-1-0.4c-0.1-0.1-0.2-0.1-0.3,0.1l-2.1,2.7
	c-0.1,0.1-0.2,0.2-0.2,0.3c-0.1,0.1,0,0.2,0.1,0.2c0.1,0.1,0.4,0.2,0.6,0.3c0.2,0.1,0.5,0.2,0.6,0.3c0.2,0.1,0.2,0.1,0.4-0.1
	l0.2-0.3l0.6,0.3l-0.1,0.3c-0.1,0.2-0.1,0.3,0.1,0.4c0.1,0.1,0.3,0.2,0.6,0.3s0.5,0.2,0.7,0.3c0.1,0,0.2,0,0.2-0.1
	C104.2,90,104.3,89.8,104.3,89.7L104.3,89.7z M103.4,86.7L103.4,86.7L103,88l-0.4-0.2L103.4,86.7L103.4,86.7z M109.1,91.3l0.3-3.4
	c0-0.1-0.1-0.2-0.2-0.3c-0.1-0.1-0.7-0.2-1-0.4c-0.3-0.1-0.9-0.3-1-0.3c-0.1,0-0.2,0-0.3,0.1l-1.8,2.9c-0.1,0.1-0.2,0.3-0.2,0.3
	c0,0.1,0,0.2,0.1,0.2c0.1,0.1,0.4,0.2,0.7,0.3c0.3,0.1,0.5,0.2,0.6,0.2c0.2,0.1,0.2,0,0.3-0.2l0.2-0.3l0.6,0.2l-0.1,0.3
	c0,0.2,0,0.3,0.2,0.3c0.1,0.1,0.4,0.1,0.6,0.2c0.3,0.1,0.6,0.2,0.7,0.2c0.1,0,0.2,0,0.2-0.1C109,91.6,109.1,91.5,109.1,91.3
	L109.1,91.3z M107.8,88.4L107.8,88.4l-0.2,1.3l-0.4-0.1L107.8,88.4L107.8,88.4z M114.1,89c0-0.2-0.1-0.2-0.2-0.3
	c-0.2-0.1-1.1-0.2-1.7-0.4c-0.6-0.1-1.6-0.3-1.7-0.3c-0.1,0-0.2,0-0.2,0.2c0,0.1-0.1,0.3-0.1,0.4c0,0.1-0.1,0.3-0.1,0.4
	c0,0.2,0.1,0.2,0.2,0.3c0.2,0,0.6,0.1,0.8,0.2l-0.1,0.7c-0.1,0.7-0.3,1.3-0.3,1.8c0,0.2,0,0.2,0.1,0.2c0.1,0,0.4,0.1,0.7,0.2
	c0.3,0.1,0.6,0.1,0.7,0.1c0.1,0,0.2,0,0.2-0.2c0.1-0.5,0.2-1.1,0.4-1.8l0.1-0.7c0.2,0.1,0.6,0.1,0.8,0.2c0.1,0,0.2,0,0.3-0.2
	c0-0.1,0.1-0.3,0.1-0.4S114.1,89.1,114.1,89L114.1,89z M116.2,92v-0.2c0-0.1,0-0.1-0.1-0.1c-0.1,0-0.6-0.1-0.8-0.1
	c-0.2,0-0.6-0.1-0.7,0c-0.1,0-0.2,0-0.2,0.2c-0.1,1,0.1,1.2,0.7,1.3c0.2,0,0.8,0.1,1.1,0.1c0.3,0,0.9,0.1,1.2,0
	c0.7,0,0.8-0.2,0.9-1.2c0-0.3,0.1-0.8,0.1-1c0-0.1,0-0.2-0.2-0.2c-0.1,0-1.8-0.1-2-0.2c-0.1,0-0.1,0-0.1-0.1c0-0.1,0-0.3,0-0.5
	c0-0.1,0-0.2,0.2-0.1c0.2,0,0.2,0,0.2,0.2v0.2c0,0.1,0,0.1,0.1,0.1c0.1,0,0.6,0.1,0.8,0.1c0.2,0,0.6,0.1,0.7,0c0.1,0,0.2,0,0.2-0.2
	c0.1-0.9-0.1-1.2-0.7-1.3c-0.2,0-0.8-0.1-1.1-0.1c-0.3,0-0.9-0.1-1.2,0c-0.7,0-0.8,0.2-0.9,1.2c0,0.3-0.1,0.7-0.1,0.9
	c0,0.1,0,0.2,0.2,0.2c0.1,0,1.8,0.1,2,0.2c0.1,0,0.1,0,0.1,0.1c0,0.2,0,0.4-0.1,0.5c0,0.1,0,0.2-0.2,0.1
	C116.3,92.2,116.2,92.2,116.2,92L116.2,92z M123.9,89.2l0.2,1.4l-0.9-1.2c-0.2-0.2-0.2-0.2-0.5-0.2c-0.1,0-0.3,0-0.4,0
	c-0.2,0-0.5,0.1-0.6,0.1s-0.2,0.1-0.2,0.2c0,0.5,0.1,1.1,0.2,1.8c0.1,0.7,0.1,1.3,0.2,1.8c0,0.2,0.1,0.2,0.2,0.2
	c0.1,0,0.4,0,0.6-0.1c0.2,0,0.5-0.1,0.6-0.1c0.1,0,0.2-0.1,0.1-0.2l-0.1-1.3l0.9,1.2c0.2,0.2,0.2,0.2,0.5,0.2c0.1,0,0.3,0,0.5,0
	c0.2,0,0.5-0.1,0.6-0.1c0.1,0,0.1-0.1,0.1-0.2c0-0.5-0.1-1.1-0.2-1.8c-0.1-0.7-0.2-1.3-0.2-1.8c0-0.2-0.1-0.2-0.2-0.2
	c-0.1,0-0.4,0-0.6,0.1c-0.2,0-0.5,0.1-0.6,0.1C124,89,123.9,89,123.9,89.2L123.9,89.2z M131.2,87.7l-0.2,1l-0.7-0.7
	c-0.2-0.2-0.3-0.2-0.6-0.1c-0.1,0-0.3,0.1-0.6,0.2c-0.3,0.1-0.6,0.2-0.7,0.2c-0.1,0.1-0.2,0.1-0.1,0.3c0.1,0.5,0.3,1.1,0.5,1.7
	c0.2,0.7,0.4,1.3,0.6,1.7c0.1,0.1,0.1,0.2,0.2,0.2c0.1,0,0.4-0.1,0.7-0.2c0.2-0.1,0.6-0.2,0.7-0.2c0.1-0.1,0.1-0.1,0.1-0.3l-0.5-1.6
	l0.7,0.7c0.1,0.1,0.1,0.1,0.2,0.1l0.3-0.1c0.1,0,0.1-0.1,0.2-0.2l0.2-0.9l0.5,1.6c0.1,0.1,0.1,0.2,0.2,0.2c0.1,0,0.4-0.1,0.7-0.2
	c0.2-0.1,0.6-0.2,0.7-0.2s0.1-0.1,0.1-0.3c-0.1-0.5-0.3-1.1-0.5-1.7c-0.2-0.7-0.4-1.3-0.6-1.7c-0.1-0.1-0.1-0.2-0.2-0.2
	c-0.1,0-0.4,0.1-0.7,0.2c-0.3,0.1-0.5,0.2-0.6,0.2C131.2,87.4,131.2,87.5,131.2,87.7L131.2,87.7z M135.5,85.6
	c-0.3,0.2-0.9,0.4-1.1,0.6c-0.4,0.2-0.5,0.3-0.4,0.7c0.1,0.3,0.3,0.8,0.6,1.4c0.3,0.6,0.6,1.1,0.8,1.3c0.3,0.3,0.4,0.3,0.8,0.2
	c0.3-0.1,0.8-0.4,1.2-0.5c0.3-0.2,0.9-0.4,1.1-0.6c0.4-0.2,0.5-0.3,0.4-0.7c-0.1-0.3-0.3-0.8-0.6-1.4c-0.3-0.6-0.6-1.1-0.8-1.3
	c-0.3-0.3-0.4-0.3-0.8-0.2C136.4,85.2,135.8,85.5,135.5,85.6L135.5,85.6z M135.9,86.6c0,0,0.1-0.1,0.1-0.1c0.1,0,0.1,0,0.1,0.1
	c0.1,0.2,0.3,0.5,0.4,0.8c0.1,0.3,0.3,0.6,0.4,0.8c0,0.1,0,0.1-0.1,0.1c0,0-0.1,0.1-0.1,0.1c0,0-0.1,0.1-0.1,0.1
	c-0.1,0-0.1,0-0.1-0.1c-0.1-0.2-0.3-0.5-0.4-0.8c-0.1-0.3-0.3-0.6-0.4-0.8c0-0.1,0-0.1,0.1-0.1C135.8,86.6,135.9,86.6,135.9,86.6z
	 M143.5,85.3l-1.1-0.7c0.3-0.3,0.3-0.6-0.2-1.3c-0.5-0.8-0.8-1-1.4-0.6c-0.3,0.2-0.7,0.4-1.1,0.7c-0.5,0.4-1.3,0.8-1.5,1
	c-0.1,0.1-0.1,0.2-0.1,0.3c0.2,0.4,0.6,0.9,1,1.5c0.4,0.6,0.7,1.1,1,1.5c0.1,0.1,0.2,0.1,0.3,0.1c0.1-0.1,0.3-0.2,0.6-0.3
	c0.3-0.2,0.5-0.3,0.6-0.4c0.1-0.1,0.1-0.2,0-0.3l-0.6-0.8l0.2-0.1l0.8,0.6c0.2,0.1,0.3,0.2,0.5,0.1c0.2-0.1,0.4-0.2,0.6-0.3
	c0.2-0.1,0.4-0.3,0.5-0.4c0.1-0.1,0.1-0.1,0.1-0.1c0,0,0-0.1,0-0.1C143.6,85.5,143.6,85.4,143.5,85.3L143.5,85.3z M140.8,84.8
	l-0.4,0.2c0,0-0.1,0-0.1-0.1l-0.3-0.5c-0.1-0.1-0.1-0.1,0-0.1l0.4-0.2c0.1-0.1,0.1,0,0.2,0c0.1,0.1,0.1,0.1,0.2,0.2
	c0.1,0.1,0.1,0.2,0.1,0.2C140.9,84.7,140.9,84.7,140.8,84.8L140.8,84.8z M146.7,81.9l-1.3,1.1c0,0-0.1,0-0.1,0l-0.1-0.2
	c-0.1-0.1-0.1-0.1,0-0.1l1.2-1c0.1-0.1,0.1-0.1,0-0.2c-0.1-0.1-0.2-0.2-0.2-0.3c-0.1-0.1-0.2-0.2-0.2-0.3c-0.1-0.1-0.1-0.1-0.2,0
	l-1.2,1c0,0-0.1,0-0.1,0l-0.1-0.2c-0.1-0.1-0.1-0.1,0-0.1l1.3-1.1c0.1-0.1,0.1-0.1,0-0.2s-0.1-0.2-0.2-0.3c-0.1-0.1-0.2-0.2-0.2-0.3
	c-0.1-0.1-0.2-0.1-0.3,0c-0.2,0.1-1,0.8-1.3,1c-0.3,0.2-1.1,0.8-1.3,1c-0.1,0.1-0.1,0.2,0,0.3c0.3,0.4,0.7,0.9,1.1,1.4
	c0.4,0.5,0.8,1.1,1.2,1.4c0.1,0.1,0.2,0.1,0.3,0.1c0.2-0.2,1-0.8,1.3-1c0.2-0.2,1.1-0.9,1.2-1c0.1-0.1,0.1-0.2,0-0.3
	c-0.1-0.1-0.2-0.2-0.2-0.3s-0.2-0.2-0.2-0.3C146.8,81.8,146.8,81.8,146.7,81.9L146.7,81.9z"/>
</svg>
