<?xml version="1.0" encoding="utf-8"?>
<!-- Generator: Adobe Illustrator 24.0.0, SVG Export Plug-In . SVG Version: 6.00 Build 0)  -->
<svg version="1.1" id="Layer_1" xmlns="http://www.w3.org/2000/svg" xmlns:xlink="http://www.w3.org/1999/xlink" x="0px" y="0px"
	 viewBox="0 0 240 100" style="enable-background:new 0 0 240 100;" xml:space="preserve">
<style type="text/css">
	.st0{fill:#5E5E5F;}
	.st1{fill:#1C1C1A;}
	.st2{fill:#FEFEFE;}
</style>
<g>
	<path class="st0" d="M154.4,73c0-2-0.2-2.8-1.1-3.1c0.3,0.4,0.4,1.2,0.4,2.6c0,2.2-0.3,2.8-1.5,3l1.3,2.9c0.1,0.3,0.2,0.4,0.2,0.6
		c0,0.1,0,0.2-0.1,0.2c-0.1,0.1-0.2,0.1-0.4,0.1c-0.4,0-1,0-1.7,0c-0.6,0-1.2,0-1.7,0c-0.1,0-0.1,0-0.1,0c0.2,0.3,0.3,0.4,0.8,0.6
		c0.4,0,1.1,0,1.7,0c0.6,0,1.2,0,1.7,0c0.2,0,0.3-0.1,0.4-0.1c0.1-0.1,0.1-0.1,0.1-0.2c0-0.1,0-0.2-0.2-0.6L153,76
		C154.1,75.7,154.4,75.2,154.4,73L154.4,73z M142.8,79.3c0-0.3,0-0.7,0-0.9c0-0.3,0-0.6,0-0.9s-0.1-0.4-0.3-0.4h-0.3
		c0,0.2,0,0.6,0,0.8c0,0.3,0,0.7,0,0.9c0,0.3-0.2,0.4-0.6,0.6c-0.4,0-3.2,0.1-4,0.1c-0.8,0-3,0-3.9,0c0,0.3,0.2,0.4,0.4,0.4
		c0.7,0.1,3.2,0.1,4.1,0.1c0.8,0,3.6,0,4-0.1C142.6,79.8,142.8,79.7,142.8,79.3L142.8,79.3z M138,76.6v-0.3c0-0.2,0-0.2,0.2-0.2h4
		c0.2,0,0.3,0,0.3-0.3c0-0.3,0-0.7,0-0.9c0-0.3,0-0.7,0-0.9c0-0.2-0.1-0.3-0.3-0.3h-0.3c0,0.2,0,0.4,0,0.7c0,0.3,0,0.7,0,0.9
		c0,0.2-0.1,0.3-0.3,0.3h-4c-0.1,0-0.2,0.1-0.2,0.2v0.6c0,0.2,0,0.2,0.2,0.2L138,76.6L138,76.6z M142.8,72.1c0-0.3,0-0.6,0-0.9
		s0-0.7,0-0.9c0-0.3-0.2-0.4-0.6-0.6c0,0-0.1,0-0.2,0c0,0,0,0,0,0.1c0,0.3,0,0.7,0,0.9s0,0.6,0,0.9s-0.1,0.4-0.3,0.4h-4.3
		c-0.1,0-0.2,0.1-0.2,0.2v0.6c0,0.2,0,0.2,0.2,0.2h0.6v-0.3c0-0.2,0-0.2,0.2-0.2h4.3C142.7,72.4,142.8,72.3,142.8,72.1L142.8,72.1z
		 M132,78.6c0.1-0.7,0.3-2.1,0.3-3.9c0-0.2-0.1-0.3-0.3-0.3c-0.1,0-0.2,0-0.4,0c0,1.7-0.1,3-0.3,3.7c-0.2,0.9-0.6,1.1-1.7,1.2
		c-0.8,0.1-2.2,0.1-3.2,0.1c-0.9,0-2.4-0.1-3.2-0.1c-0.3,0-0.6-0.1-0.7-0.1c0.2,0.4,0.6,0.6,1.5,0.6c0.8,0.1,2.2,0.1,3.2,0.1
		c0.9,0,2.4-0.1,3.2-0.1C131.5,79.7,131.8,79.5,132,78.6L132,78.6z M132.3,73c0-0.4-0.1-1.7-0.2-2.1c-0.1-0.7-0.3-1-0.9-1.1
		c0.1,0.2,0.2,0.3,0.2,0.7c0.1,0.4,0.2,1.7,0.2,2.1c0,0.3,0,0.3-0.2,0.3c-0.3,0-1.5,0-1.9,0s-1.1,0-1.6,0c0,0.1,0,0.2,0,0.2
		c0,0.2,0,0.2,0.3,0.2c0.3,0,1.5,0,1.9,0c0.6,0,1.6,0,1.9,0C132.3,73.4,132.3,73.3,132.3,73L132.3,73z M120.6,79.3
		c0-1.2,0-2.8,0-4.6s0-3.4,0-4.6c0-0.3-0.1-0.4-0.4-0.6c-0.1,0-0.2,0-0.3,0c0,0,0,0,0,0.1c0,1.2,0,2.8,0,4.6c0,1.7,0,3.4,0,4.6
		c0,0.3-0.1,0.4-0.3,0.6c-0.2,0-1,0.1-1.6,0.1c-0.6,0-0.9,0-1.1,0s-0.3,0-0.4-0.1c0.2,0.4,0.4,0.4,1.1,0.6c0.2,0,0.6,0,1.1,0
		c0.6,0,1.3,0,1.6-0.1C120.5,79.8,120.6,79.7,120.6,79.3L120.6,79.3z M116,72.5l-1.3-2.1c-0.2-0.4-0.4-0.6-0.8-0.7
		c0,0.1,0.1,0.1,0.1,0.2l2,3.2L116,72.5L116,72.5z M109,75.6c0-1.6,0-4.1-0.1-5.4c0-0.3-0.2-0.4-0.4-0.6c-0.1,0-0.1,0-0.2,0
		c0,0,0,0,0,0.1c0,1.2,0.1,3.8,0.1,5.4c0,3.7-0.6,4.5-5.2,4.5c-1.8,0-2.9-0.1-3.7-0.4c0.7,0.8,2,1,4.4,1C108.4,80,109,79.1,109,75.6
		L109,75.6z M103.1,76.8v-6.6c0-0.3-0.1-0.4-0.4-0.6c-0.1,0-0.1,0-0.2,0c0,0,0,0,0,0.1v6.7C102.5,76.8,102.6,76.8,103.1,76.8
		L103.1,76.8L103.1,76.8z M97.2,79.3c0-1.2,0-2.8,0-4.6c0-1.7,0-3.4,0-4.6c0-0.3-0.2-0.4-0.4-0.6c-0.1,0-0.1,0-0.2,0c0,0,0,0,0,0.1
		c0,1.2,0,2.8,0,4.6c0,1.8,0,3.4,0,4.6c0,0.3-0.2,0.4-0.4,0.6c-0.3,0-1,0.1-1.8,0.1c-0.6,0-1.1,0-1.6,0c0,0.3,0.1,0.4,0.4,0.4
		c0.3,0,1,0.1,1.8,0.1c0.8,0,1.5,0,1.8-0.1C97.1,79.8,97.2,79.7,97.2,79.3L97.2,79.3z M91.5,72.8v-2.6c0-0.3-0.1-0.4-0.4-0.6
		c-0.1,0-0.1,0-0.2,0c0,0,0,0,0,0.1v3C90.8,72.8,91.5,72.8,91.5,72.8z M87,79.4c0,0.3,0.2,0.4,0.4,0.4c0.3,0,1,0.1,1.8,0.1
		c0.8,0,1.5,0,1.8-0.1c0.3,0,0.4-0.2,0.4-0.6v-3.1h0.6v-0.4h-1.3v3.1c0,0.3-0.1,0.4-0.4,0.6c-0.3,0-1,0.1-1.8,0.1
		C88,79.4,87.5,79.4,87,79.4z M110.4,79.4c0,0.3,0.1,0.4,0.4,0.4c0.2,0,0.9,0.1,1.6,0.1c0.6,0,1.2,0,1.6-0.1c0.3,0,0.3-0.2,0.3-0.6
		v-2.7l-0.7-1.1v3.4c0,0.3-0.1,0.4-0.3,0.6c-0.2,0-1,0.1-1.6,0.1C111.3,79.4,110.8,79.4,110.4,79.4L110.4,79.4z M126.6,77L126.6,77
		c0-0.3,0-0.8,0-1.2v-0.1c0-0.2,0-0.6,0-0.8s0-0.6,0-0.7c0-0.1,0-0.1,0-0.2c0-0.6,0-1.1,0-1.6c0-0.2,0.1-0.2,0.2-0.2
		c0.1,0,0.2,0,0.3,0c0-0.1,0-0.2,0-0.2c0-0.1-0.1-0.2-0.2-0.2c-0.1,0-0.2,0-0.3,0c-0.1,0-0.3,0-0.3,0c-0.1,0-0.2,0.1-0.2,0.2
		c0,0.6,0,1.5,0,2.4c0,0.8,0,1.8,0,2.5c0,0.2,0.1,0.2,0.2,0.2C126.2,76.9,126.4,77,126.6,77L126.6,77z M127.2,75.9L127.2,75.9
		c-0.1,0.1-0.1,0.1-0.1,0.2c0,0.1,0,0.1,0,0.1C127.2,76.2,127.2,76,127.2,75.9L127.2,75.9z M144.3,79.4c0,0.3,0.2,0.4,0.4,0.4
		c0.3,0,0.9,0.1,1.7,0.1c0.8,0,1.5,0,1.7-0.1c0.3,0,0.4-0.2,0.4-0.6v-2.6l0,0l-0.2-0.4h-0.6v2.6c0,0.3-0.1,0.4-0.4,0.6
		c-0.3,0-1,0.1-1.7,0.1C145,79.4,144.6,79.4,144.3,79.4L144.3,79.4z M148.5,73.7v-1.1c0-0.2,0-0.3,0.1-0.3h0.7c0-0.1,0-0.1,0-0.2
		c0-0.2-0.1-0.3-0.3-0.3h-1c-0.1,0-0.1,0.1-0.1,0.3v1.3c0,0.2,0,0.3,0.1,0.3H148.5L148.5,73.7z"/>
	<path class="st0" d="M163.1,59.2c0-2.4,0-4.6-0.1-6.3c0-0.6-0.2-0.7-0.7-0.7c0,0,0,0-0.1,0c0,0.1,0,0.1,0,0.2
		c0.1,1.7,0.1,3.9,0.1,6.3s0,4.6-0.1,6.3c0,0.6-0.2,0.7-0.7,0.7c-0.4,0-1.5,0.1-2.5,0.1c-0.9,0-1.9,0-2.4-0.1
		c0.1,0.3,0.2,0.4,0.6,0.4c0.4,0,1.5,0.1,2.5,0.1s2,0,2.5-0.1c0.4,0,0.7-0.2,0.7-0.7C163.1,63.8,163.1,61.7,163.1,59.2L163.1,59.2z
		 M155.2,56.6v-3.7c0-0.6-0.2-0.7-0.6-0.7h-0.1c0,0.1,0,0.1,0,0.2v4.1H155.2L155.2,56.6z M147.2,62c0-0.9,0-2.7,0-3.5
		c0-0.4-0.2-0.6-0.6-0.6h-0.1v0.1c0,0.8,0,2.5,0,3.5c0,3.4-0.6,4-2.8,4.3c-0.8,0.1-3,0.1-4,0.1c-1,0-3.1-0.1-3.9-0.1
		c-0.6-0.1-1.1-0.1-1.5-0.3c0.4,0.6,1.1,0.7,2.1,0.8c0.8,0.1,2.9,0.1,3.9,0.1s3.2-0.1,4-0.1C146.7,66,147.2,65.4,147.2,62L147.2,62z
		 M147.2,56.4c0-2.4-0.3-3.4-1.5-3.9c0.6,0.6,0.7,1.7,0.7,3.4c0,0.6-0.1,0.6-0.6,0.7c-0.4,0-1.8,0-2.5,0c-0.6,0-1.8,0-2.4,0v0.1
		c0,0.3,0,0.3,0.4,0.4c0.4,0,1.9,0,2.7,0c0.8,0,2,0,2.5,0C147.1,57,147.2,56.9,147.2,56.4L147.2,56.4z M132.4,65.4
		c0-0.4-0.1-1.1-0.3-1.8l-3.6-15.5c-0.1-0.6-0.3-0.8-0.8-0.8c0.1,0.1,0.1,0.2,0.1,0.3l3.6,15.5c0.2,0.7,0.3,1.3,0.3,1.8
		c0,0.4-0.2,0.8-0.8,0.8c-0.6,0.1-2,0.1-3.4,0.1c-1.2,0-2.5,0-3-0.1c-0.1,0-0.2,0-0.3,0c0.1,0.4,0.4,0.4,1,0.6
		c0.6,0.1,1.8,0.1,3,0.1c1.2,0,2.8-0.1,3.4-0.1C132.2,66.2,132.4,65.8,132.4,65.4L132.4,65.4z M111,65.5c0.1-1.7,0.1-3.8,0.1-6.3
		c0-2.4,0-4.6-0.1-6.3c0-0.6-0.2-0.7-0.7-0.7c0,0,0,0-0.1,0c0,0.1,0,0.1,0,0.2c0.1,1.7,0.1,3.9,0.1,6.3s0,4.6-0.1,6.3
		c0,0.6-0.2,0.7-0.6,0.7s-1.6,0.1-2.4,0.1c-0.8,0-1.8,0-2.2-0.1c0,0.3,0.2,0.4,0.6,0.4c0.3,0,1.6,0.1,2.5,0.1c0.9,0,2,0,2.4-0.1
		C110.9,66.2,111,65.9,111,65.5L111,65.5z M101.8,55.4l-1.2-2.1c-0.2-0.4-0.4-0.7-0.9-0.9c0.1,0.1,0.1,0.2,0.2,0.3l1.7,3L101.8,55.4
		L101.8,55.4z M91.6,62c0-0.9,0-2.7,0-3.5c0-0.4-0.2-0.6-0.6-0.6h-0.1v0.1c0,0.8,0,2.5,0,3.5c0,3.4-0.6,4-2.8,4.3
		c-0.8,0.1-3,0.1-4,0.1c-1,0-3.1-0.1-3.9-0.1c-0.6-0.1-1.1-0.1-1.5-0.3c0.4,0.6,1.1,0.7,2.1,0.8c0.8,0.1,2.9,0.1,3.9,0.1
		c1,0,3.2-0.1,4-0.1C91.2,66,91.6,65.4,91.6,62L91.6,62z M91.6,56.4c0-2.4-0.3-3.4-1.5-3.9c0.6,0.6,0.7,1.7,0.7,3.4
		c0,0.6-0.1,0.6-0.6,0.7c-0.4,0-1.8,0-2.5,0c-0.6,0-1.8,0-2.4,0v0.1c0,0.3,0,0.3,0.4,0.4c0.4,0,1.9,0,2.7,0s2,0,2.5,0
		C91.5,57,91.6,56.9,91.6,56.4L91.6,56.4z M84,62.5L84,62.5v-0.9c0-0.3,0-0.3-0.4-0.4c-0.1,0-0.1,0-0.2,0v0.8
		C83.3,62.3,83.4,62.5,84,62.5L84,62.5z M83.5,57.4c0.1,0,0.2,0,0.4,0c0-0.4,0-1.1,0-1.5c0-0.4,0.1-0.6,0.8-0.6h0.1
		c0-0.4-0.2-0.4-0.8-0.4c-0.7,0-0.8,0.1-0.8,0.6s0,1.2,0,1.6C83.3,57.4,83.3,57.4,83.5,57.4L83.5,57.4z M78.5,60.2
		c0.3,0,4.8,0,6.4,0c0-0.1,0-0.1,0-0.2c0-0.3-0.1-0.3-0.2-0.3c-0.6,0-5.7,0-6.6,0C78,60.1,78.2,60.2,78.5,60.2L78.5,60.2z
		 M93.6,65.7c0.1,0.3,0.2,0.4,0.6,0.4c0.3,0,1.6,0.1,2.4,0.1c0.9,0,2,0,2.5-0.1c0.3,0,0.6-0.2,0.6-0.7v-4.9l-0.7-1.3v5.7
		c0,0.6-0.1,0.7-0.6,0.7c-0.3,0-1.6,0.1-2.5,0.1C95.1,65.8,94.1,65.7,93.6,65.7L93.6,65.7z M101,62.7c0.2,0.4,0.3,0.4,0.7,0.4h1.2
		c0.3,0,0.4,0,0.7-0.6l0.9-1.7v-1.8l-1.6,2.9c-0.2,0.4-0.3,0.6-0.7,0.6L101,62.7L101,62.7z M112.4,65.7c0.1,0.3,0.3,0.4,0.8,0.4
		c0.6,0.1,2,0.1,3.4,0.1s2.5,0,3-0.1c0.9-0.1,1-0.2,1.2-1.2l0.2-1.6h2.2l-0.1-0.4h-2.9l-0.2,1.6c-0.2,1-0.3,1.2-1.2,1.2
		c-0.6,0.1-1.8,0.1-3,0.1C114.6,65.8,113,65.7,112.4,65.7L112.4,65.7L112.4,65.7z M120.7,58.4h0.8l0.6-4l-0.3-2.2h-0.1L120.7,58.4
		L120.7,58.4z M139.5,62.5L139.5,62.5v-0.9c0-0.3,0-0.3-0.4-0.4c-0.1,0-0.1,0-0.2,0v0.8C138.9,62.3,139,62.5,139.5,62.5L139.5,62.5z
		 M139.1,57.4c0.1,0,0.2,0,0.4,0c0-0.4,0-1.1,0-1.5c0-0.4,0.1-0.6,0.8-0.6h0.1c0-0.4-0.2-0.4-0.8-0.4c-0.7,0-0.8,0.1-0.8,0.6
		s0,1.2,0,1.6C138.9,57.4,138.9,57.4,139.1,57.4L139.1,57.4z M134.1,60.2c0.3,0,4.8,0,6.4,0c0-0.1,0-0.1,0-0.2
		c0-0.3-0.1-0.3-0.2-0.3c-0.6,0-5.7,0-6.6,0C133.6,60.1,133.7,60.2,134.1,60.2L134.1,60.2z M149.1,65.7c0.1,0.3,0.2,0.4,0.6,0.4
		c0.4,0,1.5,0.1,2.5,0.1s2,0,2.5-0.1c0.4,0,0.6-0.2,0.6-0.7v-4.4h1.1v-0.4h-1.8V65c0,0.6-0.2,0.7-0.6,0.7c-0.4,0-1.5,0.1-2.5,0.1
		C150.5,65.8,149.5,65.7,149.1,65.7L149.1,65.7z"/>
	<path class="st1" d="M91.8,69.5v3h-1.3v-3c0-0.3-0.1-0.4-0.4-0.6c-0.3,0-1-0.1-1.8-0.1c-0.8,0-1.5,0-1.8,0.1
		c-0.3,0-0.4,0.2-0.4,0.6c0,1.2,0,2.8,0,4.6s0,3.4,0,4.6c0,0.3,0.2,0.4,0.4,0.6c0.3,0,1,0.1,1.8,0.1c0.8,0,1.5,0,1.8-0.1
		c0.3,0,0.4-0.2,0.4-0.6v-3.1h1.3v3.1c0,0.3,0.1,0.4,0.4,0.6c0.3,0,1,0.1,1.8,0.1c0.8,0,1.5,0,1.8-0.1c0.3,0,0.4-0.2,0.4-0.6
		c0-1.2,0-2.8,0-4.6c0-1.7,0-3.4,0-4.6c0-0.3-0.2-0.4-0.4-0.6c-0.3,0-1-0.1-1.8-0.1c-0.8,0-1.5,0-1.8,0.1
		C91.9,69,91.8,69.1,91.8,69.5z M103.6,69.5v6.7c0,0.3-0.1,0.3-0.7,0.3c-0.6,0-0.7,0-0.7-0.3v-6.7c0-0.3-0.1-0.4-0.4-0.6
		c-0.3,0-1-0.1-1.8-0.1c-0.8,0-1.5,0-1.8,0.1c-0.3,0-0.4,0.2-0.4,0.6c0,1.2-0.1,3.8-0.1,5.4c0,3.7,0.7,4.5,5.2,4.5s5.2-0.8,5.2-4.5
		c0-1.6,0-4.1-0.1-5.4c0-0.3-0.2-0.4-0.4-0.6c-0.3,0-1-0.1-1.8-0.1c-0.8,0-1.5,0-1.8,0.1C103.7,69,103.6,69.1,103.6,69.5z
		 M115.8,69.5V73l-2-3.2c-0.3-0.6-0.4-0.7-1.2-0.8c-0.2,0-0.7,0-1,0c-0.4,0-1.2,0-1.6,0.1c-0.3,0-0.4,0.2-0.4,0.6c0,1.2,0,2.8,0,4.6
		c0,1.8,0,3.4,0,4.6c0,0.3,0.1,0.4,0.4,0.6c0.2,0,0.9,0.1,1.6,0.1c0.6,0,1.2,0,1.6-0.1c0.3,0,0.3-0.2,0.3-0.6v-3.4l1.9,3.1
		c0.3,0.6,0.4,0.7,1.2,0.7c0.2,0,0.6,0,1.1,0c0.6,0,1.3,0,1.6-0.1c0.2,0,0.3-0.2,0.3-0.6c0-1.2,0-2.8,0-4.6s0-3.4,0-4.6
		c0-0.3-0.1-0.4-0.4-0.6c-0.2,0-0.9-0.1-1.6-0.1c-0.6,0-1.2,0-1.6,0.1C115.9,69,115.8,69.1,115.8,69.5L115.8,69.5z M131,73.7
		c-0.3,0-1.9,0-2.2,0c-0.3,0-2,0-2.2,0s-0.3,0.1-0.3,0.3c0,0.2,0,0.6,0,0.7c0,0.1,0,0.4,0,0.8c0,0.2,0.1,0.3,0.8,0.3
		c0,0.2,0,0.6,0,0.8c0,0.1-0.1,0.2-0.2,0.2c-0.1,0-0.3,0-0.4,0c-0.1,0-0.3,0-0.3,0c-0.1,0-0.2-0.1-0.2-0.2c0-0.7,0-1.7,0-2.5
		c0-0.9,0-1.7,0-2.4c0-0.2,0.1-0.2,0.2-0.2c0.1,0,0.2,0,0.3,0c0.1,0,0.3,0,0.3,0c0.2,0,0.2,0.1,0.2,0.2c0,0.2,0,0.6,0,0.7
		c0,0.2,0,0.2,0.3,0.2c0.3,0,1.5,0,1.9,0c0.6,0,1.6,0,1.9,0c0.2,0,0.2-0.1,0.2-0.3c0-0.4-0.1-1.7-0.2-2.1c-0.2-0.9-0.6-1.1-1.7-1.2
		c-0.8-0.1-2.4-0.1-3.2-0.1s-2.5,0.1-3.2,0.1c-1,0.1-1.5,0.3-1.7,1.2c-0.2,0.7-0.3,2.1-0.3,3.8c0,1.7,0.1,3.1,0.3,3.8
		c0.2,0.9,0.6,1.1,1.7,1.2c0.8,0.1,2.2,0.1,3.2,0.1s2.4-0.1,3.2-0.1c1.1-0.1,1.5-0.3,1.7-1.2c0.1-0.7,0.3-2.1,0.3-3.9
		C131.4,73.8,131.3,73.7,131,73.7L131,73.7z M141.6,76.3h-4.3c-0.1,0-0.2,0-0.2-0.2v-0.6c0-0.2,0-0.2,0.2-0.2h4c0.2,0,0.3,0,0.3-0.3
		c0-0.3,0-0.7,0-0.9c0-0.3,0-0.7,0-0.9c0-0.2-0.1-0.3-0.3-0.3h-4c-0.1,0-0.2,0-0.2-0.2v-0.6c0-0.2,0-0.2,0.2-0.2h4.3
		c0.2,0,0.3-0.1,0.3-0.4c0-0.3,0-0.6,0-0.9c0-0.3,0-0.7,0-0.9c0-0.3-0.2-0.4-0.6-0.6c-0.4,0-3.2-0.1-4-0.1s-3.4,0-4.1,0.1
		c-0.3,0-0.4,0.2-0.4,0.6c0,1.2,0,2.8,0,4.6c0,1.7,0,3.4,0,4.6c0,0.3,0.2,0.4,0.4,0.6c0.7,0.1,3.2,0.1,4.1,0.1c0.8,0,3.6,0,4-0.1
		c0.3,0,0.4-0.2,0.6-0.6c0-0.3,0-0.7,0-0.9s0-0.6,0-0.9C141.9,76.3,141.8,76.3,141.6,76.3L141.6,76.3z M153.4,78.1l-1.3-2.9
		c1.1-0.2,1.5-0.8,1.5-3c0-2.5-0.3-3.1-2-3.2c-0.8-0.1-2.1-0.1-3.2-0.1c-1.7,0-3.8,0-4.5,0.1c-0.3,0-0.4,0.2-0.4,0.6
		c0,1.2,0,2.8,0,4.6s0,3.4,0,4.6c0,0.3,0.2,0.4,0.4,0.6c0.3,0,0.9,0.1,1.7,0.1s1.5,0,1.7-0.1c0.3,0,0.4-0.2,0.4-0.6v-2.6h0.6
		l0.9,2.4c0.2,0.6,0.3,0.7,0.9,0.7c0.4,0,1.1,0,1.7,0s1.2,0,1.7,0c0.2,0,0.3-0.1,0.4-0.1c0.1-0.1,0.1-0.1,0.1-0.2
		C153.7,78.7,153.7,78.5,153.4,78.1L153.4,78.1z M148.7,73.4h-1c-0.1,0-0.1-0.1-0.1-0.3v-1.3c0-0.2,0-0.3,0.1-0.3h1
		c0.2,0,0.2,0.1,0.3,0.3c0,0.2,0.1,0.4,0.1,0.7c0,0.2,0,0.4-0.1,0.7C149.1,73.3,149,73.4,148.7,73.4L148.7,73.4z"/>
	<path class="st1" d="M83.1,61.7v-0.8c0-0.3,0-0.3-0.4-0.4c-0.4,0-1.9,0-2.7,0c-0.8,0-2,0-2.5,0c-0.4,0-0.6,0.1-0.6,0.7
		c0,3.6,0.7,4.1,2.9,4.4c0.8,0.1,2.9,0.1,3.9,0.1c1,0,3.2-0.1,4-0.1c2.2-0.2,2.8-0.9,2.8-4.3c0-0.9,0-2.7,0-3.5
		c0-0.4-0.2-0.6-0.6-0.6c-0.3,0-6.3,0-6.8,0c-0.2,0-0.2,0-0.2-0.3s0-1.2,0-1.6c0-0.4,0.1-0.6,0.8-0.6c0.6,0,0.8,0.1,0.8,0.6V56
		c0,0.3,0,0.3,0.4,0.4c0.4,0,1.9,0,2.7,0s2,0,2.5,0c0.4,0,0.6-0.1,0.6-0.7c0-3.2-0.7-4-2.9-4.3c-0.8-0.1-2.9-0.1-3.9-0.1
		c-1,0-3.2,0.1-4,0.1c-2.2,0.2-2.8,0.9-2.8,4.3c0,0.9,0,2.5,0,3.2c0,0.4,0.2,0.6,0.6,0.6c0.3,0,6.3,0,6.8,0c0.2,0,0.2,0,0.2,0.3
		c0,0.6,0,1.3,0,1.8c0,0.4-0.1,0.6-0.8,0.6S83.1,62.1,83.1,61.7L83.1,61.7z M103.1,52.5l-1.7,3l-1.7-3c-0.3-0.7-0.6-0.9-1.8-1
		c-0.3,0-1.2-0.1-2.1-0.1s-2.1,0-2.5,0.1c-0.4,0-0.7,0.2-0.7,0.7c-0.1,1.7-0.1,3.9-0.1,6.3s0,4.6,0.1,6.3c0,0.6,0.2,0.7,0.6,0.7
		c0.3,0,1.6,0.1,2.4,0.1c0.9,0,2,0,2.5-0.1c0.3,0,0.6-0.2,0.6-0.7V59l1.6,2.9c0.2,0.4,0.3,0.6,0.7,0.6h1.2c0.3,0,0.4,0,0.7-0.6
		l1.6-2.9v5.7c0,0.6,0.1,0.7,0.6,0.7c0.3,0,1.6,0.1,2.5,0.1c0.9,0,2,0,2.4-0.1c0.3,0,0.6-0.2,0.6-0.7c0.1-1.7,0.1-3.8,0.1-6.3
		c0-2.4,0-4.6-0.1-6.3c0-0.6-0.2-0.7-0.7-0.7c-0.3,0-1.6-0.1-2.5-0.1c-0.9,0-1.8,0-2.1,0.1C103.7,51.6,103.5,51.8,103.1,52.5
		L103.1,52.5z M131.1,62.9l-3.6-15.5c-0.1-0.7-0.4-0.8-1.1-0.9c-0.7,0-3.4-0.1-4.9-0.1c-1.7,0-4.4,0.1-4.9,0.1c-0.7,0-1,0.2-1.1,0.9
		l-3.6,15.5c-0.2,0.7-0.3,1.3-0.3,1.8s0.2,0.8,0.8,0.8c0.6,0.1,2,0.1,3.4,0.1c1.2,0,2.5,0,3-0.1c0.9-0.1,1-0.2,1.2-1.2l0.2-1.6h2.9
		l0.2,1.6c0.2,1,0.3,1.2,1.2,1.2c0.6,0.1,1.8,0.1,3,0.1s2.8-0.1,3.4-0.1c0.6-0.1,0.8-0.3,0.8-0.8C131.5,64.2,131.4,63.6,131.1,62.9
		L131.1,62.9z M121.4,51.9h0.1l0.9,6.3h-1.9L121.4,51.9L121.4,51.9z M138.7,61.7v-0.8c0-0.3,0-0.3-0.4-0.4c-0.4,0-1.9,0-2.7,0
		s-2,0-2.5,0s-0.6,0.1-0.6,0.7c0,3.6,0.7,4.1,2.9,4.4c0.8,0.1,2.9,0.1,3.9,0.1c1,0,3.2-0.1,4-0.1c2.2-0.2,2.8-0.9,2.8-4.3
		c0-0.9,0-2.7,0-3.5c0-0.4-0.2-0.6-0.6-0.6c-0.3,0-6.3,0-6.8,0c-0.2,0-0.2,0-0.2-0.3s0-1.2,0-1.6c0-0.4,0.1-0.6,0.8-0.6
		c0.6,0,0.8,0.1,0.8,0.6V56c0,0.3,0,0.3,0.4,0.4c0.4,0,1.9,0,2.7,0c0.8,0,2,0,2.5,0s0.6-0.1,0.6-0.7c0-3.2-0.7-4-2.9-4.3
		c-0.8-0.1-2.9-0.1-3.9-0.1s-3.2,0.1-4,0.1c-2.2,0.2-2.8,0.9-2.8,4.3c0,0.9,0,2.5,0,3.2c0,0.4,0.2,0.6,0.6,0.6s6.3,0,6.8,0
		c0.2,0,0.2,0,0.2,0.3c0,0.6,0,1.3,0,1.8c0,0.4-0.1,0.6-0.8,0.6C138.8,62.2,138.7,62.1,138.7,61.7L138.7,61.7z M156,52.3v4.1h-1.8
		v-4.1c0-0.6-0.2-0.7-0.6-0.7c-0.4,0-1.5-0.1-2.5-0.1s-2,0-2.5,0.1c-0.4,0-0.7,0.2-0.7,0.7c-0.1,1.7-0.1,3.9-0.1,6.3s0,4.6,0.1,6.3
		c0,0.6,0.2,0.7,0.7,0.7c0.4,0,1.5,0.1,2.5,0.1s2,0,2.5-0.1c0.4,0,0.6-0.2,0.6-0.7v-4.4h1.8v4.4c0,0.6,0.2,0.7,0.6,0.7
		c0.4,0,1.5,0.1,2.5,0.1c1,0,2,0,2.5-0.1c0.4,0,0.7-0.2,0.7-0.7c0.1-1.7,0.1-3.8,0.1-6.3c0-2.4,0-4.6-0.1-6.3c0-0.6-0.2-0.7-0.7-0.7
		c-0.4,0-1.5-0.1-2.5-0.1c-1,0-2,0-2.5,0.1C156.2,51.6,156,51.7,156,52.3z"/>
	<path d="M132.6,10.7c5.3-2.7,10.5-1.9,14,2c2.4,2.6,3,5.6,2.1,9c-0.2,1,0,1.6,0.6,2.2c2.7,3.2,4,6.8,2.8,11.1
		c-1.3,4.5-5.4,7.2-10.3,7.1c-0.9,0-1.9-0.1-3.1-0.1c-0.1,1.6-0.1,3.2-0.2,4.9c0,0.4,0.1,0.9,0,1.3c-0.1,1.2-1.1,2.1-2.4,1.9
		c-10.3-2.1-20.6-2.1-31-2.5c-2.6-0.1-3.2-0.8-2.9-3.4c0.3-2.4,0.4-4.7,0.8-7.1c-1.7-0.2-3-0.2-4.4-0.6c-6.5-1.6-10.2-7.4-8.7-14.1
		c1.5-6.9,6.5-11.4,13.7-11.9c0.8-0.1,1.2-0.3,1.7-1.1c2.6-5.2,6.8-7.6,12.4-8C124.5,1.2,129.7,4.1,132.6,10.7L132.6,10.7z
		 M103.9,12.7c-0.1,0-0.3,0-0.6,0c-7.5,0.3-13,8-10.9,15.2c1.3,4.6,6.2,7.6,10.5,6.6c-1.8-2-2.5-4.4-1.9-7.1
		c0.8,2.4,2.2,4.3,4.4,5.6c6.7,4.6,20.4,4.3,25.1-3.8c-0.4,1.1-0.8,2.2-1.5,3.1c-0.6,0.8-0.3,1.2,0.2,1.8c2.1,2.2,4.7,3,7.7,2.9
		c3-0.1,5.4-1.6,7.1-4.1c-0.7,1.3-1.2,2.7-2.2,3.7c-1,1-2.4,1.7-3.5,2.5c4,1.8,9.3-0.1,11.2-4.4c1.2-2.7,0.9-5.3-0.3-7.8
		c-1.3-2.6-3.5-4-6.4-4.5c0-0.1,0.1-0.2,0.1-0.4c1.2-0.1,2.6-0.1,3.8-0.1c1.2-3.5,0.1-7.1-3.1-8.8c-3-1.8-6.2-1.7-9.3-0.1
		c-0.9,0.4-1.5,1-1.6,2c-0.1,0.6-0.3,1-0.6,1.6c-0.2-3.2-1.3-6-3.8-8.2c-3.6-3.1-7.7-4.5-12.4-3.8c-6.3,0.9-10.5,5.2-10.1,11.8
		c0,0.2,0,0.4-0.1,0.7c-0.1,0-0.3,0.1-0.4,0.1C104.8,15.7,104.4,14.3,103.9,12.7L103.9,12.7z M104.3,45.3
		c10.9,0.2,21.5,0.4,32.1,2.5c0.1-1.1,0.1-2,0.1-3c0-1.2,0.6-2.8-0.1-3.5c-0.7-0.8-2.2-1-3.5-1.2c-2.8-0.6-5.6-1-8.7-1.5
		c1.8-0.3,3.2-0.6,4.8-0.8c-0.9-0.9-1.7-1.7-2.5-2.5c-7.1,4-14.2,4.5-21.5,1c-0.1,1.3-0.1,2.7-0.2,3.8c4.1,0.7,8.1,1.3,12.1,1.9
		c0,0.2,0,0.4-0.1,0.7c-3.2-0.1-6.5-0.3-9.9-0.4C104.3,42.2,104.3,42.3,104.3,45.3L104.3,45.3z"/>
	<path class="st2" d="M103.9,12.7c0.4,1.6,0.9,3,1.3,4.5c0.1,0,0.3-0.1,0.4-0.1c0-0.2,0.1-0.4,0.1-0.7c-0.4-6.6,3.8-10.8,10.1-11.8
		c4.7-0.7,8.8,0.7,12.4,3.8c2.5,2.1,3.6,4.9,3.8,8.2c0.2-0.6,0.6-1,0.6-1.6c0.1-1,0.8-1.6,1.6-2c3.1-1.6,6.3-1.7,9.3,0.1
		c3.2,1.8,4.5,5.4,3.1,8.8c-1.3,0.1-2.6,0.1-3.8,0.1c0,0.1-0.1,0.2-0.1,0.4c2.8,0.4,5,1.9,6.4,4.5c1.2,2.6,1.6,5.2,0.3,7.8
		c-1.8,4.1-7.2,6.2-11.2,4.4c1.1-0.8,2.5-1.5,3.5-2.5c1-1,1.6-2.4,2.2-3.7c-1.7,2.6-4,4-7.1,4.1c-3,0.1-5.6-0.7-7.7-2.9
		c-0.6-0.6-0.7-1-0.2-1.8c0.7-0.9,1-2.1,1.5-3.1c-4.7,8.1-18.4,8.4-25.1,3.8c-2-1.5-3.6-3.2-4.4-5.6c-0.6,2.7,0.1,5,1.9,7.1
		c-4.4,1-9.2-2.1-10.5-6.6c-2.1-7.3,3.4-14.8,10.9-15.2C103.6,12.7,103.8,12.7,103.9,12.7L103.9,12.7z"/>
	<path class="st1" d="M93.1,84.1c-0.3-0.2-0.9-0.7-1.1-0.9c-0.4-0.2-0.6-0.3-0.9,0c-0.2,0.2-0.7,0.7-1.2,1.2c-0.4,0.6-0.8,1.1-1,1.5
		c-0.2,0.4-0.1,0.6,0.2,0.9c0.2,0.2,0.8,0.7,1,0.9c0.3,0.2,0.9,0.7,1.1,0.9c0.4,0.3,0.6,0.3,0.9,0c0.1-0.1,0.6-0.6,0.9-0.9
		c0.1-0.1,0.1-0.1,0-0.2c-0.2-0.2-0.6-0.4-0.7-0.6c-0.1-0.1-0.6-0.4-0.7-0.6c-0.1-0.1-0.1-0.1-0.2,0c-0.1,0.1-0.3,0.4-0.4,0.6
		c0,0-0.1,0.1-0.1,0l-0.1-0.1l-0.1-0.1c0-0.1-0.1-0.1,0-0.1c0.1-0.2,0.4-0.6,0.7-0.8c0.2-0.3,0.4-0.6,0.7-0.8c0.1-0.1,0.1,0,0.1,0
		l0.1,0.1l0.1,0.1c0.1,0.1,0.1,0.1,0,0.1c-0.1,0.1-0.3,0.4-0.3,0.4c0,0.1,0,0.1,0,0.1c0.1,0.1,0.6,0.4,0.7,0.6
		c0.1,0.1,0.4,0.3,0.7,0.6c0.1,0.1,0.1,0,0.2-0.1c0.3-0.4,0.6-0.9,0.7-1c0.2-0.3,0.1-0.6-0.2-0.9C93.8,84.7,93.4,84.3,93.1,84.1
		L93.1,84.1z M97.4,87.5l-0.7,1.1l-0.4-0.3l0.7-1.1c0.1-0.1,0.1-0.2,0-0.3c-0.1-0.1-0.3-0.2-0.7-0.4c-0.3-0.2-0.6-0.3-0.7-0.4
		c-0.1-0.1-0.2,0-0.3,0.1c-0.3,0.4-0.7,1-1.1,1.7s-0.8,1.2-1,1.8c-0.1,0.1-0.1,0.2,0.1,0.3c0.1,0.1,0.3,0.2,0.7,0.4
		c0.3,0.2,0.6,0.3,0.7,0.4c0.1,0.1,0.2,0,0.3-0.1l0.8-1.2l0.4,0.3L95.4,91c-0.1,0.1-0.1,0.2,0,0.3c0.1,0.1,0.3,0.2,0.7,0.4
		c0.3,0.2,0.6,0.3,0.7,0.4c0.1,0.1,0.2,0,0.3-0.1c0.3-0.4,0.7-1,1.1-1.7s0.8-1.2,1-1.8c0.1-0.1,0.1-0.2-0.1-0.3
		c-0.1-0.1-0.3-0.2-0.7-0.4c-0.3-0.2-0.6-0.3-0.7-0.4C97.7,87.4,97.5,87.4,97.4,87.5L97.4,87.5z M102.5,94.4l0.8-3.7
		c0-0.1,0-0.2-0.2-0.3c-0.1-0.1-0.7-0.3-1.1-0.6c-0.3-0.2-0.9-0.4-1.1-0.4c-0.1-0.1-0.2-0.1-0.3,0.1l-2.4,3
		c-0.1,0.1-0.2,0.2-0.2,0.3c-0.1,0.1,0,0.2,0.1,0.2c0.1,0.1,0.4,0.2,0.7,0.3c0.2,0.1,0.6,0.2,0.7,0.3c0.2,0.1,0.2,0.1,0.4-0.1
		l0.2-0.3l0.7,0.3l-0.1,0.3c-0.1,0.2-0.1,0.3,0.1,0.4c0.1,0.1,0.3,0.2,0.7,0.3c0.3,0.1,0.6,0.2,0.8,0.3c0.1,0,0.2,0,0.2-0.1
		C102.4,94.7,102.5,94.5,102.5,94.4L102.5,94.4z M101.5,91L101.5,91l-0.4,1.5l-0.4-0.2L101.5,91L101.5,91z M107.8,96.2l0.3-3.8
		c0-0.1-0.1-0.2-0.2-0.3c-0.1-0.1-0.8-0.2-1.1-0.4c-0.3-0.1-1-0.3-1.1-0.3c-0.1,0-0.2,0-0.3,0.1l-2,3.2c-0.1,0.1-0.2,0.3-0.2,0.3
		c0,0.1,0,0.2,0.1,0.2c0.1,0.1,0.4,0.2,0.8,0.3s0.6,0.2,0.7,0.2c0.2,0.1,0.2,0,0.3-0.2l0.2-0.3l0.7,0.2l-0.1,0.3
		c0,0.2,0,0.3,0.2,0.3c0.1,0.1,0.4,0.1,0.7,0.2c0.3,0.1,0.7,0.2,0.8,0.2c0.1,0,0.2,0,0.2-0.1C107.7,96.5,107.8,96.4,107.8,96.2
		L107.8,96.2z M106.4,92.9L106.4,92.9l-0.2,1.5l-0.4-0.1L106.4,92.9L106.4,92.9z M113.4,93.6c0-0.2-0.1-0.2-0.2-0.3
		c-0.2-0.1-1.2-0.2-1.9-0.4c-0.7-0.1-1.8-0.3-1.9-0.3s-0.2,0-0.2,0.2c0,0.1-0.1,0.3-0.1,0.4c0,0.1-0.1,0.3-0.1,0.4
		c0,0.2,0.1,0.2,0.2,0.3c0.2,0,0.7,0.1,0.9,0.2l-0.1,0.8c-0.1,0.8-0.3,1.5-0.3,2c0,0.2,0,0.2,0.1,0.2c0.1,0,0.4,0.1,0.8,0.2
		c0.3,0.1,0.7,0.1,0.8,0.1c0.1,0,0.2,0,0.2-0.2c0.1-0.6,0.2-1.2,0.4-2l0.1-0.8c0.2,0.1,0.7,0.1,0.9,0.2c0.1,0,0.2,0,0.3-0.2
		c0-0.1,0.1-0.3,0.1-0.4C113.4,93.9,113.4,93.7,113.4,93.6L113.4,93.6z M115.8,97v-0.2c0-0.1,0-0.1-0.1-0.1c-0.1,0-0.7-0.1-0.9-0.1
		c-0.2,0-0.7-0.1-0.8,0c-0.1,0-0.2,0-0.2,0.2c-0.1,1.1,0.1,1.3,0.8,1.5c0.2,0,0.9,0.1,1.2,0.1s1,0.1,1.3,0c0.8,0,0.9-0.2,1-1.3
		c0-0.3,0.1-0.9,0.1-1.1c0-0.1,0-0.2-0.2-0.2c-0.1,0-2-0.1-2.2-0.2c-0.1,0-0.1,0-0.1-0.1c0-0.1,0-0.3,0-0.6c0-0.1,0-0.2,0.2-0.1
		c0.2,0,0.2,0,0.2,0.2v0.2c0,0.1,0,0.1,0.1,0.1c0.1,0,0.7,0.1,0.9,0.1c0.2,0,0.7,0.1,0.8,0c0.1,0,0.2,0,0.2-0.2
		c0.1-1-0.1-1.3-0.8-1.5c-0.2,0-0.9-0.1-1.2-0.1c-0.3,0-1-0.1-1.3,0c-0.8,0-0.9,0.2-1,1.3c0,0.3-0.1,0.8-0.1,1c0,0.1,0,0.2,0.2,0.2
		c0.1,0,2,0.1,2.2,0.2c0.1,0,0.1,0,0.1,0.1c0,0.2,0,0.4-0.1,0.6c0,0.1,0,0.2-0.2,0.1C115.9,97.2,115.8,97.2,115.8,97L115.8,97z
		 M124.4,93.8l0.2,1.6l-1-1.3c-0.2-0.2-0.2-0.2-0.6-0.2c-0.1,0-0.3,0-0.4,0c-0.2,0-0.6,0.1-0.7,0.1c-0.1,0-0.2,0.1-0.2,0.2
		c0,0.6,0.1,1.2,0.2,2c0.1,0.8,0.1,1.5,0.2,2c0,0.2,0.1,0.2,0.2,0.2c0.1,0,0.4,0,0.7-0.1c0.2,0,0.6-0.1,0.7-0.1
		c0.1,0,0.2-0.1,0.1-0.2l-0.1-1.5l1,1.3c0.2,0.2,0.2,0.2,0.6,0.2c0.1,0,0.3,0,0.6,0s0.6-0.1,0.7-0.1c0.1,0,0.1-0.1,0.1-0.2
		c0-0.6-0.1-1.2-0.2-2c-0.1-0.8-0.2-1.5-0.2-2c0-0.2-0.1-0.2-0.2-0.2c-0.1,0-0.4,0-0.7,0.1c-0.2,0-0.6,0.1-0.7,0.1
		C124.5,93.6,124.4,93.6,124.4,93.8L124.4,93.8z M132.6,92.1l-0.2,1.1l-0.8-0.8c-0.2-0.2-0.3-0.2-0.7-0.1c-0.1,0-0.3,0.1-0.7,0.2
		c-0.3,0.1-0.7,0.2-0.8,0.2c-0.1,0.1-0.2,0.1-0.1,0.3c0.1,0.6,0.3,1.2,0.6,1.9c0.2,0.8,0.4,1.5,0.7,1.9c0.1,0.1,0.1,0.2,0.2,0.2
		c0.1,0,0.4-0.1,0.8-0.2c0.2-0.1,0.7-0.2,0.8-0.2c0.1-0.1,0.1-0.1,0.1-0.3l-0.6-1.8l0.8,0.8c0.1,0.1,0.1,0.1,0.2,0.1l0.3-0.1
		c0.1,0,0.1-0.1,0.2-0.2l0.2-1l0.6,1.8c0.1,0.1,0.1,0.2,0.2,0.2c0.1,0,0.4-0.1,0.8-0.2c0.2-0.1,0.7-0.2,0.8-0.2
		c0.1,0,0.1-0.1,0.1-0.3c-0.1-0.6-0.3-1.2-0.6-1.9c-0.2-0.8-0.4-1.5-0.7-1.9c-0.1-0.1-0.1-0.2-0.2-0.2c-0.1,0-0.4,0.1-0.8,0.2
		c-0.3,0.1-0.6,0.2-0.7,0.2C132.6,91.8,132.6,91.9,132.6,92.1L132.6,92.1z M137.4,89.8c-0.3,0.2-1,0.4-1.2,0.7
		c-0.4,0.2-0.6,0.3-0.4,0.8c0.1,0.3,0.3,0.9,0.7,1.6c0.3,0.7,0.7,1.2,0.9,1.5c0.3,0.3,0.4,0.3,0.9,0.2c0.3-0.1,0.9-0.4,1.3-0.6
		c0.3-0.2,1-0.4,1.2-0.7c0.4-0.2,0.6-0.3,0.4-0.8c-0.1-0.3-0.3-0.9-0.7-1.6c-0.3-0.7-0.7-1.2-0.9-1.5c-0.3-0.3-0.4-0.3-0.9-0.2
		C138.4,89.3,137.8,89.7,137.4,89.8L137.4,89.8z M137.9,90.9l0.1-0.1c0.1,0,0.1,0,0.1,0.1c0.1,0.2,0.3,0.6,0.4,0.9
		c0.1,0.3,0.3,0.7,0.4,0.9c0,0.1,0,0.1-0.1,0.1l-0.1,0.1l-0.1,0.1c-0.1,0-0.1,0-0.1-0.1c-0.1-0.2-0.3-0.6-0.4-0.9
		c-0.1-0.3-0.3-0.7-0.4-0.9c0-0.1,0-0.1,0.1-0.1C137.8,90.9,137.9,90.9,137.9,90.9z M146.4,89.5l-1.2-0.8c0.3-0.3,0.3-0.7-0.2-1.5
		c-0.6-0.9-0.9-1.1-1.6-0.7c-0.3,0.2-0.8,0.4-1.2,0.8c-0.6,0.4-1.5,0.9-1.7,1.1c-0.1,0.1-0.1,0.2-0.1,0.3c0.2,0.4,0.7,1,1.1,1.7
		c0.4,0.7,0.8,1.2,1.1,1.7c0.1,0.1,0.2,0.1,0.3,0.1c0.1-0.1,0.3-0.2,0.7-0.3c0.3-0.2,0.6-0.3,0.7-0.4c0.1-0.1,0.1-0.2,0-0.3
		l-0.7-0.9l0.2-0.1l0.9,0.7c0.2,0.1,0.3,0.2,0.6,0.1c0.2-0.1,0.4-0.2,0.7-0.3c0.2-0.1,0.4-0.3,0.6-0.4c0.1-0.1,0.1-0.1,0.1-0.1v-0.1
		C146.5,89.7,146.5,89.6,146.4,89.5L146.4,89.5z M143.4,88.9l-0.4,0.2c0,0-0.1,0-0.1-0.1l-0.3-0.6c-0.1-0.1-0.1-0.1,0-0.1l0.4-0.2
		c0.1-0.1,0.1,0,0.2,0c0.1,0.1,0.1,0.1,0.2,0.2c0.1,0.1,0.1,0.2,0.1,0.2C143.5,88.8,143.5,88.8,143.4,88.9L143.4,88.9z M150,85.6
		l-1.5,1.2h-0.1l-0.1-0.2c-0.1-0.1-0.1-0.1,0-0.1l1.3-1.1c0.1-0.1,0.1-0.1,0-0.2c-0.1-0.1-0.2-0.2-0.2-0.3c-0.1-0.1-0.2-0.2-0.2-0.3
		c-0.1-0.1-0.1-0.1-0.2,0l-1.3,1.1h-0.1l-0.1-0.2c-0.1-0.1-0.1-0.1,0-0.1l1.5-1.2c0.1-0.1,0.1-0.1,0-0.2c-0.1-0.1-0.1-0.2-0.2-0.3
		c-0.1-0.1-0.2-0.2-0.2-0.3c-0.1-0.1-0.2-0.1-0.3,0c-0.2,0.1-1.1,0.9-1.5,1.1s-1.2,0.9-1.5,1.1c-0.1,0.1-0.1,0.2,0,0.3
		c0.3,0.4,0.8,1,1.2,1.6c0.4,0.6,0.9,1.2,1.3,1.6c0.1,0.1,0.2,0.1,0.3,0.1c0.2-0.2,1.1-0.9,1.5-1.1c0.2-0.2,1.2-1,1.3-1.1
		c0.1-0.1,0.1-0.2,0-0.3c-0.1-0.1-0.2-0.2-0.2-0.3s-0.2-0.2-0.2-0.3C150.1,85.5,150.1,85.5,150,85.6L150,85.6z"/>
</g>
</svg>
