<?xml version="1.0" encoding="utf-8"?>
<!-- Generator: Adobe Illustrator 24.0.0, SVG Export Plug-In . SVG Version: 6.00 Build 0)  -->
<svg version="1.1" id="Layer_1" xmlns="http://www.w3.org/2000/svg" xmlns:xlink="http://www.w3.org/1999/xlink" x="0px" y="0px"
	 viewBox="0 0 240 100" style="enable-background:new 0 0 240 100;" xml:space="preserve">
<style type="text/css">
	.st0{fill-rule:evenodd;clip-rule:evenodd;fill:#1C1C1A;}
	.st1{fill:#1C1C1A;}
</style>
<g>
	<path class="st0" d="M174.7,69.2c0.2,0,0.3-0.1,0.4-0.2c0.1-0.1,0.2-0.2,0.2-0.4l0,0c0-0.1,0-0.2-0.1-0.2s-0.1-0.1-0.1-0.2
		c-0.1-0.1-0.2-0.1-0.2-0.2c-0.1,0-0.2-0.1-0.3-0.1h-0.9v2h0.2v-0.8h0.6L175,70h0.3L174.7,69.2z M173.8,69v-0.8h0.6
		c0.1,0,0.3,0,0.4,0.1c0.1,0.1,0.1,0.2,0.1,0.3l0,0c0,0.1-0.1,0.2-0.2,0.3c-0.1,0.1-0.2,0.1-0.4,0.1H173.8z"/>
	<path class="st1" d="M174.3,70.9c-0.3,0-0.5-0.1-0.7-0.1c-0.2-0.1-0.4-0.2-0.6-0.4c-0.2-0.2-0.3-0.4-0.4-0.6c-0.2-0.5-0.2-1,0-1.5
		c0.1-0.2,0.2-0.4,0.4-0.6c0.2-0.2,0.4-0.3,0.6-0.4c0.2-0.1,0.5-0.2,0.7-0.2c0.3,0,0.5,0.1,0.7,0.1c0.2,0.1,0.4,0.2,0.6,0.4
		c0.2,0.2,0.3,0.4,0.4,0.6c0.1,0.2,0.1,0.5,0.1,0.7s-0.1,0.5-0.1,0.7c-0.1,0.2-0.2,0.4-0.4,0.6C175.3,70.7,174.8,70.9,174.3,70.9
		L174.3,70.9z M174.3,67.3c-0.2,0-0.5,0.1-0.7,0.1s-0.4,0.2-0.5,0.4c-0.2,0.2-0.3,0.3-0.4,0.5c-0.1,0.2-0.1,0.4-0.1,0.7
		s0.1,0.5,0.1,0.7c0.1,0.2,0.2,0.4,0.4,0.5s0.3,0.3,0.5,0.4c0.7,0.3,1.4,0.1,1.9-0.4c0.2-0.2,0.3-0.3,0.4-0.5
		c0.1-0.2,0.1-0.4,0.1-0.7s-0.1-0.5-0.1-0.7c-0.1-0.2-0.2-0.4-0.4-0.5c-0.2-0.2-0.3-0.3-0.5-0.4C174.8,67.4,174.6,67.3,174.3,67.3
		L174.3,67.3z"/>
	<path class="st1" d="M166,75.4l2.2-5.2l2.2,5.2H166z M161.4,80.6h2.3l1.3-3.1h6.1l1.3,3.1h2.4l-5.7-13h-2.1L161.4,80.6z
		 M150.4,80.8c2.4,0,3.9-0.9,5.2-2.3l-1.5-1.5c-1.1,1-2.1,1.7-3.7,1.7c-2.5,0-4.3-2.1-4.3-4.6v0c0-2.5,1.8-4.6,4.3-4.6
		c1.5,0,2.6,0.7,3.6,1.6l1.5-1.7c-1.2-1.2-2.7-2-5.1-2c-3.9,0-6.7,3-6.7,6.7v0C143.8,77.8,146.6,80.8,150.4,80.8 M134.2,80.6h2.3
		v-13h-2.3V80.6z M117.4,80.6h2.3v-5.3h6.5v-2.1h-6.5v-3.5h7.4v-2.1h-9.6L117.4,80.6z M101.8,74.1v-4.4h3.3c1.7,0,2.7,0.8,2.7,2.1v0
		c0,1.3-1,2.2-2.7,2.2L101.8,74.1L101.8,74.1z M99.5,80.6h2.3v-4.5h2.8l3.2,4.5h2.7l-3.5-4.9c1.8-0.5,3.1-1.8,3.1-3.9v0
		c0-1-0.4-2-1.1-2.8c-0.8-0.8-2.1-1.3-3.7-1.3h-5.8L99.5,80.6z M86.3,80.8c3.4,0,5.6-1.9,5.6-5.8v-7.3h-2.3v7.5
		c0,2.4-1.2,3.6-3.3,3.6s-3.3-1.3-3.3-3.7v-7.4h-2.3v7.5C80.8,78.8,83,80.8,86.3,80.8 M69.2,80.8c2.7,0,4.6-1.4,4.6-3.9v0
		c0-2.1-1.4-3.1-4.1-3.8c-2.5-0.6-3.1-1-3.1-2v0c0-0.9,0.8-1.5,2.1-1.5c1.2,0,2.3,0.5,3.5,1.3l1.2-1.7c-1.3-1.1-3-1.7-4.7-1.6
		c-2.6,0-4.4,1.5-4.4,3.8v0c0,2.4,1.5,3.2,4.3,3.9c2.4,0.5,2.9,1,2.9,2v0c0,1-0.9,1.6-2.3,1.6c-1.6,0-2.8-0.6-4.1-1.7l-1.4,1.6
		C65.3,80,67.2,80.8,69.2,80.8"/>
	<path class="st1" d="M74.6,86.8H78v0.8h-1.2v4.7h-1v-4.7h-1.2V86.8z"/>
	<path class="st1" d="M79.7,92.3v-5.5h1V89h1.5v-2.2h1v5.5h-1v-2.5h-1.4v2.5H79.7z"/>
	<path class="st1" d="M85.2,92.3v-5.5h2.9v0.8h-1.9V89h1.7v0.8h-1.7v1.7h1.9v0.8L85.2,92.3z"/>
	<path class="st1" d="M92.8,92.3v-5.5h1v4.7h1.9v0.8H92.8z"/>
	<path class="st1" d="M97.1,92.3l1.3-5.5h1.4l1.3,5.5h-1.1l-0.3-1.4h-1.2l-0.3,1.4H97.1z M98.6,90.1h0.9l-0.3-1.6
		c-0.1-0.3-0.1-0.5-0.1-0.8c0-0.1,0-0.3,0-0.4h0c0,0.1,0,0.2,0,0.4c0,0.3-0.1,0.5-0.1,0.8L98.6,90.1z"/>
	<path class="st1" d="M103.6,92.3h-1v-5.5h1.6l0.5,2.6c0.1,0.4,0.2,0.8,0.2,1.3h0c0-0.4,0.1-0.9,0.2-1.3l0.5-2.6h1.6v5.5h-1v-1.7
		c0-1.1,0-2.2,0.1-3.3l0,0l-1.1,5h-0.6l-1.1-5h0c0.1,1.1,0.1,2.2,0.1,3.3L103.6,92.3z"/>
	<path class="st1" d="M109.4,92.3v-5.5h1v5.5H109.4z"/>
	<path class="st1" d="M114.9,86.8h1v5.5h-1.1l-0.8-2c-0.3-0.7-0.5-1.5-0.7-2.2h0c0,0.5,0.1,1,0.1,1.6c0,0.5,0.1,1.1,0.1,1.5v1h-1
		v-5.5h1.1l0.8,2c0.3,0.7,0.5,1.5,0.7,2.2l0,0c0-0.5-0.1-1-0.1-1.6c0-0.5-0.1-1.1-0.1-1.6L114.9,86.8L114.9,86.8z"/>
	<path class="st1" d="M117.6,92.3l1.3-5.5h1.4l1.3,5.5h-1.1l-0.3-1.4H119l-0.3,1.4H117.6z M119.1,90.1h0.9l-0.3-1.6
		c-0.1-0.3-0.1-0.5-0.1-0.8c0-0.1,0-0.3,0-0.4h0c0,0.1,0,0.2,0,0.4c0,0.3-0.1,0.5-0.1,0.8L119.1,90.1z"/>
	<path class="st1" d="M122.3,86.8h3.4v0.8h-1.2v4.7h-1v-4.7h-1.2V86.8z"/>
	<path class="st1" d="M127.4,92.3v-5.5h2.9v0.8h-1.9V89h1.7v0.8h-1.7v1.7h1.9v0.8L127.4,92.3z"/>
	<path class="st1" d="M135,92.3v-5.5h2.9v0.8H136V89h1.7v0.8H136v1.7h1.9v0.8L135,92.3z"/>
	<path class="st1" d="M143.2,92.3h-1.2l-0.6-1.4c-0.1-0.2-0.2-0.5-0.2-0.7h0c-0.1,0.4-0.2,0.7-0.4,1l-0.5,1h-1.1l1.4-2.8l-1.3-2.7
		h1.1l0.5,1.3c0.1,0.2,0.2,0.4,0.2,0.7h0c0.1-0.4,0.2-0.7,0.3-1l0.4-0.9h1.2l-1.3,2.7L143.2,92.3z"/>
	<path class="st1" d="M144.9,92.3v-5.5h2.1c1,0,1.3,0.8,1.3,1.6c0,0.5-0.2,1-0.5,1.3c-0.3,0.2-0.8,0.4-1.1,0.3h-0.7v2.3L144.9,92.3z
		 M145.9,89.2h0.5c0.4,0,0.8-0.2,0.8-0.9c0-0.7-0.3-0.7-0.8-0.7h-0.5V89.2z"/>
	<path class="st1" d="M149.9,92.3v-5.5h2.9v0.8H151V89h1.7v0.8H151v1.7h1.9v0.8L149.9,92.3z"/>
	<path class="st1" d="M155.7,89.9v2.4h-1v-5.5h2c0.9,0,1.6,0.3,1.6,1.3c0,0.6-0.2,1.2-0.8,1.3v0c0.6,0.1,0.8,0.5,0.8,1
		c0,0.2,0,1.6,0.2,1.7v0.1h-1.1c-0.1-0.4-0.1-1-0.1-1.4s0-0.8-0.4-0.9c-0.3-0.1-0.6-0.1-0.9-0.1L155.7,89.9z M155.7,89.1h0.8
		c0.3,0,0.6-0.2,0.6-0.8c0-0.6-0.3-0.7-0.7-0.7h-0.8V89.1z"/>
	<path class="st1" d="M159.7,86.8h3.4v0.8h-1.2v4.7h-1v-4.7h-1.2L159.7,86.8z"/>
	<path class="st0" d="M141.1,20.6c0-0.3-0.2-0.5-0.4-0.7l-10.4-6l-0.1,0l-10.5-6c-0.3-0.2-0.6-0.2-0.8,0l-10.5,6.1l0,0l-10.4,6
		c-0.3,0.1-0.5,0.4-0.5,0.7v24.2l0,0c0,0.3,0.2,0.5,0.4,0.7l10.5,6l10.5,6c0.3,0.2,0.5,0.2,0.8,0l10.5-6l10.4-6
		c0.3-0.1,0.5-0.4,0.5-0.7L141.1,20.6L141.1,20.6z M99.2,34.1l8.1,4.7l-8.1,4.6V34.1z M120,32.1l-0.2-0.1c-0.2-0.1-0.3-0.2-0.5-0.2
		h-17.9l17.9-10.4l19.3,11.2l-8.9,5.1L120,32.1z M128.2,38.7l-6.2,3.6l-2.6,1.5l-8.9-5.1l8.9-5.1L128.2,38.7z M109.2,33.5h7.1
		l-7.5,4.3l-7.5-4.3H109.2z M119.4,55.9L100,44.7l8.9-5.1l10.1,5.8c0.1,0.1,0.3,0.1,0.4,0.1h17.9L119.4,55.9z M129.5,43.9h-7.1
		l7.5-4.3l7.5,4.3H129.5z M139.5,43.4l-8.1-4.6l8.1-4.7V43.4z M139.5,31.3l-19.7-11.4c-0.3-0.2-0.6-0.2-0.8,0L99.2,31.3V21.1
		l10.1-5.8l10.1-5.8l10.1,5.8c0,0,0,0,0.1,0l10,5.8L139.5,31.3L139.5,31.3z"/>
</g>
</svg>
