<?xml version="1.0" encoding="utf-8"?>
<!-- Generator: Adobe Illustrator 24.0.0, SVG Export Plug-In . SVG Version: 6.00 Build 0)  -->
<svg version="1.1" id="Layer_1" xmlns="http://www.w3.org/2000/svg" xmlns:xlink="http://www.w3.org/1999/xlink" x="0px" y="0px"
	 viewBox="0 0 240 100" style="enable-background:new 0 0 240 100;" xml:space="preserve">
<style type="text/css">
	.st0{fill:none;}
	.st1{fill:#1C1C1A;}
</style>
<g>
	<rect x="66.9" y="2.9" class="st0" width="106.1" height="94.3"/>
	<path class="st1" d="M167.3,77.3h-8.8l-1.8,5.2H153l8.2-22.4h3.5l8.2,22.4h-3.8L167.3,77.3z M159.6,74.2h6.7l-3.3-9.6h-0.1
		L159.6,74.2z M145.3,71l5.4-10.9h4.2l-7.8,14.5v7.9h-3.7v-8.1l-7.7-14.3h4.2L145.3,71z M134.8,63.1H128v19.4h-3.8V63.1h-6.8v-3
		h17.3L134.8,63.1z M114.4,82.5h-3.8V60.1h3.8V82.5z M89.7,82.5V60.1H97c2.8,0,5.2,0.9,6.9,2.7c1.8,1.8,2.7,4.1,2.7,6.9V73
		c0,2.8-0.9,5.1-2.7,6.9c-1.8,1.8-4.1,2.6-6.9,2.6H89.7z M93.4,63.1v16.4h3.4c1.9,0,3.3-0.6,4.4-1.8s1.6-2.8,1.6-4.7v-3.4
		c0-1.9-0.5-3.4-1.6-4.7c-1.1-1.2-2.5-1.8-4.4-1.8H93.4z M81.5,77.3h-8.8l-1.8,5.2h-3.8l8.2-22.4h3.5l8.2,22.4h-3.8L81.5,77.3z
		 M73.8,74.2h6.6l-3.3-9.6h-0.1L73.8,74.2z"/>
	<path class="st1" d="M173.1,94.3h-26.3v-1.7h26.3V94.3z M93.3,94.3H66.9v-1.7h26.3V94.3z M136.9,88.3l2.6,6.8h0l2.6-6.8h1.9v8.9
		h-1.5v-3l0.2-3.8h0l-2.6,6.9h-1l-2.6-6.9h0l0.2,3.8v3H135v-8.9H136.9z M131.7,95.1h-3.5l-0.7,2.1H126l3.3-8.9h1.4l3.2,8.9h-1.5
		L131.7,95.1z M128.7,93.9h2.6l-1.3-3.8h0L128.7,93.9z M121.5,96h4.1v1.2H120v-8.9h1.5L121.5,96L121.5,96z M112.1,92.6l2.1-4.3h1.7
		l-3.1,5.7v3.1h-1.5V94l-3-5.7h1.7L112.1,92.6z M105.6,96h4.1v1.2h-5.5v-8.9h1.5V96z M97.5,93.8v3.4h-1.5v-8.9h3.5
		c1,0,1.7,0.3,2.3,0.8c1.1,1.1,1.1,2.9,0,4l0,0c-0.5,0.5-1.3,0.8-2.3,0.8L97.5,93.8z M97.5,92.6h2c0.5,0,0.9-0.1,1.2-0.4
		c0.3-0.3,0.4-0.7,0.4-1.1c0.1-0.8-0.6-1.5-1.4-1.6c-0.1,0-0.2,0-0.3,0h-2L97.5,92.6z"/>
	<path class="st1" d="M140,45.6c3.9-4.7,6.1-10.6,6.1-16.7h0c0-6.1-2.1-12-6.1-16.7c-9.2-11-25.7-12.5-36.7-3.2S90.7,34.6,100,45.6
		c0-2.3,0-4.5,0-6.8c0-2.3,0.1-4.6,0-6.9c-0.1-2.6,1-4.8,2.7-6.7c1.7-1.9,3.7-3.4,5.6-5c2.1-1.8,4.2-3.5,6.3-5.2
		c0.9-0.8,2-0.5,2.4,0.6c0.2,0.6-0.1,1.1-0.5,1.5c-1.9,1.7-3.7,3.3-5.6,5c-2,1.8-4.1,3.6-6.1,5.4c-1,0.9-1.5,2.1-1.5,3.4
		c0,3.1,0,6.3,0,9.4c0,0.7,0.3,1.1,0.9,1.1c0.6,0,1-0.4,1-1.1c0-3.1,0-6.2,0-9.2c-0.1-0.7,0.2-1.3,0.8-1.8c0.6-0.5,1.5-0.6,2.2-0.3
		c0.8,0.4,1.2,1.1,1.2,2c0,2.6,0,5.3,0,7.9c0,0.9,0,1.8-0.1,2.7c-0.2,1.7-1.2,2.8-2.7,3.6c-1.5,0.8-3.1,1.5-4.6,2.3
		c10.1,9.8,26.1,9.7,36.2,0c-1.7-0.9-3.4-1.7-5-2.6c-1.4-0.8-2.3-2.1-2.3-3.7c0-3.4,0-6.9,0-10.3c0-0.1,0-0.3,0-0.4
		c0.1-1.1,1.1-2,2.3-1.9s2,1.1,1.9,2.3c0,3.1,0,6.2,0,9.3c0,0.7,0.4,1.2,0.9,1.1c0.5,0,0.9-0.5,0.9-1.2c0-3.1,0-6.2,0-9.2
		c0-1.6-0.7-2.9-1.9-3.9c-3.8-3.3-7.5-6.6-11.2-9.9c-0.9-0.8-0.8-1.9,0.3-2.4c0.5-0.2,1.1-0.1,1.5,0.3c3.4,2.8,6.7,5.5,10,8.4
		c1.5,1.3,2.8,2.7,3.7,4.4c0.5,1,0.8,2,0.8,3.1c0,2.6,0,5.2,0,7.8L140,45.6L140,45.6z M118.7,39.7h-4.5v-4.4h4.5V39.7z M118.7,32.7
		h-4.5v-4.4h4.5V32.7z M125.8,39.7h-4.5v-4.4h4.5V39.7z M125.8,28.2v4.4h-4.5v-4.4H125.8z"/>
</g>
</svg>
