<?xml version="1.0" encoding="utf-8"?>
<!-- Generator: Adobe Illustrator 24.0.0, SVG Export Plug-In . SVG Version: 6.00 Build 0)  -->
<svg version="1.1" id="Layer_1" xmlns="http://www.w3.org/2000/svg" xmlns:xlink="http://www.w3.org/1999/xlink" x="0px" y="0px"
	 viewBox="0 0 240 100" style="enable-background:new 0 0 240 100;" xml:space="preserve">
<style type="text/css">
	.st0{fill:none;}
	.st1{fill:#1C1C1A;}
</style>
<g>
	<rect x="65.4" y="1.6" class="st0" width="109" height="96.9"/>
	<path class="st1" d="M168.6,78.1h-9l-1.8,5.3h-3.8l8.4-23h3.6l8.4,23h-3.9L168.6,78.1z M160.7,74.9h6.9l-3.4-9.9h-0.1L160.7,74.9z
		 M146,71.6l5.5-11.2h4.3l-8,14.9v8.1H144v-8.3l-7.9-14.7h4.3L146,71.6z M135.2,63.5h-7v19.9h-3.9V63.5h-7v-3.1h17.8L135.2,63.5z
		 M114.2,83.4h-3.9v-23h3.9V83.4z M88.9,83.4v-23h7.5c2.9,0,5.3,0.9,7.1,2.8c1.8,1.8,2.8,4.2,2.8,7.1v3.4c0,2.9-0.9,5.2-2.8,7.1
		c-1.8,1.8-4.2,2.7-7.1,2.7H88.9z M92.7,63.5v16.9h3.5c2,0,3.4-0.6,4.5-1.8c1.1-1.2,1.6-2.9,1.6-4.8v-3.5c0-2-0.5-3.5-1.6-4.8
		c-1.1-1.2-2.6-1.8-4.5-1.8C96.2,63.5,92.7,63.5,92.7,63.5z M80.4,78.1h-9l-1.8,5.3h-3.9l8.4-23h3.6l8.4,23h-3.9L80.4,78.1z
		 M72.5,74.9h6.8L75.9,65h-0.1L72.5,74.9z"/>
	<path class="st1" d="M174.6,95.5h-27v-1.7h27V95.5z M92.6,95.5H65.4v-1.7h27v1.7H92.6z M137.4,89.4l2.7,7l0,0l2.7-7h2v9.1h-1.5
		v-3.1l0.2-3.9l0,0l-2.7,7.1h-1l-2.7-7.1l0,0l0.2,3.9v3.1h-1.7v-9.1H137.4z M132,96.3h-3.6l-0.7,2.2h-1.5l3.4-9.1h1.4l3.3,9.1h-1.5
		L132,96.3z M128.9,95.1h2.7l-1.3-3.9l0,0L128.9,95.1z M121.5,97.3h4.2v1.2H120v-9.1h1.5V97.3L121.5,97.3z M111.9,93.8l2.2-4.4h1.7
		l-3.2,5.9v3.2h-1.5v-3.2l-3.1-5.9h1.7L111.9,93.8z M105.2,97.3h4.2v1.2h-5.7v-9.1h1.5v7.9H105.2z M96.9,95v3.5h-1.5v-9.1h3.6
		c1,0,1.7,0.3,2.4,0.8c1.1,1.1,1.1,3,0,4.1l0,0c-0.5,0.5-1.3,0.8-2.4,0.8L96.9,95z M96.9,93.8h2.1c0.5,0,0.9-0.1,1.2-0.4
		c0.3-0.3,0.4-0.7,0.4-1.1c0.1-0.8-0.6-1.5-1.4-1.6c-0.1,0-0.2,0-0.3,0h-2.1L96.9,93.8z"/>
	<path class="st1" d="M140.6,45.5c4-4.8,6.3-10.9,6.3-17.2l0,0c0-6.3-2.2-12.3-6.3-17.2c-9.5-11.3-26.4-12.8-37.7-3.3
		s-12.9,26.3-3.4,37.6c0-2.4,0-4.6,0-7s0.1-4.7,0-7.1c-0.1-2.7,1-4.9,2.8-6.9c1.7-2,3.8-3.5,5.8-5.1c2.2-1.8,4.3-3.6,6.5-5.3
		c0.9-0.8,2.1-0.5,2.5,0.6c0.2,0.6-0.1,1.1-0.5,1.5c-2,1.7-3.8,3.4-5.8,5.1c-2.1,1.8-4.2,3.7-6.3,5.5c-1,0.9-1.5,2.2-1.5,3.5
		c0,3.2,0,6.5,0,9.7c0,0.7,0.3,1.1,0.9,1.1s1-0.4,1-1.1c0-3.2,0-6.4,0-9.5c-0.1-0.7,0.2-1.3,0.8-1.8c0.6-0.5,1.5-0.6,2.3-0.3
		c0.8,0.4,1.2,1.1,1.2,2.1c0,2.7,0,5.4,0,8.1c0,0.9,0,1.8-0.1,2.8c-0.2,1.7-1.2,2.9-2.8,3.7c-1.5,0.8-3.2,1.5-4.7,2.4
		c10.4,10.1,26.8,10,37.2,0c-1.7-0.9-3.5-1.7-5.1-2.7c-1.4-0.8-2.4-2.2-2.4-3.8c0-3.5,0-7.1,0-10.6c0-0.1,0-0.3,0-0.4
		c0.1-1.1,1.1-2.1,2.4-2s2.1,1.1,2,2.4c0,3.2,0,6.4,0,9.6c0,0.7,0.4,1.2,0.9,1.1c0.5,0,0.9-0.5,0.9-1.2c0-3.2,0-6.4,0-9.5
		c0-1.6-0.7-3-2-4c-3.9-3.4-7.7-6.8-11.5-10.2c-0.9-0.8-0.8-2,0.3-2.5c0.5-0.2,1.1-0.1,1.5,0.3c3.5,2.9,6.9,5.7,10.3,8.6
		c1.5,1.3,2.9,2.8,3.8,4.5c0.5,1,0.8,2.1,0.8,3.2c0,2.7,0,5.3,0,8L140.6,45.5L140.6,45.5z M118.7,39.4H114v-4.5h4.6V39.4z
		 M118.7,32.2H114v-4.5h4.6V32.2z M126,39.4h-4.6v-4.5h4.6V39.4z M126,27.6v4.5h-4.6v-4.5C121.3,27.6,126,27.6,126,27.6z"/>
</g>
</svg>
