<?xml version="1.0" encoding="utf-8"?>
<!-- Generator: Adobe Illustrator 24.0.0, SVG Export Plug-In . SVG Version: 6.00 Build 0)  -->
<svg version="1.1" id="Layer_1" xmlns="http://www.w3.org/2000/svg" xmlns:xlink="http://www.w3.org/1999/xlink" x="0px" y="0px"
	 viewBox="0 0 240 100" style="enable-background:new 0 0 240 100;" xml:space="preserve">
<style type="text/css">
	.st0{fill:none;}
	.st1{fill:#1C1C1A;}
	.st2{fill:#93C030;}
	.st3{fill:#93C03D;}
</style>
<g>
	<rect x="19" y="12.4" class="st0" width="202.1" height="75.2"/>
	<rect x="19" y="12.4" class="st0" width="202.1" height="75.2"/>
	<g>
		<path class="st1" d="M212.4,72.3v-9.7h4.2c0.8,0,1.5,0.1,2,0.2c0.5,0.1,0.8,0.5,1.1,0.9c0.2,0.5,0.4,0.9,0.4,1.4
			c0,0.7-0.2,1.3-0.7,1.8c-0.5,0.5-1.2,0.7-2,0.9c0.4,0.1,0.6,0.4,0.8,0.5c0.4,0.4,0.7,0.8,1.1,1.3l1.6,2.6h-1.6l-1.3-2
			c-0.4-0.6-0.7-1.1-0.9-1.3c-0.2-0.4-0.5-0.5-0.6-0.6c-0.2-0.1-0.4-0.2-0.6-0.2h-0.7h-1.5v4.2L212.4,72.3z M213.7,67h2.7
			c0.6,0,1.1-0.1,1.4-0.2c0.4-0.1,0.6-0.4,0.7-0.6c0.1-0.2,0.2-0.6,0.2-0.8c0-0.5-0.1-0.8-0.5-1.2c-0.4-0.2-0.8-0.5-1.5-0.5h-3.1V67
			z"/>
		<path class="st1" d="M194.8,72.3l3.7-9.7h1.4l3.9,9.7h-1.4l-1.2-2.9h-4l-1.1,2.9H194.8z M197.6,68.4h3.3l-1.1-2.7
			c-0.4-0.8-0.6-1.4-0.7-2c-0.1,0.6-0.4,1.2-0.5,1.9L197.6,68.4z"/>
		<polygon class="st1" points="178.2,72.3 178.2,62.7 179.4,62.7 184.5,70.3 184.5,62.7 185.7,62.7 185.7,72.3 184.4,72.3 
			179.3,64.7 179.3,72.3 		"/>
		<rect x="163.9" y="62.7" class="st1" width="1.3" height="9.5"/>
		<path class="st1" d="M142.6,72.3v-9.7h1.9l2.2,6.8c0.2,0.6,0.4,1.1,0.5,1.4c0.1-0.4,0.2-0.8,0.5-1.5l2.4-6.7h1.8v9.7h-1.2v-8
			l-2.8,8h-1.2l-2.8-8.1v8.1H142.6z"/>
		<path class="st1" d="M125.2,72.3l3.7-9.7h1.4l3.9,9.7h-1.4l-1.2-2.9h-4l-1.1,2.9H125.2z M128.1,68.4h3.3l-1.1-2.7
			c-0.4-0.8-0.6-1.4-0.7-2c-0.1,0.6-0.4,1.2-0.5,1.9L128.1,68.4z"/>
		<polygon class="st1" points="109.3,72.3 109.3,62.7 110.6,62.7 110.6,71.2 115.3,71.2 115.3,72.3 		"/>
	</g>
	<path class="st1" d="M214.3,86.4h2c0.6,0,1.2,0,1.5-0.1c0.4-0.1,0.6-0.2,0.8-0.5c0.4-0.4,0.6-0.7,0.7-1.2c0.1-0.5,0.2-1.2,0.2-1.9
		c0-1.1-0.1-1.8-0.5-2.4s-0.7-0.9-1.2-1.1c-0.4-0.1-0.9-0.2-1.6-0.2h-2V86.4z M213,87.5v-9.7h3.3c0.7,0,1.3,0,1.8,0.1
		c0.6,0.1,1.1,0.4,1.4,0.7c0.5,0.5,0.9,0.9,1.2,1.6c0.2,0.7,0.4,1.4,0.4,2.2c0,0.7-0.1,1.4-0.2,1.9c-0.1,0.6-0.4,1.1-0.7,1.4
		c-0.2,0.4-0.6,0.7-0.8,0.8c-0.4,0.2-0.7,0.4-1.2,0.5c-0.5,0.1-0.9,0.1-1.5,0.1H213V87.5z M204,87.5v-9.7h7V79h-5.7v2.9h5.3v1.2
		h-5.3v3.3h5.9v1.2H204V87.5z M198.2,87.5V79H195v-1.2h7.7V79h-3.2v8.5H198.2z M192.1,77.8h1.3v9.7h-1.3V77.8z M180.5,87.5v-9.7h1.9
		l2.2,6.8c0.2,0.6,0.4,1.1,0.5,1.4c0.1-0.4,0.2-0.8,0.5-1.5l2.4-6.7h1.8v9.7h-1.2v-8l-2.8,8h-1.2l-2.8-8.1v8.1H180.5z M177,77.8h1.3
		v9.7H177V77.8z M169.1,87.5v-9.7h1.3v8.5h4.7v1.2H169.1z M156.5,87.5v-9.7h7V79h-5.7v2.9h5.3v1.2h-5.3v3.3h5.9v1.2
		C163.5,87.5,156.5,87.5,156.5,87.5 M150.6,87.5V79h-3.2v-1.2h7.7V79h-3.2v8.5H150.6z M141.7,83.6h3.3l-1.1-2.7
		c-0.4-0.8-0.6-1.4-0.7-2c-0.1,0.6-0.4,1.2-0.5,1.9L141.7,83.6z M139,87.5l3.7-9.7h1.4l3.9,9.7h-1.4l-1.2-2.9h-4l-1.1,2.9H139z
		 M134.7,87.5l-3.8-9.7h1.4l2.5,7c0.2,0.6,0.4,1.1,0.5,1.5c0.1-0.5,0.4-1.1,0.5-1.5l2.6-7h1.3l-3.8,9.7H134.7z M128.3,77.8h1.3v9.7
		h-1.3V77.8z M119.6,82.2h2.7c0.6,0,1.1-0.1,1.4-0.2c0.4-0.1,0.6-0.4,0.7-0.6c0.1-0.2,0.2-0.6,0.2-0.8c0-0.5-0.1-0.8-0.5-1.2
		c-0.4-0.2-0.8-0.5-1.5-0.5h-3.1V82.2z M118.4,87.5v-9.7h4.2c0.8,0,1.5,0.1,2,0.2c0.5,0.1,0.8,0.5,1.1,0.9c0.2,0.5,0.4,0.9,0.4,1.4
		c0,0.7-0.2,1.3-0.7,1.8c-0.5,0.5-1.2,0.7-2,0.9c0.4,0.1,0.6,0.4,0.8,0.5c0.4,0.4,0.7,0.8,1.1,1.3l1.7,2.6h-1.7l-1.3-2
		c-0.4-0.6-0.7-1.1-0.9-1.3c-0.2-0.4-0.5-0.5-0.6-0.6c-0.2-0.1-0.4-0.2-0.6-0.2h-0.7h-1.5v4.2L118.4,87.5z M110.5,82.5h2.5
		c0.8,0,1.4-0.1,1.8-0.5c0.4-0.4,0.5-0.7,0.5-1.3c0-0.4-0.1-0.7-0.4-1.1c-0.2-0.2-0.5-0.5-0.8-0.6c-0.2,0-0.6-0.1-1.2-0.1h-2.5
		L110.5,82.5z M109.3,87.5v-9.7h3.7c0.6,0,1.2,0,1.4,0.1c0.5,0.1,0.8,0.2,1.2,0.5c0.4,0.2,0.6,0.6,0.8,0.9c0.2,0.4,0.2,0.8,0.2,1.3
		c0,0.8-0.2,1.5-0.8,2.1c-0.5,0.6-1.4,0.8-2.8,0.8h-2.5v3.9H109.3z"/>
	<rect x="19" y="12.4" class="st0" width="202.1" height="75.2"/>
	<path class="st1" d="M130.8,21.8l7.5,16.1h-15.2L130.8,21.8z M130.4,12.5l-21,44.4h4.9l7-14.6h19.1l7,14.6h4.7l-20.7-44.4H130.4z
		 M158.4,57h4.5V12.5h-4.5V57z M213.7,12.4l-17.9,36.4l-18-36.4h-0.7l-6.2,44.4h4.2l4.4-31.9l15.9,31.9h1.1l15.7-31.7l4.4,31.7h4.4
		l-6.4-44.4H213.7z"/>
	<path class="st2" d="M68.3,14.7C60.1,10,49.4,12.8,44.7,21L21.2,61.7c-4.7,8.2-1.9,18.9,6.3,23.6c8.2,4.7,18.9,1.9,23.6-6.3
		l23.4-40.6C79.5,30.1,76.6,19.4,68.3,14.7"/>
	<path class="st3" d="M68.3,14.7C60.1,10,49.4,12.8,44.7,21L21.2,61.7c-4.7,8.2-1.9,18.9,6.3,23.6c8.2,4.7,18.9,1.9,23.6-6.3
		l23.4-40.6C79.5,30.1,76.6,19.4,68.3,14.7"/>
	<path class="st1" d="M68.3,14.7C60.1,10,49.4,12.8,44.7,21L21.2,61.7c-4.7,8.2-1.9,18.9,6.3,23.6c8.2,4.7,18.9,1.9,23.6-6.3
		l23.4-40.6C79.5,30.1,76.6,19.4,68.3,14.7"/>
	<path class="st1" d="M51,14.7c8.2-4.7,18.9-1.9,23.6,6.3l23.4,40.6c4.7,8.2,1.9,18.9-6.3,23.6C83.5,90,72.8,87.2,68.1,79L44.7,38.3
		C39.9,30.1,42.8,19.4,51,14.7"/>
	<path class="st1" d="M61.1,12.5h-0.4h-1h-1h-0.4C52.8,13,47.6,16,44.7,21l0,0.1c-0.1,0.1-0.2,0.3-0.2,0.4
		c-2.7,5.1-2.9,11.5,0.3,16.8l15,25.9l14.9-25.9c3.1-5.4,2.9-11.8,0.2-16.9L74.5,21c-1.2-2.2-2.8-3.9-4.7-5.3
		c-1.8-1.3-3.8-2.2-5.9-2.8C63,12.7,62.1,12.6,61.1,12.5"/>
	<rect x="19" y="12.4" class="st0" width="202.1" height="75.2"/>
</g>
</svg>
