<?xml version="1.0" encoding="utf-8"?>
<!-- Generator: Adobe Illustrator 24.0.0, SVG Export Plug-In . SVG Version: 6.00 Build 0)  -->
<svg version="1.1" id="Layer_1" xmlns="http://www.w3.org/2000/svg" xmlns:xlink="http://www.w3.org/1999/xlink" x="0px" y="0px"
	 viewBox="0 0 240 100" style="enable-background:new 0 0 240 100;" xml:space="preserve">
<style type="text/css">
	.st0{fill:#000210;}
	.st1{fill:#FFFFFF;}
	.st2{clip-path:url(#SVGID_2_);}
	.st3{fill:#000D16;}
	.st4{fill:none;stroke:#FFFFFF;stroke-width:0.25;stroke-miterlimit:2.61;}
</style>
<title>Airolite Logo</title>
<g>
	<polygon class="st0" points="4.1,19.8 235.9,19.8 235.9,63 4.1,63 	"/>
	<path class="st1" d="M192,52.3h-6.5V30.4h9.9l7.8,13.7l8-13.7h9.7v21.9h-6.5V36.7l-9,15.6H201l-9-15.6V52.3L192,52.3z M135.9,47
		h14.6v5.3h-21.3V30.4h6.7C135.9,30.4,135.9,47,135.9,47z M107.8,47.1h4.3c2.3,0,4-0.3,4.7-0.9c0.9-0.9,1.3-2.1,1.2-3.3v-3.1
		c0.1-1.2-0.3-2.4-1.2-3.3c-0.8-0.6-2.3-0.9-4.7-0.9h-4.3c-2.5,0-4,0.3-4.7,0.9c-0.9,0.9-1.3,2.2-1.1,3.4v3
		c-0.1,1.2,0.3,2.4,1.2,3.3C103.9,46.9,105.5,47.2,107.8,47.1L107.8,47.1z M106,52.6c-1.9,0-3.7-0.1-5.6-0.3c-1-0.2-2-0.6-2.9-1.2
		c-0.8-0.6-1.5-1.5-1.8-2.5c-0.4-1.3-0.6-2.7-0.6-4v-5.9c0-1.5,0.1-3,0.6-4.3c0.3-1,1-1.9,1.8-2.6c0.9-0.6,1.9-1,3-1.2
		c1.8-0.3,3.7-0.4,5.6-0.3h7.9c1.9,0,3.7,0.1,5.6,0.3c1,0.2,2,0.6,2.9,1.2c0.8,0.7,1.5,1.5,1.8,2.5c0.4,1.3,0.6,2.7,0.6,4.1v6.2
		c0,1.4-0.1,2.8-0.6,4.1c-0.3,1-1,1.8-1.8,2.5c-0.9,0.6-1.9,1-2.9,1.2c-1.9,0.3-3.7,0.4-5.6,0.3L106,52.6z M82.4,30.4
		c3.5,0,5.8,0.5,7.1,1.5c1.2,1,1.9,2.9,1.9,5.7c0.1,1.4-0.2,2.9-0.8,4.2c-0.7,1-1.7,1.7-2.8,1.9c1,0.2,1.9,0.7,2.6,1.4
		c0.6,0.8,0.9,1.7,0.9,2.7v4.5h-6.7v-3.3c0.1-0.7-0.1-1.3-0.6-1.8c-0.7-0.4-1.6-0.6-2.4-0.5h-10v5.6h-6.7V30.4L82.4,30.4z
		 M82.1,35.8H71.5v5.3h10.7c0.7,0.1,1.3-0.1,1.9-0.6c0.4-0.7,0.7-1.5,0.6-2.3c0-0.7-0.1-1.3-0.6-1.9C83.4,36,82.8,35.8,82.1,35.8z
		 M59.9,52.3h-6.7V30.4h6.7L59.9,52.3L59.9,52.3z M25.8,52.3h-7.4l12-21.9h8.5l11.7,21.9h-7.4l-2.1-3.7H27.9L25.8,52.3L25.8,52.3z
		 M30.5,43.4h8.4l-4.3-7.7L30.5,43.4L30.5,43.4z"/>
	<polygon class="st1" points="168.2,26.8 175.6,39.6 183,52.4 168.2,52.4 153.5,52.4 160.8,39.6 	"/>
	<g>
		<g>
			<defs>
				<polygon id="SVGID_1_" points="168.2,26.8 175.6,39.6 183,52.4 168.2,52.4 153.5,52.4 160.8,39.6 				"/>
			</defs>
			<clipPath id="SVGID_2_">
				<use xlink:href="#SVGID_1_"  style="overflow:visible;"/>
			</clipPath>
			<g class="st2">
				<path class="st3" d="M176,40l-13.8,0.9l15.3,1.4l-0.2-0.3L176,40L176,40z M176,40l-12.4-1.7l11-0.7L176,40L176,40z M178.8,44.9
					l-18.3-1.2l16.9-1.2L178.8,44.9L178.8,44.9z M180.3,47.4l-21.5-1l20-1.3L180.3,47.4z M164.8,36.5l9.8,1.1l-1.1-2L164.8,36.5
					L164.8,36.5z"/>
			</g>
		</g>
	</g>
	<path class="st0" d="M216.3,79.7v-1.7c0.3,0.2,0.5,0.4,0.9,0.5c0.3,0.1,0.5,0.2,0.8,0.2c0.4,0,0.7-0.1,1-0.3c0.3-0.3,0.4-0.6,0.4-1
		c-0.2-0.9-0.6-1.7-1.1-2.5l-0.4-0.7c-0.5-0.8-1-1.6-1.3-2.5c-0.2-0.5-0.3-1-0.3-1.4c0-0.7,0.3-1.4,0.8-1.9c0.6-0.5,1.3-0.7,2.1-0.7
		c0.3,0,0.5,0,0.8,0.1c0.3,0.1,0.5,0.2,0.8,0.3v1.5c-0.2-0.1-0.4-0.3-0.7-0.3c-0.2,0-0.4-0.1-0.6-0.1c-0.3,0-0.7,0.1-1,0.3
		c-0.3,0.2-0.4,0.5-0.4,0.9c0,0.3,0.1,0.6,0.2,0.9c0.2,0.4,0.4,0.8,0.6,1.2c0.2,0.3,0.4,0.7,0.7,1.2c0.8,1.1,1.3,2.4,1.6,3.8
		c0,0.7-0.3,1.5-0.9,2c-0.6,0.5-1.4,0.8-2.2,0.8c-0.3,0-0.6,0-0.9-0.1C217,80,216.7,79.9,216.3,79.7 M206.4,80V67.9h5.2v1.4h-3.4
		v3.6h3.1v1.4h-3.1v4.2h3.6v1.4L206.4,80z M197.8,80V69.4h-2.3v-1.5h6.4v1.4h-2.3V80L197.8,80z M185.3,80l2.7-12h2l2.7,12h-1.8
		l-0.5-2.7h-2.7l-0.5,2.7H185.3z M188,75.9h2.1l-0.8-3.9c0-0.3-0.1-0.6-0.1-0.9s-0.1-0.6-0.1-1c0,0.4-0.1,0.7-0.1,1
		c0,0.3-0.1,0.6-0.1,0.8L188,75.9L188,75.9z M174.4,68h1.5l2.5,5.9c0.1,0.3,0.3,0.8,0.6,1.6l0.3,0.6c0-0.4,0-0.9-0.1-1.3
		c0-0.5,0-1,0-1.5v-5.3h1.7v12h-1.6l-2.5-5.8l-0.4-1.1c-0.2-0.5-0.3-0.9-0.4-1.1c0,0.4,0,0.9,0.1,1.3c0.1,0.5,0,1,0,1.5V80h-1.7
		L174.4,68L174.4,68z M166.9,80V67.9h1.8v12L166.9,80z M153.6,80V67.9h1.7l1.6,3.4l0.2,0.5c0.1,0.2,0.2,0.5,0.3,0.8
		c0.1-0.3,0.2-0.5,0.3-0.7c0.1-0.2,0.2-0.4,0.3-0.6l1.6-3.4h1.7v12h-1.7v-7c0-0.3,0-0.6,0-1s0-0.7,0.1-1l-2.3,4.5l-2.3-4.5
		c0,0.4,0.1,0.8,0.1,1.1s0,0.6,0,0.8v7L153.6,80z M141.7,80l2.7-12h2l2.7,12h-1.9l-0.5-2.7H144l-0.6,2.7H141.7z M144.4,75.9h2.1
		l-0.7-3.9c0-0.3-0.1-0.6-0.1-0.9c0-0.3-0.1-0.6-0.1-1c0,0.4-0.1,0.7-0.1,1c0,0.3-0.1,0.6-0.1,0.8L144.4,75.9L144.4,75.9z M132.4,80
		V67.9h1.8v10.6h3.6v1.4L132.4,80z M114.1,80V67.9h5.2v1.4h-3.4v3.6h3.1v1.4h-3.1v4.2h3.6v1.4L114.1,80z M105.4,80l-2.9-12.1h1.9
		l1.2,6.6c0.1,0.4,0.1,0.7,0.2,1c0,0.3,0.1,0.6,0.1,0.8c0-0.4,0.1-0.7,0.1-1c0-0.3,0.1-0.5,0.1-0.8l1.2-6.6h1.9l-2.7,12L105.4,80z
		 M96.2,80V67.9H98v12L96.2,80z M87.5,80V69.4h-2.4v-1.5h6.4v1.4h-2.3V80L87.5,80z M75,80l2.6-12.1h2l2.7,12h-1.9l-0.5-2.7h-2.7
		l-0.5,2.7L75,80z M77.7,75.9h2.1L78.9,72c0-0.3-0.1-0.6-0.1-0.9s-0.1-0.6-0.1-1c0,0.4-0.1,0.7-0.1,1c0,0.3-0.1,0.6-0.1,0.8
		L77.7,75.9L77.7,75.9z M65.2,80V67.9h1.7c1,0,1.9,0.3,2.6,0.9c0.7,0.6,1,1.4,1,2.3c0,0.6-0.1,1.1-0.4,1.6c-0.3,0.4-0.7,0.8-1.2,1
		c0.4,0.2,0.8,0.5,1.1,1c0.4,0.7,0.7,1.3,0.9,2.1l0.9,3.2h-2L69,77.1c-0.2-0.7-0.4-1.4-0.8-2c-0.2-0.3-0.6-0.6-1-0.6H67h-0.2V80
		L65.2,80z M67,73.1h0.2c0.4,0,0.9-0.1,1.1-0.4c0.3-0.3,0.4-0.8,0.4-1.2c0-0.5-0.1-1-0.4-1.5c-0.3-0.3-0.8-0.6-1.2-0.5h-0.1L67,73.1
		L67,73.1z M52.4,74c-0.1-1.6,0.3-3.2,1-4.7c0.6-1,1.7-1.7,2.9-1.6c1.1,0,2.2,0.6,2.8,1.5c1.3,3,1.3,6.3,0,9.3c-1,1.6-3.2,2.1-4.8,1
		c-0.4-0.3-0.8-0.6-1-1c-0.7-1.4-1.1-3-1-4.7L52.4,74z M54.3,74c0,1.2,0.1,2.4,0.5,3.6c0.2,0.7,0.8,1.2,1.5,1.2
		c0.7,0,1.3-0.5,1.5-1.2c0.4-1.2,0.6-2.4,0.5-3.6c0-1.2-0.1-2.4-0.5-3.6c-0.3-0.8-0.9-1.2-1.5-1.2c-0.7,0-1.3,0.5-1.5,1.2
		C54.3,71.6,54.2,72.8,54.3,74L54.3,74z M48.1,79.5c-0.3,0.2-0.6,0.4-0.9,0.5c-0.3,0.1-0.7,0.2-1.1,0.2c-1.2,0.1-2.3-0.6-3-1.6
		c-0.7-1.4-1.1-3-1-4.5c-0.1-1.7,0.2-3.3,0.9-4.8c0.6-1,1.7-1.7,2.8-1.6c0.3,0,0.7,0,1.1,0.1c0.3,0.1,0.7,0.2,1,0.4v1.6
		c-0.3-0.2-0.6-0.4-1-0.5c-0.3-0.1-0.6-0.2-0.9-0.2c-0.7,0-1.4,0.3-1.7,1c-0.4,1.2-0.6,2.4-0.5,3.7c-0.1,1.3,0.1,2.6,0.5,3.8
		c0.2,0.7,0.9,1.1,1.6,1.1c0.3,0,0.7-0.1,1-0.2c0.3-0.2,0.7-0.4,1-0.7v1.6L48.1,79.5z M32.4,80V67.9h5.2v1.4h-3.5v3.6h3.1v1.4h-3.1
		v4.2h3.6v1.4L32.4,80z M20.3,80V67.9h2.1c1.4-0.1,2.8,0.4,3.7,1.5c1.6,2.8,1.6,6.3,0,9c-0.9,1-2.3,1.6-3.7,1.5L20.3,80z M22.1,78.6
		h0.3c0.9,0.1,1.8-0.3,2.3-1.1c1-2.2,1-4.8,0-7c-0.5-0.8-1.4-1.2-2.3-1.1h-0.3V78.6z"/>
	<path class="st1" d="M224.1,33.1h1c0.2,0,0.3,0,0.5-0.1c0.1,0,0.2-0.1,0.3-0.2c0-0.1,0.1-0.2,0.1-0.3c0-0.2,0-0.3-0.2-0.4
		c-0.2-0.1-0.4-0.2-0.6-0.2h-1.1L224.1,33.1L224.1,33.1z M223.7,35.1v-3.6h1.6c0.3,0,0.5,0,0.7,0.1c0.2,0,0.3,0.2,0.4,0.3
		c0.1,0.2,0.1,0.3,0.1,0.5c0,0.2-0.1,0.5-0.3,0.7c-0.2,0.2-0.5,0.3-0.8,0.3c0.1,0,0.2,0.1,0.3,0.2c0.2,0.1,0.3,0.3,0.4,0.5l0.6,1
		h-0.6l-0.5-0.7l-0.3-0.5c-0.1-0.1-0.2-0.2-0.3-0.3c0,0-0.1-0.1-0.2-0.1h-0.3h-0.6v1.6L223.7,35.1z"/>
	<path class="st4" d="M225,30.4c1.6,0,3,1.2,3,2.8c0,1.6-1.2,3-2.8,3c-1.6,0-3-1.2-3-2.8c0,0,0,0,0-0.1
		C222.1,31.7,223.4,30.4,225,30.4L225,30.4z"/>
</g>
</svg>
