<?xml version="1.0" encoding="utf-8"?>
<!-- Generator: Adobe Illustrator 24.0.0, SVG Export Plug-In . SVG Version: 6.00 Build 0)  -->
<svg version="1.1" id="Layer_1" xmlns="http://www.w3.org/2000/svg" xmlns:xlink="http://www.w3.org/1999/xlink" x="0px" y="0px"
	 viewBox="0 0 240 100" style="enable-background:new 0 0 240 100;" xml:space="preserve">
<style type="text/css">
	.st0{fill:#1C1C1A;}
	.st1{fill:none;}
</style>
<g>
	<path class="st0" d="M187.3,25.2h13.2v8.7h9.9v7.8h-9.9v14c0,2.2,0.3,3.5,0.7,3.9c0.5,0.4,1.7,0.6,3.6,0.6h5.5v8h-8.9
		c-5.1,0-8.7-0.6-10.9-1.9c-2.2-1.2-3.3-3.3-3.3-6.1V41.7h-6.2v-7.8h6.2V25.2z M175.6,30.6h-13.1v-7.9h13.1V30.6z M162.5,33.9h13.1
		V67h-13.1V33.9z M124.8,67l-19.9-33.1h14.5L131,55.5l12.7-21.6H158L137.2,67H124.8z M63.8,67H48.3l9.3-15.2
		c3.9,1.6,7.8,3.3,11.9,4.6L63.8,67z M64.3,40.9l11.1-18.2h13.7L106.4,52c-5.6,0.1-11.3-0.9-16.9-2.5l-8.2-14.6l-5.4,10
		C71.9,43.5,68.1,42.1,64.3,40.9 M107.9,54.6l7.2,12.3H99.2l-4.8-8.5C98.6,57.8,103.1,56.6,107.9,54.6"/>
	<rect x="22.2" y="17.4" class="st1" width="190" height="65.2"/>
	<path class="st0" d="M26.2,44.5c25.2-19.4,55.5,13.1,84.8,7.9C70.6,69.9,56,38.9,26.2,44.5"/>
	
		<rect x="42.4" y="3.2" transform="matrix(9.106922e-02 -0.9958 0.9958 9.106922e-02 15.0747 111.505)" class="st1" width="52.4" height="88.5"/>
	<path class="st0" d="M50.4,76v4.7H52c0.9,0,1.6-0.2,2.1-0.6c0.5-0.4,0.7-1,0.7-1.8c0-0.8-0.2-1.4-0.7-1.8C53.6,76.2,52.9,76,52,76
		H50.4z M52,74.4c0.9,0,1.5,0,1.9,0.1c0.4,0.1,0.8,0.2,1.2,0.4c0.6,0.3,1,0.8,1.4,1.4c0.3,0.6,0.5,1.3,0.5,2.1
		c0,0.8-0.2,1.5-0.5,2.1c-0.3,0.6-0.8,1.1-1.4,1.4c-0.3,0.2-0.7,0.3-1.2,0.4c-0.4,0.1-1.1,0.1-1.9,0.1h-3.6v-8H52z M58.2,82.4v-8
		h7.1V76h-5.1v1.3h4.5V79h-4.5v1.7h5.1v1.7H58.2z M75.6,79.3c-0.1,1-0.6,1.8-1.4,2.4c-0.8,0.6-1.9,0.9-3.2,0.9
		c-1.5,0-2.6-0.4-3.5-1.1c-0.9-0.8-1.3-1.8-1.3-3.1s0.4-2.3,1.3-3.1c0.9-0.8,2-1.1,3.5-1.1c1.3,0,2.3,0.3,3.2,0.9
		c0.8,0.6,1.3,1.3,1.4,2.3h-2.2c-0.1-0.5-0.4-0.9-0.8-1.1c-0.4-0.2-0.9-0.4-1.6-0.4c-0.8,0-1.4,0.2-1.9,0.7
		c-0.5,0.5-0.7,1.1-0.7,1.9c0,0.8,0.2,1.4,0.7,1.9c0.5,0.5,1.1,0.7,1.9,0.7c0.7,0,1.3-0.1,1.7-0.4c0.4-0.3,0.7-0.7,0.7-1.2H75.6z
		 M81.3,81c0.8,0,1.4-0.2,1.9-0.7c0.5-0.5,0.7-1.1,0.7-1.9c0-0.8-0.2-1.4-0.7-1.9c-0.5-0.5-1.1-0.7-1.9-0.7c-0.8,0-1.4,0.2-1.9,0.7
		c-0.5,0.5-0.7,1.1-0.7,1.9c0,0.8,0.2,1.4,0.7,1.9C79.8,80.7,80.5,81,81.3,81 M76.5,78.4c0-1.3,0.4-2.3,1.3-3.1
		c0.9-0.8,2-1.1,3.5-1.1c1.5,0,2.6,0.4,3.5,1.1c0.9,0.8,1.3,1.8,1.3,3.1s-0.4,2.3-1.3,3.1c-0.9,0.8-2,1.1-3.5,1.1
		c-1.5,0-2.6-0.4-3.5-1.1S76.5,79.7,76.5,78.4 M89.4,77.8h2.3c0.6,0,1-0.1,1.3-0.2c0.2-0.1,0.4-0.4,0.4-0.7c0-0.3-0.1-0.5-0.3-0.7
		c-0.2-0.1-0.7-0.2-1.4-0.2h-2.2V77.8z M87.4,82.4v-8h4.9c1.1,0,1.8,0.2,2.4,0.5c0.5,0.3,0.8,0.9,0.8,1.6c0,0.5-0.1,0.9-0.4,1.2
		c-0.2,0.4-0.6,0.6-1,0.8c0.4,0.1,0.6,0.3,0.7,0.5c0.1,0.2,0.2,0.6,0.3,1.2c0,0.1,0,0.1,0,0.2c0,1,0.2,1.6,0.4,1.9h-2.2
		c-0.1-0.1-0.1-0.2-0.1-0.3c0-0.1,0-0.2,0-0.3v-0.5c0-0.7-0.1-1.2-0.3-1.4c-0.2-0.2-0.6-0.3-1.1-0.3h0h-2.3v2.9H87.4z M99.2,79.1
		h2.1l-1.1-2.5L99.2,79.1z M95.6,82.4l3.8-8h1.9l3.6,8h-2.2l-0.7-1.7h-3.5l-0.7,1.7H95.6z M108.6,76v6.4h-2V76h-2.7v-1.6h7.4V76
		H108.6z M112.2,74.4h2v8h-2V74.4z M118.1,82.4l-3.5-8h2.2l2.3,5.7l2.3-5.7h2.2l-3.5,8H118.1z M124.1,82.4v-8h7.1V76h-5.1v1.3h4.5
		V79h-4.5v1.7h5.1v1.7H124.1z M136.6,82.4v-8h2v6.3h4.1v1.7H136.6z M146.8,79.1h2.1l-1.1-2.5L146.8,79.1z M143.2,82.4l3.8-8h1.9
		l3.6,8h-2.2l-0.7-1.7h-3.5l-0.7,1.7H143.2z M153.1,82.4v-8h2.6l2.6,5.7l2.6-5.7h2.6v8h-1.9v-5.3l-2.5,5.3h-1.7L155,77v5.4H153.1z
		 M165.2,74.4h2v8h-2V74.4z M169.1,82.4v-8h2.5l4,5.6v-5.6h1.9v8H175l-4-5.7v5.7H169.1z M181.5,79.1h2.1l-1.1-2.5L181.5,79.1z
		 M177.9,82.4l3.8-8h1.9l3.6,8H185l-0.7-1.7h-3.5l-0.7,1.7H177.9z M190.9,76v6.4h-2V76h-2.7v-1.6h7.4V76H190.9z M194.5,82.4v-8h7.1
		V76h-5.1v1.3h4.5V79h-4.5v1.7h5.1v1.7H194.5z M202.6,79.6h2v0.1c0,0.4,0.2,0.8,0.6,1c0.4,0.2,1,0.4,1.7,0.4c0.6,0,1-0.1,1.3-0.3
		c0.3-0.2,0.5-0.4,0.5-0.7c0-0.3-0.1-0.5-0.3-0.6c-0.2-0.1-0.6-0.2-1.3-0.3l-1.4-0.1c-1-0.1-1.8-0.3-2.3-0.7
		c-0.5-0.4-0.7-0.9-0.7-1.5c0-0.8,0.4-1.4,1.1-1.9c0.7-0.5,1.6-0.7,2.8-0.7c1.2,0,2.2,0.2,2.9,0.7c0.7,0.5,1.1,1.1,1.1,1.9v0.1h-2
		c0-0.4-0.2-0.7-0.6-0.9c-0.3-0.2-0.8-0.3-1.4-0.3c-0.6,0-1,0.1-1.3,0.2c-0.3,0.2-0.5,0.4-0.5,0.7c0,0.2,0.1,0.4,0.3,0.5
		c0.2,0.1,0.6,0.2,1.3,0.3l1.5,0.2c1,0.1,1.8,0.4,2.3,0.7c0.5,0.4,0.7,0.9,0.7,1.6c0,0.9-0.4,1.6-1.1,2c-0.7,0.5-1.8,0.7-3.2,0.7
		c-1.3,0-2.3-0.2-3.1-0.7c-0.7-0.5-1.1-1.2-1.1-2.1V79.6z"/>
	<path class="st0" d="M208.1,22.6c0.7,0,1.3,0.2,2,0.5c0.6,0.3,1.1,0.8,1.5,1.5c0.4,0.6,0.5,1.3,0.5,2c0,0.7-0.2,1.4-0.5,2
		c-0.4,0.6-0.9,1.1-1.5,1.5c-0.6,0.4-1.3,0.5-2,0.5c-0.7,0-1.4-0.2-2-0.5c-0.6-0.4-1.1-0.9-1.5-1.5c-0.4-0.6-0.5-1.3-0.5-2
		c0-0.7,0.2-1.4,0.5-2c0.4-0.6,0.9-1.1,1.5-1.5C206.8,22.8,207.5,22.6,208.1,22.6 M208.1,23.3c-0.6,0-1.1,0.1-1.7,0.4
		c-0.5,0.3-1,0.7-1.3,1.2c-0.3,0.5-0.5,1.1-0.5,1.7c0,0.6,0.1,1.1,0.4,1.7c0.3,0.5,0.7,0.9,1.2,1.2c0.5,0.3,1.1,0.4,1.7,0.4
		c0.6,0,1.1-0.1,1.7-0.4c0.5-0.3,0.9-0.7,1.2-1.2c0.3-0.5,0.4-1.1,0.4-1.7c0-0.6-0.1-1.1-0.5-1.7c-0.3-0.5-0.7-1-1.3-1.2
		C209.3,23.5,208.7,23.3,208.1,23.3 M206.4,28.9v-4.3h1.5c0.5,0,0.9,0,1.1,0.1c0.2,0.1,0.4,0.2,0.5,0.4c0.1,0.2,0.2,0.4,0.2,0.6
		c0,0.3-0.1,0.6-0.3,0.8c-0.2,0.2-0.5,0.4-0.9,0.4c0.2,0.1,0.3,0.1,0.4,0.2c0.2,0.2,0.4,0.5,0.6,0.9l0.5,0.8h-0.9l-0.4-0.7
		c-0.3-0.5-0.5-0.9-0.7-1c-0.1-0.1-0.3-0.2-0.6-0.2h-0.4v1.8H206.4z M207.1,26.5h0.8c0.4,0,0.7-0.1,0.8-0.2c0.1-0.1,0.2-0.3,0.2-0.5
		c0-0.1,0-0.2-0.1-0.3c-0.1-0.1-0.2-0.2-0.3-0.2c-0.1-0.1-0.4-0.1-0.7-0.1h-0.8V26.5z"/>
	<rect x="22.2" y="17.4" class="st1" width="190" height="65.2"/>
</g>
</svg>
