<?xml version="1.0" encoding="utf-8"?>
<!-- Generator: Adobe Illustrator 24.0.0, SVG Export Plug-In . SVG Version: 6.00 Build 0)  -->
<svg version="1.1" id="Layer_1" xmlns="http://www.w3.org/2000/svg" xmlns:xlink="http://www.w3.org/1999/xlink" x="0px" y="0px"
	 viewBox="0 0 240 100" style="enable-background:new 0 0 240 100;" xml:space="preserve">
<style type="text/css">
	.st0{fill:#FFFFFF;}
	.st1{fill:none;stroke:#1C1C1A;stroke-width:3;stroke-miterlimit:10;}
</style>
<g>
	<path d="M88.1,18.7l-1.3,0c-6.2,0-11.2,4.7-11.2,10.5c-5.3,1.8-8.4,6-11.4,10.2c-6.3,8.9-12.3,10.7-12.3,10.7
		c0,0,5.3,1.3,12.3,10.6c3.1,4.1,6.1,8.4,11.4,10.2c0.1,5.8,5.1,10.5,11.3,10.5l1.3,0c1.9,3.5,5.7,5.8,10,5.7l11,0l21.9,0l11,0
		c4.3,0,8.1-2.2,10-5.8l1.3,0c6.2,0,11.2-4.7,11.2-10.5c5.3-1.8,8.3-6.1,11.4-10.2c7-9.3,12.3-10.7,12.3-10.7c0,0-6-1.8-12.3-10.7
		c-3-4.2-6.1-8.4-11.4-10.2c-0.1-5.8-5.1-10.5-11.3-10.5l-1.3,0c-1.9-3.5-5.7-5.8-10-5.7l-11,0l-21.9,0l-11,0
		C93.8,12.9,90,15.1,88.1,18.7z"/>
	<path class="st0" d="M89.1,20.2l-2.4,0c-5.3,0-9.6,4.1-9.6,9.1l0,1C66.9,32.9,65,45.5,55.4,50c0,0-0.2,0.1-0.2,0.1
		c-0.1,0,0.2,0.1,0.2,0.1c9.6,4.5,11.5,17.1,21.7,19.6l0,1c0,5,4.3,9.1,9.7,9.1l2.4,0c1.4,3.4,4.9,5.8,9,5.7l11,0l21.9,0l11,0
		c4.1,0,7.6-2.4,9-5.8l2.4,0c5.3,0,9.6-4.1,9.6-9.1l0-1c10.2-2.6,12.1-15.2,21.7-19.7c0,0,0.2-0.1,0.2-0.1c0.1,0-0.2-0.1-0.2-0.1
		c-9.6-4.5-11.5-17.1-21.7-19.6l0-1c0-5-4.3-9.1-9.7-9.1l-2.4,0c-1.4-3.4-4.9-5.8-9-5.7l-11,0l-21.9,0l-11,0
		C94,14.4,90.5,16.8,89.1,20.2z"/>
	<path d="M90.8,22.7l0-0.6l0.3,0c0-0.1,0.1-0.2,0.1-0.3l0.6,0.3c-0.1,0.2-0.1,0.3-0.2,0.5l-0.3,0.2L90.8,22.7z"/>
	<path d="M80.6,30.2l-0.6-0.1c0-0.4,0.1-0.7,0.2-1.1l0.6,0.1C80.6,29.5,80.6,29.8,80.6,30.2z M81,28.2L80.4,28
		c0.1-0.3,0.3-0.7,0.4-1l0.6,0.3C81.2,27.6,81.1,27.9,81,28.2z M81.9,26.4l-0.5-0.4c0.2-0.3,0.4-0.6,0.7-0.9l0.5,0.4
		C82.3,25.9,82.1,26.2,81.9,26.4z M83.2,24.9l-0.4-0.5c0.3-0.2,0.6-0.5,0.8-0.7l0.4,0.5C83.7,24.5,83.5,24.7,83.2,24.9z M84.9,23.8
		l-0.3-0.6c0.3-0.2,0.6-0.3,1-0.5l0.2,0.6C85.5,23.5,85.2,23.6,84.9,23.8z M86.7,23l-0.2-0.6c0.3-0.1,0.7-0.2,1.1-0.2l0.1,0.6
		C87.4,22.9,87.1,22.9,86.7,23z M88.7,22.7l0-0.6c0.2,0,0.3,0,0.5,0l0.6,0l0,0.6l-0.6,0C89,22.7,88.9,22.7,88.7,22.7z"/>
	<path d="M79.8,32.2l-0.2-0.6c0.1,0,0.2-0.1,0.3-0.1l0-0.3l0.6,0l0,0.5l-0.2,0.3C80.1,32.1,79.9,32.1,79.8,32.2z"/>
	<path d="M61.5,49.6L61.2,49c0.3-0.2,0.6-0.4,0.9-0.6l0.4,0.5C62.2,49.2,61.9,49.4,61.5,49.6z M63.3,48.4l-0.4-0.5
		c0.3-0.2,0.5-0.4,0.8-0.7l0.4,0.5C63.9,47.9,63.6,48.1,63.3,48.4z M65,46.9l-0.5-0.5c0.2-0.2,0.5-0.5,0.7-0.8l0.5,0.4
		C65.5,46.4,65.2,46.7,65,46.9z M66.4,45.3l-0.5-0.4c0.2-0.3,0.4-0.5,0.7-0.8l0.5,0.4C66.9,44.8,66.7,45.1,66.4,45.3z M67.8,43.7
		l-0.5-0.4c0.2-0.3,0.4-0.6,0.6-0.8l0.5,0.4C68.2,43.1,68,43.4,67.8,43.7z M69.1,41.9l-0.5-0.4c0.2-0.3,0.4-0.5,0.6-0.8l0.1-0.1
		l0.5,0.4l-0.1,0.1C69.5,41.4,69.3,41.7,69.1,41.9z M70.3,40.2l-0.5-0.4c0.2-0.3,0.4-0.6,0.6-0.9l0.5,0.4
		C70.8,39.6,70.6,39.9,70.3,40.2z M71.6,38.5l-0.5-0.4c0.2-0.3,0.5-0.6,0.7-0.8l0.5,0.4C72.1,37.9,71.8,38.2,71.6,38.5z M73,36.9
		l-0.5-0.4c0.2-0.3,0.5-0.5,0.7-0.8l0.5,0.5C73.5,36.3,73.2,36.6,73,36.9z M74.4,35.4L74,34.9c0.3-0.3,0.5-0.5,0.8-0.7l0.4,0.5
		C75,34.9,74.7,35.1,74.4,35.4z M76.1,34l-0.4-0.5c0.3-0.2,0.6-0.4,0.9-0.6l0.3,0.6C76.6,33.6,76.3,33.8,76.1,34z M77.8,33l-0.3-0.6
		c0.3-0.2,0.7-0.3,1-0.4l0.2,0.6C78.5,32.7,78.2,32.8,77.8,33z"/>
	<path d="M78.6,68.2c-0.3-0.1-0.7-0.3-1-0.4l0.3-0.6c0.3,0.2,0.6,0.3,1,0.4L78.6,68.2z M76.6,67.2c-0.3-0.2-0.6-0.4-0.9-0.6l0.4-0.5
		c0.3,0.2,0.6,0.4,0.9,0.6L76.6,67.2z M74.8,65.9c-0.3-0.2-0.5-0.5-0.8-0.7l0.4-0.5c0.3,0.2,0.5,0.5,0.8,0.7L74.8,65.9z M73.2,64.5
		c-0.2-0.2-0.5-0.5-0.7-0.8l0.5-0.4c0.2,0.3,0.5,0.5,0.7,0.8L73.2,64.5z M71.8,62.8c-0.2-0.3-0.5-0.6-0.7-0.8l0.5-0.4
		c0.2,0.3,0.4,0.6,0.7,0.8L71.8,62.8z M70.5,61.1c-0.2-0.3-0.4-0.6-0.6-0.9l0.5-0.4c0.2,0.3,0.4,0.6,0.6,0.9L70.5,61.1z M69.2,59.4
		l-0.1-0.1c-0.2-0.2-0.4-0.5-0.5-0.7l0.5-0.4c0.2,0.2,0.4,0.5,0.5,0.7l0.1,0.1L69.2,59.4z M67.9,57.7c-0.2-0.3-0.4-0.6-0.6-0.8
		l0.5-0.4c0.2,0.3,0.4,0.6,0.7,0.9L67.9,57.7z M66.6,56c-0.2-0.3-0.5-0.6-0.7-0.8l0.5-0.4c0.2,0.3,0.5,0.5,0.7,0.8L66.6,56z
		 M65.2,54.4c-0.2-0.3-0.5-0.5-0.7-0.8l0.5-0.5c0.3,0.2,0.5,0.5,0.8,0.8L65.2,54.4z M63.7,52.9c-0.3-0.2-0.5-0.5-0.8-0.7l0.4-0.5
		c0.3,0.2,0.6,0.5,0.8,0.7L63.7,52.9z M62.1,51.6c-0.3-0.2-0.6-0.4-0.9-0.6l0.3-0.6c0.3,0.2,0.6,0.4,0.9,0.6L62.1,51.6z"/>
	<path d="M79.9,68.9l0-0.3c-0.1,0-0.2-0.1-0.3-0.1l0.2-0.6c0.2,0,0.3,0.1,0.5,0.1l0.2,0.3l0,0.5L79.9,68.9z"/>
	<path d="M89.2,78c-0.2,0-0.3,0-0.5,0l0-0.6c0.1,0,0.3,0,0.4,0l0,0l0.6,0l0,0.6L89.2,78z M87.7,77.9c-0.4-0.1-0.7-0.1-1.1-0.2
		l0.2-0.6c0.3,0.1,0.7,0.2,1,0.2L87.7,77.9z M85.6,77.3c-0.3-0.1-0.7-0.3-1-0.5l0.3-0.6c0.3,0.2,0.6,0.3,0.9,0.4L85.6,77.3z
		 M83.7,76.3c-0.3-0.2-0.6-0.4-0.9-0.7l0.4-0.5c0.2,0.2,0.5,0.4,0.8,0.6L83.7,76.3z M82.1,74.9c-0.2-0.3-0.5-0.6-0.7-0.9l0.5-0.4
		c0.2,0.3,0.4,0.5,0.6,0.8L82.1,74.9z M80.8,73.1c-0.2-0.3-0.3-0.7-0.4-1l0.6-0.2c0.1,0.3,0.2,0.6,0.4,0.9L80.8,73.1z M80.1,71
		C80,70.7,80,70.3,80,70l0.6-0.1c0,0.3,0.1,0.7,0.1,1L80.1,71z"/>
	<path d="M91.3,78.3c-0.1-0.1-0.1-0.2-0.1-0.3l-0.3,0l0-0.6l0.5,0l0.3,0.2c0.1,0.2,0.1,0.3,0.2,0.5L91.3,78.3z"/>
	<path d="M99.7,83.4L99.7,83.4l0-0.6l0,0l1.1,0l0,0.6L99.7,83.4z M101.9,83.4l0-0.6l1.1,0l0,0.6L101.9,83.4z M104.1,83.4l0-0.6
		l1.1,0l0,0.6L104.1,83.4z M106.3,83.3l0-0.6l1.1,0l0,0.6L106.3,83.3z M108.5,83.3l0-0.6l1.1,0l0,0.6L108.5,83.3z M110.7,83.3l0-0.6
		l1.1,0l0,0.6L110.7,83.3z M112.9,83.3l0-0.6l1.1,0l0,0.6L112.9,83.3z M115.1,83.3l0-0.6l1.1,0l0,0.6L115.1,83.3z M117.3,83.3l0-0.6
		l1.1,0l0,0.6L117.3,83.3z M119.5,83.3l0-0.6l1.1,0l0,0.6L119.5,83.3z M121.7,83.3l0-0.6l1.1,0l0,0.6L121.7,83.3z M123.9,83.3l0-0.6
		l1.1,0l0,0.6L123.9,83.3z M126.1,83.3l0-0.6l1.1,0l0,0.6L126.1,83.3z M128.3,83.3l0-0.6l1.1,0l0,0.6L128.3,83.3z M130.5,83.3l0-0.6
		l1.1,0l0,0.6L130.5,83.3z M132.7,83.3l0-0.6l1.1,0l0,0.6L132.7,83.3z M134.9,83.3l0-0.6l1.1,0l0,0.6L134.9,83.3z M137.1,83.3l0-0.6
		l1.1,0l0,0.6L137.1,83.3z M139.3,83.3l0-0.6l1.1,0v0.6L139.3,83.3z M98.6,83.3c-0.4,0-0.8-0.1-1.1-0.2l0.2-0.6
		c0.3,0.1,0.7,0.1,1,0.2L98.6,83.3z M141.5,83.2l-0.1-0.6c0.4,0,0.7-0.1,1-0.2l0.2,0.6C142.3,83.1,141.9,83.2,141.5,83.2z
		 M96.3,82.8c-0.4-0.1-0.7-0.3-1-0.5l0.3-0.6c0.3,0.2,0.6,0.3,1,0.4L96.3,82.8z M143.7,82.7l-0.2-0.6c0.3-0.1,0.7-0.3,1-0.4l0.3,0.6
		C144.4,82.4,144.1,82.6,143.7,82.7z M94.3,81.7c-0.3-0.2-0.6-0.4-0.9-0.7l0.4-0.5c0.3,0.2,0.5,0.4,0.8,0.6L94.3,81.7z M145.7,81.7
		l-0.4-0.5c0.3-0.2,0.6-0.4,0.8-0.6l0.4,0.5C146.4,81.2,146.1,81.5,145.7,81.7z M92.6,80.2c-0.3-0.3-0.5-0.6-0.7-0.9l0.5-0.4
		c0.2,0.3,0.4,0.6,0.6,0.8L92.6,80.2z M147.4,80.2l-0.5-0.4c0.2-0.3,0.5-0.5,0.6-0.8l0.5,0.4C147.9,79.6,147.7,79.9,147.4,80.2z"/>
	<path d="M148.7,78.3l-0.6-0.3c0.1-0.2,0.1-0.3,0.2-0.5l0.3-0.2l0.5,0l0,0.6l-0.3,0C148.8,78.1,148.8,78.2,148.7,78.3z"/>
	<path d="M150.2,78l0-0.6l0.6,0c0.1,0,0.3,0,0.4,0l0,0.6c-0.1,0-0.3,0-0.5,0L150.2,78z M152.4,77.8l-0.1-0.6c0.3-0.1,0.7-0.1,1-0.2
		l0.2,0.6C153.1,77.7,152.7,77.8,152.4,77.8z M154.5,77.3l-0.2-0.6c0.3-0.1,0.6-0.3,0.9-0.4l0.3,0.6C155.1,77,154.8,77.1,154.5,77.3
		z M156.4,76.2l-0.4-0.5c0.3-0.2,0.5-0.4,0.8-0.6l0.4,0.5C157,75.8,156.7,76,156.4,76.2z M158,74.8l-0.5-0.4
		c0.2-0.3,0.4-0.5,0.6-0.8l0.5,0.4C158.4,74.2,158.2,74.5,158,74.8z M159.2,73l-0.6-0.3c0.2-0.3,0.3-0.6,0.4-0.9l0.6,0.2
		C159.5,72.3,159.4,72.7,159.2,73z M159.9,71l-0.6-0.1c0.1-0.3,0.1-0.7,0.1-1l0.6,0.1C160.1,70.2,160,70.6,159.9,71z"/>
	<path d="M159.5,68.8l0-0.5l0.2-0.3c0.2,0,0.3-0.1,0.5-0.1l0.2,0.6c-0.1,0-0.2,0.1-0.3,0.1l0,0.3L159.5,68.8z"/>
	<path d="M161.4,68.1l-0.2-0.6c0.3-0.1,0.6-0.3,1-0.4l0.3,0.6C162.1,67.8,161.8,67.9,161.4,68.1z M163.4,67.1l-0.3-0.6
		c0.3-0.2,0.6-0.4,0.9-0.6l0.4,0.5C164,66.7,163.7,66.9,163.4,67.1z M165.2,65.8l-0.4-0.5c0.3-0.2,0.5-0.4,0.8-0.7l0.4,0.5
		C165.7,65.4,165.5,65.6,165.2,65.8z M166.8,64.4l-0.5-0.5c0.2-0.2,0.5-0.5,0.7-0.8l0.5,0.4C167.3,63.8,167,64.1,166.8,64.4z
		 M168.2,62.7l-0.5-0.4c0.2-0.3,0.4-0.5,0.7-0.8l0.5,0.4C168.7,62.2,168.4,62.5,168.2,62.7z M169.5,61l-0.5-0.4
		c0.2-0.3,0.4-0.6,0.6-0.9l0.5,0.4C170,60.5,169.8,60.8,169.5,61z M170.8,59.3l-0.5-0.4l0.6-0.9l0.5,0.4L170.8,59.3z M172.1,57.6
		l-0.5-0.4c0.2-0.3,0.4-0.6,0.6-0.9l0.5,0.4C172.5,57,172.3,57.3,172.1,57.6z M173.4,55.9l-0.5-0.4c0.2-0.3,0.5-0.6,0.7-0.8l0.5,0.4
		C173.8,55.3,173.6,55.6,173.4,55.9z M174.8,54.3l-0.5-0.4c0.3-0.3,0.5-0.5,0.8-0.8l0.5,0.5C175.2,53.8,175,54,174.8,54.3z
		 M176.3,52.8l-0.4-0.5c0.3-0.2,0.6-0.5,0.8-0.7l0.4,0.5C176.8,52.4,176.5,52.6,176.3,52.8z M177.9,51.5l-0.4-0.5
		c0.3-0.2,0.6-0.4,0.9-0.6l0.3,0.6C178.5,51.1,178.2,51.3,177.9,51.5z"/>
	<path d="M178.5,49.5c-0.3-0.2-0.6-0.4-0.9-0.6l0.4-0.5c0.3,0.2,0.6,0.4,0.9,0.6L178.5,49.5z M176.7,48.2c-0.3-0.2-0.6-0.5-0.8-0.7
		l0.4-0.5c0.3,0.2,0.5,0.5,0.8,0.7L176.7,48.2z M175,46.8c-0.3-0.2-0.5-0.5-0.8-0.8l0.5-0.4c0.2,0.3,0.5,0.5,0.7,0.8L175,46.8z
		 M173.6,45.2c-0.2-0.3-0.5-0.5-0.7-0.8l0.5-0.4c0.2,0.3,0.5,0.6,0.7,0.8L173.6,45.2z M172.2,43.6c-0.2-0.3-0.4-0.6-0.7-0.9l0.5-0.4
		c0.2,0.3,0.4,0.6,0.6,0.8L172.2,43.6z M170.9,41.8c-0.2-0.2-0.4-0.5-0.5-0.7l-0.1-0.1l0.5-0.4l0.1,0.1c0.2,0.2,0.4,0.5,0.5,0.7
		L170.9,41.8z M169.6,40.1c-0.2-0.3-0.4-0.6-0.6-0.9l0.5-0.4c0.2,0.3,0.4,0.6,0.6,0.9L169.6,40.1z M168.4,38.4
		c-0.2-0.3-0.4-0.6-0.7-0.8l0.5-0.4c0.2,0.3,0.5,0.6,0.7,0.8L168.4,38.4z M167,36.8c-0.2-0.3-0.5-0.5-0.7-0.8l0.5-0.5
		c0.2,0.3,0.5,0.5,0.7,0.8L167,36.8z M165.5,35.3c-0.3-0.2-0.5-0.5-0.8-0.7l0.4-0.5c0.3,0.2,0.5,0.5,0.8,0.7L165.5,35.3z
		 M163.9,33.9c-0.3-0.2-0.6-0.4-0.9-0.6l0.3-0.6c0.3,0.2,0.6,0.4,0.9,0.6L163.9,33.9z M162.1,32.9c-0.3-0.2-0.6-0.3-1-0.4l0.2-0.6
		c0.3,0.1,0.7,0.3,1,0.4L162.1,32.9z"/>
	<path d="M160.2,32.1c-0.2,0-0.3-0.1-0.5-0.1l-0.2-0.3l0-0.5l0.6,0l0,0.3c0.1,0,0.2,0.1,0.3,0.1L160.2,32.1z"/>
	<path d="M159.4,30.1c0-0.3-0.1-0.7-0.1-1l0.6-0.1c0.1,0.4,0.1,0.7,0.2,1.1L159.4,30.1z M159,28.1c-0.1-0.3-0.2-0.6-0.4-0.9l0.6-0.3
		c0.2,0.3,0.3,0.7,0.4,1L159,28.1z M158.1,26.4c-0.2-0.3-0.4-0.5-0.6-0.8l0.5-0.4c0.2,0.3,0.5,0.6,0.7,0.9L158.1,26.4z M156.7,24.8
		c-0.2-0.2-0.5-0.4-0.8-0.6l0.4-0.5c0.3,0.2,0.6,0.4,0.9,0.7L156.7,24.8z M155.1,23.7c-0.3-0.2-0.6-0.3-0.9-0.4l0.2-0.6
		c0.3,0.1,0.7,0.3,1,0.5L155.1,23.7z M153.2,22.9c-0.3-0.1-0.7-0.2-1-0.2l0.1-0.6c0.4,0.1,0.7,0.1,1.1,0.2L153.2,22.9z M151.2,22.6
		c-0.1,0-0.3,0-0.4,0l-0.6,0l0-0.6l0.6,0c0.2,0,0.3,0,0.5,0L151.2,22.6z"/>
	<path d="M148.6,22.6l-0.3-0.2c-0.1-0.2-0.1-0.3-0.2-0.5l0.6-0.3c0.1,0.1,0.1,0.2,0.1,0.3l0.3,0l0,0.6L148.6,22.6z"/>
	<path d="M92.4,21.1l-0.5-0.4c0.2-0.3,0.4-0.6,0.7-0.9l0.5,0.4C92.8,20.5,92.6,20.8,92.4,21.1z M147.5,21c-0.2-0.3-0.4-0.6-0.6-0.8
		l0.5-0.4c0.3,0.3,0.5,0.6,0.7,0.9L147.5,21z M93.8,19.5L93.4,19c0.3-0.2,0.6-0.5,0.9-0.7l0.4,0.5C94.3,19.1,94.1,19.3,93.8,19.5z
		 M146.1,19.5c-0.3-0.2-0.5-0.4-0.8-0.6l0.4-0.5c0.3,0.2,0.6,0.4,0.9,0.7L146.1,19.5z M95.5,18.3l-0.3-0.6c0.3-0.2,0.7-0.3,1-0.5
		l0.2,0.6C96.2,18,95.9,18.2,95.5,18.3z M144.4,18.3c-0.3-0.2-0.6-0.3-1-0.4l0.2-0.6c0.4,0.1,0.7,0.3,1,0.5L144.4,18.3z M97.5,17.6
		L97.4,17c0.4-0.1,0.7-0.2,1.1-0.2l0.1,0.6C98.2,17.4,97.9,17.5,97.5,17.6z M142.4,17.5c-0.3-0.1-0.7-0.1-1-0.2l0.1-0.6
		c0.4,0,0.8,0.1,1.1,0.2L142.4,17.5z M99.6,17.3l0-0.6l1.1,0l0,0.6L99.6,17.3z M101.8,17.3l0-0.6l1.1,0l0,0.6L101.8,17.3z M104,17.3
		l0-0.6l1.1,0l0,0.6L104,17.3z M106.2,17.3l0-0.6l1.1,0l0,0.6L106.2,17.3z M108.4,17.3l0-0.6l1.1,0l0,0.6L108.4,17.3z M110.6,17.3
		l0-0.6l1.1,0l0,0.6L110.6,17.3z M112.8,17.3l0-0.6l1.1,0l0,0.6L112.8,17.3z M115,17.3l0-0.6l1.1,0l0,0.6L115,17.3z M117.2,17.3
		l0-0.6l1.1,0l0,0.6L117.2,17.3z M119.4,17.3l0-0.6l1.1,0l0,0.6L119.4,17.3z M121.6,17.3l0-0.6l1.1,0l0,0.6L121.6,17.3z M123.8,17.3
		l0-0.6l1.1,0l0,0.6L123.8,17.3z M126,17.3l0-0.6l1.1,0l0,0.6L126,17.3z M128.2,17.3l0-0.6l1.1,0l0,0.6L128.2,17.3z M130.4,17.3
		l0-0.6l1.1,0l0,0.6L130.4,17.3z M132.6,17.3l0-0.6l1.1,0l0,0.6L132.6,17.3z M134.8,17.3l0-0.6l1.1,0l0,0.6L134.8,17.3z M137,17.3
		l0-0.6l1.1,0l0,0.6L137,17.3z M139.2,17.3l0-0.6l1.1,0l0,0v0.6L139.2,17.3z"/>
	<path d="M96.7,67c0.3-0.2,0.8-0.4,1.4-0.5c0.4-0.1,0.9-0.1,1.4-0.1h0.3c0.3,0,0.7,0.1,1,0.3c0.3,0.2,0.5,0.5,0.6,0.8
		c0,0.4-0.2,0.7-0.7,1c-0.2,0.1-0.5,0.2-0.7,0.3l-0.8,0.1h-1.1c-0.3,0-0.6-0.1-1.1-0.2c-0.4,0.4-0.5,0.9-0.5,1.5
		c0,0.2,0.1,0.5,0.2,0.7c0.2,0.4,0.6,0.7,1.1,0.9c0.3,0.1,0.6,0.1,0.8,0.1c1.4,0,2.6-0.6,3.6-1.7c0-2.5,0.2-4.4,0.6-5.5H91.2v-0.8
		h11.9l0.4-0.8c0.2-0.3,0.3-0.5,0.5-0.7c0.1-0.2,0.3-0.3,0.5-0.4c0.2-0.1,0.4-0.2,0.6-0.2c0.1,0,0.2,0.1,0.3,0.2
		c0.3,0.2,0.5,0.6,0.5,1.1l0.1,0.8h0.9v0.8h-0.9c-0.4,2.3-1.2,3.9-2.3,4.9c0,0.5,0,1,0.1,1.5c0.1,0.5,0.2,0.8,0.3,1.1l0.4,1
		c0.2,0.3,0.4,0.6,0.6,0.8l-2.2,1.1c-0.1-0.1-0.2-0.4-0.3-0.7l-0.2-0.9l-0.1-1.1l0-1.2c-1.2,1.4-2.8,2.1-4.6,2.1
		c-0.9,0-1.7-0.3-2.3-0.8c-0.4-0.3-0.6-0.6-0.8-1c-0.2-0.3-0.2-0.7-0.2-1.2c0-0.9,0.3-1.6,0.8-2.1l-0.8-0.1l-1-0.1
		c-0.2,0-0.5,0-0.7,0.1c-0.2,0.1-0.5,0.3-0.7,0.5l-0.4-0.4c0.2-0.5,0.5-0.8,1.1-1.1c0.5-0.3,1.2-0.4,1.9-0.4h0.4
		C95.6,66.8,96.3,66.8,96.7,67z M100.5,67.9c0.1,0,0.2-0.1,0.2-0.2l-0.1-0.2l-0.2-0.1l-0.3-0.1l-0.3,0c-0.6,0-1.2,0.1-1.6,0.4
		l0.4,0.1l0.4,0.1c0.2,0,0.3,0,0.4,0l0.5,0C100.3,67.9,100.5,67.9,100.5,67.9z M104,64.6l-0.3,1.8c-0.1,0.4-0.1,1-0.1,1.9
		c0.2-0.2,0.4-0.4,0.6-0.7l0.5-0.9c0.1-0.3,0.2-0.6,0.3-1c0.1-0.4,0.1-0.8,0.1-1.2H104z M104.7,62.7l-0.1,0.2l-0.2,0.4l-0.1,0.5
		l0.8,0l0-0.3l0-0.2l0-0.2c0-0.3-0.1-0.4-0.2-0.4L104.7,62.7z"/>
	<path d="M106.1,59.4l1,1.1l1,0.8c0.5,0.4,1,0.6,1.3,0.6c0.1,0,0.2,0,0.3,0c-1-1.8-2.1-3.1-3.3-3.8l2.5-0.7c0.6,0.5,1.3,1.2,1.9,2.2
		l0.4,0.7l0.6,0.6l0.7,0.6l0.8,0.5l-0.8,0.6h-1.9c-0.1,0-0.2-0.1-0.2-0.1l-0.3-0.4l-0.7,0.5h-1.8c-0.4,0-0.8-0.2-1.3-0.6
		c-0.3-0.2-0.9-0.7-1.7-1.5l-0.4-0.4l-0.5-0.4l-0.9-0.6l-0.8-0.4c-0.2-0.1-0.5-0.2-0.8-0.2l2.5-1.1
		C104.5,57.9,105.3,58.5,106.1,59.4z M108.6,63.8l0.2-0.6l2.1-0.4l-0.3,1.1h1.7v0.8h-1.9c-0.1,0.4-0.2,1-0.3,1.8l-0.1,2.2
		c0,0.8,0,1.7,0.2,2.7c0.1,0.8,0.3,1.6,0.6,2.3l-2.1,1.3c-0.2-0.6-0.4-1.4-0.5-2.4c0-0.4,0-1-0.1-1.9c-0.1-0.8-0.1-1.5-0.1-1.9v-1.1
		l0.1-1l0.1-1l0.1-1h-1.9v-0.8H108.6z"/>
	<path d="M113.7,63.8l-0.8,0.8h-0.6v-0.8H113.7z M116.2,67.5c0.7,0.1,1.5,0.4,2.4,1.1c0.4,0.3,0.7,0.6,1.1,0.9
		c0.8-0.5,1.3-1.2,1.5-2c0.1-0.4,0.1-0.7,0.1-0.9c0-0.7-0.3-1.4-1-1.9c-0.7-0.5-1.6-0.8-2.6-0.8c-0.5,0-1,0.1-1.4,0.2
		c-0.1,0-0.3,0.1-0.4,0.2c-0.6,0.3-1.1,0.7-1.5,1.2l-0.8-0.5c1.1-1.5,3-2.3,5.5-2.3c1.2,0,2.2,0.3,3.1,1c0.9,0.7,1.3,1.5,1.3,2.5
		c0,0.6-0.1,1.2-0.4,1.7c-0.4,0.8-1,1.5-1.8,2c-0.2,0.1-0.4,0.3-0.7,0.4c1.4,1.2,2.4,2.8,2.9,4.9l-2.5,1.2c0-2.2-0.6-4.1-1.9-5.6
		l-0.3,0.1h-0.5h-0.7h-1c-1.1,0-2-0.2-2.7-0.5c-0.7-0.3-1.1-0.8-1.1-1.4c0-0.3,0.1-0.5,0.2-0.6c0.2-0.4,0.6-0.7,1.3-0.9
		c0.2-0.1,0.5-0.1,0.9-0.1C115.5,67.4,115.9,67.4,116.2,67.5z M117.4,70.1c0.4-0.1,0.7-0.1,0.9-0.2c-0.5-0.5-1-1-1.6-1.3l-0.9-0.4
		c-0.2-0.1-0.5-0.1-0.8-0.1c-0.3,0-0.5,0-0.6,0.1l-0.5,0.2c-0.2,0.2-0.4,0.4-0.4,0.7c0,0.1,0.1,0.2,0.2,0.4c0.1,0.1,0.3,0.2,0.6,0.3
		l0.9,0.2l1.1,0.1H117.4z M124.7,63.8v0.8h-1l-0.4-0.8H124.7z"/>
	<path d="M126.4,63.8l0.2-0.6l2.1-0.4l-0.3,1.1h1.7v0.8h-1.9c-0.1,0.4-0.2,1-0.3,1.8l-0.1,2.2c0,0.8,0,1.7,0.2,2.7
		c0.1,0.8,0.3,1.6,0.6,2.3l-2.1,1.3c-0.2-0.6-0.4-1.4-0.5-2.4c0-0.4,0-1-0.1-1.9c-0.1-0.8-0.1-1.5-0.1-1.9v-1.1l0.1-1l0.1-1l0.1-1
		h-1.9v-0.8H126.4z"/>
	<path d="M132.3,70l-0.5-0.4c-0.1-0.1-0.2-0.3-0.4-0.5c0-0.1-0.1-0.3-0.1-0.5c0-0.6,0.5-1.1,1.4-1.6c0.6-0.3,1.4-0.5,2.4-0.6
		c0.2,0,0.5,0,1,0l1.3-0.1c0.9,0,1.5-0.2,1.8-0.5c0.2-0.1,0.3-0.2,0.3-0.4l0-0.2c0,0-0.1-0.1-0.1-0.2l-0.2-0.2l-0.3-0.2h-8.8v-0.8
		h13.4v0.8h-1.8c0.1,0.1,0.1,0.2,0.1,0.3l0,0.5c0,0.5-0.4,0.9-1.2,1.3c-0.5,0.2-1.2,0.4-1.9,0.4c-0.6,0-1.3,0.1-1.9,0.1
		c-0.3,0-0.5,0-0.7,0.1c-1,0.1-1.7,0.3-2.1,0.7c-0.2,0.2-0.3,0.3-0.3,0.5c0,0.3,0.2,0.6,0.5,0.7l0.6,0.2l0.7,0.1l0.5,0l1.7-0.3
		l0.6-0.1c1.1,0,2,0.3,2.7,1c0.7,0.7,1.1,1.5,1.1,2.4c0,0.7-0.2,1.4-0.7,2c-0.5,0.5-1,0.9-1.8,1.2c-0.5,0.2-1,0.3-1.5,0.3l-0.8-0.8
		c0.7,0,1.3-0.2,1.8-0.7c0.5-0.5,0.8-1.1,0.8-1.8c0-0.5-0.1-0.9-0.4-1.3c-0.3-0.4-0.6-0.7-1.1-0.8c-0.4-0.1-0.7-0.2-1-0.2h-0.6h-0.4
		c-0.1,0-0.2,0.1-0.3,0.1l-1.4,0.2l-0.7,0.1c-0.1,0.1-0.3,0.2-0.6,0.5c-0.2,0.2-0.3,0.4-0.5,0.6l-0.3,0.8l-0.1,0.8
		c0,1,0.4,1.9,1.1,2.6c0.6,0.6,1.5,1.1,2.5,1.5c0.8,0.3,1.6,0.4,2.3,0.3h1l0.4-0.1l0.3-0.1l-0.2,1l-0.3,0.1c-0.2,0-0.3,0-0.4,0H139
		h-0.4h-0.9c-2,0-3.6-0.5-5-1.4c-1.4-0.9-2.1-2-2.1-3.3c0-1.1,0.5-2.1,1.4-2.9c0.3-0.3,0.6-0.5,1-0.7
		C132.7,70.2,132.5,70.1,132.3,70z"/>
	<path d="M145,63.8l0.2-0.6l2.1-0.4l-0.3,1.1h1.7v0.8h-1.9c-0.1,0.4-0.2,1-0.3,1.8l-0.1,2.2c0,0.8,0,1.7,0.2,2.7
		c0.1,0.8,0.3,1.6,0.6,2.3l-2.1,1.3c-0.2-0.6-0.4-1.4-0.5-2.4c0-0.4,0-1-0.1-1.9c-0.1-0.8-0.1-1.5-0.1-1.9v-1.1l0.1-1l0.1-1l0.1-1
		h-1.9v-0.8H145z"/>
	<path d="M107.6,26.3c0.4,0.1,0.7,0.3,0.9,0.5c0.2,0.2,0.3,0.4,0.3,0.6l0,0.3l-0.1,0.2c0,0.1-0.2,0.3-0.3,0.4l-1.1-0.5
		c0.1,0,0.1-0.1,0.2-0.1c0,0,0.1-0.1,0.1-0.2l0.1-0.2l0-0.2c0-0.3-0.3-0.5-0.8-0.6c-0.6-0.2-1.3-0.2-2.2-0.2c-0.9,0-1.7,0.1-2.3,0.4
		c-0.6,0.3-0.9,0.6-0.9,0.9c0,0.2,0.1,0.4,0.2,0.6c0.1,0.2,0.3,0.3,0.5,0.3h0.9v0.4h-0.9c-0.1,0.6-0.2,1.3-0.2,2.2
		c0,1.1,0.1,1.8,0.4,2.3l-1,0.6c-0.1-0.3-0.2-0.7-0.3-1.2c0-0.2,0-0.4,0-0.6c0-0.7-0.1-1.1-0.1-1.2v-0.5l0-0.5l0-0.5l0.1-0.5h-0.9
		v-0.4h0.8c-0.3,0-0.5-0.2-0.6-0.5l0-0.3c0-0.5,0.4-0.9,1.3-1.2c0.9-0.3,2-0.5,3.1-0.5h0.2C106,25.9,106.9,26,107.6,26.3z"/>
	<path d="M106.9,29.5c0.3-0.1,0.4-0.2,0.4-0.4c0,0,0-0.1,0-0.1c0,0,0-0.1-0.1-0.1c0,0-0.1-0.1-0.1-0.1l-0.1,0h-4v-0.4h6.3v0.4h-0.9
		c0,0,0.1,0.1,0.1,0.1l0,0.2c0,0.3-0.1,0.5-0.4,0.6c-0.3,0.2-0.7,0.3-1.2,0.3c-0.7,0-1.2,0.2-1.7,0.5c-0.5,0.3-0.7,0.7-0.7,1.2
		c0,0.5,0.2,0.8,0.7,1.1c0.1,0,0.2,0.1,0.3,0.1c0.2,0.1,0.4,0.1,0.7,0.1h0.3l0-0.3v-0.2c0-0.3,0.1-0.6,0.2-0.8
		c0.2-0.3,0.4-0.5,0.6-0.6c0.2-0.1,0.3-0.1,0.5-0.1c0.2,0,0.4,0.1,0.6,0.2c0.2,0.2,0.2,0.4,0.2,0.6c0,0.4-0.1,0.7-0.4,1
		c-0.3,0.3-0.7,0.5-1.1,0.6c0.1,0.2,0.3,0.4,0.5,0.5c0.2,0.1,0.5,0.2,0.8,0.3l-0.6,0.9c-0.1-0.1-0.2-0.2-0.4-0.3
		c-0.1-0.1-0.2-0.2-0.4-0.4l-0.3-0.4c-0.1-0.2-0.2-0.3-0.2-0.5l-0.2,0.1l-0.2,0c-0.1,0-0.1,0-0.2,0h-0.2c-0.7,0-1.3-0.2-1.7-0.6
		c-0.3-0.2-0.4-0.4-0.6-0.6c-0.1-0.2-0.2-0.5-0.2-0.7c0-0.4,0.2-0.8,0.5-1.2c0.3-0.3,0.7-0.5,1.1-0.7c0.3-0.1,0.6-0.1,1-0.2
		c0.1,0,0.2,0,0.3,0C106.6,29.6,106.8,29.6,106.9,29.5z M107.4,32.7l0.4-0.3c0.2-0.2,0.3-0.4,0.3-0.6l0-0.2l-0.1-0.1
		c0,0-0.1-0.1-0.1-0.1l-0.1,0c-0.3,0-0.5,0.2-0.6,0.5c-0.1,0.2-0.2,0.4-0.1,0.7l0,0.2l0,0.2C107.2,32.9,107.3,32.8,107.4,32.7z"/>
	<path d="M115.2,28.4v0.4h-5.8v-0.4H115.2z M113.5,29.9c0.4,0.2,0.7,0.5,1,0.8l0.7-0.3v0.5c-0.7,0.2-1.3,0.6-1.8,1.1l-0.4-0.2
		l0.6-0.5l0.1-0.1c0-0.2-0.1-0.3-0.2-0.4c-0.1-0.3-0.4-0.5-0.7-0.6c-0.2-0.1-0.3-0.1-0.5-0.1c-0.4,0-0.7,0.1-1,0.4
		c-0.3,0.3-0.4,0.7-0.4,1.1c0,0.2,0,0.5,0.1,0.6c0.2,0.4,0.5,0.7,0.9,0.9c0.2,0.1,0.4,0.1,0.7,0.1h0.3l0.2-0.1l-0.2,0.4l-0.1,0l0,0
		l-0.1,0h0h-0.1h-0.2c-0.7,0-1.3-0.2-1.8-0.6c-0.5-0.4-0.7-0.9-0.7-1.4c0-0.6,0.2-1,0.7-1.4c0.4-0.4,1-0.6,1.7-0.6
		c0.2,0,0.3,0,0.4,0C112.9,29.6,113.2,29.7,113.5,29.9z"/>
	<path d="M119.2,29.9c0.4,0.2,0.7,0.5,0.9,0.8l0.2-0.1l0.2-0.1l0.2-0.1l0.1-0.1l0.1-1c0-0.3,0.1-0.5,0.1-0.6H115v-0.4h6.3l0.2-0.4
		c0.1-0.1,0.1-0.2,0.2-0.3c0.1-0.1,0.1-0.2,0.3-0.2c0.1,0,0.2-0.1,0.3-0.1c0.1,0,0.1,0,0.2,0.1c0.1,0,0.1,0.1,0.2,0.2l0.1,0.3l0,0.4
		h0.4v0.4h-0.4c-0.2,0.7-0.5,1.3-1.1,1.6c0,1.3,0.2,2.3,0.7,2.9l-1,0.6c-0.1-0.2-0.2-0.6-0.3-1.1c-0.1-0.5-0.1-1.2-0.1-1.9
		c-0.6,0.2-1.3,0.5-1.8,1.1l-0.4-0.2l0.5-0.4c0.1-0.1,0.2-0.2,0.2-0.2c0-0.3-0.2-0.6-0.5-0.8c-0.3-0.2-0.6-0.3-0.9-0.3
		c-0.4,0-0.8,0.1-1,0.4c-0.3,0.3-0.4,0.7-0.4,1.1c0,0.2,0,0.5,0.1,0.6c0.2,0.4,0.5,0.7,0.9,0.9c0.2,0.1,0.4,0.1,0.7,0.1h0.3l0.2,0
		l-0.2,0.4l-0.1,0l0,0l-0.1,0h0h-0.1h-0.2c-0.7,0-1.3-0.2-1.8-0.6c-0.5-0.4-0.7-0.9-0.7-1.4c0-0.6,0.2-1,0.7-1.4
		c0.4-0.4,1-0.6,1.7-0.6c0.2,0,0.3,0,0.4,0C118.6,29.6,118.9,29.7,119.2,29.9z M121.7,28.8l-0.1,0.6l0,0.6c0.4-0.3,0.6-0.6,0.7-1.1
		H121.7z M121.8,28.4l0.6,0l0-0.2l0-0.2c0,0,0-0.1,0-0.1l-0.1,0C122.1,27.9,121.9,28,121.8,28.4z"/>
	<path d="M124.5,28.1c0.2-0.2,0.3-0.4,0.3-0.7c0-0.5-0.3-0.9-1-1.1c-0.2-0.1-0.4-0.1-0.6-0.1c-0.4,0-0.7,0.1-0.9,0.3
		c-0.3,0.2-0.4,0.4-0.4,0.6l0,0.2l0.1,0.2l0.1,0.1l0.2,0.1l-1,0.6c-0.1,0-0.1-0.1-0.2-0.1l-0.1-0.2l-0.1-0.3l0-0.3
		c0-0.4,0.3-0.8,0.8-1.1c0.5-0.3,1.1-0.5,1.8-0.5c0.4,0,0.7,0,1.1,0.1c0.6,0.1,1,0.4,1.3,0.8c0.1,0.2,0.2,0.4,0.2,0.6
		c0,0.2-0.1,0.4-0.3,0.7l-0.1,0.1c-0.1,0.1-0.3,0.2-0.5,0.2h0.8v0.4h-1l-0.1,0.7l0,1c0,0.6,0,1.2,0.1,1.8c0.1,0.5,0.2,0.8,0.3,1
		l-1.1,0.6c0-0.1-0.1-0.2-0.1-0.3l-0.1-0.5l-0.1-0.7v-0.9c0,0,0-0.6,0-1.7c0-0.2,0-0.4,0-0.4c0-0.2,0-0.3,0.1-0.4h-1v-0.4h0.8
		C124,28.4,124.3,28.3,124.5,28.1z"/>
	<path d="M131.6,29.1h0.2c0.2,0,0.4,0,0.6,0.1c0.2,0.1,0.4,0.2,0.5,0.4l-0.8,0.5c0-0.2-0.1-0.3-0.3-0.5c-0.2-0.1-0.4-0.2-0.6-0.2
		c-0.3,0-0.7,0.1-1.1,0.4c-0.3,0.3-0.5,0.6-0.5,0.9c0,0.2,0.1,0.4,0.3,0.6c0.1,0.1,0.2,0.1,0.4,0.2c0.1,0,0.3,0.1,0.5,0.1
		c0.6,0,1.1-0.2,1.7-0.7c0.2-0.2,0.4-0.4,0.5-0.5c0-0.8,0.1-1.4,0.2-1.8h-4.8v-0.4h4.9l0,0l0-0.1l0,0l0-0.1l0.9-0.2l-0.1,0.2
		l-0.1,0.3h3.5v0.4H134c0,0.2-0.1,0.4-0.1,0.6l0,0.7c0.5-0.5,0.9-0.7,1.4-0.7c0.5,0,0.9,0.1,1.2,0.4c0.4,0.3,0.5,0.6,0.5,1
		c0,0.3,0,0.5-0.1,0.8c-0.3,0.8-0.8,1.3-1.7,1.7l-0.6-0.8c0.2,0,0.4-0.1,0.6-0.2c0.6-0.3,0.9-0.8,0.9-1.5c0-0.1,0-0.2-0.1-0.3
		c-0.1-0.2-0.2-0.4-0.5-0.5c-0.1-0.1-0.3-0.1-0.4-0.1c-0.2,0-0.5,0.1-0.7,0.2c-0.2,0.1-0.5,0.3-0.7,0.6c0,1.1,0.1,1.9,0.4,2.2
		l-0.9,0.3c-0.2-0.3-0.3-1-0.3-2c-0.4,0.5-0.9,0.9-1.4,1.2c-0.5,0.3-1,0.4-1.5,0.4c-0.4,0-0.8-0.1-1-0.4c-0.3-0.3-0.4-0.5-0.4-0.9
		c0-0.2,0.1-0.5,0.3-0.7c0.3-0.4,0.7-0.8,1.2-1.1C130.6,29.3,131.1,29.1,131.6,29.1z"/>
	<path d="M138.2,28.3l0.1-0.3l0.9-0.2l-0.1,0.5h0.7v0.4H139c0,0.2-0.1,0.4-0.1,0.8l0,1c0,0.3,0,0.7,0.1,1.2c0.1,0.4,0.2,0.7,0.3,1
		l-0.9,0.6c-0.1-0.2-0.2-0.6-0.2-1.1c0-0.2,0-0.5,0-0.8c0-0.4,0-0.6,0-0.8V30l0-0.4l0-0.4l0.1-0.4h-0.8v-0.4H138.2z"/>
	<circle class="st1" cx="142.9" cy="30" r="0.6"/>
	<circle class="st1" cx="97" cy="30" r="0.6"/>
	<path d="M97.6,39.4h0.9c0,0-0.2,0.5-0.2,1.3h-0.5C97.8,40.7,97.8,39.9,97.6,39.4z"/>
	<path d="M116.5,55.7c0-0.1-0.1-0.1-0.2-0.2c-0.2-0.1-0.4-0.2-0.6-0.3c-0.8-0.3-1.3-1.2-1.4-2.1c-0.1-0.9,0-1.8,0-2.6
		c0-0.6,0-1.2,0.1-1.8c0.1-0.6,0.3-1.2,0.8-1.5c-0.3,0-0.6-0.3-0.7-0.6c-0.1-0.3-0.1-0.6-0.1-1c0-1.3,0-2.5,0-3.8
		c0-0.4,0-0.9,0.1-1.3c0.1-0.4,0.4-0.8,0.8-1c0.3-0.1,0.6-0.1,0.8-0.3c0.2-0.1,0.4-0.5,0.2-0.7c-0.1-0.1-0.3-0.1-0.4-0.1
		c-2.2-0.1-4.5-0.1-6.7-0.1c-0.3,0-0.6,0-0.7,0.3c-0.1,0.2,0.1,0.5,0.3,0.6c0.2,0.1,0.5,0.1,0.7,0.2c0.6,0.2,0.8,0.9,0.9,1.5
		c0.3,1.4,0.3,3,0,4.4c-0.6-1.5-2-2.7-3.6-3c-1.6-0.4-3.3,0.1-4.6,1.1c-0.2-0.8-0.3-1.6-0.1-2.4c0.2-0.8,0.7-1.5,1.5-1.8
		c0.2-0.1,0.4-0.1,0.5-0.2c0.1-0.1,0.2-0.4,0.1-0.5c-0.1-0.1-0.2-0.1-0.3-0.1c-2.1-0.1-4.2-0.1-6.3-0.1c-0.3,0-1.8,0.1-1.3,0.6
		c0.3,0.4,1,0.4,1.4,0.7c0.5,0.4,0.6,1.1,0.6,1.7c0,1.3,0.1,2.7,0.1,4c0,0.4,0,0.8-0.1,1.1c-0.1,0.4-0.4,0.7-0.8,0.7
		c0.5,0.1,0.7,0.7,0.8,1.2c0.2,1.6,0.1,3.3-0.1,5c-0.1,0.7-0.3,1.4-0.9,1.6c-0.2,0.1-0.5,0.1-0.7,0.1c-0.2,0.1-0.4,0.3-0.3,0.5
		c0.1,0.2,0.4,0.3,0.6,0.3c2.3,0.1,4.6,0.1,6.9-0.1c0.3,0,0.6-0.2,0.5-0.4c0-0.1-0.1-0.1-0.2-0.2c-0.5-0.3-1.2-0.5-1.6-1
		c-0.3-0.4-0.3-1-0.4-1.5c0-1.2,0-2.5,0-3.7c0-1.3,0-2.7,0.7-3.9c0.6-1,1.7-1.6,2.9-1.6c1.1,0,2.3,0.6,2.9,1.6
		c0.2,0.3,0.4,0.7,0.3,1.1c0,0.4-0.3,0.8-0.7,0.8c-0.4,0-0.7-0.2-1.1-0.3c-0.8-0.1-1.3,0.9-1.2,1.7c0.2,0.8,0.8,1.3,1.4,1.9
		c0.4,0.4,0.8,0.7,1.2,1.1c0.1,0.1,0.3,0.3,0.5,0.2c-0.3-0.2-0.1-0.7,0-1c0.4-0.7,1-1.4,1.6-2c-0.1,1.2,0.1,2.4,0,3.6
		s-0.6,2.5-1.8,2.9c-0.2,0.1-0.6,0.3-0.5,0.5c0.1,0.1,0.3,0.2,0.4,0.2c2.4,0,4.8,0,7.1,0c0.2,0,0.4,0,0.5-0.2
		C116.5,56,116.5,55.8,116.5,55.7z M100.7,54.6h-0.2h-0.5h-0.2c0,0,0.1-0.4,0.2-1.1V41.3c0-0.3-0.1-0.7-0.2-1h0.2v0h0.5v0h0.2
		c0,0-0.1,0.4-0.2,1.1v12.2C100.5,53.9,100.6,54.3,100.7,54.6z M112.9,54.6h-0.2h-0.5h-0.2c0,0,0.1-0.4,0.2-1.1V41.3
		c0-0.3-0.1-0.7-0.2-1h0.2v0h0.5v0h0.2c0,0-0.1,0.4-0.2,1.1v12.2C112.8,53.9,112.8,54.3,112.9,54.6z"/>
	<path d="M134.5,58.6c-0.8,0.4-1.8,0.4-2.4-0.2c-0.2-0.2-0.3-0.4-0.4-0.7c-1.2-2.7-2.3-5.5-3-8.4c-0.2-0.6-0.3-1.3,0-1.9
		c-0.5-0.1-0.7-0.7-0.8-1.1c-0.4-1.4-0.8-2.7-1.2-4.1c-0.2-0.6-0.3-1.2-0.2-1.8c0.1-0.6,0.6-1.2,1.3-1.1c-0.1-0.2-0.2-0.5-0.2-0.7
		c-2.2,0-4.5,0-6.7,0c-0.3,0-0.5,0-0.8,0.1c-0.2,0.1-0.4,0.4-0.2,0.7c0.6-0.1,1.1,0.4,1.2,0.9c0.1,0.5,0,1.1-0.2,1.7
		c-0.4,1.4-0.8,2.8-1.2,4.1c-0.2,0.6-0.4,1.2-1,1.4c0.4,0.2,0.4,0.9,0.2,1.3c-0.5,1.5-0.9,3.1-1.4,4.6c-0.2,0.8-0.6,1.7-1.4,2
		c-0.2,0.1-0.5,0.1-0.7,0.2c-0.2,0.1-0.3,0.2-0.1,0.4c0.3,0.3,0.8,0.4,1.1,0.4c1.6,0,3.1,0,4.7,0c0.1,0,0.2,0,0.3,0
		c0.2-0.1,0.1-0.5-0.1-0.7c-0.2-0.1-0.5-0.1-0.8-0.2c-0.5-0.2-0.9-0.7-0.9-1.3c0-0.6,0.2-1.1,0.6-1.5c0.8-1,2.2-1.4,3.5-1.1
		c1.2,0.3,2.3,1.4,2.5,2.7c0.1,0.4,0.1,0.9-0.2,1.3c-0.2,0.4-0.8,0.5-1.1,0.3c-0.2-0.2-0.3-0.4-0.6-0.6c-0.5-0.4-1.4,0-1.7,0.6
		c-0.4,0.8-0.2,1.9,0.4,2.5c0.2,0.2,0.4,0.4,0.5,0.6c0.1,0.2,0,0.4,0,0.6c0.1,0.3,0.4,0.6,0.8,0.5c-0.3-0.3,0.1-0.8,0.5-1.1
		c0.8-0.5,1.6-1,2.4-1.5c0.4,1.4,1.6,2.6,3,2.9c1.4,0.4,3-0.1,4.1-1.1C134.4,59,134.6,58.7,134.5,58.6z M123.9,49.8
		c-0.3-0.1-0.6-0.1-1-0.1h-0.2c-0.4,0-0.8,0.1-1.2,0.2c-0.4,0.1-0.7,0.2-1,0.3c0.3-1.4,0.6-2.7,1-3.9c0.4-1.2,0.8-2.6,1.1-3.9
		c0.1,0,0.2,0,0.2,0.1c0.2,0.7,0.3,1.3,0.5,2c0.2,0.7,0.3,1.3,0.5,2c0.2,0.6,0.4,1.3,0.6,1.9c0.2,0.6,0.4,1.3,0.5,1.9
		C124.7,50,124.3,49.9,123.9,49.8z M128.8,57.1c-0.2-0.4-0.3-0.8-0.6-1.1c-0.3-0.3-0.7-0.5-1.1-0.4c0.2-0.1,0.5-0.3,0.6-0.6
		c0.1-0.2,0-0.4-0.1-0.6c-1.2-4.1-2.4-8.2-3.5-12.2c-0.1-0.4-0.2-0.8-0.5-1.2c-0.1-0.2-0.3-0.3-0.4-0.4c-0.1-0.1-0.2-0.1-0.3-0.1
		c-0.1,0-0.2,0-0.3-0.1c0.1,0,0.3,0,0.5,0c0.2,0,0.3,0,0.5,0c0.3,0,0.6,0,1,0c0.1,1.7,0.6,3.4,1.2,5c0.6,1.8,1.1,3.6,1.6,5.4
		c0.7,2.4,1.4,4.8,2.1,7.2C129.2,57.8,129,57.4,128.8,57.1z"/>
	<path d="M148.5,58.6c-0.8,0.4-1.8,0.4-2.4-0.2c-0.2-0.2-0.3-0.4-0.4-0.7c-1.2-2.7-2.3-5.5-3-8.4c-0.2-0.6-0.3-1.3,0-1.9
		c-0.5-0.1-0.7-0.7-0.8-1.1c-0.4-1.4-0.8-2.7-1.2-4.1c-0.2-0.6-0.3-1.2-0.2-1.8c0.1-0.6,0.6-1.2,1.3-1.1c-0.1-0.2-0.2-0.5-0.2-0.7
		c-2.2,0-4.5,0-6.7,0c-0.3,0-0.5,0-0.8,0.1c-0.2,0.1-0.4,0.4-0.2,0.7c0.6-0.1,1.1,0.4,1.2,0.9c0.1,0.5,0,1.1-0.2,1.7
		c-0.4,1.4-0.8,2.8-1.2,4.1c-0.2,0.6-0.4,1.2-1,1.4c0.4,0.2,0.4,0.9,0.2,1.3c-0.5,1.5-0.9,3.1-1.4,4.6c-0.2,0.8-0.6,1.7-1.4,2
		c-0.2,0.1-0.5,0.1-0.7,0.2c-0.2,0.1-0.3,0.2-0.1,0.4c0.3,0.3,0.8,0.4,1.1,0.4c1.6,0,3.1,0,4.7,0c0.1,0,0.2,0,0.3,0
		c0.2-0.1,0.1-0.5-0.1-0.7c-0.2-0.1-0.5-0.1-0.8-0.2c-0.5-0.2-0.9-0.7-0.9-1.3c0-0.6,0.2-1.1,0.6-1.5c0.8-1,2.2-1.4,3.5-1.1
		c1.2,0.3,2.3,1.4,2.5,2.7c0.1,0.4,0.1,0.9-0.2,1.3c-0.2,0.4-0.8,0.5-1.1,0.3c-0.2-0.2-0.3-0.4-0.6-0.6c-0.5-0.4-1.4,0-1.7,0.6
		c-0.4,0.8-0.2,1.9,0.4,2.5c0.2,0.2,0.4,0.4,0.5,0.6c0.1,0.2,0,0.4,0,0.6c0.1,0.3,0.4,0.6,0.8,0.5c-0.3-0.3,0.1-0.8,0.5-1.1
		c0.8-0.5,1.6-1,2.4-1.5c0.4,1.4,1.6,2.6,3,2.9c1.4,0.4,3-0.1,4.1-1.1C148.5,59,148.6,58.7,148.5,58.6z M138,49.8
		c-0.3-0.1-0.6-0.1-1-0.1h-0.2c-0.4,0-0.8,0.1-1.2,0.2c-0.4,0.1-0.7,0.2-1,0.3c0.3-1.4,0.6-2.7,1-3.9c0.4-1.2,0.8-2.6,1.1-3.9
		c0.1,0,0.2,0,0.2,0.1c0.2,0.7,0.3,1.3,0.5,2c0.2,0.7,0.3,1.3,0.5,2c0.2,0.6,0.4,1.3,0.6,1.9c0.2,0.6,0.4,1.3,0.5,1.9
		C138.7,50,138.4,49.9,138,49.8z M142.8,57.1c-0.2-0.4-0.3-0.8-0.6-1.1c-0.3-0.3-0.7-0.5-1.1-0.4c0.2-0.1,0.5-0.3,0.6-0.6
		c0.1-0.2,0-0.4-0.1-0.6c-1.2-4.1-2.4-8.2-3.5-12.2c-0.1-0.4-0.2-0.8-0.5-1.2c-0.1-0.2-0.3-0.3-0.4-0.4c-0.1-0.1-0.2-0.1-0.3-0.1
		c-0.1,0-0.2,0-0.3-0.1c0.1,0,0.3,0,0.5,0c0.2,0,0.3,0,0.5,0c0.3,0,0.6,0,1,0c0.1,1.7,0.6,3.4,1.2,5c0.6,1.8,1.1,3.6,1.6,5.4
		c0.7,2.4,1.4,4.8,2.1,7.2C143.2,57.8,143,57.4,142.8,57.1z"/>
	<path d="M163.3,43.1c-0.2-0.9-0.4-1.9-0.5-2.9c-0.1-0.6,0-1.3,0.5-1.6c-0.8,0-1.5,0-2.3-0.1c-3.1-0.1-6.2-0.1-9.3-0.1
		c-1.5,0-3.1,0-4.6,0.1c-0.4,0-0.8,0-1.2,0c-0.2,0-0.7-0.1-0.6,0.3c0.1,0.3,0.2,0.5,0.2,0.8c0,0.3-0.1,0.6-0.1,0.9
		c-0.2,0.9-0.4,1.8-0.6,2.6c0,0.2-0.1,0.5,0.1,0.6c0.2,0.2,0.5,0.1,0.7-0.1c0.2-0.2,0.2-0.5,0.2-0.7c0.3-1.7,1.7-3.1,3.4-3.6
		c0.9-0.2,2-0.1,2.6,0.6c0.4,0.5,0.5,1.2,0.5,1.8c0.1,1.4,0,2.8-0.1,4.1c0,0.3,0,0.7-0.2,0.9c-0.1,0.3-0.4,0.5-0.8,0.5
		c0.4,0.1,0.8,0.4,0.9,0.9c0.1,0.4,0.1,0.9,0.1,1.3c0,1.1,0,2.1-0.1,3.2c0,0.7-0.1,1.6-0.6,2.1c-0.3,0.3-0.8,0.4-1.2,0.6
		c-0.1,0-0.3,0.1-0.3,0.2c-0.1,0.2,0,0.4,0.2,0.5c0.2,0.1,0.4,0.1,0.6,0.1c2.2,0,4.4,0,6.7,0c0.2,0,0.4,0,0.5-0.1
		c0.2-0.1,0.3-0.3,0.2-0.5c-0.1-0.2-0.3-0.2-0.5-0.2c-0.7-0.1-1.2-0.7-1.4-1.4c-0.2-0.7-0.2-1.4-0.2-2.1c0-0.9,0-1.9,0-2.8
		c0-0.7,0.1-1.6,0.8-1.8c-0.3,0-0.6-0.3-0.7-0.6s-0.1-0.6-0.1-1c0-0.8,0-1.6-0.1-2.3c-0.1-0.9-0.3-1.9,0.1-2.8
		c0.4-0.9,1.4-1.4,2.3-1.4c1,0,1.9,0.4,2.6,1.1c0.7,0.7,1.1,1.6,1.4,2.5c0.1,0.3,0.2,0.6,0.3,0.8c0.2,0.2,0.4,0.4,0.7,0.4
		C163.5,43.8,163.4,43.4,163.3,43.1z M154.6,54.6h-0.2h-0.5h-0.2c0,0,0.1-0.4,0.2-1.1V41.3c0-0.3-0.1-0.7-0.2-1h0.2v0h0.5v0h0.2
		c0,0-0.1,0.4-0.2,1.1v12.2C154.4,53.9,154.5,54.3,154.6,54.6z"/>
	<g>
		<path d="M94.1,50.2c-0.1,0.1-0.2,0.2-0.2,0.4c-0.7,1.8-2.1,3.4-3.8,4.3c-1.8,0.8-4,0.8-5.6-0.1c-0.2-0.1-0.5-0.3-0.7-0.5
			c-0.3-0.2-0.5-0.5-0.7-0.7l0,0c-2.5-3-2.1-6.9-2-7.4c0,0,0,0,0,0c0.1-1.3,0.5-2.6,1.2-3.8c1.1-1.9,3.3-3.3,5.5-3.1
			c1.5,0.1,2.9,1,3.9,2.2c1,1.2,1.5,2.6,1.9,4.1c0.1,0.3,0.1,0.5,0.3,0.7c0.2,0.2,0.5,0.3,0.7,0.1c0.2-0.2,0.2-0.4,0.1-0.7
			c-0.2-1.3-0.4-2.5-0.8-3.8c-0.2-0.6-0.4-1.2-0.3-1.9c0-0.6,0.4-1.3,1-1.5c-3.1,0.4-6.3-0.4-9.3,0.1c-1.6,0.3-3.1,0.9-4.4,1.9
			c-1.6,1.2-2.9,2.8-3.3,4.7c-0.1,0.4-0.1,0.8-0.3,1.2c-0.1,0.2-0.2,0.4-0.3,0.5c-0.1,0.1-0.1,0.1-0.2,0.2c-0.1,0.1-0.2,0.1-0.2,0.1
			c0.2,0.1,0.3,0.2,0.4,0.3c0.1,0.1,0.2,0.3,0.3,0.5c0.2,0.3,0.2,0.7,0.3,1.1c0.4,1.8,1.5,3.5,2.9,4.7c1.4,1.2,3.2,2,5,2.2
			c1.9,0.3,4,0,5.7-1c1.7-1,3-2.6,3.5-4.5c0-0.1,0-0.1,0-0.2c0-0.1,0-0.1,0-0.2C94.4,50.1,94.2,50.1,94.1,50.2z M79.2,49.7
			c-0.2-0.7-0.3-1.4-0.5-2c0,0-0.1-0.3-0.1-0.3c0.1,0,0.2-0.2,0.2-0.3c0.2-0.4,0.1-0.8,0.2-1.2c0.1-0.3,0.2-0.6,0.3-0.9
			c0.1-0.3,0.2-0.6,0.3-0.8c0-0.1,0.1-0.2,0.2-0.4c-0.1,0.5-1.2,4.9,0.7,8.1C79.9,51.4,79.5,50.6,79.2,49.7z"/>
		<path d="M84.1,46.3C84.1,46.3,84.1,46.3,84.1,46.3c-0.2-0.2-0.3-0.4-0.2-0.6c0-0.2,0.1-0.3,0.1-0.5c0-0.1-0.1-0.2-0.1-0.3
			c-0.2-0.5-0.2-1.1,0.2-1.5c0.3-0.4,0.9-0.6,1.4-0.5c0.1,0,0.1,0,0.1,0.1c0,0.1,0,0.1,0,0.2c-0.1,0.3,0.1,0.6,0.3,0.7
			c0.3,0.1,0.6,0,0.8-0.2c0.2-0.2,0.3-0.5,0.3-0.8c0.1-0.7-0.2-1.5-0.7-2c-0.5-0.5-1.3-0.7-2.1-0.6c-0.6,0.1-1.1,0.5-1.5,0.9
			c1.6-2.1,4.3-2.3,4.6-2.3c-0.6,0.1-1.2,0.2-1.7,0.4c1,0.4,1.8,1.1,2.2,2.1c0.4,1,0.4,2.1-0.2,3c-0.5,0.9-1.6,1.5-2.6,1.4
			c-0.3,0-0.7,0-0.8,0.3C84.3,46.2,84.3,46.4,84.1,46.3z"/>
	</g>
</g>
</svg>
