<?xml version="1.0" encoding="utf-8"?>
<!-- Generator: Adobe Illustrator 24.0.0, SVG Export Plug-In . SVG Version: 6.00 Build 0)  -->
<svg version="1.1" id="Layer_1" xmlns="http://www.w3.org/2000/svg" xmlns:xlink="http://www.w3.org/1999/xlink" x="0px" y="0px"
	 viewBox="0 0 240 100" style="enable-background:new 0 0 240 100;" xml:space="preserve">
<style type="text/css">
	.st0{enable-background:new    ;}
	.st1{fill:#1C1C1A;}
	.st2{fill:#FFFFFF;stroke:#1C1C1A;stroke-width:7;stroke-miterlimit:10;}
	.st3{fill:#FFFFFF;}
	.st4{font-family:'ArialMT';}
	.st5{font-size:9.7181px;}
</style>
<g>
	<g class="st0">
		<path class="st1" d="M23.4,92.1V81.6h7.1v1.3h-5.7v3.3h4.9v1.3h-4.9v4.8L23.4,92.1L23.4,92.1z"/>
		<path class="st1" d="M32.5,92.1V81.6h1.4v10.5H32.5z"/>
		<path class="st1" d="M36.3,92.1V81.6h1.4l5.5,8.2v-8.2h1.3v10.5h-1.5l-5.5-8.2v8.2H36.3z"/>
		<path class="st1" d="M45.8,92.1l4-10.5h1.5l4.3,10.5H54l-1.2-3.2h-4.4l-1.2,3.2H45.8z M48.8,87.8h3.6l-1.1-2.9
			c-0.3-0.9-0.6-1.6-0.7-2.2c-0.1,0.7-0.3,1.3-0.6,2L48.8,87.8z"/>
		<path class="st1" d="M56.7,92.1V81.6h1.4l5.5,8.2v-8.2H65v10.5h-1.4L58,83.9v8.2H56.7z"/>
		<path class="st1" d="M74.8,88.5l1.4,0.3c-0.3,1.1-0.8,2-1.6,2.6c-0.7,0.6-1.7,0.9-2.8,0.9c-1.1,0-2-0.2-2.8-0.7
			c-0.7-0.5-1.3-1.1-1.6-2c-0.4-0.9-0.6-1.8-0.6-2.8c0-1.1,0.2-2,0.6-2.9c0.4-0.8,1-1.4,1.8-1.9c0.8-0.4,1.6-0.7,2.6-0.7
			c1,0,2,0.3,2.6,0.8c0.7,0.5,1.2,1.3,1.5,2.3l-1.3,0.3c-0.3-0.8-0.6-1.3-1-1.6c-0.4-0.3-1-0.5-1.7-0.5c-0.8,0-1.5,0.2-2,0.6
			s-0.9,0.9-1.1,1.6c-0.2,0.7-0.3,1.3-0.3,2c0,0.9,0.1,1.6,0.4,2.3c0.3,0.7,0.7,1.2,1.2,1.5c0.6,0.3,1.1,0.5,1.8,0.5
			c0.8,0,1.4-0.2,2-0.7C74.2,89.9,74.6,89.3,74.8,88.5z"/>
		<path class="st1" d="M78.1,92.1V81.6h1.4v10.5H78.1z"/>
		<path class="st1" d="M80.8,92.1l4-10.5h1.5l4.3,10.5H89l-1.2-3.2h-4.4l-1.2,3.2H80.8z M83.8,87.8h3.6l-1.1-2.9
			c-0.3-0.9-0.6-1.6-0.7-2.2c-0.1,0.7-0.3,1.3-0.6,2L83.8,87.8z"/>
	</g>
	<g class="st0">
		<path class="st1" d="M91.6,92.1V81.6H93v9.2h5.2v1.3L91.6,92.1L91.6,92.1z"/>
	</g>
	<g class="st0">
		<path class="st1" d="M110.9,88.5l1.4,0.3c-0.3,1.1-0.8,2-1.6,2.6c-0.7,0.6-1.7,0.9-2.8,0.9c-1.1,0-2-0.2-2.8-0.7
			c-0.7-0.5-1.3-1.1-1.6-2c-0.4-0.9-0.6-1.8-0.6-2.8c0-1.1,0.2-2,0.6-2.9c0.4-0.8,1-1.4,1.8-1.9c0.8-0.4,1.6-0.7,2.6-0.7
			c1,0,2,0.3,2.6,0.8c0.7,0.5,1.2,1.3,1.5,2.3l-1.3,0.3c-0.3-0.8-0.6-1.3-1-1.6c-0.4-0.3-1-0.5-1.7-0.5c-0.8,0-1.5,0.2-2,0.6
			c-0.6,0.4-0.9,0.9-1.1,1.6c-0.2,0.7-0.3,1.3-0.3,2c0,0.9,0.1,1.6,0.4,2.3c0.3,0.7,0.7,1.2,1.2,1.5c0.6,0.3,1.1,0.5,1.8,0.5
			c0.8,0,1.4-0.2,2-0.7C110.3,89.9,110.7,89.3,110.9,88.5z"/>
		<path class="st1" d="M113.6,87c0-1.7,0.5-3.1,1.4-4.1c1-1,2.1-1.5,3.6-1.5c1,0,1.8,0.2,2.6,0.7s1.4,1.1,1.8,2
			c0.4,0.8,0.6,1.8,0.6,2.8c0,1.1-0.2,2-0.7,2.9c-0.4,0.8-1,1.5-1.8,1.9c-0.8,0.4-1.6,0.7-2.6,0.7c-1,0-1.9-0.2-2.6-0.7
			c-0.8-0.5-1.3-1.1-1.8-2C113.7,88.8,113.6,87.9,113.6,87z M115,87c0,1.3,0.3,2.3,1,3c0.7,0.7,1.5,1.1,2.6,1.1c1,0,1.9-0.3,2.6-1.1
			c0.7-0.7,1-1.8,1-3.1c0-0.9-0.1-1.6-0.4-2.3s-0.7-1.1-1.3-1.5c-0.6-0.3-1.2-0.5-1.9-0.5c-1,0-1.8,0.3-2.5,1
			C115.3,84.3,115,85.5,115,87z"/>
		<path class="st1" d="M125.4,92.1V81.6h1.4l5.5,8.2v-8.2h1.3v10.5h-1.4l-5.5-8.2v8.2H125.4z"/>
		<path class="st1" d="M135.5,88.8l1.3-0.1c0,0.5,0.2,1,0.4,1.3s0.6,0.6,1,0.8c0.5,0.2,1,0.3,1.6,0.3c0.5,0,1-0.1,1.4-0.2
			c0.4-0.2,0.7-0.4,0.9-0.7c0.2-0.3,0.3-0.6,0.3-0.9c0-0.3-0.1-0.6-0.3-0.9c-0.2-0.3-0.5-0.4-1-0.6c-0.3-0.1-0.9-0.3-1.9-0.5
			c-1-0.3-1.6-0.4-2-0.7c-0.5-0.3-0.9-0.6-1.1-1c-0.3-0.4-0.3-0.8-0.3-1.3c0-0.5,0.1-1,0.4-1.5c0.3-0.5,0.7-0.8,1.3-1
			c0.6-0.2,1.2-0.3,1.9-0.3c0.8,0,1.5,0.1,2,0.4c0.6,0.3,1,0.6,1.4,1.1c0.3,0.5,0.5,1,0.5,1.6l-1.3,0.1c-0.1-0.7-0.3-1.2-0.7-1.5
			c-0.4-0.3-1-0.5-1.8-0.5c-0.8,0-1.4,0.2-1.8,0.5s-0.6,0.7-0.6,1.1c0,0.4,0.1,0.7,0.4,0.9c0.3,0.3,1,0.5,2.1,0.7
			c1.1,0.3,1.9,0.5,2.3,0.7c0.6,0.3,1,0.7,1.3,1.1c0.3,0.4,0.4,0.9,0.4,1.5s-0.2,1.1-0.5,1.6s-0.8,0.9-1.4,1.2
			c-0.6,0.3-1.3,0.4-2,0.4c-1,0-1.7-0.1-2.4-0.4s-1.1-0.7-1.5-1.3C135.7,90.1,135.5,89.5,135.5,88.8z"/>
		<path class="st1" d="M152.6,81.7h1.4v6.1c0,1-0.1,1.9-0.3,2.5c-0.2,0.6-0.7,1.1-1.3,1.5c-0.6,0.4-1.4,0.6-2.4,0.6
			s-1.8-0.2-2.4-0.5c-0.7-0.3-1.1-0.8-1.3-1.5c-0.3-0.7-0.4-1.5-0.4-2.6v-6.1h1.4v6c0,0.9,0.1,1.6,0.3,2c0.2,0.4,0.5,0.8,0.9,1
			c0.4,0.2,0.9,0.3,1.5,0.3c1,0,1.7-0.2,2.2-0.7c0.4-0.5,0.7-1.3,0.7-2.7L152.6,81.7L152.6,81.7z"/>
	</g>
	<g class="st0">
		<path class="st1" d="M156.3,92.1V81.6h1.4v9.2h5.2v1.3L156.3,92.1L156.3,92.1z"/>
		<path class="st1" d="M165,92.1v-9.2h-3.5v-1.3h8.3v1.3h-3.5v9.2H165z"/>
	</g>
	<g class="st0">
		<path class="st1" d="M170.1,92.1l4-10.5h1.5l4.3,10.5h-1.6l-1.2-3.2h-4.4l-1.2,3.2H170.1z M173.1,87.8h3.6l-1.1-2.9
			c-0.3-0.9-0.6-1.6-0.7-2.2c-0.1,0.7-0.3,1.3-0.6,2L173.1,87.8z"/>
		<path class="st1" d="M181,92.1V81.6h1.4l5.5,8.2v-8.2h1.3v10.5h-1.4l-5.5-8.2v8.2H181z"/>
		<path class="st1" d="M194.3,92.1v-9.2h-3.5v-1.3h8.3v1.3h-3.5v9.2H194.3z"/>
		<path class="st1" d="M200.1,88.8l1.3-0.1c0,0.5,0.2,1,0.4,1.3c0.2,0.3,0.6,0.6,1,0.8c0.5,0.2,1,0.3,1.6,0.3c0.5,0,1-0.1,1.4-0.2
			c0.4-0.2,0.7-0.4,0.9-0.7c0.2-0.3,0.3-0.6,0.3-0.9c0-0.3-0.1-0.6-0.3-0.9c-0.2-0.3-0.5-0.4-1-0.6c-0.3-0.1-0.9-0.3-1.9-0.5
			c-1-0.3-1.6-0.4-2-0.7c-0.5-0.3-0.9-0.6-1.1-1c-0.3-0.4-0.3-0.8-0.3-1.3c0-0.5,0.1-1,0.4-1.5c0.3-0.5,0.7-0.8,1.3-1
			c0.6-0.2,1.2-0.3,1.9-0.3c0.8,0,1.5,0.1,2,0.4c0.6,0.3,1,0.6,1.4,1.1c0.3,0.5,0.5,1,0.5,1.6l-1.3,0.1c-0.1-0.7-0.3-1.2-0.7-1.5
			s-1-0.5-1.8-0.5c-0.8,0-1.4,0.2-1.8,0.5c-0.4,0.3-0.6,0.7-0.6,1.1c0,0.4,0.1,0.7,0.4,0.9c0.3,0.3,1,0.5,2.1,0.7
			c1.1,0.3,1.9,0.5,2.3,0.7c0.6,0.3,1,0.7,1.3,1.1c0.3,0.4,0.4,0.9,0.4,1.5s-0.2,1.1-0.5,1.6s-0.8,0.9-1.4,1.2
			c-0.6,0.3-1.3,0.4-2,0.4c-1,0-1.7-0.1-2.4-0.4s-1.1-0.7-1.5-1.3C200.3,90.1,200.1,89.5,200.1,88.8z"/>
	</g>
	<rect x="22.2" y="13.3" class="st2" width="195.6" height="59"/>
	<rect x="124.7" y="13.3" class="st3" width="93.1" height="59"/>
	<rect x="22.2" y="13.3" class="st1" width="102.5" height="59"/>
	<polygon class="st3" points="33.7,61.6 61.9,61.6 61.9,52.4 46.1,52.4 46.1,47.9 61.9,47.9 61.9,38.8 46.1,38.8 46.1,34.3 
		61.9,34.3 61.9,25.1 33.7,25.1 	"/>
	<path class="st3" d="M77.7,43.3c-0.7-0.1-1.2-0.7-1.2-1.5c0-1.3,2.2-1.4,2.2-1.4c7,0.2,9.2,1.9,9.2,1.9v-8
		c-9.9-1.8-14.5-0.5-14.5-0.5c-8.2,1.3-8.7,8.6-8.7,8.6c-0.5,8.5,9.8,9.3,9.8,9.3s3.9,0.5,3.9,1.6c0.1,0.6-0.3,1.1-0.9,1.3
		C73.5,55.4,65.6,53,65.6,53v8.1c4.7,1.1,9.6,1.5,14.5,1.1c9.6-0.8,9.8-9.6,9.8-9.6C90.6,44.1,79.9,44,77.7,43.3z"/>
	<path class="st3" d="M104.2,43.3c-0.7-0.1-1.2-0.7-1.2-1.5c0-1.3,2.2-1.4,2.2-1.4c7,0.2,9.2,1.9,9.2,1.9v-8
		c-9.9-1.8-14.5-0.5-14.5-0.5c-8.2,1.3-8.7,8.6-8.7,8.6c-0.5,8.5,9.8,9.3,9.8,9.3s3.9,0.5,4,1.6c0.1,0.6-0.3,1.1-0.9,1.3
		c-3.9,0.8-11.8-1.6-11.8-1.6v8.1c4.7,1.1,9.6,1.5,14.5,1.1c9.6-0.8,9.8-9.6,9.8-9.6C117.1,44.1,106.4,44,104.2,43.3z"/>
	<polygon class="st1" points="133.3,62.5 161.6,62.5 161.6,53.4 145.8,53.4 145.8,48.9 161.6,48.9 161.6,39.7 145.8,39.7 
		145.8,35.2 161.6,35.2 161.6,26.1 133.3,26.1 	"/>
	<path class="st1" d="M203.1,31.2h3.2v-8.7c0,0-11.2-1.5-14.8,3.2c0,0-2.5,3.3-2.5,8.6v1.4h-9.2v-1.4c0,0-0.3-3.1,2.4-3.1h3.2v-8.7
		c0,0-11.2-1.5-14.8,3.2c0,0-2.5,3.3-2.5,8.6v1.4h-4.6v7.7h4.5v19.7h11.7V43.5h9.2v19.7h11.7V43.5h5.6v-7.7h-5.6v-1.4
		C200.7,34.3,200.3,31.2,203.1,31.2z"/>
	<text transform="matrix(1 0 0 1 207.2031 22.8249)" class="st1 st4 st5">®</text>
</g>
</svg>
