<?xml version="1.0" encoding="utf-8"?>
<!-- Generator: Adobe Illustrator 24.0.0, SVG Export Plug-In . SVG Version: 6.00 Build 0)  -->
<svg version="1.1" id="Layer_1" xmlns="http://www.w3.org/2000/svg" xmlns:xlink="http://www.w3.org/1999/xlink" x="0px" y="0px"
	 viewBox="0 0 240 100" style="enable-background:new 0 0 240 100;" xml:space="preserve">
<style type="text/css">
	.st0{enable-background:new    ;}
	.st1{fill:#1C1C1A;}
	.st2{fill:#FFFFFF;stroke:#1C1C1A;stroke-width:7;stroke-miterlimit:10;}
	.st3{fill:#FFFFFF;}
	.st4{font-family:'ArialMT';}
	.st5{font-size:8.4937px;}
</style>
<g>
	<g class="st0">
		<path class="st1" d="M35.6,86.3v-9.2h6.2v1.1h-5v2.9h4.3v1.1h-4.3v4.2L35.6,86.3L35.6,86.3z"/>
		<path class="st1" d="M43.5,86.3v-9.2h1.2v9.2H43.5z"/>
		<path class="st1" d="M46.8,86.3v-9.2h1.2l4.8,7.2v-7.2H54v9.2h-1.3l-4.8-7.2v7.2H46.8z"/>
		<path class="st1" d="M55.1,86.3l3.5-9.2H60l3.8,9.2h-1.4l-1-2.8h-3.8l-1,2.8H55.1z M57.8,82.5h3.1L60,80c-0.3-0.8-0.5-1.4-0.6-1.9
			c-0.1,0.6-0.3,1.1-0.5,1.7L57.8,82.5z"/>
		<path class="st1" d="M64.7,86.3v-9.2h1.2l4.8,7.2v-7.2h1.2v9.2h-1.2l-4.9-7.2v7.2H64.7z"/>
		<path class="st1" d="M80.5,83.1l1.2,0.3c-0.3,1-0.7,1.7-1.4,2.3c-0.6,0.5-1.5,0.8-2.4,0.8c-1,0-1.7-0.2-2.4-0.6
			c-0.6-0.4-1.1-1-1.4-1.7c-0.3-0.8-0.5-1.6-0.5-2.4c0-1,0.2-1.7,0.5-2.5c0.3-0.7,0.9-1.2,1.6-1.7c0.7-0.3,1.4-0.6,2.3-0.6
			s1.7,0.3,2.3,0.7c0.6,0.4,1,1.1,1.3,2l-1.1,0.3c-0.3-0.7-0.5-1.1-0.9-1.4C79.1,78.1,78.6,78,78,78c-0.7,0-1.3,0.2-1.7,0.5
			c-0.4,0.3-0.8,0.8-1,1.4C75.1,80.5,75,81,75,81.6c0,0.8,0.1,1.4,0.3,2c0.3,0.6,0.6,1,1,1.3c0.5,0.3,1,0.4,1.6,0.4
			c0.7,0,1.2-0.2,1.7-0.6C80,84.3,80.3,83.8,80.5,83.1z"/>
		<path class="st1" d="M83.4,86.3v-9.2h1.2v9.2H83.4z"/>
		<path class="st1" d="M85.7,86.3l3.5-9.2h1.3l3.8,9.2h-1.4l-1-2.8H88l-1,2.8H85.7z M88.4,82.5h3.1l-1-2.5c-0.3-0.8-0.5-1.4-0.6-1.9
			c-0.1,0.6-0.3,1.1-0.5,1.7L88.4,82.5z"/>
	</g>
	<g class="st0">
		<path class="st1" d="M95.2,86.3v-9.2h1.2v8h4.5v1.1H95.2L95.2,86.3z"/>
	</g>
	<g class="st0">
		<path class="st1" d="M112,83.1l1.2,0.3c-0.3,1-0.7,1.7-1.4,2.3c-0.6,0.5-1.5,0.8-2.4,0.8c-1,0-1.7-0.2-2.4-0.6
			c-0.6-0.4-1.1-1-1.4-1.7c-0.3-0.8-0.5-1.6-0.5-2.4c0-1,0.2-1.7,0.5-2.5c0.3-0.7,0.9-1.2,1.6-1.7c0.7-0.3,1.4-0.6,2.3-0.6
			s1.7,0.3,2.3,0.7c0.6,0.4,1,1.1,1.3,2l-1.1,0.3c-0.3-0.7-0.5-1.1-0.9-1.4c-0.3-0.3-0.9-0.4-1.5-0.4c-0.7,0-1.3,0.2-1.7,0.5
			c-0.5,0.3-0.8,0.8-1,1.4c-0.2,0.6-0.3,1.1-0.3,1.7c0,0.8,0.1,1.4,0.3,2c0.3,0.6,0.6,1,1,1.3c0.5,0.3,1,0.4,1.6,0.4
			c0.7,0,1.2-0.2,1.7-0.6C111.5,84.3,111.9,83.8,112,83.1z"/>
		<path class="st1" d="M114.4,81.8c0-1.5,0.4-2.7,1.2-3.6c0.9-0.9,1.8-1.3,3.1-1.3c0.9,0,1.6,0.2,2.3,0.6c0.7,0.4,1.2,1,1.6,1.7
			c0.3,0.7,0.5,1.6,0.5,2.4c0,1-0.2,1.7-0.6,2.5c-0.3,0.7-0.9,1.3-1.6,1.7c-0.7,0.3-1.4,0.6-2.3,0.6c-0.9,0-1.7-0.2-2.3-0.6
			c-0.7-0.4-1.1-1-1.6-1.7C114.5,83.4,114.4,82.6,114.4,81.8z M115.6,81.8c0,1.1,0.3,2,0.9,2.6c0.6,0.6,1.3,1,2.3,1
			c0.9,0,1.7-0.3,2.3-1c0.6-0.6,0.9-1.6,0.9-2.7c0-0.8-0.1-1.4-0.3-2c-0.3-0.6-0.6-1-1.1-1.3c-0.5-0.3-1-0.4-1.7-0.4
			c-0.9,0-1.6,0.3-2.2,0.9C115.9,79.4,115.6,80.5,115.6,81.8z"/>
		<path class="st1" d="M124.7,86.3v-9.2h1.2l4.8,7.2v-7.2h1.1v9.2h-1.2l-4.8-7.2v7.2H124.7z"/>
		<path class="st1" d="M133.5,83.4l1.1-0.1c0,0.4,0.2,0.9,0.3,1.1c0.2,0.3,0.5,0.5,0.9,0.7c0.4,0.2,0.9,0.3,1.4,0.3
			c0.4,0,0.9-0.1,1.2-0.2c0.3-0.2,0.6-0.3,0.8-0.6c0.2-0.3,0.3-0.5,0.3-0.8s-0.1-0.5-0.3-0.8s-0.4-0.3-0.9-0.5
			c-0.3-0.1-0.8-0.3-1.7-0.4c-0.9-0.3-1.4-0.3-1.7-0.6c-0.4-0.3-0.8-0.5-1-0.9c-0.3-0.3-0.3-0.7-0.3-1.1s0.1-0.9,0.3-1.3
			c0.3-0.4,0.6-0.7,1.1-0.9c0.5-0.2,1-0.3,1.7-0.3c0.7,0,1.3,0.1,1.7,0.3c0.5,0.3,0.9,0.5,1.2,1c0.3,0.4,0.4,0.9,0.4,1.4l-1.1,0.1
			c-0.1-0.6-0.3-1-0.6-1.3c-0.3-0.3-0.9-0.4-1.6-0.4c-0.7,0-1.2,0.2-1.6,0.4c-0.3,0.3-0.5,0.6-0.5,1c0,0.3,0.1,0.6,0.3,0.8
			c0.3,0.3,0.9,0.4,1.8,0.6c1,0.3,1.7,0.4,2,0.6c0.5,0.3,0.9,0.6,1.1,1s0.3,0.8,0.3,1.3c0,0.5-0.2,1-0.4,1.4c-0.3,0.4-0.7,0.8-1.2,1
			c-0.5,0.3-1.1,0.3-1.7,0.3c-0.9,0-1.5-0.1-2.1-0.3c-0.6-0.3-1-0.6-1.3-1.1C133.7,84.5,133.5,84,133.5,83.4z"/>
		<path class="st1" d="M148.5,77.2h1.2v5.3c0,0.9-0.1,1.7-0.3,2.2c-0.2,0.5-0.6,1-1.1,1.3c-0.5,0.3-1.2,0.5-2.1,0.5
			s-1.6-0.2-2.1-0.4c-0.6-0.3-1-0.7-1.1-1.3c-0.3-0.6-0.3-1.3-0.3-2.3v-5.3h1.2v5.2c0,0.8,0.1,1.4,0.3,1.7c0.2,0.3,0.4,0.7,0.8,0.9
			c0.3,0.2,0.8,0.3,1.3,0.3c0.9,0,1.5-0.2,1.9-0.6c0.3-0.4,0.6-1.1,0.6-2.4L148.5,77.2L148.5,77.2z"/>
	</g>
	<g class="st0">
		<path class="st1" d="M151.7,86.3v-9.2h1.2v8h4.5v1.1H151.7L151.7,86.3z"/>
		<path class="st1" d="M159.3,86.3v-8h-3.1v-1.1h7.3v1.1h-3.1v8H159.3z"/>
	</g>
	<g class="st0">
		<path class="st1" d="M163.8,86.3l3.5-9.2h1.3l3.8,9.2H171l-1-2.8h-3.8l-1,2.8H163.8z M166.4,82.5h3.1l-1-2.5
			c-0.3-0.8-0.5-1.4-0.6-1.9c-0.1,0.6-0.3,1.1-0.5,1.7L166.4,82.5z"/>
		<path class="st1" d="M173.3,86.3v-9.2h1.2l4.8,7.2v-7.2h1.1v9.2h-1.2l-4.8-7.2v7.2H173.3z"/>
		<path class="st1" d="M184.9,86.3v-8h-3.1v-1.1h7.3v1.1h-3.1v8H184.9z"/>
		<path class="st1" d="M190,83.4l1.1-0.1c0,0.4,0.2,0.9,0.3,1.1c0.2,0.3,0.5,0.5,0.9,0.7c0.4,0.2,0.9,0.3,1.4,0.3
			c0.4,0,0.9-0.1,1.2-0.2c0.3-0.2,0.6-0.3,0.8-0.6c0.2-0.3,0.3-0.5,0.3-0.8s-0.1-0.5-0.3-0.8s-0.4-0.3-0.9-0.5
			c-0.3-0.1-0.8-0.3-1.7-0.4c-0.9-0.3-1.4-0.3-1.7-0.6c-0.4-0.3-0.8-0.5-1-0.9c-0.3-0.3-0.3-0.7-0.3-1.1s0.1-0.9,0.3-1.3
			c0.3-0.4,0.6-0.7,1.1-0.9c0.5-0.2,1-0.3,1.7-0.3c0.7,0,1.3,0.1,1.7,0.3c0.5,0.3,0.9,0.5,1.2,1c0.3,0.4,0.4,0.9,0.4,1.4l-1.1,0.1
			c-0.1-0.6-0.3-1-0.6-1.3c-0.3-0.3-0.9-0.4-1.6-0.4c-0.7,0-1.2,0.2-1.6,0.4c-0.3,0.3-0.5,0.6-0.5,1c0,0.3,0.1,0.6,0.3,0.8
			c0.3,0.3,0.9,0.4,1.8,0.6c1,0.3,1.7,0.4,2,0.6c0.5,0.3,0.9,0.6,1.1,1s0.3,0.8,0.3,1.3c0,0.5-0.2,1-0.4,1.4c-0.3,0.4-0.7,0.8-1.2,1
			c-0.5,0.3-1.1,0.3-1.7,0.3c-0.9,0-1.5-0.1-2.1-0.3c-0.6-0.3-1-0.6-1.3-1.1C190.2,84.5,190,84,190,83.4z"/>
	</g>
	<rect x="34.5" y="17.4" class="st2" width="171" height="51.6"/>
	<rect x="124.1" y="17.4" class="st3" width="81.4" height="51.6"/>
	<rect x="34.5" y="17.4" class="st1" width="89.6" height="51.6"/>
	<polygon class="st3" points="44.6,59.6 69.2,59.6 69.2,51.6 55.4,51.6 55.4,47.6 69.2,47.6 69.2,39.7 55.4,39.7 55.4,35.7 
		69.2,35.7 69.2,27.7 44.6,27.7 	"/>
	<path class="st3" d="M83,43.6c-0.6-0.1-1-0.6-1-1.3c0-1.1,1.9-1.2,1.9-1.2c6.1,0.2,8,1.7,8,1.7v-7c-8.7-1.6-12.7-0.4-12.7-0.4
		c-7.2,1.1-7.6,7.5-7.6,7.5c-0.4,7.4,8.6,8.1,8.6,8.1s3.4,0.4,3.4,1.4c0.1,0.5-0.3,1-0.8,1.1c-3.5,0.7-10.4-1.4-10.4-1.4v7.1
		c4.1,1,8.4,1.3,12.7,1c8.4-0.7,8.6-8.4,8.6-8.4C94.3,44.3,85,44.2,83,43.6z"/>
	<path class="st3" d="M106.2,43.6c-0.6-0.1-1-0.6-1-1.3c0-1.1,1.9-1.2,1.9-1.2c6.1,0.2,8,1.7,8,1.7v-7c-8.7-1.6-12.7-0.4-12.7-0.4
		c-7.2,1.1-7.6,7.5-7.6,7.5c-0.4,7.4,8.6,8.1,8.6,8.1s3.4,0.4,3.5,1.4c0.1,0.5-0.3,1-0.8,1.1c-3.4,0.7-10.3-1.4-10.3-1.4v7.1
		c4.1,1,8.4,1.3,12.7,1c8.4-0.7,8.6-8.4,8.6-8.4C117.5,44.3,108.1,44.2,106.2,43.6z"/>
	<polygon class="st1" points="131.6,60.4 156.4,60.4 156.4,52.4 142.5,52.4 142.5,48.5 156.4,48.5 156.4,40.5 142.5,40.5 
		142.5,36.5 156.4,36.5 156.4,28.6 131.6,28.6 	"/>
	<path class="st1" d="M192.6,33h2.8v-7.6c0,0-9.8-1.3-12.9,2.8c0,0-2.2,2.9-2.2,7.5V37h-8v-1.2c0,0-0.3-2.7,2.1-2.7h2.8v-7.6
		c0,0-9.8-1.3-12.9,2.8c0,0-2.2,2.9-2.2,7.5V37h-4v6.7h3.9v17.2h10.2V43.8h8V61h10.2V43.8h4.9v-6.7h-4.9v-1.2
		C190.5,35.7,190.2,33,192.6,33z"/>
	<text transform="matrix(1 0 0 1 196.2158 25.7139)" class="st1 st4 st5">®</text>
</g>
</svg>
