<?xml version="1.0" encoding="utf-8"?>
<!-- Generator: Adobe Illustrator 24.0.0, SVG Export Plug-In . SVG Version: 6.00 Build 0)  -->
<svg version="1.1" id="Layer_1" xmlns="http://www.w3.org/2000/svg" xmlns:xlink="http://www.w3.org/1999/xlink" x="0px" y="0px"
	 viewBox="0 0 240 100" style="enable-background:new 0 0 240 100;" xml:space="preserve">
<style type="text/css">
	.st0{fill:none;stroke:#000000;stroke-width:1.968;stroke-miterlimit:10;}
</style>
<rect x="90.9" y="9.7" class="st0" width="60.3" height="81.4"/>
<path d="M59.3,47.7c0.5-0.3,1.1-0.5,1.7-0.6H59v0.8C59.1,47.8,59.2,47.8,59.3,47.7 M111,66.1v-11c0-2.4-0.8-3.5-2.4-3.5
	c-1.6,0-2.4,1.1-2.4,3.5v11.1c0,2.5,0.9,3.5,2.4,3.5C110.2,69.7,111,68.7,111,66.1 M144.5,71.3h-2V60.7h-4.7v10.5h-2V50h2v8.9h4.7
	V50h2V71.3z M134.2,65.9c0,2.8-0.5,5.6-4.2,5.6c-3.6,0-4.2-2.6-4.2-5.8V54.9c0-3.4,1.5-5.3,4.2-5.3c3.5,0,4.1,2.5,4.1,5.3v0.8H132
	v-0.9c0-1.8-0.3-3.3-2-3.3c-1.7,0-2.1,1.4-2.1,3.4v11c0,2.3,0.5,3.8,2.2,3.8c1.8,0,2.1-1.6,2.1-3.7v-0.8h2.1V65.9z M123.8,66.5
	c0,3.3-1.5,5-4.4,5c-2.8,0-4.3-1.6-4.3-4.9V50h2v16.6c0,1.8,0.6,3.1,2.3,3.1c1.7,0,2.3-1.1,2.3-3.1V50h2.1V66.5z M113.1,66
	c0,3.7-1.5,5.5-4.6,5.5c-3.3,0-4.4-2.1-4.4-5.5V55.1c0-3.5,1.6-5.4,4.5-5.4c3.1,0,4.4,2.2,4.4,5.4V66z M103.8,51.9h-3.4v19.4h-2
	V51.9h-3.5V50h8.9V51.9z M68.9,55.9c1.4,0.9,2.3,2.3,2.7,4l0.1,0.5l0,0c0.4,1.9,0.5,3.8,0.5,5.7c0,0.3-0.3,0.6-0.6,0.6h0
	c-0.3,0-0.6-0.3-0.6-0.6c0-2-0.2-4-0.6-6l0-0.2c-0.3-1.2-1-2.3-2.1-3c-1.1-0.7-2.5-1-3.8-0.7c-2,0.4-3.5,1.9-4,3.9
	c-0.1,0.3-0.4,0.5-0.7,0.5c-0.3-0.1-0.5-0.4-0.5-0.7c0.5-2.5,2.4-4.4,4.9-4.9C65.8,54.6,67.5,55,68.9,55.9 M158,74.3V47.1H83.9
	c2.1,2.7,3.6,5.9,4.3,9.4c0,0,0,0,0,0.1c0.3,1.7,0.5,3.4,0.5,5.1c0,0.3-0.3,0.6-0.6,0.6c0,0,0,0,0,0c-0.3,0-0.6-0.3-0.6-0.6
	c0-1.6-0.1-3.2-0.4-4.7c0,0,0,0,0-0.1c-0.7-3.6-2.3-6.9-4.6-9.7h-2.2c2.5,2.6,4.3,5.8,5.1,9.5l0,0l0.1,0.6c1,4.9,1.2,9.8,0.6,14.7
	c0,0.3-0.3,0.5-0.6,0.5c0,0-0.1,0-0.1,0c-0.3,0-0.6-0.3-0.5-0.7c0.6-4.6,0.4-9.3-0.5-14l-0.1-0.4c-0.8-4-2.9-7.6-5.8-10.3H76
	c3.3,2.5,5.7,6,6.6,10.1l0,0l0.1,0.4c0.1,0.7,0.3,1.5,0.4,2.2c0,0.3-0.2,0.6-0.5,0.7c0,0-0.1,0-0.1,0c-0.3,0-0.6-0.2-0.6-0.5
	c-0.1-0.6-0.2-1.3-0.3-1.9l-0.1-0.3c-0.9-4.3-3.3-8-7-10.4c-0.2-0.2-0.5-0.3-0.7-0.4h-3.8c1.8,0.6,3.4,1.4,4.9,2.6
	c0.3,0.2,0.3,0.6,0.1,0.9c-0.1,0.1-0.3,0.2-0.5,0.2c-0.1,0-0.3,0-0.4-0.1c-3.2-2.6-7.3-3.6-11.3-2.8c-1,0.2-2,0.5-3,1
	c-0.3,0.1-0.6,0-0.7-0.2v2.4c1.2-0.8,2.6-1.3,4-1.6c3.1-0.6,6.3,0,9,1.8c2.7,1.8,4.5,4.5,5.1,7.6l0.1,0.3l0,0
	c0.8,4.4,0.9,8.8,0.2,13.2c0,0.3-0.3,0.5-0.6,0.5c0,0-0.1,0-0.1,0c-0.3-0.1-0.6-0.4-0.5-0.7c0.7-4.3,0.6-8.7-0.2-13l0-0.2
	c-0.6-2.7-2.2-5.1-4.5-6.6c-2.4-1.6-5.2-2.1-8-1.6c-1.6,0.3-3,1-4.3,1.9v2.1c1.2-1.2,2.8-2.1,4.6-2.4c0.8-0.2,1.7-0.2,2.5-0.2
	c0.3,0,0.6,0.3,0.6,0.7c0,0.3-0.3,0.6-0.7,0.6c-0.7-0.1-1.5,0-2.2,0.1c-2,0.4-3.7,1.5-4.8,3.1V71c0.6-2.4,0.8-4.9,0.5-7.4
	c0-0.3,0.2-0.6,0.5-0.7c0.3,0,0.6,0.2,0.7,0.5c0.5,3.7-0.1,7.5-1.5,10.9h1.7c0-0.1,0-0.1,0.1-0.2c0.1-0.3,0.5-0.5,0.8-0.3
	c0.2,0.1,0.4,0.3,0.4,0.5H64c0.2-0.5,0.3-1,0.5-1.5c1-3.8,1.2-7.7,0.4-11.5c-0.1-0.3,0.1-0.7,0.5-0.7c0.3-0.1,0.7,0.1,0.7,0.5
	c0.8,4.1,0.7,8.1-0.4,12.1c-0.1,0.4-0.2,0.8-0.4,1.2h1.7c1.3-4.4,1.6-9,0.7-13.6l0-0.2c-0.1-0.5-0.5-0.9-0.9-1.2
	c-0.5-0.3-1.1-0.4-1.7-0.3c-1.1,0.2-1.9,1.2-1.8,2.3l0.1,0.3c0.6,3.2,0.6,6.3,0,9.5c-0.1,0.3-0.4,0.5-0.7,0.5
	c-0.3-0.1-0.5-0.4-0.5-0.7c0.6-2.8,0.6-5.6,0.2-8.4l0,0L62,61.8c-0.4-1.9,0.8-3.7,2.7-4.1c0.9-0.2,1.8,0,2.6,0.5
	c0.8,0.5,1.3,1.3,1.5,2.2l0.1,0.5l0,0c0.8,4.5,0.6,9-0.7,13.3h1.7c0.4-1.5,0.7-3.1,0.9-4.7c0-0.3,0.3-0.6,0.7-0.5
	c0.3,0,0.6,0.3,0.5,0.7c-0.2,1.5-0.5,3.1-0.9,4.5h1.7c1.2-4.8,1.3-9.8,0.4-14.7l-0.1-0.3c-0.5-2.1-1.9-4-3.8-5.1
	c-0.3-0.2-0.4-0.5-0.2-0.8c0.2-0.3,0.5-0.4,0.8-0.2c2.3,1.3,4,3.5,4.5,6.2l0.1,0.5l0,0c0.9,4.8,0.7,9.8-0.4,14.5h4.6
	c1.1-5.1,1.2-10.5,0.1-15.7l0-0.2c-0.4-1.9-1.2-3.7-2.3-5.3c-0.2-0.3-0.1-0.7,0.1-0.9c0.3-0.2,0.7-0.1,0.9,0.1
	c1.2,1.7,2,3.5,2.5,5.5l0,0l0.1,0.3c1.1,5.3,1.1,10.8,0,16.1h1.6c0.7-3.5,1-7.1,0.7-10.7c0-0.3,0.2-0.6,0.6-0.6
	c0.3,0,0.6,0.2,0.6,0.6c0.2,3.6,0,7.3-0.7,10.8H158z"/>
<path d="M140.6,19.2c1.9,0,2.9,1.4,2.9,4.3v13.3c0,3.2-1,4.4-2.9,4.4c-1.8,0-2.9-1.2-2.9-4.3V23.5C137.7,20.6,138.7,19.2,140.6,19.2
	 M140.7,17c-3.6,0-5.5,2.3-5.5,6.6v13.3c0,4.1,1.4,6.7,5.3,6.7c3.7,0,5.5-2.3,5.5-6.7V23.6C146.1,19.7,144.5,17,140.7,17
	 M124.9,19.5h1.7c2.7,0,3.4,1.4,3.4,3.9v1.2c0,2.7-0.6,4.3-3.2,4.3h-1.9V19.5z M122.4,43.2h2.5V31h1.8c2.6,0,3.1,1,3.1,4.4
	c0,1.8-0.1,6.1,0.3,7.8h2.4c-0.3-1.7-0.3-5.8-0.3-8c0-3.4-0.7-4.7-2.4-5.3c1.5-0.5,2.6-2,2.6-5.4v-1.2c0-4.2-1.8-5.9-5.7-5.9h-4.3
	V43.2z M108.1,17.4v20.2c0,4,1.8,6,5.2,6c3.5,0,5.3-2.1,5.3-6.1V17.4h-2.5v20.2c0,2.3-0.7,3.7-2.8,3.7c-2,0-2.8-1.5-2.8-3.7V17.4
	H108.1z M105.2,28.2h-5.8v-8.6h6.1v-2.3h-8.6v25.8h8.7l0.3-2.2h-6.6V30.5h5.8V28.2z"/>
<path d="M145,81.3h-2.5v-3.7h2.6v-1h-3.7v11h3.7l0.1-1h-2.8v-4.5h2.5V81.3z M136.9,87.7h1V77.7h1.8v-1H135v1h1.8V87.7z M131.1,83.1
	c0.3-2.1,0.7-4.6,0.8-5.5h0c0.1,1,0.4,2.9,0.8,5.5H131.1z M132.8,84.1l0.6,3.7h1.1l-1.9-11h-1.5l-1.8,11h1.1l0.6-3.7H132.8z
	 M123.7,87.7v-4.1c0-2,0-3.8-0.1-5.2h0c0,0.3,0.1,0.7,0.3,1.3l2.2,8h1.2v-11h-1v4.1c0,1.8,0,3.4,0.1,4.9h0c-0.1-0.4-0.2-1.1-0.4-1.9
	l-2-7h-1.3v11H123.7z M118.9,87.7h1.1v-11h-1.1V87.7z M115.3,87.7h1v-11h-1.5c-0.6,3.2-1.5,7.7-1.7,9h0c-0.1-1.4-0.9-5.6-1.6-9h-1.6
	v11h1v-4.4c0-1.9,0-4.4-0.1-5.7h0c0.3,2,1.2,7.3,1.7,10.1h1c0.6-3.3,1.5-8.2,1.8-10.1h0c0,1.2-0.1,3.3-0.1,5.4V87.7z M104.4,83.1
	c0.3-2.1,0.7-4.6,0.8-5.5h0c0.1,1,0.4,2.9,0.8,5.5H104.4z M106.2,84.1l0.6,3.7h1.1l-1.9-11h-1.5l-1.8,11h1.1l0.6-3.7H106.2z
	 M97.3,87.7h3.7l0.1-0.9h-2.8V76.7h-1.1V87.7z"/>
</svg>
