<?xml version="1.0" encoding="utf-8"?>
<!-- Generator: Adobe Illustrator 24.0.0, SVG Export Plug-In . SVG Version: 6.00 Build 0)  -->
<svg version="1.1" id="Layer_1" xmlns="http://www.w3.org/2000/svg" xmlns:xlink="http://www.w3.org/1999/xlink" x="0px" y="0px"
	 viewBox="0 0 240 100" style="enable-background:new 0 0 240 100;" xml:space="preserve">
<style type="text/css">
	.st0{clip-path:url(#SVGID_2_);fill:#1C1C1A;}
	.st1{clip-path:url(#SVGID_2_);fill:none;stroke:#1C1C1A;stroke-width:2.369;stroke-linecap:round;stroke-miterlimit:10;}
</style>
<g>
	<defs>
		<rect id="SVGID_1_" x="44.1" y="9.9" width="151.7" height="80.2"/>
	</defs>
	<clipPath id="SVGID_2_">
		<use xlink:href="#SVGID_1_"  style="overflow:visible;"/>
	</clipPath>
	<path class="st0" d="M96.2,73.4c-0.3-0.2-0.6-0.1-0.8,0.2c-0.1,0.2-0.3,0.4-0.5,0.7c-0.2,0.3-0.6,0.9-1.2,1.7
		c-0.6,0.8-1.3,1.7-1.9,2.4c-0.7,0.8-1.5,1.7-2.5,2.8c-1,1.1-2,2-3,2.8c-1,0.8-2.1,1.6-3.3,2.4c-1.2,0.8-2.4,1.4-3.6,1.8
		c-1.1,0.3-2.4,0.6-3.7,0.7c-1.3,0.2-2.6-0.1-3.8-0.6c-0.9-0.4-1.7-0.9-2.3-1.6c-0.6-0.7-1-1.5-1.3-2.3c-0.2-0.9-0.3-1.7-0.3-2.6
		c0-0.9,0.1-1.8,0.3-2.7c0.3-1.3,0.8-2.5,1.5-3.6c0.7-1.2,1.4-2.2,2.4-3.1c0.9-0.9,2-1.6,3.2-2.1c1.2-0.5,2.5-0.7,3.9-0.5h0.2
		c0,0,0,0,0.1,0c0,0,0,0,0.1,0s0,0,0,0c0,0,0,0,0.1,0c0,0,0,0,0-0.1h0v0c0,0,0.1,0,0.1-0.1c0-0.1,0-0.1,0-0.1c0,0,0,0,0,0
		c0,0,0-0.1,0-0.1v-0.2c0,0,0-0.1,0-0.1c0,0,0,0,0,0s0,0,0-0.1c0,0,0-0.1,0-0.1c0,0,0,0,0,0c0,0,0,0,0-0.1c-1.1-1.1-1.8-2.1-2.1-3.3
		c4-0.6,7.4-1.4,10.3-2.3c2.9-0.9,5.2-1.9,6.9-3c0,0,0,0,0,0c-0.3-0.2-0.7-0.5-1-0.7c-0.2,0.1-0.5,0.3-0.7,0.4
		c-0.9,0.5-2.1,1-3.4,1.5c-1.3,0.5-3.1,1-5.2,1.6c-2.1,0.5-4.5,1-7.1,1.4c-0.1-0.9,0.1-1.8,0.5-2.8c-0.4,0-0.8-0.1-1.2-0.2
		c-0.3,0.7-0.4,1.3-0.5,2c0,0.4,0,0.7,0,1c-0.5,0.1-1.1,0.2-1.7,0.3c-1.6,0.2-3.2,0.4-4.8,0.5c-1.6,0.1-3.4,0.2-5.5,0.2
		c-2.1,0-4-0.2-5.8-0.4c-1.8-0.2-3.6-0.7-5.3-1.3c-1.8-0.6-3.2-1.5-4.4-2.5c-2.3-1.9-3.5-4.5-3.6-7.8c-0.1-2.4,0.8-4.3,2.6-5.6
		c1.1-0.8,2.4-1.3,4-1.6c1.6-0.2,3.1-0.1,4.6,0.4c1.9,0.6,3.2,1.8,3.9,3.6c0.2,0.6,0.3,1.3,0.1,2c-0.1,0.7-0.3,1.4-0.6,2.1
		c-0.3,0.6-0.7,1.2-1.3,1.6c-0.6,0.4-1.3,0.6-2.1,0.6c-0.4,0-0.7,0.1-1,0.3c-0.3,0.2-0.5,0.5-0.5,0.9c-0.1,0.4,0,0.7,0.3,1
		c0.2,0.3,0.5,0.5,0.9,0.5c0.3,0,0.6,0.1,0.8,0.1c1.3-0.1,2.5-0.4,3.3-1.2c0.9-0.8,1.4-1.7,1.7-2.7c0.3-1.1,0.3-2.1,0.2-3.2
		c-0.1-1.1-0.4-2-0.8-2.8c-0.9-1.9-2.4-3.1-4.4-3.7c-1.7-0.5-3.4-0.7-5.1-0.4c-1.8,0.2-3.2,0.8-4.5,1.8c-2.1,1.6-3.1,3.8-3,6.6
		c0.1,3.6,1.4,6.5,4,8.6c1.3,1.1,2.8,1.9,4.7,2.6c1.8,0.7,3.7,1.2,5.5,1.4c1.8,0.3,3.8,0.4,6,0.4c2.1,0,4,0,5.7-0.2
		c1.6-0.1,3.3-0.3,4.9-0.5c0.6-0.1,1.2-0.2,1.8-0.3c0.3,1,0.7,2,1.5,2.9c-2.4,0.1-4.6,1.1-6.6,2.9c-2.1,2-3.5,4.4-4.2,7.4
		c-0.6,2.5-0.5,4.7,0.3,6.6c0.8,1.9,2.1,3.2,4,4c1.2,0.5,2.5,0.7,3.9,0.7c4.2,0,8.6-2.2,13.3-6.6c1.4-1.3,2.7-2.7,4-4.3
		c1.3-1.6,2.2-2.8,2.7-3.4c0.5-0.6,0.8-1.2,1-1.5C96.6,73.9,96.6,73.6,96.2,73.4 M96.7,52.9c-0.5-0.4-1.1-0.7-1.8-1
		c-0.6-0.2-1.2-0.3-1.9-0.4c-0.7-0.1-1.5,0-2.3,0.1c-0.8,0.1-1.7,0.3-2.7,0.6c-0.2,0.1-0.5,0.2-0.7,0.2c-1.4,0.5-2.8,1.2-4.1,2
		c-0.1,0-0.1,0.1-0.2,0.1c-1.5,0.9-2.8,2-3.8,3.2c-0.9,1-1.6,2-2.1,3.1c0.4,0.2,0.7,0.3,1.1,0.4c0.4-0.9,1-1.8,1.8-2.7
		c0.8-0.9,1.8-1.8,2.9-2.5c0.3-0.2,0.5-0.4,0.8-0.5c1.1-0.7,2.3-1.3,3.5-1.7c0.3-0.1,0.7-0.3,1-0.4c0.8-0.2,1.6-0.4,2.3-0.5
		c0.5-0.1,1-0.1,1.5-0.1c1.1,0,2,0.2,2.8,0.5c0.4,0.2,0.7,0.4,1.1,0.6c0.9,0.7,1.3,1.6,1,2.5c-0.1,0.3-0.2,0.5-0.4,0.8
		c-0.2,0.3-0.5,0.6-0.9,1c0.2,0.4,0.3,0.8,0.5,1.1c1-0.8,1.6-1.8,1.9-2.7C98.5,55.2,98,54,96.7,52.9"/>
	<path class="st0" d="M104.6,73.4c0.3,0.2,0.4,0.5,0.2,0.8c-0.4,0.7-1,1.8-1.9,3.3c-0.5,0.8-0.8,1.4-1.1,1.9c-0.3,0.6-0.8,1-1.3,1.4
		c-0.5,0.3-1.1,0.5-1.6,0.5c-0.3,0-0.6-0.1-0.9-0.2c-0.1-0.1-0.3-0.2-0.4-0.3c-0.1-0.1-0.2-0.3-0.3-0.6c-0.1-0.3-0.1-0.6,0-1.1
		c0.1-0.5,0.3-1,0.6-1.5c0.1-0.2,0.2-0.3,0.2-0.4c1.1-2.1,1.5-3.4,1.2-4c-0.1-0.1-0.2-0.2-0.3-0.3c-0.3-0.1-0.8,0.1-1.3,0.5
		c-0.6,0.4-1.1,1-1.7,1.8c-1.9,3.3-3,5.2-3.5,5.9c-0.1,0.2-0.3,0.3-0.5,0.3c-0.1,0-0.2,0-0.3-0.1c-0.4-0.2-0.4-0.4-0.2-0.8
		c0.4-0.6,1.3-2.3,3-5v0v0c0.2-0.3,0.3-0.6,0.5-0.8c0.3-0.5,0.8-1.3,1.5-2.5c0.2-0.3,0.4-0.4,0.8-0.2c0.1,0.1,0.2,0.2,0.3,0.3
		c0.7-0.3,1.3-0.4,1.8-0.3c0.5,0.2,0.9,0.5,1,0.9c0.4,0.9,0,2.6-1.3,5L98.9,78c-0.6,1.1-0.7,1.7-0.3,1.9c0.3,0.1,0.6,0.1,1.1-0.1
		c0.5-0.2,0.8-0.6,1.1-1.1c0.3-0.5,0.7-1.1,1.1-1.9c0.9-1.5,1.5-2.5,1.9-3.2C104,73.3,104.3,73.2,104.6,73.4"/>
	<path class="st0" d="M112.1,73.4c0.3,0.2,0.4,0.5,0.2,0.8c-0.7,1.2-1.4,2.4-2.1,3.7c-0.5,0.9-1.2,1.6-2.1,2.2s-1.8,0.9-2.7,1.1
		c-0.2,0-0.3,0-0.5,0c-0.9,0-1.6-0.3-2.1-0.8c-1.2-1.2-1.2-3,0-5.2c0.6-1.2,1.4-2.2,2.3-2.9c0.9-0.7,1.7-0.9,2.4-0.7
		c0.4,0.1,0.6,0.3,0.8,0.5c0.2,0.2,0.3,0.6,0.3,0.9c0,0.4,0,0.7,0,0.9c0,0.2-0.1,0.5-0.1,0.9c0,0.1-0.1,0.2-0.1,0.3
		c-0.1,0.1-0.2,0.1-0.3,0.2c-0.1,0-0.2,0-0.3,0c-0.2,0-0.3-0.1-0.4-0.3c-0.1-0.1-0.1-0.3-0.1-0.4c0.2-1.2,0.2-1.8-0.1-1.9
		c-0.2,0-0.5,0-0.9,0.2c-0.4,0.2-0.8,0.6-1.3,1.1s-0.9,1.1-1.2,1.8c-0.9,1.8-1,3.1-0.2,3.9c0.3,0.4,0.9,0.5,1.6,0.4
		c0.7-0.1,1.4-0.3,2.1-0.8c0.7-0.5,1.3-1.1,1.8-1.9l2.1-3.7C111.5,73.3,111.8,73.2,112.1,73.4"/>
	<path class="st0" d="M121,61.9c0.5-0.8,0.9-1.6,1.1-2.3c0.3-0.7,0.4-1.1,0.5-1.4c0.1-0.3,0.1-0.4,0-0.5c-0.2-0.1-0.5,0.1-0.8,0.4
		c-0.3,0.3-0.7,0.9-1.3,1.9c-0.8,1.3-2.5,4.3-5.1,8.8c0.7-0.5,1.6-1.4,2.7-2.8c0,0,0.1-0.1,0.1-0.1C119.3,64.6,120.2,63.2,121,61.9
		 M123.8,57.4c0.2,0.7-0.1,1.8-0.8,3.3c-0.7,1.5-1.7,3.1-2.9,4.7c-0.6,0.9-1,1.6-1.3,2c-0.3,0.4-0.7,1-1.2,1.6
		c-0.5,0.6-0.8,1.1-1.1,1.4c-0.3,0.3-0.5,0.4-0.7,0.4c-0.4,0-0.6-0.1-0.8-0.4c-0.1-0.1-0.1-0.2-0.2-0.3c-2.9,5-4.5,7.7-4.6,8
		c-0.6,1.1-0.7,1.7-0.3,1.9c0.3,0.1,0.6,0.1,1.1-0.1c0.5-0.2,0.8-0.6,1.1-1.1c0.2-0.4,0.6-1,1-1.8c0.9-1.5,1.5-2.6,2-3.4
		c0.2-0.3,0.5-0.4,0.8-0.2c0.3,0.2,0.4,0.5,0.2,0.8c-0.5,0.8-1.1,1.9-1.9,3.4c-0.4,0.7-0.8,1.3-1.1,1.8c-0.3,0.6-0.8,1-1.3,1.4
		c-0.5,0.3-1.1,0.5-1.6,0.5c-0.4,0-0.7-0.1-0.9-0.2c-0.1-0.1-0.3-0.2-0.4-0.3c-0.1-0.1-0.2-0.3-0.3-0.6c-0.1-0.3-0.1-0.6-0.1-1.1
		c0.1-0.4,0.3-1,0.6-1.5c0.7-1.2,4.2-7.2,10.5-18.1c0.6-1.1,1.2-1.9,1.7-2.4c0.5-0.5,1.1-0.6,1.7-0.4
		C123.4,56.7,123.7,57,123.8,57.4"/>
	<path class="st0" d="M117.7,77c1.1-2.1,1.5-3.5,1.2-4.1c-0.1-0.1-0.2-0.2-0.3-0.2c-0.1,0-0.1,0-0.2,0c-0.4,0-0.9,0.3-1.6,0.8
		c-0.6,0.6-1.2,1.3-1.7,2.2c-0.3,0.7-0.6,1.4-0.7,2c-0.2,0.6-0.2,1.1-0.2,1.5c0,0.4,0.2,0.6,0.3,0.7c0.1,0.1,0.2,0,0.4,0
		c0.4-0.1,0.8-0.4,1.3-0.9C116.8,78.5,117.2,77.8,117.7,77 M124.3,73.4c0.3,0.2,0.4,0.5,0.2,0.8c-0.4,0.7-1.1,1.8-1.9,3.3
		c-0.4,0.7-0.8,1.3-1.1,1.8c-0.3,0.6-0.8,1-1.3,1.4c-0.5,0.3-1.1,0.5-1.6,0.5c-0.4,0-0.7-0.1-0.9-0.2c-0.4-0.2-0.6-0.5-0.7-0.9
		c-0.5,0.5-1,0.8-1.6,1c-0.2,0.1-0.5,0.1-0.7,0.1c-0.3,0-0.5-0.1-0.7-0.2c-0.4-0.2-0.6-0.5-0.8-0.9c-0.2-0.4-0.2-0.9-0.2-1.4
		c0-0.5,0.1-1.1,0.3-1.7c0.2-0.6,0.4-1.2,0.7-1.8c0.6-1.2,1.4-2.2,2.4-2.9s1.8-0.9,2.5-0.7c0.5,0.2,0.8,0.4,1,0.9
		c0.1,0.2,0.1,0.3,0.1,0.5c0.3-0.4,0.5-0.8,0.7-1.2c0.2-0.3,0.4-0.4,0.8-0.2c0.3,0.2,0.4,0.5,0.2,0.8c-1.3,2.2-2.4,4.1-3.3,5.6
		c-0.6,1.1-0.7,1.7-0.3,1.9c0.3,0.1,0.6,0.1,1.1-0.1c0.5-0.2,0.8-0.6,1.1-1.1c0.3-0.5,0.6-1.1,1.1-1.8c0.9-1.5,1.5-2.6,1.9-3.3
		C123.7,73.3,123.9,73.2,124.3,73.4"/>
	<path class="st0" d="M132.7,73.4c0.3,0.2,0.4,0.5,0.2,0.8l-0.8,1.4c-0.3,0.5-0.7,0.8-1.2,1c-0.5,0.2-1.2,0.1-2-0.2
		c-0.3-0.1-0.5-0.3-0.7-0.5c-0.4,0.8-0.7,1.3-0.9,1.6c-0.2,0.3-0.4,0.6-0.6,0.9c-0.2,0.3-0.6,0.7-1,1.1c-0.4,0.4-0.8,0.8-1.3,1.1
		c-0.5,0.3-0.9,0.4-1.4,0.4c-0.2,0-0.3,0-0.5-0.1c-0.5-0.1-0.8-0.4-1-0.9c-0.3-0.6-0.2-1.5,0.1-2.4c0.3-1,0.7-1.9,1.1-2.6
		c0.1-0.1,0.7-1.2,1.9-3.4c0.2-0.3,0.4-0.4,0.8-0.2c0.3,0.2,0.4,0.5,0.2,0.8c-1.2,2.2-1.9,3.3-1.9,3.4c-0.4,0.7-0.8,1.5-1,2.3
		c-0.2,0.8-0.3,1.4-0.1,1.7c0.1,0.1,0.1,0.2,0.2,0.2c0.4,0.1,0.9-0.1,1.6-0.7c0.6-0.6,1.3-1.3,1.9-2.3c0.2-0.3,0.6-1,1.3-2.2
		c-0.1-0.8,0-1.5,0.4-2.2c0.4-0.7,0.9-1,1.5-1c0.3,0,0.6,0.2,0.7,0.4c0.1,0.2,0.1,0.5,0,0.8c-0.2,0.4-0.7,1.1-1.3,2.2
		c0.1,0.2,0.3,0.4,0.5,0.5c0.8,0.4,1.4,0.2,1.8-0.3l0.8-1.5C132.1,73.3,132.3,73.2,132.7,73.4"/>
	<path class="st0" d="M131.9,75.7c-0.1,0.2-0.2,0.3-0.2,0.5c2-0.4,3.3-1,3.9-1.8c0.3-0.4,0.3-0.8,0.2-1.2c-0.1-0.3-0.2-0.4-0.4-0.5
		h-0.2c-0.4,0-0.9,0.3-1.6,0.8C132.9,74.1,132.4,74.8,131.9,75.7 M140.2,73.4c0.3,0.2,0.4,0.5,0.2,0.8c-0.7,1.2-1.4,2.4-2.1,3.7
		c-0.3,0.6-0.8,1.1-1.3,1.6c-0.5,0.5-1.1,0.9-1.7,1.2c-0.6,0.3-1.2,0.5-1.8,0.6c-0.2,0-0.4,0-0.5,0c-0.9,0-1.6-0.3-2.1-0.8
		c-1.2-1.2-1.2-3,0-5.2c0.6-1.2,1.4-2.2,2.4-2.9c0.9-0.7,1.7-0.9,2.4-0.7c0.6,0.2,1,0.6,1.2,1.2c0.3,0.8,0.2,1.5-0.3,2.3
		c-0.4,0.5-1,1-1.8,1.4c-0.8,0.4-1.5,0.7-2,0.8c-0.5,0.1-1,0.2-1.4,0.3c-0.2,0.9,0,1.6,0.5,2.2c0.3,0.4,0.9,0.5,1.6,0.4
		c0.7-0.1,1.4-0.3,2.1-0.8c0.7-0.5,1.3-1.1,1.8-1.9l2.1-3.7C139.6,73.3,139.8,73.2,140.2,73.4"/>
	<path class="st1" d="M128.8,31.3c5.4-11.9,17.4-20.2,31.4-20.2c19,0,34.5,15.4,34.5,34.5c0,19-15.4,34.5-34.5,34.5
		c-7.4,0-14.3-2.3-19.9-6.3"/>
	<path class="st0" d="M96.2,73.4c-0.3-0.2-0.6-0.1-0.8,0.2c-0.1,0.2-0.3,0.4-0.5,0.7c-0.2,0.3-0.6,0.9-1.2,1.7
		c-0.6,0.8-1.3,1.7-1.9,2.4c-0.7,0.8-1.5,1.7-2.5,2.8c-1,1.1-2,2-3,2.8c-1,0.8-2.1,1.6-3.3,2.4c-1.2,0.8-2.4,1.4-3.6,1.8
		c-1.1,0.3-2.4,0.6-3.7,0.7c-1.3,0.2-2.6-0.1-3.8-0.6c-0.9-0.4-1.7-0.9-2.3-1.6c-0.6-0.7-1-1.5-1.3-2.3c-0.2-0.9-0.3-1.7-0.3-2.6
		c0-0.9,0.1-1.8,0.3-2.7c0.3-1.3,0.8-2.5,1.5-3.6c0.7-1.2,1.4-2.2,2.4-3.1c0.9-0.9,2-1.6,3.2-2.1c1.2-0.5,2.5-0.7,3.9-0.5h0.2
		c0,0,0,0,0.1,0c0,0,0,0,0.1,0s0,0,0,0c0,0,0,0,0.1,0c0,0,0,0,0-0.1h0v0c0,0,0.1,0,0.1-0.1c0-0.1,0-0.1,0-0.1c0,0,0,0,0,0
		c0,0,0-0.1,0-0.1v-0.2c0,0,0-0.1,0-0.1c0,0,0,0,0,0s0,0,0-0.1c0,0,0-0.1,0-0.1c0,0,0,0,0,0c0,0,0,0,0-0.1c-1.1-1.1-1.8-2.1-2.1-3.3
		c4-0.6,7.4-1.4,10.3-2.3c2.9-0.9,5.2-1.9,6.9-3c0,0,0,0,0,0c-0.3-0.2-0.7-0.5-1-0.7c-0.2,0.1-0.5,0.3-0.7,0.4
		c-0.9,0.5-2.1,1-3.4,1.5c-1.3,0.5-3.1,1-5.2,1.6c-2.1,0.5-4.5,1-7.1,1.4c-0.1-0.9,0.1-1.8,0.5-2.8c-0.4,0-0.8-0.1-1.2-0.2
		c-0.3,0.7-0.4,1.3-0.5,2c0,0.4,0,0.7,0,1c-0.5,0.1-1.1,0.2-1.7,0.3c-1.6,0.2-3.2,0.4-4.8,0.5c-1.6,0.1-3.4,0.2-5.5,0.2
		c-2.1,0-4-0.2-5.8-0.4c-1.8-0.2-3.6-0.7-5.3-1.3c-1.8-0.6-3.2-1.5-4.4-2.5c-2.3-1.9-3.5-4.5-3.6-7.8c-0.1-2.4,0.8-4.3,2.6-5.6
		c1.1-0.8,2.4-1.3,4-1.6c1.6-0.2,3.1-0.1,4.6,0.4c1.9,0.6,3.2,1.8,3.9,3.6c0.2,0.6,0.3,1.3,0.1,2c-0.1,0.7-0.3,1.4-0.6,2.1
		c-0.3,0.6-0.7,1.2-1.3,1.6c-0.6,0.4-1.3,0.6-2.1,0.6c-0.4,0-0.7,0.1-1,0.3c-0.3,0.2-0.5,0.5-0.5,0.9c-0.1,0.4,0,0.7,0.3,1
		c0.2,0.3,0.5,0.5,0.9,0.5c0.3,0,0.6,0.1,0.8,0.1c1.3-0.1,2.5-0.4,3.3-1.2c0.9-0.8,1.4-1.7,1.7-2.7c0.3-1.1,0.3-2.1,0.2-3.2
		c-0.1-1.1-0.4-2-0.8-2.8c-0.9-1.9-2.4-3.1-4.4-3.7c-1.7-0.5-3.4-0.7-5.1-0.4c-1.8,0.2-3.2,0.8-4.5,1.8c-2.1,1.6-3.1,3.8-3,6.6
		c0.1,3.6,1.4,6.5,4,8.6c1.3,1.1,2.8,1.9,4.7,2.6c1.8,0.7,3.7,1.2,5.5,1.4c1.8,0.3,3.8,0.4,6,0.4c2.1,0,4,0,5.7-0.2
		c1.6-0.1,3.3-0.3,4.9-0.5c0.6-0.1,1.2-0.2,1.8-0.3c0.3,1,0.7,2,1.5,2.9c-2.4,0.1-4.6,1.1-6.6,2.9c-2.1,2-3.5,4.4-4.2,7.4
		c-0.6,2.5-0.5,4.7,0.3,6.6c0.8,1.9,2.1,3.2,4,4c1.2,0.5,2.5,0.7,3.9,0.7c4.2,0,8.6-2.2,13.3-6.6c1.4-1.3,2.7-2.7,4-4.3
		c1.3-1.6,2.2-2.8,2.7-3.4c0.5-0.6,0.8-1.2,1-1.5C96.6,73.9,96.6,73.6,96.2,73.4 M96.7,52.9c-0.5-0.4-1.1-0.7-1.8-1
		c-0.6-0.2-1.2-0.3-1.9-0.4c-0.7-0.1-1.5,0-2.3,0.1c-0.8,0.1-1.7,0.3-2.7,0.6c-0.2,0.1-0.5,0.2-0.7,0.2c-1.4,0.5-2.8,1.2-4.1,2
		c-0.1,0-0.1,0.1-0.2,0.1c-1.5,0.9-2.8,2-3.8,3.2c-0.9,1-1.6,2-2.1,3.1c0.4,0.2,0.7,0.3,1.1,0.4c0.4-0.9,1-1.8,1.8-2.7
		c0.8-0.9,1.8-1.8,2.9-2.5c0.3-0.2,0.5-0.4,0.8-0.5c1.1-0.7,2.3-1.3,3.5-1.7c0.3-0.1,0.7-0.3,1-0.4c0.8-0.2,1.6-0.4,2.3-0.5
		c0.5-0.1,1-0.1,1.5-0.1c1.1,0,2,0.2,2.8,0.5c0.4,0.2,0.7,0.4,1.1,0.6c0.9,0.7,1.3,1.6,1,2.5c-0.1,0.3-0.2,0.5-0.4,0.8
		c-0.2,0.3-0.5,0.6-0.9,1c0.2,0.4,0.3,0.8,0.5,1.1c1-0.8,1.6-1.8,1.9-2.7C98.5,55.2,98,54,96.7,52.9"/>
	<path class="st0" d="M104.6,73.4c0.3,0.2,0.4,0.5,0.2,0.8c-0.4,0.7-1,1.8-1.9,3.3c-0.5,0.8-0.8,1.4-1.1,1.9c-0.3,0.6-0.8,1-1.3,1.4
		c-0.5,0.3-1.1,0.5-1.6,0.5c-0.3,0-0.6-0.1-0.9-0.2c-0.1-0.1-0.3-0.2-0.4-0.3c-0.1-0.1-0.2-0.3-0.3-0.6c-0.1-0.3-0.1-0.6,0-1.1
		c0.1-0.5,0.3-1,0.6-1.5c0.1-0.2,0.2-0.3,0.2-0.4c1.1-2.1,1.5-3.4,1.2-4c-0.1-0.1-0.2-0.2-0.3-0.3c-0.3-0.1-0.8,0.1-1.3,0.5
		c-0.6,0.4-1.1,1-1.7,1.8c-1.9,3.3-3,5.2-3.5,5.9c-0.1,0.2-0.3,0.3-0.5,0.3c-0.1,0-0.2,0-0.3-0.1c-0.4-0.2-0.4-0.4-0.2-0.8
		c0.4-0.6,1.3-2.3,3-5v0v0c0.2-0.3,0.3-0.6,0.5-0.8c0.3-0.5,0.8-1.3,1.5-2.5c0.2-0.3,0.4-0.4,0.8-0.2c0.1,0.1,0.2,0.2,0.3,0.3
		c0.7-0.3,1.3-0.4,1.8-0.3c0.5,0.2,0.9,0.5,1,0.9c0.4,0.9,0,2.6-1.3,5L98.9,78c-0.6,1.1-0.7,1.7-0.3,1.9c0.3,0.1,0.6,0.1,1.1-0.1
		c0.5-0.2,0.8-0.6,1.1-1.1c0.3-0.5,0.7-1.1,1.1-1.9c0.9-1.5,1.5-2.5,1.9-3.2C104,73.3,104.3,73.2,104.6,73.4"/>
	<path class="st0" d="M112.1,73.4c0.3,0.2,0.4,0.5,0.2,0.8c-0.7,1.2-1.4,2.4-2.1,3.7c-0.5,0.9-1.2,1.6-2.1,2.2s-1.8,0.9-2.7,1.1
		c-0.2,0-0.3,0-0.5,0c-0.9,0-1.6-0.3-2.1-0.8c-1.2-1.2-1.2-3,0-5.2c0.6-1.2,1.4-2.2,2.3-2.9c0.9-0.7,1.7-0.9,2.4-0.7
		c0.4,0.1,0.6,0.3,0.8,0.5c0.2,0.2,0.3,0.6,0.3,0.9c0,0.4,0,0.7,0,0.9c0,0.2-0.1,0.5-0.1,0.9c0,0.1-0.1,0.2-0.1,0.3
		c-0.1,0.1-0.2,0.1-0.3,0.2c-0.1,0-0.2,0-0.3,0c-0.2,0-0.3-0.1-0.4-0.3c-0.1-0.1-0.1-0.3-0.1-0.4c0.2-1.2,0.2-1.8-0.1-1.9
		c-0.2,0-0.5,0-0.9,0.2c-0.4,0.2-0.8,0.6-1.3,1.1s-0.9,1.1-1.2,1.8c-0.9,1.8-1,3.1-0.2,3.9c0.3,0.4,0.9,0.5,1.6,0.4
		c0.7-0.1,1.4-0.3,2.1-0.8c0.7-0.5,1.3-1.1,1.8-1.9l2.1-3.7C111.5,73.3,111.8,73.2,112.1,73.4"/>
	<path class="st0" d="M121,61.9c0.5-0.8,0.9-1.6,1.1-2.3c0.3-0.7,0.4-1.1,0.5-1.4c0.1-0.3,0.1-0.4,0-0.5c-0.2-0.1-0.5,0.1-0.8,0.4
		c-0.3,0.3-0.7,0.9-1.3,1.9c-0.8,1.3-2.5,4.3-5.1,8.8c0.7-0.5,1.6-1.4,2.7-2.8c0,0,0.1-0.1,0.1-0.1C119.3,64.6,120.2,63.2,121,61.9
		 M123.8,57.4c0.2,0.7-0.1,1.8-0.8,3.3c-0.7,1.5-1.7,3.1-2.9,4.7c-0.6,0.9-1,1.6-1.3,2c-0.3,0.4-0.7,1-1.2,1.6
		c-0.5,0.6-0.8,1.1-1.1,1.4c-0.3,0.3-0.5,0.4-0.7,0.4c-0.4,0-0.6-0.1-0.8-0.4c-0.1-0.1-0.1-0.2-0.2-0.3c-2.9,5-4.5,7.7-4.6,8
		c-0.6,1.1-0.7,1.7-0.3,1.9c0.3,0.1,0.6,0.1,1.1-0.1c0.5-0.2,0.8-0.6,1.1-1.1c0.2-0.4,0.6-1,1-1.8c0.9-1.5,1.5-2.6,2-3.4
		c0.2-0.3,0.5-0.4,0.8-0.2c0.3,0.2,0.4,0.5,0.2,0.8c-0.5,0.8-1.1,1.9-1.9,3.4c-0.4,0.7-0.8,1.3-1.1,1.8c-0.3,0.6-0.8,1-1.3,1.4
		c-0.5,0.3-1.1,0.5-1.6,0.5c-0.4,0-0.7-0.1-0.9-0.2c-0.1-0.1-0.3-0.2-0.4-0.3c-0.1-0.1-0.2-0.3-0.3-0.6c-0.1-0.3-0.1-0.6-0.1-1.1
		c0.1-0.4,0.3-1,0.6-1.5c0.7-1.2,4.2-7.2,10.5-18.1c0.6-1.1,1.2-1.9,1.7-2.4c0.5-0.5,1.1-0.6,1.7-0.4
		C123.4,56.7,123.7,57,123.8,57.4"/>
	<path class="st0" d="M117.7,77c1.1-2.1,1.5-3.5,1.2-4.1c-0.1-0.1-0.2-0.2-0.3-0.2c-0.1,0-0.1,0-0.2,0c-0.4,0-0.9,0.3-1.6,0.8
		c-0.6,0.6-1.2,1.3-1.7,2.2c-0.3,0.7-0.6,1.4-0.7,2c-0.2,0.6-0.2,1.1-0.2,1.5c0,0.4,0.2,0.6,0.3,0.7c0.1,0.1,0.2,0,0.4,0
		c0.4-0.1,0.8-0.4,1.3-0.9C116.8,78.5,117.2,77.8,117.7,77 M124.3,73.4c0.3,0.2,0.4,0.5,0.2,0.8c-0.4,0.7-1.1,1.8-1.9,3.3
		c-0.4,0.7-0.8,1.3-1.1,1.8c-0.3,0.6-0.8,1-1.3,1.4c-0.5,0.3-1.1,0.5-1.6,0.5c-0.4,0-0.7-0.1-0.9-0.2c-0.4-0.2-0.6-0.5-0.7-0.9
		c-0.5,0.5-1,0.8-1.6,1c-0.2,0.1-0.5,0.1-0.7,0.1c-0.3,0-0.5-0.1-0.7-0.2c-0.4-0.2-0.6-0.5-0.8-0.9c-0.2-0.4-0.2-0.9-0.2-1.4
		c0-0.5,0.1-1.1,0.3-1.7c0.2-0.6,0.4-1.2,0.7-1.8c0.6-1.2,1.4-2.2,2.4-2.9s1.8-0.9,2.5-0.7c0.5,0.2,0.8,0.4,1,0.9
		c0.1,0.2,0.1,0.3,0.1,0.5c0.3-0.4,0.5-0.8,0.7-1.2c0.2-0.3,0.4-0.4,0.8-0.2c0.3,0.2,0.4,0.5,0.2,0.8c-1.3,2.2-2.4,4.1-3.3,5.6
		c-0.6,1.1-0.7,1.7-0.3,1.9c0.3,0.1,0.6,0.1,1.1-0.1c0.5-0.2,0.8-0.6,1.1-1.1c0.3-0.5,0.6-1.1,1.1-1.8c0.9-1.5,1.5-2.6,1.9-3.3
		C123.7,73.3,123.9,73.2,124.3,73.4"/>
	<path class="st0" d="M132.7,73.4c0.3,0.2,0.4,0.5,0.2,0.8l-0.8,1.4c-0.3,0.5-0.7,0.8-1.2,1c-0.5,0.2-1.2,0.1-2-0.2
		c-0.3-0.1-0.5-0.3-0.7-0.5c-0.4,0.8-0.7,1.3-0.9,1.6c-0.2,0.3-0.4,0.6-0.6,0.9c-0.2,0.3-0.6,0.7-1,1.1c-0.4,0.4-0.8,0.8-1.3,1.1
		c-0.5,0.3-0.9,0.4-1.4,0.4c-0.2,0-0.3,0-0.5-0.1c-0.5-0.1-0.8-0.4-1-0.9c-0.3-0.6-0.2-1.5,0.1-2.4c0.3-1,0.7-1.9,1.1-2.6
		c0.1-0.1,0.7-1.2,1.9-3.4c0.2-0.3,0.4-0.4,0.8-0.2c0.3,0.2,0.4,0.5,0.2,0.8c-1.2,2.2-1.9,3.3-1.9,3.4c-0.4,0.7-0.8,1.5-1,2.3
		c-0.2,0.8-0.3,1.4-0.1,1.7c0.1,0.1,0.1,0.2,0.2,0.2c0.4,0.1,0.9-0.1,1.6-0.7c0.6-0.6,1.3-1.3,1.9-2.3c0.2-0.3,0.6-1,1.3-2.2
		c-0.1-0.8,0-1.5,0.4-2.2c0.4-0.7,0.9-1,1.5-1c0.3,0,0.6,0.2,0.7,0.4c0.1,0.2,0.1,0.5,0,0.8c-0.2,0.4-0.7,1.1-1.3,2.2
		c0.1,0.2,0.3,0.4,0.5,0.5c0.8,0.4,1.4,0.2,1.8-0.3l0.8-1.5C132.1,73.3,132.3,73.2,132.7,73.4"/>
	<path class="st0" d="M131.9,75.7c-0.1,0.2-0.2,0.3-0.2,0.5c2-0.4,3.3-1,3.9-1.8c0.3-0.4,0.3-0.8,0.2-1.2c-0.1-0.3-0.2-0.4-0.4-0.5
		h-0.2c-0.4,0-0.9,0.3-1.6,0.8C132.9,74.1,132.4,74.8,131.9,75.7 M140.2,73.4c0.3,0.2,0.4,0.5,0.2,0.8c-0.7,1.2-1.4,2.4-2.1,3.7
		c-0.3,0.6-0.8,1.1-1.3,1.6c-0.5,0.5-1.1,0.9-1.7,1.2c-0.6,0.3-1.2,0.5-1.8,0.6c-0.2,0-0.4,0-0.5,0c-0.9,0-1.6-0.3-2.1-0.8
		c-1.2-1.2-1.2-3,0-5.2c0.6-1.2,1.4-2.2,2.4-2.9c0.9-0.7,1.7-0.9,2.4-0.7c0.6,0.2,1,0.6,1.2,1.2c0.3,0.8,0.2,1.5-0.3,2.3
		c-0.4,0.5-1,1-1.8,1.4c-0.8,0.4-1.5,0.7-2,0.8c-0.5,0.1-1,0.2-1.4,0.3c-0.2,0.9,0,1.6,0.5,2.2c0.3,0.4,0.9,0.5,1.6,0.4
		c0.7-0.1,1.4-0.3,2.1-0.8c0.7-0.5,1.3-1.1,1.8-1.9l2.1-3.7C139.6,73.3,139.8,73.2,140.2,73.4"/>
	<path class="st0" d="M83,51.4v7.4c0,0.9-0.5,2.4-3.6,2.4c-0.4,0-0.8,0-1.2-0.1c-0.4-0.1-0.8-0.2-1.1-0.4c-3.3-1.5-6-6.2-6-12.9
		c0-7.7,2.7-13.4,7.4-13.4c7.8,0,0.9,9.6,6.3,9.6c4.3,0,3.2-10-6.3-10c-5.4,0-11.7,4.2-11.7,13.7c0,8.3,4.4,12.6,9.9,13.5
		c0.4,0.1,0.8,0.1,1.2,0.2c0.4,0,0.9,0.1,1.3,0.1c1.6,0,2.7-0.3,3.6-0.6c1.6-0.6,2.3-0.9,4.3,0.6V51.4c0-1.2,0.7-2,0.7-2h-5.7
		C82.2,49.4,83,50.2,83,51.4 M103.6,51.9c0,7.4-2,9.4-4.4,9.4c-1.2,0-2.3-0.5-3.1-1.9v0c-0.2-0.3-0.4-0.7-0.5-1.1
		c-0.4-1.2-0.7-2.8-0.8-5c0-0.4,0-0.8,0-1.3v-0.1c0-7.3,2-9.3,4.4-9.3C101.7,42.5,103.6,44.5,103.6,51.9 M107.9,51.9
		c0-7.1-6.3-9.7-8.7-9.7c-2.3,0-8.5,2.5-8.6,9.4v0.2c0,0.3,0,0.6,0,1c0.2,3.1,1.7,5.2,3.4,6.6c0.3,0.3,0.7,0.5,1,0.7
		c1.6,1,3.2,1.5,4.2,1.5C101.6,61.6,107.9,59.1,107.9,51.9"/>
	<path class="st0" d="M116.1,61.4h-3.3c-1,0-1.7-0.7-1.7-1.7V36.4c0-1.2-0.7-2.1-0.7-2.1l5-1v26C115.4,60.6,116.1,61.4,116.1,61.4"
		/>
	<path class="st0" d="M130.7,46c0-1-0.9-3.5-3.6-3.5c-2.3,0-4.4,1.9-4.4,8.2c0,7.6,1.5,9.9,3.8,9.9c2.3,0,4.1-2,4.1-4V46z
		 M135.6,61.3h-3.3c-0.9,0-1.7-0.7-1.7-1.7v-1c-1.2,1.9-2.9,3.1-5.7,3.1c-4.3,0-6.5-4-6.5-9.7c0-6.1,2.6-9.7,8.6-9.7
		c2,0,3.5,1.2,3.6,1.7v-7.6c0-1.2-0.7-2.1-0.7-2.1l5-1v26C134.9,60.5,135.6,61.3,135.6,61.3"/>
	<path class="st0" d="M143.4,51.2h4.5c5.3,0,4.1-8.7-0.5-8.7c-2.4,0-4.1,2.3-4.1,8C143.3,50.7,143.3,51,143.4,51.2 M154.9,56.8
		c0,0-0.7,4.9-7.4,4.9c-6.1,0-8.4-5.2-8.4-9.8c0-6.3,3.6-9.7,8.5-9.7c5.2,0,7.3,4.4,7.3,9.5h-11.5c0.2,4.2,1.8,8,6.2,8
		C152.5,59.6,154.9,56.8,154.9,56.8"/>
	<path class="st0" d="M169.8,46.9c0-1.9,0.1-4.2-2.1-4.2c-2.3,0-4.4,1.9-5,4.2v12.4c0,1.2,0.7,2,0.7,2h-5.7c0,0,0.7-0.8,0.7-2v-14
		c0-1.2-0.7-2-0.7-2l5-1v3.3c0.4-1,2.3-3.3,5.2-3.3c5.4,0,6.2,4,6.2,7v10.1c0,1.2,0.7,2,0.7,2h-5.7c0,0,0.7-0.8,0.7-2V46.9z"/>
</g>
</svg>
