<?xml version="1.0" encoding="utf-8"?>
<!-- Generator: Adobe Illustrator 24.0.0, SVG Export Plug-In . SVG Version: 6.00 Build 0)  -->
<svg version="1.1" id="Layer_1" xmlns="http://www.w3.org/2000/svg" xmlns:xlink="http://www.w3.org/1999/xlink" x="0px" y="0px"
	 viewBox="0 0 240 100" style="enable-background:new 0 0 240 100;" xml:space="preserve">
<style type="text/css">
	.st0{fill:#1C1C1A;}
	.st1{font-family:'Gotham-Black';}
	.st2{font-size:17.0357px;}
	.st3{letter-spacing:-1;}
</style>
<g>
	<polygon class="st0" points="146.2,72.1 94.1,72.1 94.1,2.5 146.2,2.5 146.2,25.8 143.3,25.8 143.3,5.4 97,5.4 97,69 143.3,69 
		143.3,60 146.2,60 	"/>
	<path class="st0" d="M143.2,57.4v-17c0-6.5-3.7-10.8-10-10.8c-6.2,0-10.9,4.7-10.9,11.3v10h-3V10.8h3v22.8
		c2.1-3.7,5.7-6.7,11.4-6.7c8,0,12.7,5.5,12.7,13.1v17.5H143.2z"/>
	<path class="st0" d="M109.7,57.4V10.8h3.2v43.6h25.6v3H109.7z"/>
	<text transform="matrix(1 0 0 1 52.522 97.4598)" class="st0 st1 st2">LAMIN</text>
	<text transform="matrix(1 0 0 1 110.1694 97.4598)" class="st0 st1 st2 st3">A</text>
	<text transform="matrix(1 0 0 1 122.0967 97.4598)" class="st0 st1 st2">TE HUB</text>
</g>
</svg>
