<?xml version="1.0" encoding="utf-8"?>
<!-- Generator: Adobe Illustrator 24.0.0, SVG Export Plug-In . SVG Version: 6.00 Build 0)  -->
<svg version="1.1" id="Layer_1" xmlns="http://www.w3.org/2000/svg" xmlns:xlink="http://www.w3.org/1999/xlink" x="0px" y="0px"
	 viewBox="0 0 240 100" style="enable-background:new 0 0 240 100;" xml:space="preserve">
<style type="text/css">
	.st0{fill:#1C1C1A;}
	.st1{fill:#FFFFFF;}
</style>
<g>
	<path class="st0" d="M120,95.2c25,0,45.2-20.2,45.2-45.2S145,4.8,120,4.8S74.8,25,74.8,50S95,95.2,120,95.2z"/>
	<g>
		<path class="st1" d="M157.5,52.4c-2,3.8-5.3,4.6-10,4.7c-11.5,0.2-9.2-11.7-8.8-16.2c0.4-2.8-1.1-3.3-1.7-3.3
			c-1.8,0-3.7,1.3-5,2.7c-0.2-2.3-2-2.4-3.7-2.4h-1.2c1.3,1.6,0.4,8.9,0.1,11.2c0,1.5,1.3,2.5,2.3,2.5c0.4,0,0.7,0,1.1-0.1
			c0.2-0.1,0.3-0.1,0.3-0.1c-1.2-1.2,0-5.5,0.3-6.8c0.5-2,3-3.5,3.5-3.3c0.6,0.3-0.1,0.4,0.1,6.6c0.4,11.7,8.7,13.2,12.8,13.4
			c9.3,0.3,13.4-3.8,12.7-7.1C160,53.9,158.1,51.1,157.5,52.4L157.5,52.4z M125.6,40.5L125.6,40.5c0-2.3-1.7-2.6-3.3-2.6
			c-0.6,0-1.1,0.1-1.4,0.1c0.5,0.6,0.5,1.9,0.5,2.5c0,3.7-0.2,6.6-0.2,8.9c0,1.5,0.4,2.5,2.3,2.5c1.1,0,1.2,0,1.3-0.2
			c-0.2-0.2-0.5-0.1-0.5-1.5C124.2,48.8,124.5,46.1,125.6,40.5L125.6,40.5z M123.3,32.4L123.3,32.4c-1.6,0-2.8,1.2-2.8,2.6
			c0,1.4,1.3,2.6,2.8,2.6c1.6,0,2.9-1.2,2.9-2.6S124.9,32.4,123.3,32.4z M114.5,30.6L114.5,30.6c0.6,1,1,2.2,1,3.4
			c0,10-3,15.2-4,15.2c-1.6,0-0.9-11.1-3.5-11.1c-1.2,0-3.5,0.7-3.5,0.8c2.9,3.8,1.8,13,6.8,13s8.5-15.8,8.5-19.3
			c-0.2-2.2-1.5-2.6-2.6-2.6c-0.6,0-1.2,0.1-1.8,0.3L114.5,30.6L114.5,30.6z M105,45.2L105,45.2c0-0.2-0.1-0.3-0.1-0.3
			c-0.2,0-0.4,0.1-0.4,0.3c0,0,0,0.1,0,0.1c0,1.1-1.8,3.8-4.9,3.8c-0.3,0-2,0.1-2.5-1.4c5.3,0,6.7-3.8,6.7-5.4
			c0-3.4-1.9-4.6-5.1-4.6c-3.8,0-6.4,3.3-6.4,7.6c0,3.6,2,5.8,5.5,5.8C101.6,51.1,104.7,49.9,105,45.2L105,45.2z M96.3,45.4
			L96.3,45.4c0-0.2-0.1-0.4-0.1-0.8c0-3.1,0.9-4.4,2.2-4.4c0.9,0,1.4,0.9,1.4,2C99.8,44.3,97.8,45,96.3,45.4L96.3,45.4z M81.5,51.5
			L81.5,51.5c-0.6,2-0.7,3.5-0.4,4.5s1.2,1.8,2.5,2.5c1.1,0.5,2.4,0.7,3.7,0.6c1.2-0.2,3.7-0.8,7.4-2c1.8-0.5,2.9-1,3.4-1.4
			c0.5-0.4,0.6-1,0.4-1.7c-0.2-0.6-0.7-1-1.3-1.1c-0.6-0.1-1.6-0.1-3,0.3l-4.7,1c-2.7,0.6-4.2,0.8-4.6,0.4c-0.2-0.2,0.2-2.1,1.3-5.7
			c0,0,2.5-9.2,5.8-15c0.4-0.6,0.6-1.4,0.5-2.1c0-0.8-0.3-1.5-0.8-2c-0.5-0.5-1-0.8-1.5-0.8s-0.7,0.2-0.9,0.6L88.8,31
			c-0.3,0.8-0.6,1.5-0.9,2.1c-0.4,1-0.7,1.9-1.1,2.8C86.8,36.1,83.5,43.4,81.5,51.5L81.5,51.5z"/>
		<path class="st1" d="M147.4,67c0,0.4,0.2,0.7,0.4,0.9c0.3,0.2,0.8,0.3,1.2,0.3c0.4,0,0.8-0.1,1.1-0.3c0.3-0.2,0.4-0.5,0.4-0.9
			c0-0.3-0.1-0.6-0.3-0.8c-0.2-0.1-0.4-0.2-0.6-0.3l-0.6-0.2c-0.2,0-0.3-0.1-0.5-0.2c-0.1-0.1-0.2-0.2-0.2-0.3
			c0-0.1,0.1-0.3,0.2-0.3c0.1-0.1,0.3-0.1,0.5-0.1c0.2,0,0.3,0,0.5,0.1c0.2,0.1,0.3,0.3,0.3,0.5h0.8c0-0.4-0.1-0.7-0.4-0.9
			c-0.3-0.2-0.7-0.3-1-0.3c-0.4,0-0.8,0.1-1.1,0.3c-0.3,0.2-0.4,0.5-0.4,0.9c0,0.3,0.1,0.6,0.4,0.8c0.3,0.2,0.6,0.2,0.9,0.3l0.4,0.1
			c0.2,0,0.4,0.1,0.5,0.2c0.1,0.1,0.2,0.2,0.2,0.3c0,0.2-0.1,0.4-0.3,0.4c-0.2,0.1-0.3,0.1-0.5,0.1c-0.3,0-0.5-0.1-0.7-0.2
			c-0.1-0.1-0.1-0.2-0.2-0.4L147.4,67z M146.9,64.3h-2.8v3.8h2.9v-0.7h-2.1v-1h1.8v-0.6h-1.8V65h2L146.9,64.3L146.9,64.3z
			 M140.5,64.3L140.5,64.3V65h1.1v3.1h0.8V65h1.1v-0.7H140.5z M137.1,68.2h0.8l0.3-0.8h1.4l0.3,0.8h0.9l-1.3-3.8h-0.9L137.1,68.2z
			 M138.9,65.2L138.9,65.2l0.5,1.5h-1L138.9,65.2z M133.5,68.2h0.8v-2.7l1.6,2.7h0.8v-3.8h-0.8V67l-1.5-2.6h-0.9V68.2L133.5,68.2z
			 M132.8,64.3H132v3.8h0.8V64.3L132.8,64.3z M129.5,67.3L129.5,67.3l-0.7-3h-1.2v3.8h0.8v-3.2l0.7,3.2h0.8l0.7-3.2v3.2h0.8v-3.8
			h-1.1L129.5,67.3z M123.6,68.2h0.8l0.3-0.8h1.4l0.3,0.8h0.9l-1.3-3.8h-0.9L123.6,68.2L123.6,68.2z M125.4,65.2L125.4,65.2l0.5,1.5
			h-1L125.4,65.2z M120.6,68.2h2.7v-0.7h-1.9v-3.1h-0.8L120.6,68.2L120.6,68.2z M118.4,64.3h-2.8v3.8h2.9v-0.7h-2.1v-1h1.8v-0.6
			h-1.8V65h2L118.4,64.3L118.4,64.3z M113.5,67.2L113.5,67.2l-0.8-2.9h-0.9l1.3,3.8h0.8l1.3-3.8h-0.8L113.5,67.2L113.5,67.2z
			 M111.4,64.3h-0.8v3.8h0.8L111.4,64.3L111.4,64.3z M107.1,64.3L107.1,64.3V65h1.1v3.1h0.8V65h1.1v-0.7H107.1z M103.7,68.2h0.8
			l0.3-0.8h1.4l0.3,0.8h0.9l-1.3-3.8h-0.9L103.7,68.2z M105.5,65.2L105.5,65.2l0.5,1.5h-1L105.5,65.2z M102,64.3h-1.8v3.8h0.8v-1.5
			h0.8c0.2,0,0.3,0,0.4,0.1c0.1,0.1,0.1,0.3,0.1,0.5v0.4c0,0.1,0,0.2,0.1,0.3c0,0.1,0.1,0.1,0.1,0.2h0.9v-0.1
			c-0.1-0.1-0.1-0.1-0.2-0.2v-0.6c0-0.2,0-0.4-0.1-0.6c-0.1-0.1-0.2-0.2-0.4-0.3c0.2,0,0.4-0.2,0.4-0.4c0.1-0.2,0.2-0.3,0.2-0.5
			c0-0.1,0-0.3-0.1-0.4c-0.1-0.1-0.1-0.2-0.2-0.3c-0.1-0.1-0.2-0.2-0.4-0.3C102.4,64.4,102.3,64.3,102,64.3L102,64.3z M101.9,65
			L101.9,65c0.1,0,0.3,0,0.4,0.1c0.2,0.1,0.2,0.2,0.2,0.5c0,0.2-0.1,0.4-0.2,0.4c-0.1,0-0.2,0.1-0.4,0.1H101v-1L101.9,65z
			 M99.5,66.2L99.5,66.2c0-0.7-0.2-1.2-0.6-1.6c-0.7-0.6-1.7-0.6-2.5,0c-0.8,0.9-0.8,2.2,0,3.1c0.3,0.3,0.7,0.4,1.2,0.4
			c0.5,0,0.9-0.1,1.2-0.4C99.4,67.5,99.5,66.9,99.5,66.2L99.5,66.2z M97.7,67.6L97.7,67.6c-0.3,0-0.6-0.1-0.8-0.3
			c-0.2-0.2-0.3-0.5-0.3-1c0-0.3,0.1-0.7,0.3-1c0.2-0.2,0.5-0.3,0.8-0.3c0.3,0,0.6,0.1,0.8,0.4c0.2,0.3,0.3,0.6,0.3,1
			c0,0.3-0.1,0.7-0.3,1C98.3,67.5,98,67.6,97.7,67.6z M92.1,66.3L92.1,66.3c0,0.5,0.2,1.1,0.5,1.5c0.3,0.4,0.8,0.6,1.3,0.5
			c0.4,0,0.8-0.1,1.1-0.4c0.3-0.3,0.5-0.6,0.5-1h-0.8c0,0.2-0.1,0.3-0.2,0.4c-0.2,0.2-0.4,0.3-0.6,0.3c-0.3,0-0.5-0.1-0.6-0.3
			c-0.4-0.6-0.4-1.3,0-1.9c0.1-0.2,0.4-0.3,0.6-0.3c0.2,0,0.5,0.1,0.6,0.3c0.1,0.1,0.2,0.3,0.2,0.4h0.8c0-0.3-0.1-0.5-0.3-0.7
			c-0.3-0.4-0.8-0.6-1.4-0.6c-0.4,0-0.9,0.2-1.2,0.5C92.2,65.1,92.1,65.6,92.1,66.3L92.1,66.3z M91.5,64.3h-2.8v3.8h2.9v-0.7h-2.1
			v-1h1.8v-0.6h-1.8V65h2V64.3L91.5,64.3z M86.5,64.3h-1.7v3.8h1.7c0.5,0,1-0.2,1.3-0.7c0.2-0.4,0.3-0.8,0.3-1.3
			c0-0.2,0-0.4-0.1-0.6c-0.1-0.2-0.1-0.4-0.3-0.6c-0.2-0.2-0.4-0.4-0.6-0.5C87,64.4,86.8,64.3,86.5,64.3L86.5,64.3z M86.4,65
			L86.4,65c0.3,0,0.6,0.1,0.8,0.3c0.1,0.3,0.2,0.6,0.2,0.9c0,0.3,0,0.5-0.1,0.8c-0.1,0.3-0.4,0.6-0.8,0.5h-0.8V65L86.4,65L86.4,65z"
			/>
		<g>
			<path class="st1" d="M141.1,38.3v-2.5h1.1c0.2,0,0.4,0,0.5,0.1c0.1,0,0.2,0.1,0.3,0.2c0.1,0.1,0.1,0.2,0.1,0.4
				c0,0.2-0.1,0.3-0.2,0.4c-0.1,0.1-0.3,0.2-0.5,0.2c0.1,0.1,0.2,0.1,0.2,0.1c0.1,0.1,0.2,0.2,0.3,0.3l0.4,0.7h-0.4l-0.3-0.5
				c-0.1-0.1-0.1-0.2-0.2-0.3c-0.1-0.1-0.1-0.2-0.2-0.2s-0.1-0.1-0.2-0.1h-0.5v1.1L141.1,38.3L141.1,38.3z M141.4,36.9h0.7
				c0.1,0,0.3,0,0.4-0.1c0.1,0,0.2-0.1,0.2-0.2c0-0.1,0.1-0.1,0.1-0.2c0-0.1,0-0.2-0.1-0.3c-0.1-0.1-0.3-0.1-0.4-0.1h-0.8V36.9z"/>
			<path class="st1" d="M142,39.3c-1.2,0-2.2-1-2.2-2.2c0-1.2,1-2.2,2.2-2.2s2.2,1,2.2,2.2C144.2,38.3,143.3,39.3,142,39.3
				C142,39.3,142,39.3,142,39.3z M142,35.2c-1.1,0-1.9,0.9-1.9,1.9c0,1.1,0.9,1.9,1.9,1.9c1.1,0,1.9-0.9,1.9-1.9c0,0,0,0,0,0
				C144,36.1,143.1,35.2,142,35.2C142,35.2,142,35.2,142,35.2z"/>
		</g>
	</g>
</g>
</svg>
