<?xml version="1.0" encoding="utf-8"?>
<!-- Generator: Adobe Illustrator 24.0.0, SVG Export Plug-In . SVG Version: 6.00 Build 0)  -->
<svg version="1.1" id="Layer_1" xmlns="http://www.w3.org/2000/svg" xmlns:xlink="http://www.w3.org/1999/xlink" x="0px" y="0px"
	 viewBox="0 0 240 100" style="enable-background:new 0 0 240 100;" xml:space="preserve">
<style type="text/css">
	.st0{fill:#1C1C1A;}
	.st1{fill:#FFFFFF;}
	.st2{fill:#FFFEF6;}
</style>
<g>
	<circle class="st0" cx="115.1" cy="48.8" r="44.6"/>
	<circle class="st1" cx="115.1" cy="48.8" r="41.3"/>
	<circle class="st0" cx="115.1" cy="48.8" r="39"/>
	<g>
		
			<image style="overflow:visible;opacity:0.5;enable-background:new    ;" width="63" height="64" xlink:href="7D6C03C0.png"  transform="matrix(1.1229 0 0 1.1229 150.782 41.2573)">
		</image>
		<g>
			<path class="st1" d="M176.8,73.1l-1.1,5.5c0,0,3-0.5,3.2-0.6c2.9-1,5-3.5,7.6-4.9c0.6-0.3,6.4-2.9,6.7-1.7l-1.6-5.8
				c0.6-1.1,1.3-2.3,1.8-3.4s1.6-2.3,1.7-3.5c-2.7,0.1-5.7,2.1-7.9,3.4c-1,0.7-2.2,1.4-3.2,2.1c-0.9,0.7-2.5,1.5-3.2,2.5L176.8,73.1
				z"/>
		</g>
	</g>
	<g>
		
			<image style="overflow:visible;opacity:0.5;enable-background:new    ;" width="102" height="71" xlink:href="7D6C03C1.png"  transform="matrix(1.128 0 0 1.128 92.6861 32.0094)">
		</image>
		<g>
			<path class="st1" d="M117.4,49.1c2.5,1,12.5,8.6,15.1,9.4c4.3,1.4,8.8,2.1,13.2,2.2c4.1,0.1,8.2-0.2,12.3-0.3
				c4.4-0.2,9,0,13.5,0.6c3.2,0.5,6.5,1.4,9.1,3.4c0.5,0.3,0.9,0.7,1.3,1.1l-2.3,11.8c0-0.2-1.4-1-1.5-1c-2.1-1.1-4.2-1.8-6.5-2.5
				c-4.2-1.3-8.7-2.1-13.1-2.5c-4.4-0.3-8.9,0-13.5-0.3c-3.8-0.2-7.5-0.6-11.3-1.6c-2.4-0.7-5.1-1.4-7-3.3
				C125,63.7,117.1,49.6,117.4,49.1z"/>
		</g>
	</g>
	<path class="st0" d="M177.6,61.6c-1.5,0-2.9-0.2-4.2-0.8c-1,0.3-2.2,0.6-3.3,0.6h-6.5c-0.8,0-1.6-0.1-2.4-0.3
		c-1,0.3-2.1,0.5-3.1,0.5c-1.5,0-2.9-0.2-4.2-0.8c-1.4,0.6-2.7,0.8-4.2,0.8c-1.6,0-3.3-0.3-4.8-1c-0.1,0.1-0.2,0.1-0.5,0.2
		c-1.6,0.7-3.3,1-5,1c-1.6,0-3.2-0.3-4.6-0.9c-1.5,0.7-3.2,0.9-4.8,0.9c-1.5,0-2.9-0.2-4.2-0.8c-1,0.3-2.2,0.6-3.3,0.6h-6.4
		c-0.8,0-1.5-0.1-2.3-0.3c-1.1,0.3-2.4,0.6-3.7,0.6c-1.4,0-2.7-0.2-4.1-0.7c-1,0.3-2.1,0.5-3.2,0.5h-6.4c-0.6,0-1.1,0-1.7-0.1
		c-0.7,0.1-1.3,0.1-1.9,0.1h-6.5c-0.6,0-1,0-1.6-0.1c-0.6,0.1-1.3,0.1-1.8,0.1h-6.4c-0.7,0-1.4-0.1-2.1-0.2
		c-0.7,0.1-1.5,0.2-2.2,0.2h-6.6c-1.3,0-2.4-0.2-3.5-0.8c-1.1,0.6-2.4,0.9-3.7,0.9c-1.3,0-2.5-0.3-3.7-0.9c-0.2,0.1-0.6,0.2-0.8,0.3
		c-1,0.3-2.2,0.6-3.3,0.6h-2.4c-1.4,0-2.7-0.3-3.9-1c-1.9-1.1-3.1-3.2-3.1-5.5c0-2.1,0.9-4,2.5-5.2l2.7-9.5
		c-0.2-0.8-0.3-1.6-0.3-2.4c0-2.2,1-4.2,2.7-5.5c1.3-0.8,2.7-1.3,4.2-1.3h4.3c1.8,0,3.7,0.6,5,1.8c0.9,0.8,1.6,1.8,1.9,3l0.9-1.1
		c1-1.3,2.3-2.3,3.7-2.9c1.3-0.6,2.7-0.8,4.1-0.8h4.2c0.6,0,1.3,0.1,1.8,0.2c0.5-0.5,0.9-0.8,1.4-1.1c1.4-0.9,3.1-1.4,4.7-1.4
		c1.5,0,3,0.3,4.3,1.1c0.1,0,0.3-0.1,0.5-0.1c1.6-0.5,3.3-0.7,5-0.7c1.5,0,3.1,0.3,4.4,0.9c0.2-0.1,0.5-0.1,0.6-0.2
		c1.6-0.5,3.3-0.7,5-0.7c2.4,0,4.4,0.6,5.9,1.8c1.4,1,2.3,2.5,2.6,4.1c1.3,0.1,2.4,0.5,3.5,0.9c0.2-0.1,0.5-0.1,0.7-0.2
		c1.6-0.5,3.3-0.8,5-0.8c1.4,0,2.6,0.2,3.9,0.8c1.4-0.6,2.9-0.8,4.3-0.8c1.6,0,3.1,0.3,4.4,1c1.6-0.7,3.2-1,4.9-1
		c2.2,0,4.3,0.7,6,2.1c0.2-0.1,0.3-0.2,0.6-0.3c1.9-1.1,4.4-1.7,7.8-1.7c3.1,0,5.8,0.7,7.9,1.9c0.8-0.5,1.7-0.9,2.5-1.1
		c1.6-0.5,3.3-0.8,5-0.8c1.4,0,2.6,0.2,3.9,0.8c1.4-0.6,2.9-0.8,4.3-0.8c2.5,0,5,0.9,6.8,2.7c1.8,1.8,2.9,4.2,2.7,6.7
		c0,1.1-0.2,2.4-0.6,3.4l-0.6,1.7l0,0c0.3,0.9,0.6,1.8,0.6,2.7c0,1.8-0.6,3.7-1.6,5c-1,1.4-2.4,2.4-3.9,3.1
		C181,61.2,179.3,61.6,177.6,61.6z"/>
	<path class="st1" d="M186,49.7l0.7-2.4c0.3-1,0.5-2.1,0.5-3.1c0-2.2-0.8-4.2-2.3-5.8c-1.6-1.5-3.7-2.3-5.8-2.3
		c-1.5,0-3.1,0.3-4.4,0.9c-1.1-0.7-2.5-0.9-3.8-0.9c-1.6,0-3.1,0.2-4.7,0.7c-1,0.3-2.1,0.8-3,1.5c-0.1-0.1-0.3-0.2-0.6-0.3
		c-1.9-1.3-4.4-1.8-7.4-1.8c-3,0-5.2,0.5-7,1.5c-0.5,0.2-0.9,0.6-1.4,1c-0.1-0.1-0.1-0.1-0.2-0.2c-1.6-1.5-3.7-2.3-5.8-2.3
		c-1.7,0-3.4,0.5-5,1.3c-1.4-0.8-2.9-1.3-4.4-1.3c-1.5,0-3.1,0.3-4.4,0.9c-1.1-0.7-2.5-0.9-3.8-0.9c-1.6,0-3.1,0.2-4.6,0.7
		c-0.5,0.1-0.8,0.2-1.3,0.5c-1.3-0.8-2.7-1.1-4.3-1.1h-0.3c-0.1-1.7-1-3.3-2.4-4.4c-1.3-1-3-1.6-5-1.6c-1.6,0-3.1,0.2-4.6,0.7
		c-0.3,0.1-0.8,0.2-1.1,0.5c-1.4-0.7-2.9-1.1-4.3-1c-1.6,0-3.1,0.2-4.6,0.7c-0.3,0.1-0.7,0.2-1,0.3c-1.1-0.9-2.6-1.4-4.1-1.4
		c-1.4,0-2.7,0.5-3.9,1.1c-0.7,0.5-1.3,1-1.7,1.6c-0.7-0.2-1.5-0.5-2.3-0.3h-4.2c-1.3,0-2.4,0.2-3.5,0.7c-1.3,0.6-2.3,1.4-3.1,2.5
		l-2.5,3.2L63.9,37c-0.3-1.3-1-2.4-1.9-3.3c-1.1-1-2.6-1.5-4.1-1.5h-4.4c-1.3,0-2.4,0.3-3.4,1c-1.4,1-2.2,2.5-2.2,4.2
		c0,0.7,0.1,1.4,0.3,2.1l0.1,0.2l-3,10.4c-1.5,1-2.3,2.6-2.3,4.3c0,1.7,0.9,3.3,2.4,4.2c0.9,0.6,2.1,0.8,3.2,0.8H51
		c0.9,0,1.8-0.1,2.7-0.5c0.5-0.2,0.9-0.5,1.4-0.8c1,0.8,2.3,1.3,3.7,1.3c1.3,0,2.5-0.3,3.7-1.1c0.1,0.1,0.2,0.2,0.3,0.2
		c0.9,0.6,2.1,0.8,3.2,0.8h6.6c0.7,0,1.5-0.1,2.2-0.2c0.7,0.2,1.4,0.3,2.1,0.3h6.4c0.6,0,1.3,0,1.8-0.1c0.6,0.1,1,0.1,1.6,0.1h6.5
		c0.7,0,1.3-0.1,1.9-0.2c0.6,0.1,1.1,0.2,1.7,0.2h6.4c1,0,1.9-0.1,2.9-0.5l0.2-0.1c1.3,0.6,2.6,0.9,4.1,0.8c1.3,0,2.5-0.2,3.7-0.6
		c0.7,0.2,1.5,0.3,2.3,0.3h6.4c1,0,1.9-0.1,3-0.5c0.1,0,0.2-0.1,0.3-0.2c1.4,0.6,2.7,0.9,4.2,0.9c1.5,0,3-0.2,4.3-0.9
		c0.1-0.1,0.3-0.1,0.5-0.2c1.4,0.8,3,1.1,4.6,1.1c1.5,0,3-0.2,4.3-0.9c0.3-0.1,0.7-0.3,1-0.6l0.1,0.1c1.4,0.8,3.1,1.1,4.7,1.1
		c1.5,0,2.9-0.3,4.2-0.9c1.4,0.6,2.7,0.9,4.2,0.9c1,0,2.1-0.1,3.1-0.5c0.8,0.3,1.6,0.5,2.4,0.5h6.5c1,0,1.9-0.1,3-0.5
		c0.1,0,0.2-0.1,0.5-0.2c1.4,0.7,2.7,0.9,4.2,0.9c1.5,0,3-0.2,4.3-0.9c1.4-0.6,2.5-1.5,3.3-2.6c0.9-1.3,1.4-2.7,1.4-4.2
		c0-0.8-0.1-1.5-0.5-2.2C186.2,50,186,49.9,186,49.7z"/>
	<path class="st0" d="M58.5,58.4c-1.3,0-2.4-0.5-3.2-1.4c-0.1-0.1-0.2-0.3-0.5-0.6c-0.5,0.7-1,1.3-1.8,1.6c-0.7,0.2-1.5,0.3-2.3,0.3
		h-2.4c-0.8,0-1.7-0.2-2.4-0.6c-1-0.6-1.7-1.7-1.7-3c0-0.5,0.1-0.9,0.2-1.4c0.2-0.7,0.8-1.4,1.5-1.8c0.1-0.1,0.2-0.2,0.3-0.2
		l3.2-11.3l-0.2-0.7C49,38.9,49,38.3,49,37.7c0-1.3,0.6-2.4,1.6-3.1c0.8-0.5,1.7-0.8,2.6-0.7h4.3c1.1,0,2.3,0.3,3.2,1.1
		c0.7,0.7,1.3,1.6,1.5,2.6l1.3,4.2l4.2-5.2c0.7-0.9,1.6-1.6,2.5-2.1c0.9-0.3,1.9-0.6,3-0.6h4.2c0.8,0,1.6,0.1,2.3,0.6
		c1.1,0.6,1.8,1.7,1.8,3c0,0.5-0.1,0.9-0.2,1.4c-0.2,0.7-0.6,1.3-1.1,1.6c-0.2,0.2-0.5,0.3-0.8,0.6l0,0l-3.3,11.8l0.1,0.2
		c0.2,0.6,0.5,1.1,0.5,1.7c0,0.3,0,0.7-0.1,1V56v0.1c-0.3,1-1.1,1.9-2.2,2.3c-0.7,0.2-1.5,0.5-2.3,0.3h-6.6c-0.8,0-1.7-0.2-2.4-0.6
		c-0.5-0.2-0.8-0.6-1-0.9c-0.2,0.2-0.5,0.5-0.7,0.6C60.5,58.1,59.5,58.4,58.5,58.4z"/>
	<path class="st0" d="M85.2,42.7c-1.5,0-2.9-0.6-3.8-1.6c-1-1-1.6-2.3-1.6-3.8l0,0c0-0.9,0.2-1.9,0.7-2.7c0.5-0.9,1.1-1.6,1.9-2.2
		c0.9-0.6,2.1-0.9,3.2-0.9c1.5,0,2.9,0.6,3.9,1.5c1,1,1.6,2.4,1.6,3.8c0,2.1-1,3.9-2.7,5C87.4,42.4,86.2,42.7,85.2,42.7z"/>
	<path class="st0" d="M76.5,58.4c-0.9,0-1.9-0.2-2.7-0.8c-1.1-0.8-1.7-2.4-1.3-3.8v-0.1v-0.1c0.3-0.9,0.9-1.6,1.8-2.1l2.2-7.1
		c-0.1-0.1-0.1-0.2-0.2-0.3c-0.6-0.8-0.7-1.8-0.5-2.9c0.6-2.2,3-2.9,3.7-3.1c1.4-0.5,2.7-0.6,4.2-0.6c1.8,0,3.2,0.5,4.2,1.3
		c1.1,0.9,1.8,2.4,1.8,3.9c0,0.7-0.1,1.5-0.3,2.2L87,52.5c0,0.1,0.1,0.1,0.1,0.2c0.6,0.8,0.7,1.8,0.3,2.7v0.1v0.1
		c-0.3,1-1.1,1.8-2.2,2.2c-0.8,0.2-1.6,0.5-2.4,0.3L76.5,58.4z"/>
	<path class="st0" d="M86.3,58.4c-0.9,0-1.9-0.2-2.7-0.8c-1.1-0.8-1.7-2.4-1.3-3.8v-0.1c0.3-0.9,0.9-1.6,1.8-2.2l4-13
		c0-0.1-0.1-0.1-0.1-0.2c-0.6-0.8-0.8-1.9-0.5-3c0.6-2.2,3-2.9,3.8-3.1c1.4-0.5,2.7-0.6,4.2-0.6c1.8,0,3.2,0.5,4.2,1.3
		c1.1,0.9,1.8,2.4,1.8,3.9c0,0.7-0.1,1.4-0.3,2.1l-4.2,13.7c0.1,0.1,0.1,0.1,0.1,0.2c0.6,0.8,0.7,1.8,0.3,2.7v0.1v0.1
		c-0.3,1-1.1,1.8-2.2,2.2c-0.8,0.2-1.6,0.5-2.4,0.3L86.3,58.4z"/>
	<path class="st0" d="M110.1,58.7c-1.5,0-2.9-0.3-4.1-1c-0.2,0.1-0.5,0.3-0.8,0.5c-0.8,0.2-1.6,0.5-2.4,0.3h-6.4
		c-0.9,0-1.9-0.2-2.7-0.8c-1.1-0.8-1.7-2.4-1.3-3.8v-0.1c0.3-0.9,0.9-1.6,1.8-2.2l4-13l-0.1-0.2c-0.6-0.8-0.8-1.9-0.5-3
		c0.6-2.2,3-2.9,3.8-3.1c1.4-0.5,2.7-0.6,4.2-0.6c1.8,0,3.2,0.5,4.2,1.3c1.1,0.9,1.8,2.4,1.8,3.9c0,0.3,0,0.7-0.1,1
		c0.6-0.1,1.1-0.2,1.8-0.2c1.7,0,3.3,0.6,4.6,1.6s1.9,2.6,1.9,4.2c0.1,2.2-1.1,4.2-3.2,5.1c0,0.2,0.1,0.6,0.1,0.8v0.1
		c0.3,0.3,0.6,0.7,0.8,1c0.2,0.5,0.3,1,0.3,1.6c0,1.1-0.3,2.3-1,3.2c-0.7,1-1.6,1.8-2.7,2.3C112.7,58.5,111.4,58.7,110.1,58.7z"/>
	<path class="st0" d="M139.5,58.7c-1.6,0-3.2-0.5-4.6-1.4c-0.3,0.2-0.7,0.5-1,0.6c-1.1,0.6-2.5,0.8-3.8,0.8c-1.5,0-3-0.3-4.2-1.1
		c-0.2,0.2-0.6,0.3-0.9,0.5c-0.8,0.2-1.6,0.5-2.4,0.3h-6.4c-1,0-1.9-0.2-2.7-0.8c-1.1-0.8-1.6-2.2-1.4-3.5v-0.1v-0.1
		c0.3-0.9,0.9-1.6,1.8-2.2l2.2-7.1c-0.1-0.1-0.1-0.2-0.2-0.3c-0.6-0.8-0.7-1.8-0.3-2.9c0.6-2.2,3-2.9,3.7-3.1
		c1.4-0.5,2.7-0.6,4.2-0.6c1.4,0,2.6,0.3,3.7,1.1c0.1-0.1,0.3-0.2,0.5-0.2c1.3-0.6,2.6-0.9,4-0.9c1.6,0,3.2,0.5,4.3,1.5
		c0.2-0.1,0.5-0.3,0.7-0.5c1.4-0.7,2.9-1.1,4.3-1.1c1.8,0,3.5,0.7,4.8,1.8c1.3,1.3,1.9,3,1.9,4.8c0,0.9-0.1,1.7-0.5,2.6l-0.9,3.1
		c0.2,0.2,0.3,0.6,0.6,0.8c0.2,0.5,0.3,1,0.3,1.6c0,1.1-0.3,2.4-1,3.3c-0.7,0.9-1.7,1.7-2.7,2.2C142.1,58.5,140.7,58.7,139.5,58.7z"
		/>
	<path class="st0" d="M158.1,58.5c-1.4,0-2.6-0.2-3.8-0.8c-0.1-0.1-0.2-0.1-0.5-0.2c-0.1,0.1-0.3,0.2-0.5,0.2
		c-1.1,0.6-2.4,0.8-3.8,0.8c-1.4,0-2.7-0.3-3.9-0.9c-1.1-0.6-2.1-1.5-2.6-2.6c-0.6-1-0.8-2.2-0.8-3.3c0-0.5,0-0.9,0.1-1.5V50
		c0.5-1.9,1.6-3.7,3.2-4.7c0.2-0.1,0.3-0.2,0.6-0.3c-0.1-0.3-0.1-0.8-0.1-1.1c0-1.1,0.3-3.3,3-4.8c1.5-0.9,3.5-1.3,6.3-1.3
		c2.7,0,4.9,0.6,6.7,1.6c2.2,1.3,3.3,3.5,3.3,6c0,1-0.1,1.9-0.5,2.9l-0.5,1.4c0.2,0.2,0.5,0.5,0.6,0.8c0.2,0.6,0.3,1.1,0.5,1.7
		c0,1.3-0.5,2.4-1.1,3.3c-0.7,0.9-1.6,1.6-2.6,2.2C160.5,58.3,159.3,58.5,158.1,58.5z"/>
	<path class="st0" d="M177.6,58.7c-1.5,0-3-0.3-4.3-1.1c-0.2,0.2-0.6,0.3-0.9,0.6c-0.8,0.2-1.6,0.5-2.4,0.3h-6.5
		c-1,0-1.9-0.2-2.7-0.8c-1.1-0.8-1.6-2.2-1.4-3.5V54v-0.1c0.3-0.9,0.9-1.6,1.8-2.2l2.2-7.1c-0.1-0.1-0.1-0.2-0.2-0.3
		c-0.6-0.8-0.7-1.8-0.5-2.9c0.6-2.2,3-2.9,3.7-3.1c1.4-0.5,2.7-0.6,4.2-0.6c1.4,0,2.6,0.3,3.8,1.1c0.1-0.1,0.3-0.1,0.5-0.2
		c1.3-0.6,2.6-0.9,4.1-0.9c1.8,0,3.5,0.6,4.8,1.8c1.3,1.3,1.9,3,1.9,4.8c0,0.9-0.1,1.7-0.5,2.6l-0.9,3.1c0.2,0.2,0.3,0.6,0.6,0.8
		c0.2,0.5,0.3,1,0.3,1.6c0,1.3-0.3,2.4-1.1,3.3c-0.7,0.9-1.7,1.7-2.7,2.2C180.2,58.5,179,58.7,177.6,58.7z"/>
	<path class="st1" d="M182.6,46c0.2-0.6,0.2-1.1,0.2-1.7c0-1-0.3-1.9-1-2.7c-0.8-0.7-1.7-1.1-2.7-1c-1,0-1.9,0.2-2.9,0.7
		c-1,0.6-1.8,1.4-2.5,2.3c0.1-0.8-0.1-1.6-0.7-2.2c-0.6-0.6-1.4-0.8-2.3-0.8c-1.1,0-2.3,0.1-3.3,0.5c-1,0.3-1.7,0.7-1.8,1.1
		c-0.1,0.1,0,0.3,0,0.5c0.1,0.1,0.2,0.2,0.3,0.3c0.1,0.1,0.3,0.2,0.5,0.5c0.1,0.1,0.1,0.3,0.1,0.5s0,0.2,0,0.3l-2.5,8.2
		c-0.1,0.3-0.2,0.7-0.5,1c-0.2,0.2-0.5,0.5-0.7,0.6c-0.2,0.1-0.5,0.3-0.6,0.6s0,0.5,0.2,0.7c0.3,0.2,0.7,0.2,1,0.2h6.5
		c0.5,0,0.9,0,1.3-0.1c0.2-0.1,0.5-0.2,0.6-0.6c0-0.1,0-0.2,0-0.3c-0.1-0.1-0.2-0.2-0.2-0.3c-0.1-0.1-0.2-0.2-0.3-0.5
		c-0.1-0.1-0.1-0.3-0.1-0.6c0-0.2,0-0.5,0.1-0.6l1.7-5.8c0.1-0.6,0.5-1,0.8-1.5c0.3-0.3,0.7-0.6,1.1-0.6c0.2,0,0.5,0.1,0.6,0.2
		s0.2,0.3,0.2,0.6s-0.1,0.5-0.1,0.6l-1.5,4.1c-0.3,0.8-0.5,1.5-0.5,2.4c0,0.9,0.5,1.7,1.1,2.3s1.7,0.9,3,0.9c0.9,0,1.8-0.1,2.6-0.5
		c0.7-0.2,1.3-0.7,1.6-1.3c0.3-0.5,0.6-1,0.6-1.6c0-0.1,0-0.3-0.1-0.5c0-0.1-0.1-0.2-0.2-0.2s-0.1,0.1-0.3,0.3
		c-0.1,0.2-0.3,0.3-0.6,0.3c-0.1,0-0.2,0-0.2-0.1c-0.1-0.1-0.1-0.2-0.1-0.3s0-0.2,0.1-0.3L182.6,46z"/>
	<path class="st1" d="M91.1,24.3l0.3-0.2l0.3,0.3l0,0c0-0.3,0.1-0.7,0.3-1c0.2-0.2,0.7-0.3,1-0.1c0-0.5,0.1-0.8,0.3-1.1
		c0.5-0.5,1-0.3,1.5,0.3l1.3,1.5l-0.3,0.3l-1.3-1.5c-0.3-0.5-0.7-0.5-1-0.2c-0.2,0.2-0.3,0.6-0.2,0.9l1.5,1.7l-0.3,0.3l-1.3-1.6
		c-0.3-0.5-0.7-0.5-1-0.2c-0.2,0.2-0.3,0.6-0.2,0.9l1.5,1.7l-0.3,0.3L91.1,24.3z"/>
	<path class="st1" d="M94.8,20c-0.1-0.1-0.1-0.3,0.1-0.5c0.1-0.1,0.3-0.1,0.5,0.1c0.1,0.1,0.1,0.3-0.1,0.5
		C95.1,20.3,94.9,20.3,94.8,20z M95.5,20.8l0.5-0.3l1.7,2.5l-0.5,0.3L95.5,20.8z"/>
	<path class="st1" d="M98.1,22L96,18.7l0.5-0.2l2.1,3.3c0.1,0.1,0.2,0.1,0.2,0.1s0.1,0,0.1-0.1l0.2,0.3c-0.1,0.1-0.1,0.1-0.2,0.2
		C98.7,22.4,98.3,22.3,98.1,22z"/>
	<path class="st1" d="M97.6,17.6l0.5-0.2l1.4,2.7l0,0l0.5-2.1l0.5-0.2l-0.3,1.6l1.9,1.1l-0.5,0.2l-1.5-0.9l-0.2,0.9l0.3,0.7
		l-0.5,0.2L97.6,17.6z"/>
	<path class="st1" d="M103.3,18.9l-0.6-1.6l-0.5,0.1l-0.1-0.3l0.5-0.2l-0.2-0.8l0.5-0.1l0.3,0.8l0.8-0.3l0.1,0.5l-0.8,0.3l0.6,1.6
		c0.1,0.3,0.3,0.6,0.7,0.3c0.1,0,0.2-0.1,0.3-0.2l0.2,0.3c-0.1,0.1-0.3,0.2-0.5,0.3C103.9,19.8,103.6,19.5,103.3,18.9z"/>
	<path class="st1" d="M104.2,14.8l0.5-0.1l0.3,1.1l0.1,0.6c0.1-0.3,0.5-0.7,0.8-0.8c0.6-0.2,1,0.1,1.3,0.9l0.6,1.8l-0.5,0.1
		l-0.5-1.8c-0.1-0.6-0.3-0.8-0.8-0.7c-0.3,0.1-0.5,0.3-0.7,0.7l0.6,2.2l-0.5,0.1L104.2,14.8z"/>
	<path class="st1" d="M108.2,16.8c-0.2-1,0.3-1.7,1.1-1.8s1.3,0.3,1.5,1.3c0,0.1,0,0.2,0,0.3l-2.1,0.3c0.1,0.7,0.6,1,1.1,0.9
		c0.2,0,0.6-0.2,0.7-0.3l0.2,0.3c-0.2,0.2-0.6,0.5-0.9,0.5C109.1,18.3,108.5,17.8,108.2,16.8z M110.3,16.2c-0.1-0.6-0.5-0.9-0.9-0.8
		c-0.5,0.1-0.8,0.5-0.7,1.1L110.3,16.2z"/>
	<path class="st1" d="M112.7,19l0.1-0.5c0.1,0,0.1,0,0.2,0c0.3,0,0.6-0.3,0.7-0.7l0.1-0.2l-1.4-3.1h0.6l0.7,1.7
		c0.1,0.2,0.2,0.6,0.3,0.8l0,0c0.1-0.2,0.1-0.6,0.2-0.9l0.5-1.7h0.5l-1,3.4c-0.2,0.6-0.5,1.1-1.1,1.1C112.9,19,112.8,19,112.7,19z"
		/>
	<path class="st1" d="M115.6,16.2c0.1-1,0.8-1.6,1.5-1.5c0.8,0,1.1,0.7,1.1,1.5c0,0.1,0,0.2,0,0.3l-2.1-0.1c0,0.7,0.3,1.1,0.9,1.1
		c0.2,0,0.6,0,0.8-0.2l0.1,0.3c-0.3,0.2-0.7,0.2-1,0.2C116.2,17.8,115.6,17.1,115.6,16.2z M117.8,15.9c0-0.6-0.2-0.9-0.7-1
		c-0.5,0-0.8,0.3-0.9,0.9L117.8,15.9z"/>
	<path class="st1" d="M118.7,17.1c0.1-0.7,0.7-0.9,2.1-0.8c0.1-0.3,0-0.8-0.5-0.9c-0.3,0-0.7,0-0.9,0.2l-0.1-0.3
		c0.3-0.2,0.8-0.2,1.3-0.2c0.8,0.1,1,0.7,0.9,1.4l-0.3,1.8l-0.5-0.1v-0.3l0,0c-0.3,0.2-0.7,0.3-1,0.2C119,18,118.6,17.6,118.7,17.1
		L118.7,17.1z M120.6,17.4l0.1-0.8c-1,0-1.4,0.1-1.5,0.6c0,0.2,0.1,0.5,0.3,0.6h0.1C120,17.6,120.3,17.5,120.6,17.4L120.6,17.4z"/>
	<path class="st1" d="M122.5,15.4l0.5,0.1l-0.1,0.6l0,0c0.2-0.3,0.6-0.5,1-0.5c0.1,0,0.2,0.1,0.3,0.1l-0.2,0.5
		c-0.1,0-0.2-0.1-0.2-0.1c-0.2-0.1-0.6,0-0.9,0.5l-0.5,1.9l-0.5-0.1L122.5,15.4z"/>
	<path class="st1" d="M124.9,15.9l0.5,0.1l-0.1,0.5l0,0c0.3-0.2,0.8-0.2,1.1-0.1c0.6,0.2,0.8,0.7,0.5,1.5l-0.6,1.8l-0.5-0.1l0.6-1.8
		c0.2-0.6,0.1-0.8-0.3-0.9c-0.3-0.1-0.6,0-0.9,0.2l-0.7,2.2l-0.5-0.1L124.9,15.9z"/>
	<path class="st1" d="M129.8,17.4c0.2-0.6,0.7-0.8,1.3-0.6c0.1,0.1,0.3,0.2,0.5,0.3l-0.2,0.3c-0.1-0.1-0.2-0.1-0.2-0.2
		c-0.2-0.1-0.5,0-0.7,0.3l-1.6,3.2l-0.5-0.2L129.8,17.4z M129.2,17.6l0.5,0.1l1,0.5l-0.2,0.3l-1.5-0.7L129.2,17.6z"/>
	<path class="st1" d="M130.3,19.8c0.6-0.9,1.4-1,2.1-0.7c0.7,0.3,0.9,1.3,0.5,2.2c-0.6,0.9-1.4,1-2.1,0.7
		C130,21.6,129.8,20.7,130.3,19.8z M132.3,21.1c0.3-0.6,0.3-1.3-0.1-1.5c-0.5-0.2-1,0-1.4,0.6c-0.3,0.6-0.2,1.3,0.2,1.5
		C131.4,21.9,132,21.6,132.3,21.1L132.3,21.1z"/>
	<path class="st1" d="M134.4,20.5l0.3,0.2l-0.3,0.5l0,0c0.3-0.2,0.8-0.2,1,0c0.1,0.1,0.2,0.1,0.2,0.2l-0.3,0.3
		c-0.1-0.1-0.1-0.1-0.2-0.2c-0.2-0.1-0.6-0.2-1,0.1l-1.1,1.6l-0.5-0.3L134.4,20.5z"/>
	<path class="st1" d="M136,24.4l1.1-1.3l-0.3-0.3l0.2-0.3l0.3,0.3l0.6-0.6l0.3,0.3l-0.6,0.7l0.6,0.6l-0.2,0.3l-0.6-0.6l-1.1,1.3
		c-0.2,0.2-0.3,0.6,0,0.8c0.1,0.1,0.2,0.1,0.3,0.1l-0.2,0.3c-0.2-0.1-0.3-0.1-0.5-0.3C135.4,25.3,135.5,24.9,136,24.4z"/>
	<path class="st1" d="M137.1,25.6c0.5-0.5,1.1-0.2,2.2,0.6c0.2-0.2,0.5-0.7,0.1-1c-0.2-0.2-0.6-0.3-0.9-0.5l0.1-0.3
		c0.5,0.1,0.8,0.3,1.1,0.6c0.6,0.6,0.3,1.1-0.1,1.6l-1.4,1.3l-0.3-0.3l0.2-0.3l0,0c-0.3,0-0.8-0.1-1-0.5
		C136.8,26.7,136.8,26.1,137.1,25.6C137.1,25.7,137.1,25.6,137.1,25.6z M138.4,27l0.6-0.6c-0.8-0.7-1.3-0.7-1.5-0.5
		c-0.2,0.1-0.2,0.5,0,0.7c0,0,0,0,0.1,0.1C137.8,26.9,138,27,138.4,27z"/>
	<path class="st1" d="M138.8,28.1h0.5c0,0.3,0.1,0.7,0.3,0.9c0.2,0.3,0.6,0.3,0.8,0.1c0.2-0.2,0.1-0.6,0-0.9
		c-0.1-0.5-0.3-0.9,0.1-1.3c0.5-0.3,0.9-0.2,1.4,0.2c0.2,0.2,0.3,0.6,0.3,0.9h-0.5c0-0.2-0.1-0.5-0.2-0.7c-0.2-0.3-0.6-0.3-0.7-0.1
		c-0.1,0.2-0.1,0.6,0,0.9c0.1,0.5,0.3,0.9-0.1,1.3c-0.3,0.3-0.9,0.2-1.4-0.3C138.9,28.9,138.8,28.6,138.8,28.1z"/>
	<path class="st1" d="M141.1,30.1l1.4-1l-0.2-0.3l0.3-0.2l0.3,0.3l0.8-0.5l0.2,0.3l-0.7,0.5l0.5,0.7l-0.3,0.2l-0.5-0.7l-1.4,1
		c-0.3,0.2-0.5,0.5-0.2,0.7c0.1,0.1,0.1,0.2,0.2,0.2l-0.2,0.3c-0.1-0.1-0.3-0.2-0.5-0.5C140.4,30.9,140.6,30.4,141.1,30.1z"/>
	<path class="st1" d="M142.6,31.2c0.9-0.5,1.7-0.2,2.1,0.3c0.5,0.7,0.1,1.4-0.6,1.8c-0.1,0-0.2,0.1-0.2,0.1l-1-1.8
		c-0.6,0.3-0.7,0.9-0.5,1.4c0.1,0.2,0.3,0.5,0.6,0.6l-0.2,0.3c-0.3-0.1-0.6-0.5-0.8-0.7C141.5,32.6,141.8,31.7,142.6,31.2z
		 M143.9,32.9c0.6-0.3,0.7-0.7,0.5-1.1c-0.2-0.5-0.7-0.6-1.3-0.2L143.9,32.9z"/>
	<path class="st1" d="M137.4,74.8l-0.3,0.2l-0.3-0.3l0,0c0,0.3-0.1,0.7-0.5,1c-0.3,0.2-0.7,0.2-1,0c0,0.5-0.1,0.8-0.5,1
		c-0.5,0.3-1,0.2-1.5-0.3l-1.1-1.6l0.5-0.3l1.1,1.5c0.3,0.5,0.7,0.6,0.9,0.3c0.2-0.2,0.3-0.6,0.3-0.8l-1.4-1.8l0.5-0.3l1.1,1.5
		c0.3,0.5,0.7,0.6,0.9,0.3c0.2-0.2,0.3-0.6,0.3-0.8l-1.4-1.8l0.5-0.3L137.4,74.8z"/>
	<path class="st1" d="M133,78l-0.5,0.2l-1.6-2.6l0.5-0.2L133,78z M133.6,78.8c0.1,0.1,0,0.3-0.1,0.5l0,0c-0.1,0.1-0.3,0.1-0.5-0.1
		l0,0c-0.1-0.1,0-0.3,0.1-0.5C133.2,78.6,133.4,78.7,133.6,78.8z"/>
	<path class="st1" d="M130.4,76.6l1.8,3.4l-0.5,0.2l-1.8-3.4c-0.1-0.1-0.1-0.1-0.2-0.1c0,0-0.1,0-0.1,0.1l-0.2-0.3
		c0.1-0.1,0.1-0.1,0.2-0.2C129.9,76.2,130.1,76.3,130.4,76.6z"/>
	<path class="st1" d="M130.5,81l-0.5,0.2l-1.3-2.7l0,0l-0.6,2.1l-0.6,0.2l0.5-1.6l-1.8-1.3l0.6-0.2l1.4,1l0.2-0.8l-0.3-0.7l0.5-0.2
		L130.5,81z"/>
	<path class="st1" d="M124.9,79.4l0.5,1.6l0.5-0.1l0.1,0.3l-0.5,0.1l0.2,0.8l-0.5,0.1l-0.2-0.8l-0.8,0.2l-0.1-0.5l0.8-0.2l-0.5-1.6
		c-0.1-0.3-0.3-0.6-0.7-0.5c-0.1,0-0.2,0.1-0.3,0.2l-0.2-0.3c0.1-0.1,0.3-0.2,0.5-0.2C124.4,78.4,124.8,78.8,124.9,79.4z"/>
	<path class="st1" d="M123.7,83.5l-0.5,0.1l-0.2-1.3l-0.1-0.6c-0.2,0.3-0.5,0.6-0.9,0.7c-0.7,0.1-1-0.2-1.1-1l-0.5-1.9l0.5-0.1
		l0.3,1.8c0.1,0.6,0.3,0.8,0.7,0.7c0.3-0.1,0.5-0.2,0.7-0.7l-0.5-2.2l0.5-0.1L123.7,83.5z"/>
	<path class="st1" d="M119.9,81.2c0.1,1-0.5,1.7-1.3,1.7c-0.8,0.1-1.3-0.5-1.4-1.3c0-0.1,0-0.2,0-0.3l2.1-0.2
		c-0.1-0.7-0.6-1-1.1-0.9c-0.2,0-0.6,0.1-0.7,0.3l-0.2-0.3c0.2-0.2,0.6-0.3,1-0.5C119.1,79.7,119.8,80.2,119.9,81.2z M117.7,81.6
		c0.1,0.6,0.3,0.9,0.9,0.9c0.5-0.1,0.8-0.6,0.8-1L117.7,81.6z"/>
	<path class="st1" d="M115.5,78.8l-0.1,0.5c-0.1,0-0.1,0-0.2,0c-0.3,0-0.6,0.2-0.7,0.7l-0.1,0.2l1.1,3.1H115l-0.6-1.7
		c-0.1-0.2-0.2-0.6-0.2-0.9l0,0c-0.1,0.2-0.2,0.6-0.2,0.9l-0.6,1.7h-0.5l1.3-3.3c0.2-0.6,0.6-1,1.1-1
		C115.3,78.7,115.4,78.7,115.5,78.8z"/>
	<path class="st1" d="M112.5,81.4c-0.1,1-0.9,1.5-1.6,1.4c-0.8-0.1-1.1-0.7-1-1.6c0-0.1,0-0.2,0.1-0.3l2.1,0.2
		c0.1-0.6-0.2-1.1-0.8-1.1l0,0c-0.2,0-0.6,0-0.8,0.1l-0.1-0.3c0.3-0.1,0.7-0.2,1-0.2C112,79.8,112.6,80.5,112.5,81.4z M110.3,81.4
		c-0.1,0.6,0.1,1,0.7,1c0.5,0,0.9-0.2,1-0.8L110.3,81.4z"/>
	<path class="st1" d="M109.5,80.3c-0.1,0.7-0.8,0.9-2.1,0.7c-0.1,0.3,0,0.8,0.5,0.9c0.3,0,0.7,0,0.9-0.1l0.1,0.3
		c-0.5,0.1-0.8,0.2-1.3,0.1c-0.7-0.1-0.9-0.7-0.8-1.5l0.5-1.8l0.5,0.1v0.3l0,0c0.3-0.2,0.7-0.2,1.1-0.2
		C109.3,79.4,109.6,79.7,109.5,80.3L109.5,80.3z M107.7,79.8l-0.2,0.8c1,0.1,1.5-0.1,1.5-0.5c0.1-0.2-0.1-0.6-0.3-0.6h-0.1
		C108.2,79.6,107.9,79.7,107.7,79.8L107.7,79.8z"/>
	<path class="st1" d="M105.5,81.8l-0.5-0.1l0.1-0.6l0,0c-0.2,0.3-0.7,0.5-1,0.3c-0.1,0-0.2-0.1-0.3-0.1l0.2-0.5
		c0.1,0.1,0.2,0.1,0.2,0.1c0.2,0.1,0.6,0,0.9-0.5l0.6-1.9l0.5,0.1L105.5,81.8z"/>
	<path class="st1" d="M103.2,81l-0.5-0.1l0.1-0.5l0,0c-0.3,0.2-0.8,0.2-1.1,0.1c-0.6-0.2-0.7-0.8-0.5-1.5l0.7-1.8l0.5,0.2l-0.7,1.7
		c-0.2,0.6-0.1,0.8,0.2,1c0.3,0.1,0.6,0,0.9-0.1l0.8-2.1l0.5,0.2L103.2,81z"/>
	<path class="st1" d="M98.4,79.2c-0.3,0.6-0.8,0.8-1.3,0.5c-0.1-0.1-0.3-0.2-0.3-0.3l0.3-0.3c0.1,0.1,0.1,0.2,0.2,0.2
		c0.2,0.1,0.5,0,0.7-0.3l1.7-3.1l0.3,0.3L98.4,79.2z M99,79l-0.5-0.2l-1-0.6l0.2-0.3l1.4,0.8L99,79z"/>
	<path class="st1" d="M98.1,76.7c-0.6,0.8-1.5,1-2.1,0.6c-0.7-0.5-0.8-1.3-0.2-2.2c0.6-0.8,1.5-0.9,2.1-0.6
		C98.4,75,98.7,75.9,98.1,76.7z M96.1,75.5c-0.3,0.6-0.3,1.1,0.1,1.5c0.5,0.3,1,0.1,1.4-0.5c0.3-0.6,0.3-1.1-0.1-1.5
		C97.2,74.7,96.6,74.9,96.1,75.5L96.1,75.5z"/>
	<path class="st1" d="M94.1,75.8l-0.3-0.2l0.3-0.5l0,0c-0.3,0.2-0.8,0.1-1,0c-0.1-0.1-0.1-0.1-0.2-0.2l0.3-0.3
		c0,0.1,0.1,0.1,0.2,0.2c0.2,0.1,0.6,0.2,1-0.1l1.3-1.5l0.5,0.3L94.1,75.8z"/>
	<path class="st1" d="M92.7,71.8l-1.3,1.3l0.3,0.3l-0.2,0.2l-0.3-0.3l-0.7,0.6l-0.3-0.3l0.6-0.6l-0.6-0.6l0.3-0.3l0.6,0.6l1.3-1.3
		c0.2-0.2,0.3-0.5,0.1-0.8c-0.1-0.1-0.2-0.1-0.3-0.2l0.2-0.3c0.2,0.1,0.3,0.2,0.5,0.3C93.3,71,93.2,71.5,92.7,71.8z"/>
	<path class="st1" d="M91.7,70.6c-0.5,0.5-1.1,0.2-2.1-0.7c-0.3,0.2-0.5,0.6-0.2,1c0.2,0.2,0.6,0.5,0.8,0.5l-0.1,0.3
		c-0.5-0.1-0.8-0.3-1.1-0.7c-0.5-0.6-0.3-1.1,0.2-1.6l1.5-1.3l0.2,0.3l-0.2,0.2l0,0c0.3,0,0.7,0.2,1,0.5C92,69.7,92,70.1,91.7,70.6
		L91.7,70.6z M90.4,69.1l-0.7,0.6c0.8,0.7,1.1,0.8,1.5,0.6c0.2-0.1,0.2-0.5,0.1-0.7c0,0,0,0-0.1-0.1C91.1,69.2,90.8,69.1,90.4,69.1
		L90.4,69.1z"/>
	<path class="st1" d="M90.1,67.9h-0.5c0-0.3,0-0.7-0.2-0.9c-0.2-0.3-0.6-0.3-0.8-0.2c-0.2,0.1-0.1,0.6-0.1,0.9
		c0.1,0.5,0.2,0.9-0.2,1.3c-0.5,0.3-0.9,0.2-1.4-0.3c-0.2-0.3-0.3-0.7-0.2-1h0.5c0,0.2,0,0.6,0.2,0.7c0.2,0.3,0.5,0.3,0.7,0.2
		c0.2-0.1,0.1-0.5,0-0.9s-0.2-1,0.2-1.3c0.5-0.3,1-0.2,1.4,0.3C90,67.1,90.1,67.6,90.1,67.9z"/>
	<path class="st1" d="M87.9,65.9l-1.5,0.9l0.2,0.3l-0.3,0.2L86.1,67l-0.8,0.3L85.1,67l0.7-0.5l-0.3-0.7l0.3-0.2l0.5,0.7l1.5-0.9
		c0.3-0.2,0.5-0.5,0.2-0.7c-0.1-0.1-0.1-0.2-0.2-0.2l0.2-0.3c0.1,0.1,0.3,0.2,0.3,0.5C88.6,65.2,88.4,65.6,87.9,65.9z"/>
	<path class="st1" d="M86.4,64.6c-0.9,0.5-1.7,0.1-2.1-0.5c-0.3-0.7,0-1.4,0.7-1.7c0.1,0,0.2-0.1,0.2-0.1l0.9,1.8
		c0.6-0.3,0.8-0.9,0.5-1.4c-0.1-0.2-0.3-0.5-0.6-0.6l0.2-0.3c0.3,0.2,0.6,0.5,0.8,0.8C87.6,63.4,87.4,64.2,86.4,64.6z M85.3,62.9
		c-0.6,0.2-0.7,0.7-0.5,1.1c0.2,0.5,0.7,0.6,1.3,0.3L85.3,62.9z"/>
	<path class="st1" d="M162.4,51.9c-0.1-0.1-0.1-0.2-0.2-0.2s-0.1,0.1-0.3,0.3c-0.1,0.2-0.3,0.3-0.6,0.3s-0.3-0.1-0.3-0.5
		c0-0.1,0-0.2,0-0.2l1.1-3.9c0.2-0.7,0.3-1.4,0.3-2.2c0-1.6-0.7-2.9-1.9-3.7c-1.3-0.8-3.1-1.3-5.1-1.3c-2.2,0-3.8,0.3-4.8,0.9
		c-1,0.6-1.6,1.4-1.6,2.4c0,0.6,0.3,1.1,0.8,1.5c0.7,0.5,1.4,0.7,2.2,0.6c1,0,1.7-0.2,2.3-0.8c0.5-0.5,0.8-1.1,0.8-1.8
		c0-0.3-0.1-0.7-0.1-0.9c0.5,0,0.9,0.1,1.3,0.3c0.3,0.2,0.5,0.7,0.5,1c0,0.6-0.1,1.3-0.3,1.8l-0.7,1.8c-1.5-0.5-3.1-0.7-4.6-0.7
		c-1.3,0-2.5,0.3-3.7,1c-1,0.7-1.7,1.7-1.9,3c0,0.3-0.1,0.6-0.1,0.9c0,0.7,0.1,1.4,0.5,1.9c0.3,0.7,0.9,1.1,1.5,1.5
		c0.8,0.5,1.6,0.6,2.5,0.6s1.7-0.2,2.5-0.6s1.5-0.9,2.1-1.6c0.2,0.7,0.8,1.3,1.5,1.6c0.8,0.3,1.6,0.6,2.5,0.6c0.8,0,1.5-0.1,2.3-0.5
		c0.7-0.3,1.3-0.8,1.6-1.3c0.3-0.5,0.6-1,0.6-1.6C162.5,52.1,162.5,52,162.4,51.9z M154.2,50.9c-0.1,0.3-0.3,0.7-0.7,0.9
		c-0.2,0.2-0.5,0.2-0.8,0.3c-0.2,0-0.5-0.1-0.6-0.2c-0.1-0.2-0.2-0.5-0.2-0.7c0-0.5,0.2-0.9,0.5-1.3c0.3-0.3,0.8-0.6,1.3-0.6
		c0.3,0,0.7,0,1,0.1L154.2,50.9z"/>
	<path class="st1" d="M140.9,40.6c-1,0-2.1,0.2-3.1,0.8c-0.9,0.5-1.8,1.4-2.6,2.6c0-0.9-0.5-1.8-1.1-2.5c-0.7-0.7-1.7-1-2.6-0.9
		c-0.9,0-1.9,0.2-2.7,0.6c-1,0.6-1.8,1.3-2.4,2.3c0.1-0.8-0.2-1.6-0.8-2.1c-0.6-0.6-1.4-0.8-2.2-0.8c-1.1,0-2.3,0.1-3.3,0.5
		c-1,0.3-1.7,0.7-1.8,1.1c-0.1,0.1,0,0.3,0,0.5c0.1,0.1,0.2,0.2,0.3,0.3s0.3,0.2,0.5,0.5c0.1,0.1,0.1,0.3,0.1,0.5c0,0.1,0,0.2,0,0.3
		l-2.5,8.2c-0.1,0.3-0.2,0.7-0.5,1c-0.2,0.2-0.5,0.5-0.7,0.6c-0.2,0.1-0.5,0.3-0.6,0.6c-0.1,0.2,0,0.5,0.2,0.7
		c0.3,0.2,0.7,0.2,1,0.2h6.4c0.5,0,0.9,0,1.4-0.1c0.2-0.1,0.5-0.2,0.6-0.6c0-0.1,0-0.2,0-0.3c-0.1-0.1-0.2-0.2-0.2-0.3
		c-0.1-0.1-0.3-0.2-0.5-0.5c-0.1-0.1-0.1-0.3-0.1-0.6s0-0.5,0.1-0.6l1.8-6c0.1-0.5,0.5-0.9,0.8-1.3c0.2-0.2,0.6-0.3,1-0.5
		c0.2,0,0.5,0.1,0.6,0.2c0.1,0.1,0.2,0.3,0.2,0.6s-0.1,0.5-0.1,0.6l-1.6,4.1c-0.3,0.8-0.5,1.5-0.5,2.4s0.5,1.7,1.1,2.3
		c0.7,0.6,1.7,0.9,3,0.9c0.9,0,1.8-0.1,2.6-0.5c0.7-0.2,1.3-0.7,1.6-1.3c0.3-0.5,0.6-1,0.6-1.6c0-0.1,0-0.3-0.1-0.5
		s-0.1-0.2-0.2-0.2s-0.1,0.1-0.3,0.3c-0.1,0.2-0.3,0.3-0.6,0.3c-0.1,0-0.2,0-0.2-0.1c-0.1-0.1-0.1-0.2-0.1-0.3c0-0.1,0-0.2,0-0.3
		l1.6-5c0.2-0.5,0.5-0.9,0.9-1.4c0.2-0.2,0.6-0.5,1-0.5c0.2,0,0.5,0.1,0.6,0.2s0.2,0.3,0.2,0.6s-0.1,0.5-0.1,0.6l-1.6,4.1
		c-0.3,0.8-0.5,1.5-0.5,2.4c0,0.9,0.5,1.7,1.1,2.3c0.7,0.6,1.7,0.9,3,0.9c0.9,0,1.8-0.1,2.6-0.5c0.7-0.2,1.3-0.7,1.6-1.3
		c0.3-0.5,0.6-1,0.6-1.6c0-0.1,0-0.3-0.1-0.5c0-0.1-0.1-0.2-0.2-0.2s-0.1,0.1-0.3,0.3c-0.1,0.2-0.3,0.3-0.6,0.3
		c-0.1,0-0.2,0-0.2-0.1c-0.1-0.1-0.1-0.2-0.1-0.3c0-0.1,0-0.2,0-0.3l1.7-5.6c0.2-0.6,0.2-1.1,0.2-1.7c0-1-0.3-1.9-1-2.7
		C142.9,40.9,141.9,40.6,140.9,40.6z"/>
	<path class="st1" d="M114.6,52c0-0.1-0.1-0.2-0.2-0.2c-0.1,0-0.1,0.1-0.3,0.3c-0.1,0.2-0.3,0.3-0.6,0.3c-0.2,0-0.3-0.1-0.3-0.3
		c0-0.1,0-0.2,0.1-0.3l0.2-0.9c0.1-0.3,0.2-0.8,0.2-1.1c0-0.8-0.3-1.5-0.9-1.9c-0.6-0.5-1.6-0.8-2.9-0.9c0.2-0.2,0.5-0.6,0.6-1
		c0.1-0.3,0.2-0.8,0.5-1.1c0.1-0.2,0.3-0.2,0.5-0.2c0,0.6,0.2,1,0.6,1.4c0.5,0.5,1.1,0.7,1.8,0.6c0.8,0,1.6-0.2,2.2-0.8
		c0.6-0.6,0.9-1.4,0.8-2.2c0-0.8-0.3-1.6-1-2.2c-0.7-0.6-1.6-0.9-2.6-0.9c-1.1,0-2.2,0.3-3,1.1c-0.8,0.9-1.5,2.1-1.8,3.2
		c-0.1,0.3-0.3,0.7-0.6,1c-0.2,0.2-0.6,0.3-0.9,0.3H106l2.5-8c0.1-0.5,0.2-0.8,0.2-1.3c0-0.7-0.2-1.3-0.8-1.7
		c-0.5-0.5-1.3-0.6-2.4-0.6s-2.3,0.1-3.3,0.5c-1,0.3-1.7,0.7-1.8,1.1c-0.1,0.1,0,0.3,0,0.5c0.1,0.1,0.2,0.2,0.5,0.3
		c0.1,0.1,0.3,0.2,0.5,0.3c0.1,0.1,0.1,0.3,0.1,0.5c0,0.1,0,0.3-0.1,0.5l-4.3,14.1c-0.1,0.3-0.2,0.7-0.5,1c-0.2,0.2-0.5,0.5-0.7,0.6
		c-0.2,0.1-0.5,0.3-0.6,0.6c-0.1,0.2,0,0.5,0.2,0.7c0.3,0.2,0.7,0.2,1,0.2h6.4c0.5,0,0.9,0,1.3-0.1c0.2-0.1,0.5-0.3,0.6-0.6
		c0-0.1,0-0.2,0-0.3c-0.1-0.1-0.2-0.2-0.2-0.3c-0.1-0.1-0.2-0.2-0.3-0.5c-0.1-0.2-0.1-0.3-0.1-0.6s0-0.3,0.1-0.6l1.3-4.1h0.6
		c0.2,0,0.6,0,0.8,0.1c0.1,0.1,0.2,0.3,0.2,0.6s-0.1,0.5-0.1,0.7l-0.6,1.4c-0.1,0.3-0.2,0.8-0.2,1.3c0,0.9,0.5,1.8,1.3,2.4
		c0.9,0.6,1.9,0.9,3,0.9c0.9,0,1.7-0.1,2.5-0.5c0.7-0.2,1.1-0.7,1.6-1.3c0.3-0.5,0.5-1,0.5-1.6C114.7,52.3,114.7,52.1,114.6,52z"/>
	<path class="st1" d="M94.3,54.1C94.2,54,94,53.9,94,53.7c-0.1-0.2-0.1-0.3-0.1-0.6c0-0.2,0-0.3,0.1-0.6l4.4-14.4
		c0.1-0.3,0.2-0.8,0.2-1.3c0-0.7-0.2-1.3-0.8-1.7c-0.6-0.5-1.4-0.6-2.4-0.6c-1.1,0-2.3,0.1-3.3,0.5c-1,0.3-1.7,0.7-1.8,1.1
		c-0.1,0.1,0,0.3,0,0.5c0.1,0.1,0.2,0.2,0.5,0.3c0.1,0.1,0.3,0.2,0.5,0.3c0.1,0.1,0.1,0.3,0.1,0.5c0,0.1,0,0.3-0.1,0.5l-4.3,14.1
		c-0.1,0.3-0.2,0.7-0.5,1c-0.2,0.2-0.5,0.5-0.7,0.6c-0.2,0.1-0.5,0.3-0.6,0.6s0,0.5,0.2,0.7c0.3,0.2,0.7,0.2,1,0.2h6.5
		c0.5,0,0.9,0,1.3-0.1c0.2-0.1,0.5-0.2,0.6-0.6c0-0.1,0-0.2,0-0.3C94.5,54.4,94.4,54.3,94.3,54.1z"/>
	<path class="st1" d="M84.5,54.1c-0.1-0.1-0.3-0.2-0.3-0.5C84,53.5,84,53.3,84,53.1c0-0.2,0-0.3,0.1-0.6l2.6-8.4
		c0.1-0.5,0.2-0.8,0.2-1.3c0-0.7-0.2-1.3-0.8-1.7c-0.5-0.5-1.3-0.6-2.4-0.6c-1.1,0-2.3,0.1-3.3,0.5c-1,0.3-1.7,0.7-1.8,1.1
		c-0.1,0.1,0,0.3,0,0.5c0.1,0.1,0.2,0.2,0.3,0.3c0.1,0.1,0.3,0.2,0.5,0.3c0.1,0.1,0.1,0.3,0.1,0.5s0,0.3-0.1,0.5L77,52.4
		c-0.1,0.7-0.6,1.3-1.1,1.5c-0.2,0.1-0.5,0.3-0.6,0.6s0,0.5,0.2,0.7c0.3,0.2,0.7,0.2,1,0.2H83c0.5,0,0.9,0,1.3-0.1
		c0.2-0.1,0.5-0.2,0.6-0.6c0-0.1,0-0.2,0-0.3C84.7,54.4,84.6,54.3,84.5,54.1z"/>
	<path class="st1" d="M73.8,53.9c-0.1-0.1-0.2-0.3-0.2-0.5c-0.1-0.1-0.1-0.3-0.1-0.6s0-0.5,0.1-0.7L77,40c0.1-0.3,0.2-0.7,0.5-0.9
		s0.5-0.5,0.7-0.6c0.1-0.1,0.3-0.2,0.5-0.3c0.1-0.1,0.2-0.2,0.2-0.3c0-0.1,0.1-0.2,0.1-0.3c0-0.2-0.1-0.5-0.3-0.6
		c-0.3-0.1-0.6-0.2-0.9-0.2h-4.2c-0.7,0-1.3,0.1-1.8,0.3c-0.6,0.2-1,0.7-1.5,1.3l-7.6,9.5l-2.9-9.4c-0.1-0.5-0.3-0.9-0.7-1.3
		c-0.3-0.2-0.8-0.5-1.3-0.3h-4.3c-0.3,0-0.7,0-1,0.2c-0.2,0.2-0.3,0.5-0.3,0.7c0,0.2,0,0.6,0.1,0.8l0.5,1.5l-3.4,12.2
		c-0.1,0.3-0.2,0.7-0.5,1c-0.2,0.2-0.5,0.5-0.7,0.6c-0.1,0.1-0.2,0.1-0.3,0.2c-0.2,0.2-0.5,0.5-0.5,0.8c0,0.2,0.1,0.5,0.3,0.6
		c0.2,0.1,0.6,0.2,0.9,0.2h2.4c0.5,0,0.8,0,1.1-0.1c0.2-0.1,0.5-0.3,0.5-0.6c0-0.1,0-0.2,0-0.2c0-0.2-0.1-0.5-0.2-0.6
		c-0.1-0.1-0.2-0.3-0.3-0.5c-0.1-0.2-0.1-0.3-0.1-0.6s0-0.5,0.1-0.7l2.1-7.3l2.6,8.8c0.1,0.6,0.3,1,0.7,1.5c0.2,0.3,0.7,0.5,1,0.5
		c0.5,0,0.9-0.1,1.3-0.5c0.6-0.5,1-0.9,1.5-1.5l7.3-9.1l-1.9,7.4c-0.1,0.3-0.2,0.7-0.5,0.9c-0.2,0.2-0.5,0.5-0.7,0.6
		c0,0-0.1,0.1-0.2,0.1c-0.1,0.1-0.2,0.1-0.2,0.2c-0.1,0.1-0.2,0.2-0.2,0.3c0,0.1-0.1,0.2-0.1,0.3c0,0.2,0.1,0.5,0.3,0.6
		c0.2,0.1,0.6,0.2,0.9,0.2h6.6c0.3,0,0.8,0,1.1-0.1c0.2-0.1,0.5-0.3,0.6-0.6c0-0.1,0-0.2,0-0.2c0-0.1,0-0.2-0.1-0.3
		C73.9,54.1,73.8,54,73.8,53.9z"/>
	<path class="st2" d="M85.2,39.9c0.6,0,1-0.1,1.5-0.5c0.5-0.2,0.8-0.7,1-1.1c0.2-0.5,0.3-0.9,0.3-1.5c0-0.7-0.2-1.3-0.7-1.7
		s-1.1-0.7-1.8-0.7c-0.6,0-1.1,0.1-1.6,0.5c-0.5,0.3-0.8,0.7-1,1.1c-0.2,0.5-0.3,0.9-0.3,1.4c0,0.7,0.2,1.4,0.8,1.8
		C83.8,39.7,84.5,39.9,85.2,39.9z"/>
</g>
</svg>
