<?xml version="1.0" encoding="utf-8"?>
<!-- Generator: Adobe Illustrator 24.0.0, SVG Export Plug-In . SVG Version: 6.00 Build 0)  -->
<svg version="1.1" id="Layer_1" xmlns="http://www.w3.org/2000/svg" xmlns:xlink="http://www.w3.org/1999/xlink" x="0px" y="0px"
	 viewBox="0 0 240 100" style="enable-background:new 0 0 240 100;" xml:space="preserve">
<style type="text/css">
	.st0{fill-rule:evenodd;clip-rule:evenodd;}
	.st1{fill:#080504;}
	.st2{clip-path:url(#SVGID_3_);}
	.st3{clip-path:url(#SVGID_4_);}
	.st4{clip-path:url(#SVGID_9_);}
	.st5{clip-path:url(#SVGID_10_);}
</style>
<g>
	<polygon class="st0" points="59.5,64.8 179.4,64.8 179.4,63.5 59.5,63.5 59.5,64.8 	"/>
	<path class="st1" d="M64,74h-1.9c-0.2,0-0.4,0-0.6-0.1c-0.2,0-0.4-0.1-0.5-0.3c-0.1-0.1-0.3-0.3-0.4-0.5c-0.1-0.2-0.1-0.5-0.1-0.8
		v-4.8h-1v4.4c0,0.7,0.2,1.3,0.7,1.7c0.4,0.4,1.1,0.6,1.9,0.6H64V74L64,74z M72.4,74.4c0-0.5,0-0.9,0-1.2c0-0.3,0-0.5,0-0.7
		c0-0.1,0-0.2,0-0.3c0,0,0-0.1,0-0.1c0-0.4-0.1-0.7-0.2-0.9c-0.1-0.3-0.2-0.5-0.4-0.7c-0.2-0.2-0.4-0.3-0.7-0.5
		c-0.3-0.1-0.6-0.2-1.1-0.2c-0.4,0-0.7,0.1-1,0.2c-0.3,0.1-0.5,0.3-0.7,0.5c-0.2,0.2-0.3,0.4-0.4,0.7c-0.1,0.3-0.1,0.6-0.2,0.9
		c0,0.4,0.1,0.7,0.2,0.9c0.1,0.3,0.2,0.5,0.4,0.7c0.2,0.2,0.4,0.3,0.7,0.4c0.3,0.1,0.6,0.2,1,0.2c0.1,0,0.3,0,0.4,0
		c0.1,0,0.2-0.1,0.3-0.1c0.1-0.1,0.2-0.2,0.3-0.3c0.1-0.1,0.2-0.3,0.3-0.5l0,0.9v0L72.4,74.4L72.4,74.4L72.4,74.4z M71.3,72.1
		c0,0.6-0.1,1.1-0.3,1.4c-0.2,0.3-0.5,0.5-0.9,0.5c-0.2,0-0.4,0-0.5-0.1c-0.2,0-0.3-0.1-0.4-0.3c-0.1-0.1-0.2-0.3-0.3-0.5
		c-0.1-0.2-0.1-0.5-0.1-0.8V72c0-0.3,0-0.6,0.1-0.8c0.1-0.2,0.1-0.4,0.3-0.5c0.1-0.1,0.2-0.2,0.4-0.3c0.2,0,0.3-0.1,0.5-0.1
		c0.2,0,0.4,0,0.5,0.1c0.2,0.1,0.3,0.1,0.4,0.3c0.1,0.1,0.2,0.3,0.3,0.5C71.3,71.5,71.3,71.7,71.3,72.1L71.3,72.1L71.3,72.1z
		 M83.2,72v2.4h1v-2.1c0-0.4,0-0.7-0.1-1c-0.1-0.3-0.2-0.5-0.4-0.7c-0.2-0.2-0.4-0.4-0.7-0.5c-0.3-0.1-0.6-0.2-1-0.2
		c-0.4,0-0.7,0.1-1,0.2c-0.3,0.1-0.5,0.3-0.7,0.5c-0.2-0.2-0.4-0.4-0.7-0.5c-0.3-0.1-0.6-0.2-1-0.2c-0.7,0-1.3,0.2-1.7,0.6
		c-0.4,0.4-0.6,1-0.6,1.7v2.1h1v-2.4c0-0.3,0-0.6,0.1-0.8c0.1-0.2,0.1-0.4,0.3-0.5c0.1-0.1,0.2-0.2,0.4-0.3c0.2,0,0.3-0.1,0.5-0.1
		c0.2,0,0.4,0,0.5,0.1c0.1,0.1,0.3,0.1,0.4,0.3c0.1,0.1,0.2,0.3,0.2,0.5c0.1,0.2,0.1,0.4,0.1,0.7v2.4h1c0-0.6,0-1,0-1.3
		c0-0.3,0-0.6,0-0.7c0-0.2,0-0.3,0-0.3c0,0,0-0.1,0-0.1c0-0.3,0-0.6,0.1-0.8c0.1-0.2,0.1-0.4,0.3-0.5c0.1-0.1,0.2-0.2,0.4-0.3
		c0.2,0,0.3-0.1,0.5-0.1c0.2,0,0.4,0,0.5,0.1c0.1,0.1,0.3,0.1,0.4,0.3c0.1,0.1,0.2,0.3,0.2,0.5C83.1,71.5,83.2,71.7,83.2,72L83.2,72
		z M89.3,69.9h-1v4.6h1V69.9L89.3,69.9z M88.1,68.3c0,0.2,0.1,0.3,0.2,0.5c0.1,0.1,0.3,0.2,0.5,0.2c0.1,0,0.2,0,0.2-0.1
		c0.1,0,0.2-0.1,0.2-0.1c0.1-0.1,0.1-0.1,0.2-0.2c0-0.1,0.1-0.2,0.1-0.3c0-0.2-0.1-0.3-0.2-0.5c-0.1-0.1-0.3-0.2-0.5-0.2
		c-0.2,0-0.3,0.1-0.5,0.2C88.1,68,88.1,68.2,88.1,68.3L88.1,68.3z M96.7,74.5h1v-2.1c0-0.4,0-0.7-0.1-1c-0.1-0.3-0.2-0.5-0.4-0.7
		c-0.2-0.2-0.4-0.4-0.7-0.5c-0.3-0.1-0.6-0.2-1-0.2c-0.7,0-1.3,0.2-1.7,0.6c-0.4,0.4-0.6,1-0.6,1.7v2.1h1v-2.4c0-0.3,0-0.6,0.1-0.8
		c0.1-0.2,0.1-0.4,0.3-0.5c0.1-0.1,0.2-0.2,0.4-0.3c0.2,0,0.3-0.1,0.5-0.1c0.2,0,0.4,0,0.5,0.1c0.1,0.1,0.3,0.1,0.4,0.3
		c0.1,0.1,0.2,0.3,0.2,0.5C96.8,72.1,96.7,73.6,96.7,74.5L96.7,74.5z M106.3,74.4c0-0.5,0-0.9,0-1.2c0-0.3,0-0.5,0-0.7
		c0-0.1,0-0.2,0-0.3c0,0,0-0.1,0-0.1c0-0.4-0.1-0.7-0.2-0.9c-0.1-0.3-0.2-0.5-0.4-0.7c-0.2-0.2-0.4-0.3-0.7-0.5
		c-0.3-0.1-0.6-0.2-1.1-0.2c-0.4,0-0.7,0.1-1,0.2c-0.3,0.1-0.5,0.3-0.7,0.5c-0.2,0.2-0.3,0.4-0.4,0.7c-0.1,0.3-0.1,0.6-0.2,0.9
		c0,0.4,0.1,0.7,0.2,0.9c0.1,0.3,0.2,0.5,0.4,0.7c0.2,0.2,0.4,0.3,0.7,0.4c0.3,0.1,0.6,0.2,1,0.2c0.1,0,0.3,0,0.4,0
		c0.1,0,0.2-0.1,0.3-0.1c0.1-0.1,0.2-0.2,0.3-0.3c0.1-0.1,0.2-0.3,0.3-0.5l0,0.9v0L106.3,74.4L106.3,74.4L106.3,74.4z M105.2,72.1
		c0,0.6-0.1,1.1-0.3,1.4c-0.2,0.3-0.5,0.5-0.9,0.5c-0.2,0-0.4,0-0.5-0.1c-0.2,0-0.3-0.1-0.4-0.3c-0.1-0.1-0.2-0.3-0.3-0.5
		c-0.1-0.2-0.1-0.5-0.1-0.8V72c0-0.3,0-0.6,0.1-0.8c0.1-0.2,0.1-0.4,0.3-0.5c0.1-0.1,0.2-0.2,0.4-0.3c0.2,0,0.3-0.1,0.5-0.1
		c0.2,0,0.4,0,0.5,0.1c0.2,0.1,0.3,0.1,0.4,0.3c0.1,0.1,0.2,0.3,0.3,0.5C105.2,71.5,105.2,71.7,105.2,72.1L105.2,72.1L105.2,72.1z
		 M112.8,69.9h-1.1v-2.2h-1v2.2h-1.1v0.5h1.1v4h1v-4h1.1V69.9L112.8,69.9z M120.8,72.5c0,0,0-0.1,0-0.1c0-0.1,0-0.1,0-0.1
		c0-0.3,0-0.6-0.1-0.8c-0.1-0.3-0.3-0.5-0.4-0.7c-0.2-0.2-0.4-0.4-0.7-0.5c-0.3-0.1-0.6-0.2-0.9-0.2c-0.3,0-0.6,0.1-0.9,0.2
		c-0.3,0.1-0.5,0.3-0.7,0.5c-0.2,0.2-0.3,0.4-0.5,0.7c-0.1,0.3-0.2,0.6-0.2,0.9c0,0.3,0.1,0.6,0.2,0.9c0.1,0.3,0.3,0.5,0.5,0.7
		c0.2,0.2,0.4,0.3,0.7,0.5c0.3,0.1,0.6,0.2,0.9,0.2c0.2,0,0.4,0,0.6-0.1c0.2-0.1,0.4-0.2,0.6-0.2l-0.1-0.3c-0.4,0.1-0.7,0.2-0.9,0.2
		c-0.3,0-0.5,0-0.7-0.1c-0.2-0.1-0.3-0.2-0.4-0.4c-0.1-0.1-0.2-0.3-0.2-0.5c-0.1-0.2-0.1-0.3-0.1-0.5H120.8L120.8,72.5z M118.6,70.5
		L118.6,70.5c0.4,0,0.6,0.1,0.8,0.3c0.2,0.2,0.3,0.6,0.4,1.1h-2.4c0-0.2,0.1-0.4,0.1-0.5c0.1-0.2,0.1-0.3,0.2-0.4
		c0.1-0.1,0.2-0.2,0.3-0.3C118.3,70.5,118.4,70.5,118.6,70.5L118.6,70.5z M126,74.1c-0.3,0-0.5,0-0.8-0.1c-0.2,0-0.4-0.2-0.7-0.3
		l0.1,0.6c0.2,0.1,0.5,0.1,0.7,0.2c0.2,0,0.5,0,0.7,0.1c0.2,0,0.4,0,0.6-0.1c0.2-0.1,0.4-0.1,0.6-0.2c0.2-0.1,0.3-0.2,0.4-0.4
		c0.1-0.2,0.2-0.4,0.2-0.6c0-0.2,0-0.4-0.1-0.5c-0.1-0.1-0.2-0.3-0.3-0.4c-0.1-0.1-0.3-0.2-0.5-0.3c-0.2-0.1-0.3-0.1-0.5-0.2
		c-0.1-0.1-0.3-0.1-0.4-0.2c-0.1-0.1-0.2-0.1-0.3-0.2c-0.1-0.1-0.2-0.1-0.2-0.2c-0.1-0.1-0.1-0.2-0.1-0.3c0-0.1,0-0.2,0.1-0.3
		c0.1-0.1,0.1-0.1,0.2-0.2c0.1-0.1,0.2-0.1,0.3-0.1c0.1,0,0.2,0,0.3,0c0.2,0,0.4,0,0.5,0.1c0.1,0,0.3,0.1,0.4,0.1
		c0.1,0,0.2,0.1,0.3,0.2c0.1,0.1,0.2,0.1,0.2,0.2c0-0.1,0-0.2,0-0.3c0-0.1,0-0.2,0-0.3c-0.1-0.1-0.2-0.1-0.3-0.2
		c-0.1-0.1-0.2-0.1-0.3-0.1c-0.1,0-0.2-0.1-0.4-0.1c-0.1,0-0.3,0-0.5,0c-0.2,0-0.4,0-0.6,0.1c-0.2,0.1-0.4,0.1-0.5,0.2
		c-0.2,0.1-0.3,0.2-0.4,0.4c-0.1,0.2-0.1,0.3-0.1,0.5c0,0.2,0,0.4,0.1,0.6c0.1,0.2,0.2,0.3,0.3,0.4c0.1,0.1,0.3,0.2,0.5,0.3
		c0.2,0.1,0.3,0.1,0.5,0.2c0.1,0,0.3,0.1,0.4,0.1c0.1,0,0.2,0.1,0.3,0.2c0.1,0.1,0.2,0.1,0.2,0.2c0.1,0.1,0.1,0.2,0.1,0.3
		c0,0.1,0,0.2-0.1,0.3c-0.1,0.1-0.1,0.2-0.2,0.2c-0.1,0.1-0.2,0.1-0.3,0.1C126.3,74,126.1,74.1,126,74.1L126,74.1z M137.5,75
		c-1.2-0.9-1.7-2.2-1.7-3.9c0-1.6,0.6-2.9,1.7-3.9l0,0c-0.8,0.3-1.4,0.8-1.9,1.5c-0.5,0.7-0.8,1.5-0.8,2.4c0,0.9,0.3,1.7,0.8,2.4
		C136.1,74.2,136.7,74.7,137.5,75L137.5,75L137.5,75z M143.6,67.6c-0.8,0-1.5,0.2-1.9,0.6c-0.5,0.4-0.7,1-0.7,1.7v4.5h1v-2.7
		c0.4,0.3,1,0.4,1.6,0.4c0.8,0,1.4-0.2,1.9-0.6c0.4-0.4,0.7-1,0.7-1.7c0-0.7-0.3-1.3-0.7-1.7C145,67.9,144.4,67.6,143.6,67.6
		L143.6,67.6z M142,69.8c0-0.3,0-0.6,0.1-0.8c0.1-0.2,0.2-0.4,0.4-0.5c0.2-0.1,0.3-0.2,0.5-0.3c0.2-0.1,0.4-0.1,0.6-0.1
		c0.2,0,0.4,0,0.6,0.1c0.2,0,0.4,0.1,0.5,0.3c0.2,0.1,0.3,0.3,0.4,0.5c0.1,0.2,0.1,0.5,0.1,0.8v0.3c0,0.3,0,0.6-0.1,0.8
		c-0.1,0.2-0.2,0.4-0.4,0.5c-0.2,0.1-0.3,0.2-0.5,0.3c-0.2,0-0.4,0.1-0.6,0.1c-0.2,0-0.4,0-0.5-0.1c-0.2,0-0.3-0.1-0.5-0.2
		c-0.1-0.1-0.3-0.3-0.4-0.4c-0.1-0.2-0.2-0.4-0.2-0.7V69.8L142,69.8z M149.3,74.9L149.3,74.9c0.8-0.3,1.4-0.8,2-1.5
		c0.5-0.7,0.8-1.5,0.8-2.4c0-0.9-0.3-1.7-0.8-2.4c-0.5-0.7-1.1-1.2-1.9-1.5l0,0c1.2,0.9,1.7,2.2,1.7,3.9
		C151.1,72.7,150.5,74,149.3,74.9L149.3,74.9z M163.6,74h-1.9c-0.2,0-0.4,0-0.6-0.1c-0.2,0-0.4-0.1-0.5-0.3
		c-0.1-0.1-0.3-0.3-0.4-0.5c-0.1-0.2-0.1-0.5-0.1-0.8v-4.8h-1v4.4c0,0.7,0.2,1.3,0.7,1.7c0.4,0.4,1.1,0.6,1.9,0.6h1.9V74L163.6,74z
		 M169.4,69.9h-1.1v-2.2h-1v2.2h-1.1v0.5h1.1v4h1v-4h1.1V69.9L169.4,69.9z M177.6,72.2c0,0,0-0.1,0-0.2c0-0.1,0-0.3,0-0.5
		c0-0.2,0-0.5,0-0.8c0-0.3,0-0.6,0-0.9s0-0.7,0-1c0-0.4,0-0.7,0-1.1h-1l0,2.5c-0.2-0.1-0.4-0.2-0.6-0.2c-0.2-0.1-0.4-0.1-0.7-0.1
		c-0.4,0-0.7,0.1-1,0.2c-0.3,0.1-0.5,0.3-0.7,0.5c-0.2,0.2-0.3,0.4-0.4,0.7c-0.1,0.3-0.1,0.6-0.2,1c0,0.4,0.1,0.7,0.2,0.9
		c0.1,0.3,0.2,0.5,0.4,0.7c0.2,0.2,0.4,0.3,0.7,0.5c0.3,0.1,0.6,0.2,1,0.2c0.4,0,0.8-0.1,1.1-0.2c0.3-0.1,0.5-0.3,0.7-0.5
		c0.2-0.2,0.3-0.4,0.4-0.7C177.5,72.9,177.5,72.5,177.6,72.2L177.6,72.2z M176.5,72v0.3c0,0.3,0,0.6-0.1,0.8
		c-0.1,0.2-0.1,0.4-0.3,0.5c-0.1,0.1-0.2,0.2-0.4,0.3c-0.2,0.1-0.3,0.1-0.5,0.1c-0.2,0-0.4,0-0.5-0.1c-0.2,0-0.3-0.1-0.4-0.3
		c-0.1-0.1-0.2-0.3-0.3-0.5c-0.1-0.2-0.1-0.5-0.1-0.8V72c0-0.3,0-0.6,0.1-0.8c0.1-0.2,0.1-0.4,0.3-0.5c0.1-0.1,0.2-0.2,0.4-0.3
		c0.2-0.1,0.3-0.1,0.5-0.1c0.2,0,0.4,0,0.5,0.1c0.2,0.1,0.3,0.2,0.4,0.3c0.1,0.1,0.2,0.3,0.3,0.5C176.5,71.5,176.5,71.7,176.5,72
		L176.5,72z"/>
	<path class="st1" d="M59.5,58.5l0-9.1l-0.4-18.6L59,27.1c0.4,0,0.8,0,1.4,0c0.6,0,1,0,1.4,0c0.8,1.2,1.5,2.2,2.1,3
		c0.6,0.8,1.7,2.3,3.4,4.6l12.8,17c1.3,1.7,2.6,3.5,3.9,5.2l-0.5-26.2l-0.1-3.6c0.4,0,0.7,0,1,0c0.3,0,0.6,0,1,0l0,7.2L85.6,54
		l0.2,4.5c-0.5,0-1,0-1.4,0s-0.9,0-1.4,0l-4.6-6.3l-15.8-21L60.8,29c0,0.8,0,1.6,0,2.4l0.4,21.5l0.2,5.6c-0.4,0-0.7,0-1,0
		C60.2,58.5,59.9,58.5,59.5,58.5L59.5,58.5z"/>
	<g>
		<defs>
			<path id="SVGID_1_" d="M90.3,44.2c-1,7.1,3.9,13.7,11,14.7l0,0c7.1,1,13.7-3.9,14.7-11l0,0l0-0.2c0,0-0.5,3-3.2,5l0,0
				c-3.3,2.4-7.9,1.9-11.6-2.2l0,0c-3.2-3.5-5.5-5.4-7.4-6l0,0c-1.3-0.4-2.1-0.5-2.6-0.5l0,0C90.5,44,90.3,44.2,90.3,44.2L90.3,44.2
				L90.3,44.2z"/>
		</defs>
		<defs>
			<path id="SVGID_2_" d="M103.4,32.9c7.3,0,13.2,5.9,13.2,13.2c0,7.3-5.9,13.2-13.2,13.2c-7.3,0-13.2-5.9-13.2-13.2
				C90.2,38.8,96.1,32.9,103.4,32.9L103.4,32.9z"/>
		</defs>
		<clipPath id="SVGID_3_">
			<use xlink:href="#SVGID_1_"  style="overflow:visible;"/>
		</clipPath>
		<clipPath id="SVGID_4_" class="st2">
			<use xlink:href="#SVGID_2_"  style="overflow:visible;"/>
		</clipPath>
		<g class="st3">
			<defs>
				<rect id="SVGID_5_" x="90.2" y="44" width="25.8" height="15.1"/>
			</defs>
			<use xlink:href="#SVGID_5_"  style="overflow:visible;"/>
			<clipPath id="SVGID_6_">
				<use xlink:href="#SVGID_5_"  style="overflow:visible;"/>
			</clipPath>
		</g>
	</g>
	<g>
		<defs>
			<path id="SVGID_7_" d="M90.3,44.1L90.3,44.1c0,0,0.4-2.6,3.2-4.6l0,0c3.3-2.4,7.9-1.9,11.6,2.2l0,0c3.2,3.5,5.5,5.4,7.4,6l0,0
				c2.8,0.9,3.4,0.3,3.4,0.3l0,0c1-7.1-3.9-13.7-11-14.7l0,0c-0.6-0.1-1.2-0.1-1.8-0.1C96.8,33.2,91.4,37.7,90.3,44.1L90.3,44.1
				L90.3,44.1z"/>
		</defs>
		<defs>
			<path id="SVGID_8_" d="M103.4,32.9c7.3,0,13.2,5.9,13.2,13.2c0,7.3-5.9,13.2-13.2,13.2c-7.3,0-13.2-5.9-13.2-13.2
				C90.2,38.8,96.1,32.9,103.4,32.9L103.4,32.9z"/>
		</defs>
		<clipPath id="SVGID_9_">
			<use xlink:href="#SVGID_7_"  style="overflow:visible;"/>
		</clipPath>
		<clipPath id="SVGID_10_" class="st4">
			<use xlink:href="#SVGID_8_"  style="overflow:visible;"/>
		</clipPath>
		<g class="st5">
			<defs>
				<rect id="SVGID_11_" x="90.3" y="33.1" width="25.8" height="15.1"/>
			</defs>
			<use xlink:href="#SVGID_11_"  style="overflow:visible;"/>
			<clipPath id="SVGID_12_">
				<use xlink:href="#SVGID_11_"  style="overflow:visible;"/>
			</clipPath>
		</g>
	</g>
	<path class="st1" d="M103,32.3L103,32.3c5.7,0,10,2.8,13,8.3c0.8,2,1.2,3.9,1.2,5.8v0.1c0,5.6-2.8,9.9-8.3,12.9
		c-2,0.8-4,1.2-5.8,1.2H103c-5.6,0-9.9-2.8-12.9-8.3c-0.8-2-1.2-3.9-1.2-5.8v-0.1c0-5.6,2.8-9.9,8.3-12.9
		C99.2,32.7,101.2,32.3,103,32.3L103,32.3z M90.4,46.5c0,4.8,2.4,8.6,7.2,11.4c1.8,0.8,3.7,1.2,5.7,1.2c4.3,0,7.9-2.1,10.7-6.2
		c1.2-2.1,1.7-4.2,1.7-6.3v-0.4c0-4.4-2-7.9-6.1-10.6c-2-1.2-4.2-1.9-6.7-1.9c-4.4,0-8,2-10.7,6.1C91,41.9,90.4,44.1,90.4,46.5
		L90.4,46.5z M120,25h0.1v9.8c2.6-1.9,5.5-2.8,8.5-2.8c5.6,0,9.9,2.8,13,8.4c0.8,2,1.2,4,1.2,5.9c0,5.7-2.8,10-8.3,13l-1.5,0.6
		c-1,0.4-2.5,0.6-4.5,0.8c-3.7,0-7-1.3-9.7-3.9V28.5l-0.1-2.5L120,25L120,25z M120.2,36.5v19.4c2.3,2.2,5.1,3.2,8.5,3.2
		c4.8,0,8.6-2.4,11.3-7.1c0.9-1.8,1.3-3.5,1.3-5.1v-1.2c0-4-2-7.5-6-10.3c-2-1.3-4.3-1.9-6.8-1.9h-0.1
		C125.5,33.5,122.8,34.5,120.2,36.5L120.2,36.5z M144.9,27h0.2l-0.1,8.8v10.9c0,5.9,2.5,10.2,7.6,12.9l-1.1,1.1h-0.1
		c-5.3-3-7.9-7.5-7.9-13.3v-19L144.9,27L144.9,27z M166.6,32.4h1c4.7,0,8.7,2.4,11.9,7.2c1,2.1,1.5,3.5,1.5,4.2
		c-4,2.2-11.6,5.9-22.9,11.2v0.2c2.6,2.5,5.6,3.8,9,3.8c4.7,0,8.4-2.2,11-6.5h0.3l0.9,0.4v0.1c-1.2,2.7-3.7,4.9-7.4,6.6
		c-2,0.6-3.6,0.9-4.9,0.9c-5.4,0-9.7-2.7-12.8-8c-0.9-2-1.3-3.9-1.3-5.7v-1c0-4.8,2.5-8.8,7.5-12C162.8,32.9,164.8,32.4,166.6,32.4
		L166.6,32.4z M154.5,46.5c0,2.7,0.9,5.2,2.7,7.6l22.3-10.8c-0.8-2.9-2.2-5.1-4.1-6.6c-2.5-2-5.2-3-8-3c-4.9,0-8.7,2.3-11.4,6.9
		C155,42.5,154.5,44.5,154.5,46.5L154.5,46.5z"/>
</g>
</svg>
