<?xml version="1.0" encoding="utf-8"?>
<!-- Generator: Adobe Illustrator 24.0.0, SVG Export Plug-In . SVG Version: 6.00 Build 0)  -->
<svg version="1.1" id="Layer_1" xmlns="http://www.w3.org/2000/svg" xmlns:xlink="http://www.w3.org/1999/xlink" x="0px" y="0px"
	 viewBox="0 0 240 100" style="enable-background:new 0 0 240 100;" xml:space="preserve">
<style type="text/css">
	.st0{fill:#1C1C1A;}
	.st1{fill:none;stroke:#1C1C1A;stroke-width:1.95;stroke-miterlimit:2.61;}
	.st2{fill:#FFFFFF;}
</style>
<polygon class="st0" points="115.3,35.9 114.9,36 114.5,36.1 114.1,36.2 113.8,36.3 113.4,36.6 113,36.7 112.6,36.8 112.2,36.9 
	111.8,37 111.4,37.2 109.5,37.9 108.6,36.2 108.4,35.9 108.3,35.6 108.1,35.2 107.8,34.9 107.7,34.5 107.5,34.2 107.3,33.9 
	107.1,33.5 106.9,33.2 106.7,33 106.5,32.6 106.4,32.3 106.1,31.9 105.9,31.6 105.7,31.4 105.5,31 105.2,30.7 105,30.5 104.8,30.1 
	104.6,29.8 104.3,29.6 104.1,29.2 103.9,29 103.7,28.7 103.4,28.4 103.2,28.1 103,27.9 102.8,27.5 102.5,27.3 102.2,27.1 
	100.8,25.6 102,24.2 102.1,24.1 102.2,23.9 102.3,23.7 102.4,23.6 102.5,23.4 102.6,23.3 102.8,23 102.9,22.9 103,22.7 103.1,22.6 
	103.2,22.4 103.3,22.2 103.3,22 103.4,21.8 103.5,21.7 103.7,21.5 103.7,21.3 103.8,21.1 103.9,20.9 104,20.8 104,20.6 104.1,20.4 
	104.1,20.2 104.2,20.1 104.3,19.9 104.3,19.7 104.4,19.5 104.4,19.3 104.6,19.2 104.6,19 105,17.5 107.1,17.5 104.6,14.8 
	105.2,13.6 105.3,13.5 105.3,13.3 105.5,13.2 105.5,13.1 105.6,13 105.6,12.9 105.7,12.8 105.7,12.7 105.7,12.6 105.8,12.4 
	105.8,12.3 105.9,12.2 105.9,12.1 105.9,12 106,11.9 106,11.8 106.1,11.6 106.1,11.5 106.1,11.4 106.1,11.3 106.2,11.2 106.2,11.1 
	106.2,11 106.2,10.9 106.4,10.7 106.4,10.6 106.4,10.5 106.4,10.4 106.4,10.3 106.4,10.2 106.6,8.6 108.2,8.4 108.3,8.4 108.4,8.4 
	108.5,8.4 108.6,8.4 108.7,8.4 109,8.3 109.1,8.3 109.2,8.3 109.3,8.3 109.5,8.2 109.6,8.2 109.7,8.2 110,8.2 110.1,8 110.2,8 
	110.3,8 110.5,7.9 110.6,7.9 110.8,7.9 111,7.8 111.1,7.8 111.2,7.8 111.4,7.7 111.5,7.7 111.7,7.6 111.9,7.6 112,7.6 112.1,7.5 
	112.3,7.5 112.4,7.4 113.5,7.1 115.6,8.7 115.7,5.9 116.8,5.3 117.1,5.2 117.3,5.1 117.5,5 117.6,5 117.9,4.9 118.1,4.8 118.3,4.7 
	118.4,4.5 118.6,4.5 118.9,4.4 119,4.3 119.2,4.2 119.4,4.1 119.6,4 119.8,3.9 120,3.8 120.2,3.6 120.3,3.5 120.6,3.4 120.8,3.3 
	120.9,3.2 121.1,3.1 121.4,3 121.5,2.9 121.7,2.7 121.9,2.6 122,2.5 122.3,2.4 122.5,2.3 122.6,2.2 123.7,1.5 124.9,2.2 125.1,2.3 
	125.2,2.4 125.4,2.5 125.6,2.6 125.9,2.7 126,2.9 126.2,3 126.4,3.1 126.7,3.2 126.8,3.3 127,3.4 127.2,3.4 127.4,3.5 127.6,3.6 
	127.8,3.8 128,3.9 128.2,4 128.5,4.1 128.6,4.2 128.8,4.3 129,4.4 129.2,4.5 129.5,4.5 129.6,4.7 129.8,4.8 130,4.9 130.3,5 
	130.5,5.1 130.7,5.2 130.9,5.2 132.2,5.8 132.3,8.6 134.3,7 135.3,7.5 135.6,7.5 135.7,7.5 135.8,7.6 135.9,7.6 136,7.7 136.1,7.7 
	136.2,7.7 136.4,7.8 136.6,7.8 136.7,7.9 136.8,7.9 136.9,7.9 137,7.9 137.1,8 137.4,8 137.5,8.2 137.6,8.2 137.7,8.2 137.8,8.2 
	138,8.3 138.2,8.3 138.3,8.3 138.4,8.3 138.6,8.4 138.7,8.4 138.8,8.4 138.9,8.4 139.2,8.4 139.3,8.4 139.4,8.5 140.9,8.6 141.1,10 
	141.2,10.2 141.2,10.3 141.2,10.4 141.3,10.5 141.3,10.6 141.3,10.7 141.3,10.9 141.4,11 141.4,11.2 141.4,11.3 141.5,11.4 
	141.5,11.5 141.6,11.6 141.6,11.8 141.6,11.9 141.8,12 141.8,12.1 141.8,12.3 141.9,12.4 141.9,12.6 142,12.7 142,12.8 142.1,12.9 
	142.1,13 142.2,13.1 142.2,13.2 142.3,13.3 142.3,13.6 142.4,13.7 142.4,13.8 143.1,15.1 140.7,17.3 142.7,17.3 143.1,18.6 
	143.2,18.9 143.2,19.1 143.3,19.3 143.5,19.5 143.5,19.8 143.6,19.9 143.7,20.1 143.8,20.3 143.8,20.6 143.9,20.7 144,20.9 
	144.1,21.1 144.2,21.2 144.2,21.5 144.4,21.6 144.5,21.8 144.6,22 144.7,22.1 144.8,22.4 144.9,22.5 145,22.7 145,22.8 145.1,23 
	145.3,23.1 145.4,23.4 145.5,23.5 145.6,23.7 145.7,23.8 145.8,24.1 145.9,24.2 147.1,25.6 145.7,27 145.4,27.2 145.1,27.4 
	144.9,27.8 144.7,28 144.5,28.3 144.2,28.6 144,28.9 143.8,29.1 143.6,29.5 143.3,29.7 143.1,30 142.9,30.3 142.8,30.6 142.6,30.9 
	142.4,31.2 142.2,31.5 142,31.8 141.9,32.2 141.6,32.4 141.5,32.7 141.3,33.1 141.2,33.4 141,33.7 140.9,34 140.7,34.3 140.5,34.6 
	140.4,35 140.3,35.3 140.2,35.7 140.1,36 139.3,38.1 137.3,37.4 136.9,37.2 136.5,37 136.1,36.9 135.8,36.8 135.3,36.7 135,36.6 
	134.5,36.5 134.2,36.3 133.9,36.2 133.4,36.1 133.1,36 132.7,35.9 132.3,35.8 132,35.8 131.6,35.7 131.2,35.6 130.8,35.4 
	130.4,35.4 130,35.3 129.7,35.2 129.2,35.2 128.9,35.1 128.6,35 128.1,35 127.8,34.9 127.4,34.9 127.4,39.9 127.4,40.3 127.3,40.7 
	127.2,41.1 127,41.4 126.8,41.6 126.5,41.9 126.3,42.1 126,42.3 125.8,42.4 125.5,42.5 125.3,42.5 125,42.7 124.7,42.7 124.5,42.8 
	124.3,42.8 123.9,42.8 123.7,42.8 123.5,42.8 123.2,42.7 122.9,42.7 122.7,42.5 122.4,42.4 122.1,42.3 121.9,42.2 121.6,42 
	121.4,41.8 121.1,41.5 120.9,41.2 120.8,40.9 120.6,40.5 120.6,40.1 120.6,39.7 120.6,34.9 120.5,34.9 120.1,34.9 119.8,35 
	119.4,35 119.2,35.1 118.8,35.1 118.4,35.2 118.2,35.2 117.7,35.3 117.4,35.4 117.1,35.4 116.7,35.6 116.4,35.7 116.1,35.8 
	115.6,35.9 "/>
<polygon class="st1" points="115.3,35.9 114.9,36 114.5,36.1 114.1,36.2 113.8,36.3 113.4,36.6 113,36.7 112.6,36.8 112.2,36.9 
	111.8,37 111.4,37.2 109.5,37.9 108.6,36.2 108.4,35.9 108.3,35.6 108.1,35.2 107.8,34.9 107.7,34.5 107.5,34.2 107.3,33.9 
	107.1,33.5 106.9,33.2 106.7,33 106.5,32.6 106.4,32.3 106.1,31.9 105.9,31.6 105.7,31.4 105.5,31 105.2,30.7 105,30.5 104.8,30.1 
	104.6,29.8 104.3,29.6 104.1,29.2 103.9,29 103.7,28.7 103.4,28.4 103.2,28.1 103,27.9 102.8,27.5 102.5,27.3 102.2,27.1 
	100.8,25.6 102,24.2 102.1,24.1 102.2,23.9 102.3,23.7 102.4,23.6 102.5,23.4 102.6,23.3 102.8,23 102.9,22.9 103,22.7 103.1,22.6 
	103.2,22.4 103.3,22.2 103.3,22 103.4,21.8 103.5,21.7 103.7,21.5 103.7,21.3 103.8,21.1 103.9,20.9 104,20.8 104,20.6 104.1,20.4 
	104.1,20.2 104.2,20.1 104.3,19.9 104.3,19.7 104.4,19.5 104.4,19.3 104.6,19.2 104.6,19 105,17.5 107.1,17.5 104.6,14.8 
	105.2,13.6 105.3,13.5 105.3,13.3 105.5,13.2 105.5,13.1 105.6,13 105.6,12.9 105.7,12.8 105.7,12.7 105.7,12.6 105.8,12.4 
	105.8,12.3 105.9,12.2 105.9,12.1 105.9,12 106,11.9 106,11.8 106.1,11.6 106.1,11.5 106.1,11.4 106.1,11.3 106.2,11.2 106.2,11.1 
	106.2,11 106.2,10.9 106.4,10.7 106.4,10.6 106.4,10.5 106.4,10.4 106.4,10.3 106.4,10.2 106.6,8.6 108.2,8.4 108.3,8.4 108.4,8.4 
	108.5,8.4 108.6,8.4 108.7,8.4 109,8.3 109.1,8.3 109.2,8.3 109.3,8.3 109.5,8.2 109.6,8.2 109.7,8.2 110,8.2 110.1,8 110.2,8 
	110.3,8 110.5,7.9 110.6,7.9 110.8,7.9 111,7.8 111.1,7.8 111.2,7.8 111.4,7.7 111.5,7.7 111.7,7.6 111.9,7.6 112,7.6 112.1,7.5 
	112.3,7.5 112.4,7.4 113.5,7.1 115.6,8.7 115.7,5.9 116.8,5.3 117.1,5.2 117.3,5.1 117.5,5 117.6,5 117.9,4.9 118.1,4.8 118.3,4.7 
	118.4,4.5 118.6,4.5 118.9,4.4 119,4.3 119.2,4.2 119.4,4.1 119.6,4 119.8,3.9 120,3.8 120.2,3.6 120.3,3.5 120.6,3.4 120.8,3.3 
	120.9,3.2 121.1,3.1 121.4,3 121.5,2.9 121.7,2.7 121.9,2.6 122,2.5 122.3,2.4 122.5,2.3 122.6,2.2 123.7,1.5 124.9,2.2 125.1,2.3 
	125.2,2.4 125.4,2.5 125.6,2.6 125.9,2.7 126,2.9 126.2,3 126.4,3.1 126.7,3.2 126.8,3.3 127,3.4 127.2,3.4 127.4,3.5 127.6,3.6 
	127.8,3.8 128,3.9 128.2,4 128.5,4.1 128.6,4.2 128.8,4.3 129,4.4 129.2,4.5 129.5,4.5 129.6,4.7 129.8,4.8 130,4.9 130.3,5 
	130.5,5.1 130.7,5.2 130.9,5.2 132.2,5.8 132.3,8.6 134.3,7 135.3,7.5 135.6,7.5 135.7,7.5 135.8,7.6 135.9,7.6 136,7.7 136.1,7.7 
	136.2,7.7 136.4,7.8 136.6,7.8 136.7,7.9 136.8,7.9 136.9,7.9 137,7.9 137.1,8 137.4,8 137.5,8.2 137.6,8.2 137.7,8.2 137.8,8.2 
	138,8.3 138.2,8.3 138.3,8.3 138.4,8.3 138.6,8.4 138.7,8.4 138.8,8.4 138.9,8.4 139.2,8.4 139.3,8.4 139.4,8.5 140.9,8.6 141.1,10 
	141.2,10.2 141.2,10.3 141.2,10.4 141.3,10.5 141.3,10.6 141.3,10.7 141.3,10.9 141.4,11 141.4,11.2 141.4,11.3 141.5,11.4 
	141.5,11.5 141.6,11.6 141.6,11.8 141.6,11.9 141.8,12 141.8,12.1 141.8,12.3 141.9,12.4 141.9,12.6 142,12.7 142,12.8 142.1,12.9 
	142.1,13 142.2,13.1 142.2,13.2 142.3,13.3 142.3,13.6 142.4,13.7 142.4,13.8 143.1,15.1 140.7,17.3 142.7,17.3 143.1,18.6 
	143.2,18.9 143.2,19.1 143.3,19.3 143.5,19.5 143.5,19.8 143.6,19.9 143.7,20.1 143.8,20.3 143.8,20.6 143.9,20.7 144,20.9 
	144.1,21.1 144.2,21.2 144.2,21.5 144.4,21.6 144.5,21.8 144.6,22 144.7,22.1 144.8,22.4 144.9,22.5 145,22.7 145,22.8 145.1,23 
	145.3,23.1 145.4,23.4 145.5,23.5 145.6,23.7 145.7,23.8 145.8,24.1 145.9,24.2 147.1,25.6 145.7,27 145.4,27.2 145.1,27.4 
	144.9,27.8 144.7,28 144.5,28.3 144.2,28.6 144,28.9 143.8,29.1 143.6,29.5 143.3,29.7 143.1,30 142.9,30.3 142.8,30.6 142.6,30.9 
	142.4,31.2 142.2,31.5 142,31.8 141.9,32.2 141.6,32.4 141.5,32.7 141.3,33.1 141.2,33.4 141,33.7 140.9,34 140.7,34.3 140.5,34.6 
	140.4,35 140.3,35.3 140.2,35.7 140.1,36 139.3,38.1 137.3,37.4 136.9,37.2 136.5,37 136.1,36.9 135.8,36.8 135.3,36.7 135,36.6 
	134.5,36.5 134.2,36.3 133.9,36.2 133.4,36.1 133.1,36 132.7,35.9 132.3,35.8 132,35.8 131.6,35.7 131.2,35.6 130.8,35.4 
	130.4,35.4 130,35.3 129.7,35.2 129.2,35.2 128.9,35.1 128.6,35 128.1,35 127.8,34.9 127.4,34.9 127.4,39.9 127.4,40.3 127.3,40.7 
	127.2,41.1 127,41.4 126.8,41.6 126.5,41.9 126.3,42.1 126,42.3 125.8,42.4 125.5,42.5 125.3,42.5 125,42.7 124.7,42.7 124.5,42.8 
	124.3,42.8 123.9,42.8 123.7,42.8 123.5,42.8 123.2,42.7 122.9,42.7 122.7,42.5 122.4,42.4 122.1,42.3 121.9,42.2 121.6,42 
	121.4,41.8 121.1,41.5 120.9,41.2 120.8,40.9 120.6,40.5 120.6,40.1 120.6,39.7 120.6,34.9 120.5,34.9 120.1,34.9 119.8,35 
	119.4,35 119.2,35.1 118.8,35.1 118.4,35.2 118.2,35.2 117.7,35.3 117.4,35.4 117.1,35.4 116.7,35.6 116.4,35.7 116.1,35.8 
	115.6,35.9 "/>
<polygon class="st2" points="123.9,22.1 119.4,5.2 119.4,5.2 119.7,5.1 119.9,5 120.1,4.9 120.2,4.8 120.5,4.7 120.7,4.5 120.8,4.4 
	121,4.3 121.2,4.2 121.5,4.1 121.6,4 121.8,3.9 122,3.8 122.3,3.6 122.4,3.5 122.6,3.4 122.8,3.3 122.9,3.2 123.2,3.1 123.7,2.6 
	123.9,2.7 "/>
<polygon class="st2" points="123.9,22.1 116.6,9.2 116.6,6.6 117.3,6.2 117.5,6.1 117.7,6.1 117.9,6 118.1,5.9 118.3,5.8 118.5,5.7 
	118.6,5.6 118.9,5.4 119.1,5.4 119.3,5.3 119.4,5.2 "/>
<polygon class="st2" points="123.9,22.1 111,8.9 111.1,8.8 111.2,8.8 111.3,8.8 111.5,8.7 111.7,8.7 111.8,8.7 112,8.6 112.1,8.6 
	112.3,8.5 112.4,8.5 112.6,8.4 112.8,8.4 113.2,8.2 116.5,10.7 116.6,9.2 "/>
<polygon class="st2" points="123.9,22.1 106.9,12.1 106.9,12.1 107,12 107,11.9 107.1,11.8 107.1,11.6 107.1,11.5 107.3,11.4 
	107.3,11.2 107.3,11.1 107.3,11 107.3,10.9 107.4,10.7 107.4,10.5 107.4,10.4 107.4,10.3 107.5,9.5 108.3,9.4 108.4,9.4 108.5,9.4 
	108.6,9.4 108.8,9.4 109,9.3 109.1,9.3 109.3,9.3 109.4,9.3 109.5,9.2 109.7,9.2 109.9,9.2 110,9.2 110.1,9.1 110.3,9.1 110.4,9.1 
	110.6,8.9 110.8,8.9 110.9,8.9 111,8.9 "/>
<polygon class="st2" points="123.9,22.1 109.2,18.1 105.8,14.7 106.1,14 106.2,13.9 106.2,13.8 106.4,13.7 106.4,13.6 106.5,13.5 
	106.5,13.3 106.6,13.2 106.6,13.1 106.7,13 106.7,12.9 106.7,12.8 106.8,12.7 106.8,12.6 106.9,12.3 106.9,12.2 106.9,12.1 "/>
<polygon class="st2" points="123.9,22.1 104.4,22.1 104.6,21.9 104.6,21.8 104.7,21.6 104.8,21.3 104.9,21.2 104.9,21 105,20.8 
	105.1,20.7 105.1,20.4 105.2,20.2 105.3,20 105.3,19.9 105.5,19.7 105.5,19.4 105.6,19.3 105.7,18.5 109.5,18.4 109.2,18.1 "/>
<polygon class="st2" points="123.9,22.1 104.1,27.5 104,27.4 103.7,27.2 103.4,26.9 103.2,26.6 103,26.3 102.2,25.5 102.8,24.8 
	102.9,24.6 103,24.5 103.1,24.3 103.2,24.2 103.3,23.9 103.4,23.8 103.5,23.6 103.7,23.5 103.8,23.3 103.9,23 104,22.9 104.1,22.7 
	104.2,22.5 104.3,22.4 104.4,22.1 104.4,22.1 "/>
<polygon class="st2" points="123.9,22.1 107.3,31.9 107.1,31.7 106.9,31.4 106.7,31 106.5,30.8 106.2,30.5 106,30.1 105.8,29.8 
	105.6,29.6 105.3,29.2 105.1,28.9 104.9,28.7 104.7,28.3 104.4,28 104.2,27.8 104.1,27.5 "/>
<polygon class="st2" points="123.9,22.1 109.9,36.5 109.5,35.7 109.3,35.3 109.1,35 109,34.6 108.7,34.3 108.5,34 108.4,33.6 
	108.2,33.3 107.9,33 107.7,32.6 107.6,32.4 107.4,32.1 107.3,31.9 "/>
<polygon class="st2" points="123.9,22.1 117,34.5 116.8,34.5 116.5,34.5 116.2,34.6 115.7,34.8 115.4,34.9 115,35 114.6,35.1 
	114.3,35.2 113.9,35.3 113.5,35.4 113.1,35.6 112.7,35.7 112.2,35.8 111.9,36 111.4,36.1 111.1,36.2 110,36.6 109.9,36.5 "/>
<polygon class="st2" points="123.9,22.1 120.9,33.7 120.7,33.7 120.3,33.9 120,33.9 119.7,34 119.3,34 119,34.1 118.6,34.1 
	118.3,34.2 118,34.2 117.6,34.3 117.2,34.4 117,34.5 "/>
<polygon class="st2" points="123.9,22.1 123.9,41.8 123.8,41.8 123.6,41.8 123.4,41.6 123.2,41.6 122.9,41.5 122.8,41.5 122.6,41.4 
	122.4,41.3 122.3,41.2 122,41.1 121.9,40.9 121.8,40.7 121.7,40.5 121.6,40.2 121.6,39.9 121.5,39.7 121.6,33.7 121.4,33.7 
	121,33.7 120.9,33.7 "/>
<polygon class="st2" points="123.9,22.1 127,33.7 126.8,33.7 126.5,33.7 126.5,39.9 126.4,40.2 126.4,40.4 126.3,40.6 126.2,40.9 
	126.1,41 125.9,41.1 125.8,41.3 125.5,41.4 125.4,41.4 125.2,41.5 125,41.6 124.7,41.6 124.6,41.6 124.4,41.8 124.2,41.8 
	123.9,41.8 123.9,41.8 "/>
<polygon class="st2" points="123.9,22.1 130.9,34.4 130.6,34.4 130.3,34.3 129.8,34.2 129.5,34.2 129.1,34.1 128.7,34.1 128.3,34 
	127.9,34 127.6,33.9 127.2,33.9 127,33.7 "/>
<polygon class="st2" points="123.9,22.1 138,36.6 137.6,36.3 137.3,36.2 136.8,36.1 136.5,36 136,35.8 135.7,35.7 135.2,35.6 
	134.9,35.4 134.5,35.3 134.1,35.2 133.8,35.1 133.3,35 133,35 132.5,34.9 132.2,34.8 131.7,34.6 131.4,34.5 131.1,34.5 130.9,34.4 
	"/>
<polygon class="st2" points="123.9,22.1 140.7,32.1 140.6,32.3 140.4,32.6 140.3,33 140.1,33.3 140,33.6 139.8,34 139.6,34.3 
	139.5,34.6 139.4,35 139.3,35.3 139.2,35.7 138.7,36.8 138,36.6 "/>
<polygon class="st2" points="123.9,22.1 143.8,27.5 143.7,27.7 143.5,27.9 143.2,28.2 143,28.4 142.8,28.8 142.6,29.1 142.3,29.5 
	142.1,29.7 141.9,30 141.8,30.4 141.5,30.6 141.3,30.9 141.2,31.3 141,31.6 140.7,31.9 140.7,32.1 "/>
<polygon class="st2" points="123.9,22.1 143.6,22.1 143.6,22.2 143.7,22.5 143.8,22.7 143.9,22.8 144,23 144.1,23.3 144.2,23.4 
	144.4,23.6 144.5,23.7 144.6,23.9 144.7,24.1 144.8,24.3 144.9,24.4 145,24.6 145.1,24.7 145.7,25.5 144.9,26.2 144.7,26.5 
	144.5,26.8 144.2,27.1 143.9,27.3 143.8,27.5 "/>
<polygon class="st2" points="123.9,22.1 138.4,18.2 138.3,18.3 141.9,18.3 142.2,19.1 142.2,19.2 142.3,19.4 142.4,19.7 142.4,19.9 
	142.6,20.1 142.7,20.3 142.8,20.6 142.9,20.7 142.9,20.9 143,21.1 143.1,21.3 143.2,21.6 143.3,21.7 143.5,21.9 143.5,22.1 
	143.6,22.1 "/>
<polygon class="st2" points="123.9,22.1 140.7,12.2 140.7,12.2 140.7,12.3 140.9,12.6 140.9,12.7 141,12.8 141,12.9 141.1,13 
	141.1,13.1 141.1,13.3 141.2,13.5 141.3,13.6 141.3,13.7 141.4,13.8 141.4,13.9 141.5,14.1 141.5,14.2 141.9,14.9 138.4,18.2 "/>
<polygon class="st2" points="123.9,22.1 136.8,8.9 136.9,8.9 137,9.1 137.3,9.1 137.4,9.2 137.5,9.2 137.7,9.2 137.8,9.2 137.9,9.3 
	138,9.3 138.3,9.3 138.4,9.3 138.5,9.4 138.7,9.4 138.8,9.4 139.1,9.4 139.2,9.5 139.3,9.5 140.1,9.5 140.2,10.3 140.2,10.4 
	140.2,10.5 140.3,10.6 140.3,10.7 140.3,10.9 140.4,11.1 140.4,11.2 140.4,11.3 140.5,11.4 140.5,11.5 140.5,11.8 140.6,11.9 
	140.6,12 140.7,12.1 140.7,12.2 "/>
<polygon class="st2" points="123.9,22.1 131.3,9.2 131.3,10.6 134.5,8.2 135,8.4 135.1,8.4 135.3,8.5 135.4,8.5 135.6,8.6 
	135.7,8.6 135.8,8.7 136,8.7 136.1,8.7 136.2,8.8 136.4,8.8 136.5,8.9 136.7,8.9 136.8,8.9 136.8,8.9 "/>
<polygon class="st2" points="123.9,22.1 128.3,5.2 128.3,5.2 128.6,5.3 128.8,5.4 129,5.6 129.2,5.7 129.5,5.7 129.7,5.8 129.9,5.9 
	130.1,6 130.3,6.1 130.5,6.2 131.2,6.5 131.3,9.2 "/>
<polygon class="st2" points="123.9,22.1 123.9,2.7 124.4,3.1 124.5,3.2 124.7,3.3 125,3.4 125.2,3.5 125.3,3.6 125.5,3.8 125.8,3.9 
	126,4 126.1,4.1 126.3,4.2 126.5,4.2 126.8,4.3 127,4.5 127.1,4.5 127.3,4.7 127.6,4.8 127.8,4.9 128,5 128.2,5.1 128.3,5.2 "/>
<path class="st2" d="M122.4,32.8c-3.6,0.2-7.4,1.1-12,2.8c-1.9-3.7-4.2-7.2-7.2-10.1c1.5-1.8,2.5-3.9,3.2-6.2l5-0.2l-4.5-4.6
	c0.7-1.2,1.2-2.6,1.5-4.3c1.6-0.1,3.3-0.7,5-1.1l4.2,3.2l0.1-5.2c2.3-1,4.3-2.1,6.4-3.5c2.1,1.2,4.4,2.5,6.7,3.4l0.1,5.2l4.1-3.2
	c1.6,0.7,3.2,1,4.7,1.2c0.3,1.6,0.9,3,1.6,4.4l-3.9,3.7l0.3,0.7l4.1-0.1c0.8,2.3,1.9,4.4,3.3,6.3c-3,2.9-5.1,6.4-6.4,10.4
	c-4.3-1.7-8.5-2.5-12.5-2.9v7.1c0,1.4-3.4,1.5-3.4-0.1L122.4,32.8L122.4,32.8z"/>
<path class="st0" d="M154.7,54.9c0.1-2.7,2.1-5.3,4.8-4.8c0.8,0.1-0.1,3.6-1.6,3.9C157,54.7,155.9,55.2,154.7,54.9L154.7,54.9z
	 M154.4,60c6.7-1.4,9.8-5.2,10-9c0.2-2.6-0.6-5.5-2.9-5.9c-0.8-0.1-5.5-1-8.8,3.8c-1.1,1.6-2,3.8-2.6,7c-1,5.9,0.5,13.6,14.2,6.3
	c1.4-1.7,1.2-4.4-1.2-3.9C158.1,61.5,155.1,62.2,154.4,60L154.4,60z M137.4,63.7c0.8-4.4,1.6-8.9,2.4-13.3c-1-0.1-1.9-0.2-2.6-0.8
	c-0.3-1.4-0.1-2.8,0.6-4.3c3.8,0.8,4.7-5.4,5.8-12.7c2.4-2.6,4.1-2.1,5.3,0.3l-1.8,10.7l5.9,0.1c1.2,3.8-1.1,6.1-7.1,6.4
	c-0.6,4.7-1.4,9.4-2.8,13.8C141,65.3,139.2,65.9,137.4,63.7L137.4,63.7z M133.8,50.8c1.8-0.2,1.2-6-1.6-5.4
	c-8.6,1.6-14.5,6.9-13.1,13.1c2.1,9.2,12.7,10.3,16.1,4.1l-0.3-4.4c-5.2,2.8-9.5,2.8-10-0.6C124.2,53.8,130,51.2,133.8,50.8
	L133.8,50.8z M106.7,57c-0.9,3.4,1.9,5.1,4.1,3c0.2-0.2,1.2-3,1.6-3.9c0.1-0.5,0.2-2.5,0.1-3.6c-0.3-2.5-2.4-1.2-3.3-0.6
	C107.7,53,107.1,55.1,106.7,57L106.7,57z M101.5,55.4c0.9-6.2,8-13.1,14.5-7.6c5,4.4,2.5,13.1-3.3,17.4
	C106.9,69.4,100.2,64.5,101.5,55.4L101.5,55.4z M75.7,65.1c3-9.2,5.6-18.7,6.7-29.4c1.5-1.5,3.3-1.4,5.2-0.7l6.2,17.4
	c3.9-14.4,8.2-18.2,13-22c5-4.1,10.7-0.5,6.1,3C100,43,99.5,53.4,97,64c-2.1,4.1-4.1,5.3-5.4,0.3c-1.2-6.1-2.5-12.2-5.3-16.3
	c-0.8,5.9-2.5,11.7-5.5,17.6C77.7,67.5,75.5,67.3,75.7,65.1L75.7,65.1z"/>
<path class="st0" d="M132.5,68.9l-3.9,5.3l-4.1-5.3h-1.6v8.8h1.6v-5.4c0-0.3,0-0.6,0-0.9c0.1,0.3,0.3,0.7,0.6,0.9l3.3,4.4h0.3
	l3.3-4.4c0.2-0.3,0.3-0.6,0.5-0.9c0,0.5-0.1,0.8-0.1,0.9v5.4h1.8v-8.8H132.5L132.5,68.9z"/>
<path class="st0" d="M117.9,68.9h-1.9l-3.9,7.2h-5.8v-7.2h-2v8.8c0-0.1,8.8,0,8.8,0l1-1.9h5.5l1,1.9h2.3L117.9,68.9L117.9,68.9z
	 M114.8,74.2l1.9-3.6l1.8,3.6H114.8z"/>
<polygon class="st0" points="100,74.3 74.8,74.3 74.8,73.2 100,73.2 "/>
<polygon class="st0" points="162.5,74.3 137.3,74.3 137.3,73.2 162.5,73.2 "/>
<path class="st0" d="M133.1,21.5c0-0.7,0.6-1.5,1.4-1.4c0.2,0,0,1-0.5,1C133.8,21.5,133.4,21.5,133.1,21.5z M133,22.8
	c1.8-0.3,2.6-1.4,2.7-2.4c0.1-0.7-0.1-1.5-0.8-1.6c-0.9-0.1-1.9,0.2-2.4,1c-0.3,0.6-0.6,1.2-0.7,1.9c-0.2,1.6,0.1,3.6,3.8,1.7
	c0.3-0.5,0.3-1.1-0.3-1C134,23.3,133.2,23.4,133,22.8L133,22.8z M128.5,23.8l0.7-3.6c-0.2,0-0.5-0.1-0.7-0.2c-0.1-0.3,0-0.8,0.1-1.1
	c1,0.2,1.2-1.5,1.6-3.4c0.7-0.7,1.1-0.6,1.5,0.1c-0.1,0.9-0.3,1.9-0.5,2.8h1.6c0.3,1-0.3,1.6-1.9,1.7c-0.1,1.2-0.3,2.5-0.8,3.7
	C129.4,24.3,128.9,24.4,128.5,23.8L128.5,23.8z M127.4,20.3c0.5-0.1,0.3-1.6-0.5-1.5c-2.3,0.5-3.9,1.8-3.5,3.5
	c0.6,2.5,3.4,2.8,4.3,1.1l-0.1-1.1c-1.4,0.8-2.6,0.8-2.7-0.1C124.9,21.1,126.4,20.4,127.4,20.3L127.4,20.3z M120.2,22
	c-0.2,0.9,0.5,1.4,1.1,0.8c0.1-0.3,0.3-0.7,0.5-1c0.1-0.3,0.1-0.7,0-1c-0.1-0.7-0.7-0.3-0.9-0.1C120.5,20.9,120.3,21.5,120.2,22
	L120.2,22z M118.8,21.6c0.2-1.7,2.1-3.5,3.9-2c1.4,1.1,0.7,3.5-0.9,4.6C120.2,25.4,118.4,24.1,118.8,21.6z M111.9,24.2
	c0.8-2.5,1.5-5.1,1.8-7.9c0.3-0.3,0.9-0.3,1.4-0.2c0.6,1.6,1.1,3,1.7,4.6c1-3.8,2.3-4.8,3.5-5.9c1.4-1.1,2.9-0.1,1.7,0.8
	c-3.4,2.6-3.5,5.3-4.3,8.2c-0.6,1.1-1.1,1.5-1.5,0.1c-0.3-1.7-0.7-3.3-1.5-4.4c-0.2,1.7-0.7,3.3-1.5,4.7
	C112.4,24.8,111.8,24.8,111.9,24.2L111.9,24.2z"/>
<path class="st0" d="M119.2,27.7h2.3v-0.5h-1.7v-1.9h-0.6V27.7L119.2,27.7z M121.6,27.7h0.6l0.2-0.6h1.5l0.2,0.6h0.6l-1.4-2.4h-0.6
	L121.6,27.7L121.6,27.7z M122.7,26.6l0.6-0.9l0.5,0.9H122.7z M124.9,27.7h0.5v-1.5c0-0.1,0-0.1,0-0.2c0,0.1,0.1,0.1,0.1,0.2l0.9,1.1
	h0.1l0.9-1.1c0.1-0.1,0.1-0.1,0.1-0.2c0,0.1,0,0.2,0,0.2v1.5h0.5v-2.4h-0.5l-1,1.5l-1.1-1.5h-0.5V27.7L124.9,27.7z"/>
<path class="st0" d="M100.3,79.3c-0.8-0.9-1.7-0.8-2.5,0c-2.7,2.8-4.1,6.5-5.9,10c-0.3,0.7-1,0.9-0.9,0c0.2-2.5,0.3-4.8,0.6-7.2
	c-1.2,3-3.8,7.7-7.4,8.2c-1.1,0-2.5-0.3-2.5-1.8c0-0.6,0.1-1,0.5-1.5c0.5-0.6,1.2-0.5,1.2,0.5c0,0.8-1.6,2.6,0.8,2.1
	c3.5-0.7,6.2-5.3,7.4-8.2c0.2-0.3,0.3-1,0.7-1.6c0.1-0.3,0.3-0.6,0.7-0.7c0.9-0.3,0.2,1.1,0.1,1.6c-0.2,2-0.3,4.2-0.5,6.2
	c1.1-2.3,3.7-8,5.9-9.2C99.4,77.4,100.4,77.6,100.3,79.3L100.3,79.3z"/>
<path class="st0" d="M97.9,85.6c-0.6-1.7-2.9,0-3.7,1.9c-0.3,0.8-0.7,2.4,0.7,2c0.6-0.1,1.1-0.6,1.7-1.1c-0.2,1.2,0.7,1,1.5,0.6
	c1.1-0.7,1.8-2,2.5-3.2c0.7,0.8,1.6,0.6,2.6-0.1c-1,1.2-2.4,2.1-3.6,3.2c-0.3,0.3,0,1,0.2,0.6s0.9-1.1,1.4-0.6
	c0.2,0.2,0.2,0.7-0.1,1.1c-0.8,0.7-1.7,1.4-2.5,2.1c-1,1-2,2-2.9,3.2c-0.6,0.7-1.1,1.6-1.5,2.5c-0.7,2.3,1.4,1.8,2.7,0.7
	c1.6-1.4,2.9-2.9,3.9-4.7c0.9-1.6,1.1-2.4,1.4-4.3c0.7-0.7,1.2-1.4,1.9-2c-1.1,2.7,0.9,2.7,2.4,0.9c-0.1,2.9,2.5,0,3-0.8
	c0.5-0.7,0.8-1.4,1.4-1.9c0.1-0.2,0.5-0.2,0.7-0.1c0.2,0.2,0.1,0.5,0,0.7l0,0c-0.6,0.7-0.9,1.4-1.4,2.1c-0.5,1.1,0.7,1.5,1.5,0.8
	c0.7-0.5,1.2-1.1,1.8-1.8v-0.7c-0.6,0.6-1,1.2-1.6,1.8c-0.6,0.6-0.8,0.3-0.6-0.2c0.2-0.6,0.6-1.1,0.9-1.6c0.2-0.5,0.7-1.2-0.1-1.4
	l-0.6-0.1c-0.3-0.3-0.2-0.6,0.2-0.9c-0.2-0.7-1.5,0.2-1.1,1c-0.7,1-1.4,2.3-2.1,3c-0.7,0.7-1.4,0.7-0.6-0.7c0.3-0.7,0.8-1.2,1.1-1.9
	c0.2-0.5,0.6-0.8-0.2-0.8c-0.3,0-0.7,0.2-0.9,0.7c-0.2-2.1-3.2,0.8-3.7,1.4l-1.9,2.1c-0.1-0.6-0.6-0.8-1.1-0.9
	c0.9-0.5,3.4-1.8,2.7-3.2c-1.4,0.5-2.7,0.9-2.1-0.5c-0.3-0.5-0.8,0-0.9,0.3c-0.3,1.1-1.1,2-1.9,3c-0.8,1.1-1.4,0.7-0.7-0.3l1-1.7
	c0.2-0.3,0.5-1.2-0.3-0.9C98.4,85.3,98.1,85.5,97.9,85.6L97.9,85.6z M97.3,85.6c0.3,0.2,0,1.1-0.7,2.1c-0.7,0.9-1.5,1.5-1.8,1.2
	c-0.3-0.2,0-1.1,0.7-2.1C96.2,85.9,97,85.4,97.3,85.6z M107.3,85.6c0.3,0.2,0,1.2-0.7,2.1c-0.7,0.9-1.5,1.6-1.9,1.4
	c-0.3-0.2,0-1.2,0.7-2.1C106,85.9,106.9,85.4,107.3,85.6z M100.8,90.7c-0.9,2.3-1.9,4.4-3.4,6.3c-2.5,3.4-4.3,2.5-1.8-1
	C97.2,93.8,99,92.3,100.8,90.7z"/>
<path class="st0" d="M120.7,81.9l0.8,0.1c-0.5,2.3-1,4.5-1.5,6.7c-0.1,0.6-0.9,0.3-1-0.1l-0.9-3.9l-0.9,4.3c-0.1,0.5-1,0.5-0.9-0.1
	l1.5-5.6c0.1-0.2,0.1-0.5,0.1-0.7c0.7,0.2,0.9,0.2,1,0.8c0.1,1.1,0.7,3.8,0.7,3.8L120.7,81.9z"/>
<path class="st0" d="M124.2,82.1l1.4,0.2l-0.2,6.8l-0.9,0.1c0-0.5-0.1-0.9-0.1-1.5c-0.1-0.6-0.1-0.8-0.5-0.7
	c-0.5,0.1-0.9,0.2-1.2,0.3l-0.8,2l-1-0.1L124.2,82.1z M124.3,83.8c-0.3,0.6-0.6,1.2-0.9,1.8c-0.3,0.7-0.1,0.6,0.7,0.7
	c0.5,0,0.3,0,0.3-0.5C124.4,85,124.3,84.4,124.3,83.8L124.3,83.8z"/>
<path class="st0" d="M131.1,85.6c0.5,0.3,0,0.7-0.5,0.5c-2.1-1.5-1.6-4.6,0.2-6c1.5-1.1,3.9-0.5,5.8-0.3c0.5,0,0.9-0.1,1.1-0.5
	c0.1-0.1,0.2,0,0.1,0.2c-0.8,1.5-1.7,2.9-2.5,4.3l2.1,0.1c1.1-1.7,2.8-5.1,5.1-5.5c0.6-0.1,1.1,0.2,1.6,1.1
	c-0.5-0.3-0.9-0.7-1.5-0.6c-1.5,0.2-3.2,3.6-3.8,4.8l1.7,0.1l-0.1,0.5c-0.6,0-1.2,0-1.8,0l-1.4,2.6c-0.3,0.8-0.9,2.8,0.7,1.6
	c0.9-0.8,1.4-1.7,2.1-2.5c0.7-0.7,2.1-1.8,2.9-0.6c0.3-0.1,0.5-0.3,0.7-0.5c0.6-0.2,0.7,0.3,0.3,0.8c-0.5,0.7-0.7,1.4-1,2.1
	c-0.5,1,0,0.9,0.6,0.3c0.8-0.9,1.6-1.8,2.1-2.8c-0.2,0-0.5,0-0.7,0c0.1-0.1,0.1-0.2,0.2-0.3h0.7l1.7-2.8c0.3-0.6,0.6-0.9,1.2-0.7
	c0.2,0.1,0,0.2-0.1,0.5c-0.7,0.9-1.1,2-1.7,2.9c0.3,0,0.7,0,1,0c0,0.1,0,0.2,0.1,0.5h-1.4l-0.9,2.3c-0.5,1.1,0,1.5,0.9,0.3l1.4-1.7
	c0.5-0.6,0.9-1.1,1.7-1.4c1.2-0.3,2.3,0.3,0.7,1.9c-0.3,0.5-0.9,0.8-1.5,0.9c-1,0.2-0.6,1.5,0.3,1c0.8-0.3,1.6-1.4,2.3-2.3
	c0.5-0.5,0.9-0.8,1.2-1.2c0.5-0.5,1.6-0.8,1.2,0.1c-0.2,0.7-0.9,1.6-1.1,2c-0.3,0.8-0.7,1.8,0.3,0.9c0.5-0.5,0.9-1,1.4-1.6
	c0.7-0.9,1.5-1.9,2.1-2c0.5,0,0.7,0,0.2,0.7c-2.1,4.1-4.2,8.2-6,12.5c-0.1,0.3,0.1,0.5,0.3,0.2c1.8-3.6,3.4-7,5.3-10.4l0.6-0.9
	c0.2-0.5,0.6-0.1,0.2,0.3c-1.9,2.9-3.5,6.2-5.2,9.7c-0.3,0.6-0.6,1.1-0.9,1.7c-0.9,1.5-1.9,0.2-1.2-1c0.1-0.3,0.3-0.8,0.6-1.1
	l4.7-10c-0.9,1-1.7,2.4-2.8,2.7c-2.3,0.8-0.3-2.5,0-3c-1.1,0.9-2.4,3.2-3.9,3.3c-1.1,0-1.2-0.8-1.2-1.8c-1.2,2.3-4.1,2.9-2.6-0.7
	c-0.6,0.7-3.5,4.4-3.5,1.5c-1.1,0.9-3,1.8-2.5-0.7c-1.5,2.6-4.5,2.1-3-1.1c0.2-0.6,0.6-1.1,0.9-1.7c0.3-0.6,0.3-0.8-0.1-0.8
	s-0.9,0-1.4,0c-0.5,0-0.6,0.3-0.7,0.7c-1,1.8-2,3.5-3.9,4.5c-1.6,0.8-3.2,0.3-3.2-1.6c0-1.5,1.4-1.8,1.6-0.8c0.1,0.6,0,0.7-0.3,1.1
	c-0.6,0.7,0,1.6,0.9,1.2c0.2-0.1,0.6-0.2,0.8-0.5c1.5-1.2,2.4-2.9,3.2-4.6h-1.4l0.2-0.5h1.4c0.9-1.5,1.7-2.6,2.9-3.8
	c-2.1-0.1-5.4-0.8-6.5,1.6C129.6,83.1,129.8,84.7,131.1,85.6L131.1,85.6z M142.8,85.5c-0.3-0.2-1.1,0.3-1.9,1.2
	c-0.7,0.9-1,1.9-0.7,2.1c0.3,0.2,1.1-0.3,1.9-1.2C142.8,86.7,143.1,85.8,142.8,85.5L142.8,85.5z M149.9,87.3
	c1.9-1.8,1.1-3.3-0.5-0.2C149.2,87.5,149.4,87.8,149.9,87.3z"/>
<path class="st0" d="M139.5,2.2c0.3,0,0.7,0.1,0.9,0.2c0.3,0.1,0.6,0.3,0.7,0.7c0.1,0.3,0.2,0.6,0.2,0.9s-0.1,0.7-0.2,0.9
	c-0.1,0.3-0.3,0.6-0.7,0.7c-0.6,0.3-1.2,0.3-1.8,0c-0.3-0.1-0.6-0.3-0.7-0.7c-0.1-0.3-0.2-0.6-0.2-0.9s0.1-0.7,0.2-0.9
	c0.1-0.3,0.3-0.6,0.7-0.7C138.8,2.2,139.2,2.2,139.5,2.2L139.5,2.2z M139.5,2.4c-0.2,0-0.6,0.1-0.8,0.2c-0.2,0.1-0.5,0.3-0.6,0.6
	c-0.1,0.2-0.2,0.5-0.2,0.8c0,0.2,0.1,0.6,0.2,0.8c0.1,0.2,0.3,0.5,0.6,0.6c0.5,0.2,1,0.2,1.5,0c0.2-0.1,0.5-0.3,0.6-0.6
	c0.1-0.2,0.2-0.5,0.2-0.8c0-0.2-0.1-0.6-0.2-0.8c-0.1-0.2-0.3-0.5-0.6-0.6C140.1,2.5,139.7,2.4,139.5,2.4L139.5,2.4z M140.1,4.2
	c-0.1,0.2-0.3,0.5-0.6,0.5c-0.1,0-0.3-0.1-0.5-0.2c-0.1-0.1-0.2-0.3-0.1-0.6c0-0.2,0-0.5,0.2-0.6c0.1-0.1,0.2-0.2,0.5-0.2
	c0.1,0,0.2,0,0.3,0.1s0.1,0.1,0.2,0.2l0.3-0.1c0-0.1-0.1-0.3-0.3-0.5c-0.1-0.1-0.3-0.1-0.6-0.1c-0.2,0-0.3,0-0.6,0.1
	c-0.1,0.1-0.2,0.2-0.3,0.3c-0.1,0.2-0.1,0.3-0.1,0.6c0,0.3,0.1,0.6,0.2,0.8c0.3,0.3,0.9,0.3,1.2,0.1c0.1-0.1,0.2-0.3,0.3-0.5
	L140.1,4.2z"/>
</svg>
