<?xml version="1.0" encoding="utf-8"?>
<!-- Generator: Adobe Illustrator 24.0.0, SVG Export Plug-In . SVG Version: 6.00 Build 0)  -->
<svg version="1.1" id="Layer_1" xmlns="http://www.w3.org/2000/svg" xmlns:xlink="http://www.w3.org/1999/xlink" x="0px" y="0px"
	 viewBox="0 0 240 100" style="enable-background:new 0 0 240 100;" xml:space="preserve">
<style type="text/css">
	.st0{fill-rule:evenodd;clip-rule:evenodd;fill:#1C1C1A;}
</style>
<g>
	<path class="st0" d="M142.7,85.6v-1.1c0.3,0.2,0.6,0.4,0.9,0.5c0.2,0.1,0.5,0.1,0.7,0.1c0.2,0,0.4,0,0.5-0.1
		c0.1-0.1,0.2-0.2,0.2-0.3c0-0.1,0-0.2-0.1-0.3c-0.2-0.1-0.3-0.2-0.5-0.3c-0.5-0.2-1-0.4-1.4-0.8c-0.3-0.3-0.4-0.6-0.4-1
		c0-0.4,0.2-0.8,0.5-1c0.4-0.3,0.8-0.4,1.3-0.4c0.3,0,0.6,0,0.8,0.1c0.3,0.1,0.6,0.2,0.8,0.3v1c-0.3-0.2-0.6-0.3-0.9-0.4
		c-0.2-0.1-0.5-0.1-0.7-0.1c-0.2,0-0.4,0-0.5,0.1c-0.1,0.1-0.2,0.2-0.2,0.3c0,0.1,0.1,0.2,0.2,0.3c0.2,0.1,0.3,0.2,0.5,0.3l0.2,0.1
		c0.3,0.1,0.7,0.3,1,0.4c0.2,0.1,0.4,0.3,0.5,0.5c0.1,0.2,0.2,0.5,0.2,0.7c0,0.4-0.2,0.8-0.5,1.1c-0.4,0.3-0.9,0.4-1.4,0.4
		C143.8,86.1,143.2,85.9,142.7,85.6 M137.2,86v-4.8h3.2V82h-2v1h1.9v0.9h-1.9v1.2h2.1V86H137.2z M132.2,86v-3.9h-1.6v-0.9h4.4v0.9
		h-1.6V86H132.2z M124.1,86l2.1-4.8h1.4l1.9,4.8h-1.3l-0.4-0.9h-2.1l-0.4,0.9H124.1z M126.1,84.2h1.4l-0.7-1.8L126.1,84.2z
		 M118.5,83v3h-1.2v-4.8h1.1L121,84v-2.9h1.2V86h-0.9L118.5,83z M113.5,86v-4.8h1.2V86H113.5z M105.7,86v-4.8h1.1l1.5,1.9l1.5-1.9
		h1.1V86h-1.2v-3l-1.4,1.8l-1.4-1.8v3H105.7z M98.4,86l2.1-4.8h1.4l1.9,4.8h-1.3l-0.4-0.9h-2.1L99.7,86H98.4z M100.4,84.2h1.4
		l-0.7-1.8L100.4,84.2z M93.6,86v-4.8h1.2v3.9h2.1V86H93.6z"/>
	<path class="st0" d="M140.9,77.5l7.5-15.4h1.6l7.6,15.4h-2.1l-2.1-4.1H145l-2,4.1H140.9z M145.9,71.6h6.8l-3.4-6.8L145.9,71.6z
		 M133.5,77.5h-1.2l-7.4-15.4h2.1l5.9,12.3l6-12.3h2.1L133.5,77.5z M119.3,77.5V62.1h1.9v15.5H119.3z M100.5,77.5V62.1h8.8
		c1.5,0,2.7,0.4,3.5,1.1c0.9,0.8,1.3,1.8,1.3,3.2c0.1,2.2-1.5,4-3.7,4.3l3.8,6.8h-2.1l-3.9-6.7h-6v6.7H100.5z M102.4,69h6.8
		c1,0,1.7-0.2,2.2-0.6c0.5-0.4,0.8-1.1,0.8-1.9c0.1-0.7-0.2-1.4-0.8-1.9c-0.5-0.5-1.2-0.7-2.1-0.7h-6.9L102.4,69z M82.2,77.5V62.1
		H91c1.5,0,2.7,0.4,3.5,1.1c0.9,0.7,1.3,1.8,1.3,3.1c0,1.3-0.4,2.4-1.2,3.3c-0.8,0.8-1.9,1.2-3.3,1.2h-7.2v6.7H82.2z M84.1,69h6.8
		c1,0,1.7-0.2,2.2-0.6c0.5-0.4,0.8-1.1,0.8-1.9c0.1-0.7-0.2-1.4-0.8-1.9c-0.5-0.5-1.2-0.7-2.1-0.7h-6.9V69z"/>
	<path class="st0" d="M120.2,57.1l-5.4-11.2l1.9-3.8l0.6,1.1l1.4,2.9l1.6,3.3l10.6-21.7l1.9,3.8C128.6,40,124.4,48.6,120.2,57.1
		 M127.3,5L149,49.5h-21.3l1.6-3.4h14.3l-16.3-33.5l-8.1,16.7l0,0l-0.3,0.6l-0.3,0.6l-0.3,0.6l-0.3,0.6l-0.3,0.7l-0.3,0.6l-0.3,0.6
		l-0.3,0.6l-0.3,0.6l-0.3,0.7l-0.3,0.6l-0.3,0.6l-0.3,0.6l-0.3,0.6l-0.3,0.6l-0.3,0.6l-0.3,0.6l-0.3,0.6l-0.3,0.6L113,42l-0.3,0.6
		l-0.3,0.6l-0.3,0.6l-0.2,0.3l-4.5,9.3h-3.8l5.7-11.6l1.9-3.8l-3.1-6.4l-2.3-4.8l-9.4,19.2h7.1l-1.6,3.4H90.9l14.7-30.1l4.9,10
		l0,0.1l0.1,0.2l0.1,0.2l0.1,0.2l0.1,0.2l0.1,0.2l0.1,0.2l0.1,0.2l0.1,0.2l0.1,0.2l0.1,0.2l0.1,0.2l0.1,0.2l0.1,0.2l0.1,0.2l0.1,0.2
		l0.1,0.2l0.1,0.2l0.1,0.2l0.1,0.2L113,34l0.1,0.2l1.9-3.8l1.5-3.1L127,5.9L127.3,5z"/>
	<path class="st0" d="M155.6,64.1v-2.3h0.5l0.5,1.6c0.1,0.2,0.1,0.3,0.1,0.4c0-0.1,0.1-0.2,0.1-0.4l0.6-1.6h0.4v2.3h-0.3v-1.9
		l-0.7,1.9h-0.3l-0.7-2v2H155.6z M154.2,64.1v-2h-0.8v-0.3h1.8v0.3h-0.8v2H154.2z"/>
	<path class="st0" d="M101.6,94.6c0.1-0.1,0.1-0.2,0.2-0.3l0-0.1c0,0,0.1-0.1,0.1-0.1v0c0,0,0,0,0.1-0.1l0.2-0.5
		c0-0.1,0.1-0.1,0.1-0.2c0-0.1,0.1-0.1,0.1-0.3c0,0,0,0-0.1,0.1s0,0.1,0,0.1h-0.1c0,0.1-0.1,0.1-0.1,0.1l0,0c0,0-0.1,0-0.1,0.1
		l-0.1,0.1v0.1c0,0.1-0.1,0.1-0.1,0.2c0,0.1-0.1,0.1-0.1,0.1h0l0,0.1c0,0.1,0,0.1-0.1,0.2c0,0,0,0.1-0.1,0.1v0.1v0.1
		C101.6,94.3,101.6,94.4,101.6,94.6L101.6,94.6z M103.3,92.1l0.1,0l0.1,0h0l0.1,0c0,0,0.1,0,0.1,0.1c0.1,0,0.2-0.1,0.2-0.1
		c0,0,0.1,0,0.1,0h0c0,0,0,0,0-0.1c0,0,0-0.1,0.1-0.1c0.1-0.1,0.1-0.1,0.1-0.2l0.1-0.1l0.1-0.2c0-0.1,0.1-0.1,0.1-0.2l0-0.1
		c0,0,0-0.1,0-0.1c0-0.1,0-0.1-0.1-0.1l-0.1,0.1l0,0c0,0-0.1,0-0.1,0c0,0,0,0-0.1,0c0,0,0,0-0.1,0c0,0-0.1,0-0.1,0c0,0-0.1,0-0.1,0
		c0,0-0.1,0-0.1,0.1h0l0,0H104c0,0.1-0.1,0.1-0.1,0.1c0,0-0.1,0.1-0.1,0.1h-0.1c0,0,0,0-0.1,0.1c0,0-0.1,0.1-0.1,0.1l-0.1,0
		c0,0-0.1,0.1-0.1,0.1l-0.2,0.2l0,0h0l0,0.1l0,0c-0.1,0-0.1,0.1-0.1,0.2l0,0.1c0,0,0,0,0,0s0,0,0.1,0
		C103.2,92.2,103.2,92.2,103.3,92.1C103.3,92.1,103.3,92.1,103.3,92.1L103.3,92.1z M107.1,89.5l0-0.2v0c0-0.1,0.1-0.2,0.1-0.2
		c0.1,0,0.1,0,0.2-0.1c0.1,0,0.1,0.1,0.2,0.1c0.1,0.1,0.1,0.1,0.1,0.2c0,0,0,0,0,0c0,0,0,0.1,0,0.1c0,0.1,0,0.1-0.1,0.1
		s-0.1,0.1-0.2,0.1s-0.1,0-0.1-0.1C107.1,89.6,107.1,89.6,107.1,89.5L107.1,89.5z M112.1,89.5l0-0.2v0c0-0.1,0.1-0.2,0.1-0.2
		c0.1,0,0.1,0,0.2-0.1c0.1,0,0.1,0.1,0.1,0.1c0.1,0.1,0.1,0.1,0.1,0.2v0c0,0,0,0.1,0,0.1c0,0.1,0,0.1-0.1,0.1
		c-0.1,0-0.1,0.1-0.2,0.1s-0.1,0-0.1-0.1C112.2,89.6,112.1,89.6,112.1,89.5L112.1,89.5z M118,93.1l-0.1,0c0,0-0.1,0-0.1,0s0,0,0,0
		c-0.1,0.1-0.1,0.1-0.2,0.1c-0.1,0-0.2,0.1-0.2,0.1c0,0-0.1,0.1-0.1,0.1c0,0,0,0,0,0c0,0-0.1,0-0.1,0.1c0,0-0.1,0-0.1,0.1
		c0,0-0.1,0-0.1,0c-0.1,0.1-0.1,0.2-0.1,0.2h-0.1l0,0c0,0.1-0.1,0.1-0.1,0.1c0,0,0,0-0.1,0.1s-0.1,0.1-0.1,0.1
		c-0.1,0-0.1,0.1-0.1,0.1c0,0.1,0,0.1-0.1,0.1c0,0-0.1,0.1,0,0.1l0,0.1c0,0.1,0,0.1,0,0.1c0,0.1,0,0.1,0,0.1c0,0,0,0.1,0.1,0.1
		c0,0,0.1,0,0.1,0l0.2-0.1c0,0,0.1-0.1,0.1-0.1c0,0,0.1-0.1,0.1-0.1c0,0,0.1-0.1,0.1-0.1c0,0,0.1-0.1,0.1-0.1c0,0,0.1-0.1,0.1-0.1
		l0.2-0.2c0,0,0.1-0.1,0.1-0.1s0-0.1,0.1-0.1l0-0.1h0c0,0,0.1-0.1,0.1-0.1l0.1-0.2C117.9,93.3,117.9,93.2,118,93.1L118,93.1
		L118,93.1L118,93.1z M117.9,91.9L117.9,91.9c0.1-0.1,0.1-0.1,0.1-0.1c0,0,0.1,0,0.1-0.1c0.1-0.1,0.1-0.2,0.2-0.2l0,0
		c0-0.1,0.1-0.1,0.1-0.1c0,0,0.1,0,0.1-0.1c0,0,0-0.1,0-0.1c0,0,0,0,0,0s-0.1,0-0.1,0s0,0-0.1,0h-0.1c-0.1,0-0.1,0.1-0.2,0.1
		l-0.1,0.1c0,0-0.1,0-0.1,0s-0.1,0-0.1,0.1s0,0.1-0.1,0.1l0,0c0,0,0,0-0.1,0c0,0-0.1,0-0.1,0.1c0,0-0.1,0.1-0.1,0.1
		c-0.1,0.1-0.1,0.1-0.2,0.1c0,0-0.1,0-0.1,0.1c-0.1,0-0.1,0.1-0.1,0.1c0,0-0.1,0.1-0.1,0.1c0,0-0.1,0-0.1,0.1l0,0
		c0,0-0.1,0.1-0.1,0.1c0,0,0,0.1-0.1,0.1c0,0,0,0,0,0c0.1,0,0.1,0,0.2-0.1c0.1,0,0.1-0.1,0.1-0.1c0,0,0,0,0.1,0h0.2
		c0,0,0.1-0.1,0.1-0.1s0.1,0,0.1-0.1c0.1-0.1,0.1-0.1,0.2-0.1L117.9,91.9L117.9,91.9L117.9,91.9z M116.6,95L116.6,95
		c-0.1,0.1-0.1,0.1-0.1,0.1c-0.1,0-0.2-0.1-0.2-0.1c-0.1-0.1-0.1-0.2-0.1-0.3c0-0.1,0-0.2,0.1-0.3c0-0.1,0.1-0.1,0.1-0.2
		c0,0,0-0.1,0.1-0.2c0.1-0.1,0.1-0.2,0.2-0.3c0.1-0.1,0.1-0.1,0.1-0.2l0,0c0-0.1,0.1-0.1,0.1-0.1c0,0,0.1-0.1,0.2-0.2
		c0.1-0.1,0.2-0.2,0.3-0.2l0-0.1c0,0,0.1-0.1,0.1-0.1l0.2-0.1c0.1-0.1,0.1-0.1,0.2-0.1h0l0.1,0c0.1,0,0.2-0.1,0.3-0.1
		c0.1,0,0.2-0.1,0.2-0.1l0.1-0.1c0-0.1,0.1-0.1,0.1-0.2c0-0.1,0-0.1,0-0.1s0-0.1,0-0.1c0,0,0-0.1,0.1-0.1c0-0.1,0-0.1,0.1-0.1l0,0
		l0-0.1c0-0.1,0-0.1,0.1-0.1c0,0,0,0,0,0l0-0.1l0.1-0.1c0,0,0,0,0,0c0,0,0,0,0,0l0,0c-0.1,0.1-0.2,0.1-0.2,0.1c0,0-0.1,0.1-0.1,0.1
		c-0.1,0-0.1,0.1-0.1,0.1h0l0,0c0,0,0,0,0,0c0,0-0.1,0-0.1,0.1h-0.1c0,0,0,0,0,0.1c0,0.1-0.1,0.1-0.1,0.1c0,0-0.1,0-0.1,0.1l0,0h0
		c-0.1,0-0.1,0-0.1,0.1c0,0,0,0.1-0.1,0.1c0,0-0.1,0-0.1,0h-0.1c0,0.1-0.1,0.1-0.1,0.1l-0.1,0.1l-0.1,0c0,0-0.1,0-0.1,0.1
		c-0.1,0-0.1,0.1-0.2,0c-0.1,0-0.1-0.1-0.2-0.1c-0.1,0-0.1-0.2-0.2-0.4l0,0c0,0-0.1,0-0.1,0c0,0,0,0-0.1,0c-0.1,0-0.1,0-0.1-0.1v0
		l-0.1,0c0,0-0.1,0-0.1,0.1l-0.2,0.1c0,0,0,0.1,0,0.1h-0.1l0,0c0,0.1-0.1,0.1-0.2,0.1l-0.1,0c0,0,0,0-0.1,0l-0.1,0l-0.1,0
		c0,0-0.1,0-0.1,0c0,0-0.1,0-0.1-0.1c0,0-0.1-0.1-0.1-0.1c0-0.1-0.1-0.1-0.1-0.2c0,0,0,0,0-0.1c0,0,0,0,0-0.1c0,0,0-0.1,0-0.1l0,0
		c0,0,0,0,0-0.1c0,0,0-0.1,0-0.1s0-0.1,0-0.1c0,0,0,0,0-0.1s0,0,0-0.1s0,0,0-0.1l0-0.2l0-0.1v-0.1c0-0.1,0-0.1-0.1-0.1
		c0,0-0.1,0-0.1,0.1h0c-0.1,0-0.1,0.1-0.2,0.1c0,0-0.1,0-0.1,0c0,0-0.1,0-0.1,0.1l0,0c0,0,0,0-0.1,0.1c-0.1,0.1-0.1,0.1-0.2,0.1
		c-0.1,0.1-0.2,0.2-0.3,0.2c-0.1,0.1-0.1,0.1-0.2,0.1c0,0-0.1,0-0.1,0.1c0,0,0,0-0.1,0.1c0,0-0.1,0.1-0.1,0.1c0,0-0.1,0-0.1-0.1
		c0,0-0.1,0.1-0.1,0.1c0,0.1-0.1,0.1-0.1,0.1c0,0,0,0,0,0.1l0,0h0c0,0-0.1,0-0.1,0.1c0,0-0.1,0.1-0.1,0.1c0,0.1-0.1,0.1-0.1,0.1
		s0,0-0.1,0c0,0-0.1,0-0.1,0c-0.1,0-0.1-0.1-0.1-0.1c0-0.1-0.1-0.1-0.1-0.1c0-0.3,0.1-0.4,0.2-0.5v0v0c0,0,0-0.1,0.1-0.1
		c0,0,0.1-0.1,0.1-0.1c0,0,0-0.1,0.1-0.1h0.1c0,0,0,0,0-0.1c0,0,0,0,0-0.1c0,0,0,0,0-0.1c0-0.1,0-0.1,0.1-0.1c0,0,0.1-0.1,0.1-0.1v0
		c0,0.1-0.1,0.1-0.1,0.1c0,0-0.1,0.1-0.1,0.1h-0.1c-0.1,0.1-0.1,0.1-0.2,0.1c0,0-0.1,0.1-0.1,0.1c0,0,0,0,0,0c0,0-0.1,0-0.1,0.1h0
		c0,0-0.1,0-0.1,0v0c0,0.1,0,0.1-0.1,0.1c0,0-0.1,0.1-0.1,0.1c0,0.1-0.1,0.1-0.1,0.1c-0.1,0.1-0.1,0.1-0.2,0.1c0,0-0.1,0.1-0.1,0.1
		l-0.2,0.1l0,0c0,0-0.1,0-0.1,0c-0.1,0-0.1,0-0.1,0.1l-0.1,0c0,0-0.1,0-0.1,0s-0.1,0-0.1,0.1s0,0-0.1,0h-0.1l-0.1,0
		c-0.1,0-0.1,0-0.2-0.1c-0.1-0.1-0.1-0.1-0.1-0.2v0v-0.1c0,0,0-0.1,0-0.1c0,0,0-0.1,0-0.1v-0.1v0c0-0.1,0-0.1,0-0.1c0,0,0-0.1,0-0.1
		c0,0,0-0.1,0-0.1l0-0.1c0,0,0-0.1,0-0.1c0,0,0-0.1,0-0.1l0-0.1l0-0.1c0,0,0-0.1,0-0.1c0-0.1,0-0.1,0-0.1c0,0,0-0.1,0-0.1
		c0,0,0-0.1,0-0.1l0,0c0,0-0.1,0-0.1,0.1l-0.1,0c0,0,0,0-0.1,0s0,0,0,0s-0.1,0-0.1,0.1h0l-0.1,0l0,0c0,0-0.1,0-0.1,0.1
		c0,0.1-0.1,0.1-0.1,0.1l-0.1,0c0,0-0.1,0-0.1,0.1c0,0-0.1,0.1-0.1,0.1c0,0-0.1,0-0.1,0.1h0c0,0,0,0.1,0,0.1s0,0.1-0.1,0.1
		c0,0.1,0,0.1-0.1,0.1c0,0-0.1,0.1-0.1,0.1c-0.1,0.1-0.1,0.1-0.2,0.2c-0.1,0.1-0.1,0.1-0.2,0.1c0,0-0.1,0.1-0.1,0.1h0l0,0
		c0,0,0,0,0,0.1l0,0c0,0,0,0-0.1,0h0l0,0c0,0-0.1,0-0.1,0l0,0l0,0c0,0,0,0.1-0.1,0.1c-0.1,0-0.2,0.1-0.3,0.1l-0.1,0l-0.1,0.1
		c0,0,0,0-0.1,0l-0.1,0.1H109l-0.1-0.1c-0.1,0-0.1-0.1-0.2-0.2c0-0.1-0.1-0.1-0.1-0.2c0,0,0-0.1-0.1-0.1c0-0.1,0-0.2,0-0.3
		c0,0,0-0.1,0-0.1c0,0,0-0.1,0.1-0.1c0-0.1,0.1-0.1,0.1-0.2c0.1-0.1,0.1-0.2,0.2-0.3c0,0,0.1-0.1,0.1-0.1l0.1-0.1l0-0.1
		c0,0,0-0.1,0-0.1c0,0,0-0.1,0-0.1c0-0.1,0-0.1-0.1-0.1c0,0,0,0-0.1,0c0,0-0.1,0.1-0.1,0.1c0,0-0.1,0-0.1,0.1c0,0-0.1,0-0.1,0.1
		c-0.1,0-0.1,0.1-0.1,0.1l-0.1,0c0,0.1-0.1,0.1-0.1,0.1l-0.2,0c0,0,0,0,0,0.1c0,0-0.1,0.1-0.1,0.1c0,0-0.1,0.1-0.1,0.1
		c0,0-0.1,0-0.1,0l-0.1,0c0,0-0.1,0.1-0.1,0.1c0,0-0.1,0.1-0.1,0.1h0l0,0c0,0.1,0,0.1-0.1,0.1c0,0-0.1,0.1-0.1,0.1
		c0,0.1-0.1,0.1-0.1,0.1c-0.1,0.1-0.1,0.1-0.2,0.1c0,0-0.1,0.1-0.1,0.1l-0.2,0.1l0,0c0,0-0.1,0-0.1,0c-0.1,0-0.1,0-0.1,0.1l-0.1,0
		c0,0-0.1,0-0.1,0s-0.1,0-0.1,0.1c0,0,0,0-0.1,0h-0.1l-0.1,0c-0.1,0-0.1,0-0.2-0.1c-0.1,0-0.1-0.1-0.1-0.2v0v-0.1c0,0,0-0.1,0-0.1
		c0-0.1,0-0.1,0-0.1v-0.1v0c0-0.1,0-0.1,0-0.1c0,0,0-0.1,0-0.1s0-0.1,0-0.1l0-0.1c0,0,0-0.1,0.1-0.1c0,0,0-0.1,0-0.1l0-0.1l0-0.1
		c0,0,0-0.1,0-0.1c0-0.1,0-0.1,0.1-0.1c0,0,0-0.1,0-0.1c0,0,0-0.1-0.1-0.1c0,0-0.1,0-0.1,0.1l-0.1,0c0,0,0,0-0.1,0s0,0,0,0
		s-0.1,0-0.1,0.1h0.1l-0.1,0l0,0c0,0-0.1,0-0.1,0.1c0,0.1-0.1,0.1-0.1,0.1l-0.1,0.1c0,0,0,0-0.1,0.1s0,0.1-0.1,0.1
		c0,0,0,0.1-0.1,0.1c0,0-0.1,0-0.1,0.1s0,0-0.1,0.1c0,0,0,0.1-0.1,0.1l-0.1,0c-0.1,0.1-0.1,0.1-0.1,0.1h0h0l-0.1,0.1
		c0,0-0.1,0-0.1,0h-0.1c-0.2,0.2-0.3,0.2-0.3,0.2h-0.1c0,0,0,0,0,0.1c0,0,0,0.1-0.1,0.1l-0.1,0.1h-0.1c-0.1,0-0.1,0-0.1,0.1l0,0
		l-0.1,0l0,0c-0.1,0-0.1,0-0.1,0.1l-0.1,0.1l0,0l-0.1,0c0,0-0.1,0-0.1,0l0,0c0,0-0.1,0-0.1,0l-0.1,0.1h0h-0.1l-0.1,0
		c0,0,0,0-0.1,0.1s0,0,0,0h0h-0.1l-0.1,0c-0.1,0-0.1,0-0.1-0.1c-0.1,0-0.1-0.1-0.1-0.1l0-0.1c0,0-0.1,0-0.1-0.1l0,0c0,0,0,0,0,0.1
		c0,0,0,0,0,0.1c0,0.1,0,0.1,0,0.1c0,0.1-0.1,0.2-0.1,0.3l-0.1,0.1l0,0c0,0.1,0,0.1-0.1,0.1c0,0.1,0,0.1-0.1,0.2l0,0v0.1
		c0,0.1-0.1,0.1-0.1,0.2v0.1c0,0-0.1,0.1-0.1,0.2s-0.1,0.2-0.1,0.3l0,0.1l0,0.1l0,0.1c0,0,0,0,0,0v0l0,0c0,0.1,0,0.1-0.1,0.2
		c0,0,0,0,0,0.1c0,0-0.1,0.1-0.1,0.1c0,0.1-0.1,0.1-0.2,0.1l-0.2,0.1c-0.1,0-0.2-0.1-0.3-0.2c0-0.1-0.1-0.1-0.1-0.1
		c-0.1-0.1-0.1-0.2-0.1-0.3l-0.1-0.1c0-0.1,0-0.2,0.1-0.3l0.1-0.1c0,0,0-0.1,0-0.1c0,0,0-0.1,0-0.1c0-0.1,0.1-0.1,0.1-0.1
		c0-0.1,0.1-0.2,0.1-0.2l0.1-0.1c0,0,0-0.1,0.1-0.1c0-0.1,0.1-0.1,0.1-0.2c0,0,0.1-0.1,0.1-0.1c0,0,0-0.1,0-0.1c0-0.1,0-0.1,0.1-0.1
		c0,0,0.1,0,0.1-0.1l0-0.1c0,0,0.1-0.1,0.1-0.1c0,0,0.1-0.1,0.1-0.1c0-0.1,0.1-0.1,0.1-0.1l0.1-0.1c0,0,0-0.1,0-0.1l0.1-0.3
		c0-0.1,0.1-0.2,0.1-0.2l0-0.1l0.1-0.1l0-0.1c0-0.1,0.1-0.2,0.1-0.3v-0.1l0-0.1v0c0,0,0,0,0,0h0c-0.1,0-0.1,0-0.1,0l0,0.1
		c0,0,0,0.1-0.1,0.1h0h-0.1l-0.1,0.1c0,0-0.1,0.1-0.1,0.1l0,0c0,0-0.1,0-0.1,0c0,0-0.1,0.1-0.1,0.1v0c0,0.1-0.1,0.1-0.1,0.1l0,0
		l0,0.1c0,0,0,0-0.1,0c0,0,0,0,0,0c0,0,0,0.1-0.1,0.1c-0.1,0.1-0.1,0.1-0.1,0.1l-0.1,0c0,0,0,0.1,0,0.1c-0.1,0-0.1,0.1-0.1,0.1l0,0
		h0c-0.1,0.1-0.1,0.1-0.2,0.1l-0.1,0l0,0.1c0,0,0,0-0.1,0.1c-0.1,0-0.1,0.1-0.1,0.1l-0.1,0.1c-0.1,0-0.1,0.1-0.2,0.1h-0.1
		c-0.1,0-0.1,0-0.2,0.1c-0.1,0.1-0.1,0.1-0.2,0.1c-0.1,0-0.2,0-0.3-0.1c-0.1,0-0.1-0.1-0.1-0.1c0-0.1-0.1-0.1-0.1-0.1
		c0,0,0-0.1-0.1-0.1c0,0,0,0,0-0.1c0,0,0.1-0.1,0.1-0.1c0-0.1,0.1-0.1,0.2-0.1l0.1,0c0,0,0.1,0,0.1,0s0.1,0,0.1,0.1c0,0,0,0,0,0h0.1
		c0,0,0,0,0.1,0c0.1,0,0.2,0,0.2-0.1h0h0c0,0,0,0,0-0.1l0.1-0.1l0.1-0.2v0c0,0,0-0.1,0-0.1v-0.1c0,0,0,0,0.1-0.1c0,0,0.1,0,0.1-0.1
		v0c0,0,0-0.1,0-0.1l0-0.1v-0.1l0,0c0,0,0-0.1,0-0.1l0-0.1l0-0.1c0-0.1,0-0.1,0-0.1s-0.1,0-0.2,0.1c-0.1,0.1-0.1,0.1-0.2,0.2
		c0,0.1-0.1,0.1-0.1,0.1c-0.1,0-0.1,0.1-0.1,0.1c0,0,0,0.1-0.1,0.1l-0.3,0.2l-0.2,0.2L99.8,92l-0.2,0.2l-0.1,0.1l-0.1,0.1l-0.2,0.1
		c0,0,0,0.1,0,0.1h0l0,0c0,0.1-0.1,0.1-0.2,0.1l-0.1,0c0,0,0,0-0.1,0l-0.1,0l-0.1,0c0,0-0.1,0-0.1,0c0,0-0.1,0-0.1-0.1
		c0,0-0.1-0.1-0.1-0.1c0-0.1-0.1-0.1-0.1-0.2c0,0,0,0,0-0.1c0,0,0,0,0-0.1c0,0,0-0.1,0-0.1l0,0c0,0,0,0,0-0.1c0,0,0-0.1,0-0.1
		c0,0,0-0.1,0-0.1c0,0,0,0,0-0.1c0,0,0,0,0-0.1s0,0,0-0.1l0-0.2l0-0.1v-0.1c0-0.1,0-0.1-0.1-0.1c0,0-0.1,0-0.1,0.1h0
		c-0.1,0-0.1,0.1-0.2,0.1c0,0-0.1,0-0.1,0c0,0-0.1,0-0.1,0.1l0,0c0,0-0.1,0-0.1,0.1c-0.1,0.1-0.1,0.1-0.2,0.1
		c-0.1,0.1-0.2,0.2-0.3,0.2c-0.1,0.1-0.1,0.1-0.2,0.1c0,0-0.1,0-0.1,0.1c0,0,0,0-0.1,0.1c0,0-0.1,0.1-0.1,0.1c0,0-0.1,0-0.1-0.1
		c0,0-0.1,0.1-0.1,0.1c0,0-0.1,0.1-0.1,0.1c-0.1,0,0,0,0,0.1l0,0h0c0,0,0,0-0.1,0.1c0,0-0.1,0.1-0.1,0.1c0,0.1-0.1,0.1-0.1,0.1
		s0,0-0.1,0c0,0-0.1,0-0.1,0s-0.1,0-0.1-0.1c0-0.1-0.1-0.1-0.1-0.1c0-0.3,0.1-0.4,0.2-0.5v0v0c0,0,0-0.1,0.1-0.1
		c0,0,0.1-0.1,0.1-0.1s0-0.1,0.1-0.1h0.1c0,0,0,0,0-0.1c0,0,0,0,0-0.1c0,0,0,0,0-0.1c0-0.1,0-0.1,0.1-0.1c0,0,0.1-0.1,0.1-0.1v0
		c0,0.1-0.1,0.1-0.1,0.1c0,0-0.1,0.1-0.1,0.1h0c-0.1,0.1-0.1,0.1-0.2,0.1c0,0-0.1,0.1-0.1,0.1c0,0,0,0,0,0c0,0-0.1,0-0.1,0.1h0
		c0,0-0.1,0-0.1,0v0c0,0.1,0,0.1-0.1,0.1c0,0-0.1,0.1-0.1,0.1c0,0.1-0.1,0.1-0.1,0.1c-0.1,0.1-0.1,0.1-0.2,0.1c0,0-0.1,0.1-0.1,0.1
		l-0.2,0.1l0,0l-0.1,0c-0.1,0-0.1,0-0.1,0.1l-0.1,0c0,0-0.1,0-0.1,0c0,0-0.1,0-0.1,0.1s0,0-0.1,0h-0.1l-0.1,0c-0.1,0-0.1,0-0.2-0.1
		c-0.1,0-0.1-0.1-0.1-0.2v0v-0.1c0,0,0-0.1,0-0.1c0,0,0-0.1,0-0.1v-0.1v0c0-0.1,0-0.1,0-0.1c0,0,0-0.1,0-0.1c0,0,0-0.1,0-0.1l0-0.1
		c0,0,0-0.1,0-0.1c0,0,0-0.1,0-0.1l0-0.1l0-0.1c0,0,0-0.1,0-0.1c0-0.1,0-0.1,0.1-0.1c0,0,0-0.1,0-0.1c0,0,0-0.1-0.1-0.1
		c0,0-0.1,0-0.1,0.1l-0.1,0c0,0,0,0-0.1,0c0,0,0,0,0,0c0,0-0.1,0-0.1,0.1h0l-0.1,0h0c0,0-0.1,0-0.1,0.1c0,0.1-0.1,0.1-0.1,0.1
		l-0.1,0c0,0-0.1,0-0.1,0.1c0,0.1-0.1,0.1-0.1,0.1c0,0-0.1,0-0.1,0.1c-0.1,0-0.1,0-0.1-0.1l0-0.2v0l0.1-0.1h0c0,0,0.1,0,0.1-0.1l0,0
		c0-0.1,0.1-0.1,0.1-0.1l0.1-0.1c0,0,0,0,0.1,0c0,0,0.1-0.1,0.1-0.1c0.1-0.1,0.1-0.1,0.1-0.1c0,0,0.1,0,0.1,0c0,0,0.1-0.1,0.1-0.1
		s0.1-0.1,0.1-0.1l0.1,0c0.1,0,0.1-0.1,0.1-0.1c0,0,0.1-0.1,0.1-0.1c0.1,0,0.2,0.1,0.2,0.1c0.1,0.1,0.1,0.1,0.1,0.2l-0.1,0.3
		c-0.1,0.2-0.1,0.3-0.2,0.3l0,0.1c0,0-0.1,0.1-0.1,0.1l0,0.1c0,0,0,0-0.1,0.1c-0.1,0,0,0,0,0v0.1c0,0,0,0.1-0.1,0.1l0,0
		c0,0,0.1,0,0.1,0H95l0.1-0.1c0,0,0.1,0,0.1,0c0.1,0,0.1-0.1,0.2-0.1l0.5-0.4c0.1-0.1,0.1-0.1,0.2-0.1h0c0-0.1,0.1-0.1,0.2-0.2
		c0.1-0.1,0.2-0.1,0.2-0.1c0.1-0.1,0.1-0.1,0.2-0.1l0,0c0.1,0,0.1-0.1,0.2-0.2c0-0.1,0.1-0.1,0.1-0.1c0.1,0,0.3,0.1,0.3,0.2
		c0.1,0.1,0.1,0.2,0.1,0.3v0.1c0,0.1,0,0.1,0,0.2c0,0-0.1,0.1-0.1,0.1c0,0,0,0,0,0c0,0,0.1,0,0.1,0c0,0,0.1-0.1,0.1-0.1
		c0,0,0.1,0,0.1-0.1c0-0.1,0.1-0.1,0.1-0.1c0.1,0,0.1,0,0.1-0.1l0,0l0-0.1c0.1,0,0.1-0.1,0.1-0.1c0,0,0.1-0.1,0.1-0.1s0.1,0,0.1-0.1
		l0.1,0l0.1,0c0,0,0,0,0.1,0l0.1-0.1c0,0,0.1,0,0.1,0c0.1,0,0.2,0.1,0.3,0.2c0.1,0.1,0.1,0.2,0.1,0.3v0.1l0,0.1v0l0,0.2v0.1
		c0,0.1,0,0.2-0.1,0.3c0,0,0,0,0,0v0l0.1,0.2c0,0.1,0,0.1,0.1,0.1l0.1,0C99,92.1,99,92,99,92c0.1,0,0.1-0.1,0.1-0.1
		c0-0.1,0-0.1,0.1-0.1h0l0,0h0c0-0.1,0-0.1,0.1-0.1c0-0.1,0.1-0.1,0.1-0.1l0.2-0.1l0,0l0,0l0.1,0h0l0,0l0,0l0,0l0.1,0l0,0
		c0,0,0.1-0.1,0.1-0.1h0l0,0c0,0,0.1-0.1,0.1-0.1l0.2-0.1c0.1-0.1,0.1-0.1,0.2-0.2c0.1-0.1,0.1-0.1,0.2-0.2l0.1-0.1
		c0,0,0-0.1,0.1-0.1c0-0.1,0.1-0.1,0.1-0.2c0-0.1,0.1-0.2,0.1-0.2s0.1-0.1,0.2-0.1c0.1,0,0.1,0,0.2,0.1c0.1,0.1,0.2,0.2,0.2,0.3
		c0.1,0.1,0.1,0.3,0.1,0.4c0,0.1,0,0.1,0,0.1c0,0,0,0.1,0,0.1s0,0.1,0,0.1v0.2l-0.1,0.1v0.1c0,0,0,0.1-0.1,0.1c0,0,0,0,0,0.1
		c0.1,0,0.2-0.1,0.2-0.1c0,0,0.1-0.1,0.1-0.1c0.1,0,0.1-0.1,0.1-0.1l0.1-0.1c0,0,0.1-0.1,0.1-0.1c0,0,0.1-0.1,0.1-0.1
		c0,0,0.1,0,0.1-0.1c0.1,0,0.1-0.1,0.2-0.1l0-0.1c0-0.1,0.1-0.1,0.1-0.1l0,0l0,0l0.1,0l0,0c0,0,0,0,0.1,0V91c0,0,0,0,0.1-0.1
		c0,0,0.1-0.1,0.1-0.1c0.1-0.1,0.2-0.2,0.3-0.3c0,0,0-0.1,0.1-0.1c0,0,0.1,0,0.1-0.1h0.1c0,0,0.1,0,0.1,0.1c0.1,0.1,0.1,0.2,0.1,0.3
		l-0.1,0.5v0v0v0l0,0c0,0,0,0,0.1-0.1c0-0.1,0.1-0.1,0.1-0.1s0.1-0.1,0.1-0.1c0,0,0.1-0.1,0.1-0.1c0.1,0,0.1-0.1,0.2-0.1
		c0.1-0.1,0.1-0.1,0.2-0.1l0,0l0-0.1c0.1,0,0.1-0.1,0.2-0.1l0.1-0.1c0.1,0,0.2-0.1,0.2-0.1c0,0,0.1,0,0.1,0l0.1,0c0,0,0,0,0,0
		s0,0,0,0c0.1,0,0.2,0.1,0.3,0.1c0.1,0.1,0.1,0.2,0.1,0.3v0c0,0,0,0,0,0.1l0,0.1l0,0l-0.1,0.2c0,0.1,0,0.2-0.1,0.2
		c-0.1,0.1-0.1,0.2-0.2,0.2c-0.1,0.1-0.1,0.1-0.1,0.2l0,0c0,0,0.1,0,0.1-0.1l0.2-0.1h0c0.1,0,0.1-0.1,0.1-0.1c0,0,0.1-0.1,0.1-0.1
		c0,0,0.1-0.1,0.1-0.1l0-0.1c0,0,0,0,0.1,0c0,0,0,0,0.1,0l0,0l0.1-0.1h0c0,0,0,0,0,0l0,0l0,0l0,0l0,0l0,0c0-0.1,0.1-0.1,0.1-0.1
		l0.1-0.1c0,0,0,0,0.1,0c0,0,0.1-0.1,0.1-0.1c0.1-0.1,0.1-0.1,0.1-0.1c0,0,0.1,0,0.1,0c0,0,0.1-0.1,0.1-0.1c0.1,0,0.1-0.1,0.1-0.1
		l0.1,0c0.1,0,0.1-0.1,0.1-0.1c0,0,0.1-0.1,0.1-0.1c0.1,0,0.2,0.1,0.2,0.1c0.1,0.1,0.1,0.1,0.1,0.2l-0.1,0.3
		c-0.1,0.2-0.1,0.3-0.2,0.3l0,0.1c0,0-0.1,0.1-0.1,0.1l0,0.1c0,0,0,0-0.1,0.1c-0.1,0,0,0,0,0V92c0,0,0,0.1-0.1,0.1l0,0
		c0,0,0.1,0,0.1,0h0.1l0.1-0.1c0,0,0.1,0,0.1,0c0.1,0,0.1-0.1,0.2-0.1l0.5-0.4c0.1-0.1,0.1-0.1,0.2-0.1h0l0.1-0.1
		c0.1-0.1,0.1-0.1,0.2-0.1c0,0,0.1,0,0.1-0.1c0,0,0.1-0.1,0.1-0.1c0.1,0,0.1-0.1,0.1-0.1c0.1-0.1,0.1-0.1,0.2-0.1l0.1-0.1h0.1l0-0.1
		c0.1-0.1,0.2-0.1,0.3-0.2l0,0c0,0,0.1,0,0.1-0.1c0.1-0.1,0.2-0.2,0.3-0.1c0.2,0,0.2,0.1,0.2,0.3l0,0.1c0,0.1,0.1,0.2,0.1,0.2
		c0,0.1,0.1,0.1,0.1,0.2c0,0.1,0,0.2-0.1,0.2c-0.1,0.1-0.2,0.2-0.3,0.3l0,0c0,0.1-0.1,0.1-0.1,0.1c-0.1,0-0.1,0-0.1,0.1v0.1
		c0,0,0,0,0,0c0,0,0,0.1-0.1,0.1l0,0.1c0,0,0,0.1,0,0.1c0,0,0,0.1-0.1,0.1c0,0,0,0,0,0.1s0.1,0.1,0.2,0.1l0.1,0l0.1,0c0,0,0,0,0.1,0
		c0,0,0.1,0,0.1-0.1c0.1,0,0.1,0,0.1-0.1s0.1-0.1,0.1-0.1c0.1,0,0.1-0.1,0.1-0.1c0,0,0.1-0.1,0.1-0.1c0.1,0,0.1-0.1,0.1-0.1
		c0,0,0.1-0.1,0.1-0.1c0.1-0.1,0.2-0.1,0.2-0.2c0,0,0.1-0.1,0.1-0.1c0,0,0.1-0.1,0.1-0.1c0-0.1,0.1-0.1,0.1-0.1l0.1-0.1h0
		c0,0,0.1,0,0.1-0.1l0,0c0-0.1,0.1-0.1,0.1-0.1l0.1-0.1c0,0,0,0,0.1,0c0,0,0.1-0.1,0.1-0.1c0,0,0.1-0.1,0.1-0.1c0,0,0.1,0,0.1,0
		c0-0.1,0.1-0.1,0.1-0.1s0.1-0.1,0.1-0.1l0.1,0c0.1,0,0.1-0.1,0.1-0.1s0.1-0.1,0.1-0.1c0.1,0,0.2,0.1,0.2,0.1
		c0.1,0.1,0.1,0.1,0.1,0.2l-0.1,0.3c-0.1,0.2-0.1,0.3-0.2,0.3l0,0.1c0,0-0.1,0.1-0.1,0.1l0,0.1c0,0,0,0-0.1,0.1c0,0,0,0,0,0v0.2
		c0,0,0,0.1-0.1,0.1l0,0c0,0,0.1,0,0.1,0h0.1l0.1-0.1c0,0,0.1,0,0.1,0c0.1,0,0.1-0.1,0.2-0.1l0.5-0.4c0.1-0.1,0.1-0.1,0.2-0.1h0
		c0-0.1,0.1-0.1,0.2-0.2c0.1-0.1,0.2-0.1,0.2-0.1c0.1-0.1,0.1-0.1,0.2-0.1l0,0c0.1,0,0.2-0.1,0.2-0.2s0.1-0.1,0.1-0.1
		c0.1,0,0.3,0.1,0.3,0.2c0.1,0.1,0.1,0.2,0.1,0.3v0.1c0,0.1,0,0.1,0,0.2c0,0,0,0.1-0.1,0.1c0,0,0,0,0,0s0.1,0,0.1,0
		c0,0,0.1-0.1,0.1-0.1c0,0,0.1,0,0.1-0.1c0-0.1,0.1-0.1,0.1-0.1c0.1,0,0.1,0,0.1-0.1l0.1,0l0-0.1c0.1,0,0.1-0.1,0.1-0.1
		c0,0,0.1-0.1,0.1-0.1s0.1,0,0.1-0.1l0.1,0l0.1,0c0,0,0,0,0.1,0l0.1-0.1c0,0,0.1,0,0.1,0c0.1,0,0.2,0.1,0.3,0.2
		c0.1,0.1,0.1,0.2,0.1,0.3v0.1v0.1v0l0,0.2v0.1c0,0.1,0,0.2-0.1,0.3l0,0v0l0.1,0.2c0,0.1,0.1,0.1,0.1,0.1l0.1,0
		c0.1,0,0.1-0.1,0.1-0.1c0.1,0,0.1-0.1,0.1-0.1s0.1-0.1,0.1-0.1h0l0,0h0c0-0.1,0-0.1,0.1-0.1c0-0.1,0.1-0.1,0.1-0.1l0.2-0.1l0.1-0.1
		l0.1,0l0,0c0,0,0.1-0.1,0.1-0.1c0,0,0.1,0,0.1,0.1l0,0.1l0,0.1l0.1-0.1c0.2-0.2,0.3-0.3,0.3-0.3c0.1-0.1,0.1-0.1,0.2-0.1l0.2-0.1
		c0,0,0.1-0.1,0.1-0.1c0,0,0,0,0.1,0c0.1,0,0.1-0.1,0.1-0.1l0.1,0c0.1,0,0.2-0.1,0.3-0.1h0.1c0,0,0.1,0,0.1,0c0.1,0,0.1-0.1,0.2-0.1
		l0.1,0c0,0,0.1,0,0.1,0h0.1c0.1,0,0.1,0.1,0.1,0.1c0,0.1,0,0.1,0.1,0.1s0,0,0.1-0.1l0.1,0c0,0,0.1,0,0.1,0c0.1,0,0.1,0,0.1,0.1l0,0
		l0,0c0,0.1,0,0.2,0,0.2c0,0.1,0,0.2-0.1,0.3c0,0.1-0.1,0.1-0.1,0.2c0,0.2-0.1,0.3-0.2,0.5c0,0-0.1,0.1-0.1,0.2l0,0l0,0v0.1
		c0,0.1-0.1,0.1-0.1,0.2c0,0.1,0,0.1-0.1,0.1c0,0,0.1,0,0.1,0.1c0.1,0,0.1,0.1,0.1,0.1c0,0,0.1,0.1,0.1,0.1c0,0.1,0,0.1-0.1,0.2
		c-0.1,0.1-0.2,0.1-0.2,0.1c-0.1,0-0.1,0-0.1-0.1h0v0c0,0-0.1,0-0.1,0c0,0,0,0-0.1,0s0,0,0,0l0,0v0c0,0-0.1,0-0.1,0.1
		c0,0,0,0.1-0.1,0.1c0,0.1-0.1,0.1-0.1,0.1c-0.1,0-0.1,0.1-0.1,0.1c0,0.1,0,0.1-0.1,0.2l0,0c-0.1,0.1-0.2,0.3-0.3,0.4
		c-0.1,0-0.1,0-0.1,0c0,0,0,0,0,0.1s0,0.1-0.1,0.1c-0.1,0.1-0.1,0.1-0.1,0.1h0l0,0c0,0.1-0.1,0.1-0.2,0.3c-0.1,0.1-0.1,0.1-0.1,0.1
		c0,0-0.1,0.1-0.2,0.2l-0.1,0.1c0,0-0.1,0.1-0.1,0.1L116.6,95z M128.1,91L128.1,91C128.1,91,128,91,128,91c-0.1,0-0.1,0.1-0.2,0.1
		c-0.1,0.1-0.1,0.1-0.2,0.2c0,0.1-0.1,0.1-0.1,0.2c0,0,0,0,0,0l0.1-0.1c0.1,0,0.1-0.1,0.1-0.1c0.1-0.1,0.1-0.1,0.2-0.1l0,0
		c0,0,0.1-0.1,0.1-0.1c0,0,0.1-0.1,0.1-0.1l0,0c0-0.1,0.1-0.1,0.1-0.1c0.1,0,0.1,0,0.1-0.1c0,0,0-0.1-0.1-0.1c0,0-0.1,0-0.1,0h-0.1
		C128.2,90.9,128.2,90.9,128.1,91L128.1,91z M127.3,91.2L127.3,91.2c0.1-0.1,0.2-0.1,0.2-0.2c0-0.1,0.1-0.1,0.1-0.2l0.1-0.1
		c0.1-0.1,0.2-0.1,0.3-0.2c0,0,0.1-0.1,0.1-0.1h0l0.1,0c0.1,0,0.1,0,0.1,0c0.1,0,0.1,0,0.2,0h0.2c0,0,0.1,0,0.1,0c0,0,0.1,0,0.1,0
		s0.1,0,0.2,0.1c0.1,0,0.1,0.1,0.1,0.1c0,0.1-0.1,0.2-0.1,0.2c-0.1,0.1-0.1,0.1-0.2,0.1c0,0-0.1,0.1-0.1,0.1c0,0-0.1,0-0.1,0.1
		c0,0,0,0-0.1,0h0h0c0,0-0.1,0.1-0.1,0.2h-0.1c0,0-0.1,0.1-0.1,0.1c0,0-0.1,0.1-0.1,0.1c-0.1,0.1-0.2,0.2-0.2,0.2l-0.1,0
		c0,0,0,0.1,0,0.1c0,0,0,0.1-0.1,0.1l-0.1,0.1h-0.1l-0.1,0.1c-0.1,0-0.1,0-0.1,0c0,0,0,0.1,0,0.1c0,0.1,0,0.1,0,0.1
		c0,0.1,0.1,0.1,0.2,0.1l0.2,0c0.1,0,0.1,0,0.1-0.1c0.1,0,0.1,0,0.1,0c0,0,0.1,0,0.1,0l0,0c0-0.1,0.1-0.1,0.1-0.1
		c0,0,0.1-0.1,0.1-0.1l0,0c0,0,0-0.1,0.1-0.1l0,0c0,0,0,0,0.1,0h0.1h0c0-0.1,0.1-0.1,0.1-0.1c0.1,0,0.1,0,0.1-0.1
		c0,0,0.1-0.1,0.1-0.1s0.1,0,0.1-0.1c0,0,0.1-0.1,0.1-0.1c0,0,0.1,0,0.1-0.1l0,0c0,0,0,0,0,0c0,0,0,0,0,0h0l0,0v0v0
		c0,0,0-0.1,0.1-0.1l0.2-0.1c0-0.1,0-0.1,0.1-0.1c0,0,0.1,0,0.1,0s0,0,0.1,0c0,0,0.1,0,0.1,0.1l0,0.1l0,0.1c0,0,0,0.1,0,0.1
		c0,0-0.1,0.1-0.1,0.1c0,0.1,0,0.1-0.1,0.1h0c0,0-0.1,0.1-0.1,0.1c0,0-0.1,0-0.1,0.1l-0.1,0.2l-0.1,0.1c0,0,0,0-0.1,0l0,0
		c0,0,0,0,0,0c0,0-0.1,0-0.1,0.1c0,0,0,0.1,0,0.1c-0.1,0-0.1,0.1-0.2,0.1h0h-0.1c0,0-0.1,0-0.1,0.1c0,0.1-0.1,0.1-0.1,0.1
		c-0.1,0-0.1,0-0.1,0.1c0,0,0,0,0,0c0,0-0.1,0-0.1,0.1l-0.3,0.1c0,0,0,0-0.1,0l-0.1,0c0,0,0,0-0.1,0l0,0l-0.1,0c-0.1,0-0.1,0-0.2,0
		c0,0-0.1,0-0.1,0l-0.1,0c-0.1,0-0.1-0.1-0.2-0.2h-0.1c-0.1-0.1-0.1-0.2-0.1-0.3c0,0-0.1,0-0.1-0.1c0,0-0.1-0.1-0.1-0.1
		c0-0.1,0-0.2,0.1-0.2c0.1-0.1,0.1-0.1,0.1-0.1l0.1-0.2c0,0,0-0.1,0-0.1l0.1-0.2C127.3,91.3,127.3,91.3,127.3,91.2L127.3,91.2z
		 M130.9,91.7c0-0.1,0.1-0.1,0.1-0.1c0.1,0,0.1-0.1,0.1-0.1c0.1-0.1,0.2-0.1,0.2-0.2c0.1-0.1,0.1-0.2,0.1-0.2s0,0,0,0l0,0l0,0h-0.1
		h-0.1l-0.1,0h-0.1l-0.1,0c0,0-0.1,0-0.1,0c-0.1,0-0.1,0.1-0.2,0.1c-0.1,0-0.2,0.1-0.2,0.1c-0.1,0.1-0.1,0.1-0.2,0.1
		c-0.1,0.1-0.1,0.1-0.2,0.2c-0.1,0-0.1,0.1-0.1,0.1c0,0-0.1,0.1-0.1,0.1l0,0.1c0,0-0.1,0-0.1,0.1c0,0-0.1,0.1-0.1,0.1
		c0,0.1,0,0.1-0.1,0.1c0,0-0.1,0.1-0.1,0.1c0,0.1,0,0.2,0.1,0.2c0.1,0,0.1,0,0.1-0.1c0.1,0,0.1,0,0.1-0.1s0.1,0,0.1,0l0.1,0l0,0
		c0,0,0,0,0,0c0,0,0.1,0,0.1-0.1c0,0,0.1,0,0.1-0.1l0.2-0.1l0.1-0.1c0,0,0.1,0,0.1-0.1C130.9,91.8,130.9,91.7,130.9,91.7L130.9,91.7
		z M133.7,89.3L133.7,89.3L133.7,89.3L133.7,89.3l0.1,0l0,0c0.1,0,0.1,0,0.2,0s0.1-0.1,0.1-0.1c0,0,0.1,0,0.1,0h0h0.1
		c0,0,0.1,0,0.1-0.1c0-0.1,0.1-0.1,0.1-0.2c0.1-0.1,0.1-0.1,0.1-0.2c0,0,0,0,0-0.1c0,0,0-0.1,0-0.1c0.1,0,0.1,0,0.1-0.1
		c0.1-0.1,0.1-0.1,0.2-0.1s0.1,0.1,0.1,0.2l0,0.2c0,0,0,0,0,0.1c0,0,0,0.1,0,0.1s0,0.1,0,0.1v0c0,0,0,0,0.1,0c0,0,0.1,0,0.1,0h0
		c0,0,0.1,0,0.1,0c0,0,0.1,0,0.1,0c0.1,0,0.1,0,0.1-0.1c0,0,0.1,0,0.1,0h0.1h0c0,0,0.1,0,0.1,0c0.1,0,0.1-0.1,0.2-0.1l0.1,0h0
		c0.1,0,0.1,0,0.1,0.1c0,0,0,0.1,0,0.1c0,0.1-0.1,0.1-0.1,0.1l-0.2,0.2c0,0.1-0.1,0.1-0.2,0.1c0,0-0.1,0-0.1-0.1l0,0
		c0,0-0.1,0-0.1,0c0,0-0.1,0-0.1,0c0,0-0.1,0-0.2,0.1l-0.1,0l-0.1,0l-0.2,0c-0.1,0.1-0.1,0.1-0.2,0.2c0,0,0,0,0,0l-0.2,0.3
		c-0.1,0-0.1,0.1-0.1,0.1v0c0,0-0.1,0-0.1,0.1c0,0-0.1,0.1-0.1,0.1l-0.1,0.1l-0.1,0.1c0,0.1-0.1,0.1-0.1,0.1c0,0,0,0.1,0,0.1
		c0,0,0,0,0,0.1v0c0,0-0.1,0.1-0.1,0.1l0,0.1c0,0.1-0.1,0.2-0.1,0.2c0,0,0,0,0,0.1v0c0,0.1,0,0.2-0.1,0.2v0.1l0,0.2
		c0,0.1,0,0.1,0,0.1l0,0c0,0.1,0.1,0.2,0.1,0.2c0.1,0.1,0.1,0.3,0.1,0.4c0,0,0,0.1,0,0.1s0,0.1,0,0.1s0,0.1-0.1,0.1
		c0,0-0.1,0.1-0.1,0.1c-0.1,0-0.2-0.1-0.3-0.3c-0.1-0.1-0.1-0.3-0.1-0.4V92l0-0.1l0-0.3l0-0.1l0.1-0.3V91c0,0,0-0.1,0.1-0.1
		c0,0,0,0,0,0s0,0-0.1,0.1c0,0-0.1,0.1-0.1,0.1l0,0.1c0,0,0,0,0,0c-0.1,0.1-0.1,0.1-0.1,0.2c-0.1,0-0.1,0.1-0.1,0.1
		c0,0.1-0.1,0.1-0.1,0.1h0c0,0.1-0.1,0.1-0.1,0.1h0c0,0.1-0.1,0.1-0.1,0.1c0,0.1-0.1,0.1-0.1,0.1l0,0c0,0-0.1,0-0.1,0.1
		c0,0-0.1,0.1-0.1,0.1l0,0.1c-0.1,0-0.1,0.1-0.1,0.1c0,0-0.1,0.1-0.1,0.1c-0.1,0-0.1,0.1-0.1,0.1c0,0-0.1,0-0.1,0v0
		c0,0-0.1,0.1-0.1,0.1s-0.1,0-0.1,0.1c0,0,0,0-0.1,0c-0.1,0-0.1,0-0.1,0c-0.1,0-0.1,0-0.1,0c0,0,0,0,0-0.1s0-0.1,0-0.1
		c0,0,0-0.1,0-0.1l0-0.1c0,0,0,0,0,0l0,0v0c0,0,0,0,0,0s0,0,0-0.1v0l0-0.2c0,0,0,0,0,0s0,0-0.1,0c0,0-0.1,0.1-0.1,0
		c0,0-0.1,0.1-0.1,0.1c0,0-0.1,0.1-0.1,0.1l0,0c0,0,0,0-0.1,0.1c0,0-0.1,0-0.1,0.1l0,0h-0.1c0,0,0,0.1-0.1,0.1
		c0,0.1-0.1,0.1-0.1,0.1l-0.3,0.2c-0.1,0-0.1,0.1-0.1,0.1l0,0c-0.1,0.1-0.3,0.2-0.4,0.2c-0.1,0-0.2,0-0.2-0.1
		c-0.1,0-0.1-0.1-0.2-0.1l0-0.2c0-0.1,0-0.1,0-0.2c0,0,0-0.1,0-0.1v0v-0.1c0,0,0-0.1,0.1-0.1v-0.1c0-0.1,0.1-0.1,0.1-0.1
		c0-0.1,0.1-0.1,0.1-0.1l0-0.1c0,0,0-0.1,0.1-0.1c0,0,0.1-0.1,0.1-0.1c0-0.1,0.1-0.1,0.1-0.1l0.1-0.1c0.1-0.1,0.2-0.2,0.3-0.2
		c0,0,0.1-0.1,0.1-0.1c0.1-0.1,0.1-0.1,0.2-0.1c0.1,0,0.1-0.1,0.2-0.1c0.1,0,0.1-0.1,0.1-0.1h0c0.1,0,0.1-0.1,0.2-0.1h0
		c0,0,0.1,0,0.1,0l0,0l0.1,0c0,0,0,0,0.1,0c0.2,0,0.3,0.1,0.3,0.3c0,0.1,0,0.1,0,0.1s0.1-0.1,0.1-0.1c0.1-0.1,0.2-0.2,0.3-0.1
		c0.1,0,0.2,0.1,0.2,0.2c0,0.2-0.1,0.4-0.2,0.5c0,0,0,0.1,0,0.1l-0.1,0.2l0,0c0,0,0,0.1,0,0.1c0,0,0,0.1,0,0.1v0.1l0,0.1
		c0,0,0,0.1,0,0.1c0.1,0,0.1-0.1,0.2-0.1c0,0,0.1-0.1,0.1-0.1l0,0c0,0,0.1-0.1,0.1-0.1l0.1-0.1c0,0,0.1,0,0.1-0.1
		c0-0.1,0.1-0.1,0.1-0.1c0.1,0,0.1-0.1,0.1-0.1c0.1-0.1,0.1-0.1,0.1-0.1h0l0,0c0,0,0-0.1,0.1-0.1c0.1-0.1,0.1-0.1,0.2-0.1
		c0,0,0.1-0.1,0.1-0.1l0,0c0-0.1,0-0.1,0.1-0.1l0,0v0l0,0h0h0c0-0.1,0-0.1,0.1-0.2c0.1-0.1,0.2-0.2,0.3-0.3c0.1-0.1,0.2-0.2,0.3-0.3
		c0-0.1,0.1-0.1,0.1-0.2c0.1-0.1,0.1-0.1,0.1-0.2l0,0l-0.2,0.1c0,0,0,0-0.1,0c0,0-0.1,0.1-0.1,0.1c0,0,0,0-0.1,0h-0.1l-0.2,0
		c-0.1,0-0.2,0-0.3,0.1l-0.2,0.1h0c0,0-0.1,0-0.1,0h-0.1c-0.1,0-0.1,0.1-0.2,0.1h-0.1l-0.4,0.1c-0.1,0.1-0.2,0.1-0.2,0.2l0,0
		c0,0-0.1,0-0.1-0.1c0-0.1-0.1-0.1-0.1-0.2c0-0.3,0.2-0.4,0.6-0.4l0.2-0.1l0,0l0.1,0h0c0,0,0.1,0,0.1,0c0.1-0.1,0.2-0.1,0.2-0.1
		l0.2-0.1h0.1c0,0,0.1,0,0.1,0c0.1,0,0.1-0.1,0.2-0.1s0.1,0,0.1,0l0.1,0c0,0,0.1,0,0.1,0C133.5,89.3,133.5,89.3,133.7,89.3
		L133.7,89.3z M136.3,89.5l0-0.2v0c0-0.1,0-0.2,0.1-0.2c0.1,0,0.1,0,0.2-0.1c0.1,0,0.1,0.1,0.2,0.1c0.1,0.1,0.1,0.1,0.1,0.2v0
		c0,0,0,0.1,0,0.1c0,0.1,0,0.1-0.1,0.1c-0.1,0-0.1,0.1-0.2,0.1s-0.1,0-0.1-0.1C136.3,89.6,136.3,89.6,136.3,89.5L136.3,89.5z
		 M137.8,92.4L137.8,92.4L137.8,92.4L137.8,92.4l0.1,0.1c0,0,0.1,0,0.1,0c0.1,0,0.1,0,0.2-0.1c0,0,0.1-0.1,0.1-0.1
		c0,0,0.1,0,0.1-0.1s0-0.1,0-0.1h0.1h0c0-0.1,0-0.1,0.1-0.1c0.1,0,0.1-0.1,0.1-0.1c0,0,0.1-0.1,0.1-0.1s0.1-0.1,0.1-0.1l0-0.1
		c0,0,0,0,0-0.1l0.1-0.1c0-0.1,0-0.1,0-0.2c0-0.1,0-0.1-0.1-0.1c-0.1-0.1-0.1-0.1-0.1-0.2s0-0.1,0.1-0.2c0.1-0.1,0.1-0.1,0.1-0.1
		c0,0,0,0,0,0l0,0c0,0-0.1,0-0.1,0c0,0-0.1,0.1-0.3,0.1c0,0-0.1,0-0.1,0s0,0-0.1,0.1c0,0,0,0.1-0.1,0.1h-0.1c0,0,0,0-0.1,0.1
		s-0.1,0.1-0.1,0.1l-0.1,0.1c0,0.1,0,0.1-0.1,0.1l-0.1,0.1l-0.1,0.1l-0.1,0.2c0,0.1,0,0.1-0.1,0.2c0,0,0,0-0.1,0.1
		c0,0-0.1,0-0.1,0.1c0,0,0,0,0,0c0,0,0,0,0,0.1l0,0.1l0,0.1L137.8,92.4z M139,92.3l-0.2,0.2l0,0c0,0-0.1,0-0.1,0.1
		c-0.1,0.1-0.1,0.1-0.1,0.1h0c-0.1,0-0.1,0.1-0.1,0.1c0,0-0.1,0-0.1,0.1c0,0-0.1,0-0.1,0c0,0-0.1,0-0.1,0c0,0-0.1,0-0.2,0H138
		c0,0-0.1,0-0.1,0c0,0-0.1,0-0.1,0c0,0-0.1,0-0.1,0c0,0-0.1,0-0.1-0.1c0,0-0.1-0.1-0.1-0.1c0,0-0.1,0-0.1-0.1l-0.1-0.1
		c-0.1-0.1-0.1-0.1-0.1-0.2c0-0.1-0.1-0.1-0.1-0.2v0v-0.1V92c0,0,0-0.1,0-0.1v-0.1l0.1-0.3c0,0,0,0,0-0.1c0,0-0.1,0.1-0.1,0.1
		c0,0-0.1,0-0.1,0.1c0,0,0,0.1-0.1,0.1l-0.1,0c0,0,0,0.1,0,0.1c0,0.1-0.1,0.1-0.1,0.1c-0.1,0-0.1,0-0.1-0.1v0c0,0,0,0.1,0,0.1
		c0,0.1,0,0.1-0.1,0.1c0,0-0.1,0.1-0.1,0.1c0,0.1-0.1,0.1-0.1,0.1c-0.1,0.1-0.1,0.1-0.2,0.1c0,0-0.1,0.1-0.1,0.1l-0.2,0.1l0,0
		c0,0-0.1,0-0.1,0c-0.1,0-0.1,0-0.1,0.1l-0.1,0c0,0-0.1,0-0.1,0s-0.1,0-0.1,0.1c0,0,0,0-0.1,0h-0.1l-0.1,0c-0.1,0-0.1,0-0.2-0.1
		c-0.1-0.1-0.1-0.1-0.1-0.2v0v-0.1c0,0,0-0.1,0-0.1c0,0,0-0.1,0-0.1v-0.1v0c0-0.1,0-0.1,0-0.1c0,0,0-0.1,0-0.1c0,0,0-0.1,0-0.1
		l0-0.1c0,0,0-0.1,0-0.1c0,0,0-0.1,0-0.1l0-0.1l0-0.1c0,0,0-0.1,0-0.1c0-0.1,0-0.1,0.1-0.1c0,0,0-0.1,0-0.1c0,0,0-0.1,0-0.1l0,0
		c0,0-0.1,0-0.1,0.1l-0.1,0c0,0,0,0-0.1,0c0,0,0,0,0,0c0,0-0.1,0-0.1,0.1h0l-0.1,0l0,0c0,0-0.1,0-0.1,0.1c0,0.1-0.1,0.1-0.1,0.1
		l-0.1,0c0,0-0.1,0-0.1,0.1c0,0.1-0.1,0.1-0.1,0.1c0,0-0.1,0-0.1,0.1c-0.1,0-0.1,0-0.1-0.1l0-0.2v0l0.1-0.1h0c0,0,0.1,0,0.1-0.1l0,0
		c0-0.1,0.1-0.1,0.1-0.1l0.1-0.1c0,0,0,0,0.1,0c0,0,0.1-0.1,0.1-0.1c0,0,0.1-0.1,0.1-0.1c0,0,0.1,0,0.1,0c0-0.1,0.1-0.1,0.1-0.1
		c0.1,0,0.1-0.1,0.1-0.1l0.1,0c0.1,0,0.1-0.1,0.1-0.1c0,0,0.1-0.1,0.1-0.1c0.1,0,0.2,0.1,0.2,0.1c0.1,0.1,0.1,0.1,0.1,0.2l-0.1,0.3
		c-0.1,0.2-0.1,0.3-0.2,0.3l0,0.1c0,0-0.1,0.1-0.1,0.1l0,0.1c0,0,0,0-0.1,0.1c0,0,0,0,0,0V92c0,0,0,0.1-0.1,0.1l0,0c0,0,0.1,0,0.1,0
		h0.1l0.1-0.1c0,0,0.1,0,0.1,0c0.1,0,0.1-0.1,0.2-0.1l0.5-0.4c0.1-0.1,0.1-0.1,0.2-0.1h0l0,0c0-0.1,0.1-0.1,0.1-0.1
		c0,0,0.1,0,0.1-0.1c0.1-0.1,0.1-0.1,0.2-0.2c0.1,0,0.1-0.1,0.1-0.1c0.1,0,0.1-0.1,0.1-0.1c0.1,0,0.1-0.1,0.1-0.1
		c0.1-0.1,0.2-0.1,0.3-0.2c0.1-0.1,0.2-0.1,0.3-0.1c0,0,0.1,0,0.1,0l0.1,0c0,0,0.1,0,0.1-0.1c0,0,0.1,0,0.1,0l0.1,0
		c0.1,0,0.1,0,0.2,0.1c0,0,0.1,0,0.1,0c0.1,0,0.1,0.1,0.2,0.1c0.1,0,0.1,0.1,0.1,0.2c0,0-0.1,0.1-0.1,0.1c0,0,0,0,0.1,0.1
		c0,0,0.1,0.1,0.1,0.2l0.1,0.1v0.3v0c0,0-0.1,0.1-0.1,0.1v0.1l0,0.1c0,0,0,0.1-0.1,0.1c0,0,0,0,0,0l0,0l0,0.1c0,0,0,0.1-0.1,0.1
		c0,0,0,0.1,0,0.1c0,0,0,0.1-0.1,0.1s0,0-0.1,0.1C139,92.3,139,92.3,139,92.3L139,92.3z M144.3,90.9l0.1-0.1c0,0,0-0.1,0.1-0.1
		c0.1-0.1,0.1-0.1,0.1-0.2c0-0.1,0.1-0.2,0.1-0.2c0.1-0.1,0.1-0.1,0.2-0.1c0.1,0,0.1,0,0.2,0.1c0.1,0.1,0.2,0.2,0.2,0.3
		c0.1,0.1,0.1,0.3,0.1,0.4c0,0.1,0,0.1,0,0.1c0,0,0,0.1,0,0.1c0,0.1,0,0.1,0,0.1v0.2l-0.1,0.1v0.1c0,0,0,0.1-0.1,0.1c0,0,0,0,0,0.1
		c0.1,0,0.2-0.1,0.2-0.1c0,0,0.1-0.1,0.1-0.1c0.1,0,0.1-0.1,0.1-0.1l0.1-0.1c0,0,0.1-0.1,0.1-0.1c0,0,0,0,0.1-0.1c0,0,0.1,0,0.1-0.1
		c0.1,0,0.1-0.1,0.2-0.1l0-0.1c0-0.1,0.1-0.1,0.1-0.1l0.1,0c0,0,0,0,0.1,0.1c0,0.1,0,0.1,0,0.1c0,0.1,0,0.1-0.1,0.1
		c0,0-0.1,0.1-0.1,0.1c0,0-0.1,0.1-0.1,0.1c0,0-0.1,0.1-0.1,0.2l-0.1,0.1l0,0.1c0,0-0.1,0-0.1,0c0,0,0,0,0,0c0,0-0.1,0.1-0.1,0.1
		c-0.1,0.1-0.1,0.1-0.1,0.1l-0.1,0c0,0,0,0.1,0,0.1c-0.1,0-0.1,0.1-0.1,0.1c0,0,0,0,0,0l0,0c-0.1,0.1-0.1,0.1-0.2,0.1l-0.1,0l0,0.1
		c0,0,0,0-0.1,0.1c-0.1,0-0.1,0.1-0.1,0.1l-0.1,0.1c-0.1,0-0.1,0.1-0.2,0.1h-0.1c-0.1,0-0.1,0-0.2,0.1c-0.1,0.1-0.1,0.1-0.2,0.1
		c-0.1,0-0.2,0-0.3-0.1c-0.1,0-0.1-0.1-0.1-0.1c0-0.1-0.1-0.1-0.1-0.1c0,0,0-0.1-0.1-0.1c0,0,0,0,0-0.1c0,0,0.1-0.1,0.1-0.1
		c0-0.1,0.1-0.1,0.2-0.1c0,0,0.1,0,0.1,0c0,0,0.1,0,0.1,0s0.1,0,0.1,0.1c0,0,0,0,0,0h0.1c0,0,0,0,0.1,0c0.1,0,0.2,0,0.2-0.1h0h0
		c0,0,0,0,0-0.1l0.1-0.1l0.1-0.2v0c0,0,0-0.1,0-0.1v-0.1c0,0,0,0,0.1-0.1c0,0,0.1,0,0.1-0.1v0c0,0,0-0.1,0-0.1l0-0.1v-0.1l0,0
		c0,0,0-0.1,0-0.1l0-0.1l0-0.1c0-0.1,0-0.1,0-0.1s-0.1,0-0.2,0.1c-0.1,0.1-0.1,0.1-0.2,0.2c0,0.1-0.1,0.1-0.1,0.1
		c-0.1,0-0.1,0.1-0.1,0.1c0,0,0,0.1-0.1,0.1l-0.3,0.2l-0.2,0.2l-0.1,0.1l-0.2,0.2l-0.1,0.1c0,0-0.1,0-0.1,0.1l-0.2,0.1
		c0,0,0,0.1,0,0.1H143l0,0c0,0.1-0.1,0.1-0.2,0.1l-0.1,0c0,0,0,0-0.1,0l-0.1,0l-0.1,0c0,0-0.1,0-0.1,0c0,0-0.1,0-0.1-0.1
		c0,0-0.1-0.1-0.1-0.1c0-0.1-0.1-0.1-0.1-0.2c0,0,0,0,0-0.1c0,0,0,0,0-0.1c0,0,0-0.1,0-0.1l0,0c0,0,0,0,0-0.1c0,0,0-0.1,0-0.1
		s0-0.1,0-0.1c0,0,0,0,0-0.1s0,0,0-0.1c0,0,0,0,0-0.1l0-0.2l0-0.1v-0.1c0-0.1,0-0.1-0.1-0.1c0,0-0.1,0-0.1,0.1h0
		c-0.1,0-0.1,0.1-0.2,0.1c0,0-0.1,0-0.1,0c0,0-0.1,0-0.1,0.1l0,0c0,0-0.1,0-0.1,0.1c-0.1,0.1-0.1,0.1-0.1,0.1
		c-0.1,0.1-0.2,0.2-0.3,0.2c-0.1,0.1-0.1,0.1-0.2,0.1c0,0-0.1,0-0.1,0.1c0,0,0,0-0.1,0.1c0,0-0.1,0.1-0.1,0.1c0,0-0.1,0-0.1-0.1
		c0,0-0.1,0.1-0.1,0.1c0,0-0.1,0.1-0.1,0.1c-0.1,0,0,0,0,0.1l0,0h0c0,0,0,0-0.1,0.1c0,0-0.1,0.1-0.1,0.1c0,0.1-0.1,0.1-0.1,0.1
		c0,0,0,0-0.1,0c0,0-0.1,0-0.1,0s-0.1,0-0.1-0.1c0-0.1-0.1-0.1-0.1-0.1c0-0.3,0.1-0.4,0.2-0.5v0v0c0,0,0-0.1,0.1-0.1
		c0,0,0.1-0.1,0.1-0.1c0,0,0-0.1,0.1-0.1h0.1c0,0,0,0,0-0.1c0,0,0,0,0-0.1c0,0,0,0,0-0.1c0-0.1,0-0.1,0.1-0.1c0,0,0-0.1,0.1-0.1v0
		c0,0.1-0.1,0.1-0.1,0.1c0,0-0.1,0.1-0.1,0.1h-0.1c-0.1,0.1-0.1,0.1-0.2,0.1c0,0-0.1,0.1-0.1,0.1c0,0,0,0,0,0c0,0-0.1,0-0.1,0.1h0
		c-0.1,0-0.1-0.1-0.1-0.1l0.1-0.2c0-0.1,0.1-0.1,0.2-0.2c0.1-0.1,0.2-0.1,0.2-0.1c0.1-0.1,0.1-0.1,0.2-0.1l0,0
		c0.1,0,0.2-0.1,0.2-0.2c0-0.1,0.1-0.1,0.1-0.1c0.1,0,0.3,0.1,0.3,0.2c0.1,0.1,0.1,0.2,0.1,0.3v0.1c0,0.1,0,0.1,0,0.2
		c0,0-0.1,0.1-0.1,0.1s0,0,0,0c0,0,0.1,0,0.1,0c0,0,0.1-0.1,0.1-0.1c0,0,0.1,0,0.1-0.1c0-0.1,0.1-0.1,0.1-0.1c0.1,0,0.1,0,0.1-0.1
		l0,0l0-0.1c0.1,0,0.1-0.1,0.1-0.1c0,0,0.1-0.1,0.1-0.1c0.1,0,0.1,0,0.1-0.1l0.1,0l0.1,0c0,0,0,0,0.1,0c0,0,0.1,0,0.1-0.1
		c0,0,0.1,0,0.1,0c0.1,0,0.2,0.1,0.3,0.2c0.1,0.1,0.1,0.2,0.1,0.3v0.1l0,0.1v0l0,0.2v0.1c0,0.1,0,0.2-0.1,0.3l0,0v0l0.1,0.2
		c0,0.1,0,0.1,0.1,0.1l0.1,0c0.1,0,0.1-0.1,0.1-0.1c0.1,0,0.1-0.1,0.1-0.1c0-0.1,0-0.1,0.1-0.1h0l0,0h0c0-0.1,0-0.1,0.1-0.1
		c0-0.1,0.1-0.1,0.1-0.1l0.2-0.1l0,0l0,0l0.1,0l0,0l0,0l0,0l0,0l0.1,0l0,0c0,0,0.1-0.1,0.1-0.1h0l0,0c0,0,0.1-0.1,0.1-0.1l0.2-0.1
		c0.1-0.1,0.1-0.1,0.2-0.2C144.3,91.1,144.3,91,144.3,90.9L144.3,90.9z M121.8,91.6L121.8,91.6c0-0.1,0.1-0.2,0.1-0.2
		c0-0.1,0.1-0.1,0.2-0.2l0,0v-0.1c0,0,0-0.1,0.1-0.1c0.1-0.1,0.1-0.1,0.1-0.1c0-0.1,0.1-0.1,0.1-0.1c0.1,0,0.1-0.1,0.1-0.1l0.1-0.1
		c0.1-0.1,0.1-0.1,0.2-0.1h0.1c0-0.1,0.1-0.1,0.1-0.1c0,0,0.1,0,0.1,0h0l0.1,0c0,0,0.1,0,0.1,0c0.1,0,0.1,0,0.2,0.1
		c0,0,0.1-0.1,0.1-0.1c0,0,0,0,0.1,0l0.1,0.1c0,0,0.1,0.1,0.1,0.1c0,0.1,0,0.1,0,0.1c0,0.1,0,0.1-0.1,0.2c-0.1,0.1-0.1,0.1-0.2,0.1
		c0,0-0.1,0-0.1-0.1c-0.1,0-0.1,0-0.2-0.1c-0.1,0-0.1,0-0.2,0.1l0,0l0,0H123l0,0l0,0.1c0,0-0.1,0.1-0.1,0.1s-0.1,0-0.1,0.1
		c0,0-0.1,0.1-0.1,0.1c0,0-0.1,0.1-0.1,0.1c0,0-0.1,0-0.1,0.1h0c-0.1,0.1-0.1,0.1-0.1,0.2l-0.1,0.2l-0.1,0.1c0,0-0.1,0.1-0.1,0.1v0
		v0c0,0,0,0,0,0.1s0,0,0,0.1v0.1l0,0.1c0,0.1,0.1,0.1,0.2,0.1h0.1l0.2,0c0.1,0,0.1,0,0.1,0h0.1c0,0,0.1,0,0.1-0.1h0h0
		c0-0.1,0.1-0.1,0.2-0.1c0-0.1,0.1-0.1,0.2-0.1c0.1,0,0.2-0.1,0.2-0.1h0.1c0,0,0.1,0,0.1-0.1s0.1-0.1,0.1-0.1c0,0,0.1,0,0.1-0.1
		c0,0,0,0,0.1,0c0-0.1,0.1-0.1,0.2-0.1l0,0c0,0,0.1-0.1,0.1-0.1h0.1c0,0,0.1,0,0.1-0.1s0.1-0.1,0.1-0.1c0.1,0,0.1-0.1,0.2-0.1
		c0,0,0.1,0,0.1,0c0,0,0.1,0,0.1-0.1c0,0,0.1-0.1,0.1-0.1c0.1,0,0.1-0.1,0.1-0.1c0.1-0.1,0.1-0.1,0.2-0.1l0.1-0.1h0.1l0-0.1
		c0.1-0.1,0.2-0.1,0.3-0.2l0,0c0,0,0.1,0,0.1-0.1c0.1-0.1,0.2-0.2,0.3-0.1c0.2,0,0.2,0.1,0.2,0.3l0,0.1c0,0.1,0.1,0.2,0.1,0.2
		c0,0.1,0.1,0.1,0.1,0.2c0,0.1,0,0.2-0.1,0.2c-0.1,0.1-0.2,0.2-0.3,0.3l0,0c0,0.1-0.1,0.1-0.1,0.1c-0.1,0-0.1,0-0.1,0.1v0.1
		c0,0,0,0,0,0c0,0,0,0.1-0.1,0.1l0,0.1c0,0,0,0.1,0,0.1c0,0,0,0.1-0.1,0.1c0,0,0,0,0,0.1c0,0,0.1,0.1,0.2,0.1c0,0,0.1,0,0.1,0l0.1,0
		c0,0,0,0,0.1,0c0,0,0.1,0,0.1-0.1c0.1,0,0.1,0,0.1-0.1s0.1-0.1,0.1-0.1c0.1,0,0.1-0.1,0.1-0.1c0,0,0.1-0.1,0.1-0.1
		c0.1,0,0.1-0.1,0.1-0.1c0,0,0.1-0.1,0.1-0.1c0.1-0.1,0.2-0.1,0.2-0.2c0,0,0.1-0.1,0.1-0.1c0,0,0.1-0.1,0.1-0.1
		c0-0.1,0.1-0.1,0.1-0.1c0.1,0,0.1,0,0.1,0.1c0,0,0,0.1,0,0.1v0v0.1v0c0,0,0,0,0,0.1c0,0,0,0.1,0,0.1c0,0,0,0.1-0.1,0.1
		c0,0.1,0,0.1-0.1,0.1c0,0-0.1,0.1-0.1,0.1c-0.1,0.1-0.1,0.1-0.2,0.2c-0.1,0.1-0.1,0.1-0.2,0.1c0,0-0.1,0.1-0.1,0.1h0l0,0
		c0,0,0,0,0,0.1l0,0c0,0,0,0-0.1,0H126l0,0c0,0-0.1,0-0.1,0l0,0l0,0c0,0,0,0.1-0.1,0.1c-0.1,0-0.2,0.1-0.3,0.1l-0.1,0l-0.1,0.1
		c0,0,0,0-0.1,0l-0.1,0h-0.1l-0.1-0.1c-0.1-0.1-0.2-0.1-0.2-0.2c0-0.1-0.1-0.1-0.1-0.2c0,0,0-0.1-0.1-0.1c0-0.1,0-0.2,0-0.3
		c0,0,0-0.1,0-0.1c0,0,0-0.1,0.1-0.1c0-0.1,0.1-0.1,0.1-0.2c0.1-0.1,0.1-0.2,0.2-0.3c0,0,0.1-0.1,0.1-0.1l0.1-0.1c0,0,0,0,0-0.1
		s0-0.1,0-0.1c0,0,0-0.1,0-0.1c0-0.1,0-0.1-0.1-0.1c0,0,0,0-0.1,0c0,0-0.1,0.1-0.1,0.1c0,0-0.1,0-0.1,0.1c0,0-0.1,0-0.1,0.1
		c-0.1,0-0.1,0.1-0.1,0.1l-0.1,0c0,0.1,0,0.1-0.1,0.1l-0.1,0c0,0,0,0,0,0.1c0,0-0.1,0.1-0.1,0.1c0,0-0.1,0.1-0.1,0.1
		c0,0-0.1,0-0.1,0l-0.1,0c0,0-0.1,0-0.1,0.1v0l0,0l0,0h-0.1l0,0c-0.1,0.1-0.1,0.1-0.2,0.2l-0.1,0.1l0,0c0,0-0.1-0.1-0.1-0.1
		s0,0,0,0.1c-0.1,0.1-0.1,0.1-0.2,0.2c0,0-0.1,0-0.1,0.1l-0.1,0.1h-0.1l0,0c0,0,0,0-0.1,0.1s-0.1,0.1-0.1,0.1s-0.1,0.1-0.1,0.1
		l-0.1,0c0,0.1-0.1,0.1-0.1,0.1c0,0-0.1,0-0.1,0.1c0,0-0.1,0.1-0.1,0.1c0,0-0.1,0-0.1-0.1l0,0c0,0,0,0,0,0.1s0,0.1-0.1,0.1
		c-0.1,0-0.1,0-0.1,0l0,0c-0.1,0-0.1,0-0.1,0c0,0-0.1,0-0.1-0.1l-0.1,0c0,0-0.1,0-0.1,0l-0.2-0.1c0,0-0.1-0.1-0.1-0.1l0,0
		c-0.1,0-0.1-0.1-0.2-0.3l0-0.1v0c0-0.1,0-0.1,0-0.1c0-0.1,0.1-0.1,0.1-0.2C121.7,91.7,121.8,91.7,121.8,91.6L121.8,91.6z
		 M95.3,89.5l0-0.2v0c0-0.1,0.1-0.2,0.1-0.2c0.1,0,0.1,0,0.2-0.1c0.1,0,0.1,0.1,0.2,0.1c0.1,0.1,0.1,0.1,0.1,0.2v0c0,0,0,0.1,0,0.1
		c0,0.1,0,0.1-0.1,0.1s-0.1,0.1-0.2,0.1c-0.1,0-0.1,0-0.1-0.1C95.4,89.6,95.3,89.6,95.3,89.5L95.3,89.5z"/>
</g>
</svg>
