<?xml version="1.0" encoding="utf-8"?>
<!-- Generator: Adobe Illustrator 24.0.0, SVG Export Plug-In . SVG Version: 6.00 Build 0)  -->
<svg version="1.1" id="Layer_1" xmlns="http://www.w3.org/2000/svg" xmlns:xlink="http://www.w3.org/1999/xlink" x="0px" y="0px"
	 viewBox="0 0 240 100" style="enable-background:new 0 0 240 100;" xml:space="preserve">
<style type="text/css">
	.st0{fill:#1C1C1A;}
</style>
<g>
	<g>
		<path class="st0" d="M78.5,91.3l0.2,1.3h-4.5c0,0,0.3-0.2,0.3-0.8v-4.5c0-0.7-0.3-0.9-0.3-0.9c0.2,0.1,0.5,0.1,0.7,0.1
			c0.3,0,0.5,0,0.7-0.1c0,0-0.3,0.2-0.3,0.9v4.4c0,0.4,0,0.9,0.5,0.9h1.6C78.1,92.4,78.6,91.9,78.5,91.3"/>
		<path class="st0" d="M83.8,92.6h-4.3c0,0,0.3-0.2,0.3-0.9v-4.5c0-0.7-0.3-0.8-0.3-0.8h4.3l-0.2,1.3c0,0,0.1-1.1-1-1.1h-1.3
			c-0.3,0-0.5,0.1-0.5,0.4c0,0,0,0.1,0,0.1v2.3c0,0.1,0.1,0.3,0.2,0.3c0,0,0,0,0.1,0h0.7c0.4,0.1,0.9-0.3,0.9-0.7l0,0v1.5
			c-0.1-0.4-0.5-0.7-0.9-0.7h-0.7c-0.1,0-0.3,0.1-0.3,0.2c0,0,0,0,0,0.1v1.8c0,0.3,0.1,0.5,0.4,0.5c0.1,0,0.1,0,0.2,0h1.3
			c1.1,0,1-1.1,1-1.2L83.8,92.6L83.8,92.6z"/>
		<path class="st0" d="M90.1,87.6c0,0,0.1-1.1-0.9-1.1h-1c-0.2,0-0.4,0.1-0.4,0.3v4.9c0,0.7,0.3,0.9,0.3,0.9
			c-0.2-0.1-0.5-0.1-0.7-0.1c-0.3,0-0.5,0-0.7,0.1c0,0,0.3-0.2,0.3-0.9v-4.9c0-0.1-0.1-0.3-0.2-0.3c0,0,0,0-0.1,0h-0.9
			c-0.5-0.1-1,0.3-1,0.8c0,0.1,0,0.2,0,0.3l-0.2-1.3h5.7L90.1,87.6L90.1,87.6z"/>
		<path class="st0" d="M91.8,86.3c0,0.4-0.2,0.8-0.4,1.1c-0.2-0.4-0.3-0.7-0.4-1.1c0-0.2,0.1-0.4,0.4-0.4C91.7,86,91.8,86,91.8,86.3
			"/>
		<path class="st0" d="M96.3,90.8c0.1,0.8-0.6,1.6-1.9,1.6c-0.4,0-0.7-0.1-1-0.2c-0.1,0-0.5-0.1-0.5,0.3v-1.6
			c0.2,0.6,0.6,1.4,1.5,1.4c0.5,0.1,1.1-0.4,1.1-0.9c0-0.1,0-0.1,0-0.2c0-1.5-2.7-1.9-2.7-3.6c0-0.9,0.7-1.4,1.9-1.4
			c0.4,0,0.7,0.1,1,0.2c0.4,0.1,0.5,0,0.6-0.2l-0.2,0.9L96,87.7c0,0-0.3-1.3-1.4-1.3c-0.6,0-1.1,0.4-1.1,1c0,0,0,0.1,0,0.1
			C93.7,88.8,96.2,89.2,96.3,90.8"/>
		<path class="st0" d="M103.5,91.3l0.2,1.3h-4.5c0,0,0.3-0.2,0.3-0.8v-4.5c0-0.7-0.3-0.9-0.3-0.9c0.2,0.1,0.5,0.1,0.7,0.1
			c0.3,0,0.5,0,0.7-0.1c0,0-0.3,0.2-0.3,0.9v4.4c0,0.4,0,0.9,0.5,0.9h1.6C103.1,92.4,103.6,91.9,103.5,91.3"/>
		<path class="st0" d="M104.9,91.7v-4.4c0-0.7-0.3-0.9-0.3-0.9c0.2,0.1,0.5,0.1,0.7,0.1c0.3,0,0.5,0,0.7-0.1c0,0-0.3,0.2-0.3,0.9
			v4.4c0,0.7,0.3,0.9,0.3,0.9c-0.2-0.1-0.5-0.1-0.7-0.1c-0.3,0-0.5,0-0.7,0.1C104.6,92.6,104.9,92.4,104.9,91.7"/>
		<path class="st0" d="M112.7,86.3c-0.4,0.1-0.8,0.3-1,0.7l-2,5.4c0,0-2.3-5.5-2.3-5.6c-0.1-0.3-0.2-0.5-0.4-0.6
			c0.3,0.1,0.5,0.1,0.8,0.1c0.3,0,0.5,0,0.8-0.1c-0.2,0.1-0.3,0.3-0.2,0.6l1.6,4.3c0,0,1.4-4.1,1.4-4.2c0.1-0.4-0.2-0.7-0.5-0.7l0,0
			L112.7,86.3L112.7,86.3L112.7,86.3z"/>
		<path class="st0" d="M117.8,92.6h-4.3c0,0,0.3-0.2,0.3-0.9v-4.5c0-0.7-0.3-0.8-0.3-0.8h4.3l-0.2,1.3c0,0,0.1-1.1-1-1.1h-1.3
			c-0.3,0-0.5,0.1-0.5,0.4c0,0.1,0,0.1,0,0.2v2.3c0,0.1,0.1,0.3,0.2,0.3c0,0,0,0,0.1,0h0.7c0.4,0.1,0.9-0.3,0.9-0.7l0,0v1.5
			c-0.1-0.4-0.5-0.7-0.9-0.7h-0.7c-0.1,0-0.3,0.1-0.3,0.2c0,0,0,0,0,0.1v1.8c0,0.3,0.1,0.5,0.4,0.5c0,0,0.1,0,0.1,0h1.3
			c1.1,0,1-1.1,1-1.2L117.8,92.6L117.8,92.6z"/>
		<path class="st0" d="M125.1,90.8c0,1.2-1.2,1.7-2.6,1.7c-0.3,0-0.9-0.1-1.3-0.1c-0.2,0-0.4,0-0.6,0.1c0,0,0.3-0.2,0.3-0.9v-4.4
			c0-0.7-0.3-0.8-0.3-0.8c0.2,0.1,0.4,0.1,0.6,0.1c0.3,0,0.7-0.1,1.2-0.1c1.3,0,2.2,0.4,2.2,1.4c0,0.7-0.4,1.2-1.1,1.4
			C124.4,89.3,125,90,125.1,90.8 M121.8,87.2v1.5c0,0.1,0.1,0.3,0.2,0.3c0,0,0,0,0.1,0h0.4c0.7,0,1.3-0.5,1.4-1.2c0-0.1,0-0.1,0-0.2
			c0-0.7-0.5-1.3-1.3-1.4l0,0h-0.4C121.7,86.5,121.8,87,121.8,87.2 M124.1,90.8c0-0.9-0.8-1.6-1.6-1.5h-0.4c-0.1,0-0.3,0.1-0.3,0.2
			c0,0,0,0,0,0.1v2c0,0.4-0.1,0.8,0.4,0.9h0.4C123.5,92.4,124.2,91.6,124.1,90.8"/>
		<path class="st0" d="M130.2,92.6h-4.3c0,0,0.3-0.2,0.3-0.9v-4.5c0-0.7-0.3-0.8-0.3-0.8h4.3l-0.2,1.3c0,0,0.1-1.1-1-1.1h-1.3
			c-0.3,0-0.5,0.1-0.5,0.4c0,0.1,0,0.1,0,0.2v2.3c0,0.1,0.1,0.3,0.2,0.3c0,0,0,0,0.1,0h0.7c0.4,0.1,0.9-0.3,0.9-0.7l0,0v1.5
			c-0.1-0.4-0.5-0.7-0.9-0.7h-0.7c-0.1,0-0.3,0.1-0.3,0.2c0,0,0,0,0,0.1v1.8c0,0.3,0.1,0.5,0.4,0.5c0,0,0.1,0,0.1,0h1.3
			c1.1,0,1-1.1,1-1.2L130.2,92.6z"/>
		<path class="st0" d="M136,92.5c-0.3,0-0.5,0-0.7,0.1c0,0,0.3-0.1,0.2-0.6l-0.5-1.8c-0.1-0.2-0.3-0.3-0.4-0.3H133
			c-0.1,0-0.3,0.1-0.4,0.2c-0.1,0.4-0.6,1.9-0.6,1.9c-0.1,0.3,0.1,0.6,0.4,0.7c0,0,0.1,0,0.1,0h-1.4c0,0,0.5,0,0.8-0.7
			c0,0,1.9-5.4,1.9-5.5h1.2c-0.3,0.1-0.1,0.5,0,0.8l1.5,4.7c0.1,0.3,0.3,0.5,0.5,0.6C136.6,92.5,136.3,92.5,136,92.5 M134.6,89.3
			l-0.9-2.7c-0.2,0.4-0.9,2.6-1,2.9c0,0.1,0.1,0.2,0.2,0.2h1.4C134.5,89.6,134.6,89.5,134.6,89.3"/>
		<path class="st0" d="M142.4,87.2v3.6c0,1.4-1.1,2-2.3,2c-1.2,0-2.3-0.5-2.3-2v-3.6c0-0.7-0.3-0.9-0.3-0.9c0.2,0.1,0.5,0.1,0.7,0.1
			c0.3,0,0.5,0,0.7-0.1c0,0-0.3,0.2-0.3,0.9v4c0,0.7,0.5,1.3,1.2,1.4c0.1,0,0.1,0,0.2,0l0,0c0.7,0,1.3-0.5,1.4-1.2
			c0-0.1,0-0.1,0-0.2v-4c0-0.7-0.3-0.9-0.3-0.9c0.2,0.1,0.5,0.1,0.7,0.1c0.3,0,0.5,0,0.7-0.1C142.7,86.3,142.4,86.5,142.4,87.2"/>
		<path class="st0" d="M149,87.6c0,0,0.1-1.1-0.9-1.1h-1c-0.2,0-0.4,0.1-0.4,0.3v4.9c0,0.7,0.3,0.9,0.3,0.9
			c-0.2-0.1-0.5-0.1-0.7-0.1c-0.3,0-0.5,0-0.7,0.1c0,0,0.3-0.2,0.3-0.9v-4.9c0-0.1-0.1-0.3-0.2-0.3c0,0,0,0-0.1,0h-0.9
			c-0.5-0.1-1,0.3-1,0.8c0,0.1,0,0.2,0,0.3l-0.2-1.3h5.7L149,87.6L149,87.6z"/>
		<path class="st0" d="M150.3,91.7v-4.4c0-0.7-0.3-0.9-0.3-0.9c0.2,0.1,0.5,0.1,0.7,0.1c0.3,0,0.5,0,0.7-0.1c0,0-0.3,0.2-0.3,0.9
			v4.4c0,0.7,0.3,0.9,0.3,0.9c-0.2-0.1-0.5-0.1-0.7-0.1c-0.3,0-0.5,0-0.7,0.1C150,92.6,150.3,92.4,150.3,91.7"/>
		<path class="st0" d="M156.4,87.6c0,0,0.1-1.1-1-1.1h-1.3c-0.4,0-0.5,0.4-0.5,0.7v2.2c0,0.1,0.1,0.3,0.2,0.3c0,0,0,0,0.1,0h0.7
			c0.4,0.1,0.9-0.3,0.9-0.7l0,0v1.5c-0.1-0.4-0.5-0.7-0.9-0.7h-0.7c-0.1,0-0.3,0.1-0.3,0.2c0,0,0,0,0,0.1v1.6c0,0.7,0.3,0.9,0.3,0.9
			c-0.2-0.1-0.5-0.1-0.7-0.1c-0.3,0-0.5,0-0.7,0.1c0,0,0.3-0.2,0.3-0.9v-4.4c0-0.7-0.3-0.9-0.3-0.9h4.3L156.4,87.6L156.4,87.6z"/>
		<path class="st0" d="M162.3,87.2v3.6c0,1.4-1.1,2-2.3,2c-1.2,0-2.3-0.5-2.3-2v-3.6c0-0.7-0.3-0.9-0.3-0.9c0.2,0.1,0.5,0.1,0.7,0.1
			c0.3,0,0.5,0,0.7-0.1c0,0-0.3,0.2-0.3,0.9v4c0,0.7,0.5,1.3,1.2,1.4c0.1,0,0.1,0,0.2,0l0,0c0.7,0,1.3-0.5,1.4-1.2
			c0-0.1,0-0.1,0-0.2v-4c0-0.7-0.3-0.9-0.3-0.9c0.2,0.1,0.5,0.1,0.7,0.1c0.3,0,0.5,0,0.7-0.1C162.6,86.3,162.3,86.5,162.3,87.2"/>
		<path class="st0" d="M167.8,91.3l0.2,1.3h-4.5c0,0,0.3-0.2,0.3-0.8v-4.5c0-0.7-0.3-0.9-0.3-0.9c0.2,0.1,0.5,0.1,0.7,0.1
			c0.3,0,0.5,0,0.7-0.1c0,0-0.3,0.2-0.3,0.9v4.4c0,0.4,0,0.9,0.5,0.9h1.6C167.4,92.4,167.8,91.9,167.8,91.3"/>
	</g>
	<g>
		<path class="st0" d="M110.5,64.9c0,1.5-1.2,2.7-2.7,2.7c-1.5,0-2.7-1.2-2.7-2.7c0-1.5,1.2-2.7,2.7-2.7l0,0
			C109.2,62,110.5,63.3,110.5,64.9"/>
		<path class="st0" d="M118.4,64.9c0,1.5-1.2,2.7-2.7,2.7s-2.7-1.2-2.7-2.7c0-1.5,1.2-2.7,2.7-2.7l0,0
			C117.2,62,118.4,63.3,118.4,64.9"/>
		<path class="st0" d="M126.3,64.9c0,1.5-1.2,2.7-2.7,2.7s-2.7-1.2-2.7-2.7c0-1.5,1.2-2.7,2.7-2.7l0,0
			C125.1,62,126.3,63.3,126.3,64.9"/>
	</g>
	<g>
		<path class="st0" d="M137.1,66.8c-8.5,20.2-38.6,13.8-51.6,2.6c-7.5-6.6-14.9-14-19.4-33.3v-1.2h3.4c6.1,0,11.6-4.5,11.6-13.1
			c0-7.4-4.6-13.5-11.6-13.5c-0.9,0-2.8,0-3.5,0.1c-3.3,0.4-2.8,4.2-2.8,7.1c0,0-0.1,35.5,0,36.4c0.3,5.9,2.6,7.1,2.6,7.1
			s-2-0.4-6.3-0.4c-4.1,0-6.1,0.4-6.1,0.4s2.5-1.2,2.5-7.1V14.6c0-5.8-2.5-7.1-2.5-7.1S54.6,8,58.7,8c2.5,0.1,6.4-0.7,9.9-0.7
			c11.5,0,19.1,5,19.1,14.2c0,7.7-6.2,14-14.2,14.5h-1.7c3.8,11.5,7.7,21.2,19.2,30.4c12.5,10,36.8,15.7,45.9,0.1L137.1,66.8
			L137.1,66.8z"/>
		<path class="st0" d="M112.3,57.9c0,0-1-0.4-5.7-0.4c-3.3,0-4.6,0.4-4.6,0.4s1.2-0.9,1.2-3.6V39.9c0,0.3-1.2,1.1-4.4,2.1
			c-3.7,1.2-6.4,2.9-6.4,8c0,6.7,3.6,8.4,5.6,6.9c1.8-1.2,1.5-3.4,0-3c-2.5,0.5-3.4-1.9-2-3.4c1.7-1.9,5.6-1.1,5.6,2.4
			c-0.1,3.2-2.6,5.7-7.7,5.4c-4-0.4-8.6-2.2-8.6-8.2c0-7.2,9.8-8.4,12.9-9.2c2-0.5,4.9-1.4,4.9-3v-1.3c0-2,0.1-7.7-6.2-8.3
			c-4.4-0.3-7,1.4-7,1.4c1.7-1.4,4.4-2.4,7.4-2.4c7.9-0.1,13,3.5,13,11.9v12.7C110.3,56.9,112.3,57.9,112.3,57.9"/>
		<path class="st0" d="M170,78c-12.7,1.3-30.1-4.3-30.1-28.7V38c0-1.5,0.5-9-5.7-9c-4.2,0-6.8,4.9-6.8,9v12.5c0,5.9,2.6,7.2,2.6,7.2
			s-2-0.5-6.1-0.5s-6.1,0.5-6.1,0.5s2.6-1.2,2.6-7.2V36.9c0-5.6-1.5-6.9-2.6-7.2c4.3,0,8.4-1.1,9.7-3.1v6.1c0.7-2.3,3.6-4.6,6.7-5.3
			c7.5-1.5,13.1,2.7,13.1,9.8v10.6C147.1,70.2,157,76.8,170,78"/>
		<path class="st0" d="M183.2,62.9c0,5.5-3.9,10.4-9.5,12.8c4.1-2.6,6.7-7.2,6.7-10.1c0-7.2-8.4-6.7-17.7-6.6
			c-10.3,0.1-9.8-10-2.4-12.3c-3.8-1.4-7.2-4.3-7.2-9.1c0-7.6,7.8-10.2,13.1-10.2c0,0,7.8-0.9,11.4-3.4l1.4,4h-8
			c2.2,0.6,4.3,1.7,5.9,3.4l1,1.3c0.9,1.4,1.3,3.1,1.3,4.8c0,7.4-7.8,10.1-13.1,10.1c-1.2,0-2.3-0.1-3.5-0.4c-1.9,0.3-3.8,1-3.8,2.8
			c0,2.6,6.6,1.5,9.8,1.4C178.7,51.1,183.2,56.5,183.2,62.9 M160.3,37.7c0.1,6.4,3,9.4,5.9,9.4c3-0.1,5.6-3.2,5.6-9.4
			c-0.2-6.8-2.9-9.4-5.8-9.4C163,28.2,160.4,31.6,160.3,37.7"/>
	</g>
	<g>
		<path class="st0" d="M184.7,27.5l-0.8-1.2h-0.8v1.2h-0.4v-3h1.3c0.2,0,0.3,0,0.4,0.1c0.1,0,0.3,0.1,0.4,0.2
			c0.1,0.1,0.2,0.2,0.2,0.3c0.1,0.2,0.1,0.5,0,0.7c0,0.1-0.1,0.2-0.2,0.3s-0.2,0.1-0.3,0.2c-0.1,0.1-0.2,0.1-0.4,0.1l0.9,1.2
			L184.7,27.5z M184.4,25.1c-0.2-0.1-0.4-0.2-0.5-0.2H183V26h1.2c0.1,0,0.2-0.1,0.3-0.1l0.2-0.2c0-0.1,0.1-0.2,0.1-0.3
			C184.6,25.2,184.6,25.1,184.4,25.1"/>
		<path class="st0" d="M183.7,29c-1.6,0-2.9-1.3-2.9-2.9s1.3-2.9,2.9-2.9s2.9,1.3,2.9,2.9l0,0C186.5,27.6,185.2,29,183.7,29
			 M183.7,23.5c-1.4,0-2.5,1.1-2.6,2.5v0c0,1.4,1.2,2.5,2.6,2.6c1.4,0,2.6-1.2,2.6-2.6l0,0C186.2,24.7,185.1,23.5,183.7,23.5"/>
	</g>
</g>
</svg>
