<?xml version="1.0" encoding="utf-8"?>
<!-- Generator: Adobe Illustrator 24.0.0, SVG Export Plug-In . SVG Version: 6.00 Build 0)  -->
<svg version="1.1" id="Layer_1" xmlns="http://www.w3.org/2000/svg" xmlns:xlink="http://www.w3.org/1999/xlink" x="0px" y="0px"
	 viewBox="0 0 240 100" style="enable-background:new 0 0 240 100;" xml:space="preserve">
<style type="text/css">
	.st0{clip-path:url(#SVGID_2_);fill:none;stroke:#000000;stroke-width:0.75;}
	.st1{clip-path:url(#SVGID_4_);fill:none;stroke:#000000;stroke-width:0.75;}
	.st2{clip-path:url(#SVGID_6_);fill:none;stroke:#000000;stroke-width:0.75;}
	.st3{clip-path:url(#SVGID_8_);fill:none;stroke:#000000;stroke-width:0.75;}
	.st4{clip-path:url(#SVGID_10_);fill:none;stroke:#000000;stroke-width:0.75;}
	.st5{clip-path:url(#SVGID_12_);fill:none;stroke:#000000;stroke-width:0.75;}
	.st6{clip-path:url(#SVGID_14_);fill:none;stroke:#000000;stroke-width:0.75;}
	.st7{clip-path:url(#SVGID_16_);fill:none;stroke:#000000;stroke-width:0.75;}
	.st8{clip-path:url(#SVGID_18_);fill:none;stroke:#000000;stroke-width:0.75;}
	.st9{clip-path:url(#SVGID_20_);fill:none;stroke:#000000;stroke-width:0.75;}
	.st10{clip-path:url(#SVGID_22_);fill:none;stroke:#000000;stroke-width:0.75;}
	.st11{clip-path:url(#SVGID_24_);fill:none;stroke:#000000;stroke-width:0.75;}
	.st12{clip-path:url(#SVGID_26_);fill:none;stroke:#000000;stroke-width:0.75;}
</style>
<g>
	<g>
		<path d="M64.5,66.5h1.1v8.9h5.6v1h-6.7V66.5z"/>
		<path d="M90.6,66.4h1.1l4.5,10H95l-1.2-2.6h-5.4l-1.1,2.6h-1.1L90.6,66.4z M93.3,72.8l-2.2-5.1l-2.3,5.1H93.3z"/>
		<path d="M111.7,66.5h1.1l3.6,5.4l3.6-5.4h1.1v9.9h-1.1v-8.1l-3.6,5.3h-0.1l-3.6-5.3v8.1h-1.1v-9.9H111.7z"/>
		<path d="M137.8,66.5h1.1v9.9h-1.1V66.5z"/>
		<path d="M155.4,66.5h1.1l6.3,7.9v-7.9h1.1v9.9H163l-6.4-8.2v8.2h-1.1v-9.9H155.4z"/>
		<path d="M180.2,66.5h7.2v1h-6.1V71h5.4v1h-5.4v3.5h6.2v1h-7.3V66.5z"/>
		<path d="M206.5,71.4l-3.6-4.9h1.3l3.1,4.1l3-4.1h1.3l-3.6,4.9l3.9,5.1h-1.3l-3.2-4.3l-3.2,4.3h-1.3L206.5,71.4z"/>
	</g>
	<g>
		<path d="M99.6,42.7c-0.1,9.5-5.8,18.9-18.8,18.9s-18.8-9.3-18.8-18.9s6.1-19.2,18.8-19.2C93.4,23.5,99.6,33.2,99.6,42.7z
			 M68.8,42.9c0.1,6,3.4,12.5,12,12.5s11.8-6.5,11.9-12.6c0.1-6.2-3.3-13-11.9-13S68.6,36.8,68.8,42.9z"/>
		<path d="M128.6,24.2h6.8v36.6h-4.3l0,0l-19.2-24.7v24.6h-6.8V24.3h5.6l17.9,22.6V24.2z"/>
		<path d="M167.8,53.9h-19.1l-3.1,6.8h-7.5l16.4-36.5h7.5l16.4,36.5H171L167.8,53.9z M158.3,31.9l-6.8,15.6H165L158.3,31.9z"/>
		<path d="M210.2,24.5L194,42.1l17.5,18.4v0.4h-8.5l-15.3-16.2v16.2h-6.8V24.3h6.8v15.4l13.9-15.4h8.6L210.2,24.5L210.2,24.5z"/>
	</g>
	<path d="M55.3,43.2c1.4-2.1,2.2-4.4,2.2-6.9c0-3.3-1.2-6.2-3.6-8.7c-2.4-2.4-5.3-3.6-8.7-3.6H29l3.2,5.5l0.4,0.7h12.6
		c1.7,0,3.1,0.6,4.3,1.8c1.2,1.2,1.9,2.6,1.9,4.3s-0.6,3.2-1.9,4.4c-1.2,1.2-2.6,1.8-4.3,1.8h-5.5l10.7,18.4h7.1L50,47.5
		C52.1,46.7,53.8,45.3,55.3,43.2"/>
	<g>
		<g>
			<defs>
				<path id="SVGID_1_" d="M28.2,60.8h21.4L38.5,41.7H45h0.1c3,0,5.5-2.4,5.5-5.4s-2.4-5.5-5.5-5.5h-13l-0.7-1.3L28.2,24V60.8z"/>
			</defs>
			<clipPath id="SVGID_2_">
				<use xlink:href="#SVGID_1_"  style="overflow:visible;"/>
			</clipPath>
			<line class="st0" x1="-58.6" y1="43.1" x2="137.3" y2="43.1"/>
		</g>
		<g>
			<defs>
				<path id="SVGID_3_" d="M28.2,60.8h21.4L38.5,41.7H45h0.1c3,0,5.5-2.4,5.5-5.4s-2.4-5.5-5.5-5.5h-13l-0.7-1.3L28.2,24V60.8z"/>
			</defs>
			<clipPath id="SVGID_4_">
				<use xlink:href="#SVGID_3_"  style="overflow:visible;"/>
			</clipPath>
			<line class="st1" x1="-58.6" y1="31.6" x2="137.3" y2="31.6"/>
		</g>
		<g>
			<defs>
				<path id="SVGID_5_" d="M28.2,60.8h21.4L38.5,41.7H45h0.1c3,0,5.5-2.4,5.5-5.4s-2.4-5.5-5.5-5.5h-13l-0.7-1.3L28.2,24V60.8z"/>
			</defs>
			<clipPath id="SVGID_6_">
				<use xlink:href="#SVGID_5_"  style="overflow:visible;"/>
			</clipPath>
			<line class="st2" x1="-58.6" y1="54.5" x2="137.3" y2="54.5"/>
		</g>
		<g>
			<defs>
				<path id="SVGID_7_" d="M28.2,60.8h21.4L38.5,41.7H45h0.1c3,0,5.5-2.4,5.5-5.4s-2.4-5.5-5.5-5.5h-13l-0.7-1.3L28.2,24V60.8z"/>
			</defs>
			<clipPath id="SVGID_8_">
				<use xlink:href="#SVGID_7_"  style="overflow:visible;"/>
			</clipPath>
			<line class="st3" x1="-58.6" y1="25.7" x2="137.3" y2="25.7"/>
		</g>
		<g>
			<defs>
				<path id="SVGID_9_" d="M28.2,60.8h21.4L38.5,41.7H45h0.1c3,0,5.5-2.4,5.5-5.4s-2.4-5.5-5.5-5.5h-13l-0.7-1.3L28.2,24V60.8z"/>
			</defs>
			<clipPath id="SVGID_10_">
				<use xlink:href="#SVGID_9_"  style="overflow:visible;"/>
			</clipPath>
			<line class="st4" x1="-58.6" y1="48.8" x2="137.3" y2="48.8"/>
		</g>
		<g>
			<defs>
				<path id="SVGID_11_" d="M28.2,60.8h21.4L38.5,41.7H45h0.1c3,0,5.5-2.4,5.5-5.4s-2.4-5.5-5.5-5.5h-13l-0.7-1.3L28.2,24V60.8z"/>
			</defs>
			<clipPath id="SVGID_12_">
				<use xlink:href="#SVGID_11_"  style="overflow:visible;"/>
			</clipPath>
			<line class="st5" x1="-58.6" y1="37.3" x2="137.3" y2="37.3"/>
		</g>
		<g>
			<defs>
				<path id="SVGID_13_" d="M28.2,60.8h21.4L38.5,41.7H45h0.1c3,0,5.5-2.4,5.5-5.4s-2.4-5.5-5.5-5.5h-13l-0.7-1.3L28.2,24V60.8z"/>
			</defs>
			<clipPath id="SVGID_14_">
				<use xlink:href="#SVGID_13_"  style="overflow:visible;"/>
			</clipPath>
			<line class="st6" x1="-58.6" y1="60.3" x2="137.3" y2="60.3"/>
		</g>
		<g>
			<defs>
				<path id="SVGID_15_" d="M28.2,60.8h21.4L38.5,41.7H45h0.1c3,0,5.5-2.4,5.5-5.4s-2.4-5.5-5.5-5.5h-13l-0.7-1.3L28.2,24V60.8z"/>
			</defs>
			<clipPath id="SVGID_16_">
				<use xlink:href="#SVGID_15_"  style="overflow:visible;"/>
			</clipPath>
			<line class="st7" x1="-58.6" y1="45.9" x2="137.3" y2="45.9"/>
		</g>
		<g>
			<defs>
				<path id="SVGID_17_" d="M28.2,60.8h21.4L38.5,41.7H45h0.1c3,0,5.5-2.4,5.5-5.4s-2.4-5.5-5.5-5.5h-13l-0.7-1.3L28.2,24V60.8z"/>
			</defs>
			<clipPath id="SVGID_18_">
				<use xlink:href="#SVGID_17_"  style="overflow:visible;"/>
			</clipPath>
			<line class="st8" x1="-58.6" y1="34.4" x2="137.3" y2="34.4"/>
		</g>
		<g>
			<defs>
				<path id="SVGID_19_" d="M28.2,60.8h21.4L38.5,41.7H45h0.1c3,0,5.5-2.4,5.5-5.4s-2.4-5.5-5.5-5.5h-13l-0.7-1.3L28.2,24V60.8z"/>
			</defs>
			<clipPath id="SVGID_20_">
				<use xlink:href="#SVGID_19_"  style="overflow:visible;"/>
			</clipPath>
			<line class="st9" x1="-58.6" y1="57.4" x2="137.3" y2="57.4"/>
		</g>
		<g>
			<defs>
				<path id="SVGID_21_" d="M28.2,60.8h21.4L38.5,41.7H45h0.1c3,0,5.5-2.4,5.5-5.4s-2.4-5.5-5.5-5.5h-13l-0.7-1.3L28.2,24V60.8z"/>
			</defs>
			<clipPath id="SVGID_22_">
				<use xlink:href="#SVGID_21_"  style="overflow:visible;"/>
			</clipPath>
			<line class="st10" x1="-58.6" y1="28.6" x2="137.3" y2="28.6"/>
		</g>
		<g>
			<defs>
				<path id="SVGID_23_" d="M28.2,60.8h21.4L38.5,41.7H45h0.1c3,0,5.5-2.4,5.5-5.4s-2.4-5.5-5.5-5.5h-13l-0.7-1.3L28.2,24V60.8z"/>
			</defs>
			<clipPath id="SVGID_24_">
				<use xlink:href="#SVGID_23_"  style="overflow:visible;"/>
			</clipPath>
			<line class="st11" x1="-58.6" y1="51.5" x2="137.3" y2="51.5"/>
		</g>
		<g>
			<defs>
				<path id="SVGID_25_" d="M28.2,60.8h21.4L38.5,41.7H45h0.1c3,0,5.5-2.4,5.5-5.4s-2.4-5.5-5.5-5.5h-13l-0.7-1.3L28.2,24V60.8z"/>
			</defs>
			<clipPath id="SVGID_26_">
				<use xlink:href="#SVGID_25_"  style="overflow:visible;"/>
			</clipPath>
			<line class="st12" x1="-58.6" y1="40.2" x2="137.3" y2="40.2"/>
		</g>
	</g>
</g>
</svg>
