<?xml version="1.0" encoding="utf-8"?>
<!-- Generator: Adobe Illustrator 24.0.0, SVG Export Plug-In . SVG Version: 6.00 Build 0)  -->
<svg version="1.1" id="Layer_1" xmlns="http://www.w3.org/2000/svg" xmlns:xlink="http://www.w3.org/1999/xlink" x="0px" y="0px"
	 viewBox="0 0 240 100" style="enable-background:new 0 0 240 100;" xml:space="preserve">
<style type="text/css">
	.st0{fill-rule:evenodd;clip-rule:evenodd;fill:#1C1C1A;}
	.st1{fill:#1C1C1A;}
</style>
<g>
	<path class="st0" d="M118.4,59.8l5.2,0c12,0.7,22,3.6,30.2,8.3c-21.4-5.5-43.9-5.9-67.5-0.6C93.4,63,103.1,59.8,118.4,59.8z"/>
	<path class="st0" d="M106,43.6l1.5,0c-1,15.3,19.2,17.8,21.1,6.9c3.3-16.3-26.7-8.5-21.9-31.2c2.2,21.3,28.7,10.2,25.9,31.3
		c-0.6,4.4-7.5,12.1-19.3,9.4c-2.7-0.8-2.8-1.5-4.8-1.5l-1.9,0L106,43.6L106,43.6z"/>
	<path class="st0" d="M136.1,22.1l-1.5,0c1-15.3-19.2-17.8-21.1-6.9c-3.3,16.3,26.7,8.5,21.9,31.2c-2.2-21.3-28.7-10.2-25.9-31.3
		c0.6-4.4,7.5-12.1,19.3-9.4c2.7,0.8,2.8,1.5,4.8,1.5l1.9,0L136.1,22.1z"/>
	<path class="st1" d="M90.8,70.6c0.1-0.1,0.2-0.3,0.2-0.4s0.2-0.3,0.4-0.3c0,0,0.2,0,0.4,0c0.1,0.1,0.1,0.2,0.1,0.3
		c0.1,0.9,0.3,1.8,0.4,2.7c0,0.1,0,0.2,0,0.3c0,0.1,0,0.2-0.1,0.2c-0.1,0.1-0.3,0.1-0.4,0.1c-0.2,0-0.3,0-0.5,0
		c-0.2-0.2-0.3-0.5-0.4-0.8c-0.4-1-0.8-1.4-1.2-1.3c-0.2,0.1-0.4,0.3-0.4,0.6c0,0.4,0.4,1.3,1.1,2.5c0.4,0.7,0.8,1.3,1.1,1.9
		c0.2,0.4,0.4,0.9,0.6,1.3c0.3,0.8,0.4,1.6,0.4,2.4c0,1.1-0.2,1.9-0.7,2.4s-1,0.8-1.5,0.8c-0.4,0-0.7-0.1-1-0.3
		c-0.1-0.1-0.2-0.1-0.3-0.1c-0.1,0-0.1,0-0.2,0.1c-0.1,0.2-0.3,0.3-0.6,0.3c-0.1,0-0.2,0-0.2-0.1c-0.1-0.1-0.1-0.2-0.1-0.3
		c-0.1-0.8-0.2-1.7-0.4-2.5c0-0.3-0.1-0.5-0.1-0.5c0-0.1,0.1-0.2,0.4-0.2c0.3,0,0.6,0,0.6,0.1c0.1,0.2,0.2,0.4,0.3,0.7
		c0.4,1.2,0.9,1.8,1.3,1.8c0.2,0,0.3-0.1,0.4-0.2c0.1-0.1,0.1-0.3,0.1-0.5c0-0.4-0.1-0.8-0.3-1.2c-0.2-0.4-0.5-0.9-0.8-1.4
		C88.9,78,88.3,77,87.8,76c-0.3-0.7-0.5-1.5-0.5-2.2c0-0.8,0.2-1.6,0.6-2.3c0.4-0.6,0.9-1,1.4-1.2C89.8,70.3,90.3,70.3,90.8,70.6
		L90.8,70.6z M96.5,75c0.4,0,0.8-0.1,1.2-0.1v-4.5c0-0.1,0-0.2,0-0.3c0-0.1-0.1-0.1-0.2-0.1c-0.1-0.1-0.2-0.2-0.2-0.5
		c0-0.2,0-0.4,0-0.6c0-0.1,0.1-0.1,0.2-0.1c1.1-0.2,2.1-0.4,3.2-0.6c0.1,0,0.2,0,0.3,0.1c0,0.2,0.1,0.4,0,0.6c0,0.1,0,0.3,0,0.4
		c-0.1,0.1-0.2,0.2-0.3,0.3c-0.2,0.1-0.3,0.4-0.3,0.6v11c0,0.3,0.1,0.5,0.3,0.7c0.2,0.1,0.3,0.2,0.3,0.4v0.6c0,0.1,0,0.2,0,0.2
		c0,0-0.1,0.1-0.3,0.1h-3.2c-0.1,0-0.2,0-0.2-0.1c0-0.2-0.1-0.4,0-0.7c0-0.2,0.1-0.3,0.2-0.4c0.1-0.1,0.2-0.3,0.2-0.4V76l-1.2,0.1
		v5.4c0,0.2,0.1,0.3,0.2,0.4c0.1,0.1,0.2,0.3,0.2,0.5c0,0.2,0,0.4,0,0.5c0,0.1-0.1,0.1-0.2,0.1h-3.3c-0.1,0-0.2,0-0.2-0.1
		c0-0.2,0-0.4,0-0.6c0-0.1,0-0.2,0-0.3c0.1-0.1,0.1-0.1,0.2-0.2c0.2-0.1,0.3-0.3,0.3-0.5V71.3c0-0.2-0.1-0.3-0.3-0.4
		c-0.2-0.1-0.3-0.3-0.3-0.6c0-0.2,0-0.4,0.1-0.6c0.1-0.1,0.2-0.1,0.3-0.1c1-0.2,2-0.4,3.1-0.6c0.1,0,0.2,0,0.3,0
		c0.1,0.1,0.1,0.2,0.1,0.4c0,0.1,0,0.3,0,0.4c0,0.1-0.1,0.2-0.2,0.3c-0.2,0.1-0.2,0.3-0.2,0.5L96.5,75L96.5,75z M105.1,79.8
		c-0.6,0-1.2,0-1.9,0.1c0,0.3-0.1,0.6-0.1,0.9c0,0,0,0.1,0,0.1c0,0.2-0.1,0.3-0.1,0.5c0,0.2,0.1,0.4,0.3,0.6
		c0.1,0.1,0.2,0.1,0.2,0.2c0,0.1,0,0.3,0,0.4c0,0.2,0,0.3,0,0.5c0,0.1-0.1,0.1-0.2,0.1h-2c-0.1,0-0.2-0.1-0.2-0.4
		c0-0.3,0.1-0.6,0.3-0.8c0.1-0.2,0.2-0.4,0.3-0.6c0.2-1.8,0.4-3.7,0.7-5.5c0.2-1.8,0.5-3.7,0.7-5.6c0-0.1,0-0.3,0-0.4
		c0-0.2-0.1-0.4-0.3-0.5c-0.1-0.1-0.1-0.2-0.1-0.5c0-0.2,0-0.4,0-0.6c0-0.1,0.1-0.2,0.2-0.2c1-0.1,1.9-0.2,2.9-0.4
		c0.2,0,0.3,0.1,0.4,0.3c0.1,0.4,0.2,0.9,0.2,1.4c0,0.3,0.1,0.6,0.1,0.8c0.2,1.8,0.4,3.5,0.6,5.3c0.2,1.8,0.4,3.5,0.6,5.3
		c0,0.4,0.2,0.8,0.4,1.2c0,0.1,0.1,0.1,0.1,0.2c0,0.1,0,0.3,0,0.4c0,0.2,0,0.4-0.1,0.6c0,0.1-0.1,0.1-0.2,0.1h-3.3
		c-0.1,0-0.1-0.1-0.1-0.4c0-0.2,0-0.4,0-0.6c0-0.1,0.1-0.2,0.2-0.3c0.2-0.1,0.3-0.3,0.3-0.5C105.3,81.1,105.2,80.6,105.1,79.8
		L105.1,79.8z M104.2,71.3c-0.1,1.2-0.3,2.5-0.4,3.7c-0.1,1.2-0.3,2.5-0.4,3.7c0.6,0,1.1,0,1.7-0.1c-0.1-1.2-0.3-2.4-0.4-3.7
		C104.5,73.8,104.3,72.6,104.2,71.3L104.2,71.3z M112.2,81.9h0.4c0.2,0,0.4-0.1,0.5-0.3c0.2-0.5,0.3-1.1,0.4-1.6
		c0.1-0.3,0.1-0.5,0.2-0.6c0.1-0.1,0.3-0.1,0.4-0.1c0.1,0,0.3,0,0.4,0.1c0.1,0.1,0.1,0.2,0.1,0.3c0,0.1,0,0.3,0,0.4
		c-0.1,0.8-0.2,1.6-0.3,2.4c0,0.2,0,0.3-0.1,0.5c-0.1,0.1-0.2,0.1-0.3,0.1H109c-0.2,0-0.3-0.2-0.3-0.5c0-0.2,0-0.3,0-0.5
		c0-0.1,0.1-0.1,0.2-0.2c0.3-0.1,0.4-0.5,0.4-1V69.2c0-0.2-0.1-0.4-0.3-0.5c-0.1,0-0.2-0.1-0.3-0.3c0-0.2-0.1-0.3,0-0.5
		c0-0.2,0-0.4,0-0.5c0-0.1,0.1-0.1,0.2-0.1c1.1-0.1,2.3-0.2,3.5-0.2c0.1,0,0.2,0,0.3,0.1c0.1,0.2,0.1,0.4,0.1,0.7c0,0.1,0,0.3,0,0.4
		c-0.1,0.1-0.1,0.2-0.2,0.2c-0.2,0.1-0.4,0.4-0.4,0.7L112.2,81.9L112.2,81.9z M115,67.7v-0.5c0-0.2,0.1-0.3,0.2-0.3
		c1.2,0,2.4-0.1,3.6-0.1c0.1,0,0.2,0,0.3,0.1c0.1,0.1,0.1,0.3,0.1,0.4c0,0.2,0,0.4,0,0.7c0,0.1-0.1,0.1-0.2,0.2
		c-0.3,0.1-0.5,0.3-0.5,0.8v12.1c0,0.2,0.1,0.5,0.3,0.6c0.1,0.1,0.2,0.1,0.3,0.2c0,0.1,0.1,0.2,0,0.4v0.4c0,0.1,0,0.2,0,0.4
		c-0.1,0-0.1,0-0.2,0h-3.7c-0.1,0-0.2-0.1-0.2-0.2v0c0-0.3,0-0.6,0-0.9c0-0.1,0.1-0.2,0.3-0.2c0.2-0.1,0.4-0.3,0.4-0.6V69.2
		c0-0.2,0-0.4-0.1-0.6c-0.1-0.2-0.2-0.3-0.3-0.3c-0.1,0-0.2-0.1-0.2-0.2C115,67.9,115,67.8,115,67.7L115,67.7z M124.8,82.1
		c-0.4,0.8-1,1.2-1.7,1.2c-1,0-1.9-0.8-2.5-2.4c-0.3-0.9-0.6-1.8-0.7-2.7c-0.2-1-0.2-2.1-0.2-3.1c0-1.1,0.1-2.3,0.3-3.4
		c0.2-0.9,0.4-1.8,0.8-2.7c0.7-1.6,1.6-2.3,2.6-2.3c0.5,0,0.9,0.2,1.3,0.6c0.1,0.1,0.2,0.1,0.3,0.2c0.1,0,0.2-0.1,0.2-0.3
		c0.1-0.2,0.2-0.3,0.3-0.3h0.1c0.1,0,0.2,0,0.2,0c0.2,0,0.3,0.2,0.3,0.5c0.2,1.1,0.3,2.1,0.5,3.2c0,0.2,0.1,0.4,0.1,0.7
		c0,0.2-0.1,0.3-0.4,0.3c-0.2,0-0.4,0-0.5-0.2c-0.2-0.3-0.3-0.7-0.4-1.1c-0.2-0.6-0.4-1.2-0.8-1.7c-0.2-0.3-0.5-0.5-0.7-0.5
		c-0.7,0-1,0.7-1,2.2v10.8c0,0.8,0.2,1.2,0.6,1.2c0.4,0,0.6-0.4,0.6-1.2v-5.2c0-0.3-0.1-0.6-0.3-0.7c-0.2-0.1-0.3-0.3-0.3-0.7
		c0-0.2,0-0.4,0.1-0.6c0.1-0.1,0.2-0.1,0.3-0.1c1,0,2.1,0.1,3.2,0.1c0.1,0,0.2,0,0.3,0.1c0.1,0.2,0.1,0.3,0.1,0.5c0,0.2,0,0.4,0,0.6
		c0,0.1-0.1,0.2-0.2,0.2c-0.2,0.1-0.3,0.3-0.3,0.5v6.8c0,0.3,0,0.5-0.1,0.8c0,0.1-0.1,0.1-0.3,0.1c-0.1,0-0.2,0-0.3,0
		c-0.1-0.1-0.2-0.2-0.3-0.3C125.6,82.6,125.2,82.3,124.8,82.1L124.8,82.1z M131.2,76.1V81c0,0.2,0,0.3,0,0.5c0,0.1,0.1,0.2,0.2,0.2
		c0.1,0.1,0.2,0.3,0.2,0.6c0,0.2,0,0.5-0.1,0.7c-0.1,0.1-0.2,0.1-0.3,0.1h-3.1c-0.2,0-0.3-0.2-0.3-0.5c0-0.2,0-0.4,0-0.6
		c0-0.1,0.1-0.2,0.1-0.2c0.3-0.1,0.4-0.4,0.4-0.8V69.3c0-0.4-0.1-0.7-0.3-0.8c-0.1,0-0.2-0.1-0.2-0.2c0-0.1-0.1-0.3,0-0.5
		c0-0.5,0.1-0.8,0.3-0.7c1.4,0.1,2.8,0.2,4.1,0.3c0.8,0.1,1.6,0.6,2.2,1.4c0.7,0.9,1,1.9,1,3.3c0,1.9-0.8,3.1-2.3,3.6
		c1.4,0.5,2.1,1.6,2.1,3.5v2.3c0,0.2,0,0.3,0.2,0.4c0.1,0.1,0.2,0.3,0.2,0.5c0,0.2,0,0.4,0,0.7c0,0.1-0.1,0.1-0.3,0.1h-2
		c-0.2,0-0.4-0.2-0.6-0.5c-0.2-0.4-0.2-0.9-0.2-1.3v-3.9c0-0.8-0.3-1.2-0.9-1.2L131.2,76.1L131.2,76.1z M131.2,68.5V75l0.5,0
		c0.5,0,0.7-0.6,0.7-1.9v-3.1c0-0.6-0.1-0.9-0.2-1.2c-0.2-0.2-0.4-0.4-0.7-0.4L131.2,68.5L131.2,68.5z M139.6,79.9l-1.9-0.1
		c0,0.3-0.1,0.6-0.1,0.8c0,0,0,0,0,0.1c0,0.2-0.1,0.3-0.1,0.5c0,0.2,0.1,0.4,0.3,0.6c0.1,0.1,0.2,0.2,0.2,0.3c0,0.1,0,0.3,0,0.4
		c0,0.2,0,0.3,0,0.4c0,0-0.1,0.1-0.2,0.1h-2c-0.1,0-0.2-0.1-0.2-0.4c0-0.3,0.1-0.6,0.3-0.8c0.2-0.2,0.2-0.4,0.3-0.6
		c0.2-1.8,0.4-3.7,0.7-5.5c0.2-1.8,0.5-3.6,0.7-5.4c0-0.1,0-0.3,0-0.4c0-0.2-0.1-0.4-0.3-0.6c-0.1-0.1-0.2-0.3-0.1-0.5
		c0-0.2,0-0.4,0-0.6c0-0.1,0.1-0.1,0.2-0.1c1,0.1,1.9,0.3,2.9,0.4c0.2,0,0.3,0.2,0.4,0.4c0.1,0.4,0.2,0.9,0.2,1.3
		c0,0.3,0.1,0.5,0.1,0.8c0.2,1.7,0.4,3.3,0.6,5c0.2,1.6,0.4,3.3,0.6,4.9c0,0.4,0.2,0.8,0.4,1.1c0,0,0.1,0.1,0.1,0.2
		c0,0.1,0,0.2,0,0.3c0,0.2,0,0.4,0,0.6c0,0.1-0.1,0.1-0.2,0.1h-3.3c-0.1,0-0.1-0.1-0.1-0.3c0-0.2,0-0.4,0-0.6c0-0.1,0.1-0.2,0.2-0.2
		c0.2-0.1,0.3-0.3,0.3-0.5C139.7,80.9,139.7,80.5,139.6,79.9L139.6,79.9z M138.7,71.7c-0.1,1.2-0.3,2.3-0.4,3.5
		c-0.1,1.2-0.3,2.4-0.4,3.6l1.7,0.1c-0.1-1.2-0.3-2.4-0.4-3.6C139,74.1,138.8,72.9,138.7,71.7L138.7,71.7z M148.9,70.2
		c0.9,0.2,1.8,0.5,2.7,0.7c0.1,0,0.3,0.1,0.3,0.2c0.1,0.1,0.1,0.3,0.1,0.4c0,0.1,0,0.3-0.1,0.4c-0.1,0.1-0.2,0.1-0.3,0.1
		c-0.1,0-0.2,0.1-0.2,0.1c0,0.1-0.1,0.2,0,0.3v9c0,0.1,0,0.2,0,0.3c0.1,0.1,0.1,0.2,0.2,0.2c0.2,0.1,0.3,0.2,0.3,0.4
		c0,0.2,0,0.4,0,0.7c0,0-0.1,0.1-0.3,0.1h-3.3c-0.1,0-0.2-0.1-0.2-0.4c0-0.2,0-0.3,0-0.5c0-0.1,0.1-0.2,0.3-0.3
		c0.2-0.1,0.3-0.2,0.3-0.4v-6.7c-0.2,0.9-0.4,1.8-0.7,2.7c-0.2,0.9-0.4,1.8-0.7,2.7l-0.8,0c-0.2-0.9-0.4-1.9-0.7-2.8
		s-0.4-1.9-0.7-2.9v7c0,0.2,0.1,0.4,0.3,0.5c0.2,0.1,0.3,0.4,0.3,0.7c0,0.4-0.1,0.5-0.3,0.5h-1.6c-0.2,0-0.3-0.2-0.3-0.5
		c0-0.2,0.1-0.4,0.2-0.6c0.1-0.1,0.1-0.2,0.2-0.3c0-0.1,0.1-0.2,0-0.3v-10c0-0.2,0-0.4-0.1-0.7c0-0.2-0.1-0.3-0.3-0.4
		c-0.1-0.1-0.2-0.2-0.2-0.3c0-0.1,0-0.2,0-0.4c0-0.2,0-0.3,0-0.5c0-0.1,0.1-0.1,0.2-0.1c0.9,0.2,1.8,0.4,2.8,0.6
		c0.2,0.9,0.4,1.8,0.6,2.7c0.2,0.9,0.4,1.8,0.6,2.6c0.2-0.8,0.4-1.6,0.6-2.4C148.4,71.8,148.7,71,148.9,70.2L148.9,70.2z"/>
	<path class="st1" d="M87.9,94.5h0.9c0.1,0,0.2,0,0.2,0c0.1,0,0.1,0,0.2-0.1c0,0,0.1-0.1,0.1-0.1s0.1-0.1,0.1-0.2
		c0-0.1,0.1-0.2,0.1-0.3c0-0.1,0.1-0.3,0.1-0.5H90l-0.1,1.4h-3.1v-0.2c0.1,0,0.2-0.1,0.3-0.1c0.1,0,0.1-0.1,0.1-0.2
		c0-0.1,0-0.2,0-0.4v-3c0-0.1,0-0.2,0-0.3c0-0.1,0-0.1-0.1-0.2c0,0-0.1-0.1-0.1-0.1c-0.1,0-0.1-0.1-0.2-0.1v-0.2h1.4v0.2
		c-0.1,0-0.1,0-0.2,0.1c0,0-0.1,0.1-0.1,0.1c0,0-0.1,0.1-0.1,0.2c0,0.1,0,0.2,0,0.4L87.9,94.5L87.9,94.5z M96.7,94.8v-0.2
		c0.1,0,0.2,0,0.2-0.1c0.1,0,0.1-0.1,0.1-0.1c0-0.1,0-0.1,0-0.2c0-0.1,0-0.2,0-0.2s0-0.2-0.1-0.3l-0.1-0.4h-1.6l-0.1,0.3
		c0,0.1-0.1,0.2-0.1,0.4c0,0.1,0,0.2,0,0.2c0,0.1,0,0.2,0.1,0.3c0.1,0.1,0.2,0.1,0.3,0.1v0.2H94v-0.2c0.1,0,0.3-0.1,0.3-0.2
		c0.1-0.2,0.2-0.3,0.3-0.6l1.4-3.8h0.5l1.2,3.8c0,0.1,0.1,0.3,0.1,0.4c0,0.1,0.1,0.2,0.2,0.2c0.1,0.1,0.2,0.1,0.2,0.1v0.2L96.7,94.8
		z M95.4,93h1.4l-0.7-2.2L95.4,93L95.4,93z M107.5,90.3c-0.1,0-0.1,0-0.2,0.1c0,0-0.1,0.1-0.1,0.1c0,0.1-0.1,0.1-0.1,0.2
		c0,0.1,0,0.2,0,0.3v3c0,0.1,0,0.2,0,0.3c0,0.1,0,0.1,0,0.2c0,0,0.1,0.1,0.1,0.1c0.1,0,0.1,0.1,0.2,0.1v0.2h-1.4v-0.2
		c0.1,0,0.2-0.1,0.3-0.1c0.1,0,0.1-0.1,0.1-0.2c0-0.1,0-0.3,0-0.4v-1.3c0-0.3,0-0.7,0-1s0-0.6,0-0.7h-0.1l-1.3,3.4h-0.4l-1.3-3.4h0
		c0,0.1,0,0.4,0,0.8c0,0.4,0,0.7,0,1.1V94c0,0.1,0,0.2,0,0.3c0,0.1,0,0.1,0,0.2s0.1,0.1,0.1,0.1c0.1,0,0.1,0.1,0.2,0.1v0.2h-1.3
		v-0.2c0.1,0,0.2-0.1,0.3-0.1c0.1,0,0.1-0.1,0.1-0.2c0-0.1,0-0.2,0-0.4v-3c0-0.1,0-0.2,0-0.3c0-0.1,0-0.1-0.1-0.2
		c0,0-0.1-0.1-0.1-0.1c-0.1,0-0.1-0.1-0.2-0.1v-0.2h1.2l1.2,3.3l1.3-3.3h1.2L107.5,90.3L107.5,90.3z M113.2,93.9c0,0.1,0,0.2,0,0.3
		c0,0.1,0,0.1,0,0.2s0.1,0.1,0.1,0.1c0.1,0,0.1,0.1,0.2,0.1v0.2h-1.4v-0.2c0.1,0,0.2-0.1,0.3-0.1c0,0,0.1-0.1,0.1-0.2
		c0-0.1,0-0.2,0-0.4v-3c0-0.1,0-0.2,0-0.3c0-0.1,0-0.1-0.1-0.2c0,0-0.1-0.1-0.1-0.1c-0.1,0-0.1-0.1-0.2-0.1v-0.2h1.4v0.2
		c-0.1,0-0.1,0-0.2,0.1c0,0-0.1,0.1-0.1,0.1c0,0-0.1,0.1-0.1,0.2c0,0.1,0,0.2,0,0.3L113.2,93.9L113.2,93.9z M121.1,92.9
		c0.1,0.1,0.1,0.2,0.2,0.4c0.1,0.1,0.1,0.2,0.2,0.3h0c0-0.1,0-0.4,0-0.8c0-0.4,0-0.8,0-1.1V91c0-0.1,0-0.2,0-0.3c0-0.1,0-0.1,0-0.2
		c0,0-0.1-0.1-0.1-0.1c-0.1,0-0.1-0.1-0.2-0.1v-0.2h1.2v0.2c-0.1,0-0.1,0-0.2,0.1c0,0-0.1,0.1-0.1,0.1c0,0-0.1,0.1-0.1,0.2
		c0,0.1,0,0.2,0,0.4v3.8h-0.4l-1.9-3.2c-0.1-0.2-0.2-0.3-0.2-0.4s-0.1-0.2-0.1-0.3h-0.1c0,0.2,0,0.5,0,1s0,0.9,0,1.4V94
		c0,0.1,0,0.2,0,0.3c0,0.1,0,0.1,0,0.2c0,0,0.1,0.1,0.1,0.1c0.1,0,0.1,0.1,0.2,0.1v0.2h-1.2v-0.2c0.1,0,0.2-0.1,0.3-0.1
		c0.1,0,0.1-0.1,0.1-0.2c0-0.1,0-0.2,0-0.4v-3c0-0.1,0-0.2,0-0.3c0-0.1,0-0.1-0.1-0.2c0,0-0.1-0.1-0.1-0.1c-0.1,0-0.1-0.1-0.2-0.1
		v-0.2h1.1L121.1,92.9L121.1,92.9z M129.1,94.8v-0.2c0.1,0,0.2,0,0.2-0.1c0.1,0,0.1-0.1,0.1-0.1c0-0.1,0-0.1,0-0.2
		c0-0.1,0-0.2,0-0.2s0-0.2-0.1-0.3l-0.1-0.4h-1.6l-0.1,0.3c0,0.1-0.1,0.2-0.1,0.4c0,0.1,0,0.2,0,0.2c0,0.1,0,0.2,0.1,0.3
		c0.1,0.1,0.2,0.1,0.3,0.1v0.2h-1.4v-0.2c0.1,0,0.3-0.1,0.3-0.2c0.1-0.2,0.2-0.3,0.3-0.6l1.4-3.8h0.5l1.2,3.8c0,0.1,0.1,0.3,0.1,0.4
		c0,0.1,0.1,0.2,0.2,0.2c0.1,0.1,0.2,0.1,0.2,0.1v0.2L129.1,94.8z M127.8,93h1.4l-0.7-2.2L127.8,93L127.8,93z M134.4,90.2h3.7v1.2
		h-0.3c0-0.2-0.1-0.3-0.1-0.5c0-0.1-0.1-0.2-0.2-0.3c0-0.1-0.1-0.1-0.2-0.1c-0.1,0-0.2,0-0.3,0h-0.4v3.5c0,0.1,0,0.2,0,0.3
		c0,0.1,0,0.1,0.1,0.2c0,0,0.1,0.1,0.1,0.1c0.1,0,0.2,0.1,0.2,0.1v0.2h-1.6v-0.2c0.1,0,0.1,0,0.2,0c0,0,0.1,0,0.1-0.1
		c0,0,0.1-0.1,0.1-0.1c0-0.1,0-0.1,0-0.2c0-0.1,0-0.2,0-0.3v-3.5h-0.4c-0.1,0-0.2,0-0.3,0c-0.1,0-0.1,0.1-0.2,0.1
		c-0.1,0.1-0.1,0.2-0.2,0.3c-0.1,0.1-0.1,0.3-0.1,0.4h-0.3L134.4,90.2L134.4,90.2z M145.8,90.2v1h-0.3c0-0.1-0.1-0.2-0.1-0.3
		c0-0.1-0.1-0.1-0.1-0.2c0-0.1-0.1-0.1-0.1-0.1s-0.1-0.1-0.2-0.1c-0.1,0-0.1,0-0.2,0h-1.1v1.8h0.7c0.1,0,0.2,0,0.2,0
		c0.1,0,0.1-0.1,0.1-0.1c0-0.1,0.1-0.2,0.1-0.3h0.3v1.3h-0.3c0-0.1-0.1-0.2-0.1-0.3c0-0.1-0.1-0.1-0.1-0.1c-0.1,0-0.2,0-0.2,0h-0.7
		v2h1.1c0.1,0,0.2,0,0.3,0c0.1,0,0.1,0,0.2-0.1s0.1-0.1,0.1-0.2c0-0.1,0.1-0.2,0.1-0.2c0-0.1,0.1-0.2,0.1-0.3h0.3l-0.1,1.2h-3.2
		v-0.2c0.1,0,0.2-0.1,0.3-0.1c0.1,0,0.1-0.1,0.1-0.2c0-0.1,0-0.2,0-0.4v-3c0-0.1,0-0.2,0-0.3c0-0.1,0-0.1-0.1-0.2
		c0,0-0.1-0.1-0.1-0.1c-0.1,0-0.1-0.1-0.2-0.1v-0.2L145.8,90.2z M150.8,93.7c0,0.2,0.1,0.3,0.2,0.5c0.1,0.1,0.2,0.2,0.3,0.3
		c0.1,0.1,0.3,0.1,0.5,0.1c0.2,0,0.4-0.1,0.6-0.2c0.1-0.2,0.2-0.4,0.2-0.6c0-0.1,0-0.3-0.1-0.4c-0.1-0.1-0.2-0.2-0.3-0.3
		c-0.2-0.1-0.4-0.3-0.6-0.4c-0.2-0.1-0.4-0.2-0.6-0.4c-0.1-0.1-0.3-0.2-0.3-0.4c-0.1-0.1-0.1-0.3-0.1-0.5c0-0.2,0.1-0.5,0.2-0.7
		c0.1-0.2,0.3-0.3,0.5-0.4c0.2-0.1,0.5-0.2,0.8-0.2c0.2,0,0.3,0,0.5,0c0.2,0,0.4,0.1,0.6,0.1v0.9h-0.3c0-0.2-0.1-0.3-0.2-0.5
		c-0.1-0.1-0.2-0.2-0.3-0.2s-0.3-0.1-0.4-0.1c-0.1,0-0.3,0-0.4,0.1c-0.1,0.1-0.2,0.1-0.3,0.2c-0.1,0.1-0.1,0.3-0.1,0.4
		c0,0.1,0,0.3,0.1,0.4c0.1,0.1,0.2,0.2,0.3,0.3c0.2,0.1,0.3,0.2,0.6,0.3c0.2,0.1,0.5,0.2,0.7,0.4c0.2,0.1,0.3,0.2,0.4,0.4
		c0.1,0.2,0.1,0.4,0.1,0.6c0,0.2,0,0.4-0.1,0.6c-0.1,0.2-0.2,0.3-0.3,0.4c-0.1,0.1-0.3,0.2-0.5,0.2c-0.2,0-0.4,0.1-0.6,0.1
		c-0.4,0-0.8-0.1-1.2-0.2v-0.9L150.8,93.7z"/>
	<polygon class="st0" points="86.3,87.2 153.5,87.2 153.5,88.4 86.3,88.4 	"/>
	<polygon class="st0" points="86.3,84.7 153.5,84.7 153.5,87.2 86.3,87.2 	"/>
</g>
</svg>
