<?xml version="1.0" encoding="utf-8"?>
<!-- Generator: Adobe Illustrator 24.0.0, SVG Export Plug-In . SVG Version: 6.00 Build 0)  -->
<svg version="1.1" id="Layer_1" xmlns="http://www.w3.org/2000/svg" xmlns:xlink="http://www.w3.org/1999/xlink" x="0px" y="0px"
	 viewBox="0 0 240 100" style="enable-background:new 0 0 240 100;" xml:space="preserve">
<style type="text/css">
	.st0{fill-rule:evenodd;clip-rule:evenodd;fill:#1C1C1A;}
	.st1{fill:#1C1C1A;}
</style>
<g>
	<path class="st0" d="M183.5,72.3c0.2,0,0.3-0.1,0.5-0.2c0.1-0.1,0.2-0.2,0.2-0.5l0,0c0-0.1,0-0.2-0.1-0.2c-0.1,0-0.1-0.1-0.1-0.2
		c-0.1-0.1-0.2-0.1-0.2-0.2c-0.1,0-0.2-0.1-0.3-0.1h-1v2.3h0.2v-0.9h0.7l0.6,1h0.3L183.5,72.3z M182.5,72v-0.9h0.7
		c0.1,0,0.3,0,0.5,0.1c0.1,0.1,0.1,0.2,0.1,0.3l0,0c0,0.1-0.1,0.2-0.2,0.3c-0.1,0.1-0.2,0.1-0.5,0.1H182.5z"/>
	<path class="st1" d="M183,74.3c-0.3,0-0.6-0.1-0.8-0.1c-0.2-0.1-0.5-0.2-0.7-0.5c-0.2-0.2-0.3-0.5-0.5-0.7c-0.2-0.6-0.2-1.2,0-1.7
		c0.1-0.2,0.2-0.5,0.5-0.7s0.5-0.3,0.7-0.5c0.2-0.1,0.6-0.2,0.8-0.2c0.3,0,0.6,0.1,0.8,0.1c0.2,0.1,0.5,0.2,0.7,0.5
		c0.2,0.2,0.3,0.5,0.5,0.7c0.1,0.2,0.1,0.6,0.1,0.8s-0.1,0.6-0.1,0.8c-0.1,0.2-0.2,0.5-0.5,0.7C184.2,74,183.6,74.3,183,74.3
		L183,74.3z M183,70.1c-0.2,0-0.6,0.1-0.8,0.1s-0.5,0.2-0.6,0.5c-0.2,0.2-0.3,0.3-0.5,0.6c-0.1,0.2-0.1,0.5-0.1,0.8s0.1,0.6,0.1,0.8
		c0.1,0.2,0.2,0.5,0.5,0.6c0.2,0.1,0.3,0.3,0.6,0.5c0.8,0.3,1.6,0.1,2.2-0.5c0.2-0.2,0.3-0.3,0.5-0.6c0.1-0.2,0.1-0.5,0.1-0.8
		s-0.1-0.6-0.1-0.8c-0.1-0.2-0.2-0.5-0.5-0.6c-0.2-0.2-0.3-0.3-0.6-0.5C183.6,70.2,183.4,70.1,183,70.1L183,70.1z"/>
	<path class="st1" d="M173.4,79.5l2.6-6l2.6,6H173.4z M168.1,85.5h2.7l1.5-3.6h7.1l1.5,3.6h2.8L177,70.4h-2.4L168.1,85.5z
		 M155.3,85.7c2.8,0,4.5-1,6-2.7l-1.7-1.7c-1.3,1.2-2.4,2-4.3,2c-2.9,0-5-2.4-5-5.3l0,0c0-2.9,2.1-5.3,5-5.3c1.7,0,3,0.8,4.2,1.9
		l1.7-2c-1.4-1.4-3.1-2.3-5.9-2.3c-4.5,0-7.8,3.5-7.8,7.8l0,0C147.6,82.3,150.9,85.7,155.3,85.7 M136.5,85.5h2.7V70.4h-2.7V85.5z
		 M117,85.5h2.7v-6.2h7.5v-2.4h-7.5v-4.1h8.6v-2.4h-11.1L117,85.5z M98.9,78v-5.1h3.8c2,0,3.1,0.9,3.1,2.4l0,0
		c0,1.5-1.2,2.6-3.1,2.6L98.9,78L98.9,78z M96.2,85.5h2.7v-5.2h3.2l3.7,5.2h3.1l-4.1-5.7c2.1-0.6,3.6-2.1,3.6-4.5l0,0
		c0-1.2-0.5-2.3-1.3-3.2c-0.9-0.9-2.4-1.5-4.3-1.5h-6.7V85.5z M80.9,85.7c3.9,0,6.5-2.2,6.5-6.7v-8.5h-2.7v8.7
		c0,2.8-1.4,4.2-3.8,4.2c-2.4,0-3.8-1.5-3.8-4.3v-8.6h-2.7v8.7C74.5,83.4,77.1,85.7,80.9,85.7 M61.1,85.7c3.1,0,5.3-1.6,5.3-4.5l0,0
		c0-2.4-1.6-3.6-4.8-4.4c-2.9-0.7-3.6-1.2-3.6-2.3l0,0c0-1,0.9-1.7,2.4-1.7c1.4,0,2.7,0.6,4.1,1.5l1.4-2c-1.5-1.3-3.5-2-5.5-1.9
		c-3,0-5.1,1.7-5.1,4.4l0,0c0,2.8,1.7,3.7,5,4.5c2.8,0.6,3.4,1.2,3.4,2.3l0,0c0,1.2-1,1.9-2.7,1.9c-1.9,0-3.2-0.7-4.8-2l-1.6,1.9
		C56.5,84.8,58.7,85.7,61.1,85.7"/>
	<path class="st1" d="M67.3,92.7h3.9v0.9h-1.4v5.5h-1.2v-5.5h-1.4C67.3,93.6,67.3,92.7,67.3,92.7z"/>
	<path class="st1" d="M73.2,99.1v-6.4h1.2v2.6h1.7v-2.6h1.2v6.4h-1.2v-2.9h-1.6v2.9H73.2z"/>
	<path class="st1" d="M79.6,99.1v-6.4H83v0.9h-2.2v1.6h2v0.9h-2v2H83v0.9H79.6z"/>
	<path class="st1" d="M88.4,99.1v-6.4h1.2v5.5h2.2v0.9H88.4z"/>
	<path class="st1" d="M93.4,99.1l1.5-6.4h1.6l1.5,6.4h-1.3l-0.3-1.6h-1.4l-0.3,1.6H93.4z M95.2,96.5h1l-0.3-1.9
		c-0.1-0.3-0.1-0.6-0.1-0.9c0-0.1,0-0.3,0-0.5l0,0c0,0.1,0,0.2,0,0.5c0,0.3-0.1,0.6-0.1,0.9L95.2,96.5z"/>
	<path class="st1" d="M101,99.1h-1.2v-6.4h1.9l0.6,3c0.1,0.5,0.2,0.9,0.2,1.5l0,0c0-0.5,0.1-1,0.2-1.5l0.6-3h1.9v6.4H104v-2
		c0-1.3,0-2.6,0.1-3.8l0,0l-1.3,5.8h-0.7l-1.3-5.8l0,0c0.1,1.3,0.1,2.6,0.1,3.8L101,99.1z"/>
	<path class="st1" d="M107.7,99.1v-6.4h1.2v6.4H107.7z"/>
	<path class="st1" d="M114.1,92.7h1.2v6.4H114l-0.9-2.3c-0.3-0.8-0.6-1.7-0.8-2.6l0,0c0,0.6,0.1,1.2,0.1,1.9c0,0.6,0.1,1.3,0.1,1.7
		V99h-1.2v-6.4h1.3l0.9,2.3c0.3,0.8,0.6,1.7,0.8,2.6l0,0c0-0.6-0.1-1.2-0.1-1.9c0-0.6-0.1-1.3-0.1-1.9V92.7L114.1,92.7z"/>
	<path class="st1" d="M117.2,99.1l1.5-6.4h1.6l1.5,6.4h-1.3l-0.3-1.6h-1.4l-0.3,1.6H117.2z M119,96.5h1l-0.3-1.9
		c-0.1-0.3-0.1-0.6-0.1-0.9c0-0.1,0-0.3,0-0.5l0,0c0,0.1,0,0.2,0,0.5c0,0.3-0.1,0.6-0.1,0.9L119,96.5z"/>
	<path class="st1" d="M122.7,92.7h3.9v0.9h-1.4v5.5h-1.2v-5.5h-1.4C122.7,93.6,122.7,92.7,122.7,92.7z"/>
	<path class="st1" d="M128.6,99.1v-6.4h3.4v0.9h-2.2v1.6h2v0.9h-2v2h2.2v0.9H128.6z"/>
	<path class="st1" d="M137.4,99.1v-6.4h3.4v0.9h-2.2v1.6h2v0.9h-2v2h2.2v0.9H137.4z"/>
	<path class="st1" d="M146.9,99.1h-1.4l-0.7-1.6c-0.1-0.2-0.2-0.6-0.2-0.8l0,0c-0.1,0.5-0.2,0.8-0.5,1.2l-0.6,1.2h-1.3l1.6-3.2
		l-1.5-3.1h1.3l0.6,1.5c0.1,0.2,0.2,0.5,0.2,0.8l0,0c0.1-0.5,0.2-0.8,0.3-1.2l0.5-1h1.4l-1.5,3.1L146.9,99.1z"/>
	<path class="st1" d="M148.9,99.1v-6.4h2.4c1.2,0,1.5,0.9,1.5,1.9c0,0.6-0.2,1.2-0.6,1.5c-0.3,0.2-0.9,0.5-1.3,0.3h-0.8v2.7
		L148.9,99.1z M150.1,95.5h0.6c0.5,0,0.9-0.2,0.9-1c0-0.8-0.3-0.8-0.9-0.8h-0.6V95.5z"/>
	<path class="st1" d="M154.7,99.1v-6.4h3.4v0.9H156v1.6h2v0.9h-2v2h2.2v0.9H154.7z"/>
	<path class="st1" d="M161.5,96.3v2.8h-1.2v-6.4h2.3c1,0,1.9,0.3,1.9,1.5c0,0.7-0.2,1.4-0.9,1.5l0,0c0.7,0.1,0.9,0.6,0.9,1.2
		c0,0.2,0,1.9,0.2,2V99h-1.3c-0.1-0.5-0.1-1.2-0.1-1.6c0-0.5,0-0.9-0.5-1c-0.3-0.1-0.7-0.1-1-0.1L161.5,96.3z M161.5,95.4h0.9
		c0.3,0,0.7-0.2,0.7-0.9c0-0.7-0.3-0.8-0.8-0.8h-0.9v1.7H161.5z"/>
	<path class="st1" d="M166.1,92.7h3.9v0.9h-1.4v5.5h-1.2v-5.5h-1.4V92.7z"/>
	<path class="st0" d="M144.5,15.9c0-0.3-0.2-0.6-0.5-0.8l-12.1-7h-0.1l-12.2-7c-0.3-0.2-0.7-0.2-0.9,0l-12.2,7.1l0,0l-12.1,7
		c-0.3,0.1-0.6,0.5-0.6,0.8v28.1l0,0c0,0.3,0.2,0.6,0.5,0.8l12.2,7l12.2,7c0.3,0.2,0.6,0.2,0.9,0l12.2-7l12.1-7
		c0.3-0.1,0.6-0.5,0.6-0.8V15.9L144.5,15.9z M95.9,31.5l9.4,5.5l-9.4,5.3V31.5z M120,29.2l-0.2-0.1c-0.2-0.1-0.3-0.2-0.6-0.2H98.4
		l20.8-12.1l22.4,13l-10.3,5.9L120,29.2z M129.5,36.9l-7.2,4.2l-3,1.7L109,36.9l10.3-5.9L129.5,36.9z M107.5,30.8h8.2l-8.7,5l-8.7-5
		H107.5z M119.3,56.8l-22.5-13l10.3-5.9l11.7,6.7c0.1,0.1,0.3,0.1,0.5,0.1h20.8L119.3,56.8z M131,42.9h-8.2l8.7-5l8.7,5H131z
		 M142.6,42.3l-9.4-5.3l9.4-5.5V42.3z M142.6,28.3l-22.9-13.2c-0.3-0.2-0.7-0.2-0.9,0l-23,13.2V16.5l11.7-6.7L119.3,3L131,9.7
		c0,0,0,0,0.1,0l11.6,6.7L142.6,28.3L142.6,28.3z"/>
</g>
</svg>
